<svg width="25" height="25" viewBox="0 0 25 25" fill="none" xmlns="http://www.w3.org/2000/svg">
<g id="Social icon" clip-path="url(#clip0_47_49)">
<path id="path4" d="M21.676 17.5622C21.3432 18.3308 20.9494 19.0383 20.4932 19.6888C19.8712 20.5755 19.362 21.1893 18.9695 21.5302C18.3611 22.0897 17.7093 22.3762 17.0113 22.3925C16.5102 22.3925 15.9059 22.2499 15.2025 21.9607C14.4967 21.6728 13.8481 21.5302 13.2551 21.5302C12.6332 21.5302 11.9661 21.6728 11.2526 21.9607C10.5381 22.2499 9.96241 22.4007 9.52229 22.4156C8.85294 22.4441 8.18577 22.1494 7.51981 21.5302C7.09477 21.1595 6.56312 20.5239 5.92622 19.6236C5.24289 18.6621 4.68109 17.5472 4.24097 16.2762C3.76961 14.9032 3.53333 13.5738 3.53333 12.2867C3.53333 10.8123 3.85191 9.54069 4.49002 8.47508C4.99153 7.61914 5.6587 6.94395 6.49372 6.44829C7.32875 5.95262 8.23099 5.70004 9.20262 5.68388C9.73427 5.68388 10.4315 5.84833 11.2979 6.17153C12.1618 6.49582 12.7165 6.66027 12.9598 6.66027C13.1416 6.66027 13.7578 6.46798 14.8025 6.08462C15.7905 5.7291 16.6243 5.58189 17.3073 5.63988C19.1583 5.78926 20.5488 6.5189 21.4736 7.83343C19.8182 8.83644 18.9994 10.2413 19.0157 12.0435C19.0306 13.4472 19.5398 14.6153 20.5407 15.5428C20.9942 15.9733 21.5008 16.306 22.0643 16.5423C21.9421 16.8967 21.8131 17.2362 21.676 17.5622ZM17.4309 0.857606C17.4309 1.95786 17.0289 2.98516 16.2277 3.93602C15.2608 5.0664 14.0914 5.71959 12.8231 5.61652C12.807 5.48453 12.7976 5.34561 12.7976 5.19962C12.7976 4.14338 13.2574 3.013 14.074 2.08875C14.4816 1.62079 15.0001 1.23169 15.6289 0.921295C16.2562 0.615531 16.8497 0.446437 17.4078 0.41748C17.4241 0.564567 17.4309 0.711663 17.4309 0.857591V0.857606Z" fill="white"/>
</g>
<defs>
<clipPath id="clip0_47_49">
<rect width="24" height="24" fill="white" transform="translate(0.833313 0.417236)"/>
</clipPath>
</defs>
</svg>
