<svg width="24" height="25" viewBox="0 0 24 25" fill="none" xmlns="http://www.w3.org/2000/svg">
<g id="bell-01">
<path id="Icon" d="M9.35416 21.5C10.0593 22.1224 10.9855 22.5 12 22.5C13.0144 22.5 13.9407 22.1224 14.6458 21.5M18 8.5C18 6.9087 17.3678 5.38258 16.2426 4.25736C15.1174 3.13214 13.5913 2.5 12 2.5C10.4087 2.5 8.88257 3.13214 7.75735 4.25736C6.63213 5.38258 5.99999 6.9087 5.99999 8.5C5.99999 11.5902 5.22046 13.706 4.34965 15.1054C3.61512 16.2859 3.24785 16.8761 3.26131 17.0408C3.27622 17.2231 3.31485 17.2926 3.46176 17.4016C3.59445 17.5 4.19258 17.5 5.38884 17.5H18.6111C19.8074 17.5 20.4055 17.5 20.5382 17.4016C20.6851 17.2926 20.7238 17.2231 20.7387 17.0408C20.7521 16.8761 20.3849 16.2859 19.6503 15.1054C18.7795 13.706 18 11.5902 18 8.5Z" stroke="#B1AEA6" stroke-width="2" stroke-linecap="round" stroke-linejoin="round"/>
</g>
</svg>
