<svg width="14" height="18" viewBox="0 0 14 18" fill="none" xmlns="http://www.w3.org/2000/svg">
<mask id="path-1-outside-1_1460_71" maskUnits="userSpaceOnUse" x="-0.166748" y="-0.333252" width="14" height="18" fill="black">
<rect fill="white" x="-0.166748" y="-0.333252" width="14" height="18"/>
<path d="M12.9118 13.9759C12.5179 13.4042 11.9198 13.0882 11.3584 12.8826C11.0765 12.7797 10.8007 12.7041 10.5581 12.6397C10.316 12.5758 10.1053 12.5219 9.96391 12.4701C9.77347 12.4015 9.57564 12.3173 9.41148 12.2256C9.41148 12.2251 9.41192 12.2247 9.41192 12.2247L9.40114 12.2195C9.3559 12.1938 9.31153 12.1679 9.27229 12.1411C9.18093 12.0793 9.11071 12.0158 9.0702 11.9619C9.02885 11.9065 9.01764 11.8682 9.01764 11.8348C9.01764 11.6037 9.01764 11.3151 9.01764 10.935C9.33435 10.5932 9.78941 10.0635 9.97643 9.22365C10.0415 9.19523 10.1061 9.16304 10.1682 9.12085C10.3233 9.0172 10.4548 8.86675 10.5659 8.662C10.6784 8.45636 10.7775 8.19351 10.8835 7.83387C10.9369 7.65145 10.9619 7.49305 10.9619 7.35177C10.9623 7.18921 10.9274 7.04839 10.8641 6.93364C10.8016 6.81955 10.7137 6.74139 10.6254 6.68687C10.7793 6.26896 10.9904 5.41327 10.7896 4.17977C10.628 3.18846 9.77649 2.24022 8.2459 1.92007C8.25019 1.88201 8.25798 1.84504 8.25798 1.80597C8.25791 1.17684 7.73176 0.666748 7.08323 0.666748C6.43427 0.666748 5.90856 1.17684 5.90856 1.80601C5.90856 1.84507 5.91631 1.88205 5.92017 1.9201C4.39001 2.24022 3.53809 3.18849 3.37695 4.1798C3.17613 5.41183 3.38685 6.26649 3.54024 6.68524C3.45233 6.73872 3.36402 6.82085 3.30193 6.9339C3.2386 7.04842 3.20412 7.18944 3.20453 7.35204C3.20453 7.49308 3.2291 7.65148 3.28297 7.8339C3.42474 8.31281 3.55272 8.62189 3.71863 8.84881C3.80137 8.96167 3.89531 9.05213 3.99785 9.12088C4.06035 9.1631 4.12499 9.1953 4.19004 9.22368C4.37706 10.0635 4.83212 10.5932 5.14883 10.935C5.14883 11.3152 5.14883 11.6037 5.14883 11.8348C5.14883 11.8633 5.13718 11.9042 5.09194 11.9627C5.02515 12.0497 4.88727 12.155 4.72351 12.2442C4.55975 12.3345 4.37145 12.4124 4.20685 12.4688C4.01379 12.5353 3.70225 12.6042 3.35365 12.7012C2.82965 12.8483 2.20999 13.0602 1.70542 13.4794C1.45419 13.6889 1.23314 13.9525 1.07757 14.2797C0.921997 14.6065 0.832817 14.9951 0.833254 15.4499C0.833254 15.5554 0.83802 15.6647 0.847485 15.7775C0.854802 15.8565 0.885848 15.9209 0.922031 15.9739C0.991844 16.0726 1.08364 16.1461 1.19914 16.2216C1.40082 16.3511 1.68045 16.4776 2.03858 16.6021C3.06027 16.9556 4.72274 17.2799 6.78119 17.3096L6.79626 17.3334C6.80918 17.3257 6.8217 17.3177 6.83463 17.31C6.91736 17.3111 6.99922 17.3125 7.08327 17.3125C8.86942 17.3125 10.3772 17.0877 11.4536 16.8052C11.9922 16.6635 12.4218 16.5084 12.7326 16.3538C12.8881 16.2757 13.014 16.1987 13.1139 16.1143C13.1634 16.0717 13.2074 16.027 13.2445 15.9739C13.2807 15.9208 13.3117 15.8565 13.319 15.7775C13.3285 15.6646 13.3332 15.5558 13.3332 15.4507C13.3341 14.8447 13.1733 14.3561 12.9118 13.9759ZM1.65631 15.9353C1.524 15.8695 1.4266 15.8068 1.37276 15.7604C1.34994 15.7412 1.33698 15.7265 1.33054 15.7178C1.32279 15.625 1.31846 15.5353 1.31846 15.4499C1.31933 14.9216 1.45248 14.5359 1.65846 14.2333C1.96614 13.7809 2.46041 13.5041 2.97663 13.3155C3.2339 13.2215 3.49415 13.15 3.73289 13.088C3.97204 13.0257 4.18796 12.9741 4.36806 12.9127C4.61842 12.8268 4.90885 12.7025 5.15447 12.5372C5.27685 12.454 5.38932 12.3606 5.47853 12.2473C5.56644 12.1353 5.63407 11.9949 5.63454 11.8348C5.63454 11.5849 5.63454 11.2732 5.63454 10.8452V10.7547L5.57204 10.6876C5.2411 10.3301 4.79295 9.85555 4.63782 9.01219L4.61325 8.87743L4.4801 8.83146C4.39565 8.8022 4.33144 8.77232 4.27539 8.73452C4.19222 8.67769 4.11683 8.60015 4.02893 8.44133C3.9423 8.28338 3.8501 8.04722 3.74968 7.70454C3.70571 7.55493 3.6898 7.43853 3.6898 7.352C3.6902 7.25151 3.7096 7.19299 3.73028 7.15578C3.76089 7.10187 3.79794 7.07889 3.84577 7.0605C3.87853 7.04797 3.913 7.04357 3.9328 7.04214L4.20041 7.09771V6.80643C4.20041 6.80643 4.20041 6.52808 4.20041 6.19963C4.33702 5.34956 4.59727 5.07039 5.04112 5.03446C5.62846 4.9868 6.05506 5.2242 7.08323 5.2242C8.11097 5.2242 8.53801 4.98683 9.12535 5.03446C9.56876 5.07039 9.82902 5.34956 9.96606 6.19963C9.96606 6.52808 9.96606 6.80643 9.96606 6.80643V7.06825L10.054 7.05926C10.0544 7.0647 10.0549 7.06952 10.0553 7.07515C10.085 7.06844 10.138 7.05718 10.1979 7.04422L10.2238 7.04172C10.2432 7.04172 10.316 7.04985 10.3651 7.08162C10.3931 7.09898 10.4155 7.11903 10.4362 7.15581C10.4565 7.19299 10.4763 7.25151 10.4767 7.35181C10.4767 7.43833 10.4608 7.55474 10.4168 7.70477C10.2828 8.16174 10.163 8.42775 10.0527 8.57528C9.99801 8.64989 9.94713 8.69627 9.89114 8.73452C9.83513 8.77235 9.77048 8.80223 9.68603 8.83146L9.55332 8.8772L9.52875 9.01219C9.37362 9.85555 8.92547 10.3301 8.59453 10.6876L8.53203 10.7547V10.8452C8.53203 11.2732 8.53203 11.5849 8.53203 11.8348C8.53203 11.9899 8.59409 12.1295 8.67941 12.2409C8.73889 12.3188 8.81041 12.3865 8.88838 12.4484C8.65226 12.8132 8.31225 13.186 7.90677 13.5456C7.09622 14.2667 6.02929 14.9383 5.04163 15.4436C4.5478 15.6965 4.07337 15.9079 3.66184 16.0642C3.3072 16.1992 3.00167 16.2895 2.77373 16.3329C2.29148 16.2027 1.90969 16.0621 1.65631 15.9353ZM11.0136 15.8912C11.0515 16.0826 11.0989 16.2495 11.1545 16.3935C10.9779 16.437 10.7921 16.4792 10.5935 16.5185C9.76008 16.684 8.73664 16.8081 7.57619 16.8359C8.85344 15.9539 9.62347 15.0733 9.62992 15.0662L9.3606 14.8451L9.34939 14.8577C9.24081 14.9793 8.33847 15.9637 6.94445 16.8398C5.58835 16.8305 4.40592 16.689 3.47257 16.4963C3.70611 16.4177 3.9612 16.3199 4.23488 16.2033C5.15702 15.8097 6.26276 15.215 7.23273 14.5216C8.03639 13.9449 8.74392 13.3046 9.177 12.6385C9.17915 12.6395 9.18089 12.6408 9.18261 12.6418C9.37825 12.7492 9.59242 12.8378 9.79364 12.911C10.0341 12.9977 10.3405 13.0658 10.6753 13.1604C10.8356 13.2052 11.0006 13.257 11.1653 13.3163C10.9912 13.8366 10.9205 14.3856 10.9205 14.8915C10.9205 15.2563 10.9558 15.5982 11.0136 15.8912ZM12.8359 15.7169L12.8148 15.7411C12.779 15.7762 12.7071 15.8289 12.6054 15.8851C12.3731 16.0151 11.9927 16.1641 11.4963 16.3041C11.4458 16.1793 11.3976 16.0167 11.3601 15.8268C11.307 15.5568 11.2735 15.2346 11.2735 14.8915C11.2735 14.4238 11.3394 13.9186 11.4928 13.4484C11.7272 13.5542 11.9508 13.6816 12.1435 13.8417C12.3503 14.0134 12.5235 14.2197 12.6476 14.4794C12.7718 14.7392 12.8476 15.0547 12.848 15.4507C12.848 15.5355 12.8432 15.6245 12.8359 15.7169Z"/>
</mask>
<path d="M12.9118 13.9759C12.5179 13.4042 11.9198 13.0882 11.3584 12.8826C11.0765 12.7797 10.8007 12.7041 10.5581 12.6397C10.316 12.5758 10.1053 12.5219 9.96391 12.4701C9.77347 12.4015 9.57564 12.3173 9.41148 12.2256C9.41148 12.2251 9.41192 12.2247 9.41192 12.2247L9.40114 12.2195C9.3559 12.1938 9.31153 12.1679 9.27229 12.1411C9.18093 12.0793 9.11071 12.0158 9.0702 11.9619C9.02885 11.9065 9.01764 11.8682 9.01764 11.8348C9.01764 11.6037 9.01764 11.3151 9.01764 10.935C9.33435 10.5932 9.78941 10.0635 9.97643 9.22365C10.0415 9.19523 10.1061 9.16304 10.1682 9.12085C10.3233 9.0172 10.4548 8.86675 10.5659 8.662C10.6784 8.45636 10.7775 8.19351 10.8835 7.83387C10.9369 7.65145 10.9619 7.49305 10.9619 7.35177C10.9623 7.18921 10.9274 7.04839 10.8641 6.93364C10.8016 6.81955 10.7137 6.74139 10.6254 6.68687C10.7793 6.26896 10.9904 5.41327 10.7896 4.17977C10.628 3.18846 9.77649 2.24022 8.2459 1.92007C8.25019 1.88201 8.25798 1.84504 8.25798 1.80597C8.25791 1.17684 7.73176 0.666748 7.08323 0.666748C6.43427 0.666748 5.90856 1.17684 5.90856 1.80601C5.90856 1.84507 5.91631 1.88205 5.92017 1.9201C4.39001 2.24022 3.53809 3.18849 3.37695 4.1798C3.17613 5.41183 3.38685 6.26649 3.54024 6.68524C3.45233 6.73872 3.36402 6.82085 3.30193 6.9339C3.2386 7.04842 3.20412 7.18944 3.20453 7.35204C3.20453 7.49308 3.2291 7.65148 3.28297 7.8339C3.42474 8.31281 3.55272 8.62189 3.71863 8.84881C3.80137 8.96167 3.89531 9.05213 3.99785 9.12088C4.06035 9.1631 4.12499 9.1953 4.19004 9.22368C4.37706 10.0635 4.83212 10.5932 5.14883 10.935C5.14883 11.3152 5.14883 11.6037 5.14883 11.8348C5.14883 11.8633 5.13718 11.9042 5.09194 11.9627C5.02515 12.0497 4.88727 12.155 4.72351 12.2442C4.55975 12.3345 4.37145 12.4124 4.20685 12.4688C4.01379 12.5353 3.70225 12.6042 3.35365 12.7012C2.82965 12.8483 2.20999 13.0602 1.70542 13.4794C1.45419 13.6889 1.23314 13.9525 1.07757 14.2797C0.921997 14.6065 0.832817 14.9951 0.833254 15.4499C0.833254 15.5554 0.83802 15.6647 0.847485 15.7775C0.854802 15.8565 0.885848 15.9209 0.922031 15.9739C0.991844 16.0726 1.08364 16.1461 1.19914 16.2216C1.40082 16.3511 1.68045 16.4776 2.03858 16.6021C3.06027 16.9556 4.72274 17.2799 6.78119 17.3096L6.79626 17.3334C6.80918 17.3257 6.8217 17.3177 6.83463 17.31C6.91736 17.3111 6.99922 17.3125 7.08327 17.3125C8.86942 17.3125 10.3772 17.0877 11.4536 16.8052C11.9922 16.6635 12.4218 16.5084 12.7326 16.3538C12.8881 16.2757 13.014 16.1987 13.1139 16.1143C13.1634 16.0717 13.2074 16.027 13.2445 15.9739C13.2807 15.9208 13.3117 15.8565 13.319 15.7775C13.3285 15.6646 13.3332 15.5558 13.3332 15.4507C13.3341 14.8447 13.1733 14.3561 12.9118 13.9759ZM1.65631 15.9353C1.524 15.8695 1.4266 15.8068 1.37276 15.7604C1.34994 15.7412 1.33698 15.7265 1.33054 15.7178C1.32279 15.625 1.31846 15.5353 1.31846 15.4499C1.31933 14.9216 1.45248 14.5359 1.65846 14.2333C1.96614 13.7809 2.46041 13.5041 2.97663 13.3155C3.2339 13.2215 3.49415 13.15 3.73289 13.088C3.97204 13.0257 4.18796 12.9741 4.36806 12.9127C4.61842 12.8268 4.90885 12.7025 5.15447 12.5372C5.27685 12.454 5.38932 12.3606 5.47853 12.2473C5.56644 12.1353 5.63407 11.9949 5.63454 11.8348C5.63454 11.5849 5.63454 11.2732 5.63454 10.8452V10.7547L5.57204 10.6876C5.2411 10.3301 4.79295 9.85555 4.63782 9.01219L4.61325 8.87743L4.4801 8.83146C4.39565 8.8022 4.33144 8.77232 4.27539 8.73452C4.19222 8.67769 4.11683 8.60015 4.02893 8.44133C3.9423 8.28338 3.8501 8.04722 3.74968 7.70454C3.70571 7.55493 3.6898 7.43853 3.6898 7.352C3.6902 7.25151 3.7096 7.19299 3.73028 7.15578C3.76089 7.10187 3.79794 7.07889 3.84577 7.0605C3.87853 7.04797 3.913 7.04357 3.9328 7.04214L4.20041 7.09771V6.80643C4.20041 6.80643 4.20041 6.52808 4.20041 6.19963C4.33702 5.34956 4.59727 5.07039 5.04112 5.03446C5.62846 4.9868 6.05506 5.2242 7.08323 5.2242C8.11097 5.2242 8.53801 4.98683 9.12535 5.03446C9.56876 5.07039 9.82902 5.34956 9.96606 6.19963C9.96606 6.52808 9.96606 6.80643 9.96606 6.80643V7.06825L10.054 7.05926C10.0544 7.0647 10.0549 7.06952 10.0553 7.07515C10.085 7.06844 10.138 7.05718 10.1979 7.04422L10.2238 7.04172C10.2432 7.04172 10.316 7.04985 10.3651 7.08162C10.3931 7.09898 10.4155 7.11903 10.4362 7.15581C10.4565 7.19299 10.4763 7.25151 10.4767 7.35181C10.4767 7.43833 10.4608 7.55474 10.4168 7.70477C10.2828 8.16174 10.163 8.42775 10.0527 8.57528C9.99801 8.64989 9.94713 8.69627 9.89114 8.73452C9.83513 8.77235 9.77048 8.80223 9.68603 8.83146L9.55332 8.8772L9.52875 9.01219C9.37362 9.85555 8.92547 10.3301 8.59453 10.6876L8.53203 10.7547V10.8452C8.53203 11.2732 8.53203 11.5849 8.53203 11.8348C8.53203 11.9899 8.59409 12.1295 8.67941 12.2409C8.73889 12.3188 8.81041 12.3865 8.88838 12.4484C8.65226 12.8132 8.31225 13.186 7.90677 13.5456C7.09622 14.2667 6.02929 14.9383 5.04163 15.4436C4.5478 15.6965 4.07337 15.9079 3.66184 16.0642C3.3072 16.1992 3.00167 16.2895 2.77373 16.3329C2.29148 16.2027 1.90969 16.0621 1.65631 15.9353ZM11.0136 15.8912C11.0515 16.0826 11.0989 16.2495 11.1545 16.3935C10.9779 16.437 10.7921 16.4792 10.5935 16.5185C9.76008 16.684 8.73664 16.8081 7.57619 16.8359C8.85344 15.9539 9.62347 15.0733 9.62992 15.0662L9.3606 14.8451L9.34939 14.8577C9.24081 14.9793 8.33847 15.9637 6.94445 16.8398C5.58835 16.8305 4.40592 16.689 3.47257 16.4963C3.70611 16.4177 3.9612 16.3199 4.23488 16.2033C5.15702 15.8097 6.26276 15.215 7.23273 14.5216C8.03639 13.9449 8.74392 13.3046 9.177 12.6385C9.17915 12.6395 9.18089 12.6408 9.18261 12.6418C9.37825 12.7492 9.59242 12.8378 9.79364 12.911C10.0341 12.9977 10.3405 13.0658 10.6753 13.1604C10.8356 13.2052 11.0006 13.257 11.1653 13.3163C10.9912 13.8366 10.9205 14.3856 10.9205 14.8915C10.9205 15.2563 10.9558 15.5982 11.0136 15.8912ZM12.8359 15.7169L12.8148 15.7411C12.779 15.7762 12.7071 15.8289 12.6054 15.8851C12.3731 16.0151 11.9927 16.1641 11.4963 16.3041C11.4458 16.1793 11.3976 16.0167 11.3601 15.8268C11.307 15.5568 11.2735 15.2346 11.2735 14.8915C11.2735 14.4238 11.3394 13.9186 11.4928 13.4484C11.7272 13.5542 11.9508 13.6816 12.1435 13.8417C12.3503 14.0134 12.5235 14.2197 12.6476 14.4794C12.7718 14.7392 12.8476 15.0547 12.848 15.4507C12.848 15.5355 12.8432 15.6245 12.8359 15.7169Z" fill="#673C1C"/>
<path d="M12.9118 13.9759C12.5179 13.4042 11.9198 13.0882 11.3584 12.8826C11.0765 12.7797 10.8007 12.7041 10.5581 12.6397C10.316 12.5758 10.1053 12.5219 9.96391 12.4701C9.77347 12.4015 9.57564 12.3173 9.41148 12.2256C9.41148 12.2251 9.41192 12.2247 9.41192 12.2247L9.40114 12.2195C9.3559 12.1938 9.31153 12.1679 9.27229 12.1411C9.18093 12.0793 9.11071 12.0158 9.0702 11.9619C9.02885 11.9065 9.01764 11.8682 9.01764 11.8348C9.01764 11.6037 9.01764 11.3151 9.01764 10.935C9.33435 10.5932 9.78941 10.0635 9.97643 9.22365C10.0415 9.19523 10.1061 9.16304 10.1682 9.12085C10.3233 9.0172 10.4548 8.86675 10.5659 8.662C10.6784 8.45636 10.7775 8.19351 10.8835 7.83387C10.9369 7.65145 10.9619 7.49305 10.9619 7.35177C10.9623 7.18921 10.9274 7.04839 10.8641 6.93364C10.8016 6.81955 10.7137 6.74139 10.6254 6.68687C10.7793 6.26896 10.9904 5.41327 10.7896 4.17977C10.628 3.18846 9.77649 2.24022 8.2459 1.92007C8.25019 1.88201 8.25798 1.84504 8.25798 1.80597C8.25791 1.17684 7.73176 0.666748 7.08323 0.666748C6.43427 0.666748 5.90856 1.17684 5.90856 1.80601C5.90856 1.84507 5.91631 1.88205 5.92017 1.9201C4.39001 2.24022 3.53809 3.18849 3.37695 4.1798C3.17613 5.41183 3.38685 6.26649 3.54024 6.68524C3.45233 6.73872 3.36402 6.82085 3.30193 6.9339C3.2386 7.04842 3.20412 7.18944 3.20453 7.35204C3.20453 7.49308 3.2291 7.65148 3.28297 7.8339C3.42474 8.31281 3.55272 8.62189 3.71863 8.84881C3.80137 8.96167 3.89531 9.05213 3.99785 9.12088C4.06035 9.1631 4.12499 9.1953 4.19004 9.22368C4.37706 10.0635 4.83212 10.5932 5.14883 10.935C5.14883 11.3152 5.14883 11.6037 5.14883 11.8348C5.14883 11.8633 5.13718 11.9042 5.09194 11.9627C5.02515 12.0497 4.88727 12.155 4.72351 12.2442C4.55975 12.3345 4.37145 12.4124 4.20685 12.4688C4.01379 12.5353 3.70225 12.6042 3.35365 12.7012C2.82965 12.8483 2.20999 13.0602 1.70542 13.4794C1.45419 13.6889 1.23314 13.9525 1.07757 14.2797C0.921997 14.6065 0.832817 14.9951 0.833254 15.4499C0.833254 15.5554 0.83802 15.6647 0.847485 15.7775C0.854802 15.8565 0.885848 15.9209 0.922031 15.9739C0.991844 16.0726 1.08364 16.1461 1.19914 16.2216C1.40082 16.3511 1.68045 16.4776 2.03858 16.6021C3.06027 16.9556 4.72274 17.2799 6.78119 17.3096L6.79626 17.3334C6.80918 17.3257 6.8217 17.3177 6.83463 17.31C6.91736 17.3111 6.99922 17.3125 7.08327 17.3125C8.86942 17.3125 10.3772 17.0877 11.4536 16.8052C11.9922 16.6635 12.4218 16.5084 12.7326 16.3538C12.8881 16.2757 13.014 16.1987 13.1139 16.1143C13.1634 16.0717 13.2074 16.027 13.2445 15.9739C13.2807 15.9208 13.3117 15.8565 13.319 15.7775C13.3285 15.6646 13.3332 15.5558 13.3332 15.4507C13.3341 14.8447 13.1733 14.3561 12.9118 13.9759ZM1.65631 15.9353C1.524 15.8695 1.4266 15.8068 1.37276 15.7604C1.34994 15.7412 1.33698 15.7265 1.33054 15.7178C1.32279 15.625 1.31846 15.5353 1.31846 15.4499C1.31933 14.9216 1.45248 14.5359 1.65846 14.2333C1.96614 13.7809 2.46041 13.5041 2.97663 13.3155C3.2339 13.2215 3.49415 13.15 3.73289 13.088C3.97204 13.0257 4.18796 12.9741 4.36806 12.9127C4.61842 12.8268 4.90885 12.7025 5.15447 12.5372C5.27685 12.454 5.38932 12.3606 5.47853 12.2473C5.56644 12.1353 5.63407 11.9949 5.63454 11.8348C5.63454 11.5849 5.63454 11.2732 5.63454 10.8452V10.7547L5.57204 10.6876C5.2411 10.3301 4.79295 9.85555 4.63782 9.01219L4.61325 8.87743L4.4801 8.83146C4.39565 8.8022 4.33144 8.77232 4.27539 8.73452C4.19222 8.67769 4.11683 8.60015 4.02893 8.44133C3.9423 8.28338 3.8501 8.04722 3.74968 7.70454C3.70571 7.55493 3.6898 7.43853 3.6898 7.352C3.6902 7.25151 3.7096 7.19299 3.73028 7.15578C3.76089 7.10187 3.79794 7.07889 3.84577 7.0605C3.87853 7.04797 3.913 7.04357 3.9328 7.04214L4.20041 7.09771V6.80643C4.20041 6.80643 4.20041 6.52808 4.20041 6.19963C4.33702 5.34956 4.59727 5.07039 5.04112 5.03446C5.62846 4.9868 6.05506 5.2242 7.08323 5.2242C8.11097 5.2242 8.53801 4.98683 9.12535 5.03446C9.56876 5.07039 9.82902 5.34956 9.96606 6.19963C9.96606 6.52808 9.96606 6.80643 9.96606 6.80643V7.06825L10.054 7.05926C10.0544 7.0647 10.0549 7.06952 10.0553 7.07515C10.085 7.06844 10.138 7.05718 10.1979 7.04422L10.2238 7.04172C10.2432 7.04172 10.316 7.04985 10.3651 7.08162C10.3931 7.09898 10.4155 7.11903 10.4362 7.15581C10.4565 7.19299 10.4763 7.25151 10.4767 7.35181C10.4767 7.43833 10.4608 7.55474 10.4168 7.70477C10.2828 8.16174 10.163 8.42775 10.0527 8.57528C9.99801 8.64989 9.94713 8.69627 9.89114 8.73452C9.83513 8.77235 9.77048 8.80223 9.68603 8.83146L9.55332 8.8772L9.52875 9.01219C9.37362 9.85555 8.92547 10.3301 8.59453 10.6876L8.53203 10.7547V10.8452C8.53203 11.2732 8.53203 11.5849 8.53203 11.8348C8.53203 11.9899 8.59409 12.1295 8.67941 12.2409C8.73889 12.3188 8.81041 12.3865 8.88838 12.4484C8.65226 12.8132 8.31225 13.186 7.90677 13.5456C7.09622 14.2667 6.02929 14.9383 5.04163 15.4436C4.5478 15.6965 4.07337 15.9079 3.66184 16.0642C3.3072 16.1992 3.00167 16.2895 2.77373 16.3329C2.29148 16.2027 1.90969 16.0621 1.65631 15.9353ZM11.0136 15.8912C11.0515 16.0826 11.0989 16.2495 11.1545 16.3935C10.9779 16.437 10.7921 16.4792 10.5935 16.5185C9.76008 16.684 8.73664 16.8081 7.57619 16.8359C8.85344 15.9539 9.62347 15.0733 9.62992 15.0662L9.3606 14.8451L9.34939 14.8577C9.24081 14.9793 8.33847 15.9637 6.94445 16.8398C5.58835 16.8305 4.40592 16.689 3.47257 16.4963C3.70611 16.4177 3.9612 16.3199 4.23488 16.2033C5.15702 15.8097 6.26276 15.215 7.23273 14.5216C8.03639 13.9449 8.74392 13.3046 9.177 12.6385C9.17915 12.6395 9.18089 12.6408 9.18261 12.6418C9.37825 12.7492 9.59242 12.8378 9.79364 12.911C10.0341 12.9977 10.3405 13.0658 10.6753 13.1604C10.8356 13.2052 11.0006 13.257 11.1653 13.3163C10.9912 13.8366 10.9205 14.3856 10.9205 14.8915C10.9205 15.2563 10.9558 15.5982 11.0136 15.8912ZM12.8359 15.7169L12.8148 15.7411C12.779 15.7762 12.7071 15.8289 12.6054 15.8851C12.3731 16.0151 11.9927 16.1641 11.4963 16.3041C11.4458 16.1793 11.3976 16.0167 11.3601 15.8268C11.307 15.5568 11.2735 15.2346 11.2735 14.8915C11.2735 14.4238 11.3394 13.9186 11.4928 13.4484C11.7272 13.5542 11.9508 13.6816 12.1435 13.8417C12.3503 14.0134 12.5235 14.2197 12.6476 14.4794C12.7718 14.7392 12.8476 15.0547 12.848 15.4507C12.848 15.5355 12.8432 15.6245 12.8359 15.7169Z" stroke="#673C1C" stroke-width="0.4" mask="url(#path-1-outside-1_1460_71)"/>
<path d="M10.9796 6.78852L11.0589 6.77174V6.69069V6.69019V6.56644L10.9379 6.59241L10.9164 6.5971L10.9096 6.59863L10.9066 6.59935L10.9044 6.59992C10.9044 6.59992 10.9043 6.59993 10.9043 6.59993C10.9038 6.60006 10.9012 6.60075 10.8981 6.60178L10.8933 6.60353C10.8919 6.60409 10.8869 6.60602 10.881 6.60932C10.8783 6.61082 10.8718 6.61459 10.8645 6.62086C10.8644 6.62092 10.8643 6.62099 10.8643 6.62106C10.8601 6.62461 10.8373 6.6441 10.8312 6.67951C10.8297 6.69631 10.8354 6.72994 10.8426 6.74577C10.8505 6.75775 10.8679 6.77534 10.8765 6.78135C10.893 6.79174 10.9083 6.79446 10.9122 6.79514L10.9122 6.79515C10.9223 6.79693 10.9304 6.7967 10.9321 6.79666C10.9322 6.79666 10.9322 6.79665 10.9322 6.79665L10.9387 6.79628L10.9438 6.7957L10.9493 6.79478L10.9559 6.79347L10.9796 6.78852ZM10.9589 6.69019H10.9588L10.9511 6.65375L10.9391 6.59713C10.9415 6.59736 10.9443 6.59771 10.9471 6.59822L10.9472 6.59823C10.951 6.59891 10.9664 6.60162 10.9829 6.61202C10.9914 6.61803 11.0089 6.63561 11.0168 6.64759C11.0213 6.65759 11.0253 6.67471 11.0272 6.69019C11.0272 6.69036 11.0272 6.69052 11.0273 6.69069C11.0283 6.69952 11.0287 6.70778 11.0282 6.71385C11.022 6.74926 10.9993 6.76875 10.9951 6.7723C10.995 6.77237 10.995 6.77244 10.9949 6.7725C10.9881 6.77833 10.982 6.782 10.979 6.78369L10.959 6.69069L10.9589 6.69019Z" fill="#673C1C" stroke="#673C1C" stroke-width="0.2"/>
</svg>
