<svg width="21" height="20" viewBox="0 0 21 20" fill="none" xmlns="http://www.w3.org/2000/svg">
<path d="M17.6375 12.4893L17.6741 12.5013C17.6742 12.5013 17.6743 12.5014 17.6744 12.5014L17.6375 12.4893ZM17.6375 12.4893L14.0456 11.3068V6.9975C14.0456 6.83242 13.9764 6.68412 13.8676 6.57907C13.864 6.57533 13.8596 6.5709 13.8544 6.56621L17.6375 12.4893ZM3.19344 12.5026C3.19395 12.5024 3.19446 12.5023 3.19496 12.5021L3.19344 12.5026ZM3.19344 12.5026L3.17903 12.5074L3.14969 12.517L3.14962 12.5171C2.91118 12.5958 2.75 12.8185 2.75 13.0698V18.0014C2.75 18.3229 3.01056 18.5834 3.332 18.5834H17.5399C17.8613 18.5834 18.1219 18.3229 18.1219 18.0014V13.0698V13.0697C18.1218 12.8185 17.9605 12.5956 17.7218 12.517L17.6436 12.7545L3.19344 12.5026ZM17.6769 12.5022L17.6756 12.5018C17.6795 12.5031 17.683 12.5043 17.686 12.5055C17.6944 12.5087 17.701 12.5117 17.7047 12.5134L17.7046 12.5134C17.701 12.5117 17.6944 12.5087 17.686 12.5055C17.6833 12.5044 17.6802 12.5033 17.6769 12.5022ZM13.8529 6.5649L11.0095 3.98847V3.35237H11.2159C11.5373 3.35237 11.7979 3.0918 11.7979 2.77037C11.7979 2.44893 11.5373 2.18837 11.2159 2.18837H11.0095V1.99879C11.0095 1.99878 11.0095 1.99876 11.0095 1.99875C11.0095 1.67729 10.7489 1.41675 10.4275 1.41675C10.1061 1.41675 9.8455 1.67731 9.8455 1.99875V2.18837H9.63912C9.31768 2.18837 9.05712 2.44893 9.05712 2.77037C9.05712 3.0918 9.31768 3.35237 9.63912 3.35237H9.8455V3.98883L7.00682 6.56662L7.00675 6.56668C7.00208 6.57093 6.99781 6.57514 6.99398 6.57915C6.88523 6.68421 6.8161 6.83248 6.8161 6.99747V11.307L3.1983 12.501L13.8529 6.5649ZM3.2266 12.4938L3.22612 12.4939C3.22669 12.4938 3.22699 12.4937 3.22684 12.4937L3.22683 12.4937L3.22682 12.4937L3.22678 12.4937L3.2266 12.4938ZM6.81603 17.4195H3.91393V13.6366H6.81603V17.4195ZM17.709 12.5156L17.7047 12.5135C17.7081 12.5151 17.711 12.5165 17.7105 12.5163L17.7104 12.5163L17.7104 12.5162L17.7101 12.5161L17.709 12.5156ZM6.97059 6.6074C6.97056 6.60744 6.97059 6.6074 6.97065 6.60732L6.97059 6.6074ZM10.4279 5.03228L11.9545 6.41553H8.90469L10.4279 5.03228ZM11.5372 17.4195H9.32444V16.0115C9.32444 15.3776 9.7624 14.9267 10.2257 14.9267H10.6359C11.0993 14.9267 11.5372 15.3776 11.5372 16.0115V17.4195ZM12.8817 17.4195H12.7013V16.0115C12.7013 14.7945 11.7971 13.7627 10.636 13.7627H10.2258C9.06462 13.7627 8.16047 14.7945 8.16047 16.0115V17.4195H7.9801V13.0546V7.57953H12.8817V17.4195ZM16.9578 17.4195H14.0456V13.6366H16.9578L16.9578 17.4195Z" fill="#673C1C" stroke="#673C1C" stroke-width="0.5"/>
<path d="M10.3144 10.8799V9.10977C10.3144 9.03875 10.3723 8.98088 10.4433 8.98088C10.5143 8.98088 10.5721 9.03875 10.5721 9.10977V10.8799H10.3144ZM10.4433 8.28325C9.98751 8.28325 9.61675 8.65398 9.61675 9.10977V11.2288C9.61675 11.4214 9.7729 11.5776 9.96555 11.5776H10.9209C11.1136 11.5776 11.2697 11.4214 11.2697 11.2288V9.10977C11.2697 9.10977 11.2697 9.10977 11.2697 9.10977C11.2698 8.65398 10.8991 8.28325 10.4433 8.28325Z" fill="#673C1C" stroke="#673C1C" stroke-width="0.1"/>
</svg>
