<svg width="24" height="24" viewBox="0 0 24 24" fill="none" xmlns="http://www.w3.org/2000/svg">
<g id="edit-01">
<path id="Icon" d="M2.87601 18.1155C2.92195 17.702 2.94493 17.4952 3.00748 17.302C3.06298 17.1305 3.1414 16.9674 3.24061 16.8169C3.35242 16.6474 3.49952 16.5003 3.7937 16.2061L17 2.99981C18.1046 1.89524 19.8954 1.89525 21 2.99981C22.1046 4.10438 22.1046 5.89525 21 6.99982L7.7937 20.2061C7.49951 20.5003 7.35242 20.6474 7.18286 20.7592C7.03242 20.8584 6.86926 20.9368 6.69782 20.9923C6.50457 21.0549 6.29783 21.0778 5.88434 21.1238L2.49997 21.4998L2.87601 18.1155Z" stroke="black" stroke-width="2" stroke-linecap="round" stroke-linejoin="round"/>
</g>
</svg>
