<svg width="25" height="25" viewBox="0 0 25 25" fill="none" xmlns="http://www.w3.org/2000/svg">
<g id="Social icon" clip-path="url(#clip0_47_46)">
<path id="Vector" d="M24.5 12.4172C24.5 5.78981 19.1274 0.417236 12.5 0.417236C5.87258 0.417236 0.5 5.78981 0.5 12.4172C0.5 18.4067 4.8882 23.3712 10.625 24.2715V15.886H7.57812V12.4172H10.625V9.77349C10.625 6.76599 12.4166 5.10474 15.1576 5.10474C16.4701 5.10474 17.8438 5.33911 17.8438 5.33911V8.29224H16.3306C14.84 8.29224 14.375 9.21731 14.375 10.1672V12.4172H17.7031L17.1711 15.886H14.375V24.2715C20.1118 23.3712 24.5 18.4067 24.5 12.4172Z" fill="white"/>
</g>
<defs>
<clipPath id="clip0_47_46">
<rect width="24" height="24" fill="white" transform="translate(0.5 0.417236)"/>
</clipPath>
</defs>
</svg>
