<svg width="21" height="21" viewBox="0 0 21 21" fill="none" xmlns="http://www.w3.org/2000/svg">
<path d="M10.5001 18.6742C15.1025 18.6742 18.8334 14.9433 18.8334 10.3409C18.8334 5.73853 15.1025 2.00757 10.5001 2.00757C5.89771 2.00757 2.16675 5.73853 2.16675 10.3409C2.16675 14.9433 5.89771 18.6742 10.5001 18.6742Z" stroke="#673C1C" stroke-width="1.66667" stroke-linecap="round" stroke-linejoin="round"/>
<path fill-rule="evenodd" clip-rule="evenodd" d="M10.4972 7.89749C9.66417 6.92357 8.27498 6.66159 7.2312 7.55341C6.18743 8.44523 6.04048 9.93631 6.86016 10.9911C7.38517 11.6666 8.72974 12.9194 9.62861 13.7329C9.92732 14.0032 10.0767 14.1383 10.2556 14.1925C10.4094 14.2391 10.5851 14.2391 10.7389 14.1925C10.9178 14.1383 11.0671 14.0032 11.3658 13.7329C12.2647 12.9194 13.6093 11.6666 14.1343 10.9911C14.954 9.93631 14.825 8.43585 13.7633 7.55341C12.7015 6.67097 11.3303 6.92357 10.4972 7.89749Z" stroke="#673C1C" stroke-width="1.66667" stroke-linecap="round" stroke-linejoin="round"/>
</svg>
