<svg width="18" height="19" viewBox="0 0 18 19" fill="none" xmlns="http://www.w3.org/2000/svg">
<path fill-rule="evenodd" clip-rule="evenodd" d="M0.0740273 7.4393C0 7.70376 0 7.99094 0 8.5653V15.8002C0 16.9203 0 17.4804 0.217987 17.9082C0.409734 18.2845 0.715695 18.5905 1.09202 18.7822C1.51984 19.0002 2.0799 19.0002 3.2 19.0002H14.8C15.9201 19.0002 16.4802 19.0002 16.908 18.7822C17.2843 18.5905 17.5903 18.2845 17.782 17.9082C18 17.4804 18 16.9203 18 15.8002V8.5653C18 7.99094 18 7.70376 17.926 7.4393C17.8604 7.20503 17.7526 6.98469 17.608 6.7891C17.4447 6.5683 17.218 6.39199 16.7646 6.03938L16.7646 6.03937L9.98231 0.764244C9.63098 0.49099 9.45532 0.354364 9.26135 0.301845C9.0902 0.255505 8.9098 0.255505 8.73865 0.301845C8.54468 0.354364 8.36902 0.49099 8.0177 0.764243L1.23539 6.03937C0.782021 6.39199 0.555337 6.5683 0.392027 6.7891C0.247366 6.98469 0.139601 7.20503 0.0740273 7.4393ZM5 14C4.44772 14 4 14.4477 4 15C4 15.5523 4.44772 16 5 16H13C13.5523 16 14 15.5523 14 15C14 14.4477 13.5523 14 13 14H5Z" fill="black"/>
</svg>
