<svg width="24" height="23" viewBox="0 0 24 23" fill="none" xmlns="http://www.w3.org/2000/svg">
<g filter="url(#filter0_d_157_8156)">
<path d="M8 16.0002H16M11.0177 1.76424L4.23539 7.03937C3.78202 7.39199 3.55534 7.5683 3.39203 7.7891C3.24737 7.98469 3.1396 8.20503 3.07403 8.4393C3 8.70376 3 8.99094 3 9.5653V16.8002C3 17.9203 3 18.4804 3.21799 18.9082C3.40973 19.2845 3.71569 19.5905 4.09202 19.7822C4.51984 20.0002 5.07989 20.0002 6.2 20.0002H17.8C18.9201 20.0002 19.4802 20.0002 19.908 19.7822C20.2843 19.5905 20.5903 19.2845 20.782 18.9082C21 18.4804 21 17.9203 21 16.8002V9.5653C21 8.99094 21 8.70376 20.926 8.4393C20.8604 8.20503 20.7526 7.98469 20.608 7.7891C20.4447 7.5683 20.218 7.39199 19.7646 7.03937L12.9823 1.76424C12.631 1.49099 12.4553 1.35436 12.2613 1.30184C12.0902 1.2555 11.9098 1.2555 11.7387 1.30184C11.5447 1.35436 11.369 1.49099 11.0177 1.76424Z" stroke="black" stroke-width="2" stroke-linecap="round" stroke-linejoin="round" shape-rendering="crispEdges"/>
</g>
<defs>
<filter id="filter0_d_157_8156" x="-2.00015" y="0.26709" width="28.0003" height="28.7329" filterUnits="userSpaceOnUse" color-interpolation-filters="sRGB">
<feFlood flood-opacity="0" result="BackgroundImageFix"/>
<feColorMatrix in="SourceAlpha" type="matrix" values="0 0 0 0 0 0 0 0 0 0 0 0 0 0 0 0 0 0 127 0" result="hardAlpha"/>
<feOffset dy="4"/>
<feGaussianBlur stdDeviation="2"/>
<feComposite in2="hardAlpha" operator="out"/>
<feColorMatrix type="matrix" values="0 0 0 0 0 0 0 0 0 0 0 0 0 0 0 0 0 0 0.25 0"/>
<feBlend mode="normal" in2="BackgroundImageFix" result="effect1_dropShadow_157_8156"/>
<feBlend mode="normal" in="SourceGraphic" in2="effect1_dropShadow_157_8156" result="shape"/>
</filter>
</defs>
</svg>
