<svg width="24" height="25" viewBox="0 0 24 25" fill="none" xmlns="http://www.w3.org/2000/svg">
<g id="message-question-circle">
<path id="Icon" d="M10.4996 9.50224C10.6758 9.00136 11.0236 8.579 11.4814 8.30998C11.9391 8.04095 12.4773 7.9426 13.0006 8.03237C13.524 8.12213 13.9986 8.39421 14.3406 8.80041C14.6825 9.20661 14.8697 9.72072 14.8689 10.2517C14.8689 11.7506 12.6205 12.5 12.6205 12.5M12.6495 15.5H12.6595M12.4996 20.5C17.194 20.5 20.9996 16.6944 20.9996 12C20.9996 7.30558 17.194 3.5 12.4996 3.5C7.8052 3.5 3.99962 7.30558 3.99962 12C3.99962 12.95 4.15547 13.8636 4.443 14.7166C4.55119 15.0376 4.60529 15.1981 4.61505 15.3214C4.62469 15.4432 4.6174 15.5286 4.58728 15.6469C4.55677 15.7668 4.48942 15.8915 4.35472 16.1408L2.71906 19.1684C2.48575 19.6002 2.36909 19.8161 2.3952 19.9828C2.41794 20.1279 2.50337 20.2557 2.6288 20.3322C2.7728 20.4201 3.01692 20.3948 3.50517 20.3444L8.62619 19.815C8.78127 19.799 8.85881 19.791 8.92949 19.7937C8.999 19.7963 9.04807 19.8029 9.11586 19.8185C9.18478 19.8344 9.27145 19.8678 9.44478 19.9345C10.3928 20.2998 11.4228 20.5 12.4996 20.5Z" stroke="#B1AEA6" stroke-width="2" stroke-linecap="round" stroke-linejoin="round"/>
</g>
</svg>
