<svg width="12" height="12" viewBox="0 0 12 12" fill="none" xmlns="http://www.w3.org/2000/svg">
<g id="moon-star" clip-path="url(#clip0_269_1216)">
<g id="Icon">
<path d="M9 1L9.3089 1.61779C9.44164 1.88328 9.50801 2.01603 9.59668 2.13106C9.67536 2.23313 9.76687 2.32464 9.86894 2.40332C9.98397 2.49199 10.1167 2.55836 10.3822 2.6911L11 3L10.3822 3.3089C10.1167 3.44164 9.98397 3.50801 9.86894 3.59668C9.76687 3.67536 9.67536 3.76687 9.59668 3.86894C9.50801 3.98397 9.44164 4.11672 9.3089 4.38221L9 5L8.6911 4.38221C8.55836 4.11672 8.49199 3.98397 8.40332 3.86894C8.32464 3.76687 8.23313 3.67536 8.13106 3.59668C8.01603 3.50801 7.88328 3.44164 7.61779 3.3089L7 3L7.61779 2.6911C7.88328 2.55836 8.01603 2.49199 8.13106 2.40332C8.23313 2.32464 8.32464 2.23313 8.40332 2.13106C8.49199 2.01603 8.55836 1.88328 8.6911 1.61779L9 1Z" stroke="#585240" stroke-linecap="round" stroke-linejoin="round"/>
<path d="M10.5 6.69465C9.84449 7.8445 8.60727 8.61975 7.18897 8.61975C5.08554 8.61975 3.38037 6.91459 3.38037 4.81116C3.38037 3.39277 4.15574 2.15547 5.30575 1.5C2.8899 1.72906 1 3.76346 1 6.23927C1 8.86855 3.13146 11 5.76075 11C8.23644 11 10.2708 9.11031 10.5 6.69465Z" stroke="#585240" stroke-linecap="round" stroke-linejoin="round"/>
</g>
</g>
<defs>
<clipPath id="clip0_269_1216">
<rect width="12" height="12" fill="white"/>
</clipPath>
</defs>
</svg>
