<svg width="25" height="25" viewBox="0 0 25 25" fill="none" xmlns="http://www.w3.org/2000/svg">
<g id="user-02">
<g id="Icon">
<path d="M12.5 15.5C9.32993 15.5 6.5108 17.0306 4.716 19.406C4.32971 19.9172 4.13656 20.1728 4.14288 20.5183C4.14776 20.7852 4.31536 21.1219 4.52537 21.2867C4.79719 21.5 5.17387 21.5 5.92724 21.5H19.0728C19.8261 21.5 20.2028 21.5 20.4746 21.2867C20.6846 21.1219 20.8522 20.7852 20.8571 20.5183C20.8634 20.1728 20.6703 19.9172 20.284 19.406C18.4892 17.0306 15.6701 15.5 12.5 15.5Z" stroke="#B1AEA6" stroke-width="2" stroke-linecap="round" stroke-linejoin="round"/>
<path d="M12.5 12.5C14.9853 12.5 17 10.4853 17 8C17 5.51472 14.9853 3.5 12.5 3.5C10.0147 3.5 8 5.51472 8 8C8 10.4853 10.0147 12.5 12.5 12.5Z" stroke="#B1AEA6" stroke-width="2" stroke-linecap="round" stroke-linejoin="round"/>
</g>
</g>
</svg>
