<svg width="121" height="431" viewBox="0 0 121 431" fill="none" xmlns="http://www.w3.org/2000/svg">
<path d="M60.4999 243.393C38.5519 243.393 20.6968 225.546 20.6968 203.609C20.6968 181.672 38.5519 163.825 60.4999 163.825C82.4479 163.825 100.303 181.672 100.303 203.609C100.303 225.546 82.4479 243.393 60.4999 243.393ZM60.4999 164.693C39.0272 164.693 21.56 182.152 21.56 203.614C21.56 225.076 39.0272 242.535 60.4999 242.535C81.9727 242.535 99.435 225.076 99.435 203.614C99.435 182.152 81.9678 164.693 60.4999 164.693Z" fill="url(#paint0_linear_507_2093)"/>
<path d="M60.5 264.084C60.2623 264.084 60.0684 263.89 60.0684 263.652V245.767C60.0684 245.53 60.2623 245.336 60.5 245.336C60.7376 245.336 60.9315 245.53 60.9315 245.767V263.652C60.9315 263.89 60.7376 264.084 60.5 264.084Z" fill="url(#paint1_linear_507_2093)"/>
<path d="M76.0518 262.039C75.8627 262.039 75.6881 261.913 75.6348 261.719L71.0037 244.444C70.9407 244.212 71.0764 243.979 71.3092 243.916C71.542 243.863 71.7747 243.994 71.8378 244.221L76.4689 261.496C76.5319 261.728 76.3961 261.961 76.1634 262.024C76.1246 262.034 76.0906 262.039 76.0518 262.039Z" fill="url(#paint2_linear_507_2093)"/>
<path d="M90.5366 256.038C90.3863 256.038 90.2408 255.961 90.1632 255.82L81.2162 240.329C81.095 240.121 81.1677 239.859 81.3762 239.738C81.5799 239.617 81.8466 239.69 81.9679 239.898L90.9148 255.389C91.0361 255.597 90.9633 255.859 90.7548 255.98C90.6869 256.019 90.6142 256.038 90.5366 256.038Z" fill="url(#paint3_linear_507_2093)"/>
<path d="M102.975 246.499C102.864 246.499 102.752 246.456 102.67 246.373L90.0177 233.728C89.8479 233.558 89.8479 233.287 90.0177 233.117C90.1874 232.947 90.459 232.947 90.6287 233.117L103.281 245.763C103.45 245.932 103.45 246.204 103.281 246.373C103.198 246.456 103.087 246.499 102.975 246.499Z" fill="url(#paint4_linear_507_2093)"/>
<path d="M112.523 234.062C112.451 234.062 112.378 234.042 112.305 234.004L96.8067 225.061C96.5982 224.94 96.5303 224.678 96.6467 224.47C96.7679 224.261 97.0298 224.194 97.2383 224.31L112.737 233.252C112.945 233.374 113.013 233.635 112.897 233.844C112.819 233.984 112.674 234.062 112.523 234.062Z" fill="url(#paint5_linear_507_2093)"/>
<path d="M118.522 219.585C118.483 219.585 118.449 219.585 118.411 219.57L101.128 214.941C100.895 214.878 100.759 214.641 100.822 214.413C100.885 214.18 101.123 214.045 101.351 214.108L118.634 218.736C118.866 218.799 119.002 219.037 118.939 219.265C118.886 219.459 118.711 219.585 118.522 219.585Z" fill="url(#paint6_linear_507_2093)"/>
<path d="M120.568 204.045H102.675C102.437 204.045 102.243 203.851 102.243 203.614C102.243 203.376 102.437 203.182 102.675 203.182H120.568C120.806 203.182 121 203.376 121 203.614C121 203.851 120.806 204.045 120.568 204.045Z" fill="url(#paint7_linear_507_2093)"/>
<path d="M101.239 193.135C101.05 193.135 100.875 193.009 100.822 192.815C100.759 192.582 100.895 192.35 101.128 192.287L118.411 187.658C118.643 187.595 118.881 187.73 118.939 187.963C119.002 188.196 118.866 188.428 118.634 188.491L101.351 193.12C101.312 193.13 101.278 193.135 101.239 193.135Z" fill="url(#paint8_linear_507_2093)"/>
<path d="M97.0249 182.966C96.8746 182.966 96.7291 182.888 96.6515 182.748C96.5303 182.539 96.603 182.278 96.8115 182.157L112.31 173.214C112.514 173.093 112.78 173.166 112.902 173.374C113.023 173.582 112.95 173.844 112.742 173.965L97.2431 182.908C97.1752 182.947 97.1025 182.966 97.0249 182.966Z" fill="url(#paint9_linear_507_2093)"/>
<path d="M90.3232 174.236C90.2117 174.236 90.1001 174.193 90.0177 174.11C89.8479 173.941 89.8479 173.669 90.0177 173.5L102.67 160.854C102.839 160.684 103.111 160.684 103.281 160.854C103.45 161.024 103.45 161.295 103.281 161.465L90.6287 174.11C90.5462 174.193 90.4347 174.236 90.3232 174.236Z" fill="url(#paint10_linear_507_2093)"/>
<path d="M81.5896 167.538C81.5169 167.538 81.4441 167.519 81.3714 167.48C81.1629 167.359 81.095 167.097 81.2114 166.889L90.1583 151.398C90.2796 151.189 90.5414 151.122 90.75 151.238C90.9585 151.359 91.0264 151.621 90.91 151.829L81.963 167.32C81.8854 167.461 81.7399 167.538 81.5896 167.538Z" fill="url(#paint11_linear_507_2093)"/>
<path d="M71.4159 163.326C71.3771 163.326 71.3431 163.326 71.3043 163.311C71.0716 163.248 70.9358 163.011 70.9988 162.783L75.6299 145.509C75.693 145.276 75.9306 145.145 76.1585 145.203C76.3912 145.266 76.527 145.504 76.464 145.732L71.8329 163.006C71.7796 163.2 71.605 163.326 71.4159 163.326Z" fill="url(#paint12_linear_507_2093)"/>
<path d="M49.5889 163.326C49.3998 163.326 49.2252 163.2 49.1719 163.006L44.5408 145.732C44.4778 145.499 44.6136 145.266 44.8463 145.203C45.0791 145.145 45.3167 145.276 45.3749 145.509L50.006 162.783C50.069 163.016 49.9332 163.248 49.7005 163.311C49.6617 163.321 49.6277 163.326 49.5889 163.326Z" fill="url(#paint13_linear_507_2093)"/>
<path d="M39.4153 167.538C39.2649 167.538 39.1194 167.461 39.0419 167.32L30.0949 151.829C29.9736 151.621 30.0464 151.359 30.2549 151.238C30.4586 151.122 30.7253 151.189 30.8465 151.398L39.7935 166.889C39.9147 167.097 39.842 167.359 39.6335 167.48C39.5656 167.519 39.4928 167.538 39.4153 167.538Z" fill="url(#paint14_linear_507_2093)"/>
<path d="M30.6816 174.236C30.57 174.236 30.4585 174.193 30.3761 174.11L17.7242 161.465C17.5545 161.295 17.5545 161.024 17.7242 160.854C17.8939 160.684 18.1655 160.684 18.3352 160.854L30.9871 173.5C31.1568 173.669 31.1568 173.941 30.9871 174.11C30.9046 174.193 30.7931 174.236 30.6816 174.236Z" fill="url(#paint15_linear_507_2093)"/>
<path d="M23.9799 182.966C23.9071 182.966 23.8344 182.946 23.7616 182.908L8.26325 173.965C8.05473 173.844 7.98683 173.582 8.10322 173.374C8.22445 173.165 8.48631 173.097 8.69483 173.214L24.1932 182.156C24.4018 182.277 24.4696 182.539 24.3533 182.748C24.2757 182.888 24.1302 182.966 23.9799 182.966Z" fill="url(#paint16_linear_507_2093)"/>
<path d="M19.7657 193.135C19.7269 193.135 19.693 193.135 19.6542 193.12L2.37123 188.491C2.13846 188.428 2.00268 188.191 2.06572 187.963C2.12876 187.73 2.36637 187.595 2.59429 187.658L19.8772 192.287C20.11 192.35 20.2458 192.587 20.1827 192.815C20.1294 193.009 19.9548 193.135 19.7657 193.135Z" fill="url(#paint17_linear_507_2093)"/>
<path d="M18.3255 204.045H0.431588C0.193972 204.045 0 203.851 0 203.614C0 203.376 0.193972 203.182 0.431588 203.182H18.3255C18.5632 203.182 18.7571 203.376 18.7571 203.614C18.7571 203.851 18.5632 204.045 18.3255 204.045Z" fill="url(#paint18_linear_507_2093)"/>
<path d="M2.48276 219.585C2.29363 219.585 2.11906 219.459 2.06572 219.265C2.00268 219.032 2.13846 218.799 2.37123 218.736L19.6542 214.108C19.8869 214.045 20.1197 214.18 20.1827 214.413C20.2458 214.646 20.11 214.878 19.8772 214.941L2.59429 219.57C2.5555 219.58 2.52155 219.585 2.48276 219.585Z" fill="url(#paint19_linear_507_2093)"/>
<path d="M8.48145 234.062C8.33112 234.062 8.18565 233.985 8.10806 233.844C7.98683 233.636 8.05957 233.374 8.26809 233.253L23.7665 224.31C23.9701 224.189 24.2369 224.262 24.3581 224.47C24.4793 224.679 24.4066 224.94 24.1981 225.061L8.69967 234.004C8.63178 234.043 8.55904 234.062 8.48145 234.062Z" fill="url(#paint20_linear_507_2093)"/>
<path d="M18.0297 246.499C17.9182 246.499 17.8067 246.456 17.7242 246.373C17.5545 246.204 17.5545 245.932 17.7242 245.763L30.3761 233.117C30.5458 232.947 30.8174 232.947 30.9871 233.117C31.1568 233.287 31.1568 233.558 30.9871 233.728L18.3352 246.373C18.2528 246.456 18.1413 246.499 18.0297 246.499Z" fill="url(#paint21_linear_507_2093)"/>
<path d="M30.4683 256.038C30.3955 256.038 30.3228 256.019 30.2501 255.98C30.0415 255.859 29.9737 255.597 30.09 255.388L39.037 239.898C39.1582 239.689 39.4201 239.621 39.6286 239.738C39.8371 239.859 39.905 240.121 39.7886 240.329L30.8417 255.82C30.7641 255.96 30.6186 256.038 30.4683 256.038Z" fill="url(#paint22_linear_507_2093)"/>
<path d="M44.9532 262.039C44.9144 262.039 44.8805 262.034 44.8417 262.024C44.6089 261.961 44.4731 261.724 44.5362 261.496L49.1673 244.221C49.2303 243.994 49.4679 243.863 49.6958 243.916C49.9286 243.979 50.0644 244.217 50.0013 244.444L45.3703 261.719C45.3169 261.913 45.1423 262.039 44.9532 262.039Z" fill="url(#paint23_linear_507_2093)"/>
<path d="M55.3355 162.284C55.1221 162.284 54.9378 162.124 54.9087 161.911L53.5849 151.844C53.5558 151.606 53.7206 151.388 53.9583 151.359C54.191 151.325 54.4141 151.495 54.4432 151.732L55.7671 161.799C55.7962 162.037 55.6313 162.255 55.3937 162.284C55.3743 162.284 55.3549 162.284 55.3355 162.284Z" fill="url(#paint24_linear_507_2093)"/>
<path d="M44.7008 165.042C44.5311 165.042 44.3711 164.94 44.3032 164.775L40.4141 155.396C40.3219 155.173 40.4286 154.921 40.6468 154.834C40.8699 154.742 41.1172 154.849 41.2094 155.067L45.0985 164.446C45.1906 164.669 45.0839 164.921 44.8657 165.008C44.8124 165.032 44.7542 165.042 44.7008 165.042Z" fill="url(#paint25_linear_507_2093)"/>
<path d="M35.1381 170.461C35.0071 170.461 34.8811 170.403 34.7938 170.291L28.6109 162.236C28.4654 162.047 28.4994 161.775 28.6885 161.63C28.8776 161.484 29.1492 161.518 29.2947 161.707L35.4775 169.763C35.623 169.952 35.5891 170.223 35.3999 170.369C35.3224 170.427 35.2302 170.456 35.1381 170.456V170.461Z" fill="url(#paint26_linear_507_2093)"/>
<path d="M27.3065 178.167C27.2144 178.167 27.1223 178.138 27.0447 178.08L18.9851 171.9C18.796 171.755 18.7621 171.483 18.9075 171.294C19.053 171.105 19.3246 171.071 19.5137 171.217L27.5733 177.397C27.7624 177.542 27.7963 177.813 27.6508 178.002C27.5636 178.114 27.4375 178.172 27.3065 178.172V178.167Z" fill="url(#paint27_linear_507_2093)"/>
<path d="M21.7396 187.634C21.6862 187.634 21.628 187.624 21.5747 187.6L12.1913 183.712C11.973 183.62 11.8664 183.368 11.9585 183.15C12.0506 182.932 12.3076 182.825 12.521 182.918L21.9044 186.805C22.1226 186.897 22.2293 187.149 22.1372 187.367C22.0693 187.532 21.9093 187.634 21.7396 187.634Z" fill="url(#paint28_linear_507_2093)"/>
<path d="M18.8104 198.219C18.8104 198.219 18.7716 198.219 18.7522 198.219L8.68018 196.896C8.44257 196.867 8.2777 196.649 8.30679 196.411C8.33589 196.174 8.56381 196.009 8.79172 196.038L18.8637 197.361C19.1014 197.39 19.2662 197.609 19.2371 197.846C19.208 198.064 19.0238 198.219 18.8104 198.219Z" fill="url(#paint29_linear_507_2093)"/>
<path d="M8.65126 210.531C8.43789 210.531 8.25361 210.371 8.22452 210.157C8.19542 209.92 8.3603 209.702 8.59792 209.673L18.6699 208.349C18.8979 208.315 19.1258 208.485 19.1549 208.723C19.184 208.96 19.0191 209.178 18.7815 209.207L8.70945 210.531C8.70945 210.531 8.67066 210.531 8.65126 210.531Z" fill="url(#paint30_linear_507_2093)"/>
<path d="M12.0991 223.723C11.9293 223.723 11.7693 223.622 11.7014 223.457C11.6093 223.234 11.716 222.982 11.9342 222.895L21.3176 219.007C21.5407 218.915 21.7928 219.022 21.8801 219.24C21.9723 219.463 21.8656 219.715 21.6473 219.802L12.2639 223.69C12.2106 223.714 12.1524 223.723 12.0991 223.723Z" fill="url(#paint31_linear_507_2093)"/>
<path d="M18.8444 235.575C18.7134 235.575 18.5874 235.516 18.5001 235.405C18.3546 235.216 18.3885 234.944 18.5777 234.799L26.6372 228.619C26.8263 228.474 27.0979 228.508 27.2434 228.697C27.3889 228.886 27.3549 229.157 27.1658 229.303L19.1062 235.482C19.0286 235.541 18.9365 235.57 18.8444 235.57V235.575Z" fill="url(#paint32_linear_507_2093)"/>
<path d="M28.4267 245.278C28.3345 245.278 28.2424 245.249 28.1648 245.191C27.9757 245.045 27.9417 244.774 28.0872 244.585L34.2701 236.529C34.4156 236.34 34.6871 236.306 34.8763 236.452C35.0654 236.597 35.0993 236.868 34.9538 237.057L28.771 245.113C28.6837 245.225 28.5576 245.283 28.4267 245.283V245.278Z" fill="url(#paint33_linear_507_2093)"/>
<path d="M40.196 252.165C40.1426 252.165 40.0844 252.156 40.0311 252.131C39.8129 252.039 39.7062 251.787 39.7983 251.569L43.6875 242.19C43.7796 241.972 44.0366 241.866 44.25 241.958C44.4682 242.05 44.5749 242.302 44.4828 242.52L40.5936 251.899C40.5257 252.063 40.3657 252.165 40.196 252.165Z" fill="url(#paint34_linear_507_2093)"/>
<path d="M53.3521 255.781C53.3521 255.781 53.3134 255.781 53.294 255.781C53.0563 255.752 52.8915 255.534 52.9206 255.297L54.2444 245.23C54.2735 244.992 54.5014 244.827 54.7293 244.856C54.967 244.886 55.1318 245.104 55.1028 245.341L53.7789 255.408C53.7498 255.626 53.5655 255.781 53.3521 255.781Z" fill="url(#paint35_linear_507_2093)"/>
<path d="M66.9932 255.868C66.7798 255.868 66.5955 255.708 66.5664 255.495L65.2426 245.428C65.2135 245.19 65.3784 244.972 65.616 244.943C65.8536 244.909 66.067 245.079 66.1009 245.317L67.4248 255.384C67.4539 255.621 67.289 255.839 67.0514 255.868C67.032 255.868 67.0126 255.868 66.9932 255.868Z" fill="url(#paint36_linear_507_2093)"/>
<path d="M80.1882 252.422C80.0184 252.422 79.8584 252.321 79.7905 252.156L75.9014 242.777C75.8092 242.559 75.9159 242.302 76.1341 242.215C76.3572 242.123 76.6094 242.229 76.6967 242.447L80.5858 251.826C80.6779 252.044 80.5713 252.301 80.353 252.388C80.2997 252.413 80.2415 252.422 80.1882 252.422Z" fill="url(#paint37_linear_507_2093)"/>
<path d="M92.0448 245.68C91.9139 245.68 91.7878 245.622 91.7005 245.51L85.5176 237.455C85.3722 237.266 85.4061 236.994 85.5952 236.849C85.7844 236.704 86.0559 236.738 86.2014 236.927L92.3843 244.982C92.5297 245.171 92.4958 245.443 92.3067 245.588C92.2291 245.651 92.1369 245.675 92.0448 245.675V245.68Z" fill="url(#paint38_linear_507_2093)"/>
<path d="M101.753 236.103C101.661 236.103 101.569 236.074 101.491 236.015L93.4316 229.836C93.2425 229.69 93.2086 229.419 93.3541 229.23C93.4996 229.041 93.7711 229.007 93.9602 229.152L102.02 235.332C102.209 235.477 102.243 235.749 102.097 235.938C102.01 236.049 101.884 236.107 101.753 236.107V236.103Z" fill="url(#paint39_linear_507_2093)"/>
<path d="M108.649 224.339C108.595 224.339 108.537 224.329 108.484 224.305L99.1004 220.418C98.8822 220.326 98.7755 220.074 98.8677 219.856C98.9598 219.633 99.212 219.531 99.4302 219.623L108.814 223.51C109.032 223.602 109.139 223.854 109.046 224.072C108.978 224.237 108.818 224.339 108.649 224.339Z" fill="url(#paint40_linear_507_2093)"/>
<path d="M112.266 211.19C112.266 211.19 112.228 211.19 112.208 211.19L102.136 209.866C101.899 209.837 101.734 209.619 101.763 209.382C101.792 209.144 102.01 208.979 102.248 209.008L112.32 210.332C112.557 210.361 112.722 210.579 112.693 210.816C112.664 211.034 112.48 211.19 112.266 211.19Z" fill="url(#paint41_linear_507_2093)"/>
<path d="M102.282 198.883C102.068 198.883 101.884 198.723 101.855 198.51C101.826 198.272 101.991 198.054 102.228 198.025L112.3 196.702C112.528 196.673 112.756 196.838 112.785 197.075C112.814 197.313 112.649 197.531 112.412 197.56L102.34 198.883C102.34 198.883 102.301 198.883 102.282 198.883Z" fill="url(#paint42_linear_507_2093)"/>
<path d="M99.5224 188.249C99.3527 188.249 99.1926 188.147 99.1248 187.982C99.0326 187.759 99.1393 187.507 99.3575 187.42L108.741 183.533C108.964 183.441 109.216 183.547 109.303 183.765C109.396 183.988 109.289 184.24 109.071 184.328L99.6873 188.215C99.6339 188.239 99.5757 188.249 99.5224 188.249Z" fill="url(#paint43_linear_507_2093)"/>
<path d="M94.101 178.695C93.97 178.695 93.8439 178.637 93.7567 178.526C93.6112 178.337 93.6451 178.065 93.8342 177.92L101.894 171.74C102.083 171.595 102.354 171.629 102.5 171.818C102.645 172.007 102.611 172.278 102.422 172.424L94.3628 178.603C94.2852 178.662 94.1931 178.691 94.101 178.691V178.695Z" fill="url(#paint44_linear_507_2093)"/>
<path d="M86.3905 170.868C86.2984 170.868 86.2063 170.839 86.1287 170.78C85.9395 170.635 85.9056 170.364 86.0511 170.175L92.234 162.119C92.3794 161.93 92.651 161.896 92.8401 162.041C93.0293 162.187 93.0632 162.458 92.9177 162.647L86.7348 170.703C86.6475 170.814 86.5215 170.873 86.3905 170.873V170.868Z" fill="url(#paint45_linear_507_2093)"/>
<path d="M76.9199 165.299C76.8665 165.299 76.8083 165.289 76.755 165.265C76.5368 165.173 76.4301 164.921 76.5222 164.703L80.4114 155.324C80.5035 155.101 80.7557 154.999 80.9739 155.091C81.1921 155.183 81.2988 155.435 81.2067 155.653L77.3175 165.032C77.2496 165.197 77.0896 165.299 76.9199 165.299Z" fill="url(#paint46_linear_507_2093)"/>
<path d="M66.329 162.371C66.329 162.371 66.2902 162.371 66.2708 162.371C66.0332 162.342 65.8683 162.124 65.8974 161.887L67.2212 151.82C67.2503 151.582 67.4734 151.417 67.7062 151.446C67.9438 151.475 68.1087 151.694 68.0796 151.931L66.7557 161.998C66.7266 162.216 66.5423 162.371 66.329 162.371Z" fill="url(#paint47_linear_507_2093)"/>
<path d="M60.5 264.084C60.2623 264.084 60.0684 263.89 60.0684 263.652V245.767C60.0684 245.53 60.2623 245.336 60.5 245.336C60.7376 245.336 60.9315 245.53 60.9315 245.767V263.652C60.9315 263.89 60.7376 264.084 60.5 264.084Z" fill="url(#paint48_linear_507_2093)"/>
<path d="M79.5529 138.888C79.3153 138.888 79.1213 138.694 79.1213 138.456V105.856C79.1213 105.619 79.3153 105.425 79.5529 105.425C79.7905 105.425 79.9845 105.619 79.9845 105.856V138.456C79.9845 138.694 79.7905 138.888 79.5529 138.888Z" fill="url(#paint49_linear_507_2093)"/>
<path d="M50.3552 126.451C50.1175 126.451 49.9236 126.257 49.9236 126.02V105.047C49.9236 104.809 50.1175 104.615 50.3552 104.615C50.5928 104.615 50.7868 104.809 50.7868 105.047V126.02C50.7868 126.257 50.5928 126.451 50.3552 126.451Z" fill="url(#paint50_linear_507_2093)"/>
<path d="M70.3198 72.7952L51.9846 37.2817V6.68305C53.4539 6.46979 54.5887 5.21928 54.5887 3.6925C54.5887 2.01546 53.2309 0.658325 51.553 0.658325C49.8751 0.658325 48.5173 2.01546 48.5173 3.6925C48.5173 5.21928 49.6521 6.46979 51.1214 6.68305V37.3883C51.1214 37.4562 51.136 37.5241 51.1699 37.5871L69.5052 73.1005V111.202C69.5052 111.44 69.6991 111.634 69.9367 111.634C70.1744 111.634 70.3683 111.44 70.3683 111.202V72.9939C70.3683 72.926 70.3538 72.8582 70.3198 72.7952Z" fill="url(#paint51_linear_507_2093)"/>
<path d="M60.9366 199.727V35.0282C62.4059 34.8149 63.5406 33.5644 63.5406 32.0376C63.5406 30.3606 62.1828 29.0034 60.505 29.0034C58.8271 29.0034 57.4693 30.3606 57.4693 32.0376C57.4693 33.5644 58.604 34.8149 60.0734 35.0282V199.722C58.0221 199.94 56.417 201.656 56.417 203.764C56.417 206.023 58.25 207.85 60.505 207.85C62.7599 207.85 64.5929 206.018 64.5929 203.764C64.5929 201.656 62.9878 199.94 60.9366 199.722V199.727Z" fill="url(#paint52_linear_507_2093)"/>
<path d="M60.7038 116.112C42.097 116.112 22.8452 119.815 22.8452 126.019C22.8452 128.68 26.3998 130.881 31.928 132.529C31.9231 132.602 31.9037 132.674 31.9037 132.747C31.9037 134.264 33.1306 135.49 34.6484 135.49C35.788 135.49 36.7627 134.797 37.1798 133.813C43.9737 135.18 52.3969 135.922 60.7038 135.922C79.3154 135.922 98.5623 132.219 98.5623 126.015C98.5623 119.81 79.3154 116.107 60.7038 116.107V116.112ZM60.7038 135.059C51.9508 135.059 43.7894 134.269 37.3737 132.975C37.3786 132.897 37.398 132.824 37.398 132.752C37.398 131.235 36.1711 130.008 34.6533 130.008C33.5137 130.008 32.539 130.702 32.1219 131.685C26.8944 130.125 23.7132 128.142 23.7132 126.024C23.7132 121.124 40.6567 116.985 60.7086 116.985C80.7605 116.985 97.704 121.124 97.704 126.024C97.704 130.924 80.7605 135.064 60.7086 135.064L60.7038 135.059Z" fill="url(#paint53_linear_507_2093)"/>
<path d="M80.8526 65.1322C80.615 64.8511 79.8148 64.0949 79.8148 64.0949L79.2523 63.523C79.4027 63.8865 79.553 64.25 79.7033 64.6136L79.9118 65.1225C79.9991 65.3358 80.0816 65.5296 80.1058 65.7623C80.1301 65.9513 80.1689 66.1355 80.1834 66.3245C80.2852 67.1194 80.3386 67.9386 80.3386 68.7674C80.3386 79.702 71.4352 88.601 60.4952 88.601C49.5551 88.601 40.6518 79.702 40.6518 68.7674C40.6518 68.1179 40.6858 67.4781 40.7488 66.848C40.7682 66.659 40.7827 66.4748 40.8118 66.2954C40.8603 65.9513 40.8846 65.6169 41.0107 65.2873C41.0931 65.0837 41.1707 64.8801 41.2483 64.6766L41.7041 63.5133C41.7041 63.5133 41.7235 63.4794 41.7235 63.4648L41.1901 64.0174L40.1281 65.1467C37.1118 69.3636 35.5212 74.3559 35.5212 79.5809C35.5212 93.351 46.7231 104.543 60.4952 104.543C74.2672 104.543 85.4691 93.3461 85.4691 79.5809C85.4691 74.3462 84.2083 69.0824 80.8478 65.1225L80.8526 65.1322ZM60.5 89.4686C71.9153 89.4686 81.2066 80.1819 81.2066 68.7722V68.5153C81.7934 70.4929 82.0989 72.5577 82.0989 74.6758C82.0989 86.5798 72.4099 96.2592 60.5049 96.2592C48.5998 96.2592 38.9109 86.575 38.9109 74.6758C38.9109 72.5577 39.2116 70.4929 39.8032 68.5153V68.7722C39.8032 80.1819 49.0945 89.4686 60.5097 89.4686H60.5ZM60.5 103.694C47.2081 103.694 36.3893 92.8808 36.3893 79.5954C36.3893 75.9699 37.1846 72.4704 38.7072 69.2715C38.2563 71.0164 38.0429 72.8291 38.0429 74.6709C38.0429 87.05 48.1197 97.1219 60.5049 97.1219C72.89 97.1219 82.9669 87.05 82.9669 74.6709C82.9669 72.8291 82.7487 71.0164 82.3025 69.2715C83.8252 72.4656 84.6205 75.9651 84.6205 79.5954C84.6205 92.8808 73.8017 103.694 60.5097 103.694H60.5Z" fill="url(#paint54_linear_507_2093)"/>
<path d="M76.5707 363.485V335.828H75.7075V363.131L51.3688 387.681V425.283C50.2535 425.487 49.4097 426.461 49.4097 427.634C49.4097 428.957 50.4814 430.028 51.8052 430.028C53.1291 430.028 54.2008 428.957 54.2008 427.634C54.2008 426.461 53.3522 425.487 52.2368 425.283V388.035L76.5755 363.485H76.5707Z" fill="url(#paint55_linear_507_2093)"/>
<path d="M43.7894 352.245C45.1124 352.245 46.1849 351.173 46.1849 349.85C46.1849 348.528 45.1124 347.456 43.7894 347.456C42.4663 347.456 41.3938 348.528 41.3938 349.85C41.3938 351.173 42.4663 352.245 43.7894 352.245Z" fill="url(#paint56_linear_507_2093)"/>
<path d="M86.0559 293.893C88.6212 290.03 91.2932 285.314 91.2932 282.342C91.2932 281.489 91.075 280.777 90.5658 280.268C88.4467 278.15 82.3656 280.908 74.888 286.21C70.6254 283.738 65.6743 282.323 60.4031 282.323C44.4246 282.323 31.4284 295.313 31.4284 311.283C31.4284 316.586 32.8541 321.554 35.3612 325.829C30.2452 333.119 27.6266 339.018 29.7021 341.092C30.1967 341.586 30.8853 341.809 31.7582 341.809C34.5756 341.809 39.2407 339.434 44.7204 335.625C49.24 338.552 54.6227 340.244 60.4079 340.244C76.3864 340.244 89.3923 327.254 89.3923 311.283C89.3923 305.54 87.7144 300.184 84.8194 295.686C85.251 295.07 85.668 294.479 86.0559 293.888V293.893ZM32.2916 311.288C32.2916 295.793 44.9095 283.191 60.4031 283.191C65.3785 283.191 70.0581 284.485 74.1169 286.768C74.3739 286.913 74.6358 287.063 74.8928 287.223C78.428 289.346 81.4588 292.24 83.7671 295.671C82.0456 298.09 80.0622 300.654 77.8655 303.291C77.3611 302.976 76.7695 302.787 76.1342 302.787C74.3206 302.787 72.8464 304.255 72.8464 306.073C72.8464 306.882 73.1519 307.614 73.6369 308.186C71.2025 310.901 68.5936 313.658 65.8537 316.402C57.9784 324.268 50.6705 330.419 44.7253 334.602C41.3453 332.324 38.4842 329.333 36.3699 325.844C36.205 325.587 36.0595 325.325 35.9044 325.058C33.6058 320.992 32.2916 316.29 32.2916 311.288ZM30.3131 340.496C28.8098 338.993 30.8077 333.86 35.8268 326.624C37.9362 329.983 40.71 332.886 43.9688 335.13C36.8403 340.035 31.8115 341.979 30.3131 340.496ZM88.5291 311.288C88.5291 326.784 75.9112 339.386 60.4079 339.386C54.9282 339.386 49.8025 337.816 45.4818 335.087C51.9895 330.468 59.5351 323.934 66.4647 317.008C69.2191 314.259 71.8329 311.497 74.277 308.773C74.8055 309.141 75.4505 309.359 76.1439 309.359C77.9576 309.359 79.4318 307.891 79.4318 306.073C79.4318 305.21 79.0923 304.43 78.5444 303.843C80.6684 301.289 82.5935 298.812 84.2811 296.462C86.9773 300.761 88.5339 305.85 88.5339 311.293L88.5291 311.288ZM75.6687 286.68C81.5267 282.561 86.0462 280.384 88.466 280.384C89.1207 280.384 89.625 280.549 89.9548 280.879C91.3611 282.284 89.6347 286.966 85.3382 293.413C85.0085 293.912 84.6642 294.426 84.3102 294.935C82.0359 291.624 79.0923 288.813 75.6687 286.685V286.68Z" fill="url(#paint57_linear_507_2093)"/>
<path d="M51.0293 284.771C50.7916 284.771 50.5977 284.577 50.5977 284.34V259.737C50.5977 259.499 50.7916 259.305 51.0293 259.305C51.2669 259.305 51.4608 259.499 51.4608 259.737V284.34C51.4608 284.577 51.2669 284.771 51.0293 284.771Z" fill="url(#paint58_linear_507_2093)"/>
<path d="M61.7609 303.218C61.5233 303.218 61.3293 303.024 61.3293 302.787V270.341C61.3293 270.104 61.5233 269.91 61.7609 269.91C61.9985 269.91 62.1925 270.104 62.1925 270.341V302.787C62.1925 303.024 61.9985 303.218 61.7609 303.218Z" fill="url(#paint59_linear_507_2093)"/>
<path d="M43.7892 350.282C43.5516 350.282 43.3577 350.088 43.3577 349.85V273.88C43.3577 273.642 43.5516 273.448 43.7892 273.448C44.0269 273.448 44.2208 273.642 44.2208 273.88V349.85C44.2208 350.088 44.0269 350.282 43.7892 350.282Z" fill="url(#paint60_linear_507_2093)"/>
<path d="M62.9634 394.316C64.2865 394.316 65.359 393.244 65.359 391.922C65.359 390.599 64.2865 389.527 62.9634 389.527C61.6404 389.527 60.5679 390.599 60.5679 391.922C60.5679 393.244 61.6404 394.316 62.9634 394.316Z" fill="url(#paint61_linear_507_2093)"/>
<path d="M62.9636 392.353C62.7259 392.353 62.532 392.159 62.532 391.922V347.461C62.532 347.223 62.7259 347.03 62.9636 347.03C63.2012 347.03 63.3952 347.223 63.3952 347.461V391.922C63.3952 392.159 63.2012 392.353 62.9636 392.353Z" fill="url(#paint62_linear_507_2093)"/>
<defs>
<linearGradient id="paint0_linear_507_2093" x1="60.4999" y1="163.825" x2="60.4999" y2="315.611" gradientUnits="userSpaceOnUse">
<stop stop-color="#ECCC6F"/>
<stop offset="1" stop-color="#9F7D18"/>
</linearGradient>
<linearGradient id="paint1_linear_507_2093" x1="60.4999" y1="245.336" x2="60.4999" y2="281.1" gradientUnits="userSpaceOnUse">
<stop stop-color="#ECCC6F"/>
<stop offset="1" stop-color="#9F7D18"/>
</linearGradient>
<linearGradient id="paint2_linear_507_2093" x1="73.7363" y1="243.904" x2="73.7363" y2="278.498" gradientUnits="userSpaceOnUse">
<stop stop-color="#ECCC6F"/>
<stop offset="1" stop-color="#9F7D18"/>
</linearGradient>
<linearGradient id="paint3_linear_507_2093" x1="86.0655" y1="239.679" x2="86.0655" y2="270.886" gradientUnits="userSpaceOnUse">
<stop stop-color="#ECCC6F"/>
<stop offset="1" stop-color="#9F7D18"/>
</linearGradient>
<linearGradient id="paint4_linear_507_2093" x1="96.6491" y1="232.99" x2="96.6491" y2="258.761" gradientUnits="userSpaceOnUse">
<stop stop-color="#ECCC6F"/>
<stop offset="1" stop-color="#9F7D18"/>
</linearGradient>
<linearGradient id="paint5_linear_507_2093" x1="104.772" y1="224.253" x2="104.772" y2="242.964" gradientUnits="userSpaceOnUse">
<stop stop-color="#ECCC6F"/>
<stop offset="1" stop-color="#9F7D18"/>
</linearGradient>
<linearGradient id="paint6_linear_507_2093" x1="109.881" y1="214.092" x2="109.881" y2="224.57" gradientUnits="userSpaceOnUse">
<stop stop-color="#ECCC6F"/>
<stop offset="1" stop-color="#9F7D18"/>
</linearGradient>
<linearGradient id="paint7_linear_507_2093" x1="111.621" y1="203.182" x2="111.621" y2="204.828" gradientUnits="userSpaceOnUse">
<stop stop-color="#ECCC6F"/>
<stop offset="1" stop-color="#9F7D18"/>
</linearGradient>
<linearGradient id="paint8_linear_507_2093" x1="109.881" y1="187.642" x2="109.881" y2="198.12" gradientUnits="userSpaceOnUse">
<stop stop-color="#ECCC6F"/>
<stop offset="1" stop-color="#9F7D18"/>
</linearGradient>
<linearGradient id="paint9_linear_507_2093" x1="104.777" y1="173.155" x2="104.777" y2="191.871" gradientUnits="userSpaceOnUse">
<stop stop-color="#ECCC6F"/>
<stop offset="1" stop-color="#9F7D18"/>
</linearGradient>
<linearGradient id="paint10_linear_507_2093" x1="96.6491" y1="160.727" x2="96.6491" y2="186.498" gradientUnits="userSpaceOnUse">
<stop stop-color="#ECCC6F"/>
<stop offset="1" stop-color="#9F7D18"/>
</linearGradient>
<linearGradient id="paint11_linear_507_2093" x1="86.0607" y1="151.181" x2="86.0607" y2="182.384" gradientUnits="userSpaceOnUse">
<stop stop-color="#ECCC6F"/>
<stop offset="1" stop-color="#9F7D18"/>
</linearGradient>
<linearGradient id="paint12_linear_507_2093" x1="73.7314" y1="145.19" x2="73.7314" y2="179.787" gradientUnits="userSpaceOnUse">
<stop stop-color="#ECCC6F"/>
<stop offset="1" stop-color="#9F7D18"/>
</linearGradient>
<linearGradient id="paint13_linear_507_2093" x1="47.2734" y1="145.19" x2="47.2734" y2="179.787" gradientUnits="userSpaceOnUse">
<stop stop-color="#ECCC6F"/>
<stop offset="1" stop-color="#9F7D18"/>
</linearGradient>
<linearGradient id="paint14_linear_507_2093" x1="34.9442" y1="151.181" x2="34.9442" y2="182.384" gradientUnits="userSpaceOnUse">
<stop stop-color="#ECCC6F"/>
<stop offset="1" stop-color="#9F7D18"/>
</linearGradient>
<linearGradient id="paint15_linear_507_2093" x1="24.3556" y1="160.727" x2="24.3556" y2="186.498" gradientUnits="userSpaceOnUse">
<stop stop-color="#ECCC6F"/>
<stop offset="1" stop-color="#9F7D18"/>
</linearGradient>
<linearGradient id="paint16_linear_507_2093" x1="16.2282" y1="173.157" x2="16.2282" y2="191.868" gradientUnits="userSpaceOnUse">
<stop stop-color="#ECCC6F"/>
<stop offset="1" stop-color="#9F7D18"/>
</linearGradient>
<linearGradient id="paint17_linear_507_2093" x1="11.1242" y1="187.642" x2="11.1242" y2="198.12" gradientUnits="userSpaceOnUse">
<stop stop-color="#ECCC6F"/>
<stop offset="1" stop-color="#9F7D18"/>
</linearGradient>
<linearGradient id="paint18_linear_507_2093" x1="9.37857" y1="203.182" x2="9.37857" y2="204.828" gradientUnits="userSpaceOnUse">
<stop stop-color="#ECCC6F"/>
<stop offset="1" stop-color="#9F7D18"/>
</linearGradient>
<linearGradient id="paint19_linear_507_2093" x1="11.1242" y1="214.092" x2="11.1242" y2="224.57" gradientUnits="userSpaceOnUse">
<stop stop-color="#ECCC6F"/>
<stop offset="1" stop-color="#9F7D18"/>
</linearGradient>
<linearGradient id="paint20_linear_507_2093" x1="16.2331" y1="224.251" x2="16.2331" y2="242.967" gradientUnits="userSpaceOnUse">
<stop stop-color="#ECCC6F"/>
<stop offset="1" stop-color="#9F7D18"/>
</linearGradient>
<linearGradient id="paint21_linear_507_2093" x1="24.3556" y1="232.99" x2="24.3556" y2="258.761" gradientUnits="userSpaceOnUse">
<stop stop-color="#ECCC6F"/>
<stop offset="1" stop-color="#9F7D18"/>
</linearGradient>
<linearGradient id="paint22_linear_507_2093" x1="34.9393" y1="239.681" x2="34.9393" y2="270.884" gradientUnits="userSpaceOnUse">
<stop stop-color="#ECCC6F"/>
<stop offset="1" stop-color="#9F7D18"/>
</linearGradient>
<linearGradient id="paint23_linear_507_2093" x1="47.2688" y1="243.904" x2="47.2688" y2="278.498" gradientUnits="userSpaceOnUse">
<stop stop-color="#ECCC6F"/>
<stop offset="1" stop-color="#9F7D18"/>
</linearGradient>
<linearGradient id="paint24_linear_507_2093" x1="54.676" y1="151.355" x2="54.676" y2="172.204" gradientUnits="userSpaceOnUse">
<stop stop-color="#ECCC6F"/>
<stop offset="1" stop-color="#9F7D18"/>
</linearGradient>
<linearGradient id="paint25_linear_507_2093" x1="42.7563" y1="154.801" x2="42.7563" y2="174.337" gradientUnits="userSpaceOnUse">
<stop stop-color="#ECCC6F"/>
<stop offset="1" stop-color="#9F7D18"/>
</linearGradient>
<linearGradient id="paint26_linear_507_2093" x1="32.0442" y1="161.54" x2="32.0442" y2="178.558" gradientUnits="userSpaceOnUse">
<stop stop-color="#ECCC6F"/>
<stop offset="1" stop-color="#9F7D18"/>
</linearGradient>
<linearGradient id="paint27_linear_507_2093" x1="23.2792" y1="171.127" x2="23.2792" y2="184.567" gradientUnits="userSpaceOnUse">
<stop stop-color="#ECCC6F"/>
<stop offset="1" stop-color="#9F7D18"/>
</linearGradient>
<linearGradient id="paint28_linear_507_2093" x1="17.0478" y1="182.884" x2="17.0478" y2="191.944" gradientUnits="userSpaceOnUse">
<stop stop-color="#ECCC6F"/>
<stop offset="1" stop-color="#9F7D18"/>
</linearGradient>
<linearGradient id="paint29_linear_507_2093" x1="13.772" y1="196.035" x2="13.772" y2="200.202" gradientUnits="userSpaceOnUse">
<stop stop-color="#ECCC6F"/>
<stop offset="1" stop-color="#9F7D18"/>
</linearGradient>
<linearGradient id="paint30_linear_507_2093" x1="13.6897" y1="208.345" x2="13.6897" y2="212.514" gradientUnits="userSpaceOnUse">
<stop stop-color="#ECCC6F"/>
<stop offset="1" stop-color="#9F7D18"/>
</linearGradient>
<linearGradient id="paint31_linear_507_2093" x1="16.7908" y1="218.974" x2="16.7908" y2="228.034" gradientUnits="userSpaceOnUse">
<stop stop-color="#ECCC6F"/>
<stop offset="1" stop-color="#9F7D18"/>
</linearGradient>
<linearGradient id="paint32_linear_507_2093" x1="22.8717" y1="228.529" x2="22.8717" y2="241.969" gradientUnits="userSpaceOnUse">
<stop stop-color="#ECCC6F"/>
<stop offset="1" stop-color="#9F7D18"/>
</linearGradient>
<linearGradient id="paint33_linear_507_2093" x1="31.5205" y1="236.361" x2="31.5205" y2="253.38" gradientUnits="userSpaceOnUse">
<stop stop-color="#ECCC6F"/>
<stop offset="1" stop-color="#9F7D18"/>
</linearGradient>
<linearGradient id="paint34_linear_507_2093" x1="42.1406" y1="241.924" x2="42.1406" y2="261.46" gradientUnits="userSpaceOnUse">
<stop stop-color="#ECCC6F"/>
<stop offset="1" stop-color="#9F7D18"/>
</linearGradient>
<linearGradient id="paint35_linear_507_2093" x1="54.0117" y1="244.853" x2="54.0117" y2="265.7" gradientUnits="userSpaceOnUse">
<stop stop-color="#ECCC6F"/>
<stop offset="1" stop-color="#9F7D18"/>
</linearGradient>
<linearGradient id="paint36_linear_507_2093" x1="66.3337" y1="244.939" x2="66.3337" y2="265.788" gradientUnits="userSpaceOnUse">
<stop stop-color="#ECCC6F"/>
<stop offset="1" stop-color="#9F7D18"/>
</linearGradient>
<linearGradient id="paint37_linear_507_2093" x1="78.2436" y1="242.182" x2="78.2436" y2="261.717" gradientUnits="userSpaceOnUse">
<stop stop-color="#ECCC6F"/>
<stop offset="1" stop-color="#9F7D18"/>
</linearGradient>
<linearGradient id="paint38_linear_507_2093" x1="88.951" y1="236.759" x2="88.951" y2="253.777" gradientUnits="userSpaceOnUse">
<stop stop-color="#ECCC6F"/>
<stop offset="1" stop-color="#9F7D18"/>
</linearGradient>
<linearGradient id="paint39_linear_507_2093" x1="97.7257" y1="229.062" x2="97.7257" y2="242.502" gradientUnits="userSpaceOnUse">
<stop stop-color="#ECCC6F"/>
<stop offset="1" stop-color="#9F7D18"/>
</linearGradient>
<linearGradient id="paint40_linear_507_2093" x1="103.957" y1="219.589" x2="103.957" y2="228.65" gradientUnits="userSpaceOnUse">
<stop stop-color="#ECCC6F"/>
<stop offset="1" stop-color="#9F7D18"/>
</linearGradient>
<linearGradient id="paint41_linear_507_2093" x1="107.228" y1="209.005" x2="107.228" y2="213.172" gradientUnits="userSpaceOnUse">
<stop stop-color="#ECCC6F"/>
<stop offset="1" stop-color="#9F7D18"/>
</linearGradient>
<linearGradient id="paint42_linear_507_2093" x1="107.32" y1="196.698" x2="107.32" y2="200.866" gradientUnits="userSpaceOnUse">
<stop stop-color="#ECCC6F"/>
<stop offset="1" stop-color="#9F7D18"/>
</linearGradient>
<linearGradient id="paint43_linear_507_2093" x1="104.214" y1="183.5" x2="104.214" y2="192.559" gradientUnits="userSpaceOnUse">
<stop stop-color="#ECCC6F"/>
<stop offset="1" stop-color="#9F7D18"/>
</linearGradient>
<linearGradient id="paint44_linear_507_2093" x1="98.1283" y1="171.65" x2="98.1283" y2="185.09" gradientUnits="userSpaceOnUse">
<stop stop-color="#ECCC6F"/>
<stop offset="1" stop-color="#9F7D18"/>
</linearGradient>
<linearGradient id="paint45_linear_507_2093" x1="89.4844" y1="161.951" x2="89.4844" y2="178.97" gradientUnits="userSpaceOnUse">
<stop stop-color="#ECCC6F"/>
<stop offset="1" stop-color="#9F7D18"/>
</linearGradient>
<linearGradient id="paint46_linear_507_2093" x1="78.8644" y1="155.057" x2="78.8644" y2="174.594" gradientUnits="userSpaceOnUse">
<stop stop-color="#ECCC6F"/>
<stop offset="1" stop-color="#9F7D18"/>
</linearGradient>
<linearGradient id="paint47_linear_507_2093" x1="66.9885" y1="151.443" x2="66.9885" y2="172.29" gradientUnits="userSpaceOnUse">
<stop stop-color="#ECCC6F"/>
<stop offset="1" stop-color="#9F7D18"/>
</linearGradient>
<linearGradient id="paint48_linear_507_2093" x1="60.4999" y1="245.336" x2="60.4999" y2="281.1" gradientUnits="userSpaceOnUse">
<stop stop-color="#ECCC6F"/>
<stop offset="1" stop-color="#9F7D18"/>
</linearGradient>
<linearGradient id="paint49_linear_507_2093" x1="79.5529" y1="105.425" x2="79.5529" y2="169.26" gradientUnits="userSpaceOnUse">
<stop stop-color="#ECCC6F"/>
<stop offset="1" stop-color="#9F7D18"/>
</linearGradient>
<linearGradient id="paint50_linear_507_2093" x1="50.3552" y1="104.615" x2="50.3552" y2="146.269" gradientUnits="userSpaceOnUse">
<stop stop-color="#ECCC6F"/>
<stop offset="1" stop-color="#9F7D18"/>
</linearGradient>
<linearGradient id="paint51_linear_507_2093" x1="59.4428" y1="0.658325" x2="59.4428" y2="212.359" gradientUnits="userSpaceOnUse">
<stop stop-color="#ECCC6F"/>
<stop offset="1" stop-color="#9F7D18"/>
</linearGradient>
<linearGradient id="paint52_linear_507_2093" x1="60.505" y1="29.0034" x2="60.505" y2="370.178" gradientUnits="userSpaceOnUse">
<stop stop-color="#ECCC6F"/>
<stop offset="1" stop-color="#9F7D18"/>
</linearGradient>
<linearGradient id="paint53_linear_507_2093" x1="60.7038" y1="116.107" x2="60.7038" y2="153.906" gradientUnits="userSpaceOnUse">
<stop stop-color="#ECCC6F"/>
<stop offset="1" stop-color="#9F7D18"/>
</linearGradient>
<linearGradient id="paint54_linear_507_2093" x1="60.4952" y1="63.4648" x2="60.4952" y2="141.826" gradientUnits="userSpaceOnUse">
<stop stop-color="#ECCC6F"/>
<stop offset="1" stop-color="#9F7D18"/>
</linearGradient>
<linearGradient id="paint55_linear_507_2093" x1="62.9926" y1="335.828" x2="62.9926" y2="515.528" gradientUnits="userSpaceOnUse">
<stop stop-color="#ECCC6F"/>
<stop offset="1" stop-color="#9F7D18"/>
</linearGradient>
<linearGradient id="paint56_linear_507_2093" x1="43.7894" y1="347.456" x2="43.7894" y2="356.591" gradientUnits="userSpaceOnUse">
<stop stop-color="#ECCC6F"/>
<stop offset="1" stop-color="#9F7D18"/>
</linearGradient>
<linearGradient id="paint57_linear_507_2093" x1="60.1406" y1="279.552" x2="60.1406" y2="398.316" gradientUnits="userSpaceOnUse">
<stop stop-color="#ECCC6F"/>
<stop offset="1" stop-color="#9F7D18"/>
</linearGradient>
<linearGradient id="paint58_linear_507_2093" x1="51.0292" y1="259.305" x2="51.0292" y2="307.885" gradientUnits="userSpaceOnUse">
<stop stop-color="#ECCC6F"/>
<stop offset="1" stop-color="#9F7D18"/>
</linearGradient>
<linearGradient id="paint59_linear_507_2093" x1="61.7609" y1="269.91" x2="61.7609" y2="333.45" gradientUnits="userSpaceOnUse">
<stop stop-color="#ECCC6F"/>
<stop offset="1" stop-color="#9F7D18"/>
</linearGradient>
<linearGradient id="paint60_linear_507_2093" x1="43.7893" y1="273.448" x2="43.7893" y2="420.019" gradientUnits="userSpaceOnUse">
<stop stop-color="#ECCC6F"/>
<stop offset="1" stop-color="#9F7D18"/>
</linearGradient>
<linearGradient id="paint61_linear_507_2093" x1="62.9634" y1="389.527" x2="62.9634" y2="398.663" gradientUnits="userSpaceOnUse">
<stop stop-color="#ECCC6F"/>
<stop offset="1" stop-color="#9F7D18"/>
</linearGradient>
<linearGradient id="paint62_linear_507_2093" x1="62.9636" y1="347.03" x2="62.9636" y2="433.49" gradientUnits="userSpaceOnUse">
<stop stop-color="#ECCC6F"/>
<stop offset="1" stop-color="#9F7D18"/>
</linearGradient>
</defs>
</svg>
