<svg width="141" height="100" viewBox="0 0 141 100" fill="none" xmlns="http://www.w3.org/2000/svg">
<g clip-path="url(#clip0_173_1887)">
<path d="M117.042 98.2772V98.2667L112.951 85.6963L125.318 76.7159H110.039L105.781 63.6132V63.4201H105.713L105.311 62.1834L104.91 63.4201H104.847V63.6132L100.589 76.7159H85.3103L97.6668 85.6963L93.5862 98.2667V98.2772L93.5028 98.5276L92.9548 100.218L105.311 91.2431L117.668 100.218L117.12 98.5276L117.036 98.2772H117.042ZM115.048 95.1515L106.83 82.2836L111.907 85.4823L115.048 95.1515ZM112.585 84.804L106.543 81L122.38 77.6969L112.585 84.804ZM118.08 77.6447L106.95 79.9615L109.564 77.6447H118.08ZM109.089 76.815L105.781 79.7476V66.6188L109.089 76.8098V76.815ZM104.852 66.624V79.7737L101.539 76.8254L104.852 66.624ZM101.053 77.6447L103.715 79.9981L92.5113 77.6447H101.059H101.053ZM88.2533 77.6969L104.127 81.0052L98.0477 84.7988L88.2533 77.6917V77.6969ZM98.7209 85.4823L103.835 82.2575L95.5795 95.1619L98.7209 85.4823ZM104.852 82.3671V90.4396L95.2299 97.4319L104.852 82.3671ZM105.781 90.4396V82.3671L115.403 97.4319L105.781 90.4396Z" fill="#9E7D1B"/>
<path d="M67.0366 83.4316C57.5657 84.6735 56.5743 85.6754 55.3532 95.1463C54.1113 85.6754 53.1094 84.684 43.6386 83.4629C53.1094 82.221 54.1009 81.2191 55.3219 71.7482C56.5638 81.2191 57.5657 82.2106 67.0366 83.4316Z" fill="#9E7D1B"/>
<path d="M34.3243 15.3038L35.9471 11.4267L40.132 11.0823L36.949 8.33757L37.9143 4.2518L34.3243 6.43297L30.7342 4.2518L31.6996 8.33757L28.5113 11.0823L32.7015 11.4267L34.3243 15.3038Z" fill="#9E7D1B"/>
<path d="M34.3243 142.965C34.0686 142.965 33.8599 142.756 33.8599 142.501V140.492C33.8599 140.236 34.0686 140.027 34.3243 140.027C34.58 140.027 34.7887 140.236 34.7887 140.492V142.501C34.7887 142.756 34.58 142.965 34.3243 142.965ZM34.3243 138.165C34.0686 138.165 33.8599 137.956 33.8599 137.7V134.908C33.8599 134.653 34.0686 134.444 34.3243 134.444C34.58 134.444 34.7887 134.653 34.7887 134.908V137.7C34.7887 137.956 34.58 138.165 34.3243 138.165ZM34.3243 132.586C34.0686 132.586 33.8599 132.378 33.8599 132.122V129.33C33.8599 129.075 34.0686 128.866 34.3243 128.866C34.58 128.866 34.7887 129.075 34.7887 129.33V132.122C34.7887 132.378 34.58 132.586 34.3243 132.586ZM34.3243 127.008C34.0686 127.008 33.8599 126.799 33.8599 126.544V123.752C33.8599 123.496 34.0686 123.288 34.3243 123.288C34.58 123.288 34.7887 123.496 34.7887 123.752V126.544C34.7887 126.799 34.58 127.008 34.3243 127.008ZM34.3243 121.425C34.0686 121.425 33.8599 121.216 33.8599 120.96V118.169C33.8599 117.913 34.0686 117.704 34.3243 117.704C34.58 117.704 34.7887 117.913 34.7887 118.169V120.96C34.7887 121.216 34.58 121.425 34.3243 121.425ZM34.3243 115.847C34.0686 115.847 33.8599 115.638 33.8599 115.382V112.59C33.8599 112.335 34.0686 112.126 34.3243 112.126C34.58 112.126 34.7887 112.335 34.7887 112.59V115.382C34.7887 115.638 34.58 115.847 34.3243 115.847ZM34.3243 110.268C34.0686 110.268 33.8599 110.06 33.8599 109.804V107.012C33.8599 106.757 34.0686 106.548 34.3243 106.548C34.58 106.548 34.7887 106.757 34.7887 107.012V109.804C34.7887 110.06 34.58 110.268 34.3243 110.268ZM34.3243 104.69C34.0686 104.69 33.8599 104.482 33.8599 104.226V101.434C33.8599 101.178 34.0686 100.97 34.3243 100.97C34.58 100.97 34.7887 101.178 34.7887 101.434V104.226C34.7887 104.482 34.58 104.69 34.3243 104.69ZM34.3243 99.1068C34.0686 99.1068 33.8599 98.8981 33.8599 98.6424V95.8507C33.8599 95.5951 34.0686 95.3863 34.3243 95.3863C34.58 95.3863 34.7887 95.5951 34.7887 95.8507V98.6424C34.7887 98.8981 34.58 99.1068 34.3243 99.1068ZM34.3243 93.5287C34.0686 93.5287 33.8599 93.32 33.8599 93.0643V90.2726C33.8599 90.0169 34.0686 89.8081 34.3243 89.8081C34.58 89.8081 34.7887 90.0169 34.7887 90.2726V93.0643C34.7887 93.32 34.58 93.5287 34.3243 93.5287ZM34.3243 87.9505C34.0686 87.9505 33.8599 87.7418 33.8599 87.4861V84.6944C33.8599 84.4387 34.0686 84.23 34.3243 84.23C34.58 84.23 34.7887 84.4387 34.7887 84.6944V87.4861C34.7887 87.7418 34.58 87.9505 34.3243 87.9505ZM34.3243 82.3723C34.0686 82.3723 33.8599 82.1636 33.8599 81.9079V79.1162C33.8599 78.8605 34.0686 78.6518 34.3243 78.6518C34.58 78.6518 34.7887 78.8605 34.7887 79.1162V81.9079C34.7887 82.1636 34.58 82.3723 34.3243 82.3723ZM34.3243 76.7889C34.0686 76.7889 33.8599 76.5802 33.8599 76.3245V73.5328C33.8599 73.2771 34.0686 73.0684 34.3243 73.0684C34.58 73.0684 34.7887 73.2771 34.7887 73.5328V76.3245C34.7887 76.5802 34.58 76.7889 34.3243 76.7889ZM34.3243 71.2108C34.0686 71.2108 33.8599 71.002 33.8599 70.7464V67.9546C33.8599 67.6989 34.0686 67.4902 34.3243 67.4902C34.58 67.4902 34.7887 67.6989 34.7887 67.9546V70.7464C34.7887 71.002 34.58 71.2108 34.3243 71.2108ZM34.3243 65.6326C34.0686 65.6326 33.8599 65.4239 33.8599 65.1682V62.3765C33.8599 62.1208 34.0686 61.9121 34.3243 61.9121C34.58 61.9121 34.7887 62.1208 34.7887 62.3765V65.1682C34.7887 65.4239 34.58 65.6326 34.3243 65.6326ZM34.3243 60.0544C34.0686 60.0544 33.8599 59.8457 33.8599 59.59V56.7983C33.8599 56.5426 34.0686 56.3339 34.3243 56.3339C34.58 56.3339 34.7887 56.5426 34.7887 56.7983V59.59C34.7887 59.8457 34.58 60.0544 34.3243 60.0544ZM34.3243 54.471C34.0686 54.471 33.8599 54.2623 33.8599 54.0066V51.2201C33.8599 50.9645 34.0686 50.7557 34.3243 50.7557C34.58 50.7557 34.7887 50.9645 34.7887 51.2201V54.0066C34.7887 54.2623 34.58 54.471 34.3243 54.471ZM34.3243 48.8928C34.0686 48.8928 33.8599 48.6841 33.8599 48.4284V45.6367C33.8599 45.3811 34.0686 45.1723 34.3243 45.1723C34.58 45.1723 34.7887 45.3811 34.7887 45.6367V48.4284C34.7887 48.6841 34.58 48.8928 34.3243 48.8928ZM34.3243 43.3147C34.0686 43.3147 33.8599 43.1059 33.8599 42.8502V40.0586C33.8599 39.8029 34.0686 39.5941 34.3243 39.5941C34.58 39.5941 34.7887 39.8029 34.7887 40.0586V42.8502C34.7887 43.1059 34.58 43.3147 34.3243 43.3147ZM34.3243 37.7365C34.0686 37.7365 33.8599 37.5278 33.8599 37.2721V34.4804C33.8599 34.2247 34.0686 34.016 34.3243 34.016C34.58 34.016 34.7887 34.2247 34.7887 34.4804V37.2721C34.7887 37.5278 34.58 37.7365 34.3243 37.7365ZM34.3243 32.1531C34.0686 32.1531 33.8599 31.9444 33.8599 31.6887V28.897C33.8599 28.6413 34.0686 28.4326 34.3243 28.4326C34.58 28.4326 34.7887 28.6413 34.7887 28.897V31.6887C34.7887 31.9444 34.58 32.1531 34.3243 32.1531ZM34.3243 26.5749C34.0686 26.5749 33.8599 26.3662 33.8599 26.1105V23.3188C33.8599 23.0631 34.0686 22.8544 34.3243 22.8544C34.58 22.8544 34.7887 23.0631 34.7887 23.3188V26.1105C34.7887 26.3662 34.58 26.5749 34.3243 26.5749ZM34.3243 20.9967C34.0686 20.9967 33.8599 20.788 33.8599 20.5324V17.7406C33.8599 17.4849 34.0686 17.2762 34.3243 17.2762C34.58 17.2762 34.7887 17.4849 34.7887 17.7406V20.5324C34.7887 20.788 34.58 20.9967 34.3243 20.9967Z" fill="#9E7D1B"/>
<path d="M75.0411 35.07L76.664 31.1929L80.8489 30.8485L77.6658 28.109L78.6312 24.018L75.0411 26.1992L71.4511 24.018L72.4164 28.109L69.2334 30.8485L73.4183 31.1929L75.0411 35.07Z" fill="#9E7D1B"/>
<path d="M75.0411 117.715C74.7854 117.715 74.5767 117.506 74.5767 117.25V54.0692C74.5767 53.8135 74.7854 53.6048 75.0411 53.6048C75.2968 53.6048 75.5055 53.8135 75.5055 54.0692V117.25C75.5055 117.506 75.2968 117.715 75.0411 117.715Z" fill="#9E7D1B"/>
<path d="M75.0411 50.761C74.7854 50.761 74.5767 50.5522 74.5767 50.2965V37.9557C74.5767 37.7 74.7854 37.4913 75.0411 37.4913C75.2968 37.4913 75.5055 37.7 75.5055 37.9557V50.2965C75.5055 50.5522 75.2968 50.761 75.0411 50.761Z" fill="#9E7D1B"/>
<path d="M137.935 39.7925C137.935 39.7611 137.945 39.7351 137.945 39.7038C137.945 37.7365 136.349 36.1398 134.381 36.1398C132.414 36.1398 130.948 37.6269 130.838 39.5002C119.786 39.0984 108.082 38.8897 96.5606 38.8897C51.2048 38.8897 3 42.078 3 47.9849C3 50.0409 8.84427 51.7681 18.3673 53.1457C18.3151 53.4431 18.2786 53.7509 18.2786 54.0692C18.2786 56.8975 20.5694 59.1882 23.3976 59.1882C26.2258 59.1882 28.3495 57.0488 28.5009 54.3562C46.6233 56.1513 72.0094 57.0853 96.5606 57.0853C141.916 57.0853 190.121 53.8971 190.121 47.9901C190.121 43.9096 167.115 41.1231 137.935 39.7925ZM96.5554 56.1565C68.5237 56.1565 44.8544 55.0189 28.4591 53.3909C28.1252 50.8862 25.9857 48.9503 23.3923 48.9503C21.2112 48.9503 19.3535 50.3174 18.6178 52.2377C9.19389 50.9227 3.92882 49.4251 3.92882 47.9849C3.92882 44.1235 41.9688 39.8185 96.5606 39.8185C108.943 39.8185 120.465 40.0429 130.896 40.4291C131.23 42.0519 132.665 43.2677 134.387 43.2677C135.999 43.2677 137.351 42.1876 137.784 40.7161C169.358 42.1771 189.192 45.1984 189.192 47.9849C189.192 51.8463 151.152 56.1513 96.5606 56.1513L96.5554 56.1565Z" fill="#9E7D1B"/>
<path d="M130.228 190.935C129.972 190.935 129.763 190.727 129.763 190.471V187.679C129.763 187.424 129.972 187.215 130.228 187.215C130.483 187.215 130.692 187.424 130.692 187.679V190.471C130.692 190.727 130.483 190.935 130.228 190.935ZM130.228 185.352C129.972 185.352 129.763 185.143 129.763 184.888V182.096C129.763 181.84 129.972 181.631 130.228 181.631C130.483 181.631 130.692 181.84 130.692 182.096V184.888C130.692 185.143 130.483 185.352 130.228 185.352ZM130.228 179.774C129.972 179.774 129.763 179.565 129.763 179.309V176.518C129.763 176.262 129.972 176.053 130.228 176.053C130.483 176.053 130.692 176.262 130.692 176.518V179.309C130.692 179.565 130.483 179.774 130.228 179.774ZM130.228 174.196C129.972 174.196 129.763 173.987 129.763 173.731V170.94C129.763 170.684 129.972 170.475 130.228 170.475C130.483 170.475 130.692 170.684 130.692 170.94V173.731C130.692 173.987 130.483 174.196 130.228 174.196ZM130.228 168.617C129.972 168.617 129.763 168.409 129.763 168.153V165.361C129.763 165.106 129.972 164.897 130.228 164.897C130.483 164.897 130.692 165.106 130.692 165.361V168.153C130.692 168.409 130.483 168.617 130.228 168.617ZM130.228 163.034C129.972 163.034 129.763 162.825 129.763 162.57V159.778C129.763 159.522 129.972 159.314 130.228 159.314C130.483 159.314 130.692 159.522 130.692 159.778V162.57C130.692 162.825 130.483 163.034 130.228 163.034ZM130.228 157.456C129.972 157.456 129.763 157.247 129.763 156.991V154.2C129.763 153.944 129.972 153.735 130.228 153.735C130.483 153.735 130.692 153.944 130.692 154.2V156.991C130.692 157.247 130.483 157.456 130.228 157.456ZM130.228 151.878C129.972 151.878 129.763 151.669 129.763 151.413V148.622C129.763 148.366 129.972 148.157 130.228 148.157C130.483 148.157 130.692 148.366 130.692 148.622V151.413C130.692 151.669 130.483 151.878 130.228 151.878ZM130.228 146.3C129.972 146.3 129.763 146.091 129.763 145.835V143.043C129.763 142.788 129.972 142.579 130.228 142.579C130.483 142.579 130.692 142.788 130.692 143.043V145.835C130.692 146.091 130.483 146.3 130.228 146.3ZM130.228 140.716C129.972 140.716 129.763 140.507 129.763 140.252V137.46C129.763 137.204 129.972 136.996 130.228 136.996C130.483 136.996 130.692 137.204 130.692 137.46V140.252C130.692 140.507 130.483 140.716 130.228 140.716ZM130.228 135.138C129.972 135.138 129.763 134.929 129.763 134.674V131.882C129.763 131.626 129.972 131.417 130.228 131.417C130.483 131.417 130.692 131.626 130.692 131.882V134.674C130.692 134.929 130.483 135.138 130.228 135.138ZM130.228 129.56C129.972 129.56 129.763 129.351 129.763 129.095V126.304C129.763 126.048 129.972 125.839 130.228 125.839C130.483 125.839 130.692 126.048 130.692 126.304V129.095C130.692 129.351 130.483 129.56 130.228 129.56ZM130.228 123.982C129.972 123.982 129.763 123.773 129.763 123.517V120.726C129.763 120.47 129.972 120.261 130.228 120.261C130.483 120.261 130.692 120.47 130.692 120.726V123.517C130.692 123.773 130.483 123.982 130.228 123.982ZM130.228 118.398C129.972 118.398 129.763 118.19 129.763 117.934V115.142C129.763 114.886 129.972 114.678 130.228 114.678C130.483 114.678 130.692 114.886 130.692 115.142V117.934C130.692 118.19 130.483 118.398 130.228 118.398ZM130.228 112.82C129.972 112.82 129.763 112.611 129.763 112.356V109.564C129.763 109.308 129.972 109.1 130.228 109.1C130.483 109.1 130.692 109.308 130.692 109.564V112.356C130.692 112.611 130.483 112.82 130.228 112.82ZM130.228 107.242C129.972 107.242 129.763 107.033 129.763 106.777V103.986C129.763 103.73 129.972 103.521 130.228 103.521C130.483 103.521 130.692 103.73 130.692 103.986V106.777C130.692 107.033 130.483 107.242 130.228 107.242ZM130.228 101.664C129.972 101.664 129.763 101.455 129.763 101.199V98.4076C129.763 98.1519 129.972 97.9432 130.228 97.9432C130.483 97.9432 130.692 98.1519 130.692 98.4076V101.199C130.692 101.455 130.483 101.664 130.228 101.664ZM130.228 96.0803C129.972 96.0803 129.763 95.8716 129.763 95.6159V92.8242C129.763 92.5685 129.972 92.3598 130.228 92.3598C130.483 92.3598 130.692 92.5685 130.692 92.8242V95.6159C130.692 95.8716 130.483 96.0803 130.228 96.0803ZM130.228 90.5022C129.972 90.5022 129.763 90.2934 129.763 90.0377V87.246C129.763 86.9904 129.972 86.7816 130.228 86.7816C130.483 86.7816 130.692 86.9904 130.692 87.246V90.0377C130.692 90.2934 130.483 90.5022 130.228 90.5022ZM130.228 84.924C129.972 84.924 129.763 84.7152 129.763 84.4596V81.6679C129.763 81.4122 129.972 81.2035 130.228 81.2035C130.483 81.2035 130.692 81.4122 130.692 81.6679V84.4596C130.692 84.7152 130.483 84.924 130.228 84.924ZM130.228 79.3458C129.972 79.3458 129.763 79.1371 129.763 78.8814V76.0897C129.763 75.834 129.972 75.6253 130.228 75.6253C130.483 75.6253 130.692 75.834 130.692 76.0897V78.8814C130.692 79.1371 130.483 79.3458 130.228 79.3458ZM130.228 73.7624C129.972 73.7624 129.763 73.5537 129.763 73.298V70.5063C129.763 70.2506 129.972 70.0419 130.228 70.0419C130.483 70.0419 130.692 70.2506 130.692 70.5063V73.298C130.692 73.5537 130.483 73.7624 130.228 73.7624ZM130.228 68.1842C129.972 68.1842 129.763 67.9755 129.763 67.7198V64.9281C129.763 64.6724 129.972 64.4637 130.228 64.4637C130.483 64.4637 130.692 64.6724 130.692 64.9281V67.7198C130.692 67.9755 130.483 68.1842 130.228 68.1842Z" fill="#9E7D1B"/>
</g>
<defs>
<clipPath id="clip0_173_1887">
<rect width="141" height="100" fill="white"/>
</clipPath>
</defs>
</svg>
