<svg width="80" height="99" viewBox="0 0 80 99" fill="none" xmlns="http://www.w3.org/2000/svg">
<g id="OBJECTS">
<path id="Vector" d="M71.5853 88.5963H8.41472C3.78667 88.5963 0 84.8097 0 80.1816V38.27C0 17.2217 17.2214 0 38.27 0C61.2215 0 80 18.7785 80 41.73V80.1816C80 84.8097 76.2133 88.5963 71.5853 88.5963Z" fill="#EED282"/>
<path id="Vector_2" d="M49.4987 93.4305C49.6636 93.4537 49.8206 93.3292 49.8902 93.1779C49.9597 93.0265 49.9618 92.8541 49.9626 92.6877C49.9787 89.2565 49.9947 85.8251 49.954 82.394C49.9278 80.1733 49.7547 77.9297 49.804 75.7171C49.8542 73.4587 49.941 71.201 50.0675 68.9454C50.0773 68.7703 50.0993 68.5811 50.1788 68.4221C50.2146 68.3503 50.3663 68.2028 50.4568 68.2463C50.5595 68.2958 50.5749 68.7327 50.5936 68.8342C50.6931 69.3779 50.786 69.9228 50.8723 70.4687C51.0449 71.5606 51.1909 72.6567 51.3105 73.7557C51.3752 74.3513 51.4958 74.9572 51.6034 75.5467C51.6245 75.6632 51.6617 75.7989 51.7726 75.8406C51.8751 75.879 51.993 75.8095 52.0459 75.7137C52.0988 75.6177 52.1032 75.5033 52.1057 75.3939C52.1519 73.3414 51.9898 71.2844 51.6229 69.2644C51.3904 67.9845 50.9274 66.8866 50.1948 65.8118C49.6372 64.9937 49.3822 64.0646 49.4499 63.0768C49.5036 62.2927 49.7702 61.5253 50.2085 60.8734C50.3817 60.6154 50.6799 60.3952 50.8176 60.1273C51.0018 59.7687 51.0244 59.2132 51.0998 58.818C51.3831 57.3337 51.5641 55.8298 51.6416 54.3205C51.7185 52.8208 51.5027 51.2636 51.4136 49.76C51.303 47.8938 51.0437 46.3618 50.882 44.4992C50.8377 43.987 50.7181 43.4681 50.628 42.9619C50.5231 42.3722 50.4041 41.7819 50.2613 41.2C50.1326 40.6758 49.8814 40.2804 49.5697 39.8455C49.2311 39.3732 48.8599 38.9237 48.5502 38.4311C48.4013 38.1943 48.2588 37.9425 48.1443 37.6876C48.0432 37.4629 48.1022 37.1984 48.1317 36.9568C48.2667 35.857 48.6486 34.7883 49.2402 33.8514C49.4999 33.4402 49.7556 33.0008 50.0683 32.617C50.3941 32.2171 50.787 31.9142 51.1948 31.5975C51.0775 31.5853 50.9589 31.5851 50.8413 31.5957C49.733 31.6968 49.3413 32.6467 48.73 33.4107C48.283 33.9694 47.6977 34.4545 47.0507 34.7633C46.6711 34.9443 46.163 34.9988 45.7532 35.0869C45.313 35.1815 44.8698 35.2627 44.4244 35.3298C45.3317 39.1003 45.6225 43.0115 45.379 46.8819C45.3471 47.39 45.3551 47.9003 45.2926 48.409C45.2503 48.7544 45.2119 49.1069 45.0642 49.4167C45.0439 49.4594 44.9914 49.4993 44.9526 49.4722C44.932 49.458 44.9255 49.4311 44.9204 49.4067C44.8568 49.0988 44.9127 48.7939 44.9284 48.4804C44.9471 48.11 44.9674 47.7396 44.9892 47.3694C45.0067 47.0743 44.9691 46.794 44.9839 46.5029C45.0032 46.1274 45.0134 45.7518 45.0126 45.3759C45.0107 44.6121 44.9658 43.8483 44.8777 43.0896C44.8001 42.42 44.8021 42.2628 44.6473 41.6066C44.5611 41.2407 44.4499 40.8638 44.1946 40.5878C43.902 40.2713 43.4658 40.1354 43.0452 40.0416C42.2642 39.8675 41.4609 39.7929 40.6613 39.8205C40.5679 39.8238 40.4707 39.8276 40.3853 39.7896C40.3001 39.7516 40.232 39.657 40.257 39.5669C40.2893 39.4513 40.4366 39.4212 40.5563 39.4133C41.7461 39.3354 42.9419 39.3525 44.1287 39.4642C44.2632 39.4768 44.446 39.455 44.4637 39.3212C44.4722 39.2565 44.4324 39.1955 44.3895 39.1462C44.0584 38.7653 43.4991 38.6969 42.9943 38.6882C42.1414 38.6733 41.2899 38.7537 40.4453 38.8668C40.2336 38.895 40.0223 38.9255 39.8112 38.9571C39.567 38.9935 39.3166 39.036 39.0693 39.0085C39.109 39.013 39.2532 39.4676 39.2767 39.524C39.3516 39.7021 39.4291 39.8791 39.5092 40.055C39.6727 40.414 39.8474 40.7682 40.0327 41.1164C40.4028 41.812 40.7337 42.4971 41.1321 43.1752C41.5689 43.9189 41.9484 44.7006 42.2055 45.5254C42.3844 46.1002 42.4503 46.6817 42.5571 47.2659C42.6728 47.8995 42.6033 48.5587 42.4166 49.172C42.1857 49.9301 41.7825 50.6247 41.3324 51.2766C40.9698 51.8016 40.6704 52.3693 40.4689 52.9756C40.2985 53.4886 40.3019 53.9719 40.2106 54.4873C40.1095 55.0581 39.9877 55.5397 40.1152 56.1251C40.2346 56.6735 40.5086 57.1912 40.9188 57.5772C41.249 57.8882 41.6895 58.1252 42.14 58.0719C42.5095 58.0282 42.8357 57.7928 43.0637 57.4987C43.2917 57.2046 43.4344 56.8545 43.563 56.5053C44.0537 55.1732 44.3815 53.7878 44.7081 52.4063C44.797 52.0306 44.8857 51.6358 44.7842 51.2634C44.6693 50.8413 44.3313 50.5224 44.0014 50.235C43.7495 50.0155 43.4808 49.8011 43.1733 49.6644C42.8615 49.5259 42.6027 49.4832 42.3139 49.6673C41.7678 50.0151 41.2563 50.4736 40.9462 51.0492C40.5315 51.8191 40.0219 52.5534 39.5562 53.2964C39.2068 53.8539 38.8428 54.4932 39.0006 55.1319C39.05 55.3325 39.2172 55.5521 39.4165 55.4982C39.5484 55.4624 39.6202 55.3223 39.6656 55.1931C39.8417 54.693 39.9027 54.0563 39.774 53.5362C39.6528 53.047 39.6402 52.5102 39.4161 52.0461C39.2147 51.6289 38.8161 51.2739 38.3533 51.2624C38.0813 51.2554 37.8188 51.3655 37.5882 51.5097C37.2772 51.7041 37.0021 51.9737 36.8628 52.3129C36.7196 52.6618 36.7306 53.0582 36.8194 53.4247C37.0238 54.266 37.6081 54.9631 38.2418 55.5525C38.7675 56.0417 39.3666 56.4349 39.8586 56.9572C40.3432 57.4717 40.7426 58.0629 41.069 58.6886C41.5461 59.6027 41.8705 60.589 42.1371 61.5851C42.2651 62.0623 42.3804 62.5653 42.2649 63.0457C42.1784 63.4051 41.9753 63.7228 41.8654 64.079C41.7926 64.3152 41.6688 64.5645 41.438 64.6522C41.293 64.7073 41.1305 64.6876 40.9792 64.6526C40.2513 64.484 39.6276 63.9771 39.2275 63.3459C38.8908 62.8149 38.7358 62.2181 38.593 61.6129C38.423 60.8911 38.2528 60.1692 38.0828 59.4473C37.9422 58.8509 37.8017 58.2545 37.6612 57.658C37.531 57.1057 37.4009 56.5535 37.2707 56.0012C37.2382 55.8631 37.2056 55.7252 37.1731 55.5871C37.1493 55.4862 37.0663 55.3058 37.1208 55.2141C37.2199 55.0473 37.4236 55.1899 37.4354 55.3375C37.4489 55.5039 37.3057 55.6504 37.146 55.6992C36.8963 55.7755 36.6031 55.7348 36.3425 55.7942C36.0708 55.8562 35.8069 55.9471 35.5356 56.0104C35.114 56.1088 34.6871 56.1343 34.2556 56.1042C33.8999 56.0796 33.5419 56.0082 33.1844 56.0362C32.8828 56.0598 32.6339 56.2103 32.3687 56.3476C31.7779 56.6538 31.3427 57.1891 30.964 57.722C30.635 58.1852 30.3208 58.6845 30.2419 59.2474C30.1469 59.9259 30.3848 60.6641 30.553 61.3135C30.7267 61.9839 30.9006 62.6544 31.0741 63.325C31.2125 63.8603 31.3297 64.5106 31.689 64.9496C31.9715 65.2947 32.3821 65.516 32.8092 65.6444C33.2363 65.7727 33.6835 65.8153 34.1274 65.8572C35.5325 65.9898 36.5366 65.9814 37.9412 65.8464C38.1843 65.823 38.4293 65.7992 38.6677 65.7439C38.9477 65.6788 39.1531 65.503 39.4093 65.4154C39.6396 65.3368 39.6888 65.3523 39.6505 65.5699C39.6095 65.8045 39.488 66.0209 39.4647 66.2819C39.3746 67.282 39.5454 68.3763 40.0235 69.268C40.4177 70.0031 41.5793 70.1866 42.2994 69.8923C42.3613 70.4126 42.4229 70.9329 42.4847 71.4532C42.6856 73.1469 42.7658 74.8521 42.8184 76.5558C42.9254 79.9508 43.0637 83.3423 43.2221 86.7385C43.2254 86.8077 43.2286 86.8766 43.2317 86.9458C43.2882 88.1575 43.1621 89.3618 43.1611 90.5713C43.1601 91.8307 43.4725 93.1333 43.9376 94.2974C44.0506 94.5801 44.1816 94.8669 44.4071 95.0716C44.735 95.3689 45.2153 95.4163 45.4091 94.969C45.808 94.0484 45.8057 93.1453 45.8907 92.1739C45.9865 91.0796 46.0203 89.981 46.0542 88.8832C46.171 85.1072 46.4559 81.162 46.5785 77.3863C46.6432 75.3984 46.4238 73.3379 46.3188 71.3478C46.2485 70.0149 46.1675 68.6826 46.076 67.3509C45.9853 66.0319 45.773 64.6801 45.7699 63.3592C45.7644 60.9165 45.4397 58.4494 45.2877 55.9964C45.341 56.857 45.1637 57.7877 45.1332 58.6534C45.1008 59.5771 45.089 60.5015 45.0913 61.4256C45.096 63.277 45.1588 65.1277 45.231 66.9775C45.3752 70.6703 45.5615 74.3684 45.4051 78.0642C45.186 83.2392 45.2194 88.4644 45.4163 93.6469C45.4323 94.0716 45.4598 94.5254 45.7152 94.8651C46.0831 95.3541 46.7888 95.431 47.3957 95.3527C48.9878 95.1472 50.495 94.8169 51.989 94.1778C52.3241 94.0344 52.7715 93.8308 52.9393 93.4818C53.1356 93.0735 52.5143 93.2995 52.3501 93.3587C52.1523 93.4301 51.9623 93.5241 51.7852 93.6374C51.6693 93.7114 51.5609 93.7944 51.4559 93.8831C51.3638 93.9608 51.2607 94.0344 51.2068 94.1459C51.1562 94.2506 51.1655 94.3942 51.2595 94.463C51.3138 94.5026 51.3845 94.5106 51.4517 94.5118C51.87 94.5199 52.2393 94.2864 52.6007 94.1023C53.4532 93.6679 54.3055 93.2334 55.1581 92.7991C55.4371 92.657 55.7405 92.4879 55.843 92.1918C55.9349 91.9265 55.8373 91.6373 55.7458 91.3719C54.9557 89.0805 54.5813 86.6466 54.6464 84.2239C54.8026 78.4012 54.0558 73.4842 54.213 67.6617C54.2405 66.6429 54.311 65.5344 54.9862 64.7708C56.2416 68.1782 55.9262 71.9556 55.2817 75.5294C55.1381 76.3249 54.9407 77.1072 54.5079 77.7927C54.4697 77.8533 54.4143 77.9222 54.3436 77.9108C54.2557 77.8968 54.2374 77.7798 54.2409 77.691C54.3096 75.9946 54.624 74.3132 54.8723 72.636C55.1263 70.9197 55.4037 69.2068 55.7039 67.4978C55.938 66.1649 56.1863 64.8344 56.4484 63.5066C57.2035 59.682 58.0675 56.0082 59.2675 52.2991C59.3351 52.0904 59.4296 51.8545 59.6385 51.7873C59.8636 51.7149 60.0885 51.8781 60.2822 52.0137C61.1457 52.6193 62.2727 52.8341 63.2983 52.5881C64.1759 52.3778 64.4647 52.2232 65.2615 51.7997C65.7262 51.5528 66.1459 51.2306 66.5854 50.941C67.0249 50.6513 67.4951 50.3898 68.011 50.2858C68.2778 50.2321 68.5562 50.2246 68.8241 50.2752C68.9672 50.3023 69.4604 50.4024 69.2813 50.6178C69.1458 50.7805 68.6437 50.7471 68.4572 50.7437C67.868 50.7325 67.2805 50.5553 66.7918 50.2244C66.0062 49.6923 65.4945 48.7758 65.454 47.8277C64.8142 48.6704 63.7439 49.2344 62.6917 49.125C61.6394 49.0156 60.6661 48.3262 60.2134 47.3698C60.7068 47.752 61.2018 48.1354 61.7409 48.4497C62.0755 48.6448 62.4379 48.8156 62.8245 48.8374C63.4706 48.8738 64.0604 48.4942 64.5804 48.109C65.1305 47.7014 65.6895 47.2311 65.8986 46.5792C66.0906 45.9804 65.7095 45.8476 65.5378 45.2426C65.3255 44.4933 65.113 43.744 64.9005 42.9944C64.7083 42.3165 64.5096 41.6245 64.1071 41.0462C63.9869 40.8733 63.8407 40.7061 63.6445 40.6303C63.2601 40.482 62.8456 40.7257 62.5062 40.959C62.3974 41.0336 62.2912 40.9392 62.1887 40.9006C62.0614 40.8526 61.9235 40.83 61.7879 40.827C61.5127 40.8206 61.2353 40.8986 61.0021 41.0446C60.6088 41.2909 60.3419 41.7111 60.2266 42.1609C60.1113 42.6104 60.1378 43.0876 60.2411 43.5402C60.3554 44.0407 60.5632 44.5299 60.5528 45.0433C60.5404 45.6574 60.2185 46.2171 59.9059 46.7458C59.5661 47.3206 59.656 47.5039 59.8724 48.1354C59.9834 48.4595 60.1746 48.7489 60.3299 49.0542C60.4853 49.3595 60.6079 49.6988 60.5648 50.0385C60.5219 50.3784 60.2702 50.7107 59.9299 50.7488C59.6792 50.7766 59.4412 50.6481 59.1974 50.5834C58.8555 50.4927 58.4809 50.5305 58.1641 50.6881C57.8472 50.8458 57.591 51.1216 57.4572 51.4491C57.1244 52.2627 56.8458 52.6136 56.4586 53.4028C56.338 53.6483 56.142 53.9357 55.8723 53.8895C55.6024 53.8433 55.5119 53.5024 55.5081 53.2287C55.4961 52.362 55.7739 51.4938 56.2864 50.7947C56.5275 50.4658 56.8265 50.1587 56.928 49.7639C57.1336 48.9641 56.4604 48.0962 56.7665 47.3291C56.9619 46.8389 57.4999 46.565 57.7467 46.0986C57.9709 45.6753 57.921 45.1627 57.8281 44.6928C57.6546 43.8164 57.556 42.9932 57.7417 42.1108C58.0065 40.8514 58.6544 39.7479 59.5303 38.819C60.1986 38.1101 61.0625 37.5229 62.0332 37.4413C62.4395 37.4071 62.9135 37.5025 63.1096 37.8601C63.2385 38.095 63.2123 38.382 63.1678 38.6463C63.0506 39.3405 62.8306 40.0172 62.517 40.6476C62.3785 40.5694 62.3077 40.4041 62.301 40.2452C62.2943 40.0864 62.3411 39.9306 62.3874 39.7786C62.5406 39.276 62.6978 38.7649 62.9929 38.33C63.288 37.8953 63.7476 37.5408 64.2717 37.5027C64.6507 37.4753 65.0268 37.6148 65.3446 37.8231C65.6625 38.0312 65.9307 38.3054 66.1963 38.5773C66.8494 39.2459 67.3454 40.014 67.7263 40.8668C68.1507 41.8175 67.7912 43.0156 67.9937 44.0222C68.3106 45.5964 69.6353 46.7871 70.1269 48.3157C70.2481 48.6928 70.3158 49.1053 70.1966 49.483C70.1051 49.7726 69.9082 50.0273 69.8619 50.3273C69.7769 50.8783 70.2117 51.3608 70.6217 51.7387C71.2055 52.2769 71.4762 52.9673 71.8608 53.6359C72.2092 54.2416 72.1976 54.9043 72.2797 55.5855C72.5032 57.4383 72.8364 59.2836 72.8738 61.1494C72.8898 61.9536 72.8508 62.7589 72.7568 63.5579C72.7214 63.8587 72.6627 64.188 72.4286 64.3806C72.1892 64.5775 71.8465 64.5668 71.5374 64.5442C70.3664 64.4588 69.1973 64.351 68.0305 64.221C67.7161 65.2919 67.489 66.3577 67.3716 67.4677C67.2321 68.7888 67.2221 70.1713 66.6181 71.3545C66.3182 71.942 65.8856 72.449 65.4972 72.9822C65.1085 73.5151 64.7538 74.0978 64.6473 74.7487C64.5832 75.1409 64.7658 75.3972 65.0589 75.6653C65.1618 75.7594 65.2834 75.8357 65.365 75.9486C65.4475 76.0629 65.4823 76.2059 65.562 76.3222C65.6816 76.497 65.886 76.5907 66.0825 76.6697C66.2706 76.7453 66.4717 76.8163 66.6718 76.7846C66.9706 76.7374 67.1849 76.4787 67.3588 76.2313C67.8017 75.6012 68.1751 74.9222 68.4704 74.2109C68.6644 73.7433 68.8267 73.25 68.821 72.7436C68.818 72.4718 68.7564 72.1826 68.5617 71.9928C68.2908 71.729 67.8632 71.7402 67.4861 71.7685C67.4015 71.7748 67.3134 71.7823 67.24 71.8246C67.1664 71.8671 67.1121 71.9558 67.1373 72.037C67.1623 72.1181 67.251 72.159 67.3311 72.1875C67.793 72.3526 68.3024 72.4344 68.7749 72.3022C69.2473 72.17 69.6699 71.7884 69.7455 71.3035C70.0703 69.2225 70.7207 67.4057 70.8779 65.3053C70.8858 65.1987 70.8923 65.0879 70.8523 64.9886C70.8124 64.8896 70.7119 64.8062 70.6062 64.8222C70.4476 64.8462 70.3977 65.047 70.3839 65.2069C70.3601 65.4833 70.3363 65.7599 70.3125 66.0363C70.3125 66.8213 70.1751 67.6312 70.1075 68.4137C70.0378 69.2223 69.9682 70.031 69.8985 70.8395C69.7665 72.3718 69.6587 73.8883 69.6032 75.4236C69.5235 77.6242 69.8464 79.8344 69.3815 82.0082C69.328 82.2588 69.3223 82.3346 69.1747 82.5442C68.5957 82.3397 67.9738 82.2578 67.3616 82.3058C66.7477 82.354 66.0684 82.5153 65.561 82.1662C65.1817 81.9055 64.9759 81.3968 64.5344 81.2668C64.2969 81.1968 64.0244 81.2521 63.8098 81.1283C63.5875 80.9999 63.5041 80.7249 63.45 80.4741C63.1362 79.0196 63.2448 77.5404 63.3734 76.0741C63.4146 75.6026 63.4059 75.0917 63.5013 74.6283C63.675 73.7838 63.667 72.8853 63.7382 72.0209C63.8275 70.9378 63.7856 69.8437 63.8163 68.7536C63.8495 67.5737 63.8135 66.3931 63.7732 65.214C63.7555 64.6943 63.6605 64.1122 63.7559 63.5992C63.8432 63.1299 63.7581 62.7123 63.6475 62.2465C62.9721 67.7342 62.2864 73.2645 61.9707 78.7844C61.9417 79.2948 61.8784 79.8745 61.4668 80.1774C61.0377 80.493 60.4394 80.3563 59.9281 80.2062C58.9849 79.9292 58.0418 79.6522 57.0986 79.3753C57.0453 79.2561 56.9918 79.1367 56.9386 79.0175C56.844 78.806 57.0366 78.181 57.0644 77.943C57.1088 77.5659 57.1529 77.1885 57.1964 76.8112C57.2389 76.4435 57.3058 76.0688 57.3262 75.6996C57.3449 75.3612 57.2882 75.0085 57.2833 74.6651C57.2623 73.1656 57.5513 71.6859 57.7675 70.2084C58.0835 68.0478 58.2485 65.8649 58.2605 63.6813C57.8484 65.7192 57.5163 67.7262 57.244 69.7875C57.0769 71.0531 56.9628 72.3254 56.7814 73.5889C56.4962 75.5752 56.0437 77.5718 56.2536 79.5673C56.2961 79.9713 56.1409 80.2422 56.4076 80.5488C56.6742 80.8553 57.1189 80.994 57.5125 80.8937C57.4535 81.8528 57.4478 82.8151 57.4954 83.7749C57.6144 86.1804 58.7788 87.9209 58.4813 90.3109C58.4274 90.7431 58.2009 91.0456 57.8881 91.3291C57.7099 91.4906 57.5031 91.6062 57.2967 91.7329C57.1586 91.8177 57.0203 91.9025 56.8822 91.9874C56.7956 92.0404 56.5129 92.1491 56.556 92.2687C56.5894 92.3612 56.6896 92.3852 56.7722 92.4045C56.93 92.4416 57.0777 92.4568 57.2383 92.4234C58.4522 92.1714 59.418 91.2822 60.3175 90.4289C59.7158 91.2409 58.9954 91.9876 58.1043 92.4643C57.8088 92.6224 57.4875 92.7513 57.1523 92.7556C56.8173 92.7599 56.4657 92.6193 56.2861 92.3364C56.2632 92.3836 54.8943 93.4608 54.5508 94.236C54.5097 94.3287 54.4719 94.4339 54.5065 94.5291C54.5536 94.6591 54.7084 94.7085 54.8441 94.7357C55.8355 94.9353 56.9422 94.8409 57.7368 94.2152C58.4112 93.6841 58.8212 92.8105 59.6135 92.4806C59.6088 92.5223 59.6487 92.5587 59.6903 92.565C59.732 92.5713 59.7735 92.5559 59.8122 92.5394C60.1134 92.4119 60.3849 92.2144 60.5988 91.9668C60.5789 91.4528 60.634 90.8896 60.6143 90.3756C60.5807 89.5079 60.5473 88.6361 60.6446 87.773C60.7462 86.8705 60.9893 85.99 61.1284 85.0926C61.2211 84.495 61.2673 83.8905 61.2669 83.2858C61.2667 82.9796 61.2547 82.6735 61.2309 82.3682C61.2211 82.2449 61.1001 81.7185 61.265 81.6551C61.346 81.624 61.4088 81.7556 61.443 81.8101C61.5014 81.9034 61.5231 82.0143 61.543 82.1225C61.8751 83.921 61.974 85.7596 61.8892 87.5865C61.8229 89.0177 61.7381 90.4521 61.4379 91.8566C61.3923 92.0693 61.3279 92.2805 61.2886 92.4942C61.2626 92.636 61.2006 92.8461 61.3023 92.9745C61.3972 93.0945 61.6073 93.0642 61.7405 93.0717C62.2028 93.0977 62.6638 93.1453 63.1216 93.2147C63.1962 93.2261 63.2741 93.2393 63.3341 93.2849C63.3943 93.3304 63.4287 93.4191 63.3896 93.4838C63.3622 93.5294 63.3077 93.5503 63.2558 93.5623C62.7053 93.6902 62.1991 93.1586 61.634 93.1614C61.3635 93.1628 61.0625 93.3024 60.8675 93.4893C60.7031 93.6467 60.6411 93.9541 60.5126 94.1497C60.2136 94.6047 59.7772 95.0264 59.7076 95.5921C59.6838 95.7851 59.7143 95.9979 59.8484 96.139C59.9675 96.2647 60.1465 96.3123 60.3175 96.3402C60.7367 96.4083 61.1697 96.3908 61.5819 96.2887C62.0936 96.1622 62.5223 96.532 63.0234 96.3678C63.4578 96.2255 63.6803 95.7367 63.7352 95.2827C63.8271 94.5218 63.7966 93.7321 63.8515 92.9604C63.8787 92.5772 63.9017 92.1432 64.0329 91.7789C64.149 91.4563 64.1911 91.117 64.2853 90.7836C64.5391 89.8834 64.7707 88.9764 65.0251 88.0781C65.2852 87.1594 65.5256 86.2231 65.5553 85.2637C65.5771 84.5633 65.4219 83.7471 65.9438 83.1914C66.214 82.9036 66.694 82.776 67.0104 83.0122C67.1255 83.098 67.211 83.2601 67.1379 83.3838C67.0812 83.4798 66.9569 83.5081 66.8459 83.5197C65.885 83.621 64.9568 83.179 64.109 82.7152C62.6929 81.9407 61.3566 80.6808 59.7719 80.9873C58.9432 81.1476 58.0174 81.433 57.2044 81.2058C56.7964 81.0917 56.4281 80.8689 56.0332 80.7158C55.1758 80.383 54.19 80.3948 53.3408 80.7481C53.1103 80.8439 52.8547 80.9655 52.6235 80.8718C52.4514 80.802 52.3422 80.624 52.3054 80.442C52.2686 80.2599 52.2922 80.0718 52.316 79.8875C52.3994 79.2421 52.4827 78.5969 52.5663 77.9515C53.1842 73.1734 54.1516 68.9566 55.4369 64.3133C55.8013 62.9965 56.1072 61.727 56.4586 60.4066C56.7484 59.3173 56.9737 58.2161 56.9003 57.0892C56.507 57.7999 56.4041 58.6603 56.2386 59.4453C56.0547 60.3175 55.8709 61.1895 55.6868 62.0616C55.4869 63.0099 55.1428 63.4804 54.5844 64.2724C54.3916 64.5458 54.1475 64.8273 53.8156 64.8706C53.5252 64.9085 53.2472 64.7521 53.0064 64.5853C52.295 64.0928 51.6825 63.4586 51.2149 62.7304C51.0886 62.5337 50.9243 62.3033 50.6913 62.3194C50.5458 62.3293 50.4263 62.4384 50.3417 62.5569C50.0476 62.969 50.0496 63.5514 50.289 63.9972C50.5284 64.4431 50.9768 64.7551 51.4628 64.8961C51.9489 65.037 52.4701 65.0191 52.9664 64.9201C53.4217 64.8291 53.8805 64.6597 54.2002 64.3229C54.6254 63.8746 54.7322 63.2009 54.6535 62.5881C54.575 61.975 54.3364 61.3961 54.1534 60.806C53.9704 60.2158 53.8415 59.5832 53.9877 58.9827C55.1583 54.179 54.8467 49.6687 54.9844 44.7262C55.0332 42.9777 55.0116 41.227 54.8965 39.4814C54.8416 38.6491 54.7501 37.8379 54.721 37.006C54.6907 36.1405 54.6147 35.27 54.3779 34.4338C54.0475 33.2663 53.3617 32.1483 52.3003 31.5601C52.1407 31.4716 51.8936 31.4206 51.8147 31.5851C51.7488 31.722 51.8728 31.8703 51.9849 31.9728C52.7201 32.6451 53.4075 33.3698 54.0401 34.1393C54.3568 34.5243 54.6568 34.9215 54.9474 35.3263C55.0572 35.4791 55.1865 35.6975 55.4033 35.6054C55.8534 35.414 55.8314 34.7761 55.8101 34.3791C55.7794 33.8081 55.5849 33.2549 55.3354 32.7449C54.9718 32.0023 54.4896 31.3191 54.1721 30.5555C53.6051 29.1919 53.5994 27.6696 53.6025 26.1927C53.607 24.0124 52.8933 21.966 51.3416 20.4346C50.8444 19.9437 50.2977 19.3008 49.6087 19.0876C48.7645 18.8265 47.8673 18.5872 46.9773 18.7121C46.8748 18.7266 46.7668 18.7488 46.691 18.8193C46.5901 18.9137 46.5745 19.0654 46.5653 19.2034C46.5311 19.7153 46.5 20.2474 46.6908 20.7236C46.9615 21.3993 47.6312 21.8445 47.9393 22.5042C48.2819 23.2385 48.8613 23.4457 49.0436 24.2354C49.1475 24.6855 49.1247 25.194 49.4133 25.5546C49.5994 25.7873 49.9054 25.9429 49.9793 26.2315C49.998 26.3042 49.9953 26.3916 49.9392 26.4413C49.8686 26.5037 49.7484 26.4677 49.6935 26.391C49.6386 26.3143 49.6331 26.2134 49.6368 26.1193C49.6494 25.794 49.749 25.4724 49.9225 25.197C50.0781 24.9501 50.3522 24.7225 50.6343 24.7967C50.7999 24.8403 50.9266 24.9835 50.9847 25.1446C51.0429 25.3055 51.0411 25.4824 51.0185 25.6521C50.9565 26.1162 50.747 26.5466 50.5269 26.9599C50.3069 27.3733 50.071 27.7847 49.9484 28.2367C49.8257 28.6887 49.8286 29.1968 50.0694 29.5983C50.1519 29.7362 50.2988 29.871 50.4535 29.8281C50.6126 29.7842 50.6662 29.5873 50.6762 29.4225C50.7106 28.8516 50.5428 28.2705 50.2093 27.8059C50.123 27.6859 50.0256 27.5724 49.9606 27.4396C49.8957 27.3067 49.8662 27.1473 49.9239 27.0112C49.9107 27.6275 49.7452 28.3152 49.4113 28.8335C49.128 29.2728 48.7027 29.4766 48.2407 29.6746C48.019 29.7695 47.8416 29.8387 47.598 29.8847C47.3082 29.9396 47.016 29.9909 46.7203 29.997C46.3101 30.0055 45.8978 29.9416 45.5094 29.8094C44.7346 29.5456 44.0543 28.9968 43.7277 28.2349C43.6716 28.1041 43.6384 27.9245 43.7547 27.8425C43.8328 27.7876 43.9457 27.8108 44.0197 27.8712C44.0936 27.9316 44.1371 28.0207 44.1765 28.1075C44.5139 28.8514 44.7199 29.6469 44.9243 30.4379C45.0772 31.0298 45.231 31.6262 45.2684 32.2364C45.3058 32.8466 45.22 33.4788 44.9194 34.0111C44.751 34.3095 44.9162 34.2088 44.7905 34.5274C44.7567 34.6132 44.7106 34.709 44.6217 34.7328C44.4639 34.7751 44.3648 34.5688 44.3315 34.4088C43.8851 32.2594 43.1125 30.1782 42.0481 28.2585C41.2871 26.8859 41.2285 25.3919 41.4931 23.8448C41.6887 22.7011 42.0615 21.7778 42.6787 20.7952C43.2959 19.8125 44.2528 18.9821 45.3969 18.7898C45.6937 18.74 46.0422 18.752 46.2377 18.981C46.3556 19.1194 46.3912 19.3091 46.4028 19.4906C46.449 20.21 46.1826 20.9254 45.7677 21.515C45.3528 22.1047 44.797 22.5813 44.2158 23.0078C43.7537 23.3469 43.2321 23.7165 43.1241 24.2793C43.0511 24.6596 43.1884 25.0461 43.3332 25.4053C43.4777 25.7645 43.6352 26.1378 43.6034 26.5238C43.5715 26.9099 43.2764 27.3057 42.8892 27.3002C42.6488 27.2968 42.4302 27.1393 42.2984 26.9382C42.1666 26.737 42.1093 26.4966 42.071 26.2592C41.9633 25.5916 41.6755 24.9938 41.3174 24.427C40.9645 23.8684 40.7426 23.3339 40.2161 22.886C39.7532 22.4924 39.2188 22.1938 38.6882 21.8978C37.842 21.4257 36.8805 21.1251 35.9795 20.758C35.8795 20.7171 35.7648 20.6764 35.6671 20.7228C35.5618 20.7726 35.5224 20.9089 35.5443 21.0232C35.5661 21.1377 35.6346 21.2368 35.6964 21.3354C35.9724 21.775 36.1493 22.2867 36.1379 22.8058C36.1266 23.3247 35.9134 23.8487 35.516 24.1825C35.1707 24.4727 34.7197 24.6019 34.2771 24.6893C33.415 24.8598 32.53 24.9011 31.6526 24.8492C31.2128 24.8232 30.7568 24.7681 30.3832 24.5344C30.0007 24.2949 29.7442 23.8867 29.6212 23.4525C29.4981 23.0184 29.4977 22.5581 29.5425 22.109C29.5978 21.5527 29.7208 21.0031 29.9079 20.4763C29.9321 20.4081 29.9663 20.3314 30.0361 20.3115C30.139 20.282 30.2217 20.3939 30.2746 20.487C30.7466 21.3181 31.6142 21.922 32.5629 22.0384C33.5116 22.1547 34.5157 21.7656 35.1097 21.0169C35.7509 20.2088 35.8736 19.1183 35.9716 18.0914C36.0355 17.4215 36.0582 16.9667 36.3232 16.3484C36.3385 16.3126 36.361 16.2719 36.3997 16.2678C36.465 16.2609 36.4849 16.3539 36.479 16.4192C36.4243 17.0237 36.3531 17.6268 36.2657 18.2274C36.2585 18.276 36.2679 18.3454 36.3169 18.3458C36.3377 18.346 36.3554 18.3316 36.3706 18.3175C36.6421 18.0688 36.7902 17.7132 36.8863 17.3579C36.9825 17.0025 37.0352 16.635 37.1574 16.2878C37.2274 16.0888 37.3201 15.8964 37.3594 15.6892C37.3986 15.4819 37.3759 15.2494 37.2376 15.0903C37.0993 14.9313 36.8245 14.8865 36.6775 15.0377C36.8636 13.9612 36.939 12.7079 36.5333 11.6937C36.1298 10.6848 35.209 9.97576 34.2562 9.45363C34.138 9.38895 33.9749 9.3322 33.8834 9.43085C33.8187 9.50041 33.8307 9.60923 33.847 9.7028C33.9304 10.1849 34.014 10.6669 34.0973 11.1492C34.112 11.2344 34.1301 11.326 34.1933 11.3849C34.3147 11.4984 34.5073 11.4254 34.6686 11.3856C35.0583 11.2893 35.4837 11.4454 35.7684 11.7283C36.0531 12.0112 36.2085 12.4048 36.2651 12.8023C35.8396 12.1396 35.0029 11.7679 34.2261 11.8961C34.0559 11.9242 33.8864 11.9742 33.7142 11.9644C33.5419 11.9547 33.3587 11.8674 33.3003 11.7049C33.2464 11.5548 33.3115 11.3917 33.3567 11.2389C33.531 10.6498 33.3937 9.9778 33.002 9.50468C32.9522 9.44447 32.8857 9.38223 32.808 9.392C32.6683 9.40949 32.6634 9.61065 32.7032 9.74571C32.8078 10.1 32.9469 10.4464 33.0012 10.8118C33.0382 11.0601 33.0321 11.3215 32.9509 11.5609C32.9182 11.6573 32.8761 11.7419 32.7974 11.8084C32.7185 11.8753 32.6313 11.8705 32.5322 11.8723C32.3683 11.8753 32.2044 11.8794 32.0405 11.8833C31.891 11.8867 31.6882 11.9386 31.6087 11.7757C31.4985 11.5497 31.6624 11.2204 31.7374 11.0038C31.8747 10.6077 32.012 10.2119 32.1493 9.81589C32.18 9.7272 32.2015 9.60882 32.1234 9.55716C32.0384 9.50082 31.9341 9.58299 31.8448 9.63242C31.6299 9.75141 31.3236 9.69059 31.1615 9.87508C31.0507 10.0012 31.0584 10.1891 31.0726 10.3563C31.0985 10.6616 31.1243 10.9669 31.1501 11.2725C31.169 11.4958 31.1953 11.7759 31.0082 11.941C30.9028 12.034 30.7611 12.0759 30.6211 12.0895C30.4794 12.1034 30.332 12.0916 30.1988 12.1418C30.0529 12.1969 29.9423 12.321 29.8677 12.4579C29.6893 12.7856 29.696 13.1773 29.661 13.5487C29.6261 13.9202 29.5203 14.3257 29.2083 14.5302C29.1056 13.91 29.0029 13.29 28.9002 12.6698C28.8537 12.3885 28.8075 12.0969 28.8828 11.8219C28.9619 11.5326 29.1652 11.2967 29.3629 11.0713C29.6936 10.6942 30.0259 10.3157 30.4092 9.99244C30.4963 9.91901 30.6144 9.84498 30.7159 9.89664C30.7767 9.92776 30.8099 9.99793 30.8137 10.0661C30.8176 10.1342 30.7969 10.2013 30.7741 10.2656C30.6502 10.6132 30.4532 10.9348 30.1994 11.2027C29.9669 11.4482 29.6863 11.6512 29.4945 11.9297C29.1803 12.3859 29.149 12.9784 29.1961 13.5302C29.2433 14.0821 29.3582 14.6349 29.2954 15.1853C29.2289 15.0012 29.0922 14.8609 28.9332 14.7472C28.8921 14.7179 28.8439 14.6907 28.7941 14.6988C28.7146 14.7118 28.6773 14.8029 28.6605 14.8816C28.487 15.6926 28.9562 16.5229 28.8559 17.3461C28.8396 17.4791 28.8085 17.6113 28.814 17.7452C28.8195 17.879 28.8689 18.02 28.9798 18.095C29.0906 18.1703 29.2683 18.1485 29.3283 18.0287C29.4017 18.6135 29.4562 19.2737 29.4127 19.8616C29.3594 20.5808 29.1095 21.0844 28.5618 21.551C28.0676 21.9719 27.4319 22.2031 26.8074 22.3484C25.7942 22.5839 24.7446 22.6816 23.8095 23.1744C23.1199 23.5379 22.6367 24.1912 22.1992 24.8364C21.1478 26.3867 20.2172 28.0152 19.2878 29.6418C19.83 30.5187 20.8676 30.9664 21.4425 31.8223C20.6908 31.5172 19.9786 31.1151 19.3293 30.6291C19.2298 30.5547 19.0989 30.4754 18.9913 30.5374C18.9374 30.5685 18.9071 30.6279 18.88 30.684C18.6388 31.1856 18.3909 31.7025 18.2211 32.2328C18.0468 32.7769 17.7473 33.2972 17.4953 33.815C17.1341 34.5575 16.7709 35.305 16.5527 36.1013C16.2145 37.3357 16.2377 38.6402 16.3521 39.9149C16.381 40.2363 16.4219 40.5741 16.6137 40.8335C16.8055 41.0926 17.1235 41.2332 17.4418 41.2832C17.7601 41.3332 18.0847 41.3037 18.4064 41.285C19.1446 41.2419 19.8863 41.2559 20.6223 41.3269C20.8875 41.3525 21.1681 41.392 21.3727 41.5625C21.5773 41.7329 21.6566 42.0799 21.4642 42.2642C21.3323 42.3647 21.1275 42.2945 21.0309 42.1599C20.9343 42.0252 20.9186 41.8499 20.9143 41.6841C20.8966 41.0078 21.0113 40.3282 21.2499 39.6952C20.8102 39.7882 20.3148 39.4361 20.1263 39.0281C19.978 38.7071 19.9341 38.3249 20.0718 37.999C20.2095 37.6732 20.5515 37.4263 20.9036 37.4598C21.2556 37.4934 21.5598 37.8532 21.4817 38.1982C21.1657 38.1256 20.9168 37.8678 20.7797 37.5739C20.6426 37.28 20.6018 36.9513 20.5751 36.6281C20.4954 35.6617 20.5434 34.6305 21.0685 33.8152C21.1661 33.6639 21.2816 33.5197 21.4331 33.4223C21.5846 33.325 21.7772 33.2797 21.9487 33.3348C22.2543 33.4332 22.3829 33.7921 22.4351 34.1092C22.5992 35.1058 22.4174 36.1562 21.9279 37.0396C21.8893 37.1094 21.8273 37.1885 21.7492 37.1724C21.6741 37.1569 21.6465 37.0656 21.6363 36.9898C21.5041 35.9925 22.0011 34.939 22.8549 34.4071C24.0901 33.6375 25.6675 34.1389 26.9688 34.7906C27.1578 34.8851 27.3463 34.9929 27.4819 35.1549C27.6176 35.3168 27.6924 35.5442 27.6247 35.7443C27.1903 35.4046 27.1738 34.7485 26.848 34.3034C26.4452 33.753 25.6705 33.6444 24.9894 33.6775C24.3084 33.7107 23.597 33.8337 22.9647 33.5783C22.6918 33.468 22.4148 33.2052 22.5006 32.9237C22.5576 32.7372 22.7508 32.6314 22.9316 32.558C24.4784 31.9299 26.3898 32.3406 27.5423 33.5486C28.6948 34.7566 29.0155 36.6855 28.3158 38.2014C28.3168 37.5766 28.3115 36.9236 28.0231 36.3694C28.3373 38.2854 27.7351 40.3313 26.4332 41.7716C25.9298 42.3283 25.9109 42.4377 25.1808 42.6114C24.4509 42.7851 23.6696 42.6511 22.9887 42.3354C22.5553 42.1344 22.1337 41.8356 21.9554 41.3924C22.1356 41.4626 22.268 41.6255 22.3408 41.8047C22.4136 41.9839 22.4337 42.1798 22.4449 42.3728C22.4937 43.2275 22.3757 44.0912 22.1 44.9015C22.5482 44.9257 23.0145 45.013 23.3194 45.3425C23.5829 45.6273 23.6275 46.0455 23.659 46.4323C23.729 47.2925 23.7987 48.1529 23.8687 49.0131C24.0946 47.7813 24.2207 46.5312 24.2455 45.279C24.7377 45.3911 25.2683 45.3264 25.7189 45.0994C26.1698 44.8724 26.5375 44.4846 26.7405 44.0224C27.3733 45.1503 28.68 45.9259 29.9618 46.0967C30.035 46.1065 30.1115 46.1154 30.1725 46.1569C30.2335 46.1984 30.2718 46.2843 30.235 46.3481C30.1979 46.4122 30.1111 46.4224 30.0371 46.423C29.0723 46.4311 28.1095 46.0516 27.4099 45.3871C26.7102 44.7225 26.2815 43.7806 26.2398 42.8164C24.7995 43.3254 23.0768 43.3369 21.6507 42.7896C21.7026 43.2892 21.6404 43.9156 21.5653 44.4121C21.4903 44.9086 21.2731 45.4029 20.8765 45.7109C20.5125 45.9934 20.0317 46.092 19.5713 46.0717C18.7686 46.0363 17.9876 45.6501 17.4725 45.0335C16.9574 44.417 16.7158 43.5798 16.8234 42.7835C16.8427 42.6401 16.875 42.493 16.9608 42.3765C17.0467 42.2599 17.1978 42.181 17.3375 42.2186C17.4591 42.2514 17.5441 42.3608 17.6033 42.4719C17.8467 42.9283 17.7989 43.4976 17.5907 43.9712C17.3824 44.4447 17.0312 44.8395 16.6706 45.2101C16.3098 45.5809 15.9306 45.9401 15.6463 46.3723C14.4273 48.2247 13.9081 50.3629 13.6835 52.5416C13.4261 55.0391 13.0976 57.4788 13.131 60.0016C13.1566 61.9427 13.3158 63.8819 13.6091 65.801C14.735 65.9961 15.887 65.7744 16.85 65.1595C16.1197 62.3556 16.1976 59.2313 16.7686 56.3908C16.9657 55.4108 17.2409 54.4314 17.2089 53.4323C17.2035 53.2632 17.1589 53.0554 16.9958 53.0112C16.8742 52.9783 16.7459 53.0655 16.6891 53.1782C16.6326 53.2909 16.6302 53.4221 16.6295 53.548C16.6082 57.275 16.9281 61.0037 17.5838 64.6725C18.4865 64.8218 19.4592 64.9095 20.362 65.0588C20.8236 65.1353 21.3518 65.2583 21.5615 65.6769C21.7012 65.956 21.6534 66.2882 21.6023 66.5959C21.4571 67.4714 21.3121 68.347 21.1669 69.2225C20.6931 69.3315 20.218 68.9424 20.0624 68.4817C19.9068 68.021 19.99 67.5171 20.0895 67.041C20.2154 66.4389 20.3744 65.8218 20.7533 65.3375C21.2208 64.7401 21.9525 64.4284 22.6243 64.0762C23.0621 63.8465 23.4857 63.5898 23.8927 63.3089C24.6903 62.7579 25.423 62.1127 26.0704 61.3908C26.3225 61.1095 26.6367 60.8191 26.7205 60.4393C26.7659 60.2337 26.8548 59.9983 26.7531 59.798C26.6664 59.6271 26.4523 59.4809 26.2615 59.5748C26.0704 59.6692 26.027 59.9188 26.0169 60.1318C25.9524 61.4763 26.2589 62.8134 26.6794 64.092C27.1 65.3706 27.6359 66.6091 28.0522 67.8894C28.2989 68.6478 28.1215 69.1185 28.1911 69.913C28.2608 70.7075 28.4239 71.5341 28.932 72.149C29.044 72.2847 29.1809 72.413 29.3527 72.4515C29.6108 72.5093 29.8648 72.3508 30.069 72.1828C31.1983 71.2536 31.8452 69.7674 31.7557 68.3076C31.7415 68.0761 31.6775 67.8023 31.4598 67.7228C31.2284 67.6382 30.9937 67.8328 30.8379 68.0238C30.1674 68.8458 29.8166 69.8908 29.6708 70.9416C29.525 71.9924 29.5718 73.0593 29.6189 74.119C29.7705 77.5325 29.7306 80.4381 29.8323 83.8535C29.9083 86.4043 29.827 88.1821 29.862 90.734C30.8776 91.0185 31.9223 91.199 32.9745 91.272C33.1482 91.284 33.9552 91.2952 33.7921 90.9286C33.6918 90.7033 33.2346 90.9168 33.063 90.9579C32.7641 91.0293 32.4663 91.1058 32.17 91.1872C31.5662 91.3529 30.9681 91.5393 30.3771 91.7459C30.2834 93.0198 29.8366 94.2704 29.2822 95.421C29.1305 95.7361 28.958 96.0631 28.9777 96.4124C28.9985 96.7763 29.2334 97.1031 29.5333 97.3102C29.8333 97.5171 30.1927 97.6196 30.5502 97.6902C31.1123 97.8014 31.7354 97.8319 32.2182 97.5232C32.5037 97.3405 32.7116 97.0541 32.8515 96.7454C32.9914 96.4366 33.0691 96.1036 33.1403 95.7723C33.4758 94.2132 33.6981 92.61 34.3465 91.153C35.0314 91.0366 35.7847 90.9836 36.4696 90.8672C37.082 88.0061 36.8573 85.0438 36.5699 82.1319C36.2827 79.2199 35.8726 76.3044 35.9984 73.381C36.528 74.4129 36.5557 75.8249 36.5984 76.9841C36.6411 78.1433 36.5608 79.3048 36.6183 80.4633C36.6942 81.9925 37.0092 83.5001 37.1402 85.0257C37.3073 86.9731 37.1725 88.944 36.7682 90.8562C37.5528 91.1384 38.4155 91.4233 39.2434 91.5212C39.7012 91.5753 40.1697 91.5683 40.6222 91.475C40.7314 91.4524 41.716 91.1831 41.2543 90.9396C41.1974 90.9095 41.0367 90.9447 40.9722 90.9463C40.7123 90.9522 40.4614 90.9856 40.2141 91.0696C39.728 91.2348 39.2922 91.5618 39.0299 92.0067C39.2469 92.4751 39.064 92.9694 39.0679 93.4856C39.0724 94.069 39.2851 94.631 39.5423 95.1548C39.7996 95.6783 40.1047 96.1799 40.3156 96.7238C40.474 97.1324 40.6115 97.6041 40.9968 97.8128C41.2797 97.966 41.623 97.932 41.9425 97.894C42.3118 97.8498 42.6885 97.8037 43.0248 97.6448C43.3612 97.486 43.6561 97.192 43.7163 96.8251C43.7623 96.5456 43.6695 96.2637 43.5713 95.9981C42.9044 94.1949 41.9108 92.4861 41.6257 90.5847C41.8876 90.4224 42.321 90.5831 42.4788 90.3186C42.5244 90.2424 42.5296 90.1498 42.5339 90.0611C42.5551 89.6159 42.5762 89.1708 42.5974 88.7256C42.7202 86.1438 42.7304 83.5573 42.6496 80.9741C42.5689 78.3947 42.3977 75.8188 42.1678 73.2486C42.0564 72.0024 41.9734 70.738 41.7398 69.5143C41.4992 68.2536 41.198 67.0048 40.8372 65.7729C40.8299 65.7483 40.8228 65.7237 40.8154 65.6991C39.9241 66.3313 38.7159 66.7013 37.6319 66.8392C36.5479 66.9771 35.4502 66.9352 34.3585 66.8872C33.7945 66.8624 33.2279 66.8357 32.675 66.7222C32.4291 66.6718 32.1869 66.604 31.9504 66.52C31.6018 66.3962 31.3844 66.1726 31.2479 65.8289C31.2022 65.7136 31.1873 65.5545 31.2941 65.4914C31.3582 65.4536 31.444 65.4711 31.5023 65.5171C31.5607 65.5632 31.5959 65.6326 31.6207 65.7028C31.7234 65.9916 31.6774 66.3166 31.5595 66.5996C31.4413 66.8825 31.2563 67.1313 31.0728 67.377C30.2134 66.6541 29.6562 65.5287 29.3755 64.4411C29.2569 63.9818 29.1593 63.5176 29.0491 63.0563C28.9139 62.4894 28.8486 61.9166 28.659 61.3585C28.5917 61.1606 28.292 60.5528 28.0278 60.8361C27.8938 60.9799 28.0369 61.2405 28.2307 61.2728C28.4246 61.3052 28.6115 61.1838 28.7483 61.0426C29.0326 60.7493 29.1917 60.36 29.344 59.981C29.6137 59.3108 29.8707 58.665 30.2451 58.0436C30.6134 57.4324 31.0155 56.8248 31.2093 56.1304C31.2955 55.8212 31.3378 55.4899 31.2546 55.1799C31.2056 54.9975 31.081 54.8042 30.8924 54.7938C30.782 54.7877 30.6761 54.8496 30.6055 54.9348C30.3915 55.1931 30.5158 55.6268 30.8042 55.7983C31.0926 55.9697 31.4749 55.9134 31.7582 55.7338C33.1488 54.8524 32.8186 52.7283 32.5568 51.3968C32.5609 51.4176 32.8196 51.2678 32.8466 51.2418C32.9481 51.1442 33.0201 50.9878 33.0762 50.8608C33.198 50.5852 33.2548 50.2832 33.2755 49.9838C33.3091 49.4997 33.256 49.0133 33.2755 48.5282C33.3009 47.8916 33.4543 47.2637 33.7185 46.6842C33.9511 46.1738 33.9932 45.6252 34.5112 45.2801C34.8539 45.0516 35.2875 45.016 35.6993 45.0183C36.5158 45.0228 37.3486 45.1558 38.0651 45.5475C38.2571 45.6525 38.4653 45.8421 38.3978 46.0501C38.3622 46.16 38.2538 46.2338 38.1413 46.2601C38.0289 46.2863 37.9113 46.2727 37.7968 46.2578C36.54 46.0949 35.3029 45.781 34.1203 45.3254C33.8468 45.2201 33.5743 45.1062 33.329 44.9455C33.2346 44.8836 33.1417 44.8116 33.0907 44.7111C33.0396 44.6107 33.0421 44.475 33.1238 44.3975C33.2346 44.2921 33.3931 44.3448 33.4958 44.429C33.6406 44.5478 33.6198 44.6755 33.618 44.8521C33.6117 45.4523 33.5234 45.9847 33.3359 46.5617C33.1411 47.1615 32.905 47.7541 32.8133 48.3816C32.7287 48.9598 32.7708 49.5479 32.7811 50.1322C32.7872 50.4768 32.7561 50.8753 32.4759 51.076C32.191 51.2803 31.7679 51.1615 31.5292 50.9048C31.2904 50.6481 31.1932 50.2935 31.1159 49.9516C30.7761 48.4464 30.6693 46.8688 30.9951 45.3606C31.1261 44.7543 31.2587 44.3359 31.5451 43.7855C31.8314 43.2353 32.2593 42.7373 32.8251 42.4833C32.989 42.4096 33.1622 42.3572 33.3241 42.2793C33.5584 42.1666 33.764 42.0032 33.9843 41.8651C34.9981 41.2297 36.3206 41.1691 37.435 41.6042C38.5495 42.039 39.4545 42.934 40.0115 43.9931C40.5686 45.0523 40.7933 46.2658 40.7776 47.4624C40.7672 48.2459 40.6556 49.0278 40.4486 49.7834C40.2983 50.332 40.0914 50.8604 39.8539 51.3763C39.8094 51.4729 39.7677 51.5746 39.7128 51.6657C39.692 51.7001 39.616 51.7574 39.6357 51.8059C39.4742 51.4068 39.1397 51.0815 38.7362 50.9316C38.6252 50.8903 38.5044 50.8588 38.421 50.7748C38.2994 50.6521 38.2945 50.4569 38.3201 50.286C38.3508 50.0812 38.3681 49.9333 38.3209 49.7356C38.2745 49.5416 38.3144 49.3024 38.3175 49.1032C38.3244 48.6511 38.338 48.1985 38.338 47.7463C38.3415 47.5169 38.3476 47.2844 38.3966 47.0594C38.4173 46.9642 38.4444 46.7873 38.5155 46.7149C38.6841 46.543 38.7083 46.8518 38.7124 46.9518C38.7224 47.1894 38.7053 47.428 38.6736 47.6633C38.6093 48.1409 38.4793 48.6069 38.3423 49.0678C38.046 50.0643 37.6976 51.0889 36.9748 51.8362C36.5774 52.247 36.0438 52.567 35.4723 52.5578C34.6336 52.5446 33.9786 51.8614 33.4274 51.229C33.1826 51.5518 32.6593 51.6635 32.268 51.5579C32.0281 51.4932 31.8196 51.3439 31.5857 51.2601C31.1523 51.1047 30.6555 51.1897 30.2577 51.4214C29.8599 51.6531 29.5531 52.0184 29.3241 52.4179C29.0951 52.8174 28.9377 53.2531 28.7815 53.6861C28.0676 55.6652 27.1425 57.3193 26.2032 59.2018C25.8115 59.9867 25.7826 60.6561 25.8662 61.5293C25.9847 62.7668 26.2568 63.9895 26.6746 65.1603C25.1631 65.4263 23.6372 65.2337 22.1065 65.3413C20.4903 65.455 18.8898 65.7235 17.2919 65.9918C16.3074 66.1572 15.3036 66.3286 14.4205 66.794C14.1336 67.6567 14.326 68.636 14.7628 69.4334C15.1997 70.2307 15.9786 70.8328 16.86 71.0549C17.1276 71.1224 17.4282 71.1515 17.6649 71.01C17.9053 70.8662 18.0202 70.584 18.1091 70.3184C18.2132 70.0066 18.3041 69.6832 18.289 69.3547C18.2732 69.0046 18.1387 68.6723 18.0059 68.348C17.7259 67.664 17.4461 66.9799 17.166 66.2959C17.0753 66.0742 16.9582 65.8272 16.7294 65.7557C16.5803 65.7091 16.4195 65.751 16.2696 65.7947C15.7847 65.9365 15.3064 66.1002 14.8362 66.2849C14.6135 66.3724 14.3819 66.4729 14.2377 66.6638C14.0392 66.9271 14.0573 67.2889 14.0852 67.6176C14.244 69.4857 14.4301 71.368 14.2147 73.2303C13.9864 75.206 14.33 77.0091 14.4144 78.996C14.4285 79.3257 14.4502 79.6784 14.6495 79.9414C14.9357 80.3193 15.4718 80.3763 15.945 80.4015C15.4063 83.0553 15.2733 85.8865 15.5938 88.5753C15.7164 89.6039 15.7396 90.318 15.8596 91.3468C15.8879 91.5893 15.9141 91.8458 15.8136 92.0681C15.7433 92.2241 15.6153 92.35 15.5545 92.5099C15.5289 92.5772 15.5163 92.6535 15.5429 92.7204C15.6021 92.8697 15.8033 92.8864 15.9639 92.8803C16.1244 92.8742 16.3267 92.8968 16.3792 93.0487C16.4963 93.3884 16.776 93.4936 16.8162 93.8507C16.8451 94.1066 16.7569 94.3733 16.5813 94.5616C16.5279 94.6192 16.4662 94.67 16.4221 94.7349C16.378 94.7998 16.353 94.8848 16.3827 94.9577C16.4209 95.0514 16.5313 95.0903 16.6304 95.1112C16.9086 95.17 17.1986 95.1724 17.4776 95.1179C17.6568 95.0829 17.8595 94.9955 17.8955 94.8165C17.9272 94.6591 17.8046 94.5045 17.6576 94.44C17.5105 94.3755 17.3444 94.3775 17.1839 94.3712C16.8449 94.358 16.5075 94.3025 16.1821 94.2065C16.0764 94.1754 15.9682 94.1377 15.8885 94.0617C15.8087 93.9856 15.7648 93.8611 15.813 93.7618C15.8561 93.673 15.9605 93.6278 16.0591 93.625C16.1577 93.6221 16.2537 93.6534 16.3487 93.6803C16.9051 93.8381 17.5894 93.8888 18.1471 93.7029C18.3503 93.6351 18.3751 93.4132 18.2244 93.2647C18.0818 93.1242 17.8524 93.1171 17.6682 93.1221C17.2134 93.1348 16.7585 93.1474 16.3037 93.16C16.0255 93.1677 15.7272 93.1821 15.5049 93.3495C15.2802 93.5186 15.1842 93.8054 15.1043 94.0751C14.8167 95.0449 14.578 96.0851 14.8584 97.0572C14.9528 97.3845 15.1191 97.7111 15.4087 97.8905C15.7833 98.1226 16.26 98.0559 16.7007 98.0478C16.9922 98.0423 17.2842 98.0663 17.5746 98.0412C17.865 98.0162 18.1605 97.9373 18.3854 97.752C18.6699 97.5173 18.8032 97.1461 18.8747 96.7842C19.156 95.364 18.6817 93.9183 18.5091 92.481C18.3838 91.4392 18.4184 90.378 18.6112 89.3466C19.0816 86.829 19.6482 84.4136 19.6886 81.8528C19.6949 81.4612 19.8228 81.0853 19.8092 80.6907C19.7984 80.3747 19.6945 80.0488 19.4625 79.8338C19.2286 79.6172 18.9006 79.5403 18.5868 79.4842C17.4776 79.2858 16.3404 79.245 15.2196 79.3631C15.1319 79.3723 15.0347 79.3877 14.9808 79.4575C14.9111 79.5476 14.955 79.688 15.0437 79.7596C15.1323 79.8312 15.2507 79.8515 15.3634 79.868C16.8408 80.0838 18.3419 80.0553 19.8348 80.0264C19.9819 80.0236 20.1452 80.014 20.2477 79.9087C20.3433 79.8104 20.3549 79.6601 20.361 79.523C20.3858 78.9669 20.4106 78.4108 20.4354 77.8549C20.4866 76.7049 20.5056 75.4755 20.5104 74.3244C20.5151 73.202 20.5208 72.0713 20.7402 70.9705C20.6735 73.7516 20.7234 76.5354 20.8891 79.3123C20.8981 79.4634 20.9088 79.6196 20.9792 79.7537C21.0496 79.8877 21.1966 79.9939 21.3457 79.9678C21.3123 81.4594 21.3436 83.0295 21.3103 84.521C21.28 85.8775 21.3831 87.2338 21.5633 88.5777C21.6658 89.3413 21.8281 90.0925 21.8836 90.8625C21.942 91.6725 21.922 92.4879 21.8232 93.2938C21.8923 93.316 21.9666 93.3292 22.0394 93.3288C22.0933 93.3286 22.1378 93.3026 22.1897 93.3019C22.2993 93.3007 22.4231 93.3961 22.4453 93.5027C22.4687 93.6146 22.4933 93.7035 22.5561 93.8037C22.6843 94.008 22.8791 94.1573 23.0985 94.2525C23.2399 94.3139 23.418 94.3812 23.4349 94.5344C23.4522 94.6912 23.2793 94.7996 23.1256 94.8344C23.0237 94.8574 22.9159 94.8663 22.8152 94.8378C22.7146 94.8094 22.622 94.7388 22.587 94.6403C22.5476 94.5299 22.5864 94.4032 22.6588 94.3108C22.7312 94.2185 22.8329 94.1542 22.9342 94.0952C23.0997 93.9986 23.2704 93.9103 23.4451 93.8312C23.5496 93.7838 23.6753 93.7067 23.6578 93.5932C23.6405 93.4801 23.4977 93.4435 23.3836 93.4362C23.0227 93.413 22.659 93.4283 22.3013 93.4818C22.2165 93.4944 22.1278 93.511 22.0609 93.5649C21.9684 93.6394 21.9397 93.7657 21.9139 93.8816C21.8006 94.3902 21.6339 94.8867 21.4175 95.3606C21.2176 95.7985 21.1458 96.1779 21.1419 96.6553C21.1391 96.9917 21.3245 97.4605 21.6259 97.6363C21.7929 97.7337 21.9948 97.7443 22.1878 97.7522C22.6385 97.7711 23.0894 97.7898 23.54 97.8088C23.7896 97.8191 24.0468 97.8285 24.2805 97.7402C24.5209 97.6495 24.7163 97.4601 24.8465 97.2384C24.9766 97.0167 25.0462 96.7641 25.085 96.51C25.1749 95.9226 25.1056 95.3118 24.8863 94.7595C24.7234 94.3493 24.4814 93.975 24.3 93.5725C24.1186 93.1699 23.9982 92.7176 24.0983 92.2876C24.6569 89.8876 25.3039 87.446 25.4779 84.9811C25.5251 84.3172 25.5446 83.6529 25.5794 82.9886C25.6148 82.3121 25.4238 81.6506 25.4971 80.9712C25.5219 80.7406 25.5727 80.5099 25.5501 80.2791C25.5276 80.0482 25.4131 79.8084 25.2005 79.7156C24.6179 79.4616 23.9897 79.3292 23.3568 79.2901C23.0357 79.2704 22.7135 79.2738 22.3926 79.2952C22.1949 79.3082 21.993 79.2875 21.7982 79.3328C21.5881 79.3816 21.4949 79.5523 21.7052 79.6953C21.9127 79.8364 22.3048 79.7994 22.5443 79.8013C22.8691 79.8035 23.1935 79.7811 23.5179 79.7683C24.5268 79.7282 25.5326 79.6097 26.5233 79.4136C26.553 79.4077 26.5826 79.4018 26.6123 79.3957C26.6713 76.7026 26.7844 73.8826 26.9668 71.1953C27.0748 69.603 27.1824 68.0523 27.2538 66.4582" stroke="#8A6D18" stroke-width="0.75" stroke-miterlimit="10" stroke-linecap="round" stroke-linejoin="round"/>
<g id="Group">
<path id="Vector_3" d="M74.8574 39.9389L75.4107 38.617L76.8375 38.4996L75.7523 37.5655L76.0814 36.1707L74.8574 36.9144L73.6334 36.1707L73.9625 37.5655L72.8773 38.4996L74.3041 38.617L74.8574 39.9389Z" fill="#9E7D1B"/>
<g id="Group_2">
<path id="Vector_4" d="M74.8574 78.5009C74.7702 78.5009 74.699 78.4298 74.699 78.3426V75.0744C74.699 74.9872 74.7702 74.916 74.8574 74.916C74.9446 74.916 75.0157 74.9872 75.0157 75.0744V78.3426C75.0157 78.4298 74.9446 78.5009 74.8574 78.5009Z" fill="#9E7D1B"/>
<path id="Vector_5" d="M74.8574 74.1813C74.7702 74.1813 74.699 74.1101 74.699 74.0229V69.9506C74.699 69.8634 74.7702 69.7922 74.8574 69.7922C74.9446 69.7922 75.0157 69.8634 75.0157 69.9506V74.0229C75.0157 74.1101 74.9446 74.1813 74.8574 74.1813Z" fill="#9E7D1B"/>
<path id="Vector_6" d="M74.8574 68.1163C74.7702 68.1163 74.699 68.0452 74.699 67.958V46.4166C74.699 46.3294 74.7702 46.2582 74.8574 46.2582C74.9446 46.2582 75.0157 46.3294 75.0157 46.4166V67.958C75.0157 68.0452 74.9446 68.1163 74.8574 68.1163Z" fill="#9E7D1B"/>
<path id="Vector_7" d="M74.8574 45.2886C74.7702 45.2886 74.6991 45.2175 74.6991 45.1303V40.9227C74.6991 40.8355 74.7702 40.7644 74.8574 40.7644C74.9446 40.7644 75.0157 40.8355 75.0157 40.9227V45.1303C75.0157 45.2175 74.9446 45.2886 74.8574 45.2886Z" fill="#9E7D1B"/>
</g>
</g>
<path id="Vector_8" d="M66.6544 26.7576C63.4253 27.181 63.0873 27.5226 62.671 30.7517C62.2476 27.5226 61.906 27.1846 58.6769 26.7682C61.906 26.3448 62.244 26.0032 62.6603 22.7742C63.0837 26.0032 63.4253 26.3413 66.6544 26.7576Z" fill="#9E7D1B"/>
<g id="Group_3">
<path id="Vector_9" d="M7.87457 91.3478C7.7874 91.3478 7.71623 91.2766 7.71623 91.1894V90.2376C7.71623 90.1504 7.7874 90.0793 7.87457 90.0793C7.96175 90.0793 8.03291 90.1504 8.03291 90.2376V91.1894C8.03291 91.2766 7.96175 91.3478 7.87457 91.3478ZM7.87457 89.4441C7.7874 89.4441 7.71623 89.3729 7.71623 89.2858V88.334C7.71623 88.2468 7.7874 88.1756 7.87457 88.1756C7.96175 88.1756 8.03291 88.2468 8.03291 88.334V89.2858C8.03291 89.3729 7.96175 89.4441 7.87457 89.4441ZM7.87457 87.5422C7.7874 87.5422 7.71623 87.4711 7.71623 87.3839V86.4321C7.71623 86.3449 7.7874 86.2737 7.87457 86.2737C7.96175 86.2737 8.03291 86.3449 8.03291 86.4321V87.3839C8.03291 87.4711 7.96175 87.5422 7.87457 87.5422ZM7.87457 85.6404C7.7874 85.6404 7.71623 85.5692 7.71623 85.482V84.5302C7.71623 84.4431 7.7874 84.3719 7.87457 84.3719C7.96175 84.3719 8.03291 84.4431 8.03291 84.5302V85.482C8.03291 85.5692 7.96175 85.6404 7.87457 85.6404ZM7.87457 83.7385C7.7874 83.7385 7.71623 83.6674 7.71623 83.5802V82.6284C7.71623 82.5412 7.7874 82.47 7.87457 82.47C7.96175 82.47 8.03291 82.5412 8.03291 82.6284V83.5802C8.03291 83.6674 7.96175 83.7385 7.87457 83.7385ZM7.87457 81.8349C7.7874 81.8349 7.71623 81.7637 7.71623 81.6765V80.7247C7.71623 80.6375 7.7874 80.5664 7.87457 80.5664C7.96175 80.5664 8.03291 80.6375 8.03291 80.7247V81.6765C8.03291 81.7637 7.96175 81.8349 7.87457 81.8349ZM7.87457 79.933C7.7874 79.933 7.71623 79.8619 7.71623 79.7747V78.8229C7.71623 78.7357 7.7874 78.6645 7.87457 78.6645C7.96175 78.6645 8.03291 78.7357 8.03291 78.8229V79.7747C8.03291 79.8619 7.96175 79.933 7.87457 79.933ZM7.87457 78.0312C7.7874 78.0312 7.71623 77.96 7.71623 77.8728V76.921C7.71623 76.8338 7.7874 76.7627 7.87457 76.7627C7.96175 76.7627 8.03291 76.8338 8.03291 76.921V77.8728C8.03291 77.96 7.96175 78.0312 7.87457 78.0312ZM7.87457 76.1293C7.7874 76.1293 7.71623 76.0581 7.71623 75.9709V75.0191C7.71623 74.932 7.7874 74.8608 7.87457 74.8608C7.96175 74.8608 8.03291 74.932 8.03291 75.0191V75.9709C8.03291 76.0581 7.96175 76.1293 7.87457 76.1293ZM7.87457 74.2256C7.7874 74.2256 7.71623 74.1545 7.71623 74.0673V73.1155C7.71623 73.0283 7.7874 72.9571 7.87457 72.9571C7.96175 72.9571 8.03291 73.0283 8.03291 73.1155V74.0673C8.03291 74.1545 7.96175 74.2256 7.87457 74.2256ZM7.87457 72.3238C7.7874 72.3238 7.71623 72.2526 7.71623 72.1655V71.2136C7.71623 71.1264 7.7874 71.0553 7.87457 71.0553C7.96175 71.0553 8.03291 71.1264 8.03291 71.2136V72.1655C8.03291 72.2526 7.96175 72.3238 7.87457 72.3238ZM7.87457 70.4219C7.7874 70.4219 7.71623 70.3508 7.71623 70.2636V69.3118C7.71623 69.2246 7.7874 69.1534 7.87457 69.1534C7.96175 69.1534 8.03291 69.2246 8.03291 69.3118V70.2636C8.03291 70.3508 7.96175 70.4219 7.87457 70.4219ZM7.87457 68.5201C7.7874 68.5201 7.71623 68.4489 7.71623 68.3617V67.4099C7.71623 67.3227 7.7874 67.2516 7.87457 67.2516C7.96175 67.2516 8.03291 67.3227 8.03291 67.4099V68.3617C8.03291 68.4489 7.96175 68.5201 7.87457 68.5201ZM7.87457 66.6164C7.7874 66.6164 7.71623 66.5453 7.71623 66.4581V65.5063C7.71623 65.4191 7.7874 65.3479 7.87457 65.3479C7.96175 65.3479 8.03291 65.4191 8.03291 65.5063V66.4581C8.03291 66.5453 7.96175 66.6164 7.87457 66.6164ZM7.87457 64.7146C7.7874 64.7146 7.71623 64.6434 7.71623 64.5562V63.6044C7.71623 63.5172 7.7874 63.4461 7.87457 63.4461C7.96175 63.4461 8.03291 63.5172 8.03291 63.6044V64.5562C8.03291 64.6434 7.96175 64.7146 7.87457 64.7146ZM7.87457 62.8127C7.7874 62.8127 7.71623 62.7415 7.71623 62.6544V61.7025C7.71623 61.6154 7.7874 61.5442 7.87457 61.5442C7.96175 61.5442 8.03291 61.6154 8.03291 61.7025V62.6544C8.03291 62.7415 7.96175 62.8127 7.87457 62.8127ZM7.87457 60.9108C7.7874 60.9108 7.71623 60.8397 7.71623 60.7525V59.8007C7.71623 59.7135 7.7874 59.6423 7.87457 59.6423C7.96175 59.6423 8.03291 59.7135 8.03291 59.8007V60.7525C8.03291 60.8397 7.96175 60.9108 7.87457 60.9108ZM7.87457 59.0072C7.7874 59.0072 7.71623 58.936 7.71623 58.8489V57.897C7.71623 57.8099 7.7874 57.7387 7.87457 57.7387C7.96175 57.7387 8.03291 57.8099 8.03291 57.897V58.8489C8.03291 58.936 7.96175 59.0072 7.87457 59.0072ZM7.87457 57.1053C7.7874 57.1053 7.71623 57.0342 7.71623 56.947V55.9952C7.71623 55.908 7.7874 55.8368 7.87457 55.8368C7.96175 55.8368 8.03291 55.908 8.03291 55.9952V56.947C8.03291 57.0342 7.96175 57.1053 7.87457 57.1053ZM7.87457 55.2035C7.7874 55.2035 7.71623 55.1323 7.71623 55.0451V54.0933C7.71623 54.0061 7.7874 53.935 7.87457 53.935C7.96175 53.935 8.03291 54.0061 8.03291 54.0933V55.0451C8.03291 55.1323 7.96175 55.2035 7.87457 55.2035ZM7.87457 53.3016C7.7874 53.3016 7.71623 53.2304 7.71623 53.1433V52.1914C7.71623 52.1043 7.7874 52.0331 7.87457 52.0331C7.96175 52.0331 8.03291 52.1043 8.03291 52.1914V53.1433C8.03291 53.2304 7.96175 53.3016 7.87457 53.3016ZM7.87457 51.398C7.7874 51.398 7.71623 51.3268 7.71623 51.2396V50.2878C7.71623 50.2006 7.7874 50.1295 7.87457 50.1295C7.96175 50.1295 8.03291 50.2006 8.03291 50.2878V51.2396C8.03291 51.3268 7.96175 51.398 7.87457 51.398ZM7.87457 49.4961C7.7874 49.4961 7.71623 49.4249 7.71623 49.3378V48.3859C7.71623 48.2988 7.7874 48.2276 7.87457 48.2276C7.96175 48.2276 8.03291 48.2988 8.03291 48.3859V49.3378C8.03291 49.4249 7.96175 49.4961 7.87457 49.4961Z" fill="#9E7D1B"/>
<path id="Vector_10" d="M7.87461 91.8868L7.32308 93.2087L5.89447 93.3261L6.97972 94.2602L6.65059 95.655L7.87461 94.9113L9.1004 95.655L8.77127 94.2602L9.85652 93.3261L8.4279 93.2087L7.87461 91.8868Z" fill="#9E7D1B"/>
</g>
<path id="Vector_11" d="M12.1583 39.0992V39.0956L10.7635 34.8098L14.98 31.7479H9.7708L8.31906 27.2806V27.2148H8.29593L8.15894 26.7931L8.02195 27.2148H8.0006V27.2806L6.54886 31.7479H1.33966L5.55256 34.8098L4.16131 39.0956V39.0992L4.13284 39.1846L3.94604 39.761L8.15894 36.701L12.3718 39.761L12.185 39.1846L12.1566 39.0992H12.1583ZM11.4787 38.0335L8.67666 33.6462L10.4077 34.7368L11.4787 38.0335ZM10.639 34.5055L8.57881 33.2086L13.9784 32.0824L10.639 34.5055ZM12.5124 32.0646L8.71758 32.8545L9.6089 32.0646H12.5124ZM9.44701 31.7817L8.31906 32.7816V28.3054L9.44701 31.78V31.7817ZM8.00238 28.3071V32.7905L6.87265 31.7853L8.00238 28.3071ZM6.7072 32.0646L7.61454 32.867L3.79482 32.0646H6.70897H6.7072ZM2.34307 32.0824L7.75508 33.2104L5.68244 34.5038L2.34307 32.0806V32.0824ZM5.91194 34.7368L7.65545 33.6373L4.84092 38.0371L5.91194 34.7368ZM8.00238 33.6747V36.427L4.72173 38.811L8.00238 33.6747ZM8.31906 36.427V33.6747L11.5997 38.811L8.31906 36.427Z" fill="#9E7D1B"/>
</g>
</svg>
