<svg width="181" height="189" viewBox="0 0 181 189" fill="none" xmlns="http://www.w3.org/2000/svg">
<path d="M86.6833 180.417C86.3324 180.417 86.0492 180.134 86.0492 179.783V175.515C86.0492 175.164 86.3324 174.881 86.6833 174.881C87.0342 174.881 87.3173 175.164 87.3173 175.515V179.783C87.3173 180.134 87.0342 180.417 86.6833 180.417Z" fill="#E2B227"/>
<path d="M86.6833 172.91C86.3324 172.91 86.0492 172.627 86.0492 172.276V146.951C86.0492 146.6 86.3324 146.317 86.6833 146.317C87.0342 146.317 87.3173 146.6 87.3173 146.951V172.276C87.3173 172.627 87.0342 172.91 86.6833 172.91Z" fill="#E2B227"/>
<path d="M86.6894 143.453C86.3385 143.453 86.0553 143.17 86.0553 142.819V137.664C86.0553 137.313 86.3385 137.03 86.6894 137.03C87.0403 137.03 87.3235 137.313 87.3235 137.664V142.819C87.3235 143.17 87.0403 143.453 86.6894 143.453Z" fill="#E2B227"/>
<path d="M86.6894 51.3876C86.3385 51.3876 86.0553 51.1043 86.0553 50.7533V16.462C86.0553 16.1109 86.3385 15.8276 86.6894 15.8276C87.0403 15.8276 87.3235 16.1109 87.3235 16.462V50.7533C87.3235 51.1043 87.0403 51.3876 86.6894 51.3876Z" fill="#E2B227"/>
<path d="M86.6833 14.1032C86.3324 14.1032 86.0492 13.8199 86.0492 13.4689V8.63434C86.0492 8.2833 86.3324 8 86.6833 8C87.0342 8 87.3173 8.2833 87.3173 8.63434V13.4689C87.3173 13.8199 87.0342 14.1032 86.6833 14.1032Z" fill="#E2B227"/>
<path d="M172.221 94.8429H168.121C167.77 94.8429 167.487 94.5596 167.487 94.2086C167.487 93.8575 167.77 93.5742 168.121 93.5742H172.221C172.572 93.5742 172.855 93.8575 172.855 94.2086C172.855 94.5596 172.572 94.8429 172.221 94.8429Z" fill="#E2B227"/>
<path d="M164.957 94.8368H130.12C129.769 94.8368 129.486 94.5535 129.486 94.2025C129.486 93.8514 129.769 93.5681 130.12 93.5681H164.957C165.308 93.5681 165.591 93.8514 165.591 94.2025C165.591 94.5535 165.308 94.8368 164.957 94.8368Z" fill="#E2B227"/>
<path d="M43.2463 94.8368H8.77869C8.4278 94.8368 8.14462 94.5535 8.14462 94.2025C8.14462 93.8514 8.4278 93.5681 8.77869 93.5681H43.2463C43.5972 93.5681 43.8804 93.8514 43.8804 94.2025C43.8804 94.5535 43.5972 94.8368 43.2463 94.8368Z" fill="#E2B227"/>
<path d="M147.166 155.352C147.006 155.352 146.84 155.29 146.717 155.167L143.947 152.395C143.7 152.149 143.7 151.743 143.947 151.496C144.193 151.25 144.599 151.25 144.845 151.496L147.616 154.268C147.862 154.514 147.862 154.92 147.616 155.167C147.493 155.29 147.326 155.352 147.166 155.352Z" fill="#E2B227"/>
<path d="M141.798 149.969C141.638 149.969 141.472 149.907 141.349 149.784L116.959 125.384C116.712 125.137 116.712 124.731 116.959 124.484C117.205 124.238 117.611 124.238 117.857 124.484L142.248 148.885C142.494 149.131 142.494 149.538 142.248 149.784C142.124 149.907 141.958 149.969 141.798 149.969Z" fill="#E2B227"/>
<path d="M55.9647 64.1113C55.8046 64.1113 55.6384 64.0498 55.5153 63.9266L30.9343 39.3351C30.688 39.0888 30.688 38.6823 30.9343 38.436C31.1805 38.1896 31.5868 38.1896 31.833 38.436L56.4141 63.0274C56.6603 63.2738 56.6603 63.6802 56.4141 63.9266C56.2909 64.0498 56.1247 64.1113 55.9647 64.1113Z" fill="#E2B227"/>
<path d="M29.8139 37.9432C29.6538 37.9432 29.4876 37.8817 29.3645 37.7585L25.7509 34.1434C25.5046 33.897 25.5046 33.4906 25.7509 33.2442C25.9971 32.9979 26.4034 32.9979 26.6497 33.2442L30.2632 36.8593C30.5095 37.1057 30.5095 37.5121 30.2632 37.7585C30.1401 37.8817 29.9739 37.9432 29.8139 37.9432Z" fill="#E2B227"/>
<path d="M144.168 37.3335C144.008 37.3335 143.842 37.2719 143.719 37.1487C143.473 36.9024 143.473 36.4959 143.719 36.2496L146.717 33.2503C146.963 33.004 147.369 33.004 147.616 33.2503C147.862 33.4967 147.862 33.9031 147.616 34.1495L144.618 37.1487C144.495 37.2719 144.328 37.3335 144.168 37.3335Z" fill="#E2B227"/>
<path d="M117.402 64.1113C117.242 64.1113 117.076 64.0498 116.952 63.9266C116.706 63.6802 116.706 63.2738 116.952 63.0274L141.343 38.6269C141.589 38.3806 141.995 38.3806 142.241 38.6269C142.488 38.8732 142.488 39.2797 142.241 39.5261L117.851 63.9266C117.728 64.0498 117.562 64.1113 117.402 64.1113Z" fill="#E2B227"/>
<path d="M31.3775 150.16C31.2174 150.16 31.0512 150.098 30.9281 149.975C30.6818 149.729 30.6818 149.322 30.9281 149.076L55.5091 124.484C55.7554 124.238 56.1617 124.238 56.4079 124.484C56.6541 124.731 56.6541 125.137 56.4079 125.384L31.8269 149.975C31.7037 150.098 31.5375 150.16 31.3775 150.16Z" fill="#E2B227"/>
<path d="M26.2003 155.352C26.0402 155.352 25.874 155.29 25.7509 155.167C25.5046 154.92 25.5046 154.514 25.7509 154.268L28.872 151.145C29.1182 150.899 29.5245 150.899 29.7708 151.145C30.017 151.392 30.017 151.798 29.7708 152.044L26.6497 155.167C26.5265 155.29 26.3603 155.352 26.2003 155.352Z" fill="#E2B227"/>
<path d="M147.308 135.367C147.185 135.367 147.062 135.33 146.957 135.262L141.441 131.579C141.152 131.382 141.072 130.988 141.269 130.699C141.46 130.409 141.86 130.323 142.149 130.526L147.665 134.209C147.954 134.406 148.034 134.8 147.837 135.09C147.714 135.275 147.511 135.373 147.308 135.373V135.367Z" fill="#E2B227"/>
<path d="M138.628 129.559C138.505 129.559 138.382 129.522 138.277 129.455L122.456 118.88C122.167 118.683 122.087 118.289 122.277 118C122.474 117.71 122.868 117.63 123.158 117.821L138.979 128.395C139.268 128.592 139.348 128.987 139.157 129.276C139.034 129.461 138.831 129.559 138.628 129.559Z" fill="#E2B227"/>
<path d="M50.5597 70.6888C50.4365 70.6888 50.3134 70.6518 50.2088 70.5841L25.7139 54.2082C25.4246 54.0112 25.3446 53.617 25.5416 53.3276C25.7385 53.0381 26.1325 52.958 26.4219 53.1551L50.9167 69.5309C51.206 69.728 51.2861 70.1222 51.0891 70.4116C50.966 70.5964 50.7628 70.6949 50.5597 70.6949V70.6888Z" fill="#E2B227"/>
<path d="M122.253 41.5831C122.13 41.5831 122.007 41.5461 121.902 41.4784C121.613 41.2813 121.533 40.8872 121.73 40.5977L126.667 33.2073C126.864 32.9179 127.251 32.8378 127.547 33.0349C127.836 33.232 127.916 33.6261 127.719 33.9156L122.782 41.3059C122.659 41.4907 122.456 41.5892 122.253 41.5892V41.5831Z" fill="#E2B227"/>
<path d="M110.827 58.7041C110.704 58.7041 110.581 58.6672 110.476 58.5995C110.187 58.4024 110.107 58.0082 110.298 57.7188L120.012 43.1659C120.209 42.8764 120.597 42.7964 120.892 42.9873C121.182 43.1844 121.262 43.5785 121.071 43.868L111.357 58.4208C111.234 58.6056 111.03 58.7041 110.827 58.7041Z" fill="#E2B227"/>
<path d="M59.8122 135.071C59.6891 135.071 59.5659 135.034 59.4613 134.967C59.1719 134.769 59.0919 134.375 59.2828 134.086L62.016 129.99C62.213 129.701 62.607 129.621 62.8963 129.812C63.1857 130.009 63.2657 130.403 63.0749 130.692L60.3416 134.788C60.2185 134.973 60.0153 135.071 59.8122 135.071Z" fill="#E2B227"/>
<path d="M46.1766 155.487C46.0534 155.487 45.9303 155.45 45.8257 155.382C45.5363 155.185 45.4563 154.791 45.6533 154.502L57.4975 136.771C57.6945 136.482 58.0885 136.402 58.3778 136.599C58.6672 136.796 58.7472 137.19 58.5502 137.479L46.706 155.21C46.5829 155.395 46.3797 155.493 46.1766 155.493V155.487Z" fill="#E2B227"/>
<path d="M151.118 82.0207C150.823 82.0207 150.558 81.8113 150.497 81.5095C150.429 81.1647 150.651 80.8321 150.995 80.7644L158.075 79.354C158.426 79.2801 158.752 79.508 158.82 79.8529C158.887 80.1978 158.666 80.5303 158.321 80.5981L151.242 82.0084C151.198 82.0146 151.155 82.0207 151.118 82.0207Z" fill="#E2B227"/>
<path d="M129.295 86.3625C129 86.3625 128.735 86.1531 128.674 85.8513C128.606 85.5065 128.827 85.1739 129.172 85.1062L147.043 81.5403C147.382 81.4664 147.72 81.6943 147.788 82.0391C147.856 82.384 147.634 82.7166 147.289 82.7843L129.418 86.3502C129.375 86.3564 129.332 86.3625 129.295 86.3625Z" fill="#E2B227"/>
<path d="M35.6375 105.005C35.342 105.005 35.0773 104.795 35.0157 104.494C34.948 104.149 35.1696 103.816 35.5143 103.748L43.9481 102.067C44.2928 101.993 44.6253 102.221 44.693 102.566C44.7607 102.911 44.5391 103.243 44.1943 103.311L35.7606 104.992C35.7175 104.999 35.6744 105.005 35.6375 105.005Z" fill="#E2B227"/>
<path d="M15.1748 109.069C14.8793 109.069 14.6146 108.86 14.5531 108.558C14.4853 108.213 14.707 107.881 15.0517 107.813L32.3563 104.37C32.701 104.296 33.0335 104.524 33.1012 104.869C33.1689 105.214 32.9473 105.547 32.6025 105.614L15.2979 109.057C15.2548 109.063 15.2118 109.069 15.1748 109.069Z" fill="#E2B227"/>
<path d="M76.2426 42.3282C75.9471 42.3282 75.6824 42.1188 75.6209 41.817L71.8349 22.7868C71.7672 22.442 71.9888 22.1094 72.3336 22.0416C72.6783 21.9677 73.0107 22.1956 73.0784 22.5405L76.8644 41.5707C76.9321 41.9156 76.7105 42.2481 76.3658 42.3159C76.3227 42.322 76.2796 42.3282 76.2426 42.3282Z" fill="#E2B227"/>
<path d="M78.2064 52.2129C77.9109 52.2129 77.6462 52.0035 77.5846 51.7017L76.4273 45.8756C76.3596 45.5308 76.5812 45.1982 76.9259 45.1305C77.2707 45.0627 77.6031 45.2844 77.6708 45.6293L78.8282 51.4554C78.8959 51.8003 78.6743 52.1328 78.3295 52.2006C78.2864 52.2067 78.2433 52.2129 78.2064 52.2129Z" fill="#E2B227"/>
<path d="M96.2497 142.93C95.9542 142.93 95.6895 142.72 95.628 142.418L94.5445 136.962C94.4768 136.617 94.6984 136.284 95.0432 136.217C95.3817 136.143 95.7203 136.371 95.788 136.716L96.8715 142.172C96.9392 142.517 96.7176 142.85 96.3728 142.917C96.3298 142.923 96.2867 142.93 96.2497 142.93Z" fill="#E2B227"/>
<path d="M100.91 166.382C100.614 166.382 100.35 166.172 100.288 165.871L96.1451 145.03C96.0774 144.685 96.299 144.352 96.6437 144.285C96.9884 144.211 97.3209 144.439 97.3886 144.783L101.532 165.624C101.599 165.969 101.378 166.302 101.033 166.369C100.99 166.376 100.947 166.382 100.91 166.382Z" fill="#E2B227"/>
<path d="M158.198 109.069C158.155 109.069 158.118 109.069 158.075 109.057L137.945 105.054C137.6 104.986 137.378 104.654 137.446 104.309C137.514 103.964 137.846 103.736 138.191 103.81L158.321 107.813C158.666 107.881 158.887 108.213 158.82 108.558C158.758 108.86 158.493 109.069 158.198 109.069Z" fill="#E2B227"/>
<path d="M135.808 104.611C135.765 104.611 135.722 104.611 135.685 104.598L129.172 103.299C128.827 103.231 128.606 102.898 128.674 102.554C128.741 102.209 129.08 101.981 129.418 102.055L135.932 103.354C136.276 103.422 136.498 103.754 136.43 104.099C136.369 104.401 136.104 104.611 135.808 104.611Z" fill="#E2B227"/>
<path d="M44.0712 86.3503C44.0281 86.3503 43.9912 86.3503 43.9481 86.3379L25.0491 82.5873C24.7043 82.5196 24.4827 82.187 24.5504 81.8421C24.6182 81.4973 24.9506 81.2694 25.2953 81.3433L44.1943 85.0939C44.5391 85.1616 44.7607 85.4942 44.693 85.8391C44.6314 86.1409 44.3667 86.3503 44.0712 86.3503Z" fill="#E2B227"/>
<path d="M21.3432 81.836C21.3001 81.836 21.2631 81.836 21.22 81.8236L15.0517 80.5981C14.707 80.5303 14.4853 80.1978 14.5531 79.8529C14.6208 79.508 14.9532 79.2801 15.2979 79.354L21.4663 80.5796C21.811 80.6473 22.0326 80.9799 21.9649 81.3248C21.9034 81.6266 21.6387 81.836 21.3432 81.836Z" fill="#E2B227"/>
<path d="M95.1601 52.2129C95.117 52.2129 95.0801 52.2129 95.037 52.2006C94.6923 52.1328 94.4706 51.8002 94.5384 51.4554L100.288 22.5344C100.356 22.1895 100.682 21.9616 101.033 22.0355C101.378 22.1033 101.599 22.4359 101.532 22.7807L95.7819 51.7017C95.7203 52.0035 95.4556 52.2129 95.1601 52.2129Z" fill="#E2B227"/>
<path d="M74.6174 155.487C74.5744 155.487 74.5374 155.487 74.4943 155.475C74.1496 155.407 73.928 155.074 73.9957 154.73L77.5847 136.716C77.6524 136.371 77.9848 136.143 78.3295 136.217C78.6743 136.284 78.8959 136.617 78.8282 136.962L75.2392 154.976C75.1776 155.278 74.9129 155.487 74.6174 155.487Z" fill="#E2B227"/>
<path d="M72.4628 166.382C72.4197 166.382 72.3828 166.382 72.3397 166.369C71.995 166.302 71.7733 165.969 71.8411 165.624L73.4786 157.378C73.5463 157.033 73.8787 156.805 74.2234 156.879C74.5682 156.947 74.7898 157.279 74.7221 157.624L73.0846 165.871C73.023 166.172 72.7583 166.382 72.4628 166.382Z" fill="#E2B227"/>
<path d="M132.466 64.2407C132.263 64.2407 132.059 64.1421 131.936 63.9574C131.739 63.6679 131.819 63.2676 132.109 63.0767L146.957 53.1551C147.246 52.958 147.646 53.0381 147.837 53.3276C148.034 53.617 147.954 54.0173 147.665 54.2082L132.817 64.1298C132.706 64.2037 132.583 64.2345 132.466 64.2345V64.2407Z" fill="#E2B227"/>
<path d="M122.807 70.7012C122.604 70.7012 122.401 70.6026 122.277 70.4179C122.08 70.1284 122.16 69.7281 122.45 69.5372L129.622 64.7396C129.911 64.5425 130.311 64.6226 130.502 64.912C130.699 65.2015 130.619 65.6018 130.329 65.7927L123.158 70.5903C123.047 70.6642 122.924 70.695 122.807 70.695V70.7012Z" fill="#E2B227"/>
<path d="M38.5246 127.028C38.3215 127.028 38.1183 126.93 37.9952 126.745C37.7982 126.455 37.8782 126.055 38.1676 125.864L50.1964 117.821C50.4919 117.624 50.8859 117.704 51.0768 117.993C51.2738 118.283 51.1937 118.683 50.9044 118.874L38.8755 126.917C38.7647 126.991 38.6416 127.022 38.5246 127.022V127.028Z" fill="#E2B227"/>
<path d="M26.0587 135.367C25.8555 135.367 25.6524 135.268 25.5293 135.084C25.3323 134.794 25.4123 134.394 25.7016 134.203L35.816 127.441C36.1115 127.244 36.5055 127.324 36.6963 127.613C36.8933 127.903 36.8133 128.303 36.5239 128.494L26.4096 135.256C26.2988 135.33 26.1756 135.361 26.0587 135.361V135.367Z" fill="#E2B227"/>
<path d="M52.0802 43.0303C51.877 43.0303 51.6739 42.9318 51.5508 42.747L45.6471 33.9032C45.4501 33.6138 45.5302 33.2135 45.8195 33.0226C46.115 32.8255 46.509 32.9055 46.6998 33.195L52.6035 42.0388C52.8004 42.3283 52.7204 42.7286 52.4311 42.9195C52.3203 42.9934 52.1972 43.0242 52.0802 43.0242V43.0303Z" fill="#E2B227"/>
<path d="M62.5516 58.7041C62.3484 58.7041 62.1453 58.6056 62.0222 58.4208L52.9913 44.8965C52.7943 44.6008 52.8743 44.2067 53.1698 44.0158C53.4653 43.8187 53.8531 43.8988 54.0501 44.1944L63.081 57.7187C63.278 58.0144 63.198 58.4085 62.9025 58.5994C62.7917 58.6733 62.6686 58.7041 62.5516 58.7041Z" fill="#E2B227"/>
<path d="M119.975 144.673C119.772 144.673 119.569 144.574 119.446 144.389L110.292 130.686C110.095 130.397 110.175 129.997 110.464 129.806C110.759 129.609 111.153 129.689 111.344 129.978L120.498 143.681C120.695 143.971 120.615 144.371 120.326 144.562C120.215 144.636 120.092 144.666 119.975 144.666V144.673Z" fill="#E2B227"/>
<path d="M127.19 155.487C126.987 155.487 126.784 155.389 126.661 155.204L121.379 147.296C121.182 147.007 121.262 146.606 121.551 146.415C121.84 146.218 122.24 146.298 122.431 146.588L127.713 154.496C127.91 154.785 127.83 155.185 127.541 155.376C127.43 155.45 127.307 155.481 127.19 155.481V155.487Z" fill="#E2B227"/>
<path d="M147.991 120.247C147.911 120.247 147.825 120.229 147.745 120.198L126.58 111.434C126.254 111.299 126.1 110.929 126.236 110.603C126.371 110.277 126.747 110.123 127.067 110.258L148.231 119.022C148.558 119.157 148.711 119.527 148.576 119.853C148.477 120.1 148.237 120.247 147.991 120.247Z" fill="#E2B227"/>
<path d="M46.5398 78.2085C46.4598 78.2085 46.3736 78.19 46.2935 78.1592L40.5931 75.7943C40.2668 75.6588 40.1129 75.2893 40.2483 74.9629C40.3838 74.6365 40.7531 74.4887 41.0794 74.618L46.7799 76.9829C47.1061 77.1184 47.26 77.4879 47.1246 77.8144C47.02 78.0607 46.786 78.2085 46.5398 78.2085Z" fill="#E2B227"/>
<path d="M38.0383 74.6796C37.9583 74.6796 37.8721 74.6611 37.7921 74.6303L25.1353 69.3832C24.809 69.2477 24.6551 68.8782 24.7906 68.5518C24.926 68.2254 25.3015 68.0775 25.6216 68.2069L38.2784 73.454C38.6047 73.5895 38.7586 73.959 38.6232 74.2855C38.5247 74.5318 38.2846 74.6796 38.0383 74.6796Z" fill="#E2B227"/>
<path d="M103.311 54.6825C103.231 54.6825 103.144 54.664 103.064 54.6332C102.738 54.4978 102.584 54.1282 102.72 53.8018L111.48 32.6284C111.615 32.302 111.991 32.1542 112.311 32.2835C112.637 32.419 112.791 32.7885 112.656 33.115L103.896 54.2884C103.797 54.5347 103.557 54.6825 103.311 54.6825Z" fill="#E2B227"/>
<path d="M61.2897 156.177C61.2096 156.177 61.1234 156.158 61.0434 156.128C60.7171 155.992 60.5632 155.623 60.6987 155.296L69.471 134.11C69.6064 133.784 69.982 133.63 70.3021 133.766C70.6283 133.901 70.7822 134.271 70.6468 134.597L61.8745 155.783C61.776 156.029 61.5359 156.177 61.2897 156.177Z" fill="#E2B227"/>
<path d="M126.827 78.2085C126.58 78.2085 126.34 78.0607 126.242 77.8144C126.106 77.488 126.26 77.1185 126.587 76.983L147.751 68.2192C148.077 68.0837 148.447 68.2377 148.582 68.5641C148.718 68.8905 148.564 69.26 148.237 69.3955L127.073 78.1593C126.993 78.1901 126.913 78.2085 126.827 78.2085Z" fill="#E2B227"/>
<path d="M25.3754 120.247C25.123 120.247 24.8891 120.1 24.7906 119.853C24.6551 119.527 24.809 119.157 25.1353 119.022L46.2997 110.258C46.6198 110.123 46.9954 110.277 47.1308 110.603C47.2662 110.929 47.1123 111.299 46.7861 111.434L25.6216 120.198C25.5416 120.229 25.4616 120.247 25.3754 120.247Z" fill="#E2B227"/>
<path d="M70.0558 54.6825C69.8034 54.6825 69.5695 54.5347 69.471 54.2884L60.711 33.115C60.5755 32.7885 60.7294 32.419 61.0557 32.2835C61.382 32.1542 61.7513 32.302 61.8868 32.6284L70.6468 53.8018C70.7822 54.1282 70.6283 54.4978 70.3021 54.6332C70.222 54.664 70.142 54.6825 70.0558 54.6825Z" fill="#E2B227"/>
<path d="M112.071 156.177C111.818 156.177 111.584 156.029 111.486 155.783L102.726 134.597C102.59 134.271 102.744 133.901 103.071 133.766C103.397 133.63 103.766 133.784 103.902 134.11L112.662 155.296C112.797 155.623 112.643 155.992 112.317 156.128C112.237 156.158 112.157 156.177 112.071 156.177Z" fill="#E2B227"/>
<path d="M109.128 60.9765C102.72 56.6224 95.0001 54.0789 86.6833 54.0789C64.577 54.0789 46.5829 72.0806 46.5829 94.1962C46.5829 116.312 64.577 134.326 86.6833 134.326C95.0001 134.326 102.72 131.782 109.128 127.428C119.784 120.216 126.796 108.01 126.796 94.1962C126.796 80.3824 119.79 68.1883 109.128 60.9765ZM86.6771 133.057C65.2726 133.057 47.851 115.628 47.851 94.2024C47.851 72.7765 65.2726 55.3599 86.6771 55.3599C93.8735 55.3599 100.627 57.3306 106.413 60.7548C105.97 60.7425 105.521 60.7302 105.077 60.7302C86.5971 60.7302 71.6195 75.7203 71.6195 94.2024C71.6195 112.684 86.6032 127.693 105.077 127.693C105.521 127.693 105.97 127.681 106.401 127.668C100.627 131.093 93.8735 133.063 86.6771 133.063V133.057Z" fill="#E2B227"/>
</svg>
