<svg width="74" height="90" viewBox="0 0 74 90" fill="none" xmlns="http://www.w3.org/2000/svg">
<path d="M65.9698 83.6465H7.75464C3.48963 83.6465 0 80.1569 0 75.8919V37.268C0 17.8707 15.8705 2 35.268 2C56.419 2 73.7245 19.3054 73.7245 40.4565V75.8919C73.7245 80.1569 70.2348 83.6465 65.9698 83.6465Z" fill="#EED282"/>
<g clip-path="url(#clip0_765_2312)">
<mask id="path-2-outside-1_765_2312" maskUnits="userSpaceOnUse" x="-1" y="22.3681" width="76" height="69" fill="black">
<rect fill="white" x="-1" y="22.3681" width="76" height="69"/>
<path d="M36.0508 24.1079C34.1673 24.4712 32.2314 25.9051 31.5164 27.4346C31.2896 27.9317 31.1152 28.7155 31.0804 29.5568C31.028 30.2833 30.8711 31.2583 30.7316 31.6981C30.4874 32.4246 30.4874 32.6349 30.7664 33.9732C31.028 35.235 31.1676 35.5792 31.7605 36.2292C32.1442 36.6689 32.5279 37.1851 32.5977 37.4146C32.7895 37.969 32.5453 40.1294 32.2314 40.4353C32.0919 40.5883 31.3245 41.0089 30.5048 41.4104C26.2843 43.4561 24.0171 45.2341 23.0928 47.2416C21.9068 49.8226 21.2616 55.3862 21.2616 63.2058C21.2616 68.1193 21.5057 70.165 22.3428 72.1534L22.8835 73.4534L22.3254 75.0212C20.4593 80.2023 20.3198 80.6803 20.3198 82.7069C20.3023 84.4085 20.3547 84.7335 20.7732 85.6703C21.0348 86.263 21.5232 87.0851 21.872 87.5248L22.4824 88.3278L21.5232 88.4425C20.9825 88.519 15.9772 88.5572 10.3963 88.519C4.81548 88.4617 0.594961 88.4999 1.03097 88.5764C2.00761 88.7293 21.4534 88.7676 22.3603 88.6146L23.0056 88.4808L22.2033 87.544C21.7673 87.0277 21.2092 86.1292 20.9476 85.5174C20.5465 84.5805 20.4767 84.1982 20.4942 82.7069C20.5116 80.8715 20.9128 79.3611 22.3777 75.5374C22.7265 74.6388 23.0056 73.7211 23.0056 73.4725C23.0056 73.2431 22.8137 72.6122 22.5696 72.096C21.6278 70.0694 21.5232 69.0752 21.5232 62.7278C21.5406 53.0728 22.308 48.2167 24.2089 45.8459C25.3077 44.4885 26.6506 43.5899 30.592 41.6207C32.0745 40.8751 32.2489 40.8177 31.7431 41.2766C31.4117 41.5633 30.9408 41.984 30.6967 42.1943L30.2607 42.5958L31.4466 44.6415C33.0685 47.4328 34.7428 49.7653 36.1903 51.2566C37.5681 52.6713 40.3236 54.9847 41.8061 55.9598L42.8002 56.6289L42.7478 59.2482C42.6955 61.1792 42.7653 62.2498 42.9746 63.3014C43.585 66.3604 44.0907 69.5914 44.2128 71.2165L44.3349 72.9181L43.3931 72.3445C42.0677 71.5224 41.4921 71.3504 39.2249 71.1592C38.1262 71.0445 36.8705 70.8342 36.4519 70.6621C34.2894 69.8209 30.4525 66.2265 29.5631 64.2382C28.9701 62.8999 28.8306 60.835 29.0922 57.7569C29.2143 56.2657 29.2317 55.52 29.0922 55.3671C28.9701 55.2333 28.8655 55.2715 28.7608 55.4436C28.4469 56.0171 28.2027 59.0379 28.2725 61.3895C28.3771 64.5632 28.4818 64.7544 31.9873 68.2722C33.4697 69.7635 34.7777 71.1401 34.8649 71.3504C35.0044 71.618 34.8474 72.096 34.0975 73.5681C32.0745 77.6022 31.4117 79.7053 31.185 82.8025C31.0804 84.1217 30.9757 85.2306 30.9234 85.2688C30.7839 85.4218 30.1212 84.5997 28.5864 82.4201C27.7319 81.2156 26.7203 79.7817 26.3541 79.2655C25.9878 78.7302 25.2379 77.4875 24.6973 76.4933C24.1741 75.4991 23.5985 74.505 23.4416 74.2947C23.18 73.9314 23.1625 73.9505 23.2323 74.8491C23.3544 76.2448 24.5229 78.5964 26.3192 81.0818C28.1853 83.6437 30.1735 85.8615 30.6269 85.8615C30.8013 85.8615 31.0978 85.9953 31.2722 86.1483C32.0919 86.8366 32.8941 86.3586 33.6092 84.7909C34.0452 83.854 35.2311 79.992 35.6671 78.061C35.8415 77.2963 36.0334 76.7036 36.0857 76.7419C37.7599 77.8125 39.5912 78.2714 41.7363 78.1375C45.3813 77.9081 45.3987 77.9081 47.9799 76.4551C50.0378 75.3079 50.561 74.7153 50.561 73.4917C50.561 72.6504 50.561 72.6313 51.0493 72.7652C51.311 72.8416 52.7062 72.9372 54.1363 72.9563C57.8685 73.0519 62.089 73.9123 64.426 75.0594C64.8968 75.2888 65.5944 75.8242 65.9781 76.2256C67.914 78.3669 67.7221 81.3304 65.5072 83.4908C63.6586 85.2688 59.4729 87.0851 54.8339 88.1175C52.3748 88.672 47.352 88.7676 34.4463 88.5381C28.0283 88.4234 23.7555 88.4043 23.6509 88.519C23.2323 88.9779 27.6272 89.972 31.4292 90.2779C35.7369 90.6221 46.5672 89.9338 51.433 89.0161C52.5666 88.8058 54.6769 88.7293 60.5019 88.7102C64.6701 88.6911 70.1638 88.6146 72.71 88.5381C75.7272 88.4425 73.4251 88.4234 66.0828 88.4808C59.909 88.519 54.8862 88.519 54.9385 88.4617C54.9908 88.4043 56.0896 88.0602 57.3801 87.6969C62.7343 86.2056 66.1525 84.0261 67.1815 81.4833C67.6001 80.4318 67.6349 78.7876 67.2513 77.8125C66.0828 74.7726 61.6181 73.0519 54.0491 72.6887C50.8226 72.5166 50.2122 72.421 50.2122 72.0386C50.2122 71.9239 49.7413 70.968 49.1833 69.9165C48.4333 68.5208 48.0845 67.6604 47.9624 66.8383C47.7008 65.1941 47.4567 59.8791 47.3346 53.3787C47.2125 46.8592 47.2648 47.0504 45.4336 45.1959C44.0907 43.8002 42.4165 42.7487 41.3177 42.5766C38.9459 42.2134 38.7017 42.0222 38.475 40.5309C38.3878 39.8426 38.4052 39.8235 39.1377 39.5176C40.2016 39.0588 41.2305 37.7778 41.6142 36.4013C42.0677 34.7762 42.0677 28.4861 41.6142 27.0331C40.9341 24.8727 38.5273 23.6108 36.0508 24.1079ZM39.8876 25.0447C41.3875 26.0963 41.8409 27.6449 41.8409 31.8319C41.8409 35.9807 41.2654 37.8352 39.6784 38.9249C38.8587 39.4603 38.7017 39.4985 37.0623 39.4985C34.7079 39.4985 34.3068 39.2308 32.0919 36.363C31.0106 34.9482 30.5048 32.6349 31.0455 31.5451C31.1501 31.3348 31.2548 30.5318 31.3071 29.7862C31.3594 28.8494 31.5164 28.1037 31.8303 27.4155C33.086 24.5859 37.4286 23.3049 39.8876 25.0447ZM34.2894 39.0779C34.9695 39.5941 36.8007 40.0338 37.7425 39.9191C38.039 39.8809 38.1087 40.0147 38.1785 40.9898C38.2657 42.1178 38.4924 42.4619 39.1028 42.4619C39.2598 42.4619 39.3993 42.5575 39.3993 42.6531C39.3993 43.1884 36.6961 48.1975 36.3996 48.1975C36.0334 48.1975 33.8882 44.9474 32.7197 42.6149C32.0745 41.353 32.0745 41.3339 32.4233 41.0663C32.8244 40.7604 33.1209 39.8235 33.1209 38.8676C33.1209 38.1793 33.0685 38.1602 34.2894 39.0779ZM34.7602 47.4902C35.4404 48.6182 35.8415 48.9814 36.2252 48.8285C36.3473 48.7711 37.01 49.3256 37.7076 50.0138C39.3644 51.7154 42.5386 54.5832 42.6258 54.4685C42.6781 54.4303 41.9805 53.7229 41.091 52.9199C40.219 52.136 38.8238 50.7977 38.039 49.9756L36.574 48.4843L37.4809 46.9931C37.9692 46.171 38.6843 44.8709 39.0854 44.087C39.7307 42.7487 39.8179 42.6531 40.3585 42.6531C40.9689 42.6531 41.2829 42.9208 40.9689 43.1311C40.8643 43.2076 40.4457 44.0105 40.0097 44.9282C39.5912 45.8651 38.8412 47.1843 38.3529 47.8916C37.2716 49.4211 37.5855 49.5741 38.8587 48.102C39.6784 47.1651 40.7771 45.043 41.2829 43.4179C41.3875 43.112 41.5793 42.8443 41.7014 42.8443C42.12 42.8443 44.2477 44.2591 45.2069 45.1768C45.7824 45.7121 46.3405 46.496 46.6195 47.0887C47.0556 48.0255 47.073 48.2358 47.073 50.9698C47.073 55.5774 47.4218 64.2764 47.666 66.1501C47.9101 67.8708 47.9799 68.0619 49.5844 71.1592L50.0378 72.0386L48.1717 72.0195C47.1253 72.0195 45.9219 72.0769 45.4859 72.1534L44.6837 72.3063L44.579 69.6679C44.5093 67.6796 44.3523 66.4177 43.9512 64.5632C43.4106 62.0969 43.4106 62.0395 43.4106 56.7245C43.4106 51.5242 43.3059 50.4153 43.0269 52.8434C42.835 54.6215 42.6955 55.7303 42.6083 55.998C42.5211 56.3039 41.8061 55.8068 39.1028 53.6082C36.7659 51.6963 35.3183 50.1859 33.8708 48.0637C32.7023 46.3813 30.6792 42.9781 30.6792 42.6722C30.6792 42.5766 30.9408 42.2707 31.2373 42.0031L31.8129 41.5251L32.9465 43.9532C33.5743 45.2915 34.3766 46.8784 34.7602 47.4902ZM40.1841 45.5592C39.8353 46.3239 39.4516 47.0695 39.3121 47.2034C39.19 47.3563 39.4516 46.6489 39.9051 45.6356C40.3411 44.6415 40.7248 43.8958 40.7597 43.9914C40.7945 44.087 40.5329 44.7944 40.1841 45.5592ZM35.2137 47.2034C35.702 47.8725 36.0683 48.4652 35.9985 48.5417C35.859 48.6946 35.2137 47.8725 34.4986 46.5725C33.8708 45.4636 33.958 45.5592 35.2137 47.2034ZM28.9875 56.3613C28.9178 56.6672 28.8655 58.3114 28.8655 60.0512L28.848 63.2058L29.4061 64.3911C29.72 65.0412 30.0514 65.6147 30.156 65.6912C30.2432 65.7486 30.4176 65.9971 30.5223 66.2265C30.6444 66.4751 30.3828 66.303 29.9119 65.8059C28.6039 64.4103 28.4992 64.0279 28.4992 60.6247C28.4992 57.5657 28.6562 55.8451 28.9527 55.8451C29.0399 55.8451 29.0573 56.0745 28.9875 56.3613ZM43.2187 61.1027C43.3059 62.1542 43.585 63.9323 43.8117 65.0603C44.2477 67.0869 44.6314 70.3371 44.2826 69.1326C44.143 68.5973 43.3582 64.4294 43.0443 62.5366C42.9746 62.0586 42.9222 60.9498 42.9222 60.0512C42.9397 58.2158 42.992 58.3878 43.2187 61.1027ZM35.8415 70.6047C36.731 71.0636 37.2891 71.1974 39.068 71.3504C40.3411 71.4842 41.5793 71.7136 42.12 71.9239C43.0618 72.3063 44.457 73.3196 44.457 73.6064C44.457 73.6829 43.9686 73.8167 43.3582 73.8549C42.12 73.9696 41.2131 74.3902 41.0561 74.9638C40.8469 75.6521 41.1085 75.7668 42.7304 75.6903C44.4221 75.633 44.6837 75.7477 44.5965 76.608C44.5093 77.4492 43.6547 77.889 41.8933 77.9846C41.091 78.0419 39.9574 77.9655 39.347 77.8316C37.9692 77.5448 36.1729 76.6463 35.9287 76.1301C35.6846 75.6521 34.1847 74.505 34.0278 74.677C33.9057 74.8109 35.3706 76.3021 35.6322 76.3021C35.859 76.3021 35.6322 77.5831 34.9346 80.0685C33.8185 84.1026 32.8418 86.2439 32.0919 86.2439C31.9349 86.2439 31.6385 86.11 31.4292 85.9571C31.1152 85.7086 31.0804 85.5747 31.2024 85.135C31.2722 84.8482 31.3943 83.7393 31.4466 82.6878C31.5687 80.1832 32.0745 78.4625 33.8534 74.6388C34.6033 73.0328 35.2137 71.618 35.2137 71.5033C35.2137 71.4077 34.4812 70.5283 33.6092 69.5914L31.9873 67.8708L33.3825 68.9605C34.1498 69.5532 35.266 70.2988 35.8415 70.6047ZM49.3402 72.3063C50.2297 72.5357 50.3866 72.7078 50.3866 73.549C50.3866 74.3329 49.8983 74.9829 48.6775 75.805C47.7357 76.436 45.2069 77.6404 44.8407 77.6404C44.7535 77.6404 44.8407 77.2963 45.0325 76.8566C45.3115 76.2256 45.3464 75.9962 45.172 75.5947C44.9802 75.1168 44.9453 75.1168 43.3582 75.1741C42.399 75.2315 41.7189 75.1741 41.684 75.0594C41.5445 74.677 42.4862 74.3902 43.8989 74.3902C44.6837 74.3902 45.329 74.3138 45.329 74.2373C45.329 74.1417 45.1371 73.874 44.893 73.6255C44.3872 73.1093 44.3174 72.574 44.7709 72.5166C44.9279 72.4975 45.4685 72.4019 45.9394 72.3063C47.1602 72.0769 48.4159 72.0769 49.3402 72.3063ZM24.3485 76.3404C25.1333 77.8699 28.1504 82.3628 29.7549 84.4658C30.7839 85.8233 30.47 85.7468 29.2666 84.3894C27.0866 81.923 24.9937 78.9405 24.1741 77.1625C23.7555 76.2448 23.3021 74.7726 23.459 74.7726C23.4939 74.7726 23.895 75.48 24.3485 76.3404ZM44.9453 75.5756C45.172 75.8242 45.2243 76.3021 45.0325 76.3021C44.9453 76.3021 44.8058 76.0918 44.6837 75.8242C44.4744 75.3079 44.5965 75.1932 44.9453 75.5756ZM40.4806 88.7867C45.9045 88.8058 50.2645 88.8823 50.1599 88.9396C50.0378 89.0161 48.66 89.2073 47.073 89.3794C37.6727 90.3735 30.3479 90.3162 25.7088 89.169C23.5113 88.6337 23.9473 88.4999 27.3656 88.6337C29.1445 88.7102 35.0393 88.7676 40.4806 88.7867Z"/>
</mask>
<path d="M36.0508 24.1079C34.1673 24.4712 32.2314 25.9051 31.5164 27.4346C31.2896 27.9317 31.1152 28.7155 31.0804 29.5568C31.028 30.2833 30.8711 31.2583 30.7316 31.6981C30.4874 32.4246 30.4874 32.6349 30.7664 33.9732C31.028 35.235 31.1676 35.5792 31.7605 36.2292C32.1442 36.6689 32.5279 37.1851 32.5977 37.4146C32.7895 37.969 32.5453 40.1294 32.2314 40.4353C32.0919 40.5883 31.3245 41.0089 30.5048 41.4104C26.2843 43.4561 24.0171 45.2341 23.0928 47.2416C21.9068 49.8226 21.2616 55.3862 21.2616 63.2058C21.2616 68.1193 21.5057 70.165 22.3428 72.1534L22.8835 73.4534L22.3254 75.0212C20.4593 80.2023 20.3198 80.6803 20.3198 82.7069C20.3023 84.4085 20.3547 84.7335 20.7732 85.6703C21.0348 86.263 21.5232 87.0851 21.872 87.5248L22.4824 88.3278L21.5232 88.4425C20.9825 88.519 15.9772 88.5572 10.3963 88.519C4.81548 88.4617 0.594961 88.4999 1.03097 88.5764C2.00761 88.7293 21.4534 88.7676 22.3603 88.6146L23.0056 88.4808L22.2033 87.544C21.7673 87.0277 21.2092 86.1292 20.9476 85.5174C20.5465 84.5805 20.4767 84.1982 20.4942 82.7069C20.5116 80.8715 20.9128 79.3611 22.3777 75.5374C22.7265 74.6388 23.0056 73.7211 23.0056 73.4725C23.0056 73.2431 22.8137 72.6122 22.5696 72.096C21.6278 70.0694 21.5232 69.0752 21.5232 62.7278C21.5406 53.0728 22.308 48.2167 24.2089 45.8459C25.3077 44.4885 26.6506 43.5899 30.592 41.6207C32.0745 40.8751 32.2489 40.8177 31.7431 41.2766C31.4117 41.5633 30.9408 41.984 30.6967 42.1943L30.2607 42.5958L31.4466 44.6415C33.0685 47.4328 34.7428 49.7653 36.1903 51.2566C37.5681 52.6713 40.3236 54.9847 41.8061 55.9598L42.8002 56.6289L42.7478 59.2482C42.6955 61.1792 42.7653 62.2498 42.9746 63.3014C43.585 66.3604 44.0907 69.5914 44.2128 71.2165L44.3349 72.9181L43.3931 72.3445C42.0677 71.5224 41.4921 71.3504 39.2249 71.1592C38.1262 71.0445 36.8705 70.8342 36.4519 70.6621C34.2894 69.8209 30.4525 66.2265 29.5631 64.2382C28.9701 62.8999 28.8306 60.835 29.0922 57.7569C29.2143 56.2657 29.2317 55.52 29.0922 55.3671C28.9701 55.2333 28.8655 55.2715 28.7608 55.4436C28.4469 56.0171 28.2027 59.0379 28.2725 61.3895C28.3771 64.5632 28.4818 64.7544 31.9873 68.2722C33.4697 69.7635 34.7777 71.1401 34.8649 71.3504C35.0044 71.618 34.8474 72.096 34.0975 73.5681C32.0745 77.6022 31.4117 79.7053 31.185 82.8025C31.0804 84.1217 30.9757 85.2306 30.9234 85.2688C30.7839 85.4218 30.1212 84.5997 28.5864 82.4201C27.7319 81.2156 26.7203 79.7817 26.3541 79.2655C25.9878 78.7302 25.2379 77.4875 24.6973 76.4933C24.1741 75.4991 23.5985 74.505 23.4416 74.2947C23.18 73.9314 23.1625 73.9505 23.2323 74.8491C23.3544 76.2448 24.5229 78.5964 26.3192 81.0818C28.1853 83.6437 30.1735 85.8615 30.6269 85.8615C30.8013 85.8615 31.0978 85.9953 31.2722 86.1483C32.0919 86.8366 32.8941 86.3586 33.6092 84.7909C34.0452 83.854 35.2311 79.992 35.6671 78.061C35.8415 77.2963 36.0334 76.7036 36.0857 76.7419C37.7599 77.8125 39.5912 78.2714 41.7363 78.1375C45.3813 77.9081 45.3987 77.9081 47.9799 76.4551C50.0378 75.3079 50.561 74.7153 50.561 73.4917C50.561 72.6504 50.561 72.6313 51.0493 72.7652C51.311 72.8416 52.7062 72.9372 54.1363 72.9563C57.8685 73.0519 62.089 73.9123 64.426 75.0594C64.8968 75.2888 65.5944 75.8242 65.9781 76.2256C67.914 78.3669 67.7221 81.3304 65.5072 83.4908C63.6586 85.2688 59.4729 87.0851 54.8339 88.1175C52.3748 88.672 47.352 88.7676 34.4463 88.5381C28.0283 88.4234 23.7555 88.4043 23.6509 88.519C23.2323 88.9779 27.6272 89.972 31.4292 90.2779C35.7369 90.6221 46.5672 89.9338 51.433 89.0161C52.5666 88.8058 54.6769 88.7293 60.5019 88.7102C64.6701 88.6911 70.1638 88.6146 72.71 88.5381C75.7272 88.4425 73.4251 88.4234 66.0828 88.4808C59.909 88.519 54.8862 88.519 54.9385 88.4617C54.9908 88.4043 56.0896 88.0602 57.3801 87.6969C62.7343 86.2056 66.1525 84.0261 67.1815 81.4833C67.6001 80.4318 67.6349 78.7876 67.2513 77.8125C66.0828 74.7726 61.6181 73.0519 54.0491 72.6887C50.8226 72.5166 50.2122 72.421 50.2122 72.0386C50.2122 71.9239 49.7413 70.968 49.1833 69.9165C48.4333 68.5208 48.0845 67.6604 47.9624 66.8383C47.7008 65.1941 47.4567 59.8791 47.3346 53.3787C47.2125 46.8592 47.2648 47.0504 45.4336 45.1959C44.0907 43.8002 42.4165 42.7487 41.3177 42.5766C38.9459 42.2134 38.7017 42.0222 38.475 40.5309C38.3878 39.8426 38.4052 39.8235 39.1377 39.5176C40.2016 39.0588 41.2305 37.7778 41.6142 36.4013C42.0677 34.7762 42.0677 28.4861 41.6142 27.0331C40.9341 24.8727 38.5273 23.6108 36.0508 24.1079ZM39.8876 25.0447C41.3875 26.0963 41.8409 27.6449 41.8409 31.8319C41.8409 35.9807 41.2654 37.8352 39.6784 38.9249C38.8587 39.4603 38.7017 39.4985 37.0623 39.4985C34.7079 39.4985 34.3068 39.2308 32.0919 36.363C31.0106 34.9482 30.5048 32.6349 31.0455 31.5451C31.1501 31.3348 31.2548 30.5318 31.3071 29.7862C31.3594 28.8494 31.5164 28.1037 31.8303 27.4155C33.086 24.5859 37.4286 23.3049 39.8876 25.0447ZM34.2894 39.0779C34.9695 39.5941 36.8007 40.0338 37.7425 39.9191C38.039 39.8809 38.1087 40.0147 38.1785 40.9898C38.2657 42.1178 38.4924 42.4619 39.1028 42.4619C39.2598 42.4619 39.3993 42.5575 39.3993 42.6531C39.3993 43.1884 36.6961 48.1975 36.3996 48.1975C36.0334 48.1975 33.8882 44.9474 32.7197 42.6149C32.0745 41.353 32.0745 41.3339 32.4233 41.0663C32.8244 40.7604 33.1209 39.8235 33.1209 38.8676C33.1209 38.1793 33.0685 38.1602 34.2894 39.0779ZM34.7602 47.4902C35.4404 48.6182 35.8415 48.9814 36.2252 48.8285C36.3473 48.7711 37.01 49.3256 37.7076 50.0138C39.3644 51.7154 42.5386 54.5832 42.6258 54.4685C42.6781 54.4303 41.9805 53.7229 41.091 52.9199C40.219 52.136 38.8238 50.7977 38.039 49.9756L36.574 48.4843L37.4809 46.9931C37.9692 46.171 38.6843 44.8709 39.0854 44.087C39.7307 42.7487 39.8179 42.6531 40.3585 42.6531C40.9689 42.6531 41.2829 42.9208 40.9689 43.1311C40.8643 43.2076 40.4457 44.0105 40.0097 44.9282C39.5912 45.8651 38.8412 47.1843 38.3529 47.8916C37.2716 49.4211 37.5855 49.5741 38.8587 48.102C39.6784 47.1651 40.7771 45.043 41.2829 43.4179C41.3875 43.112 41.5793 42.8443 41.7014 42.8443C42.12 42.8443 44.2477 44.2591 45.2069 45.1768C45.7824 45.7121 46.3405 46.496 46.6195 47.0887C47.0556 48.0255 47.073 48.2358 47.073 50.9698C47.073 55.5774 47.4218 64.2764 47.666 66.1501C47.9101 67.8708 47.9799 68.0619 49.5844 71.1592L50.0378 72.0386L48.1717 72.0195C47.1253 72.0195 45.9219 72.0769 45.4859 72.1534L44.6837 72.3063L44.579 69.6679C44.5093 67.6796 44.3523 66.4177 43.9512 64.5632C43.4106 62.0969 43.4106 62.0395 43.4106 56.7245C43.4106 51.5242 43.3059 50.4153 43.0269 52.8434C42.835 54.6215 42.6955 55.7303 42.6083 55.998C42.5211 56.3039 41.8061 55.8068 39.1028 53.6082C36.7659 51.6963 35.3183 50.1859 33.8708 48.0637C32.7023 46.3813 30.6792 42.9781 30.6792 42.6722C30.6792 42.5766 30.9408 42.2707 31.2373 42.0031L31.8129 41.5251L32.9465 43.9532C33.5743 45.2915 34.3766 46.8784 34.7602 47.4902ZM40.1841 45.5592C39.8353 46.3239 39.4516 47.0695 39.3121 47.2034C39.19 47.3563 39.4516 46.6489 39.9051 45.6356C40.3411 44.6415 40.7248 43.8958 40.7597 43.9914C40.7945 44.087 40.5329 44.7944 40.1841 45.5592ZM35.2137 47.2034C35.702 47.8725 36.0683 48.4652 35.9985 48.5417C35.859 48.6946 35.2137 47.8725 34.4986 46.5725C33.8708 45.4636 33.958 45.5592 35.2137 47.2034ZM28.9875 56.3613C28.9178 56.6672 28.8655 58.3114 28.8655 60.0512L28.848 63.2058L29.4061 64.3911C29.72 65.0412 30.0514 65.6147 30.156 65.6912C30.2432 65.7486 30.4176 65.9971 30.5223 66.2265C30.6444 66.4751 30.3828 66.303 29.9119 65.8059C28.6039 64.4103 28.4992 64.0279 28.4992 60.6247C28.4992 57.5657 28.6562 55.8451 28.9527 55.8451C29.0399 55.8451 29.0573 56.0745 28.9875 56.3613ZM43.2187 61.1027C43.3059 62.1542 43.585 63.9323 43.8117 65.0603C44.2477 67.0869 44.6314 70.3371 44.2826 69.1326C44.143 68.5973 43.3582 64.4294 43.0443 62.5366C42.9746 62.0586 42.9222 60.9498 42.9222 60.0512C42.9397 58.2158 42.992 58.3878 43.2187 61.1027ZM35.8415 70.6047C36.731 71.0636 37.2891 71.1974 39.068 71.3504C40.3411 71.4842 41.5793 71.7136 42.12 71.9239C43.0618 72.3063 44.457 73.3196 44.457 73.6064C44.457 73.6829 43.9686 73.8167 43.3582 73.8549C42.12 73.9696 41.2131 74.3902 41.0561 74.9638C40.8469 75.6521 41.1085 75.7668 42.7304 75.6903C44.4221 75.633 44.6837 75.7477 44.5965 76.608C44.5093 77.4492 43.6547 77.889 41.8933 77.9846C41.091 78.0419 39.9574 77.9655 39.347 77.8316C37.9692 77.5448 36.1729 76.6463 35.9287 76.1301C35.6846 75.6521 34.1847 74.505 34.0278 74.677C33.9057 74.8109 35.3706 76.3021 35.6322 76.3021C35.859 76.3021 35.6322 77.5831 34.9346 80.0685C33.8185 84.1026 32.8418 86.2439 32.0919 86.2439C31.9349 86.2439 31.6385 86.11 31.4292 85.9571C31.1152 85.7086 31.0804 85.5747 31.2024 85.135C31.2722 84.8482 31.3943 83.7393 31.4466 82.6878C31.5687 80.1832 32.0745 78.4625 33.8534 74.6388C34.6033 73.0328 35.2137 71.618 35.2137 71.5033C35.2137 71.4077 34.4812 70.5283 33.6092 69.5914L31.9873 67.8708L33.3825 68.9605C34.1498 69.5532 35.266 70.2988 35.8415 70.6047ZM49.3402 72.3063C50.2297 72.5357 50.3866 72.7078 50.3866 73.549C50.3866 74.3329 49.8983 74.9829 48.6775 75.805C47.7357 76.436 45.2069 77.6404 44.8407 77.6404C44.7535 77.6404 44.8407 77.2963 45.0325 76.8566C45.3115 76.2256 45.3464 75.9962 45.172 75.5947C44.9802 75.1168 44.9453 75.1168 43.3582 75.1741C42.399 75.2315 41.7189 75.1741 41.684 75.0594C41.5445 74.677 42.4862 74.3902 43.8989 74.3902C44.6837 74.3902 45.329 74.3138 45.329 74.2373C45.329 74.1417 45.1371 73.874 44.893 73.6255C44.3872 73.1093 44.3174 72.574 44.7709 72.5166C44.9279 72.4975 45.4685 72.4019 45.9394 72.3063C47.1602 72.0769 48.4159 72.0769 49.3402 72.3063ZM24.3485 76.3404C25.1333 77.8699 28.1504 82.3628 29.7549 84.4658C30.7839 85.8233 30.47 85.7468 29.2666 84.3894C27.0866 81.923 24.9937 78.9405 24.1741 77.1625C23.7555 76.2448 23.3021 74.7726 23.459 74.7726C23.4939 74.7726 23.895 75.48 24.3485 76.3404ZM44.9453 75.5756C45.172 75.8242 45.2243 76.3021 45.0325 76.3021C44.9453 76.3021 44.8058 76.0918 44.6837 75.8242C44.4744 75.3079 44.5965 75.1932 44.9453 75.5756ZM40.4806 88.7867C45.9045 88.8058 50.2645 88.8823 50.1599 88.9396C50.0378 89.0161 48.66 89.2073 47.073 89.3794C37.6727 90.3735 30.3479 90.3162 25.7088 89.169C23.5113 88.6337 23.9473 88.4999 27.3656 88.6337C29.1445 88.7102 35.0393 88.7676 40.4806 88.7867Z" fill="#8A6D18"/>
<path d="M36.0508 24.1079C34.1673 24.4712 32.2314 25.9051 31.5164 27.4346C31.2896 27.9317 31.1152 28.7155 31.0804 29.5568C31.028 30.2833 30.8711 31.2583 30.7316 31.6981C30.4874 32.4246 30.4874 32.6349 30.7664 33.9732C31.028 35.235 31.1676 35.5792 31.7605 36.2292C32.1442 36.6689 32.5279 37.1851 32.5977 37.4146C32.7895 37.969 32.5453 40.1294 32.2314 40.4353C32.0919 40.5883 31.3245 41.0089 30.5048 41.4104C26.2843 43.4561 24.0171 45.2341 23.0928 47.2416C21.9068 49.8226 21.2616 55.3862 21.2616 63.2058C21.2616 68.1193 21.5057 70.165 22.3428 72.1534L22.8835 73.4534L22.3254 75.0212C20.4593 80.2023 20.3198 80.6803 20.3198 82.7069C20.3023 84.4085 20.3547 84.7335 20.7732 85.6703C21.0348 86.263 21.5232 87.0851 21.872 87.5248L22.4824 88.3278L21.5232 88.4425C20.9825 88.519 15.9772 88.5572 10.3963 88.519C4.81548 88.4617 0.594961 88.4999 1.03097 88.5764C2.00761 88.7293 21.4534 88.7676 22.3603 88.6146L23.0056 88.4808L22.2033 87.544C21.7673 87.0277 21.2092 86.1292 20.9476 85.5174C20.5465 84.5805 20.4767 84.1982 20.4942 82.7069C20.5116 80.8715 20.9128 79.3611 22.3777 75.5374C22.7265 74.6388 23.0056 73.7211 23.0056 73.4725C23.0056 73.2431 22.8137 72.6122 22.5696 72.096C21.6278 70.0694 21.5232 69.0752 21.5232 62.7278C21.5406 53.0728 22.308 48.2167 24.2089 45.8459C25.3077 44.4885 26.6506 43.5899 30.592 41.6207C32.0745 40.8751 32.2489 40.8177 31.7431 41.2766C31.4117 41.5633 30.9408 41.984 30.6967 42.1943L30.2607 42.5958L31.4466 44.6415C33.0685 47.4328 34.7428 49.7653 36.1903 51.2566C37.5681 52.6713 40.3236 54.9847 41.8061 55.9598L42.8002 56.6289L42.7478 59.2482C42.6955 61.1792 42.7653 62.2498 42.9746 63.3014C43.585 66.3604 44.0907 69.5914 44.2128 71.2165L44.3349 72.9181L43.3931 72.3445C42.0677 71.5224 41.4921 71.3504 39.2249 71.1592C38.1262 71.0445 36.8705 70.8342 36.4519 70.6621C34.2894 69.8209 30.4525 66.2265 29.5631 64.2382C28.9701 62.8999 28.8306 60.835 29.0922 57.7569C29.2143 56.2657 29.2317 55.52 29.0922 55.3671C28.9701 55.2333 28.8655 55.2715 28.7608 55.4436C28.4469 56.0171 28.2027 59.0379 28.2725 61.3895C28.3771 64.5632 28.4818 64.7544 31.9873 68.2722C33.4697 69.7635 34.7777 71.1401 34.8649 71.3504C35.0044 71.618 34.8474 72.096 34.0975 73.5681C32.0745 77.6022 31.4117 79.7053 31.185 82.8025C31.0804 84.1217 30.9757 85.2306 30.9234 85.2688C30.7839 85.4218 30.1212 84.5997 28.5864 82.4201C27.7319 81.2156 26.7203 79.7817 26.3541 79.2655C25.9878 78.7302 25.2379 77.4875 24.6973 76.4933C24.1741 75.4991 23.5985 74.505 23.4416 74.2947C23.18 73.9314 23.1625 73.9505 23.2323 74.8491C23.3544 76.2448 24.5229 78.5964 26.3192 81.0818C28.1853 83.6437 30.1735 85.8615 30.6269 85.8615C30.8013 85.8615 31.0978 85.9953 31.2722 86.1483C32.0919 86.8366 32.8941 86.3586 33.6092 84.7909C34.0452 83.854 35.2311 79.992 35.6671 78.061C35.8415 77.2963 36.0334 76.7036 36.0857 76.7419C37.7599 77.8125 39.5912 78.2714 41.7363 78.1375C45.3813 77.9081 45.3987 77.9081 47.9799 76.4551C50.0378 75.3079 50.561 74.7153 50.561 73.4917C50.561 72.6504 50.561 72.6313 51.0493 72.7652C51.311 72.8416 52.7062 72.9372 54.1363 72.9563C57.8685 73.0519 62.089 73.9123 64.426 75.0594C64.8968 75.2888 65.5944 75.8242 65.9781 76.2256C67.914 78.3669 67.7221 81.3304 65.5072 83.4908C63.6586 85.2688 59.4729 87.0851 54.8339 88.1175C52.3748 88.672 47.352 88.7676 34.4463 88.5381C28.0283 88.4234 23.7555 88.4043 23.6509 88.519C23.2323 88.9779 27.6272 89.972 31.4292 90.2779C35.7369 90.6221 46.5672 89.9338 51.433 89.0161C52.5666 88.8058 54.6769 88.7293 60.5019 88.7102C64.6701 88.6911 70.1638 88.6146 72.71 88.5381C75.7272 88.4425 73.4251 88.4234 66.0828 88.4808C59.909 88.519 54.8862 88.519 54.9385 88.4617C54.9908 88.4043 56.0896 88.0602 57.3801 87.6969C62.7343 86.2056 66.1525 84.0261 67.1815 81.4833C67.6001 80.4318 67.6349 78.7876 67.2513 77.8125C66.0828 74.7726 61.6181 73.0519 54.0491 72.6887C50.8226 72.5166 50.2122 72.421 50.2122 72.0386C50.2122 71.9239 49.7413 70.968 49.1833 69.9165C48.4333 68.5208 48.0845 67.6604 47.9624 66.8383C47.7008 65.1941 47.4567 59.8791 47.3346 53.3787C47.2125 46.8592 47.2648 47.0504 45.4336 45.1959C44.0907 43.8002 42.4165 42.7487 41.3177 42.5766C38.9459 42.2134 38.7017 42.0222 38.475 40.5309C38.3878 39.8426 38.4052 39.8235 39.1377 39.5176C40.2016 39.0588 41.2305 37.7778 41.6142 36.4013C42.0677 34.7762 42.0677 28.4861 41.6142 27.0331C40.9341 24.8727 38.5273 23.6108 36.0508 24.1079ZM39.8876 25.0447C41.3875 26.0963 41.8409 27.6449 41.8409 31.8319C41.8409 35.9807 41.2654 37.8352 39.6784 38.9249C38.8587 39.4603 38.7017 39.4985 37.0623 39.4985C34.7079 39.4985 34.3068 39.2308 32.0919 36.363C31.0106 34.9482 30.5048 32.6349 31.0455 31.5451C31.1501 31.3348 31.2548 30.5318 31.3071 29.7862C31.3594 28.8494 31.5164 28.1037 31.8303 27.4155C33.086 24.5859 37.4286 23.3049 39.8876 25.0447ZM34.2894 39.0779C34.9695 39.5941 36.8007 40.0338 37.7425 39.9191C38.039 39.8809 38.1087 40.0147 38.1785 40.9898C38.2657 42.1178 38.4924 42.4619 39.1028 42.4619C39.2598 42.4619 39.3993 42.5575 39.3993 42.6531C39.3993 43.1884 36.6961 48.1975 36.3996 48.1975C36.0334 48.1975 33.8882 44.9474 32.7197 42.6149C32.0745 41.353 32.0745 41.3339 32.4233 41.0663C32.8244 40.7604 33.1209 39.8235 33.1209 38.8676C33.1209 38.1793 33.0685 38.1602 34.2894 39.0779ZM34.7602 47.4902C35.4404 48.6182 35.8415 48.9814 36.2252 48.8285C36.3473 48.7711 37.01 49.3256 37.7076 50.0138C39.3644 51.7154 42.5386 54.5832 42.6258 54.4685C42.6781 54.4303 41.9805 53.7229 41.091 52.9199C40.219 52.136 38.8238 50.7977 38.039 49.9756L36.574 48.4843L37.4809 46.9931C37.9692 46.171 38.6843 44.8709 39.0854 44.087C39.7307 42.7487 39.8179 42.6531 40.3585 42.6531C40.9689 42.6531 41.2829 42.9208 40.9689 43.1311C40.8643 43.2076 40.4457 44.0105 40.0097 44.9282C39.5912 45.8651 38.8412 47.1843 38.3529 47.8916C37.2716 49.4211 37.5855 49.5741 38.8587 48.102C39.6784 47.1651 40.7771 45.043 41.2829 43.4179C41.3875 43.112 41.5793 42.8443 41.7014 42.8443C42.12 42.8443 44.2477 44.2591 45.2069 45.1768C45.7824 45.7121 46.3405 46.496 46.6195 47.0887C47.0556 48.0255 47.073 48.2358 47.073 50.9698C47.073 55.5774 47.4218 64.2764 47.666 66.1501C47.9101 67.8708 47.9799 68.0619 49.5844 71.1592L50.0378 72.0386L48.1717 72.0195C47.1253 72.0195 45.9219 72.0769 45.4859 72.1534L44.6837 72.3063L44.579 69.6679C44.5093 67.6796 44.3523 66.4177 43.9512 64.5632C43.4106 62.0969 43.4106 62.0395 43.4106 56.7245C43.4106 51.5242 43.3059 50.4153 43.0269 52.8434C42.835 54.6215 42.6955 55.7303 42.6083 55.998C42.5211 56.3039 41.8061 55.8068 39.1028 53.6082C36.7659 51.6963 35.3183 50.1859 33.8708 48.0637C32.7023 46.3813 30.6792 42.9781 30.6792 42.6722C30.6792 42.5766 30.9408 42.2707 31.2373 42.0031L31.8129 41.5251L32.9465 43.9532C33.5743 45.2915 34.3766 46.8784 34.7602 47.4902ZM40.1841 45.5592C39.8353 46.3239 39.4516 47.0695 39.3121 47.2034C39.19 47.3563 39.4516 46.6489 39.9051 45.6356C40.3411 44.6415 40.7248 43.8958 40.7597 43.9914C40.7945 44.087 40.5329 44.7944 40.1841 45.5592ZM35.2137 47.2034C35.702 47.8725 36.0683 48.4652 35.9985 48.5417C35.859 48.6946 35.2137 47.8725 34.4986 46.5725C33.8708 45.4636 33.958 45.5592 35.2137 47.2034ZM28.9875 56.3613C28.9178 56.6672 28.8655 58.3114 28.8655 60.0512L28.848 63.2058L29.4061 64.3911C29.72 65.0412 30.0514 65.6147 30.156 65.6912C30.2432 65.7486 30.4176 65.9971 30.5223 66.2265C30.6444 66.4751 30.3828 66.303 29.9119 65.8059C28.6039 64.4103 28.4992 64.0279 28.4992 60.6247C28.4992 57.5657 28.6562 55.8451 28.9527 55.8451C29.0399 55.8451 29.0573 56.0745 28.9875 56.3613ZM43.2187 61.1027C43.3059 62.1542 43.585 63.9323 43.8117 65.0603C44.2477 67.0869 44.6314 70.3371 44.2826 69.1326C44.143 68.5973 43.3582 64.4294 43.0443 62.5366C42.9746 62.0586 42.9222 60.9498 42.9222 60.0512C42.9397 58.2158 42.992 58.3878 43.2187 61.1027ZM35.8415 70.6047C36.731 71.0636 37.2891 71.1974 39.068 71.3504C40.3411 71.4842 41.5793 71.7136 42.12 71.9239C43.0618 72.3063 44.457 73.3196 44.457 73.6064C44.457 73.6829 43.9686 73.8167 43.3582 73.8549C42.12 73.9696 41.2131 74.3902 41.0561 74.9638C40.8469 75.6521 41.1085 75.7668 42.7304 75.6903C44.4221 75.633 44.6837 75.7477 44.5965 76.608C44.5093 77.4492 43.6547 77.889 41.8933 77.9846C41.091 78.0419 39.9574 77.9655 39.347 77.8316C37.9692 77.5448 36.1729 76.6463 35.9287 76.1301C35.6846 75.6521 34.1847 74.505 34.0278 74.677C33.9057 74.8109 35.3706 76.3021 35.6322 76.3021C35.859 76.3021 35.6322 77.5831 34.9346 80.0685C33.8185 84.1026 32.8418 86.2439 32.0919 86.2439C31.9349 86.2439 31.6385 86.11 31.4292 85.9571C31.1152 85.7086 31.0804 85.5747 31.2024 85.135C31.2722 84.8482 31.3943 83.7393 31.4466 82.6878C31.5687 80.1832 32.0745 78.4625 33.8534 74.6388C34.6033 73.0328 35.2137 71.618 35.2137 71.5033C35.2137 71.4077 34.4812 70.5283 33.6092 69.5914L31.9873 67.8708L33.3825 68.9605C34.1498 69.5532 35.266 70.2988 35.8415 70.6047ZM49.3402 72.3063C50.2297 72.5357 50.3866 72.7078 50.3866 73.549C50.3866 74.3329 49.8983 74.9829 48.6775 75.805C47.7357 76.436 45.2069 77.6404 44.8407 77.6404C44.7535 77.6404 44.8407 77.2963 45.0325 76.8566C45.3115 76.2256 45.3464 75.9962 45.172 75.5947C44.9802 75.1168 44.9453 75.1168 43.3582 75.1741C42.399 75.2315 41.7189 75.1741 41.684 75.0594C41.5445 74.677 42.4862 74.3902 43.8989 74.3902C44.6837 74.3902 45.329 74.3138 45.329 74.2373C45.329 74.1417 45.1371 73.874 44.893 73.6255C44.3872 73.1093 44.3174 72.574 44.7709 72.5166C44.9279 72.4975 45.4685 72.4019 45.9394 72.3063C47.1602 72.0769 48.4159 72.0769 49.3402 72.3063ZM24.3485 76.3404C25.1333 77.8699 28.1504 82.3628 29.7549 84.4658C30.7839 85.8233 30.47 85.7468 29.2666 84.3894C27.0866 81.923 24.9937 78.9405 24.1741 77.1625C23.7555 76.2448 23.3021 74.7726 23.459 74.7726C23.4939 74.7726 23.895 75.48 24.3485 76.3404ZM44.9453 75.5756C45.172 75.8242 45.2243 76.3021 45.0325 76.3021C44.9453 76.3021 44.8058 76.0918 44.6837 75.8242C44.4744 75.3079 44.5965 75.1932 44.9453 75.5756ZM40.4806 88.7867C45.9045 88.8058 50.2645 88.8823 50.1599 88.9396C50.0378 89.0161 48.66 89.2073 47.073 89.3794C37.6727 90.3735 30.3479 90.3162 25.7088 89.169C23.5113 88.6337 23.9473 88.4999 27.3656 88.6337C29.1445 88.7102 35.0393 88.7676 40.4806 88.7867Z" stroke="#8A6D18" stroke-width="2" mask="url(#path-2-outside-1_765_2312)"/>
</g>
<defs>
<clipPath id="clip0_765_2312">
<rect width="73" height="90" fill="white" transform="translate(1)"/>
</clipPath>
</defs>
</svg>
