<svg width="81" height="99" viewBox="0 0 81 99" fill="none" xmlns="http://www.w3.org/2000/svg">
<path d="M69.9698 81.6465H11.7546C7.48963 81.6465 4 78.1569 4 73.8919V35.268C4 15.8707 19.8705 0 39.268 0C60.419 0 77.7245 17.3054 77.7245 38.4565V73.8919C77.7245 78.1569 74.2348 81.6465 69.9698 81.6465Z" fill="#EED282"/>
<mask id="path-2-outside-1_764_2247" maskUnits="userSpaceOnUse" x="1.34778" y="24.1638" width="79" height="67" fill="black">
<rect fill="white" x="1.34778" y="24.1638" width="79" height="67"/>
<path d="M31.2267 25.8509C29.3522 26.5054 27.6447 27.7584 26.8281 29.1049C26.4012 29.7781 26.3641 31.0685 26.7353 31.7978C26.9765 32.2653 26.9765 32.3214 26.6425 32.5272C26.0671 32.9012 26.1785 34.1167 26.9394 35.725C27.7561 37.4268 27.7746 38.1375 27.0322 38.9416C26.6982 39.3156 26.4012 39.9328 26.2713 40.5312C25.9743 41.859 26.2156 42.981 27.6818 47.2262C29.7048 53.0983 30.3544 55.0806 30.5586 56.0344C30.6699 56.5393 31.1339 57.7175 31.5979 58.6151C32.2661 59.9616 32.4146 60.4478 32.4146 61.2707C32.4146 62.6919 32.1918 63.1595 31.4494 63.3091C31.1154 63.3652 30.0018 63.7579 28.981 64.1693C27.9602 64.562 26.8838 64.9174 26.6054 64.9548C26.1042 65.0109 26.0486 64.9548 25.6588 63.7018C25.4175 62.9724 24.8422 61.439 24.3596 60.2608C23.8771 59.0826 23.246 57.2873 22.9491 56.2775C22.3181 54.0708 21.8169 53.1544 20.4435 51.8079L19.4042 50.7607L20.759 50.0874C21.5014 49.7321 22.448 49.3394 22.8563 49.2272C23.2646 49.115 23.6915 48.9654 23.8028 48.8906C24.2483 48.5539 24.6195 47.7685 24.6195 47.0953C24.6195 46.235 25.0463 45.1317 25.4547 44.9821C25.863 44.8137 25.8073 44.608 25.1577 43.8039C24.471 42.9249 24.0627 41.6159 24.0627 40.232C24.0627 38.5863 23.5987 37.2772 22.6893 36.3983C21.7798 35.5006 19.4227 34.229 17.8452 33.7801C14.7457 32.8638 11.2008 34.3786 9.84591 37.1837C9.4376 38.0066 9.32624 38.5863 9.23344 40.0263C9.12208 41.8029 9.10352 41.8777 8.52817 42.3639C8.1941 42.6444 7.9157 42.9997 7.9157 43.1306C7.9157 43.2616 7.78578 43.6169 7.6373 43.8974C7.28467 44.5706 7.28467 45.113 7.61874 45.8984C7.86002 46.4781 8.75089 47.3945 9.252 47.5815C9.4376 47.6376 9.45616 47.7498 9.252 48.0677C8.95504 48.5727 8.9736 49.4329 9.28912 49.863C9.51184 50.1622 9.49328 50.3492 9.21488 51.1908C9.02928 51.7331 8.54673 52.7243 8.13842 53.3975C7.30323 54.8001 6.52372 57.119 6.24532 59.0265C5.72565 62.8228 6.33812 66.0581 8.62097 71.2757C10.1057 74.6419 10.18 76.0071 9.19632 82.0288C8.78801 84.647 8.73233 88.0505 9.10352 89.0791L9.36336 89.7897H5.85557C3.64696 89.7897 2.34778 89.8645 2.34778 89.9767C2.34778 90.089 3.73976 90.1638 6.15252 90.1638C9.6232 90.1638 10.3656 90.0703 9.77167 89.6962C9.0664 89.2474 9.01072 85.6942 9.67887 81.3369C10.2171 77.6902 10.2913 74.8289 9.84591 73.3141C9.67887 72.7531 9.08496 71.2944 8.52817 70.0601C6.98771 66.6566 6.56084 64.8613 6.56084 61.5512C6.56084 58.1663 6.89491 56.7637 8.47249 53.6032C9.08496 52.369 9.58608 51.2656 9.58608 51.1721C9.58608 50.5363 9.88303 50.5176 11.6462 50.9664C15.9149 52.0884 19.7939 53.8463 19.7939 54.6692C19.7939 54.744 19.3114 55.118 18.736 55.5107C18.0864 55.9409 17.5111 56.5206 17.2512 56.9694C16.1933 58.8769 15.618 64.001 16.1377 66.8997C16.4717 68.7885 17.3812 71.07 18.569 73.0897C20.5549 76.4559 21.8355 77.578 23.4502 77.3909C25.1948 77.2039 29.2223 74.8476 31.2453 72.8466C32.4146 71.7058 33.3425 70.1162 33.3425 69.256C33.3425 69.0316 33.3982 68.8446 33.491 68.8446C33.5653 68.8446 34.2705 69.1812 35.0686 69.5926C36.5163 70.3594 37.537 70.5277 37.9454 70.1162C38.0753 69.9853 38.1681 69.5552 38.1681 69.1438C38.1681 68.2835 37.3329 66.6192 36.6647 66.1516C36.275 65.8898 36.275 65.815 36.4977 65.0296C36.6833 64.3563 36.6833 64.1132 36.4977 63.8888C36.1079 63.4213 35.18 63.3839 34.0849 63.7766C32.6929 64.2815 32.5259 64.1132 32.7115 62.3179C32.8043 61.2146 32.8785 61.0275 33.0827 61.1959C33.2869 61.3642 33.4168 61.3455 33.6395 61.1584C34.5675 60.3917 35.1243 57.9045 34.9572 55.2676C34.8273 53.491 34.6417 52.8178 33.4353 49.8817C33.0456 48.9654 32.6929 47.862 32.6373 47.4506C32.5445 46.7025 32.5445 46.6838 32.9157 47.0205C33.1198 47.1888 33.5467 48.1425 33.8808 49.0963C34.4376 50.7046 35.0315 51.677 35.3099 51.4152C35.3656 51.3591 35.4769 50.3118 35.5697 49.0963C35.7739 46.4781 35.6254 43.3364 35.2728 42.6257C35.1243 42.3452 35.0129 42.0834 35.0129 42.0086C35.0129 41.7281 35.978 41.9712 36.6462 42.42C38.0567 43.3925 42.1213 47.2262 42.3626 47.8433C42.5296 48.236 42.6224 49.2646 42.6224 50.8355C42.6224 53.3227 42.7338 53.9211 43.8288 57.5304C44.5526 59.9242 44.5526 61.9813 43.7917 66.0394C42.6595 72.0238 42.5482 75.4834 43.3648 79.3172C44.0144 82.4589 43.8288 83.6371 42.4368 84.7405L41.6573 85.3763L41.7687 86.9659C41.8429 87.8448 41.9357 88.9295 41.9914 89.3596L42.1027 90.1638H49.6937H57.2846L57.1918 89.1913C56.8392 85.1519 56.7092 81.019 56.8763 78.4756C57.0619 75.6705 56.9505 73.95 56.5237 72.9401C56.3381 72.4352 56.3566 72.3604 56.802 72.0051C57.4331 71.5001 57.8785 69.9853 57.73 68.8259C57.6187 68.0217 57.6558 67.9282 58.1198 67.6103C58.5467 67.3298 58.6395 67.3298 58.7879 67.5542C59.1591 68.1526 58.955 70.4716 58.3054 73.0336C57.8228 74.885 57.6187 76.1941 57.5259 77.7276C57.4145 79.953 57.7486 85.8064 58.0641 87.0594C58.3425 88.1814 59.4004 89.1726 60.681 89.4905C62.3514 89.9206 66.6573 90.1825 70.926 90.1264L74.8236 90.0703L74.7679 89.4531C74.7308 89.1352 74.7679 88.8547 74.8421 88.8547C74.8978 88.8547 75.2875 89.1539 75.6773 89.5092C76.364 90.1264 76.4754 90.1638 77.7003 90.1638C78.4427 90.1638 78.9995 90.089 78.9995 89.9767C78.9995 89.8645 78.4427 89.7897 77.7189 89.7897H76.4568L75.5288 88.7986C74.638 87.8635 74.5823 87.7326 74.4524 86.5171C74.3224 85.2454 73.6728 81.5987 73.5244 81.3743C73.4873 81.2995 73.3573 80.514 73.246 79.5977L73.0418 77.952L73.5429 77.4284C74.1183 76.8299 74.341 75.8575 74.341 73.8939C74.3596 72.1173 74.2296 71.6123 73.8028 71.7432C73.58 71.818 73.4501 71.6684 73.3017 71.1822L73.0975 70.5277H74.0626C75.8629 70.5277 77.0136 69.4056 77.2178 67.442C77.459 65.2166 77.4962 61.8504 77.3291 59.5876C77.0322 55.6042 76.4197 53.8837 74.6936 52.1445C74.0812 51.5461 73.7285 51.0786 73.8956 51.0786C74.4338 51.0786 74.174 50.7981 73.1903 50.3305C71.5014 49.5077 70.9074 47.8059 70.3878 42.046C70.2207 40.3255 70.0908 38.3806 70.0908 37.7447C70.0908 36.1178 69.7939 35.2014 68.9958 34.416C68.1235 33.537 67.0841 33.2378 65.2282 33.35C62.5556 33.4996 59.8644 35.2575 58.7323 37.5577C58.194 38.6611 58.1383 38.979 58.0641 40.9052C57.9899 42.7566 58.0455 43.2803 58.491 45.0943C59.0849 47.5441 59.0478 48.5165 58.3239 49.489C58.0455 49.8443 57.86 50.2183 57.9342 50.3118C57.9899 50.4241 57.7486 50.6298 57.4145 50.7981C57.0619 50.9664 56.5979 51.2656 56.3752 51.4713C55.1688 52.5934 54.2779 55.9783 53.2015 63.5148C52.5147 68.2648 52.8117 69.6674 54.8533 71.4253C55.3729 71.8741 55.9297 72.4726 56.0782 72.7531C56.5793 73.7629 56.7092 75.4273 56.5051 78.513C56.3381 81.206 56.468 85.582 56.8206 89.0043L56.9134 89.7897H49.6937H42.4739L42.3626 89.0978C42.3069 88.7051 42.2141 87.7513 42.1399 86.9659L42.0285 85.5446L42.6781 85.0397C43.5133 84.3851 44.1072 83.1883 44.1072 82.1036C44.1072 81.6548 43.9401 80.4392 43.736 79.4107C42.9379 75.446 43.0493 71.7432 44.1072 66.1329C45.0537 61.0649 45.0352 60.186 43.8102 56.2962C43.1978 54.3513 43.1421 53.8837 43.0122 51.0786C42.9194 49.0776 42.7894 47.8059 42.6224 47.4506C42.3069 46.7961 37.4071 42.3826 36.4606 41.8964C36.0708 41.7094 35.5883 41.5411 35.3841 41.5411C34.9944 41.5411 34.9944 41.5411 35.347 41.0174C35.8852 40.2507 36.7761 38.3993 37.1473 37.2585C37.3886 36.4918 37.4442 35.9682 37.3514 35.0518C37.2772 34.3225 37.2958 33.8923 37.4071 33.9484C37.7226 34.1542 38.6877 32.8077 38.8177 31.9474C39.1517 29.7968 37.3886 27.0478 34.9387 25.907C33.7694 25.3647 32.6929 25.346 31.2267 25.8509ZM34.9572 26.2997C37.4628 27.5527 39.1517 30.788 38.2238 32.5459C38.0382 32.9012 37.7969 33.2191 37.6855 33.2565C37.3514 33.3687 37.203 32.4711 37.3514 31.2555C37.4442 30.3765 37.4071 30.0212 37.1102 29.4415C36.906 29.0488 36.5905 28.3942 36.3863 27.9828C35.8481 26.8794 34.7716 26.3932 32.86 26.3745C31.0783 26.3558 30.2245 26.6737 29.2037 27.6649C27.9417 28.8992 27.4962 31.349 27.8674 34.9396C27.9417 35.725 27.9231 36.3048 27.8303 36.3048C27.5519 36.3048 26.661 34.2664 26.661 33.6118C26.661 33.163 26.791 32.9012 27.0879 32.6955C27.4962 32.4337 27.4962 32.415 27.1807 31.8539C26.4383 30.5636 27.0508 28.8244 28.6469 27.6462C31.1154 25.8509 33.1569 25.4021 34.9572 26.2997ZM34.883 27.0665C35.6625 27.4779 36.1265 27.8893 36.1265 28.2072C36.1265 28.3942 36.0337 28.4129 35.7739 28.2633C35.5697 28.1698 34.9944 27.9828 34.4747 27.8706C32.5074 27.4592 30.3915 28.6747 29.278 30.8815C28.9439 31.536 28.6284 31.9287 28.3871 31.9661C28.0345 32.0222 28.0345 31.9661 28.1644 30.9563C28.2386 30.3578 28.5356 29.4041 28.8325 28.8431C29.2594 28.0015 29.5378 27.721 30.3544 27.2909C31.1896 26.842 31.5608 26.7672 32.8229 26.7672C33.8065 26.7672 34.4747 26.8607 34.883 27.0665ZM34.9016 28.3381C36.0708 28.6934 36.3492 28.9553 36.1079 29.4041C35.8481 29.9277 34.6788 30.6571 33.6209 30.9563C32.4888 31.2929 29.6306 31.6856 29.4821 31.536C29.1852 31.2368 30.8184 29.1797 31.765 28.6934C32.9899 28.0389 33.6581 27.9641 34.9016 28.3381ZM37.0545 30.8254C37.0545 31.6669 36.8874 31.8165 36.4977 31.349C36.1079 30.8815 35.4027 31.0311 34.2334 31.8165C33.027 32.6207 32.2846 32.9012 30.7999 33.0695C29.5007 33.2191 28.8882 33.0508 29.0181 32.5646C29.1295 32.1344 29.3151 32.0783 31.0783 31.8165C33.9179 31.4238 35.6625 30.7319 36.275 29.7968C36.5534 29.3667 36.5719 29.3667 36.8132 29.6846C36.9431 29.8716 37.0545 30.3765 37.0545 30.8254ZM36.4606 31.91C36.739 32.2653 36.8503 32.8077 36.9431 34.3973C37.073 36.2861 37.0545 36.4918 36.6091 37.6886C35.8852 39.6149 35.2356 40.7182 34.252 41.6346C32.9528 42.8688 32.0805 42.9623 30.9483 41.9899C30.1688 41.3353 28.9439 38.7733 28.5727 37.0341C28.3129 35.7811 28.3129 35.4819 28.5356 34.5282L28.7954 33.4622L30.373 33.4248C32.0434 33.3874 33.2126 32.9947 34.7531 31.9287C35.6439 31.3303 35.9966 31.3116 36.4606 31.91ZM28.7026 32.4524C28.7026 32.5085 28.6284 32.602 28.517 32.6581C28.4242 32.7142 28.3314 32.6768 28.3314 32.5833C28.3314 32.4711 28.4242 32.3776 28.517 32.3776C28.6284 32.3776 28.7026 32.415 28.7026 32.4524ZM28.35 33.7053C28.1829 34.1354 28.1644 34.1167 28.1644 33.4996C28.1458 33.0695 28.2015 32.9199 28.3314 33.0508C28.4613 33.1817 28.4613 33.4061 28.35 33.7053ZM18.0864 34.229C19.4227 34.6404 21.4086 35.725 22.3366 36.5479C23.2275 37.352 23.4873 38.0627 23.6729 40.232C23.84 42.0086 24.1369 42.9997 24.9164 44.1779C25.2134 44.6454 25.2134 44.6828 24.8422 45.0943C24.6195 45.3374 24.3967 45.8984 24.3411 46.3846C24.0812 48.4043 23.8956 48.6662 22.6707 48.928C22.3737 48.9841 21.52 49.3394 20.7776 49.7134L19.4599 50.3679L18.4391 49.7882C16.5274 48.6849 15.4138 47.2262 15.6737 46.1602C15.7293 45.9732 16.0449 45.5992 16.3789 45.3374L17.01 44.8698L16.4346 43.7852C15.4881 42.0647 15.9149 41.3166 17.6039 41.7468C18.8103 42.0647 19.3671 41.8029 19.5341 40.8491C19.7568 39.5588 20.0538 39.2034 21.2602 38.7546C23.2646 38.0253 23.1347 37.1089 20.9075 35.9869C18.3277 34.6965 15.0241 34.3412 13.2052 35.164C11.7204 35.8372 10.7739 36.8845 10.0315 38.7172C9.69743 39.5213 9.58608 39.6523 9.58608 39.2782C9.58608 38.9977 9.71599 38.4367 9.86447 38.0066C10.9595 34.8461 14.6529 33.1443 18.0864 34.229ZM67.3069 34.7713C68.4576 35.9682 68.8844 37.3707 69.3484 41.5411C69.5526 43.3364 69.8495 45.3187 69.998 45.9358C70.3878 47.4506 71.2044 49.1711 71.9468 50.0313C72.4479 50.5924 72.5221 50.7607 72.2994 50.9103C71.7612 51.2469 70.5734 50.9477 69.5711 50.1809C69.1072 49.8256 68.8288 49.7508 68.3276 49.8256C67.7152 49.9191 67.6595 49.8817 67.2697 49.1524C66.9357 48.5352 66.8429 48.049 66.8429 46.9644C66.8429 45.4309 67.2141 44.4584 68.2534 43.2616C68.903 42.5135 68.9772 41.5411 68.4204 40.98C68.0121 40.5686 67.808 40.5312 67.3254 40.7743C67.0656 40.9239 66.8057 40.7182 65.9149 39.7271C64.4672 38.1001 63.2794 37.5203 61.7018 37.6886C60.6254 37.8009 60.6068 37.8009 60.8295 37.3707C60.9594 37.1463 61.442 36.5105 61.906 35.9494C62.8896 34.7713 64.56 33.8736 65.7107 33.8736C66.3418 33.8736 66.5645 34.0045 67.3069 34.7713ZM68.1606 34.1729C69.0329 34.5843 69.5526 35.5193 69.6454 36.8284C69.6825 37.4081 69.8495 39.4839 70.0166 41.4289C70.1651 43.3738 70.2393 45.0008 70.1836 45.0569C70.1279 45.113 70.0908 45.0756 70.0908 44.9821C70.0908 44.8885 69.9238 43.3364 69.7196 41.5411C69.2371 37.1837 68.8102 35.7437 67.6224 34.4721C66.9913 33.8175 67.1769 33.7053 68.1606 34.1729ZM63.2237 34.2477C62.6112 34.6778 62.2957 34.8087 62.2957 34.6591C62.2957 34.5656 62.4813 34.3973 62.7226 34.2851C63.2423 34.0232 63.5949 34.0045 63.2237 34.2477ZM18.8288 35.5941C21.3529 36.3609 22.7078 37.2959 22.2067 37.8944C22.0953 38.044 21.5942 38.2871 21.1117 38.4554C20.0352 38.8107 19.4784 39.3717 19.3114 40.232C19.0515 41.6159 18.8288 41.7281 17.2698 41.3166C16.4346 41.0922 16.3975 41.0922 15.9706 41.5972C15.3953 42.2704 15.4138 42.6818 16.0077 43.8039L16.5089 44.7015L15.9149 45.1878C15.451 45.5992 15.3396 45.8236 15.3396 46.4407C15.3396 47.301 15.5438 47.7685 16.3233 48.5914C16.6388 48.928 16.8615 49.2085 16.8058 49.2085C16.7687 49.2085 16.1005 49.0028 15.3396 48.7784C13.9847 48.3482 13.9291 48.3108 13.3723 47.301C13.0567 46.7399 12.7412 45.9171 12.6856 45.4683C12.5556 44.421 12.0916 43.8039 11.0523 43.2616C10.0872 42.7753 9.99439 42.5696 9.97583 41.0361C9.93871 38.3806 11.7947 35.7811 14.1518 35.2014C15.154 34.9396 17.344 35.1266 18.8288 35.5941ZM61.5905 35.5193C61.4049 35.7063 60.978 36.2487 60.6439 36.7349C59.9201 37.726 59.6974 37.8196 59.6974 37.1463C59.6974 36.5666 61.0151 35.1827 61.5533 35.1827C61.906 35.1827 61.906 35.2014 61.5905 35.5193ZM59.0849 39.1473C58.7508 39.7271 58.4539 40.1759 58.4167 40.1385C58.3425 40.045 58.6766 38.6237 58.955 37.8757C59.1406 37.3894 59.1591 37.3894 59.4004 37.726C59.6417 38.0253 59.586 38.1936 59.0849 39.1473ZM28.7583 38.9603C28.9253 39.4652 29.0181 39.858 28.981 39.858C28.814 39.858 28.3314 38.7359 28.3314 38.3432C28.3314 37.8009 28.4056 37.8944 28.7583 38.9603ZM63.7619 38.3619C64.1517 38.5489 65.024 39.3156 65.6922 40.0637C66.7686 41.2605 66.9357 41.3728 67.2883 41.1857C67.5667 41.0174 67.7894 41.0174 68.0492 41.167C68.6246 41.485 68.5318 42.4013 67.8451 43.1868C66.8614 44.3088 66.4717 45.3748 66.4717 46.9644C66.4717 48.0116 66.583 48.5914 66.88 49.2459L67.2883 50.1435L66.6944 50.5363C65.6179 51.2843 64.3187 52.6495 63.8733 53.5097C63.2608 54.7253 63.0567 55.6042 62.6669 58.8021C62.2772 62 62.0916 62.7293 61.6461 62.561C60.6996 62.187 60.3655 58.9891 60.8852 55.0993C61.0522 53.865 61.3306 51.7892 61.4977 50.4802L61.8132 48.1051L60.9409 46.2724C59.883 44.0283 59.4375 42.2517 59.5674 40.5873C59.6602 39.0164 59.9943 38.3058 60.7182 38.1562C61.8503 37.9131 63.0567 37.9879 63.7619 38.3619ZM28.3314 39.5588C28.3314 39.6523 28.4613 39.8954 28.6469 40.0824C28.814 40.2694 28.9068 40.4751 28.8511 40.5312C28.7026 40.6621 28.0345 39.6897 27.886 39.1099C27.7561 38.6611 27.7746 38.6611 28.0345 38.9977C28.2015 39.2034 28.3314 39.4465 28.3314 39.5588ZM26.9209 40.2694C26.4754 41.5411 26.7538 42.3078 28.4799 44.795L29.5007 46.2724L29.9461 45.7675L30.3915 45.2439L30.7627 45.7301C30.9669 45.9919 31.2638 46.2163 31.4309 46.2163C31.6165 46.2163 31.6722 46.3098 31.5794 46.5342C31.5237 46.7212 31.3381 47.7872 31.1896 48.8906C30.9483 50.8168 30.3915 53.3975 30.2616 53.2666C30.1131 53.117 28.3129 48.1425 27.5148 45.7114C26.494 42.5696 26.3084 41.2044 26.7167 40.1759C27.125 39.2221 27.2735 39.2969 26.9209 40.2694ZM29.8533 41.8403C30.4658 42.3265 30.9298 42.8314 30.9298 43.0184C30.9298 43.5234 30.2616 44.9821 29.8533 45.3374C29.5192 45.6553 29.4636 45.5992 28.3685 43.9722C27.0879 42.0647 26.8652 41.354 27.2921 40.3442L27.589 39.6523L28.1644 40.3255C28.4984 40.6995 29.2408 41.3915 29.8533 41.8403ZM59.6788 44.1592C59.9015 44.8885 60.3841 46.048 60.7367 46.7212C61.3677 47.9181 61.5348 48.6475 61.1821 48.6475C61.0893 48.6475 60.9409 48.423 60.8852 48.1238C60.811 47.8433 60.3098 46.5716 59.7716 45.2813C58.6209 42.5696 58.4353 41.6907 58.7879 40.6808L59.0292 39.9515L59.1591 41.3728C59.2334 42.1769 59.4561 43.4112 59.6788 44.1592ZM9.75311 42.7379C9.71599 42.7753 9.40048 42.8501 9.08496 42.9062C8.36113 43.0558 8.28689 42.8127 8.93649 42.5135C9.19632 42.4013 9.40048 42.1956 9.41904 42.0647C9.41904 41.9338 9.51184 42.0086 9.6232 42.2517C9.73455 42.4761 9.79023 42.7005 9.75311 42.7379ZM33.8808 42.981C33.1198 43.7104 33.1013 43.7104 32.5074 43.4299C31.9877 43.1681 31.9691 43.1306 32.3032 43.0745C33.1198 42.9623 33.8622 42.6444 34.1963 42.2704C34.3819 42.0647 34.5675 41.9712 34.6046 42.0647C34.6417 42.1769 34.3076 42.5883 33.8808 42.981ZM35.05 43.5608C35.2171 44.1779 34.9387 45.6553 34.6788 45.6553C34.5118 45.6366 33.5281 44.2153 33.5281 43.9722C33.5281 43.7104 34.5118 42.8314 34.716 42.9062C34.8273 42.9436 34.9758 43.2429 35.05 43.5608ZM10.7553 44.4023C11.2193 45.0569 11.7204 45.6927 11.8875 45.8236C12.0545 45.9732 12.1844 46.2163 12.1844 46.3846C12.1659 46.7399 11.2008 45.674 10.6069 44.7015C10.4027 44.3462 9.95727 43.9348 9.64176 43.7852C8.91793 43.4486 8.86225 43.2242 9.47472 43.2242C9.80879 43.2242 10.1243 43.5234 10.7553 44.4023ZM11.7947 44.2714C12.203 44.795 12.4628 45.4496 12.3144 45.5992C12.203 45.7114 10.6997 43.8226 10.6997 43.5795C10.6997 43.299 11.3678 43.7291 11.7947 44.2714ZM31.6722 43.486C31.6722 43.5234 31.5422 43.6543 31.3938 43.7852C31.1525 43.9909 31.1339 43.9722 31.2267 43.7104C31.3195 43.4486 31.6722 43.2803 31.6722 43.486ZM9.23344 43.9722C9.71599 44.234 10.1985 44.7202 10.6254 45.3748C11.3121 46.4781 11.9803 47.0392 12.4072 46.8709C12.6856 46.7586 13.6135 48.1799 13.3537 48.3295C13.2609 48.3669 12.7412 48.423 12.1844 48.4417C11.1451 48.4978 10.3841 48.7784 9.97583 49.2833C9.84591 49.4516 9.66031 49.5264 9.56752 49.4703C9.27056 49.2833 9.40048 48.4604 9.77167 48.0864C10.2542 47.6002 10.2542 47.5815 9.5304 47.2823C8.08274 46.6651 7.32179 45.0195 8.02706 44.0096C8.36113 43.5047 8.32401 43.5047 9.23344 43.9722ZM60.347 47.7872C60.6068 48.6288 60.5882 48.741 60.3098 49.0589C59.9201 49.489 58.7879 50.2183 58.658 50.1061C58.6209 50.05 58.7508 49.6386 58.955 49.1898C59.419 48.1612 59.419 47.2449 58.955 45.4683C58.7508 44.7015 58.5838 43.9348 58.5838 43.7852C58.5838 43.4112 60.0129 46.6277 60.347 47.7872ZM32.5259 44.047C32.6558 44.4023 31.9134 45.8423 31.5979 45.8423C31.301 45.8423 30.7442 45.3561 30.7442 45.0943C30.7442 44.8511 31.9134 43.7852 32.1918 43.7852C32.3218 43.7852 32.4702 43.8974 32.5259 44.047ZM34.1035 45.5992L34.6974 46.4594L35.0686 46.0106L35.4398 45.5618L35.3099 47.9929C35.2356 49.3207 35.1057 50.4989 35.0129 50.5737C34.9387 50.6672 34.7345 50.3679 34.5675 49.9191C34.419 49.489 34.1035 48.6475 33.8993 48.0677C33.491 46.9457 32.7672 46.0854 32.4146 46.3098C32.0062 46.5716 32.3218 48.1238 33.2312 50.3305C34.4561 53.2666 34.6974 54.4635 34.586 56.7824C34.4747 58.8769 34.252 59.812 33.7137 60.4665C33.3611 60.8966 33.3611 60.8966 33.0827 60.5226C32.9342 60.3169 32.6558 59.6998 32.5074 59.1387C32.3403 58.5777 31.8392 57.3247 31.4123 56.3336C30.5215 54.3513 30.5215 54.183 31.1711 51.2656C31.3195 50.5924 31.5051 49.5077 31.5794 48.8345C31.7464 47.0205 31.9691 46.3472 32.6001 45.7488C32.8971 45.4496 33.1569 45.0569 33.1569 44.8698C33.1569 44.3836 33.4168 44.5893 34.1035 45.5992ZM14.1703 49.2646C14.5601 49.6199 15.3953 50.2557 16.0449 50.6859C17.2512 51.5087 18.5875 52.743 18.4391 52.8926C18.3834 52.93 18.105 52.8552 17.808 52.7056C16.9729 52.2755 13.0382 50.929 11.7019 50.6111C9.93871 50.1996 9.86447 50.1248 10.3285 49.5264C10.7739 48.9654 11.5348 48.6849 12.6856 48.6662C13.3351 48.6475 13.6135 48.7597 14.1703 49.2646ZM18.1607 50.4428C19.5898 51.3217 21.2416 52.9861 21.7984 54.1269C22.2253 55.0058 23.1904 58.2037 23.0419 58.3346C23.0048 58.372 22.8748 58.2037 22.7449 57.9606C22.6336 57.7362 22.0953 56.9881 21.5757 56.3149C21.0374 55.6416 20.3322 54.6692 19.9795 54.1643C18.9959 52.7243 17.6039 51.303 16.1748 50.3305C15.451 49.8443 14.7457 49.302 14.6158 49.1337C14.226 48.6662 16.8058 49.6199 18.1607 50.4428ZM61.1265 50.1809C61.0708 50.3118 61.0337 50.2183 61.0337 49.9565C61.0337 49.6947 61.0708 49.6012 61.1265 49.7134C61.1636 49.8443 61.1636 50.0687 61.1265 50.1809ZM69.0515 50.2557C69.2185 50.3118 69.2928 50.4428 69.2371 50.5363C69.0886 50.7981 68.4947 50.742 68.2348 50.4241C68.0492 50.1996 68.0678 50.1435 68.3833 50.1435C68.5875 50.1435 68.8844 50.1996 69.0515 50.2557ZM60.4769 50.4241C60.6254 50.5924 60.217 52.0884 59.9943 52.2381C59.753 52.4064 58.5467 52.4251 58.1383 52.2755C57.6372 52.0884 59.2148 50.3305 59.8644 50.3305C60.1428 50.3305 60.4212 50.3679 60.4769 50.4241ZM67.8637 50.6859C67.8637 50.7794 67.6966 50.929 67.4925 50.9851C66.8985 51.1721 64.857 53.1731 65.0426 53.3601C65.1354 53.4536 65.8406 53.6032 66.583 53.678C67.344 53.7528 68.6617 53.9772 69.534 54.1643C70.4249 54.3513 71.2786 54.4635 71.4457 54.3887C71.8169 54.2578 71.7426 53.7715 71.1858 52.4251L70.8518 51.6396H71.3714C71.9839 51.6396 73.3017 52.5934 74.044 53.5845C74.9349 54.744 75.2875 55.7351 75.2875 57.0816C75.2875 58.4468 75.0277 59.0826 73.6357 61.0649C72.9119 62.1122 72.1324 64.1319 72.1324 64.9548C72.1324 65.3849 72.2994 65.4223 69.534 64.4498C67.5481 63.7579 65.4323 63.2343 64.5971 63.2343C64.3559 63.2343 64.0032 63.3839 63.8362 63.5522C63.5392 63.8701 63.5021 63.8514 62.9268 63.3091C62.3328 62.7293 62.3328 62.7293 62.5741 61.813C62.704 61.2894 62.9082 59.9616 63.0196 58.8395C63.4836 54.5009 64.1517 52.93 66.1562 51.4152C67.2697 50.555 67.8637 50.3118 67.8637 50.6859ZM57.7672 51.677C57.396 52.1071 57.099 52.4999 57.099 52.556C57.099 52.6121 57.6929 52.6869 58.4167 52.7056C59.1406 52.7243 59.7716 52.7804 59.8273 52.8178C59.8644 52.8739 59.6417 53.5658 59.3076 54.37C58.4539 56.558 58.2311 57.3808 58.1012 58.8769L57.9713 60.2234L57.2289 60.2795C56.4865 60.3356 56.468 60.3543 56.2267 61.2707C55.9112 62.5423 55.9112 63.8888 56.2638 64.1693C56.4865 64.3563 56.4865 64.4872 56.171 65.067C55.6328 66.0768 55.707 66.6753 56.4309 67.4981L57.0804 68.2087L56.635 68.9568C56.3937 69.3495 56.0782 70.0788 55.9669 70.5651C55.8369 71.07 55.6513 71.4627 55.5771 71.4627C55.4843 71.4627 55.0203 71.07 54.5378 70.5651C53.0159 69.0316 52.9045 67.8908 53.7583 62.2805C54.909 54.6318 55.6513 52.2755 57.1361 51.3778C58.3054 50.6672 58.5281 50.7794 57.7672 51.677ZM69.8124 51.0786C70.1651 51.2282 70.1651 51.2469 69.7753 51.2469C69.5526 51.2656 69.3113 51.1721 69.2556 51.0786C69.1257 50.8542 69.2928 50.8542 69.8124 51.0786ZM68.7916 51.3591C69.0515 51.5087 69.4783 51.6209 69.7753 51.6396C70.1465 51.6396 70.3878 51.8079 70.6476 52.2381C71.0559 52.9113 71.2972 53.8463 71.1302 54.0334C71.0559 54.0895 70.2022 53.9585 69.2 53.7341C68.2163 53.5097 67.1027 53.3227 66.7501 53.3227C65.655 53.3227 65.5622 53.0983 66.3418 52.3503C66.9357 51.7518 67.9564 51.0786 68.2348 51.0786C68.2905 51.0973 68.5318 51.2095 68.7916 51.3591ZM74.1925 52.182C75.3618 53.2292 76.0671 54.4261 76.4939 56.1092C77.1806 58.7834 77.1992 67.5355 76.5125 68.8072C75.7887 70.191 73.9327 70.5651 72.2623 69.6861C71.7426 69.4056 70.6847 69.0877 69.6639 68.9194C68.736 68.7698 67.047 68.4706 65.9149 68.2648L63.8733 67.8721V65.9272C63.8733 63.3091 63.929 63.2717 66.9542 64.0571C67.9193 64.3002 69.4598 64.7864 70.3692 65.1231L72.0396 65.7589L72.1509 66.5817C72.2809 67.5355 72.7449 67.9843 73.4316 67.816C74.1368 67.629 74.2668 67.4233 74.0626 66.8436C73.9698 66.5443 73.5986 66.1703 73.1903 65.9459C72.6892 65.6654 72.5036 65.4597 72.5036 65.1044C72.5036 64.0384 73.0975 62.5423 74.1554 60.9153C75.5103 58.8208 75.6587 58.4655 75.6587 57.0068C75.6587 55.0993 74.4709 53.0422 72.5964 51.677L72.0396 51.2843L72.6149 51.2656C73.0233 51.2656 73.4316 51.5087 74.1925 52.182ZM60.5326 54.931C60.0686 59.0078 60.1985 61.3642 60.9965 62.5049L61.3677 63.0099L60.6254 63.1408C59.7345 63.2904 59.6788 63.5896 60.4583 64.0571C60.7738 64.2441 60.9965 64.4124 60.9594 64.4498C60.9223 64.4872 60.2913 64.3937 59.5489 64.2254L58.2126 63.9262L58.5467 63.5335C58.7508 63.3091 58.955 62.7293 59.0292 62.2244C59.122 61.4764 59.0663 61.1959 58.7508 60.6722C58.0827 59.5876 58.4167 57.5491 59.8273 54.0708C60.3284 52.8365 60.6254 52.3316 60.7553 52.4438C60.7924 52.4812 60.681 53.6032 60.5326 54.931ZM21.223 56.4645C22.8192 58.5403 23.0976 59.1948 23.4131 61.5512C23.7657 64.2067 24.0256 64.8426 24.9721 65.254C25.6774 65.5532 25.9186 65.9085 25.9186 66.6379C25.9186 66.8249 25.5103 67.4233 24.9907 67.9843C23.8771 69.2373 23.5059 69.9292 23.5059 70.7708C23.5059 71.5936 23.9142 71.9676 24.5081 71.6871C25.0835 71.4253 25.9001 69.6674 26.0486 68.4145C26.1785 67.3111 26.7167 66.6753 28.1273 65.9459C29.3708 65.3288 30.0389 65.2166 30.7999 65.5345C31.3195 65.7589 31.468 65.9459 31.5794 66.5256C31.7278 67.3672 32.3032 68.377 32.6929 68.5454C33.4353 68.8259 32.7115 70.7147 31.2638 72.323C29.5192 74.2305 25.102 76.8673 23.3388 77.0169C22.2253 77.1291 21.5014 76.6429 20.2022 74.9224C19.033 73.3515 17.1213 69.5552 16.713 68.003C16.2676 66.2077 16.1748 63.0473 16.5089 60.9901C17.1028 57.493 17.474 56.7637 19.1072 55.6603C19.6455 55.3237 20.0723 55.0245 20.0909 55.0245C20.0909 55.0058 20.6106 55.6603 21.223 56.4645ZM25.0835 63.066C25.6774 64.749 25.6959 65.1418 25.1391 64.9361C24.471 64.6929 24.0812 63.7953 23.8771 62.0935C23.7657 61.2333 23.6358 60.2608 23.5987 59.9616C23.4873 59.2509 24.3967 61.1771 25.0835 63.066ZM58.3796 61.1959C58.6951 62.0935 58.6395 62.2431 57.8228 63.1408C56.4309 64.6555 55.9854 64.0945 56.5608 61.4951C56.7649 60.6348 56.7835 60.6161 57.4702 60.6161C58.1012 60.6161 58.194 60.6909 58.3796 61.1959ZM62.7783 63.4961C63.0752 63.7205 63.1309 63.9823 63.1124 65.2353C63.1124 67.0867 62.6298 68.2835 61.9245 68.2835C60.7738 68.2835 58.1755 66.4882 57.5444 65.2727C57.0433 64.2628 57.3588 64.188 59.9015 64.6742C60.811 64.8426 61.5905 64.9361 61.6461 64.88C61.8317 64.6929 61.5348 64.2254 61.0708 63.9823C60.4954 63.6644 60.514 63.4587 61.145 63.3652C62.1287 63.2156 62.4071 63.2343 62.7783 63.4961ZM31.7835 64.3937C31.6165 65.441 31.5608 65.4971 30.9112 65.1605C30.1131 64.7677 28.7212 65.0857 27.4405 65.9459C26.2898 66.7501 26.1042 66.7501 26.1042 66.0581C26.1042 65.5532 26.197 65.4784 27.2735 65.1418C27.9045 64.9361 29.1295 64.5059 30.0018 64.188C30.8741 63.8701 31.6536 63.6083 31.7464 63.6083C31.8392 63.6083 31.8578 63.9636 31.7835 64.3937ZM36.2935 64.0758C36.3492 64.1319 36.2379 64.5807 36.0708 65.0483L35.7553 65.9085L36.4049 66.4695C37.667 67.5168 38.2423 69.5178 37.4071 69.9666C37.0916 70.1349 36.7761 70.0414 35.5326 69.4243C34.6974 68.9942 33.9179 68.6576 33.788 68.6576C33.6581 68.6576 33.3797 68.2648 33.1569 67.7786C32.9528 67.2924 32.5816 66.6379 32.3403 66.3199C31.932 65.7963 31.9134 65.6467 32.0805 64.8613C32.229 64.0758 32.2846 64.0197 32.5445 64.2628C32.8229 64.562 33.2312 64.5059 34.4561 64.0571C35.05 63.8327 36.0523 63.8514 36.2935 64.0758ZM57.099 65.1792C57.099 65.3101 57.396 65.7776 57.7857 66.2077C58.491 67.0493 58.491 67.0493 57.5816 67.5542C57.3217 67.7225 57.1361 67.6477 56.7092 67.2363C56.0968 66.6566 56.0411 66.0955 56.4494 65.2727C56.7278 64.749 57.099 64.6742 57.099 65.1792ZM73.3202 66.4321C73.8956 66.8997 73.9327 67.2737 73.4316 67.442C72.9119 67.6103 72.5036 67.2363 72.5036 66.5817C72.5036 65.9459 72.6521 65.9085 73.3202 66.4321ZM63.5021 67.1428C63.4279 67.4607 63.3165 67.7225 63.2237 67.7225C63.1495 67.7225 63.168 67.4233 63.2794 67.068C63.5207 66.2825 63.6877 66.3386 63.5021 67.1428ZM32.7115 67.5729C32.86 67.8721 32.8971 68.0965 32.8043 68.0965C32.5816 68.0965 32.0434 67.1241 32.0434 66.7501C32.0434 66.4695 32.2475 66.7127 32.7115 67.5729ZM60.4769 68.19C61.0151 68.4519 61.6276 68.6576 61.8317 68.6576C62.1658 68.6763 62.1844 68.6763 61.8689 68.8633C61.3677 69.1625 61.0337 69.9666 60.8295 71.5375C60.2727 75.5208 60.7924 76.9608 63.1309 78.0455C63.9475 78.4195 64.3187 78.4756 66.3789 78.4569C67.6595 78.4382 69.4783 78.3073 70.4249 78.1577C71.3714 78.0081 72.1881 77.952 72.2437 78.0268C72.2809 78.1016 72.1881 78.9805 72.0396 79.953C71.8726 80.9441 71.7241 82.3654 71.7055 83.1135C71.6684 84.7218 72.0582 85.6568 73.4687 87.2464C74.2296 88.1253 74.3596 88.3685 74.3596 89.0417V89.8458L68.8473 89.7336C62.9453 89.6214 61.1821 89.4531 59.9386 88.836C58.6209 88.2001 58.3982 87.6204 58.0827 83.9363C57.6744 79.2424 57.8414 76.3624 58.6766 73.0523C59.122 71.2383 59.3262 70.0227 59.3262 69.0877C59.3262 68.3396 59.3633 67.7225 59.4004 67.7225C59.4375 67.7225 59.9201 67.9282 60.4769 68.19ZM25.3619 69.6487C24.6751 71.4814 23.8771 72.0238 23.8771 70.6586C23.8771 70.004 24.174 69.4617 25.0649 68.508C25.566 67.9656 25.6402 67.9282 25.6959 68.2461C25.733 68.4332 25.566 69.069 25.3619 69.6487ZM68.9772 69.4243C70.1465 69.7422 71.4271 70.0788 71.7983 70.1723C73.2831 70.5651 73.5058 72.1547 72.6706 76.3811C72.4108 77.6341 72.7077 77.5032 69.1628 77.9333C65.0426 78.4382 63.0567 78.0829 61.7946 76.6242C60.9965 75.7266 60.9223 75.3338 61.0708 73.1084C61.2749 69.7983 61.5905 69.1625 63.1866 68.8259C64.3373 68.5828 66.7315 68.8259 68.9772 69.4243ZM57.3032 70.2098C57.1732 70.8269 56.9134 71.3879 56.635 71.6497L56.171 72.0799V71.444C56.171 70.5651 57.0433 68.7137 57.3217 68.9942C57.4702 69.1438 57.4702 69.4617 57.3032 70.2098ZM73.9512 74.3053C73.8399 76.2876 73.5615 77.4658 73.246 77.1478C73.0975 76.9982 73.4687 73.4076 73.71 72.6222C73.9327 71.9489 74.0255 72.6222 73.9512 74.3053ZM73.3202 82.0288C73.6172 83.207 74.174 86.461 74.174 87.0594C74.174 87.6765 73.1903 86.5732 72.5036 85.208C71.854 83.9363 71.8726 84.0298 72.3365 80.4392C72.5964 78.4756 72.7263 78.2886 72.8933 79.6912C72.9676 80.3644 73.1532 81.4117 73.3202 82.0288Z"/>
</mask>
<path d="M31.2267 25.8509C29.3522 26.5054 27.6447 27.7584 26.8281 29.1049C26.4012 29.7781 26.3641 31.0685 26.7353 31.7978C26.9765 32.2653 26.9765 32.3214 26.6425 32.5272C26.0671 32.9012 26.1785 34.1167 26.9394 35.725C27.7561 37.4268 27.7746 38.1375 27.0322 38.9416C26.6982 39.3156 26.4012 39.9328 26.2713 40.5312C25.9743 41.859 26.2156 42.981 27.6818 47.2262C29.7048 53.0983 30.3544 55.0806 30.5586 56.0344C30.6699 56.5393 31.1339 57.7175 31.5979 58.6151C32.2661 59.9616 32.4146 60.4478 32.4146 61.2707C32.4146 62.6919 32.1918 63.1595 31.4494 63.3091C31.1154 63.3652 30.0018 63.7579 28.981 64.1693C27.9602 64.562 26.8838 64.9174 26.6054 64.9548C26.1042 65.0109 26.0486 64.9548 25.6588 63.7018C25.4175 62.9724 24.8422 61.439 24.3596 60.2608C23.8771 59.0826 23.246 57.2873 22.9491 56.2775C22.3181 54.0708 21.8169 53.1544 20.4435 51.8079L19.4042 50.7607L20.759 50.0874C21.5014 49.7321 22.448 49.3394 22.8563 49.2272C23.2646 49.115 23.6915 48.9654 23.8028 48.8906C24.2483 48.5539 24.6195 47.7685 24.6195 47.0953C24.6195 46.235 25.0463 45.1317 25.4547 44.9821C25.863 44.8137 25.8073 44.608 25.1577 43.8039C24.471 42.9249 24.0627 41.6159 24.0627 40.232C24.0627 38.5863 23.5987 37.2772 22.6893 36.3983C21.7798 35.5006 19.4227 34.229 17.8452 33.7801C14.7457 32.8638 11.2008 34.3786 9.84591 37.1837C9.4376 38.0066 9.32624 38.5863 9.23344 40.0263C9.12208 41.8029 9.10352 41.8777 8.52817 42.3639C8.1941 42.6444 7.9157 42.9997 7.9157 43.1306C7.9157 43.2616 7.78578 43.6169 7.6373 43.8974C7.28467 44.5706 7.28467 45.113 7.61874 45.8984C7.86002 46.4781 8.75089 47.3945 9.252 47.5815C9.4376 47.6376 9.45616 47.7498 9.252 48.0677C8.95504 48.5727 8.9736 49.4329 9.28912 49.863C9.51184 50.1622 9.49328 50.3492 9.21488 51.1908C9.02928 51.7331 8.54673 52.7243 8.13842 53.3975C7.30323 54.8001 6.52372 57.119 6.24532 59.0265C5.72565 62.8228 6.33812 66.0581 8.62097 71.2757C10.1057 74.6419 10.18 76.0071 9.19632 82.0288C8.78801 84.647 8.73233 88.0505 9.10352 89.0791L9.36336 89.7897H5.85557C3.64696 89.7897 2.34778 89.8645 2.34778 89.9767C2.34778 90.089 3.73976 90.1638 6.15252 90.1638C9.6232 90.1638 10.3656 90.0703 9.77167 89.6962C9.0664 89.2474 9.01072 85.6942 9.67887 81.3369C10.2171 77.6902 10.2913 74.8289 9.84591 73.3141C9.67887 72.7531 9.08496 71.2944 8.52817 70.0601C6.98771 66.6566 6.56084 64.8613 6.56084 61.5512C6.56084 58.1663 6.89491 56.7637 8.47249 53.6032C9.08496 52.369 9.58608 51.2656 9.58608 51.1721C9.58608 50.5363 9.88303 50.5176 11.6462 50.9664C15.9149 52.0884 19.7939 53.8463 19.7939 54.6692C19.7939 54.744 19.3114 55.118 18.736 55.5107C18.0864 55.9409 17.5111 56.5206 17.2512 56.9694C16.1933 58.8769 15.618 64.001 16.1377 66.8997C16.4717 68.7885 17.3812 71.07 18.569 73.0897C20.5549 76.4559 21.8355 77.578 23.4502 77.3909C25.1948 77.2039 29.2223 74.8476 31.2453 72.8466C32.4146 71.7058 33.3425 70.1162 33.3425 69.256C33.3425 69.0316 33.3982 68.8446 33.491 68.8446C33.5653 68.8446 34.2705 69.1812 35.0686 69.5926C36.5163 70.3594 37.537 70.5277 37.9454 70.1162C38.0753 69.9853 38.1681 69.5552 38.1681 69.1438C38.1681 68.2835 37.3329 66.6192 36.6647 66.1516C36.275 65.8898 36.275 65.815 36.4977 65.0296C36.6833 64.3563 36.6833 64.1132 36.4977 63.8888C36.1079 63.4213 35.18 63.3839 34.0849 63.7766C32.6929 64.2815 32.5259 64.1132 32.7115 62.3179C32.8043 61.2146 32.8785 61.0275 33.0827 61.1959C33.2869 61.3642 33.4168 61.3455 33.6395 61.1584C34.5675 60.3917 35.1243 57.9045 34.9572 55.2676C34.8273 53.491 34.6417 52.8178 33.4353 49.8817C33.0456 48.9654 32.6929 47.862 32.6373 47.4506C32.5445 46.7025 32.5445 46.6838 32.9157 47.0205C33.1198 47.1888 33.5467 48.1425 33.8808 49.0963C34.4376 50.7046 35.0315 51.677 35.3099 51.4152C35.3656 51.3591 35.4769 50.3118 35.5697 49.0963C35.7739 46.4781 35.6254 43.3364 35.2728 42.6257C35.1243 42.3452 35.0129 42.0834 35.0129 42.0086C35.0129 41.7281 35.978 41.9712 36.6462 42.42C38.0567 43.3925 42.1213 47.2262 42.3626 47.8433C42.5296 48.236 42.6224 49.2646 42.6224 50.8355C42.6224 53.3227 42.7338 53.9211 43.8288 57.5304C44.5526 59.9242 44.5526 61.9813 43.7917 66.0394C42.6595 72.0238 42.5482 75.4834 43.3648 79.3172C44.0144 82.4589 43.8288 83.6371 42.4368 84.7405L41.6573 85.3763L41.7687 86.9659C41.8429 87.8448 41.9357 88.9295 41.9914 89.3596L42.1027 90.1638H49.6937H57.2846L57.1918 89.1913C56.8392 85.1519 56.7092 81.019 56.8763 78.4756C57.0619 75.6705 56.9505 73.95 56.5237 72.9401C56.3381 72.4352 56.3566 72.3604 56.802 72.0051C57.4331 71.5001 57.8785 69.9853 57.73 68.8259C57.6187 68.0217 57.6558 67.9282 58.1198 67.6103C58.5467 67.3298 58.6395 67.3298 58.7879 67.5542C59.1591 68.1526 58.955 70.4716 58.3054 73.0336C57.8228 74.885 57.6187 76.1941 57.5259 77.7276C57.4145 79.953 57.7486 85.8064 58.0641 87.0594C58.3425 88.1814 59.4004 89.1726 60.681 89.4905C62.3514 89.9206 66.6573 90.1825 70.926 90.1264L74.8236 90.0703L74.7679 89.4531C74.7308 89.1352 74.7679 88.8547 74.8421 88.8547C74.8978 88.8547 75.2875 89.1539 75.6773 89.5092C76.364 90.1264 76.4754 90.1638 77.7003 90.1638C78.4427 90.1638 78.9995 90.089 78.9995 89.9767C78.9995 89.8645 78.4427 89.7897 77.7189 89.7897H76.4568L75.5288 88.7986C74.638 87.8635 74.5823 87.7326 74.4524 86.5171C74.3224 85.2454 73.6728 81.5987 73.5244 81.3743C73.4873 81.2995 73.3573 80.514 73.246 79.5977L73.0418 77.952L73.5429 77.4284C74.1183 76.8299 74.341 75.8575 74.341 73.8939C74.3596 72.1173 74.2296 71.6123 73.8028 71.7432C73.58 71.818 73.4501 71.6684 73.3017 71.1822L73.0975 70.5277H74.0626C75.8629 70.5277 77.0136 69.4056 77.2178 67.442C77.459 65.2166 77.4962 61.8504 77.3291 59.5876C77.0322 55.6042 76.4197 53.8837 74.6936 52.1445C74.0812 51.5461 73.7285 51.0786 73.8956 51.0786C74.4338 51.0786 74.174 50.7981 73.1903 50.3305C71.5014 49.5077 70.9074 47.8059 70.3878 42.046C70.2207 40.3255 70.0908 38.3806 70.0908 37.7447C70.0908 36.1178 69.7939 35.2014 68.9958 34.416C68.1235 33.537 67.0841 33.2378 65.2282 33.35C62.5556 33.4996 59.8644 35.2575 58.7323 37.5577C58.194 38.6611 58.1383 38.979 58.0641 40.9052C57.9899 42.7566 58.0455 43.2803 58.491 45.0943C59.0849 47.5441 59.0478 48.5165 58.3239 49.489C58.0455 49.8443 57.86 50.2183 57.9342 50.3118C57.9899 50.4241 57.7486 50.6298 57.4145 50.7981C57.0619 50.9664 56.5979 51.2656 56.3752 51.4713C55.1688 52.5934 54.2779 55.9783 53.2015 63.5148C52.5147 68.2648 52.8117 69.6674 54.8533 71.4253C55.3729 71.8741 55.9297 72.4726 56.0782 72.7531C56.5793 73.7629 56.7092 75.4273 56.5051 78.513C56.3381 81.206 56.468 85.582 56.8206 89.0043L56.9134 89.7897H49.6937H42.4739L42.3626 89.0978C42.3069 88.7051 42.2141 87.7513 42.1399 86.9659L42.0285 85.5446L42.6781 85.0397C43.5133 84.3851 44.1072 83.1883 44.1072 82.1036C44.1072 81.6548 43.9401 80.4392 43.736 79.4107C42.9379 75.446 43.0493 71.7432 44.1072 66.1329C45.0537 61.0649 45.0352 60.186 43.8102 56.2962C43.1978 54.3513 43.1421 53.8837 43.0122 51.0786C42.9194 49.0776 42.7894 47.8059 42.6224 47.4506C42.3069 46.7961 37.4071 42.3826 36.4606 41.8964C36.0708 41.7094 35.5883 41.5411 35.3841 41.5411C34.9944 41.5411 34.9944 41.5411 35.347 41.0174C35.8852 40.2507 36.7761 38.3993 37.1473 37.2585C37.3886 36.4918 37.4442 35.9682 37.3514 35.0518C37.2772 34.3225 37.2958 33.8923 37.4071 33.9484C37.7226 34.1542 38.6877 32.8077 38.8177 31.9474C39.1517 29.7968 37.3886 27.0478 34.9387 25.907C33.7694 25.3647 32.6929 25.346 31.2267 25.8509ZM34.9572 26.2997C37.4628 27.5527 39.1517 30.788 38.2238 32.5459C38.0382 32.9012 37.7969 33.2191 37.6855 33.2565C37.3514 33.3687 37.203 32.4711 37.3514 31.2555C37.4442 30.3765 37.4071 30.0212 37.1102 29.4415C36.906 29.0488 36.5905 28.3942 36.3863 27.9828C35.8481 26.8794 34.7716 26.3932 32.86 26.3745C31.0783 26.3558 30.2245 26.6737 29.2037 27.6649C27.9417 28.8992 27.4962 31.349 27.8674 34.9396C27.9417 35.725 27.9231 36.3048 27.8303 36.3048C27.5519 36.3048 26.661 34.2664 26.661 33.6118C26.661 33.163 26.791 32.9012 27.0879 32.6955C27.4962 32.4337 27.4962 32.415 27.1807 31.8539C26.4383 30.5636 27.0508 28.8244 28.6469 27.6462C31.1154 25.8509 33.1569 25.4021 34.9572 26.2997ZM34.883 27.0665C35.6625 27.4779 36.1265 27.8893 36.1265 28.2072C36.1265 28.3942 36.0337 28.4129 35.7739 28.2633C35.5697 28.1698 34.9944 27.9828 34.4747 27.8706C32.5074 27.4592 30.3915 28.6747 29.278 30.8815C28.9439 31.536 28.6284 31.9287 28.3871 31.9661C28.0345 32.0222 28.0345 31.9661 28.1644 30.9563C28.2386 30.3578 28.5356 29.4041 28.8325 28.8431C29.2594 28.0015 29.5378 27.721 30.3544 27.2909C31.1896 26.842 31.5608 26.7672 32.8229 26.7672C33.8065 26.7672 34.4747 26.8607 34.883 27.0665ZM34.9016 28.3381C36.0708 28.6934 36.3492 28.9553 36.1079 29.4041C35.8481 29.9277 34.6788 30.6571 33.6209 30.9563C32.4888 31.2929 29.6306 31.6856 29.4821 31.536C29.1852 31.2368 30.8184 29.1797 31.765 28.6934C32.9899 28.0389 33.6581 27.9641 34.9016 28.3381ZM37.0545 30.8254C37.0545 31.6669 36.8874 31.8165 36.4977 31.349C36.1079 30.8815 35.4027 31.0311 34.2334 31.8165C33.027 32.6207 32.2846 32.9012 30.7999 33.0695C29.5007 33.2191 28.8882 33.0508 29.0181 32.5646C29.1295 32.1344 29.3151 32.0783 31.0783 31.8165C33.9179 31.4238 35.6625 30.7319 36.275 29.7968C36.5534 29.3667 36.5719 29.3667 36.8132 29.6846C36.9431 29.8716 37.0545 30.3765 37.0545 30.8254ZM36.4606 31.91C36.739 32.2653 36.8503 32.8077 36.9431 34.3973C37.073 36.2861 37.0545 36.4918 36.6091 37.6886C35.8852 39.6149 35.2356 40.7182 34.252 41.6346C32.9528 42.8688 32.0805 42.9623 30.9483 41.9899C30.1688 41.3353 28.9439 38.7733 28.5727 37.0341C28.3129 35.7811 28.3129 35.4819 28.5356 34.5282L28.7954 33.4622L30.373 33.4248C32.0434 33.3874 33.2126 32.9947 34.7531 31.9287C35.6439 31.3303 35.9966 31.3116 36.4606 31.91ZM28.7026 32.4524C28.7026 32.5085 28.6284 32.602 28.517 32.6581C28.4242 32.7142 28.3314 32.6768 28.3314 32.5833C28.3314 32.4711 28.4242 32.3776 28.517 32.3776C28.6284 32.3776 28.7026 32.415 28.7026 32.4524ZM28.35 33.7053C28.1829 34.1354 28.1644 34.1167 28.1644 33.4996C28.1458 33.0695 28.2015 32.9199 28.3314 33.0508C28.4613 33.1817 28.4613 33.4061 28.35 33.7053ZM18.0864 34.229C19.4227 34.6404 21.4086 35.725 22.3366 36.5479C23.2275 37.352 23.4873 38.0627 23.6729 40.232C23.84 42.0086 24.1369 42.9997 24.9164 44.1779C25.2134 44.6454 25.2134 44.6828 24.8422 45.0943C24.6195 45.3374 24.3967 45.8984 24.3411 46.3846C24.0812 48.4043 23.8956 48.6662 22.6707 48.928C22.3737 48.9841 21.52 49.3394 20.7776 49.7134L19.4599 50.3679L18.4391 49.7882C16.5274 48.6849 15.4138 47.2262 15.6737 46.1602C15.7293 45.9732 16.0449 45.5992 16.3789 45.3374L17.01 44.8698L16.4346 43.7852C15.4881 42.0647 15.9149 41.3166 17.6039 41.7468C18.8103 42.0647 19.3671 41.8029 19.5341 40.8491C19.7568 39.5588 20.0538 39.2034 21.2602 38.7546C23.2646 38.0253 23.1347 37.1089 20.9075 35.9869C18.3277 34.6965 15.0241 34.3412 13.2052 35.164C11.7204 35.8372 10.7739 36.8845 10.0315 38.7172C9.69743 39.5213 9.58608 39.6523 9.58608 39.2782C9.58608 38.9977 9.71599 38.4367 9.86447 38.0066C10.9595 34.8461 14.6529 33.1443 18.0864 34.229ZM67.3069 34.7713C68.4576 35.9682 68.8844 37.3707 69.3484 41.5411C69.5526 43.3364 69.8495 45.3187 69.998 45.9358C70.3878 47.4506 71.2044 49.1711 71.9468 50.0313C72.4479 50.5924 72.5221 50.7607 72.2994 50.9103C71.7612 51.2469 70.5734 50.9477 69.5711 50.1809C69.1072 49.8256 68.8288 49.7508 68.3276 49.8256C67.7152 49.9191 67.6595 49.8817 67.2697 49.1524C66.9357 48.5352 66.8429 48.049 66.8429 46.9644C66.8429 45.4309 67.2141 44.4584 68.2534 43.2616C68.903 42.5135 68.9772 41.5411 68.4204 40.98C68.0121 40.5686 67.808 40.5312 67.3254 40.7743C67.0656 40.9239 66.8057 40.7182 65.9149 39.7271C64.4672 38.1001 63.2794 37.5203 61.7018 37.6886C60.6254 37.8009 60.6068 37.8009 60.8295 37.3707C60.9594 37.1463 61.442 36.5105 61.906 35.9494C62.8896 34.7713 64.56 33.8736 65.7107 33.8736C66.3418 33.8736 66.5645 34.0045 67.3069 34.7713ZM68.1606 34.1729C69.0329 34.5843 69.5526 35.5193 69.6454 36.8284C69.6825 37.4081 69.8495 39.4839 70.0166 41.4289C70.1651 43.3738 70.2393 45.0008 70.1836 45.0569C70.1279 45.113 70.0908 45.0756 70.0908 44.9821C70.0908 44.8885 69.9238 43.3364 69.7196 41.5411C69.2371 37.1837 68.8102 35.7437 67.6224 34.4721C66.9913 33.8175 67.1769 33.7053 68.1606 34.1729ZM63.2237 34.2477C62.6112 34.6778 62.2957 34.8087 62.2957 34.6591C62.2957 34.5656 62.4813 34.3973 62.7226 34.2851C63.2423 34.0232 63.5949 34.0045 63.2237 34.2477ZM18.8288 35.5941C21.3529 36.3609 22.7078 37.2959 22.2067 37.8944C22.0953 38.044 21.5942 38.2871 21.1117 38.4554C20.0352 38.8107 19.4784 39.3717 19.3114 40.232C19.0515 41.6159 18.8288 41.7281 17.2698 41.3166C16.4346 41.0922 16.3975 41.0922 15.9706 41.5972C15.3953 42.2704 15.4138 42.6818 16.0077 43.8039L16.5089 44.7015L15.9149 45.1878C15.451 45.5992 15.3396 45.8236 15.3396 46.4407C15.3396 47.301 15.5438 47.7685 16.3233 48.5914C16.6388 48.928 16.8615 49.2085 16.8058 49.2085C16.7687 49.2085 16.1005 49.0028 15.3396 48.7784C13.9847 48.3482 13.9291 48.3108 13.3723 47.301C13.0567 46.7399 12.7412 45.9171 12.6856 45.4683C12.5556 44.421 12.0916 43.8039 11.0523 43.2616C10.0872 42.7753 9.99439 42.5696 9.97583 41.0361C9.93871 38.3806 11.7947 35.7811 14.1518 35.2014C15.154 34.9396 17.344 35.1266 18.8288 35.5941ZM61.5905 35.5193C61.4049 35.7063 60.978 36.2487 60.6439 36.7349C59.9201 37.726 59.6974 37.8196 59.6974 37.1463C59.6974 36.5666 61.0151 35.1827 61.5533 35.1827C61.906 35.1827 61.906 35.2014 61.5905 35.5193ZM59.0849 39.1473C58.7508 39.7271 58.4539 40.1759 58.4167 40.1385C58.3425 40.045 58.6766 38.6237 58.955 37.8757C59.1406 37.3894 59.1591 37.3894 59.4004 37.726C59.6417 38.0253 59.586 38.1936 59.0849 39.1473ZM28.7583 38.9603C28.9253 39.4652 29.0181 39.858 28.981 39.858C28.814 39.858 28.3314 38.7359 28.3314 38.3432C28.3314 37.8009 28.4056 37.8944 28.7583 38.9603ZM63.7619 38.3619C64.1517 38.5489 65.024 39.3156 65.6922 40.0637C66.7686 41.2605 66.9357 41.3728 67.2883 41.1857C67.5667 41.0174 67.7894 41.0174 68.0492 41.167C68.6246 41.485 68.5318 42.4013 67.8451 43.1868C66.8614 44.3088 66.4717 45.3748 66.4717 46.9644C66.4717 48.0116 66.583 48.5914 66.88 49.2459L67.2883 50.1435L66.6944 50.5363C65.6179 51.2843 64.3187 52.6495 63.8733 53.5097C63.2608 54.7253 63.0567 55.6042 62.6669 58.8021C62.2772 62 62.0916 62.7293 61.6461 62.561C60.6996 62.187 60.3655 58.9891 60.8852 55.0993C61.0522 53.865 61.3306 51.7892 61.4977 50.4802L61.8132 48.1051L60.9409 46.2724C59.883 44.0283 59.4375 42.2517 59.5674 40.5873C59.6602 39.0164 59.9943 38.3058 60.7182 38.1562C61.8503 37.9131 63.0567 37.9879 63.7619 38.3619ZM28.3314 39.5588C28.3314 39.6523 28.4613 39.8954 28.6469 40.0824C28.814 40.2694 28.9068 40.4751 28.8511 40.5312C28.7026 40.6621 28.0345 39.6897 27.886 39.1099C27.7561 38.6611 27.7746 38.6611 28.0345 38.9977C28.2015 39.2034 28.3314 39.4465 28.3314 39.5588ZM26.9209 40.2694C26.4754 41.5411 26.7538 42.3078 28.4799 44.795L29.5007 46.2724L29.9461 45.7675L30.3915 45.2439L30.7627 45.7301C30.9669 45.9919 31.2638 46.2163 31.4309 46.2163C31.6165 46.2163 31.6722 46.3098 31.5794 46.5342C31.5237 46.7212 31.3381 47.7872 31.1896 48.8906C30.9483 50.8168 30.3915 53.3975 30.2616 53.2666C30.1131 53.117 28.3129 48.1425 27.5148 45.7114C26.494 42.5696 26.3084 41.2044 26.7167 40.1759C27.125 39.2221 27.2735 39.2969 26.9209 40.2694ZM29.8533 41.8403C30.4658 42.3265 30.9298 42.8314 30.9298 43.0184C30.9298 43.5234 30.2616 44.9821 29.8533 45.3374C29.5192 45.6553 29.4636 45.5992 28.3685 43.9722C27.0879 42.0647 26.8652 41.354 27.2921 40.3442L27.589 39.6523L28.1644 40.3255C28.4984 40.6995 29.2408 41.3915 29.8533 41.8403ZM59.6788 44.1592C59.9015 44.8885 60.3841 46.048 60.7367 46.7212C61.3677 47.9181 61.5348 48.6475 61.1821 48.6475C61.0893 48.6475 60.9409 48.423 60.8852 48.1238C60.811 47.8433 60.3098 46.5716 59.7716 45.2813C58.6209 42.5696 58.4353 41.6907 58.7879 40.6808L59.0292 39.9515L59.1591 41.3728C59.2334 42.1769 59.4561 43.4112 59.6788 44.1592ZM9.75311 42.7379C9.71599 42.7753 9.40048 42.8501 9.08496 42.9062C8.36113 43.0558 8.28689 42.8127 8.93649 42.5135C9.19632 42.4013 9.40048 42.1956 9.41904 42.0647C9.41904 41.9338 9.51184 42.0086 9.6232 42.2517C9.73455 42.4761 9.79023 42.7005 9.75311 42.7379ZM33.8808 42.981C33.1198 43.7104 33.1013 43.7104 32.5074 43.4299C31.9877 43.1681 31.9691 43.1306 32.3032 43.0745C33.1198 42.9623 33.8622 42.6444 34.1963 42.2704C34.3819 42.0647 34.5675 41.9712 34.6046 42.0647C34.6417 42.1769 34.3076 42.5883 33.8808 42.981ZM35.05 43.5608C35.2171 44.1779 34.9387 45.6553 34.6788 45.6553C34.5118 45.6366 33.5281 44.2153 33.5281 43.9722C33.5281 43.7104 34.5118 42.8314 34.716 42.9062C34.8273 42.9436 34.9758 43.2429 35.05 43.5608ZM10.7553 44.4023C11.2193 45.0569 11.7204 45.6927 11.8875 45.8236C12.0545 45.9732 12.1844 46.2163 12.1844 46.3846C12.1659 46.7399 11.2008 45.674 10.6069 44.7015C10.4027 44.3462 9.95727 43.9348 9.64176 43.7852C8.91793 43.4486 8.86225 43.2242 9.47472 43.2242C9.80879 43.2242 10.1243 43.5234 10.7553 44.4023ZM11.7947 44.2714C12.203 44.795 12.4628 45.4496 12.3144 45.5992C12.203 45.7114 10.6997 43.8226 10.6997 43.5795C10.6997 43.299 11.3678 43.7291 11.7947 44.2714ZM31.6722 43.486C31.6722 43.5234 31.5422 43.6543 31.3938 43.7852C31.1525 43.9909 31.1339 43.9722 31.2267 43.7104C31.3195 43.4486 31.6722 43.2803 31.6722 43.486ZM9.23344 43.9722C9.71599 44.234 10.1985 44.7202 10.6254 45.3748C11.3121 46.4781 11.9803 47.0392 12.4072 46.8709C12.6856 46.7586 13.6135 48.1799 13.3537 48.3295C13.2609 48.3669 12.7412 48.423 12.1844 48.4417C11.1451 48.4978 10.3841 48.7784 9.97583 49.2833C9.84591 49.4516 9.66031 49.5264 9.56752 49.4703C9.27056 49.2833 9.40048 48.4604 9.77167 48.0864C10.2542 47.6002 10.2542 47.5815 9.5304 47.2823C8.08274 46.6651 7.32179 45.0195 8.02706 44.0096C8.36113 43.5047 8.32401 43.5047 9.23344 43.9722ZM60.347 47.7872C60.6068 48.6288 60.5882 48.741 60.3098 49.0589C59.9201 49.489 58.7879 50.2183 58.658 50.1061C58.6209 50.05 58.7508 49.6386 58.955 49.1898C59.419 48.1612 59.419 47.2449 58.955 45.4683C58.7508 44.7015 58.5838 43.9348 58.5838 43.7852C58.5838 43.4112 60.0129 46.6277 60.347 47.7872ZM32.5259 44.047C32.6558 44.4023 31.9134 45.8423 31.5979 45.8423C31.301 45.8423 30.7442 45.3561 30.7442 45.0943C30.7442 44.8511 31.9134 43.7852 32.1918 43.7852C32.3218 43.7852 32.4702 43.8974 32.5259 44.047ZM34.1035 45.5992L34.6974 46.4594L35.0686 46.0106L35.4398 45.5618L35.3099 47.9929C35.2356 49.3207 35.1057 50.4989 35.0129 50.5737C34.9387 50.6672 34.7345 50.3679 34.5675 49.9191C34.419 49.489 34.1035 48.6475 33.8993 48.0677C33.491 46.9457 32.7672 46.0854 32.4146 46.3098C32.0062 46.5716 32.3218 48.1238 33.2312 50.3305C34.4561 53.2666 34.6974 54.4635 34.586 56.7824C34.4747 58.8769 34.252 59.812 33.7137 60.4665C33.3611 60.8966 33.3611 60.8966 33.0827 60.5226C32.9342 60.3169 32.6558 59.6998 32.5074 59.1387C32.3403 58.5777 31.8392 57.3247 31.4123 56.3336C30.5215 54.3513 30.5215 54.183 31.1711 51.2656C31.3195 50.5924 31.5051 49.5077 31.5794 48.8345C31.7464 47.0205 31.9691 46.3472 32.6001 45.7488C32.8971 45.4496 33.1569 45.0569 33.1569 44.8698C33.1569 44.3836 33.4168 44.5893 34.1035 45.5992ZM14.1703 49.2646C14.5601 49.6199 15.3953 50.2557 16.0449 50.6859C17.2512 51.5087 18.5875 52.743 18.4391 52.8926C18.3834 52.93 18.105 52.8552 17.808 52.7056C16.9729 52.2755 13.0382 50.929 11.7019 50.6111C9.93871 50.1996 9.86447 50.1248 10.3285 49.5264C10.7739 48.9654 11.5348 48.6849 12.6856 48.6662C13.3351 48.6475 13.6135 48.7597 14.1703 49.2646ZM18.1607 50.4428C19.5898 51.3217 21.2416 52.9861 21.7984 54.1269C22.2253 55.0058 23.1904 58.2037 23.0419 58.3346C23.0048 58.372 22.8748 58.2037 22.7449 57.9606C22.6336 57.7362 22.0953 56.9881 21.5757 56.3149C21.0374 55.6416 20.3322 54.6692 19.9795 54.1643C18.9959 52.7243 17.6039 51.303 16.1748 50.3305C15.451 49.8443 14.7457 49.302 14.6158 49.1337C14.226 48.6662 16.8058 49.6199 18.1607 50.4428ZM61.1265 50.1809C61.0708 50.3118 61.0337 50.2183 61.0337 49.9565C61.0337 49.6947 61.0708 49.6012 61.1265 49.7134C61.1636 49.8443 61.1636 50.0687 61.1265 50.1809ZM69.0515 50.2557C69.2185 50.3118 69.2928 50.4428 69.2371 50.5363C69.0886 50.7981 68.4947 50.742 68.2348 50.4241C68.0492 50.1996 68.0678 50.1435 68.3833 50.1435C68.5875 50.1435 68.8844 50.1996 69.0515 50.2557ZM60.4769 50.4241C60.6254 50.5924 60.217 52.0884 59.9943 52.2381C59.753 52.4064 58.5467 52.4251 58.1383 52.2755C57.6372 52.0884 59.2148 50.3305 59.8644 50.3305C60.1428 50.3305 60.4212 50.3679 60.4769 50.4241ZM67.8637 50.6859C67.8637 50.7794 67.6966 50.929 67.4925 50.9851C66.8985 51.1721 64.857 53.1731 65.0426 53.3601C65.1354 53.4536 65.8406 53.6032 66.583 53.678C67.344 53.7528 68.6617 53.9772 69.534 54.1643C70.4249 54.3513 71.2786 54.4635 71.4457 54.3887C71.8169 54.2578 71.7426 53.7715 71.1858 52.4251L70.8518 51.6396H71.3714C71.9839 51.6396 73.3017 52.5934 74.044 53.5845C74.9349 54.744 75.2875 55.7351 75.2875 57.0816C75.2875 58.4468 75.0277 59.0826 73.6357 61.0649C72.9119 62.1122 72.1324 64.1319 72.1324 64.9548C72.1324 65.3849 72.2994 65.4223 69.534 64.4498C67.5481 63.7579 65.4323 63.2343 64.5971 63.2343C64.3559 63.2343 64.0032 63.3839 63.8362 63.5522C63.5392 63.8701 63.5021 63.8514 62.9268 63.3091C62.3328 62.7293 62.3328 62.7293 62.5741 61.813C62.704 61.2894 62.9082 59.9616 63.0196 58.8395C63.4836 54.5009 64.1517 52.93 66.1562 51.4152C67.2697 50.555 67.8637 50.3118 67.8637 50.6859ZM57.7672 51.677C57.396 52.1071 57.099 52.4999 57.099 52.556C57.099 52.6121 57.6929 52.6869 58.4167 52.7056C59.1406 52.7243 59.7716 52.7804 59.8273 52.8178C59.8644 52.8739 59.6417 53.5658 59.3076 54.37C58.4539 56.558 58.2311 57.3808 58.1012 58.8769L57.9713 60.2234L57.2289 60.2795C56.4865 60.3356 56.468 60.3543 56.2267 61.2707C55.9112 62.5423 55.9112 63.8888 56.2638 64.1693C56.4865 64.3563 56.4865 64.4872 56.171 65.067C55.6328 66.0768 55.707 66.6753 56.4309 67.4981L57.0804 68.2087L56.635 68.9568C56.3937 69.3495 56.0782 70.0788 55.9669 70.5651C55.8369 71.07 55.6513 71.4627 55.5771 71.4627C55.4843 71.4627 55.0203 71.07 54.5378 70.5651C53.0159 69.0316 52.9045 67.8908 53.7583 62.2805C54.909 54.6318 55.6513 52.2755 57.1361 51.3778C58.3054 50.6672 58.5281 50.7794 57.7672 51.677ZM69.8124 51.0786C70.1651 51.2282 70.1651 51.2469 69.7753 51.2469C69.5526 51.2656 69.3113 51.1721 69.2556 51.0786C69.1257 50.8542 69.2928 50.8542 69.8124 51.0786ZM68.7916 51.3591C69.0515 51.5087 69.4783 51.6209 69.7753 51.6396C70.1465 51.6396 70.3878 51.8079 70.6476 52.2381C71.0559 52.9113 71.2972 53.8463 71.1302 54.0334C71.0559 54.0895 70.2022 53.9585 69.2 53.7341C68.2163 53.5097 67.1027 53.3227 66.7501 53.3227C65.655 53.3227 65.5622 53.0983 66.3418 52.3503C66.9357 51.7518 67.9564 51.0786 68.2348 51.0786C68.2905 51.0973 68.5318 51.2095 68.7916 51.3591ZM74.1925 52.182C75.3618 53.2292 76.0671 54.4261 76.4939 56.1092C77.1806 58.7834 77.1992 67.5355 76.5125 68.8072C75.7887 70.191 73.9327 70.5651 72.2623 69.6861C71.7426 69.4056 70.6847 69.0877 69.6639 68.9194C68.736 68.7698 67.047 68.4706 65.9149 68.2648L63.8733 67.8721V65.9272C63.8733 63.3091 63.929 63.2717 66.9542 64.0571C67.9193 64.3002 69.4598 64.7864 70.3692 65.1231L72.0396 65.7589L72.1509 66.5817C72.2809 67.5355 72.7449 67.9843 73.4316 67.816C74.1368 67.629 74.2668 67.4233 74.0626 66.8436C73.9698 66.5443 73.5986 66.1703 73.1903 65.9459C72.6892 65.6654 72.5036 65.4597 72.5036 65.1044C72.5036 64.0384 73.0975 62.5423 74.1554 60.9153C75.5103 58.8208 75.6587 58.4655 75.6587 57.0068C75.6587 55.0993 74.4709 53.0422 72.5964 51.677L72.0396 51.2843L72.6149 51.2656C73.0233 51.2656 73.4316 51.5087 74.1925 52.182ZM60.5326 54.931C60.0686 59.0078 60.1985 61.3642 60.9965 62.5049L61.3677 63.0099L60.6254 63.1408C59.7345 63.2904 59.6788 63.5896 60.4583 64.0571C60.7738 64.2441 60.9965 64.4124 60.9594 64.4498C60.9223 64.4872 60.2913 64.3937 59.5489 64.2254L58.2126 63.9262L58.5467 63.5335C58.7508 63.3091 58.955 62.7293 59.0292 62.2244C59.122 61.4764 59.0663 61.1959 58.7508 60.6722C58.0827 59.5876 58.4167 57.5491 59.8273 54.0708C60.3284 52.8365 60.6254 52.3316 60.7553 52.4438C60.7924 52.4812 60.681 53.6032 60.5326 54.931ZM21.223 56.4645C22.8192 58.5403 23.0976 59.1948 23.4131 61.5512C23.7657 64.2067 24.0256 64.8426 24.9721 65.254C25.6774 65.5532 25.9186 65.9085 25.9186 66.6379C25.9186 66.8249 25.5103 67.4233 24.9907 67.9843C23.8771 69.2373 23.5059 69.9292 23.5059 70.7708C23.5059 71.5936 23.9142 71.9676 24.5081 71.6871C25.0835 71.4253 25.9001 69.6674 26.0486 68.4145C26.1785 67.3111 26.7167 66.6753 28.1273 65.9459C29.3708 65.3288 30.0389 65.2166 30.7999 65.5345C31.3195 65.7589 31.468 65.9459 31.5794 66.5256C31.7278 67.3672 32.3032 68.377 32.6929 68.5454C33.4353 68.8259 32.7115 70.7147 31.2638 72.323C29.5192 74.2305 25.102 76.8673 23.3388 77.0169C22.2253 77.1291 21.5014 76.6429 20.2022 74.9224C19.033 73.3515 17.1213 69.5552 16.713 68.003C16.2676 66.2077 16.1748 63.0473 16.5089 60.9901C17.1028 57.493 17.474 56.7637 19.1072 55.6603C19.6455 55.3237 20.0723 55.0245 20.0909 55.0245C20.0909 55.0058 20.6106 55.6603 21.223 56.4645ZM25.0835 63.066C25.6774 64.749 25.6959 65.1418 25.1391 64.9361C24.471 64.6929 24.0812 63.7953 23.8771 62.0935C23.7657 61.2333 23.6358 60.2608 23.5987 59.9616C23.4873 59.2509 24.3967 61.1771 25.0835 63.066ZM58.3796 61.1959C58.6951 62.0935 58.6395 62.2431 57.8228 63.1408C56.4309 64.6555 55.9854 64.0945 56.5608 61.4951C56.7649 60.6348 56.7835 60.6161 57.4702 60.6161C58.1012 60.6161 58.194 60.6909 58.3796 61.1959ZM62.7783 63.4961C63.0752 63.7205 63.1309 63.9823 63.1124 65.2353C63.1124 67.0867 62.6298 68.2835 61.9245 68.2835C60.7738 68.2835 58.1755 66.4882 57.5444 65.2727C57.0433 64.2628 57.3588 64.188 59.9015 64.6742C60.811 64.8426 61.5905 64.9361 61.6461 64.88C61.8317 64.6929 61.5348 64.2254 61.0708 63.9823C60.4954 63.6644 60.514 63.4587 61.145 63.3652C62.1287 63.2156 62.4071 63.2343 62.7783 63.4961ZM31.7835 64.3937C31.6165 65.441 31.5608 65.4971 30.9112 65.1605C30.1131 64.7677 28.7212 65.0857 27.4405 65.9459C26.2898 66.7501 26.1042 66.7501 26.1042 66.0581C26.1042 65.5532 26.197 65.4784 27.2735 65.1418C27.9045 64.9361 29.1295 64.5059 30.0018 64.188C30.8741 63.8701 31.6536 63.6083 31.7464 63.6083C31.8392 63.6083 31.8578 63.9636 31.7835 64.3937ZM36.2935 64.0758C36.3492 64.1319 36.2379 64.5807 36.0708 65.0483L35.7553 65.9085L36.4049 66.4695C37.667 67.5168 38.2423 69.5178 37.4071 69.9666C37.0916 70.1349 36.7761 70.0414 35.5326 69.4243C34.6974 68.9942 33.9179 68.6576 33.788 68.6576C33.6581 68.6576 33.3797 68.2648 33.1569 67.7786C32.9528 67.2924 32.5816 66.6379 32.3403 66.3199C31.932 65.7963 31.9134 65.6467 32.0805 64.8613C32.229 64.0758 32.2846 64.0197 32.5445 64.2628C32.8229 64.562 33.2312 64.5059 34.4561 64.0571C35.05 63.8327 36.0523 63.8514 36.2935 64.0758ZM57.099 65.1792C57.099 65.3101 57.396 65.7776 57.7857 66.2077C58.491 67.0493 58.491 67.0493 57.5816 67.5542C57.3217 67.7225 57.1361 67.6477 56.7092 67.2363C56.0968 66.6566 56.0411 66.0955 56.4494 65.2727C56.7278 64.749 57.099 64.6742 57.099 65.1792ZM73.3202 66.4321C73.8956 66.8997 73.9327 67.2737 73.4316 67.442C72.9119 67.6103 72.5036 67.2363 72.5036 66.5817C72.5036 65.9459 72.6521 65.9085 73.3202 66.4321ZM63.5021 67.1428C63.4279 67.4607 63.3165 67.7225 63.2237 67.7225C63.1495 67.7225 63.168 67.4233 63.2794 67.068C63.5207 66.2825 63.6877 66.3386 63.5021 67.1428ZM32.7115 67.5729C32.86 67.8721 32.8971 68.0965 32.8043 68.0965C32.5816 68.0965 32.0434 67.1241 32.0434 66.7501C32.0434 66.4695 32.2475 66.7127 32.7115 67.5729ZM60.4769 68.19C61.0151 68.4519 61.6276 68.6576 61.8317 68.6576C62.1658 68.6763 62.1844 68.6763 61.8689 68.8633C61.3677 69.1625 61.0337 69.9666 60.8295 71.5375C60.2727 75.5208 60.7924 76.9608 63.1309 78.0455C63.9475 78.4195 64.3187 78.4756 66.3789 78.4569C67.6595 78.4382 69.4783 78.3073 70.4249 78.1577C71.3714 78.0081 72.1881 77.952 72.2437 78.0268C72.2809 78.1016 72.1881 78.9805 72.0396 79.953C71.8726 80.9441 71.7241 82.3654 71.7055 83.1135C71.6684 84.7218 72.0582 85.6568 73.4687 87.2464C74.2296 88.1253 74.3596 88.3685 74.3596 89.0417V89.8458L68.8473 89.7336C62.9453 89.6214 61.1821 89.4531 59.9386 88.836C58.6209 88.2001 58.3982 87.6204 58.0827 83.9363C57.6744 79.2424 57.8414 76.3624 58.6766 73.0523C59.122 71.2383 59.3262 70.0227 59.3262 69.0877C59.3262 68.3396 59.3633 67.7225 59.4004 67.7225C59.4375 67.7225 59.9201 67.9282 60.4769 68.19ZM25.3619 69.6487C24.6751 71.4814 23.8771 72.0238 23.8771 70.6586C23.8771 70.004 24.174 69.4617 25.0649 68.508C25.566 67.9656 25.6402 67.9282 25.6959 68.2461C25.733 68.4332 25.566 69.069 25.3619 69.6487ZM68.9772 69.4243C70.1465 69.7422 71.4271 70.0788 71.7983 70.1723C73.2831 70.5651 73.5058 72.1547 72.6706 76.3811C72.4108 77.6341 72.7077 77.5032 69.1628 77.9333C65.0426 78.4382 63.0567 78.0829 61.7946 76.6242C60.9965 75.7266 60.9223 75.3338 61.0708 73.1084C61.2749 69.7983 61.5905 69.1625 63.1866 68.8259C64.3373 68.5828 66.7315 68.8259 68.9772 69.4243ZM57.3032 70.2098C57.1732 70.8269 56.9134 71.3879 56.635 71.6497L56.171 72.0799V71.444C56.171 70.5651 57.0433 68.7137 57.3217 68.9942C57.4702 69.1438 57.4702 69.4617 57.3032 70.2098ZM73.9512 74.3053C73.8399 76.2876 73.5615 77.4658 73.246 77.1478C73.0975 76.9982 73.4687 73.4076 73.71 72.6222C73.9327 71.9489 74.0255 72.6222 73.9512 74.3053ZM73.3202 82.0288C73.6172 83.207 74.174 86.461 74.174 87.0594C74.174 87.6765 73.1903 86.5732 72.5036 85.208C71.854 83.9363 71.8726 84.0298 72.3365 80.4392C72.5964 78.4756 72.7263 78.2886 72.8933 79.6912C72.9676 80.3644 73.1532 81.4117 73.3202 82.0288Z" fill="#8A6D18"/>
<path d="M31.2267 25.8509C29.3522 26.5054 27.6447 27.7584 26.8281 29.1049C26.4012 29.7781 26.3641 31.0685 26.7353 31.7978C26.9765 32.2653 26.9765 32.3214 26.6425 32.5272C26.0671 32.9012 26.1785 34.1167 26.9394 35.725C27.7561 37.4268 27.7746 38.1375 27.0322 38.9416C26.6982 39.3156 26.4012 39.9328 26.2713 40.5312C25.9743 41.859 26.2156 42.981 27.6818 47.2262C29.7048 53.0983 30.3544 55.0806 30.5586 56.0344C30.6699 56.5393 31.1339 57.7175 31.5979 58.6151C32.2661 59.9616 32.4146 60.4478 32.4146 61.2707C32.4146 62.6919 32.1918 63.1595 31.4494 63.3091C31.1154 63.3652 30.0018 63.7579 28.981 64.1693C27.9602 64.562 26.8838 64.9174 26.6054 64.9548C26.1042 65.0109 26.0486 64.9548 25.6588 63.7018C25.4175 62.9724 24.8422 61.439 24.3596 60.2608C23.8771 59.0826 23.246 57.2873 22.9491 56.2775C22.3181 54.0708 21.8169 53.1544 20.4435 51.8079L19.4042 50.7607L20.759 50.0874C21.5014 49.7321 22.448 49.3394 22.8563 49.2272C23.2646 49.115 23.6915 48.9654 23.8028 48.8906C24.2483 48.5539 24.6195 47.7685 24.6195 47.0953C24.6195 46.235 25.0463 45.1317 25.4547 44.9821C25.863 44.8137 25.8073 44.608 25.1577 43.8039C24.471 42.9249 24.0627 41.6159 24.0627 40.232C24.0627 38.5863 23.5987 37.2772 22.6893 36.3983C21.7798 35.5006 19.4227 34.229 17.8452 33.7801C14.7457 32.8638 11.2008 34.3786 9.84591 37.1837C9.4376 38.0066 9.32624 38.5863 9.23344 40.0263C9.12208 41.8029 9.10352 41.8777 8.52817 42.3639C8.1941 42.6444 7.9157 42.9997 7.9157 43.1306C7.9157 43.2616 7.78578 43.6169 7.6373 43.8974C7.28467 44.5706 7.28467 45.113 7.61874 45.8984C7.86002 46.4781 8.75089 47.3945 9.252 47.5815C9.4376 47.6376 9.45616 47.7498 9.252 48.0677C8.95504 48.5727 8.9736 49.4329 9.28912 49.863C9.51184 50.1622 9.49328 50.3492 9.21488 51.1908C9.02928 51.7331 8.54673 52.7243 8.13842 53.3975C7.30323 54.8001 6.52372 57.119 6.24532 59.0265C5.72565 62.8228 6.33812 66.0581 8.62097 71.2757C10.1057 74.6419 10.18 76.0071 9.19632 82.0288C8.78801 84.647 8.73233 88.0505 9.10352 89.0791L9.36336 89.7897H5.85557C3.64696 89.7897 2.34778 89.8645 2.34778 89.9767C2.34778 90.089 3.73976 90.1638 6.15252 90.1638C9.6232 90.1638 10.3656 90.0703 9.77167 89.6962C9.0664 89.2474 9.01072 85.6942 9.67887 81.3369C10.2171 77.6902 10.2913 74.8289 9.84591 73.3141C9.67887 72.7531 9.08496 71.2944 8.52817 70.0601C6.98771 66.6566 6.56084 64.8613 6.56084 61.5512C6.56084 58.1663 6.89491 56.7637 8.47249 53.6032C9.08496 52.369 9.58608 51.2656 9.58608 51.1721C9.58608 50.5363 9.88303 50.5176 11.6462 50.9664C15.9149 52.0884 19.7939 53.8463 19.7939 54.6692C19.7939 54.744 19.3114 55.118 18.736 55.5107C18.0864 55.9409 17.5111 56.5206 17.2512 56.9694C16.1933 58.8769 15.618 64.001 16.1377 66.8997C16.4717 68.7885 17.3812 71.07 18.569 73.0897C20.5549 76.4559 21.8355 77.578 23.4502 77.3909C25.1948 77.2039 29.2223 74.8476 31.2453 72.8466C32.4146 71.7058 33.3425 70.1162 33.3425 69.256C33.3425 69.0316 33.3982 68.8446 33.491 68.8446C33.5653 68.8446 34.2705 69.1812 35.0686 69.5926C36.5163 70.3594 37.537 70.5277 37.9454 70.1162C38.0753 69.9853 38.1681 69.5552 38.1681 69.1438C38.1681 68.2835 37.3329 66.6192 36.6647 66.1516C36.275 65.8898 36.275 65.815 36.4977 65.0296C36.6833 64.3563 36.6833 64.1132 36.4977 63.8888C36.1079 63.4213 35.18 63.3839 34.0849 63.7766C32.6929 64.2815 32.5259 64.1132 32.7115 62.3179C32.8043 61.2146 32.8785 61.0275 33.0827 61.1959C33.2869 61.3642 33.4168 61.3455 33.6395 61.1584C34.5675 60.3917 35.1243 57.9045 34.9572 55.2676C34.8273 53.491 34.6417 52.8178 33.4353 49.8817C33.0456 48.9654 32.6929 47.862 32.6373 47.4506C32.5445 46.7025 32.5445 46.6838 32.9157 47.0205C33.1198 47.1888 33.5467 48.1425 33.8808 49.0963C34.4376 50.7046 35.0315 51.677 35.3099 51.4152C35.3656 51.3591 35.4769 50.3118 35.5697 49.0963C35.7739 46.4781 35.6254 43.3364 35.2728 42.6257C35.1243 42.3452 35.0129 42.0834 35.0129 42.0086C35.0129 41.7281 35.978 41.9712 36.6462 42.42C38.0567 43.3925 42.1213 47.2262 42.3626 47.8433C42.5296 48.236 42.6224 49.2646 42.6224 50.8355C42.6224 53.3227 42.7338 53.9211 43.8288 57.5304C44.5526 59.9242 44.5526 61.9813 43.7917 66.0394C42.6595 72.0238 42.5482 75.4834 43.3648 79.3172C44.0144 82.4589 43.8288 83.6371 42.4368 84.7405L41.6573 85.3763L41.7687 86.9659C41.8429 87.8448 41.9357 88.9295 41.9914 89.3596L42.1027 90.1638H49.6937H57.2846L57.1918 89.1913C56.8392 85.1519 56.7092 81.019 56.8763 78.4756C57.0619 75.6705 56.9505 73.95 56.5237 72.9401C56.3381 72.4352 56.3566 72.3604 56.802 72.0051C57.4331 71.5001 57.8785 69.9853 57.73 68.8259C57.6187 68.0217 57.6558 67.9282 58.1198 67.6103C58.5467 67.3298 58.6395 67.3298 58.7879 67.5542C59.1591 68.1526 58.955 70.4716 58.3054 73.0336C57.8228 74.885 57.6187 76.1941 57.5259 77.7276C57.4145 79.953 57.7486 85.8064 58.0641 87.0594C58.3425 88.1814 59.4004 89.1726 60.681 89.4905C62.3514 89.9206 66.6573 90.1825 70.926 90.1264L74.8236 90.0703L74.7679 89.4531C74.7308 89.1352 74.7679 88.8547 74.8421 88.8547C74.8978 88.8547 75.2875 89.1539 75.6773 89.5092C76.364 90.1264 76.4754 90.1638 77.7003 90.1638C78.4427 90.1638 78.9995 90.089 78.9995 89.9767C78.9995 89.8645 78.4427 89.7897 77.7189 89.7897H76.4568L75.5288 88.7986C74.638 87.8635 74.5823 87.7326 74.4524 86.5171C74.3224 85.2454 73.6728 81.5987 73.5244 81.3743C73.4873 81.2995 73.3573 80.514 73.246 79.5977L73.0418 77.952L73.5429 77.4284C74.1183 76.8299 74.341 75.8575 74.341 73.8939C74.3596 72.1173 74.2296 71.6123 73.8028 71.7432C73.58 71.818 73.4501 71.6684 73.3017 71.1822L73.0975 70.5277H74.0626C75.8629 70.5277 77.0136 69.4056 77.2178 67.442C77.459 65.2166 77.4962 61.8504 77.3291 59.5876C77.0322 55.6042 76.4197 53.8837 74.6936 52.1445C74.0812 51.5461 73.7285 51.0786 73.8956 51.0786C74.4338 51.0786 74.174 50.7981 73.1903 50.3305C71.5014 49.5077 70.9074 47.8059 70.3878 42.046C70.2207 40.3255 70.0908 38.3806 70.0908 37.7447C70.0908 36.1178 69.7939 35.2014 68.9958 34.416C68.1235 33.537 67.0841 33.2378 65.2282 33.35C62.5556 33.4996 59.8644 35.2575 58.7323 37.5577C58.194 38.6611 58.1383 38.979 58.0641 40.9052C57.9899 42.7566 58.0455 43.2803 58.491 45.0943C59.0849 47.5441 59.0478 48.5165 58.3239 49.489C58.0455 49.8443 57.86 50.2183 57.9342 50.3118C57.9899 50.4241 57.7486 50.6298 57.4145 50.7981C57.0619 50.9664 56.5979 51.2656 56.3752 51.4713C55.1688 52.5934 54.2779 55.9783 53.2015 63.5148C52.5147 68.2648 52.8117 69.6674 54.8533 71.4253C55.3729 71.8741 55.9297 72.4726 56.0782 72.7531C56.5793 73.7629 56.7092 75.4273 56.5051 78.513C56.3381 81.206 56.468 85.582 56.8206 89.0043L56.9134 89.7897H49.6937H42.4739L42.3626 89.0978C42.3069 88.7051 42.2141 87.7513 42.1399 86.9659L42.0285 85.5446L42.6781 85.0397C43.5133 84.3851 44.1072 83.1883 44.1072 82.1036C44.1072 81.6548 43.9401 80.4392 43.736 79.4107C42.9379 75.446 43.0493 71.7432 44.1072 66.1329C45.0537 61.0649 45.0352 60.186 43.8102 56.2962C43.1978 54.3513 43.1421 53.8837 43.0122 51.0786C42.9194 49.0776 42.7894 47.8059 42.6224 47.4506C42.3069 46.7961 37.4071 42.3826 36.4606 41.8964C36.0708 41.7094 35.5883 41.5411 35.3841 41.5411C34.9944 41.5411 34.9944 41.5411 35.347 41.0174C35.8852 40.2507 36.7761 38.3993 37.1473 37.2585C37.3886 36.4918 37.4442 35.9682 37.3514 35.0518C37.2772 34.3225 37.2958 33.8923 37.4071 33.9484C37.7226 34.1542 38.6877 32.8077 38.8177 31.9474C39.1517 29.7968 37.3886 27.0478 34.9387 25.907C33.7694 25.3647 32.6929 25.346 31.2267 25.8509ZM34.9572 26.2997C37.4628 27.5527 39.1517 30.788 38.2238 32.5459C38.0382 32.9012 37.7969 33.2191 37.6855 33.2565C37.3514 33.3687 37.203 32.4711 37.3514 31.2555C37.4442 30.3765 37.4071 30.0212 37.1102 29.4415C36.906 29.0488 36.5905 28.3942 36.3863 27.9828C35.8481 26.8794 34.7716 26.3932 32.86 26.3745C31.0783 26.3558 30.2245 26.6737 29.2037 27.6649C27.9417 28.8992 27.4962 31.349 27.8674 34.9396C27.9417 35.725 27.9231 36.3048 27.8303 36.3048C27.5519 36.3048 26.661 34.2664 26.661 33.6118C26.661 33.163 26.791 32.9012 27.0879 32.6955C27.4962 32.4337 27.4962 32.415 27.1807 31.8539C26.4383 30.5636 27.0508 28.8244 28.6469 27.6462C31.1154 25.8509 33.1569 25.4021 34.9572 26.2997ZM34.883 27.0665C35.6625 27.4779 36.1265 27.8893 36.1265 28.2072C36.1265 28.3942 36.0337 28.4129 35.7739 28.2633C35.5697 28.1698 34.9944 27.9828 34.4747 27.8706C32.5074 27.4592 30.3915 28.6747 29.278 30.8815C28.9439 31.536 28.6284 31.9287 28.3871 31.9661C28.0345 32.0222 28.0345 31.9661 28.1644 30.9563C28.2386 30.3578 28.5356 29.4041 28.8325 28.8431C29.2594 28.0015 29.5378 27.721 30.3544 27.2909C31.1896 26.842 31.5608 26.7672 32.8229 26.7672C33.8065 26.7672 34.4747 26.8607 34.883 27.0665ZM34.9016 28.3381C36.0708 28.6934 36.3492 28.9553 36.1079 29.4041C35.8481 29.9277 34.6788 30.6571 33.6209 30.9563C32.4888 31.2929 29.6306 31.6856 29.4821 31.536C29.1852 31.2368 30.8184 29.1797 31.765 28.6934C32.9899 28.0389 33.6581 27.9641 34.9016 28.3381ZM37.0545 30.8254C37.0545 31.6669 36.8874 31.8165 36.4977 31.349C36.1079 30.8815 35.4027 31.0311 34.2334 31.8165C33.027 32.6207 32.2846 32.9012 30.7999 33.0695C29.5007 33.2191 28.8882 33.0508 29.0181 32.5646C29.1295 32.1344 29.3151 32.0783 31.0783 31.8165C33.9179 31.4238 35.6625 30.7319 36.275 29.7968C36.5534 29.3667 36.5719 29.3667 36.8132 29.6846C36.9431 29.8716 37.0545 30.3765 37.0545 30.8254ZM36.4606 31.91C36.739 32.2653 36.8503 32.8077 36.9431 34.3973C37.073 36.2861 37.0545 36.4918 36.6091 37.6886C35.8852 39.6149 35.2356 40.7182 34.252 41.6346C32.9528 42.8688 32.0805 42.9623 30.9483 41.9899C30.1688 41.3353 28.9439 38.7733 28.5727 37.0341C28.3129 35.7811 28.3129 35.4819 28.5356 34.5282L28.7954 33.4622L30.373 33.4248C32.0434 33.3874 33.2126 32.9947 34.7531 31.9287C35.6439 31.3303 35.9966 31.3116 36.4606 31.91ZM28.7026 32.4524C28.7026 32.5085 28.6284 32.602 28.517 32.6581C28.4242 32.7142 28.3314 32.6768 28.3314 32.5833C28.3314 32.4711 28.4242 32.3776 28.517 32.3776C28.6284 32.3776 28.7026 32.415 28.7026 32.4524ZM28.35 33.7053C28.1829 34.1354 28.1644 34.1167 28.1644 33.4996C28.1458 33.0695 28.2015 32.9199 28.3314 33.0508C28.4613 33.1817 28.4613 33.4061 28.35 33.7053ZM18.0864 34.229C19.4227 34.6404 21.4086 35.725 22.3366 36.5479C23.2275 37.352 23.4873 38.0627 23.6729 40.232C23.84 42.0086 24.1369 42.9997 24.9164 44.1779C25.2134 44.6454 25.2134 44.6828 24.8422 45.0943C24.6195 45.3374 24.3967 45.8984 24.3411 46.3846C24.0812 48.4043 23.8956 48.6662 22.6707 48.928C22.3737 48.9841 21.52 49.3394 20.7776 49.7134L19.4599 50.3679L18.4391 49.7882C16.5274 48.6849 15.4138 47.2262 15.6737 46.1602C15.7293 45.9732 16.0449 45.5992 16.3789 45.3374L17.01 44.8698L16.4346 43.7852C15.4881 42.0647 15.9149 41.3166 17.6039 41.7468C18.8103 42.0647 19.3671 41.8029 19.5341 40.8491C19.7568 39.5588 20.0538 39.2034 21.2602 38.7546C23.2646 38.0253 23.1347 37.1089 20.9075 35.9869C18.3277 34.6965 15.0241 34.3412 13.2052 35.164C11.7204 35.8372 10.7739 36.8845 10.0315 38.7172C9.69743 39.5213 9.58608 39.6523 9.58608 39.2782C9.58608 38.9977 9.71599 38.4367 9.86447 38.0066C10.9595 34.8461 14.6529 33.1443 18.0864 34.229ZM67.3069 34.7713C68.4576 35.9682 68.8844 37.3707 69.3484 41.5411C69.5526 43.3364 69.8495 45.3187 69.998 45.9358C70.3878 47.4506 71.2044 49.1711 71.9468 50.0313C72.4479 50.5924 72.5221 50.7607 72.2994 50.9103C71.7612 51.2469 70.5734 50.9477 69.5711 50.1809C69.1072 49.8256 68.8288 49.7508 68.3276 49.8256C67.7152 49.9191 67.6595 49.8817 67.2697 49.1524C66.9357 48.5352 66.8429 48.049 66.8429 46.9644C66.8429 45.4309 67.2141 44.4584 68.2534 43.2616C68.903 42.5135 68.9772 41.5411 68.4204 40.98C68.0121 40.5686 67.808 40.5312 67.3254 40.7743C67.0656 40.9239 66.8057 40.7182 65.9149 39.7271C64.4672 38.1001 63.2794 37.5203 61.7018 37.6886C60.6254 37.8009 60.6068 37.8009 60.8295 37.3707C60.9594 37.1463 61.442 36.5105 61.906 35.9494C62.8896 34.7713 64.56 33.8736 65.7107 33.8736C66.3418 33.8736 66.5645 34.0045 67.3069 34.7713ZM68.1606 34.1729C69.0329 34.5843 69.5526 35.5193 69.6454 36.8284C69.6825 37.4081 69.8495 39.4839 70.0166 41.4289C70.1651 43.3738 70.2393 45.0008 70.1836 45.0569C70.1279 45.113 70.0908 45.0756 70.0908 44.9821C70.0908 44.8885 69.9238 43.3364 69.7196 41.5411C69.2371 37.1837 68.8102 35.7437 67.6224 34.4721C66.9913 33.8175 67.1769 33.7053 68.1606 34.1729ZM63.2237 34.2477C62.6112 34.6778 62.2957 34.8087 62.2957 34.6591C62.2957 34.5656 62.4813 34.3973 62.7226 34.2851C63.2423 34.0232 63.5949 34.0045 63.2237 34.2477ZM18.8288 35.5941C21.3529 36.3609 22.7078 37.2959 22.2067 37.8944C22.0953 38.044 21.5942 38.2871 21.1117 38.4554C20.0352 38.8107 19.4784 39.3717 19.3114 40.232C19.0515 41.6159 18.8288 41.7281 17.2698 41.3166C16.4346 41.0922 16.3975 41.0922 15.9706 41.5972C15.3953 42.2704 15.4138 42.6818 16.0077 43.8039L16.5089 44.7015L15.9149 45.1878C15.451 45.5992 15.3396 45.8236 15.3396 46.4407C15.3396 47.301 15.5438 47.7685 16.3233 48.5914C16.6388 48.928 16.8615 49.2085 16.8058 49.2085C16.7687 49.2085 16.1005 49.0028 15.3396 48.7784C13.9847 48.3482 13.9291 48.3108 13.3723 47.301C13.0567 46.7399 12.7412 45.9171 12.6856 45.4683C12.5556 44.421 12.0916 43.8039 11.0523 43.2616C10.0872 42.7753 9.99439 42.5696 9.97583 41.0361C9.93871 38.3806 11.7947 35.7811 14.1518 35.2014C15.154 34.9396 17.344 35.1266 18.8288 35.5941ZM61.5905 35.5193C61.4049 35.7063 60.978 36.2487 60.6439 36.7349C59.9201 37.726 59.6974 37.8196 59.6974 37.1463C59.6974 36.5666 61.0151 35.1827 61.5533 35.1827C61.906 35.1827 61.906 35.2014 61.5905 35.5193ZM59.0849 39.1473C58.7508 39.7271 58.4539 40.1759 58.4167 40.1385C58.3425 40.045 58.6766 38.6237 58.955 37.8757C59.1406 37.3894 59.1591 37.3894 59.4004 37.726C59.6417 38.0253 59.586 38.1936 59.0849 39.1473ZM28.7583 38.9603C28.9253 39.4652 29.0181 39.858 28.981 39.858C28.814 39.858 28.3314 38.7359 28.3314 38.3432C28.3314 37.8009 28.4056 37.8944 28.7583 38.9603ZM63.7619 38.3619C64.1517 38.5489 65.024 39.3156 65.6922 40.0637C66.7686 41.2605 66.9357 41.3728 67.2883 41.1857C67.5667 41.0174 67.7894 41.0174 68.0492 41.167C68.6246 41.485 68.5318 42.4013 67.8451 43.1868C66.8614 44.3088 66.4717 45.3748 66.4717 46.9644C66.4717 48.0116 66.583 48.5914 66.88 49.2459L67.2883 50.1435L66.6944 50.5363C65.6179 51.2843 64.3187 52.6495 63.8733 53.5097C63.2608 54.7253 63.0567 55.6042 62.6669 58.8021C62.2772 62 62.0916 62.7293 61.6461 62.561C60.6996 62.187 60.3655 58.9891 60.8852 55.0993C61.0522 53.865 61.3306 51.7892 61.4977 50.4802L61.8132 48.1051L60.9409 46.2724C59.883 44.0283 59.4375 42.2517 59.5674 40.5873C59.6602 39.0164 59.9943 38.3058 60.7182 38.1562C61.8503 37.9131 63.0567 37.9879 63.7619 38.3619ZM28.3314 39.5588C28.3314 39.6523 28.4613 39.8954 28.6469 40.0824C28.814 40.2694 28.9068 40.4751 28.8511 40.5312C28.7026 40.6621 28.0345 39.6897 27.886 39.1099C27.7561 38.6611 27.7746 38.6611 28.0345 38.9977C28.2015 39.2034 28.3314 39.4465 28.3314 39.5588ZM26.9209 40.2694C26.4754 41.5411 26.7538 42.3078 28.4799 44.795L29.5007 46.2724L29.9461 45.7675L30.3915 45.2439L30.7627 45.7301C30.9669 45.9919 31.2638 46.2163 31.4309 46.2163C31.6165 46.2163 31.6722 46.3098 31.5794 46.5342C31.5237 46.7212 31.3381 47.7872 31.1896 48.8906C30.9483 50.8168 30.3915 53.3975 30.2616 53.2666C30.1131 53.117 28.3129 48.1425 27.5148 45.7114C26.494 42.5696 26.3084 41.2044 26.7167 40.1759C27.125 39.2221 27.2735 39.2969 26.9209 40.2694ZM29.8533 41.8403C30.4658 42.3265 30.9298 42.8314 30.9298 43.0184C30.9298 43.5234 30.2616 44.9821 29.8533 45.3374C29.5192 45.6553 29.4636 45.5992 28.3685 43.9722C27.0879 42.0647 26.8652 41.354 27.2921 40.3442L27.589 39.6523L28.1644 40.3255C28.4984 40.6995 29.2408 41.3915 29.8533 41.8403ZM59.6788 44.1592C59.9015 44.8885 60.3841 46.048 60.7367 46.7212C61.3677 47.9181 61.5348 48.6475 61.1821 48.6475C61.0893 48.6475 60.9409 48.423 60.8852 48.1238C60.811 47.8433 60.3098 46.5716 59.7716 45.2813C58.6209 42.5696 58.4353 41.6907 58.7879 40.6808L59.0292 39.9515L59.1591 41.3728C59.2334 42.1769 59.4561 43.4112 59.6788 44.1592ZM9.75311 42.7379C9.71599 42.7753 9.40048 42.8501 9.08496 42.9062C8.36113 43.0558 8.28689 42.8127 8.93649 42.5135C9.19632 42.4013 9.40048 42.1956 9.41904 42.0647C9.41904 41.9338 9.51184 42.0086 9.6232 42.2517C9.73455 42.4761 9.79023 42.7005 9.75311 42.7379ZM33.8808 42.981C33.1198 43.7104 33.1013 43.7104 32.5074 43.4299C31.9877 43.1681 31.9691 43.1306 32.3032 43.0745C33.1198 42.9623 33.8622 42.6444 34.1963 42.2704C34.3819 42.0647 34.5675 41.9712 34.6046 42.0647C34.6417 42.1769 34.3076 42.5883 33.8808 42.981ZM35.05 43.5608C35.2171 44.1779 34.9387 45.6553 34.6788 45.6553C34.5118 45.6366 33.5281 44.2153 33.5281 43.9722C33.5281 43.7104 34.5118 42.8314 34.716 42.9062C34.8273 42.9436 34.9758 43.2429 35.05 43.5608ZM10.7553 44.4023C11.2193 45.0569 11.7204 45.6927 11.8875 45.8236C12.0545 45.9732 12.1844 46.2163 12.1844 46.3846C12.1659 46.7399 11.2008 45.674 10.6069 44.7015C10.4027 44.3462 9.95727 43.9348 9.64176 43.7852C8.91793 43.4486 8.86225 43.2242 9.47472 43.2242C9.80879 43.2242 10.1243 43.5234 10.7553 44.4023ZM11.7947 44.2714C12.203 44.795 12.4628 45.4496 12.3144 45.5992C12.203 45.7114 10.6997 43.8226 10.6997 43.5795C10.6997 43.299 11.3678 43.7291 11.7947 44.2714ZM31.6722 43.486C31.6722 43.5234 31.5422 43.6543 31.3938 43.7852C31.1525 43.9909 31.1339 43.9722 31.2267 43.7104C31.3195 43.4486 31.6722 43.2803 31.6722 43.486ZM9.23344 43.9722C9.71599 44.234 10.1985 44.7202 10.6254 45.3748C11.3121 46.4781 11.9803 47.0392 12.4072 46.8709C12.6856 46.7586 13.6135 48.1799 13.3537 48.3295C13.2609 48.3669 12.7412 48.423 12.1844 48.4417C11.1451 48.4978 10.3841 48.7784 9.97583 49.2833C9.84591 49.4516 9.66031 49.5264 9.56752 49.4703C9.27056 49.2833 9.40048 48.4604 9.77167 48.0864C10.2542 47.6002 10.2542 47.5815 9.5304 47.2823C8.08274 46.6651 7.32179 45.0195 8.02706 44.0096C8.36113 43.5047 8.32401 43.5047 9.23344 43.9722ZM60.347 47.7872C60.6068 48.6288 60.5882 48.741 60.3098 49.0589C59.9201 49.489 58.7879 50.2183 58.658 50.1061C58.6209 50.05 58.7508 49.6386 58.955 49.1898C59.419 48.1612 59.419 47.2449 58.955 45.4683C58.7508 44.7015 58.5838 43.9348 58.5838 43.7852C58.5838 43.4112 60.0129 46.6277 60.347 47.7872ZM32.5259 44.047C32.6558 44.4023 31.9134 45.8423 31.5979 45.8423C31.301 45.8423 30.7442 45.3561 30.7442 45.0943C30.7442 44.8511 31.9134 43.7852 32.1918 43.7852C32.3218 43.7852 32.4702 43.8974 32.5259 44.047ZM34.1035 45.5992L34.6974 46.4594L35.0686 46.0106L35.4398 45.5618L35.3099 47.9929C35.2356 49.3207 35.1057 50.4989 35.0129 50.5737C34.9387 50.6672 34.7345 50.3679 34.5675 49.9191C34.419 49.489 34.1035 48.6475 33.8993 48.0677C33.491 46.9457 32.7672 46.0854 32.4146 46.3098C32.0062 46.5716 32.3218 48.1238 33.2312 50.3305C34.4561 53.2666 34.6974 54.4635 34.586 56.7824C34.4747 58.8769 34.252 59.812 33.7137 60.4665C33.3611 60.8966 33.3611 60.8966 33.0827 60.5226C32.9342 60.3169 32.6558 59.6998 32.5074 59.1387C32.3403 58.5777 31.8392 57.3247 31.4123 56.3336C30.5215 54.3513 30.5215 54.183 31.1711 51.2656C31.3195 50.5924 31.5051 49.5077 31.5794 48.8345C31.7464 47.0205 31.9691 46.3472 32.6001 45.7488C32.8971 45.4496 33.1569 45.0569 33.1569 44.8698C33.1569 44.3836 33.4168 44.5893 34.1035 45.5992ZM14.1703 49.2646C14.5601 49.6199 15.3953 50.2557 16.0449 50.6859C17.2512 51.5087 18.5875 52.743 18.4391 52.8926C18.3834 52.93 18.105 52.8552 17.808 52.7056C16.9729 52.2755 13.0382 50.929 11.7019 50.6111C9.93871 50.1996 9.86447 50.1248 10.3285 49.5264C10.7739 48.9654 11.5348 48.6849 12.6856 48.6662C13.3351 48.6475 13.6135 48.7597 14.1703 49.2646ZM18.1607 50.4428C19.5898 51.3217 21.2416 52.9861 21.7984 54.1269C22.2253 55.0058 23.1904 58.2037 23.0419 58.3346C23.0048 58.372 22.8748 58.2037 22.7449 57.9606C22.6336 57.7362 22.0953 56.9881 21.5757 56.3149C21.0374 55.6416 20.3322 54.6692 19.9795 54.1643C18.9959 52.7243 17.6039 51.303 16.1748 50.3305C15.451 49.8443 14.7457 49.302 14.6158 49.1337C14.226 48.6662 16.8058 49.6199 18.1607 50.4428ZM61.1265 50.1809C61.0708 50.3118 61.0337 50.2183 61.0337 49.9565C61.0337 49.6947 61.0708 49.6012 61.1265 49.7134C61.1636 49.8443 61.1636 50.0687 61.1265 50.1809ZM69.0515 50.2557C69.2185 50.3118 69.2928 50.4428 69.2371 50.5363C69.0886 50.7981 68.4947 50.742 68.2348 50.4241C68.0492 50.1996 68.0678 50.1435 68.3833 50.1435C68.5875 50.1435 68.8844 50.1996 69.0515 50.2557ZM60.4769 50.4241C60.6254 50.5924 60.217 52.0884 59.9943 52.2381C59.753 52.4064 58.5467 52.4251 58.1383 52.2755C57.6372 52.0884 59.2148 50.3305 59.8644 50.3305C60.1428 50.3305 60.4212 50.3679 60.4769 50.4241ZM67.8637 50.6859C67.8637 50.7794 67.6966 50.929 67.4925 50.9851C66.8985 51.1721 64.857 53.1731 65.0426 53.3601C65.1354 53.4536 65.8406 53.6032 66.583 53.678C67.344 53.7528 68.6617 53.9772 69.534 54.1643C70.4249 54.3513 71.2786 54.4635 71.4457 54.3887C71.8169 54.2578 71.7426 53.7715 71.1858 52.4251L70.8518 51.6396H71.3714C71.9839 51.6396 73.3017 52.5934 74.044 53.5845C74.9349 54.744 75.2875 55.7351 75.2875 57.0816C75.2875 58.4468 75.0277 59.0826 73.6357 61.0649C72.9119 62.1122 72.1324 64.1319 72.1324 64.9548C72.1324 65.3849 72.2994 65.4223 69.534 64.4498C67.5481 63.7579 65.4323 63.2343 64.5971 63.2343C64.3559 63.2343 64.0032 63.3839 63.8362 63.5522C63.5392 63.8701 63.5021 63.8514 62.9268 63.3091C62.3328 62.7293 62.3328 62.7293 62.5741 61.813C62.704 61.2894 62.9082 59.9616 63.0196 58.8395C63.4836 54.5009 64.1517 52.93 66.1562 51.4152C67.2697 50.555 67.8637 50.3118 67.8637 50.6859ZM57.7672 51.677C57.396 52.1071 57.099 52.4999 57.099 52.556C57.099 52.6121 57.6929 52.6869 58.4167 52.7056C59.1406 52.7243 59.7716 52.7804 59.8273 52.8178C59.8644 52.8739 59.6417 53.5658 59.3076 54.37C58.4539 56.558 58.2311 57.3808 58.1012 58.8769L57.9713 60.2234L57.2289 60.2795C56.4865 60.3356 56.468 60.3543 56.2267 61.2707C55.9112 62.5423 55.9112 63.8888 56.2638 64.1693C56.4865 64.3563 56.4865 64.4872 56.171 65.067C55.6328 66.0768 55.707 66.6753 56.4309 67.4981L57.0804 68.2087L56.635 68.9568C56.3937 69.3495 56.0782 70.0788 55.9669 70.5651C55.8369 71.07 55.6513 71.4627 55.5771 71.4627C55.4843 71.4627 55.0203 71.07 54.5378 70.5651C53.0159 69.0316 52.9045 67.8908 53.7583 62.2805C54.909 54.6318 55.6513 52.2755 57.1361 51.3778C58.3054 50.6672 58.5281 50.7794 57.7672 51.677ZM69.8124 51.0786C70.1651 51.2282 70.1651 51.2469 69.7753 51.2469C69.5526 51.2656 69.3113 51.1721 69.2556 51.0786C69.1257 50.8542 69.2928 50.8542 69.8124 51.0786ZM68.7916 51.3591C69.0515 51.5087 69.4783 51.6209 69.7753 51.6396C70.1465 51.6396 70.3878 51.8079 70.6476 52.2381C71.0559 52.9113 71.2972 53.8463 71.1302 54.0334C71.0559 54.0895 70.2022 53.9585 69.2 53.7341C68.2163 53.5097 67.1027 53.3227 66.7501 53.3227C65.655 53.3227 65.5622 53.0983 66.3418 52.3503C66.9357 51.7518 67.9564 51.0786 68.2348 51.0786C68.2905 51.0973 68.5318 51.2095 68.7916 51.3591ZM74.1925 52.182C75.3618 53.2292 76.0671 54.4261 76.4939 56.1092C77.1806 58.7834 77.1992 67.5355 76.5125 68.8072C75.7887 70.191 73.9327 70.5651 72.2623 69.6861C71.7426 69.4056 70.6847 69.0877 69.6639 68.9194C68.736 68.7698 67.047 68.4706 65.9149 68.2648L63.8733 67.8721V65.9272C63.8733 63.3091 63.929 63.2717 66.9542 64.0571C67.9193 64.3002 69.4598 64.7864 70.3692 65.1231L72.0396 65.7589L72.1509 66.5817C72.2809 67.5355 72.7449 67.9843 73.4316 67.816C74.1368 67.629 74.2668 67.4233 74.0626 66.8436C73.9698 66.5443 73.5986 66.1703 73.1903 65.9459C72.6892 65.6654 72.5036 65.4597 72.5036 65.1044C72.5036 64.0384 73.0975 62.5423 74.1554 60.9153C75.5103 58.8208 75.6587 58.4655 75.6587 57.0068C75.6587 55.0993 74.4709 53.0422 72.5964 51.677L72.0396 51.2843L72.6149 51.2656C73.0233 51.2656 73.4316 51.5087 74.1925 52.182ZM60.5326 54.931C60.0686 59.0078 60.1985 61.3642 60.9965 62.5049L61.3677 63.0099L60.6254 63.1408C59.7345 63.2904 59.6788 63.5896 60.4583 64.0571C60.7738 64.2441 60.9965 64.4124 60.9594 64.4498C60.9223 64.4872 60.2913 64.3937 59.5489 64.2254L58.2126 63.9262L58.5467 63.5335C58.7508 63.3091 58.955 62.7293 59.0292 62.2244C59.122 61.4764 59.0663 61.1959 58.7508 60.6722C58.0827 59.5876 58.4167 57.5491 59.8273 54.0708C60.3284 52.8365 60.6254 52.3316 60.7553 52.4438C60.7924 52.4812 60.681 53.6032 60.5326 54.931ZM21.223 56.4645C22.8192 58.5403 23.0976 59.1948 23.4131 61.5512C23.7657 64.2067 24.0256 64.8426 24.9721 65.254C25.6774 65.5532 25.9186 65.9085 25.9186 66.6379C25.9186 66.8249 25.5103 67.4233 24.9907 67.9843C23.8771 69.2373 23.5059 69.9292 23.5059 70.7708C23.5059 71.5936 23.9142 71.9676 24.5081 71.6871C25.0835 71.4253 25.9001 69.6674 26.0486 68.4145C26.1785 67.3111 26.7167 66.6753 28.1273 65.9459C29.3708 65.3288 30.0389 65.2166 30.7999 65.5345C31.3195 65.7589 31.468 65.9459 31.5794 66.5256C31.7278 67.3672 32.3032 68.377 32.6929 68.5454C33.4353 68.8259 32.7115 70.7147 31.2638 72.323C29.5192 74.2305 25.102 76.8673 23.3388 77.0169C22.2253 77.1291 21.5014 76.6429 20.2022 74.9224C19.033 73.3515 17.1213 69.5552 16.713 68.003C16.2676 66.2077 16.1748 63.0473 16.5089 60.9901C17.1028 57.493 17.474 56.7637 19.1072 55.6603C19.6455 55.3237 20.0723 55.0245 20.0909 55.0245C20.0909 55.0058 20.6106 55.6603 21.223 56.4645ZM25.0835 63.066C25.6774 64.749 25.6959 65.1418 25.1391 64.9361C24.471 64.6929 24.0812 63.7953 23.8771 62.0935C23.7657 61.2333 23.6358 60.2608 23.5987 59.9616C23.4873 59.2509 24.3967 61.1771 25.0835 63.066ZM58.3796 61.1959C58.6951 62.0935 58.6395 62.2431 57.8228 63.1408C56.4309 64.6555 55.9854 64.0945 56.5608 61.4951C56.7649 60.6348 56.7835 60.6161 57.4702 60.6161C58.1012 60.6161 58.194 60.6909 58.3796 61.1959ZM62.7783 63.4961C63.0752 63.7205 63.1309 63.9823 63.1124 65.2353C63.1124 67.0867 62.6298 68.2835 61.9245 68.2835C60.7738 68.2835 58.1755 66.4882 57.5444 65.2727C57.0433 64.2628 57.3588 64.188 59.9015 64.6742C60.811 64.8426 61.5905 64.9361 61.6461 64.88C61.8317 64.6929 61.5348 64.2254 61.0708 63.9823C60.4954 63.6644 60.514 63.4587 61.145 63.3652C62.1287 63.2156 62.4071 63.2343 62.7783 63.4961ZM31.7835 64.3937C31.6165 65.441 31.5608 65.4971 30.9112 65.1605C30.1131 64.7677 28.7212 65.0857 27.4405 65.9459C26.2898 66.7501 26.1042 66.7501 26.1042 66.0581C26.1042 65.5532 26.197 65.4784 27.2735 65.1418C27.9045 64.9361 29.1295 64.5059 30.0018 64.188C30.8741 63.8701 31.6536 63.6083 31.7464 63.6083C31.8392 63.6083 31.8578 63.9636 31.7835 64.3937ZM36.2935 64.0758C36.3492 64.1319 36.2379 64.5807 36.0708 65.0483L35.7553 65.9085L36.4049 66.4695C37.667 67.5168 38.2423 69.5178 37.4071 69.9666C37.0916 70.1349 36.7761 70.0414 35.5326 69.4243C34.6974 68.9942 33.9179 68.6576 33.788 68.6576C33.6581 68.6576 33.3797 68.2648 33.1569 67.7786C32.9528 67.2924 32.5816 66.6379 32.3403 66.3199C31.932 65.7963 31.9134 65.6467 32.0805 64.8613C32.229 64.0758 32.2846 64.0197 32.5445 64.2628C32.8229 64.562 33.2312 64.5059 34.4561 64.0571C35.05 63.8327 36.0523 63.8514 36.2935 64.0758ZM57.099 65.1792C57.099 65.3101 57.396 65.7776 57.7857 66.2077C58.491 67.0493 58.491 67.0493 57.5816 67.5542C57.3217 67.7225 57.1361 67.6477 56.7092 67.2363C56.0968 66.6566 56.0411 66.0955 56.4494 65.2727C56.7278 64.749 57.099 64.6742 57.099 65.1792ZM73.3202 66.4321C73.8956 66.8997 73.9327 67.2737 73.4316 67.442C72.9119 67.6103 72.5036 67.2363 72.5036 66.5817C72.5036 65.9459 72.6521 65.9085 73.3202 66.4321ZM63.5021 67.1428C63.4279 67.4607 63.3165 67.7225 63.2237 67.7225C63.1495 67.7225 63.168 67.4233 63.2794 67.068C63.5207 66.2825 63.6877 66.3386 63.5021 67.1428ZM32.7115 67.5729C32.86 67.8721 32.8971 68.0965 32.8043 68.0965C32.5816 68.0965 32.0434 67.1241 32.0434 66.7501C32.0434 66.4695 32.2475 66.7127 32.7115 67.5729ZM60.4769 68.19C61.0151 68.4519 61.6276 68.6576 61.8317 68.6576C62.1658 68.6763 62.1844 68.6763 61.8689 68.8633C61.3677 69.1625 61.0337 69.9666 60.8295 71.5375C60.2727 75.5208 60.7924 76.9608 63.1309 78.0455C63.9475 78.4195 64.3187 78.4756 66.3789 78.4569C67.6595 78.4382 69.4783 78.3073 70.4249 78.1577C71.3714 78.0081 72.1881 77.952 72.2437 78.0268C72.2809 78.1016 72.1881 78.9805 72.0396 79.953C71.8726 80.9441 71.7241 82.3654 71.7055 83.1135C71.6684 84.7218 72.0582 85.6568 73.4687 87.2464C74.2296 88.1253 74.3596 88.3685 74.3596 89.0417V89.8458L68.8473 89.7336C62.9453 89.6214 61.1821 89.4531 59.9386 88.836C58.6209 88.2001 58.3982 87.6204 58.0827 83.9363C57.6744 79.2424 57.8414 76.3624 58.6766 73.0523C59.122 71.2383 59.3262 70.0227 59.3262 69.0877C59.3262 68.3396 59.3633 67.7225 59.4004 67.7225C59.4375 67.7225 59.9201 67.9282 60.4769 68.19ZM25.3619 69.6487C24.6751 71.4814 23.8771 72.0238 23.8771 70.6586C23.8771 70.004 24.174 69.4617 25.0649 68.508C25.566 67.9656 25.6402 67.9282 25.6959 68.2461C25.733 68.4332 25.566 69.069 25.3619 69.6487ZM68.9772 69.4243C70.1465 69.7422 71.4271 70.0788 71.7983 70.1723C73.2831 70.5651 73.5058 72.1547 72.6706 76.3811C72.4108 77.6341 72.7077 77.5032 69.1628 77.9333C65.0426 78.4382 63.0567 78.0829 61.7946 76.6242C60.9965 75.7266 60.9223 75.3338 61.0708 73.1084C61.2749 69.7983 61.5905 69.1625 63.1866 68.8259C64.3373 68.5828 66.7315 68.8259 68.9772 69.4243ZM57.3032 70.2098C57.1732 70.8269 56.9134 71.3879 56.635 71.6497L56.171 72.0799V71.444C56.171 70.5651 57.0433 68.7137 57.3217 68.9942C57.4702 69.1438 57.4702 69.4617 57.3032 70.2098ZM73.9512 74.3053C73.8399 76.2876 73.5615 77.4658 73.246 77.1478C73.0975 76.9982 73.4687 73.4076 73.71 72.6222C73.9327 71.9489 74.0255 72.6222 73.9512 74.3053ZM73.3202 82.0288C73.6172 83.207 74.174 86.461 74.174 87.0594C74.174 87.6765 73.1903 86.5732 72.5036 85.208C71.854 83.9363 71.8726 84.0298 72.3365 80.4392C72.5964 78.4756 72.7263 78.2886 72.8933 79.6912C72.9676 80.3644 73.1532 81.4117 73.3202 82.0288Z" stroke="#8A6D18" stroke-width="2" mask="url(#path-2-outside-1_764_2247)"/>
</svg>
