<svg width="343" height="101" viewBox="0 0 343 101" fill="none" xmlns="http://www.w3.org/2000/svg">
<g clip-path="url(#clip0_1190_4872)">
<path d="M20.6593 62.2481C21.1691 59.1377 23.1942 56.2341 22.8915 53.1004C22.8598 52.7685 22.722 52.3618 22.3677 52.3192C22.0295 52.2786 21.7872 52.607 21.6384 52.8929C21.0181 54.0843 20.5304 55.3354 20.1857 56.6202C20.6196 54.1722 20.8899 51.6932 21.0822 49.2184C21.1706 48.0861 21.2266 46.9112 20.7897 45.851C20.7057 45.6463 20.5879 45.4333 20.3757 45.3398C20.1208 45.2278 19.8048 45.333 19.6088 45.5219C19.4129 45.7109 19.3112 45.9658 19.2213 46.2145C18.7683 47.4663 18.4707 48.767 18.3351 50.082C18.1207 46.4639 17.404 42.4074 15.1792 39.4358C15.051 39.2647 14.897 39.084 14.6775 39.0449C14.3195 38.981 14.03 39.3231 13.9158 39.6461C13.6756 40.3249 13.7943 41.0635 13.9335 41.7664C14.3519 43.8812 14.9295 45.9651 15.5063 48.0469C14.634 46.826 13.3316 45.6992 11.9466 45.0039C11.8288 44.9448 11.7006 44.8857 11.5673 44.896C11.4037 44.9084 11.2689 45.0217 11.1746 45.1468C10.8799 45.5364 10.8711 46.0654 11.0265 46.5196C11.182 46.9737 11.4818 47.3708 11.7772 47.7597C13.3058 49.7715 14.8337 51.7839 16.3623 53.7964C15.3774 53.143 14.0049 52.7568 12.8248 52.5122C12.4321 52.4305 11.9768 52.3865 11.6667 52.6256C11.3661 52.8578 11.3197 53.2886 11.456 53.6301C11.5923 53.9716 11.873 54.2423 12.1507 54.4979C14.9405 57.062 18.3955 59.2682 20.6593 62.2481Z" fill="#647298"/>
<path d="M15.8739 77.4235C15.8068 74.6642 17.0813 71.8678 16.3085 69.2033C16.2268 68.9209 16.0411 68.5891 15.728 68.6028C15.4297 68.6159 15.2735 68.934 15.1917 69.2019C14.8506 70.3191 14.6333 71.4693 14.5457 72.6284C14.5206 70.4517 14.349 68.2716 14.1117 66.106C14.0027 65.1152 13.8598 64.0922 13.3095 63.2388C13.2034 63.0739 13.0671 62.9069 12.8682 62.8561C12.6296 62.7956 12.3739 62.931 12.2354 63.122C12.0969 63.313 12.0513 63.548 12.0137 63.7754C11.8273 64.9214 11.7816 66.0874 11.8804 67.2424C11.1046 64.1464 9.82208 60.744 7.41535 58.4932C7.27686 58.3633 7.11406 58.2293 6.91811 58.2266C6.59839 58.2225 6.4039 58.5591 6.35822 58.8539C6.26172 59.4743 6.48493 60.0954 6.71993 60.6829C7.4264 62.4507 8.26622 64.1691 9.10455 65.8854C8.15129 64.9544 6.84296 64.1657 5.53241 63.7624C5.42043 63.728 5.30036 63.6957 5.18691 63.7232C5.04768 63.7569 4.9497 63.8743 4.88856 63.996C4.69776 64.3745 4.77585 64.8328 4.98433 65.2032C5.19281 65.5735 5.51695 65.8737 5.83593 66.1685C7.48462 67.6897 9.13403 69.2109 10.7827 70.732C9.82504 70.3074 8.57636 70.1686 7.51702 70.1247C7.16415 70.1102 6.76413 70.1363 6.53502 70.3871C6.31328 70.6304 6.34349 71.0096 6.51735 71.2851C6.69047 71.5607 6.97776 71.7551 7.25917 71.9358C10.0865 73.7559 13.4311 75.1706 15.8739 77.4235Z" fill="#647298"/>
<path d="M30.8122 92.4694C30.779 92.4694 30.7459 92.4598 30.7179 92.4398C20.7352 85.4646 13.3699 75.7831 10.5072 65.8789C10.4843 65.8006 10.5344 65.7195 10.6184 65.6989C10.7068 65.6783 10.7893 65.7243 10.8122 65.8026C13.6159 75.5034 20.7705 84.9912 30.4814 91.9039C25.2834 78.596 20.9216 64.86 17.5152 51.0662C16.7638 48.0259 16.2002 45.5435 15.7405 43.2528C15.7243 43.1731 15.781 43.0962 15.8665 43.0811C15.9542 43.0646 16.0345 43.1195 16.0507 43.1985C16.5089 45.4851 17.0717 47.9641 17.8216 51.0003C21.2656 64.9438 25.6856 78.8296 30.9603 92.2715C30.9846 92.3326 30.9625 92.4014 30.9065 92.4398C30.8785 92.4598 30.8453 92.4694 30.8122 92.4694Z" fill="#647298"/>
<path d="M130.739 60.749C134.07 49.0645 127.211 37.2211 115.418 34.2961C103.625 31.3711 91.3642 38.4721 88.0325 50.1567C84.7009 61.8413 91.5601 73.6847 103.353 76.6096C115.146 79.5346 127.407 72.4336 130.739 60.749Z" fill="#FED285"/>
<path d="M221.465 87.2314C221.465 87.2314 201.245 88.1088 200.963 89.3366C200.681 90.5644 209.991 91.4418 209.991 91.4418C209.991 91.4418 193.721 95.1259 193.721 96.1785C193.721 97.2311 198.988 96.88 198.988 96.88C198.988 96.88 201.151 98.1958 204.067 98.1958C206.982 98.1958 221.841 95.5643 221.841 95.5643L221.465 87.2314Z" fill="#FEA485"/>
<path d="M211.684 90.71C211.684 90.71 193.627 95.3292 193.721 96.177C193.816 97.0249 197.702 97.0249 201.025 96.3818C204.349 95.7387 209.113 94.8613 209.113 94.8613" stroke="#3A1B1A" stroke-width="0.75" stroke-miterlimit="10" stroke-linecap="round" stroke-linejoin="round"/>
<path d="M198.988 96.8794C198.988 96.8794 200.586 97.8441 201.715 97.8441C202.844 97.8441 209.85 96.4844 209.85 96.4844" stroke="#3A1B1A" stroke-width="0.75" stroke-miterlimit="10" stroke-linecap="round" stroke-linejoin="round"/>
<path d="M292.273 140.615H229.869C230.267 134.837 230.79 127.121 231.35 118.849C232.109 107.519 232.934 95.1516 233.567 85.2783C233.575 85.1958 233.582 85.1065 233.59 85.0241C234.105 77.0746 234.496 70.781 234.628 68.019C235.195 56.6204 238.201 51.8796 240.271 49.2481C241.575 47.5922 244.816 44.5485 247.034 42.5148C248.345 41.3261 249.303 40.481 249.303 40.481L252.213 40.3711L255.675 40.2405L265.768 39.8626L272.626 39.6016C272.626 39.6016 275.661 42.398 279.138 46.1425C283.499 50.8284 288.546 57.0052 289.179 61.0039C289.415 62.5224 289.71 67.3937 290.012 74.1408C290.019 74.2782 290.026 74.4225 290.034 74.5668C290.181 77.8441 290.328 81.5406 290.483 85.505C290.601 88.5969 290.719 91.8536 290.837 95.1859C291.411 111.428 291.956 129.595 292.273 140.615Z" fill="#D2695F"/>
<path d="M242.06 37.7622C242.06 37.7622 246.668 41.1247 247.044 42.5278C247.421 43.9314 246.292 50.4806 247.891 51.0942C249.489 51.7078 258.329 35.5691 258.329 35.5691L247.232 27.4121L242.06 37.7622Z" fill="#FEA485"/>
<path d="M243.55 26.8901C245.168 26.3878 246.348 25.0343 246.981 23.5578C247.441 22.4845 247.656 21.2959 247.408 20.1636C247.16 19.032 246.406 17.9684 245.295 17.4586C243.76 16.7543 241.763 17.2683 240.664 18.4906C239.565 19.7129 239.333 21.4986 239.873 23.0122C240.489 24.7347 242.253 25.5358 243.55 26.8901Z" fill="#FEA485"/>
<path d="M235.972 31.9409C241.499 30.5374 244.76 25.2208 243.255 20.0659C241.751 14.911 236.05 11.8698 230.523 13.2733C224.996 14.6767 221.735 19.9933 223.24 25.1482C224.745 30.3032 230.445 33.3443 235.972 31.9409Z" fill="#FEA485"/>
<path d="M230.62 35.0467C230.62 35.0467 236.494 40.8161 238.727 39.8851C240.96 38.9541 244.664 34.2985 244.73 34.2092C244.864 34.0078 245.388 33.0171 245.388 33.0171C246.075 31.4574 246.64 28.7249 244.164 26.0481C243.169 24.9659 242.105 23.8879 241.097 22.8869C238.278 20.0884 235.789 17.8877 235.789 17.8877L223.974 26.9378L227.356 31.5584C227.356 31.5584 225.105 35.8788 225.412 36.5988C225.686 37.244 229.605 35.2673 230.472 35.0804C230.566 35.0556 230.62 35.0467 230.62 35.0467Z" fill="#FEA485"/>
<path d="M229.553 30.3997C229.963 30.9122 230.636 31.0916 231.057 30.7989C231.477 30.5069 231.486 29.8541 231.076 29.3409C230.666 28.8277 229.993 28.649 229.572 28.941C229.153 29.2337 229.144 29.8864 229.553 30.3997Z" fill="#3A1B1A"/>
<path d="M230.4 25.5743C230.545 25.9151 230.233 26.2682 229.925 26.4956C229.381 26.8976 226.879 28.4043 227.251 26.7581C227.363 26.262 227.733 25.7543 228.193 25.4856C228.694 25.1929 230.095 24.8611 230.4 25.5743Z" fill="#3A1B1A"/>
<path d="M246.422 31.6394C246.238 32.7991 245.539 34.0489 245.024 35.1125C244.495 36.1967 243.883 37.2541 243.199 38.2703C242.212 39.7324 240.947 41.8191 239.173 42.5604C238.599 42.794 236.81 41.3938 235.772 40.4669C235.662 40.3707 235.559 40.2814 235.464 40.1921C233.933 38.7643 232.041 36.5471 231.122 35.5722C230.989 35.421 230.871 35.2973 230.783 35.2149C230.68 35.0981 230.621 35.05 230.621 35.05C230.621 35.05 230.569 35.0569 230.473 35.0775C231.379 34.0819 232.666 33.4848 233.822 32.7572C234.124 32.5717 234.418 32.3732 234.706 32.167C236.406 30.9592 237.856 29.4215 238.937 27.6708C239.592 26.6141 240.13 25.4261 240.217 24.1977C240.225 24.0602 240.203 23.8685 240.188 23.6693C240.151 23.2983 240.151 22.8936 240.475 22.7837C240.659 22.7218 240.88 22.7768 241.093 22.8867C241.8 23.5937 242.543 24.3351 243.257 25.0902C243.566 25.4062 243.868 25.7285 244.162 26.0514C244.251 26.1476 244.332 26.2369 244.413 26.3331C244.457 26.3743 244.486 26.4224 244.523 26.4636C245.731 27.8982 246.716 29.7994 246.422 31.6394Z" fill="#3A1B1A"/>
<path d="M237.937 37.302C237.708 38.064 237.341 38.7984 236.855 39.4505C236.811 39.5054 236.774 39.5604 236.723 39.6154C236.465 39.952 236.156 40.2605 235.773 40.4667C235.663 40.3705 235.559 40.2811 235.464 40.1918C234.463 39.2581 233.308 37.9815 232.366 36.9447C232.285 36.8485 232.204 36.7592 232.13 36.6768C231.733 36.2377 231.387 35.853 231.122 35.5713C231.129 35.5644 231.144 35.5575 231.151 35.5506C232.402 34.7406 233.735 33.9305 235.251 33.7938C236.016 33.7182 236.855 33.8556 237.422 34.3496C237.826 34.7138 238.055 35.2284 238.114 35.7499C238.179 36.2652 238.084 36.7936 237.937 37.302Z" fill="#FEA485"/>
<path d="M234.021 34.6387C233.528 36.0046 232.807 36.6567 232.365 36.9452C232.284 36.849 232.203 36.7597 232.129 36.6773C232.513 36.4299 233.197 35.8329 233.668 34.5288C233.704 34.4395 233.808 34.3914 233.903 34.4188C233.999 34.4539 234.051 34.5501 234.021 34.6387Z" fill="#3A1B1A"/>
<path d="M277.257 26.1631C279.149 27.5627 280.269 29.6665 281.188 31.7497C281.917 33.4021 282.566 35.1232 282.623 36.9089C282.679 38.7104 282.128 40.4845 281.394 42.1513C279.617 46.1865 276.645 49.8562 272.603 52.0521C269.507 53.734 265.925 54.4919 262.361 54.8354C259.766 55.0855 257.304 55.2037 254.943 54.1676C253.3 53.4468 251.623 52.5619 250.714 51.0957C249.978 49.9077 249.841 48.4594 250.073 47.1051C250.303 45.7509 250.877 44.4688 251.492 43.2232C252.044 42.1046 252.628 40.7634 251.947 39.7081C251.481 38.9873 250.549 38.6507 249.659 38.5098C248.77 38.369 247.846 38.371 246.993 38.0955C245.402 37.5823 244.261 36.0439 244.307 34.4739C244.338 33.4495 244.814 32.4897 245.074 31.4941C245.334 30.4992 245.329 29.325 244.561 28.5933C244.172 28.2223 243.64 28.0189 243.17 27.7413C242.037 27.0735 241.269 26.0133 241.082 24.7759C239.56 25.0713 237.992 24.6082 236.555 24.0545C234.972 23.4443 233.321 22.7195 232.604 21.2684C230.923 22.154 228.9 22.4604 227.004 22.1162C225.109 21.772 223.357 20.7799 222.156 19.37C222.414 16.9611 223.675 14.6216 225.516 12.9149C228.267 10.3659 231.936 8.6152 235.753 8.00507C244.163 6.66116 252.602 11.1505 257.834 17.0593C259.03 18.4101 260.107 19.888 261.608 20.942C265.762 23.8607 272.123 22.8734 276.043 26.0621L277.257 26.1631Z" fill="#3A1B1A"/>
<path d="M290.681 95.4464C297.887 84.0135 298.41 60.5464 293.528 48.0905C290.874 41.3186 286.524 35.2449 281.924 29.4501C277.127 23.4073 271.95 17.5266 265.558 12.9445C259.166 8.3631 251.42 5.13042 243.36 5.00331C235.299 4.87688 227.428 8.38097 222.948 14.632C227.514 13.5986 232.359 14.6155 236.675 16.3497C243.73 19.1852 249.764 23.8608 255.146 28.9733C260.528 34.0858 265.355 39.6848 270.688 44.8413C277.48 51.4083 284.003 53.7581 287.296 62.35C290.086 69.6302 289.679 69.8934 290.431 80.5939C290.647 83.6748 290.242 89.0724 290.681 95.4464Z" fill="#FFDEB8"/>
<path d="M257.954 59.25L246.794 83.5752L217.515 86.7914L223.722 120.999C223.722 120.999 252.123 113.28 263.408 108.193C274.693 103.106 283.345 86.2651 283.345 86.2651L257.954 59.25Z" fill="#D2695F"/>
<path d="M217.515 86.7916C217.515 86.7916 247.796 84.336 250.43 82.5812C253.063 80.8271 265.101 56.7939 265.101 56.7939" stroke="#3A1B1A" stroke-width="0.75" stroke-miterlimit="10" stroke-linecap="round" stroke-linejoin="round"/>
<path d="M223.721 121C223.721 121 256.699 112.287 266.605 104.92C276.511 97.552 282.655 82.582 282.655 82.582" stroke="#3A1B1A" stroke-width="0.75" stroke-miterlimit="10" stroke-linecap="round" stroke-linejoin="round"/>
<path d="M283.659 88.1953L278.392 90.8852" stroke="#3A1B1A" stroke-width="0.75" stroke-miterlimit="10" stroke-linecap="round" stroke-linejoin="round"/>
<path d="M235.759 84.8616L238.392 62.9336" stroke="#3A1B1A" stroke-width="0.75" stroke-miterlimit="10" stroke-linecap="round" stroke-linejoin="round"/>
<path d="M200.614 55.6093L210.796 59.806L212.581 58.7101L212.868 58.5974C212.868 58.5974 213.056 57.8286 213.486 56.2834C213.872 54.8948 214.457 52.881 215.265 50.2419C216.979 44.6807 219.621 34.8109 219.621 34.8109C219.621 34.8109 215.557 33.4903 213.489 35.0905C211.425 36.6894 211.148 38.1425 211.148 38.1425C211.148 38.1425 207.261 36.8302 204.524 40.5109C201.789 44.1853 203.655 48.5016 203.655 48.5016C203.655 48.5016 199.255 50.9221 200.32 54.8068C200.395 55.07 200.49 55.3338 200.614 55.6093Z" fill="#FFDEB8"/>
<path opacity="0.21" d="M200.614 55.6091L210.796 59.8058L212.581 58.7099L212.868 58.5972C212.868 58.5972 213.056 57.8284 213.486 56.2832L200.32 54.8066C200.395 55.0698 200.49 55.3336 200.614 55.6091Z" fill="#FEA485"/>
<path d="M223.608 58.6387C223.254 58.4876 222.878 58.4189 222.488 58.4189C222.223 58.4189 221.95 58.4532 221.692 58.5151H221.685C221.42 58.5838 221.169 58.6731 220.926 58.7899C220.668 58.9067 220.425 59.0579 220.219 59.2296C219.607 59.7174 219.173 60.3564 218.856 61.0504C218.804 61.1603 218.76 61.2771 218.709 61.3939C218.664 61.5245 218.613 61.6481 218.569 61.7787C218.547 61.8474 218.525 61.9092 218.51 61.9779C218.495 62.0191 218.48 62.0741 218.466 62.1153C218.436 62.2253 218.407 62.3421 218.377 62.452C218.355 62.5207 218.34 62.5826 218.326 62.6513C218.289 62.8093 218.252 62.9673 218.222 63.1253C218.208 63.194 218.193 63.2559 218.178 63.3246C218.149 63.4826 218.119 63.6475 218.09 63.8055C218.075 63.8674 218.06 63.9361 218.053 64.0048C218.016 64.1903 217.979 64.3758 217.943 64.5545C217.928 64.6163 217.92 64.685 217.906 64.7468C217.862 64.9392 217.825 65.1247 217.78 65.3102C217.773 65.3446 217.766 65.3721 217.758 65.4064C217.722 65.5507 217.677 65.695 217.64 65.8324C217.53 66.2172 217.405 66.5951 217.257 66.9661C215.784 70.745 212.462 73.9055 208.358 75.1217C209.213 75.527 210.097 75.8431 210.996 76.1179C212.056 76.4477 213.139 76.7363 214.222 77.0798C214.974 77.3272 215.732 77.5676 216.484 77.815C216.13 78.8044 215.106 79.6083 214.031 79.9312C212.963 80.2404 211.799 80.1648 210.701 79.9174C210.701 81.7382 209.957 83.6208 208.432 84.7545C207.673 85.3247 206.701 85.6545 205.721 85.7164C205.397 85.737 205.073 85.7232 204.749 85.682C204.115 85.5927 203.518 85.3728 203.003 85.0155C202.17 86.9806 199.968 88.5334 197.75 88.9662C197.618 88.9868 197.478 89.0075 197.345 89.0281C196.896 89.0762 196.439 89.0624 196.012 88.925C195.724 88.8219 195.459 88.6639 195.223 88.4853C195.098 88.3891 194.988 88.2998 194.877 88.1967C194.509 87.8669 194.17 87.5096 193.868 87.1249C193.573 86.7538 193.315 86.3553 193.094 85.95C192.601 86.2385 192.034 86.4378 191.444 86.534C190.641 86.6577 189.794 86.6096 189.028 86.3691C188.932 86.3416 188.822 86.3004 188.726 86.266C188.033 85.9981 187.496 85.5377 187.09 84.9743C186.693 84.4178 186.427 83.7582 186.265 83.078C186.781 82.8238 187.289 82.5627 187.783 82.2879C188.586 81.8619 189.374 81.4084 190.148 80.9412C192.586 79.4571 194.892 77.7875 197.036 75.9462C198.531 74.6476 199.953 73.2666 201.073 71.6725C202.185 70.0854 203.194 68.3265 203.342 66.4302C203.18 66.5951 198.826 71.0267 194.214 68.9517C189.514 66.8355 193.102 62.7062 193.102 62.7062C193.102 62.7062 188.07 64.6232 183.989 61.2015C180.438 58.2265 182.022 54.3033 182.494 53.3345C182.545 53.2246 182.582 53.1559 182.604 53.1284L182.612 53.1078C182.612 53.1078 182.575 53.1009 182.494 53.0734C182.015 52.9223 180.158 52.2627 178.7 50.916C178.67 50.8954 178.648 50.8679 178.626 50.8404C177.993 50.1877 177.477 49.377 177.263 48.3738C176.512 44.8079 177.608 40.423 177.608 40.423L177.956 39.2158C181.19 41.8198 188.129 47.8043 190.965 49.7075C193.477 51.3908 196.984 53.4177 200.41 55.0872C204.579 57.121 208.631 58.6188 210.664 58.344C211.71 58.1997 212.506 57.8081 213.198 57.3271C213.198 57.3202 213.206 57.3202 213.206 57.3202C214.952 56.111 215.983 54.3452 218.458 54.6887C219.777 54.8743 220.845 55.4926 221.655 56.2003C222.959 57.3196 223.608 58.6387 223.608 58.6387Z" fill="#FFDEB8"/>
<path d="M220.921 58.7855C221.757 58.3828 222.77 58.2715 223.606 58.6378C223.606 58.6378 222.962 57.3206 221.658 56.1973C221.042 56.56 220.635 57.2299 220.641 57.9129C220.64 58.2193 220.725 58.5381 220.921 58.7855Z" fill="#D2695F"/>
<path d="M217.316 56.9986C217.478 57.3593 217.924 57.5284 218.311 57.3765C218.698 57.2247 218.879 56.809 218.716 56.4483C218.553 56.0876 218.108 55.9185 217.721 56.0704C217.334 56.2222 217.153 56.6379 217.316 56.9986Z" fill="#3A1B1A"/>
<path opacity="0.21" d="M202.936 76.188L210.997 76.1186C210.098 75.8424 209.21 75.5284 208.356 75.123L202.936 76.188Z" fill="#FEA485"/>
<path d="M309.321 45.0924C309.431 45.2092 309.531 45.3349 309.636 45.4648C310.959 47.0196 312.162 48.6652 313.241 50.3952C313.288 50.4729 313.339 50.556 313.385 50.6337L312.577 51.4293L305.218 58.6656L303.678 60.1854L314.022 51.7062C315.107 53.6224 316.025 55.6259 316.754 57.6844C316.824 57.8521 316.882 58.028 316.941 58.2038C317.197 58.9569 317.428 59.7223 317.636 60.4897C318.259 62.7846 318.651 65.1282 318.802 67.4787C318.887 68.9112 318.883 70.3506 318.784 71.7763C318.772 72.0099 318.756 72.2476 318.73 72.4847C318.678 73.1003 318.597 73.7139 318.508 74.3267C318.483 74.4971 318.456 74.6771 318.424 74.8517C318.199 76.1901 317.881 77.5141 317.478 78.8154L316.815 79.3499L316.564 79.5561L313.138 82.3147L316.921 79.8117L317.204 79.6296L317.214 79.6213C317.209 79.6255 317.213 79.6303 317.208 79.6344C317.173 79.7381 317.142 79.8385 317.102 79.9374C316.824 80.7378 316.505 81.5232 316.143 82.3009C315.435 83.8448 314.964 85.4422 314.507 87.0452C314.431 87.3324 314.345 87.6189 314.268 87.9054C314.074 88.5877 313.875 89.2644 313.658 89.9412C312.71 92.9018 312.764 95.3966 313.223 98.4334L312.208 99.2648C308.683 94.2107 303.504 89.5564 298.764 85.423C298.541 85.2237 298.312 85.0293 298.089 84.839C298.085 84.8342 298.085 84.8342 298.085 84.8342C298.076 84.8246 298.063 84.8108 298.049 84.8053C297.656 84.4549 297.276 84.1272 296.887 83.7898C293.263 80.6341 289.64 77.3279 286.713 73.6177C286.56 73.4363 286.408 73.246 286.269 73.0522C285.292 71.7784 284.402 70.4571 283.621 69.0802L294.475 69.9535L282.987 67.8978C282.662 67.2595 282.362 66.6013 282.086 65.9307C281.238 63.8695 280.676 61.7237 280.357 59.5443C280.331 59.3835 280.304 59.2145 280.287 59.0538C280.121 57.8287 280.027 56.5858 280.008 55.3477L295.984 60.4568L280 54.4991C280.004 52.1136 280.245 49.7247 280.653 47.3721C280.668 47.2938 280.678 47.2189 280.698 47.1447C280.723 46.9915 280.747 46.8382 280.782 46.6857C281.098 44.9818 281.532 43.3067 282.025 41.6488L291.094 46.3422L282.337 40.6374C282.518 40.074 282.698 39.5106 282.889 38.9472C282.937 38.8002 282.99 38.6483 283.043 38.4972C284.058 35.5407 285.216 32.6234 286.329 29.6861C286.324 29.6813 286.33 29.6772 286.33 29.6772C286.354 29.5989 286.387 29.5301 286.411 29.4525C286.416 29.4484 286.412 29.4436 286.417 29.4395L286.427 29.4401C286.565 29.5013 286.699 29.5494 286.836 29.6105L286.841 29.6153C291.119 31.3213 295.225 33.4595 299.005 36.0058C299.136 36.0979 299.267 36.1893 299.398 36.2813C300.972 37.3566 302.48 38.5123 303.915 39.7339L298.169 47.2175L304.581 40.3083C306.279 41.7992 307.865 43.3967 309.321 45.0924Z" fill="#FED285"/>
<path d="M286.791 29.5254C286.808 29.5529 286.825 29.5804 286.837 29.612L286.842 29.6168C289.368 34.0539 291.679 38.5845 293.815 43.1845L293.81 43.1886C293.893 43.3528 293.971 43.5294 294.049 43.6977L294.044 43.7018C295.788 47.4691 297.408 51.2954 298.928 55.1465C299.002 55.3189 299.065 55.4907 299.134 55.6583L299.129 55.6625C300.883 60.1023 302.506 64.591 304.036 69.1058C304.123 69.3586 304.21 69.6108 304.296 69.8725C304.352 70.0347 304.411 70.2016 304.466 70.3734C305.236 72.673 305.986 74.9802 306.716 77.2861C306.755 77.4036 306.791 77.5156 306.825 77.6282C307.272 79.047 307.71 80.4562 308.143 81.8696C308.196 82.0496 308.251 82.2206 308.3 82.3958C309.175 85.241 310.02 88.0835 310.851 90.93C310.918 91.1416 310.978 91.3574 311.039 91.5731C311.726 93.9071 312.394 96.2404 313.062 98.5648L312.64 98.9104C311.567 95.1741 310.486 91.4206 309.367 87.6637C309.317 87.4974 309.271 87.3352 309.221 87.169C308.287 84.0331 307.333 80.8967 306.341 77.7663C306.299 77.6269 306.261 77.4922 306.213 77.3568C306.198 77.3026 306.179 77.2442 306.158 77.1947C306.12 77.0511 306.073 76.9157 306.031 76.7763C305.236 74.2808 304.423 71.7929 303.577 69.3078C302.999 67.5901 302.406 65.8841 301.79 64.1726C301.726 64.0008 301.667 63.8249 301.603 63.6531C300.201 59.7382 298.713 55.8452 297.117 51.9894C297.045 51.808 296.968 51.6225 296.891 51.4369C295.859 48.9449 294.78 46.468 293.646 44.0186C293.548 43.7919 293.45 43.5734 293.341 43.3549C291.202 38.7329 288.887 34.1893 286.348 29.7377C286.335 29.724 286.327 29.7055 286.327 29.6876C286.3 29.6024 286.33 29.511 286.41 29.454L286.425 29.4416C286.435 29.4334 286.445 29.4251 286.454 29.4258C286.575 29.3619 286.728 29.4107 286.791 29.5254Z" fill="#3A1B1A"/>
<path d="M282.892 38.9508L293.581 43.994C293.604 44.0084 293.627 44.0146 293.651 44.0201C293.726 44.0331 293.803 44.0118 293.858 43.9665C293.878 43.95 293.889 43.9328 293.9 43.9156C293.948 43.8435 293.999 43.7762 294.047 43.7033C295.801 41.2196 297.593 38.7296 299.401 36.2843C299.27 36.1922 299.139 36.1009 299.008 36.0088C297.249 38.373 295.509 40.7867 293.813 43.1894C293.745 43.287 293.676 43.3845 293.609 43.4821L293.347 43.3557L283.048 38.4994C282.993 38.652 282.94 38.8031 282.892 38.9508Z" fill="#3A1B1A"/>
<path d="M298.783 55.7001C298.877 55.7723 299.015 55.7675 299.106 55.6933C299.116 55.685 299.12 55.6809 299.132 55.6637L299.137 55.6596C302.273 51.9604 305.801 48.536 309.637 45.4661C309.533 45.3363 309.433 45.2106 309.322 45.0938C305.531 48.1265 302.044 51.5 298.93 55.1477C298.869 55.2233 298.802 55.2948 298.74 55.3703C298.657 55.472 298.675 55.6232 298.783 55.7001Z" fill="#3A1B1A"/>
<path d="M280.701 47.1472C286.176 48.5941 291.667 50.2184 297.041 51.9821C297.069 51.9924 297.097 51.9945 297.12 51.991C297.187 51.9952 297.24 51.9759 297.285 51.9388C297.32 51.91 297.341 51.8763 297.358 51.8371C297.405 51.7162 297.333 51.5836 297.204 51.5403C297.102 51.5073 296.995 51.4702 296.893 51.4379C291.598 49.7106 286.19 48.1084 280.784 46.6875C280.75 46.8414 280.726 46.9939 280.701 47.1472Z" fill="#3A1B1A"/>
<path d="M280.36 59.5462C287.489 60.9911 294.696 62.546 301.793 64.1744C301.835 64.1812 301.877 64.197 301.919 64.2039C301.999 64.2218 302.085 64.2005 302.14 64.1551C302.181 64.1222 302.206 64.0837 302.22 64.0315C302.252 63.905 302.17 63.7814 302.036 63.7511C301.89 63.7202 301.751 63.6852 301.607 63.6549C294.546 62.0376 287.382 60.4896 280.29 59.0557C280.307 59.2164 280.334 59.3855 280.36 59.5462Z" fill="#3A1B1A"/>
<path d="M304.123 70.3672C304.216 70.4565 304.368 70.4572 304.468 70.3747C304.468 70.3747 304.473 70.3706 304.478 70.3665C308.787 66.4859 312.973 62.3985 316.944 58.2059C316.885 58.0301 316.826 57.8542 316.757 57.6865C312.79 61.8928 308.609 65.9843 304.299 69.8739C304.243 69.9281 304.183 69.9776 304.128 70.0312C304.03 70.1274 304.025 70.273 304.123 70.3672Z" fill="#3A1B1A"/>
<path d="M286.716 73.6199L305.955 77.2414C306.03 77.2545 306.107 77.2332 306.162 77.1961C306.167 77.192 306.167 77.192 306.172 77.1878C306.212 77.1549 306.243 77.113 306.257 77.0601C306.279 76.9336 306.189 76.8086 306.058 76.7832L306.025 76.777L286.273 73.0537C286.411 73.2482 286.563 73.4385 286.716 73.6199Z" fill="#3A1B1A"/>
<path d="M307.922 82.4362C308.02 82.5214 308.162 82.5214 308.257 82.4431L308.277 82.4266C308.288 82.4184 308.297 82.4101 308.303 82.3971C311.685 79.0352 315.184 75.7105 318.732 72.4867C318.758 72.2497 318.774 72.0119 318.786 71.7783C315.168 75.0598 311.599 78.4416 308.146 81.8701C308.069 81.9491 307.988 82.024 307.911 82.1037C307.815 82.2006 307.823 82.351 307.922 82.4362Z" fill="#3A1B1A"/>
<path d="M298.091 84.8408C298.315 85.0311 298.543 85.2256 298.766 85.4248C302.302 86.013 305.807 86.7667 309.251 87.6633C309.288 87.6743 309.331 87.6723 309.37 87.6661C309.408 87.6592 309.452 87.64 309.487 87.6111C309.522 87.5822 309.548 87.5438 309.561 87.5005C309.593 87.3741 309.516 87.2463 309.386 87.2119C309.33 87.1996 309.279 87.1831 309.223 87.1714C305.571 86.2225 301.849 85.4379 298.091 84.8408Z" fill="#3A1B1A"/>
<path d="M310.697 91.6905C310.789 91.7317 310.899 91.7159 310.974 91.6541C310.999 91.6335 311.019 91.617 311.035 91.5868C311.041 91.5826 311.036 91.5778 311.041 91.5737C311.799 90.2058 312.946 89.0989 314.27 87.9061C314.346 87.6189 314.432 87.3324 314.509 87.0459C314.348 87.1861 314.196 87.3276 314.04 87.4636C312.777 88.598 311.652 89.6527 310.854 90.9306C310.759 91.0749 310.667 91.224 310.586 91.3738C310.526 91.4906 310.578 91.6307 310.697 91.6905Z" fill="#3A1B1A"/>
<path d="M342.813 29.6165V79.5325L342.459 79.615L342.813 79.5669V82.9404C342.319 83.4214 341.84 83.9161 341.362 84.4108C341.155 84.6375 340.942 84.8505 340.728 85.0772H340.721C340.22 85.6063 339.719 86.1147 339.188 86.6231C336.897 88.8561 335.726 91.1029 334.65 93.9954L334.444 94.0435L333.899 94.1741L333.339 94.3046C332.676 88.3065 330.341 81.9648 328.146 76.2689C328.042 75.9941 327.939 75.7261 327.829 75.465C327.829 75.4582 327.829 75.4582 327.829 75.4582C327.829 75.4444 327.821 75.4238 327.814 75.4169C327.637 74.936 327.453 74.4825 327.276 74.0153C327.114 73.6031 326.959 73.1839 326.805 72.7717C325.295 68.8142 323.91 64.7535 323.195 60.638C323.151 60.4112 323.107 60.1776 323.077 59.944C322.827 58.3981 322.687 56.8384 322.665 55.2857L331.895 60.6792L322.679 53.9596C322.701 53.2519 322.753 52.5442 322.834 51.8297C323.092 49.631 323.637 47.4873 324.425 45.4124C324.477 45.2544 324.536 45.0963 324.602 44.9452C325.052 43.784 325.575 42.6366 326.164 41.5235L337.884 52.8671L326.569 40.7678C327.74 38.6447 329.125 36.6247 330.636 34.7009C330.687 34.639 330.739 34.5772 330.79 34.5222C330.834 34.4604 330.886 34.3986 330.938 34.3367C330.96 34.3024 330.982 34.268 331.011 34.2405C331.033 34.2062 331.055 34.1718 331.085 34.1444C332.205 32.7633 333.405 31.4579 334.658 30.1937L340.433 38.2256L335.431 29.4242C335.866 29.005 336.301 28.579 336.75 28.1599C336.86 28.05 336.986 27.9401 337.104 27.8233C338.857 26.1812 340.676 24.594 342.496 23C342.71 25.178 342.813 27.3835 342.813 29.6165Z" fill="#FED285"/>
<path d="M342.813 47.666V51.4862C342.386 54.633 341.899 57.7729 341.362 60.9059C341.185 61.9366 341.001 62.9603 340.816 63.9909C340.772 64.252 340.728 64.5131 340.676 64.781V64.7879C340.647 64.9597 340.617 65.1246 340.581 65.3032C340.139 67.6736 339.682 70.044 339.203 72.4076C339.181 72.5312 339.159 72.648 339.129 72.758C338.835 74.2146 338.54 75.6506 338.231 77.0934V77.1003C338.194 77.2858 338.157 77.4576 338.113 77.6293V77.6362C337.501 80.5425 336.86 83.4214 336.212 86.314C336.168 86.527 336.116 86.7468 336.065 86.9667C335.534 89.3302 334.989 91.6938 334.444 94.0436L333.899 94.1741C334.768 90.3952 335.645 86.5957 336.485 82.7755C336.522 82.6038 336.566 82.4389 336.603 82.274C337.302 79.0859 337.988 75.8842 338.636 72.6755C338.665 72.5381 338.695 72.4007 338.724 72.2564C338.732 72.2083 338.746 72.1465 338.754 72.0915C338.791 71.9472 338.813 71.8098 338.842 71.6655C339.358 69.1096 339.851 66.5468 340.308 63.9772C340.47 63.1046 340.625 62.2251 340.78 61.3525C340.934 60.4525 341.089 59.5524 341.236 58.6455C341.258 58.4668 341.295 58.2813 341.317 58.1027V58.0958C341.885 54.6261 342.393 51.1564 342.813 47.666Z" fill="#3A1B1A"/>
<path d="M337.104 27.8232L342.813 35.1406V35.9376L336.75 28.1599C336.86 28.05 336.986 27.94 337.104 27.8232Z" fill="#3A1B1A"/>
<path d="M342.813 49.5205V49.9327C342.761 49.9121 342.724 49.8778 342.702 49.8228C342.643 49.7129 342.695 49.5755 342.813 49.5205Z" fill="#3A1B1A"/>
<path d="M342.813 44.9453V45.6255C338.938 41.826 334.901 38.0883 330.79 34.5224C330.834 34.4606 330.886 34.3987 330.938 34.3369C330.96 34.3025 330.982 34.2682 331.011 34.2407C331.041 34.2132 331.07 34.1857 331.092 34.1514C335.1 37.6211 339.034 41.2557 342.813 44.9453Z" fill="#3A1B1A"/>
<path d="M324.424 45.4109C330.062 49.7291 335.714 54.1793 341.234 58.6474C341.268 58.6714 341.297 58.703 341.331 58.7271C341.393 58.7765 341.481 58.7944 341.552 58.7779C341.603 58.7655 341.646 58.7429 341.683 58.7016C341.773 58.6034 341.762 58.4577 341.656 58.3739C341.542 58.2846 341.435 58.1946 341.322 58.1053C335.83 53.6626 330.211 49.2372 324.601 44.9443C324.538 45.0948 324.478 45.2563 324.424 45.4109Z" fill="#3A1B1A"/>
<path d="M342.813 64.1758V64.6636C342.069 64.8835 341.332 65.0965 340.595 65.3026C340.588 65.3026 340.581 65.3026 340.581 65.3026C340.448 65.3301 340.315 65.2682 340.279 65.1514C340.234 65.0209 340.315 64.8972 340.448 64.8491C340.522 64.8285 340.603 64.8079 340.676 64.7873C341.391 64.588 342.098 64.3819 342.813 64.1758Z" fill="#3A1B1A"/>
<path d="M323.197 60.6391L338.547 72.046C338.607 72.0899 338.686 72.103 338.753 72.0941C338.76 72.0927 338.76 72.0927 338.766 72.0913C338.818 72.0789 338.866 72.0549 338.904 72.0137C338.987 71.9106 338.967 71.7608 338.863 71.6825L338.837 71.6633L323.08 59.9473C323.107 60.1781 323.149 60.4124 323.197 60.6391Z" fill="#3A1B1A"/>
<path d="M338.231 77.1003C339.748 76.5919 341.281 76.0972 342.813 75.6094V76.1109C341.236 76.6056 339.667 77.1141 338.113 77.6362C338.105 77.6431 338.091 77.6431 338.076 77.65L338.054 77.6569C337.929 77.6843 337.803 77.6225 337.759 77.5057C337.708 77.3889 337.774 77.2515 337.907 77.2034C338.017 77.169 338.128 77.1347 338.231 77.1003Z" fill="#3A1B1A"/>
<path d="M327.832 75.4648C327.939 75.7294 328.046 76.0001 328.148 76.2715C331.007 78.299 333.758 80.4612 336.384 82.7238C336.411 82.7492 336.45 82.7657 336.488 82.7767C336.525 82.787 336.574 82.7884 336.619 82.7781C336.664 82.7671 336.706 82.7444 336.739 82.7114C336.829 82.6132 336.824 82.4661 336.725 82.3802C336.681 82.3459 336.644 82.3095 336.6 82.2744C333.813 79.8759 330.885 77.5948 327.832 75.4648Z" fill="#3A1B1A"/>
<path d="M335.701 86.9227C335.763 86.9983 335.868 87.0312 335.965 87.0086C335.998 87.001 336.024 86.9948 336.053 86.9749C336.06 86.9735 336.058 86.9673 336.064 86.966C337.408 86.0707 338.97 85.574 340.73 85.0758C340.939 84.8532 341.155 84.6347 341.364 84.4121C341.152 84.4684 340.948 84.5296 340.742 84.5846C339.063 85.0573 337.547 85.5169 336.211 86.3146C336.056 86.4026 335.902 86.4967 335.757 86.5956C335.646 86.6719 335.624 86.8189 335.701 86.9227Z" fill="#3A1B1A"/>
<path d="M16.0595 5.2373L15.9859 5.45717L15.949 5.44343C16.0006 5.3335 16.0374 5.26479 16.0595 5.2373Z" fill="#FFDEB8"/>
<path d="M90.2945 101.262H0V72.199C2.86567 71.9722 5.79026 72.4051 8.40547 73.5182C13.5401 75.7031 17.3266 80.437 18.1149 85.645C23.0359 81.8318 30.1816 80.705 36.1708 82.8005C42.16 84.8892 46.7569 90.1248 47.7809 96.013C51.118 92.4814 55.818 90.3171 60.6138 88.8468C68.0763 86.5588 76.9754 85.9611 83.1487 90.4958C86.7732 93.1616 88.8064 97.1054 90.2945 101.262Z" fill="#66987C"/>
<path d="M342.813 59.9375V102.213H292.969C293.772 99.458 295.378 96.8128 297.507 95.102C300.896 92.3812 305.714 91.2819 310.06 92.2438C310.075 86.6235 312.285 80.9002 316.69 77.0663C321.096 73.2255 327.785 71.5697 333.435 73.5141C334.665 68.5603 337.325 63.7645 341.664 60.6795C342.032 60.4185 342.415 60.1711 342.813 59.9375Z" fill="#66987C"/>
<path d="M316.977 84.5945L320.329 87.1377L323.025 84.0466L319.673 81.5035L316.977 84.5945Z" fill="#FFDEB8"/>
<path d="M310.27 92.2859L313.622 94.8291L316.318 91.738L312.965 89.1949L310.27 92.2859Z" fill="#FFDEB8"/>
<path d="M306.035 78.647L309.008 80.9023L311.399 78.161L308.426 75.9057L306.035 78.647Z" fill="#FFDEB8"/>
</g>
<defs>
<clipPath id="clip0_1190_4872">
<rect width="343" height="101" fill="white"/>
</clipPath>
</defs>
</svg>
