<svg width="343" height="101" viewBox="0 0 343 101" fill="none" xmlns="http://www.w3.org/2000/svg">
<g clip-path="url(#clip0_1256_3186)">
<path d="M58.6736 28.2594L57.0116 28.9021C56.2945 29.1795 55.7279 29.7461 55.4505 30.4632L54.8078 32.1252L54.165 30.4632C53.8876 29.7461 53.3211 29.1795 52.604 28.9021L50.942 28.2594L52.604 27.6166C53.3211 27.3392 53.8876 26.7727 54.165 26.0556L54.8078 24.3936L55.4505 26.0556C55.7279 26.7727 56.2945 27.3392 57.0116 27.6166L58.6736 28.2594Z" fill="white"/>
<path d="M91.7313 5.69589L90.0693 6.33862C89.3522 6.61601 88.7856 7.18261 88.5082 7.8997L87.8655 9.5617L87.2228 7.8997C86.9454 7.18261 86.3788 6.61601 85.6617 6.33862L83.9997 5.69589L85.6617 5.05316C86.3788 4.77577 86.9454 4.20918 87.2228 3.49208L87.8655 1.83008L88.5082 3.49208C88.7856 4.20918 89.3522 4.77577 90.0693 5.05316L91.7313 5.69589Z" fill="white"/>
<path d="M107.965 86.2574L106.303 86.9001C105.586 87.1775 105.02 87.7441 104.742 88.4612L104.1 90.1232L103.457 88.4612C103.179 87.7441 102.613 87.1775 101.896 86.9001L100.234 86.2574L101.896 85.6147C102.613 85.3373 103.179 84.7707 103.457 84.0536L104.1 82.3916L104.742 84.0536C105.02 84.7707 105.586 85.3373 106.303 85.6147L107.965 86.2574Z" fill="white"/>
<path d="M24.2289 12.0855L22.5669 12.7283C21.8498 13.0057 21.2832 13.5723 21.0058 14.2893L20.3631 15.9514L19.7203 14.2893C19.4429 13.5723 18.8764 13.0057 18.1593 12.7283L16.4973 12.0855L18.1593 11.4428C18.8764 11.1654 19.4429 10.5988 19.7203 9.88173L20.3631 8.21973L21.0058 9.88173C21.2832 10.5988 21.8498 11.1654 22.5669 11.4428L24.2289 12.0855Z" fill="white"/>
<path d="M8.9126 89.8736L7.25059 90.5164C6.5335 90.7938 5.96691 91.3603 5.68951 92.0774L5.04678 93.7394L4.40405 92.0774C4.12666 91.3603 3.56007 90.7938 2.84297 90.5164L1.18097 89.8736L2.84297 89.2309C3.56007 88.9535 4.12666 88.3869 4.40405 87.6698L5.04678 86.0078L5.68951 87.6698C5.96691 88.3869 6.5335 88.9535 7.25059 89.2309L8.9126 89.8736Z" fill="white"/>
<path d="M257.553 94.0057C257.553 95.2752 257.542 96.472 257.525 97.5738V97.5962C257.492 99.7996 257.442 101.623 257.386 102.864H189C189.246 96.3322 190.292 73.6209 193.508 64.1528C197.288 53.0292 211.476 50.3895 213.971 48.969C214.955 48.4041 216.202 47.6324 217.354 46.9054C219.127 45.7812 220.671 44.7578 220.671 44.7578C220.671 44.7578 234.132 45.2835 236.212 47.2465C236.307 47.3416 236.38 47.4366 236.425 47.5373C236.464 47.6156 236.509 47.6939 236.565 47.7778C236.744 48.0406 237.04 48.3426 237.426 48.6782C237.482 48.7229 237.543 48.7733 237.605 48.8236C238.231 49.3437 239.064 49.9365 240.032 50.5796C241.329 51.4577 242.873 52.4252 244.472 53.4486C244.472 53.4542 244.472 53.4542 244.472 53.4542C245.384 54.0358 246.324 54.6398 247.241 55.255C249.181 56.5413 251.06 57.8667 252.57 59.153C252.654 59.2201 252.733 59.2928 252.811 59.3599C253.119 59.6284 253.409 59.8968 253.683 60.1597C253.706 60.182 253.723 60.1988 253.739 60.2212C254.187 60.6798 254.578 61.418 254.925 62.3799C255.501 63.9626 255.954 66.1605 256.312 68.733C256.647 71.1322 256.899 73.8502 257.089 76.6968C257.47 82.5075 257.576 88.8382 257.553 94.0057Z" fill="#FEDEDE"/>
<path d="M217.902 63.8823C217.522 76.8794 217.097 89.8652 216.666 102.862H189C189.246 96.3302 190.292 73.6189 193.508 64.1507C197.288 53.0272 211.476 50.3875 213.971 48.967C214.955 48.4021 216.202 47.6304 217.354 46.9033C217.975 48.4469 218.003 50.449 218.048 52.7699C218.115 56.4722 218.014 60.18 217.902 63.8823Z" fill="#DFDEFE"/>
<path d="M205.912 70.7851L205.017 102.864H204.732L205.627 70.7795C205.632 70.7012 205.705 70.6396 205.778 70.6396C205.856 70.6396 205.917 70.7068 205.912 70.7851Z" fill="#2D1026"/>
<path d="M257.553 94.0034C257.553 95.2729 257.542 96.4697 257.525 97.5715V97.5938C257.492 99.7973 257.442 101.62 257.386 102.862H237.745C237.65 97.5044 237.582 92.1523 237.532 86.8002V86.5038C237.526 86.1962 237.521 85.8887 237.521 85.5811C237.487 81.3979 237.471 77.2202 237.465 73.0426C237.459 71.0405 237.459 69.0439 237.465 67.0418C237.465 66.2253 237.471 65.4144 237.471 64.5979C237.471 64.2623 237.471 63.9212 237.476 63.5856V63.3116C237.476 62.702 237.482 62.098 237.482 61.4884C237.493 58.9662 237.51 56.4495 237.532 53.9273V53.7315C237.538 52.1265 237.465 50.4487 237.605 48.8213C238.231 49.3414 239.064 49.9342 240.032 50.5773C241.329 51.4554 242.873 52.4229 244.472 53.4463C244.472 53.4519 244.472 53.4519 244.472 53.4519C245.384 54.0335 246.324 54.6375 247.241 55.2527C249.181 56.539 251.06 57.8644 252.57 59.1507C252.654 59.2178 252.733 59.2905 252.811 59.3576C253.118 59.6261 253.409 59.8945 253.683 60.1574C253.706 60.1797 253.722 60.1965 253.739 60.2189C254.187 60.6775 254.578 61.4157 254.925 62.3776C255.501 63.9603 255.954 66.1582 256.312 68.7307C256.647 71.1299 256.899 73.8479 257.089 76.6945C257.469 82.5052 257.576 88.8359 257.553 94.0034Z" fill="#DFDEFE"/>
<path d="M236.853 11.0501C237.646 10.9847 238.456 10.9511 239.224 11.1586C239.991 11.3666 240.72 11.8515 241.043 12.578C241.223 12.9806 241.293 13.4689 241.643 13.7373C241.894 13.9303 242.231 13.9588 242.547 13.9879C244.091 14.131 245.683 14.5052 246.867 15.5068C248.051 16.5084 248.696 18.2723 248.026 19.671C247.801 20.143 247.44 20.5574 247.318 21.0663C247.155 21.7458 247.447 22.4527 247.41 23.1512C247.33 24.6428 245.829 25.6304 244.418 26.1214C241.625 27.094 238.505 27.0985 235.708 26.1343C232.912 25.1696 230.459 23.2424 228.859 20.7548C227.971 19.3746 227.354 17.8495 226.708 16.3479C226.195 15.155 224.98 13.7306 226.669 13.13C229.859 11.9964 233.489 11.3286 236.853 11.0501Z" fill="#2D1026"/>
<path d="M236.214 39.9808V47.325C236.214 47.325 234.718 49.9607 229.228 50.5306C223.738 51.1061 220.672 44.7557 220.672 44.7557C220.672 44.7557 220.817 43.4767 221.029 42.4773C221.242 41.478 221.275 36.0996 221.275 36.0996L223.949 36.792L236.214 39.9808Z" fill="#FFA3A3"/>
<g opacity="0.46">
<path d="M236.214 39.9808V47.325C236.214 47.325 234.718 49.9607 229.228 50.5306C223.738 51.1061 220.672 44.7557 220.672 44.7557C220.672 44.7557 220.817 43.4767 221.029 42.4773C221.242 41.478 221.275 36.0996 221.275 36.0996L223.949 36.792L236.214 39.9808Z" fill="#2D1026"/>
</g>
<g opacity="0.59">
<path d="M236.214 39.9795V45.0223C235.21 45.3908 234.12 45.525 233.042 45.5306C231.456 45.5362 229.854 45.2571 228.418 44.5866C226.977 43.9166 225.704 42.844 224.922 41.4704C224.307 40.3983 224.118 39.2754 223.905 38.0802C223.833 37.6781 223.66 37.3487 223.849 36.9578C223.877 36.9019 223.911 36.8404 223.95 36.79L236.214 39.9795Z" fill="#2D1026"/>
</g>
<path d="M243.983 26.1044C244.011 28.2547 243.732 30.4325 243.424 32.4821C243.324 33.1577 243.24 33.9395 243.117 34.7661C242.76 37.1228 242.096 39.8704 239.867 41.7641C236.818 44.3612 229.379 42.641 224.933 41.2781C222.844 40.6416 221.415 40.0774 221.415 40.0774C221.415 40.0774 221.504 37.8046 221.275 36.1011C221.264 36.4808 218.187 36.0116 217.896 35.8997C216.975 35.548 216.154 34.9221 215.584 34.0956C214.428 32.4033 214.602 29.9851 216.176 28.6166C216.908 27.9857 217.958 27.5612 218.913 27.7844C219.253 27.8683 220.063 28.1362 220.393 28.5271C220.482 28.6277 220.532 28.7334 220.538 28.8509C220.421 26.818 220.415 24.8914 220.628 23.5229C221.353 18.9767 225.302 14.3528 231.306 14.0564C232.149 14.0172 232.965 14.0396 233.752 14.1067C233.992 14.1235 234.221 14.1459 234.456 14.185C234.568 14.1962 234.673 14.2186 234.785 14.2353C234.83 14.2409 234.88 14.2465 234.919 14.2577C234.953 14.2633 234.992 14.2745 235.031 14.2801C235.154 14.3024 235.282 14.3248 235.411 14.3528C238.594 15.0228 241.236 16.9779 242.693 19.971C243.62 21.8764 243.955 23.9764 243.983 26.1044Z" fill="#FFA3A3"/>
<g opacity="0.46">
<path d="M243.983 26.1044C244.011 28.2547 243.732 30.4325 243.424 32.4821C243.324 33.1577 243.24 33.9395 243.117 34.7661C242.76 37.1228 242.096 39.8704 239.867 41.7641C236.818 44.3612 229.379 42.641 224.933 41.2781C222.844 40.6416 221.415 40.0774 221.415 40.0774C221.415 40.0774 221.504 37.8046 221.275 36.1011C221.264 36.4808 218.187 36.0116 217.896 35.8997C216.975 35.548 216.154 34.9221 215.584 34.0956C214.428 32.4033 214.602 29.9851 216.176 28.6166C216.908 27.9857 217.958 27.5612 218.913 27.7844C219.253 27.8683 220.063 28.1362 220.393 28.5271C220.482 28.6277 220.532 28.7334 220.538 28.8509C220.421 26.818 220.415 24.8914 220.628 23.5229C221.353 18.9767 225.302 14.3528 231.306 14.0564C232.149 14.0172 232.965 14.0396 233.752 14.1067C233.992 14.1235 234.221 14.1459 234.456 14.185C234.568 14.1962 234.673 14.2186 234.785 14.2353C234.83 14.2409 234.88 14.2465 234.919 14.2577C234.953 14.2633 234.992 14.2745 235.031 14.2801C235.154 14.3024 235.282 14.3248 235.411 14.3528C238.594 15.0228 241.236 16.9779 242.693 19.971C243.62 21.8764 243.955 23.9764 243.983 26.1044Z" fill="#2D1026"/>
</g>
<path d="M243.117 34.7647C242.76 37.1214 242.096 39.869 239.867 41.7626C236.818 44.3598 229.379 42.6396 224.933 41.2766C224.252 40.5619 223.8 39.6235 223.437 38.6962C222.37 35.9766 221.823 33.0612 221.839 30.1402C222.337 30.1178 222.761 29.9003 223.258 29.8779C224.788 31.9052 227.033 33.6143 229.568 33.659C231.272 33.687 232.886 32.9723 234.556 32.6597C237.538 32.1066 240.738 32.894 243.117 34.7647Z" fill="#2D1026"/>
<path d="M231.64 30.4377C232.246 30.4377 232.737 29.9464 232.737 29.3404C232.737 28.7344 232.246 28.2432 231.64 28.2432C231.034 28.2432 230.543 28.7344 230.543 29.3404C230.543 29.9464 231.034 30.4377 231.64 30.4377Z" fill="#2D1026"/>
<path d="M240.454 30.4377C241.06 30.4377 241.551 29.9464 241.551 29.3404C241.551 28.7344 241.06 28.2432 240.454 28.2432C239.848 28.2432 239.356 28.7344 239.356 29.3404C239.356 29.9464 239.848 30.4377 240.454 30.4377Z" fill="#2D1026"/>
<path d="M220.971 34.5005C220.915 34.5005 220.865 34.4591 220.856 34.4015C220.737 33.6191 220.566 32.7086 220.201 31.8854C219.934 31.2814 219.437 30.4582 218.595 29.9649C217.835 29.5203 216.928 29.4633 216.231 29.8167C216.174 29.8463 216.104 29.8234 216.074 29.7658C216.045 29.7082 216.068 29.6383 216.125 29.6092C216.892 29.2194 217.884 29.2787 218.712 29.7636C219.608 30.2876 220.132 31.155 220.413 31.7903C220.79 32.6387 220.964 33.5682 221.086 34.3657C221.096 34.4289 221.051 34.4887 220.988 34.4982C220.983 34.4999 220.977 34.5005 220.971 34.5005Z" fill="#2D1026"/>
<path d="M233.149 34.4129C232.462 34.9481 231.874 35.7439 231.952 36.6113C232.014 37.2886 232.481 37.8781 233.057 38.241C233.632 38.6034 234.307 38.7712 234.975 38.9004C235.917 39.0832 236.883 39.2013 237.837 39.0888C239.385 38.906 241.407 37.9038 240.963 36.0353C240.812 35.4017 240.411 34.848 239.922 34.4168C237.988 32.7072 235.15 32.8537 233.149 34.4129Z" fill="#FFA3A3"/>
<g opacity="0.46">
<path d="M233.149 34.4129C232.462 34.9481 231.874 35.7439 231.952 36.6113C232.014 37.2886 232.481 37.8781 233.057 38.241C233.632 38.6034 234.307 38.7712 234.975 38.9004C235.917 39.0832 236.883 39.2013 237.837 39.0888C239.385 38.906 241.407 37.9038 240.963 36.0353C240.812 35.4017 240.411 34.848 239.922 34.4168C237.988 32.7072 235.15 32.8537 233.149 34.4129Z" fill="#2D1026"/>
</g>
<path d="M223.25 30.8768C223.653 31.0457 224.131 30.8992 224.47 30.6235C224.807 30.3478 225.033 29.9619 225.253 29.5844C225.717 28.7824 226.188 27.967 226.412 27.0683C226.671 26.0337 226.647 24.8156 227.438 24.1004C227.91 23.6731 228.567 23.5372 229.162 23.3124C230.686 22.7358 231.928 21.4562 232.459 19.9149C232.806 18.9066 232.923 17.7042 233.776 17.0638C234.245 16.712 234.848 16.6086 235.397 16.4033C236.002 16.1768 236.566 15.8077 236.949 15.2871C237.332 14.7664 237.518 14.0858 237.373 13.4561C232.431 12.6021 227.345 12.5825 222.397 13.399C221.137 13.6071 219.804 13.9119 218.917 14.8313C218.167 15.6092 217.86 16.7053 217.656 17.7668C217.021 21.0832 217.144 24.4985 217.473 27.8591C217.798 27.7366 218.319 27.7931 218.656 27.8753C219.882 28.1751 220.964 28.9949 221.623 30.0715C221.811 30.3791 221.977 30.7175 222.271 30.9266C222.563 31.1358 223.059 31.1822 223.25 30.8768Z" fill="#2D1026"/>
<path d="M228.82 26.0673C228.669 26.5802 228.909 27.1981 229.434 27.4213C229.833 27.5907 230.296 27.5169 230.734 27.4733C231.455 27.4017 232.254 27.3978 232.793 26.9521C233.722 26.1837 233.102 24.6625 231.865 24.6054C230.773 24.5557 229.139 24.9824 228.82 26.0673Z" fill="#2D1026"/>
<path d="M243.236 26.1865C243.387 26.6993 243.148 27.3173 242.622 27.5404C242.224 27.7099 241.76 27.636 241.323 27.5924C240.602 27.5208 239.802 27.5169 239.264 27.0712C238.335 26.3028 238.954 24.7816 240.192 24.7246C241.284 24.6748 242.918 25.1021 243.236 26.1865Z" fill="#2D1026"/>
<path d="M236.749 32.8526C236.689 32.8526 236.635 32.8145 236.616 32.7553C236.593 32.6814 236.634 32.6031 236.707 32.5802C237.209 32.4219 237.632 31.9673 237.812 31.3929C237.967 30.8974 237.955 30.3046 237.779 29.6777C237.617 29.1045 237.342 28.5581 237.076 28.0301C237.04 27.9613 237.068 27.8774 237.137 27.8428C237.206 27.8087 237.29 27.8361 237.325 27.9049C237.596 28.4445 237.878 29.0032 238.047 29.6022C238.238 30.2817 238.248 30.9299 238.078 31.4768C237.872 32.1367 237.379 32.6624 236.791 32.8475C236.777 32.8509 236.763 32.8526 236.749 32.8526Z" fill="#2D1026"/>
<path d="M236.767 35.0721C236.705 35.0721 236.644 35.0699 236.582 35.0649C235.928 35.0145 235.31 34.6985 234.886 34.1969C234.836 34.1382 234.844 34.0498 234.902 34C234.961 33.9497 235.05 33.9575 235.099 34.0168C235.47 34.4553 236.032 34.7427 236.604 34.7863C237.174 34.8322 237.775 34.6314 238.207 34.255C238.264 34.2042 238.353 34.2103 238.404 34.2685C238.455 34.3266 238.449 34.415 238.391 34.4653C237.943 34.8557 237.359 35.0721 236.767 35.0721Z" fill="#2D1026"/>
<path d="M294.541 31.1787C295.315 32.5994 295.81 34.171 296.001 35.7804C292.994 36.8845 289.903 37.7955 286.83 38.7487C284.112 39.5842 281.408 40.4526 278.788 41.5048C277.94 41.84 277.1 42.2031 276.275 42.5854C276.219 42.4486 276.168 42.307 276.112 42.1698C275.958 41.7876 275.804 41.4004 275.65 41.0137C275.175 39.8057 274.694 38.5928 274.223 37.375C273.921 36.6105 273.627 35.846 273.328 35.0815C271.552 30.4279 269.883 25.7179 268.61 20.9418C268.605 20.9232 268.596 20.9041 268.596 20.8854C268.46 20.3802 268.33 19.8803 268.204 19.3751C267.691 17.2938 267.351 15.2453 267.16 13.117C267.145 12.9469 267.132 12.7725 267.118 12.6024C267.696 12.423 268.279 12.2486 268.871 12.0834C271.286 11.413 273.775 10.9602 276.251 11.1959C276.806 11.2479 277.356 11.3327 277.906 11.4415C277.929 11.4464 277.952 11.4508 277.976 11.4557C278.354 11.536 278.727 11.6301 279.095 11.734C279.118 11.7433 279.141 11.7526 279.165 11.7575C281.193 12.3618 283.086 13.4046 284.563 14.9243C286.232 16.6327 287.305 18.8463 288.139 21.0927C288.536 22.164 288.955 23.3441 289.939 23.8959C290.801 24.382 291.855 24.2453 292.838 24.2874C295.104 24.382 297.258 25.5195 298.839 27.1666C300.414 28.8186 301.445 30.9518 302.037 33.1698C300.638 33.8917 299.202 34.5337 297.739 35.1144C297.008 33.5526 295.94 32.2833 294.541 31.1787Z" fill="#44182C"/>
<path d="M278.066 41.2022C277.418 41.5325 276.765 41.8584 276.112 42.1696C274.998 42.7126 273.87 43.2315 272.737 43.727C272.13 43.9911 271.524 44.2509 270.914 44.5008C268.266 45.5912 265.566 46.5493 262.867 47.5073C261.445 48.0126 260.014 48.4982 258.578 48.9751C257.45 47.743 256.461 46.4689 255.655 44.9727C255.412 46.5772 255.715 48.2576 256.503 49.6685C255.072 50.1497 253.645 50.6315 252.228 51.1362C250.363 48.1866 248.802 44.8311 249.021 41.334C249.295 36.874 252.512 32.9995 256.424 30.9276C255.123 28.8178 253.781 26.5807 253.678 24.0887C253.594 22.0687 254.373 20.0585 255.65 18.5011C256.872 17.0098 258.527 15.9145 260.308 15.2069C260.387 15.1784 260.462 15.1456 260.541 15.1172C261.338 15.2681 262.103 15.5136 262.83 15.8439C265.002 16.8162 266.867 18.4962 268.294 20.4549C268.396 20.5966 268.499 20.7382 268.597 20.8842C268.611 20.9029 268.625 20.9171 268.634 20.9362C269.622 22.3755 270.429 23.9285 271.156 25.5236C271.52 26.3117 271.865 27.1139 272.205 27.9166C272.373 28.3131 272.536 28.7095 272.704 29.106C272.84 29.427 272.975 29.748 273.114 30.069C273.324 30.5737 273.539 31.0741 273.758 31.5744C274.084 32.3389 274.42 33.1034 274.756 33.8635C275.157 34.7839 275.567 35.6993 275.982 36.6152C276.024 36.7142 276.066 36.8137 276.112 36.9127C276.606 38.0173 277.11 39.1214 277.618 40.226L278.066 41.2022Z" fill="#44182C"/>
<path d="M287.396 40.8445L273.708 46.3053L273.013 44.4597L271.007 39.1268L270.42 37.5645L283.516 26.3936L287.396 40.8445Z" fill="#FE99BF"/>
<g opacity="0.54">
<path d="M283.161 33.7275C282.596 36.4601 281.254 39.0084 279.357 40.9623C277.629 42.7368 275.364 43.8694 273.013 44.4594L271.008 39.1265C272.403 38.2204 273.91 37.4937 275.431 36.8375C277.93 35.7613 280.779 35.0679 283.161 33.7275Z" fill="#44182C"/>
</g>
<path d="M284.588 33.3168C284.583 34.3597 284.508 35.233 284.327 35.7711C284.089 36.4836 282.956 37.4133 281.347 38.362C278.877 39.8204 275.296 41.3166 272.135 42.1232C269.73 42.7417 267.571 42.9588 266.335 42.4584C266.07 42.3496 265.804 42.1801 265.538 41.9581C263.906 40.5849 262.326 37.2006 261.165 33.9441C260.358 31.7021 259.752 29.5174 259.468 28.0918C259.132 26.8412 258.983 25.5195 259.058 24.1556C259.426 17.2889 265.225 12.0217 272.009 12.3946C277.804 12.7156 282.363 16.3729 283.366 21.9043L283.557 22.5605C283.557 22.5605 283.683 23.3676 283.846 24.5898C284.033 25.9679 284.265 27.8791 284.419 29.7624C284.523 31.0184 284.588 32.2549 284.588 33.3168Z" fill="#FE99BF"/>
<path d="M265.384 31.9022C265.403 32.5515 264.899 33.094 264.258 33.1136C263.616 33.1332 263.08 32.6226 263.061 31.9732C263.042 31.3239 263.546 30.7819 264.187 30.7623C264.829 30.7422 265.365 31.2528 265.384 31.9022Z" fill="#44182C"/>
<path d="M273.917 28.9187C273.936 29.5681 273.431 30.1106 272.79 30.1297C272.149 30.1493 271.613 29.6386 271.594 28.9893C271.575 28.34 272.079 27.7975 272.72 27.7779C273.362 27.7588 273.898 28.2694 273.917 28.9187Z" fill="#44182C"/>
<path d="M268.614 33.649C268.445 33.649 268.275 33.6201 268.114 33.5622C267.743 33.4285 267.434 33.1447 267.266 32.784C267.194 32.6292 267.143 32.4532 267.106 32.2298C267.022 31.7157 267.046 31.1776 267.177 30.6733C267.204 30.5714 267.308 30.5096 267.41 30.5366C267.512 30.5631 267.573 30.6674 267.547 30.7694C267.429 31.2222 267.407 31.7059 267.483 32.168C267.515 32.3562 267.555 32.5008 267.613 32.6233C267.736 32.8884 267.972 33.105 268.244 33.2035C268.516 33.3015 268.834 33.2849 269.094 33.1589C269.19 33.1129 269.303 33.153 269.349 33.2476C269.395 33.3427 269.355 33.4564 269.26 33.5025C269.058 33.6 268.836 33.649 268.614 33.649Z" fill="#44182C"/>
<path d="M269.386 35.1925C269.166 35.1925 268.946 35.1592 268.735 35.091C268.624 35.0553 268.562 34.9352 268.598 34.824C268.634 34.7122 268.753 34.6505 268.865 34.6867C269.368 34.8485 269.933 34.7647 270.377 34.4623C270.824 34.156 271.134 33.6375 271.204 33.0749C271.218 32.9588 271.322 32.8745 271.441 32.8907C271.558 32.9054 271.64 33.0117 271.626 33.1279C271.54 33.809 271.163 34.4393 270.617 34.8127C270.252 35.0626 269.819 35.1925 269.386 35.1925Z" fill="#44182C"/>
<path d="M261.146 29.9152C261.119 29.9152 261.092 29.9103 261.066 29.8995C260.957 29.8559 260.905 29.7319 260.949 29.6231C261.324 28.6915 262.281 28.0216 263.275 27.9932C263.412 27.9932 263.49 28.0824 263.494 28.1995C263.497 28.3166 263.404 28.4141 263.287 28.418C262.457 28.4416 261.657 29.0022 261.342 29.7819C261.309 29.8652 261.23 29.9152 261.146 29.9152Z" fill="#44182C"/>
<path d="M270.441 26.1186C270.376 26.1186 270.312 26.0892 270.27 26.0328C270.2 25.9387 270.22 25.8054 270.314 25.7353C271.106 25.1458 272.174 24.9855 273.102 25.3188C273.212 25.3585 273.27 25.48 273.23 25.5903C273.19 25.7005 273.068 25.7589 272.959 25.7187C272.175 25.4374 271.237 25.5775 270.567 26.0764C270.529 26.1053 270.485 26.1186 270.441 26.1186Z" fill="#44182C"/>
<g opacity="0.31">
<path d="M278.112 37.3887C280.61 37.3887 282.635 35.3386 282.635 32.8096C282.635 30.2806 280.61 28.2305 278.112 28.2305C275.613 28.2305 273.588 30.2806 273.588 32.8096C273.588 35.3386 275.613 37.3887 278.112 37.3887Z" fill="#BC606D"/>
</g>
<g opacity="0.31">
<path d="M267.697 38.0498C267.697 39.7018 266.834 41.1505 265.538 41.9576C263.906 40.5844 262.326 37.2001 261.165 33.9436C261.771 33.6417 262.452 33.4717 263.174 33.4717C265.674 33.4722 267.697 35.5201 267.697 38.0498Z" fill="#BC606D"/>
</g>
<path d="M286.366 23.5955C286.822 23.5754 287.289 23.6357 287.705 23.8273C288.306 24.1042 288.762 24.6368 289.085 25.22C289.808 26.5265 289.928 28.1486 289.454 29.5674C288.98 30.9866 287.932 32.1887 286.624 32.8885C285.917 33.2668 285.076 33.5045 284.317 33.2487C282.193 32.5337 281.827 29.1856 282.089 27.2793C282.353 25.3631 284.53 23.6758 286.366 23.5955Z" fill="#FE99BF"/>
<path d="M284.865 30.5391C284.769 30.5391 284.685 30.4685 284.672 30.371C284.282 27.6394 285.673 24.7906 288.053 23.4435C288.148 23.39 288.267 23.4234 288.321 23.5175C288.374 23.6115 288.341 23.7311 288.247 23.7845C286.039 25.0337 284.699 27.7805 285.06 30.3156C285.075 30.4224 285 30.5219 284.893 30.5371C284.884 30.5386 284.874 30.5391 284.865 30.5391Z" fill="#44182C"/>
<path d="M282.702 27.9173C281.512 27.3488 280.403 25.8095 279.96 24.6834C278.197 25.3636 276.173 25.3224 274.438 24.5711C272.703 23.8199 271.237 22.3757 270.505 20.6149C267.91 21.223 265.095 21.2872 262.768 19.5632C261.954 18.9604 261.362 18.1004 261.031 17.1364C260.825 16.5346 260.421 15.7833 260.3 15.158C262.887 13.9417 265.642 12.8165 268.424 12.1794C269.66 11.8962 270.916 11.7065 272.173 11.5409C275.029 11.164 278.115 10.9518 280.612 12.4044C282.008 13.2159 283.097 14.4925 283.912 15.897C284.728 17.3016 285.291 18.8399 285.826 20.3762C286.192 21.4279 286.64 22.5947 286.995 23.6503C286.694 23.5714 285.968 23.6199 285.492 23.8008C284.938 24.0115 284.416 24.2712 283.766 25.3675C283.53 25.7664 283.363 26.6951 283.387 27.4635C283.398 27.8276 283.028 28.0726 282.702 27.9173Z" fill="#44182C"/>
<path d="M321.934 101.831C321.938 101.999 321.934 102.162 321.934 102.311C321.934 102.703 321.929 103.034 321.925 103.3H257.256C256.734 98.3302 253.974 71.1641 255.377 64.2591C257.041 56.0633 270.016 51.8488 270.016 51.8488L268.907 46.0396C268.86 45.7877 268.86 45.5407 268.902 45.303C269.019 44.6223 269.481 44.0255 270.152 43.7647L272.436 42.9302L272.734 43.7275L272.799 43.8907L272.832 43.9701L272.874 44.0818L272.897 44.147L273.018 44.4592L273.172 44.86C273.172 44.86 275.513 44.2773 278.347 43.2565C278.352 43.2565 278.357 43.2565 278.362 43.2521C279.084 42.9958 279.835 42.7067 280.595 42.394C282.968 41.4105 285.36 40.1701 286.828 38.7485L286.693 38.2265L286.674 38.1614L286.637 38.0168L286.627 37.984L286.609 37.9188L286.576 37.7928L286.562 37.7414L286.385 37.0279C286.385 37.0279 287.895 36.2168 288.977 36.678C289.182 36.7618 289.373 36.897 289.536 37.0881C289.653 37.2278 289.783 37.4052 289.919 37.6101C289.952 37.6566 289.984 37.7125 290.017 37.7639C290.581 38.6544 291.243 39.9599 291.723 40.9577C292.036 41.6055 292.273 42.1186 292.362 42.3097C292.38 42.3612 292.394 42.3891 292.394 42.3891C292.394 42.3891 293.873 42.5896 296.073 43.0277C296.516 43.1164 296.987 43.2144 297.481 43.3212C297.733 43.3771 297.989 43.433 298.25 43.4937C302.455 44.4587 307.976 46.0906 311.426 48.5566C311.771 48.7991 312.097 49.0554 312.395 49.3166C312.516 49.4191 312.633 49.5313 312.75 49.6474C313.03 49.918 313.304 50.2208 313.566 50.5472C315.925 53.4611 317.622 58.3794 318.838 64.0861C318.843 64.0954 318.848 64.1048 318.848 64.1141C318.848 64.1185 318.848 64.1185 318.848 64.1185C319.36 66.5242 319.794 69.0745 320.148 71.6664C320.181 71.8762 320.209 72.0859 320.237 72.2912C320.232 72.2912 320.232 72.2912 320.237 72.2956C320.367 73.2841 320.493 74.2819 320.6 75.2796C320.801 77.0091 320.969 78.739 321.104 80.4454C321.132 80.711 321.15 80.9815 321.174 81.2471C321.188 81.4196 321.202 81.5921 321.211 81.7646C321.272 82.5433 321.328 83.3122 321.379 84.0772C321.426 84.753 321.468 85.42 321.505 86.0772C321.519 86.3335 321.533 86.5898 321.547 86.8417C321.594 87.6527 321.631 88.4456 321.668 89.2238C321.673 89.387 321.682 89.5502 321.687 89.7134C321.696 89.9001 321.701 90.0864 321.71 90.2682C321.715 90.4034 321.72 90.5338 321.725 90.6646C321.795 92.4034 321.846 94.0353 321.879 95.5226V95.625C321.883 95.7838 321.883 95.9372 321.888 96.0911C321.934 98.4698 321.943 100.442 321.934 101.831Z" fill="#26575E"/>
<path d="M270.375 89.0377C270.277 89.0377 270.194 88.9637 270.185 88.8652L268.598 72.0419C268.587 71.937 268.665 71.8439 268.77 71.8341C268.877 71.8228 268.968 71.9012 268.977 72.0061L270.565 88.8294C270.575 88.9343 270.498 89.0274 270.393 89.0372C270.387 89.0377 270.38 89.0377 270.375 89.0377Z" fill="#44182C"/>
<path d="M265.733 89.5133C265.63 89.5133 265.545 89.4315 265.542 89.3281C265.539 89.2227 265.622 89.135 265.727 89.1316L285.963 88.5361C286.079 88.5459 286.156 88.616 286.159 88.7214C286.162 88.8267 286.08 88.9145 285.974 88.9179L265.739 89.5133C265.736 89.5133 265.734 89.5133 265.733 89.5133Z" fill="#44182C"/>
<path d="M325.803 64.1143H275.774V103.3H325.803V64.1143Z" fill="#F56A58"/>
<path d="M278.615 64.1157C278.42 64.2088 278.224 64.3068 278.018 64.4093C277.175 64.8381 276.434 65.2674 275.776 65.6913V65.1409C276.317 64.7959 276.913 64.4558 277.575 64.1152L278.615 64.1157Z" fill="#F7F0E7"/>
<path d="M305.358 64.1143C304.64 64.5945 303.819 65.0748 302.872 65.555C298.551 67.7461 295.814 67.7883 293.171 67.8348C290.579 67.877 287.898 67.9186 283.674 70.0631C279.445 72.2032 277.827 74.3384 276.261 76.4084C276.103 76.6182 275.94 76.8328 275.776 77.0426V76.2732C275.814 76.2217 275.851 76.1752 275.888 76.1237C277.487 74.0165 279.142 71.8347 283.46 69.6436C287.782 67.457 290.518 67.4104 293.161 67.3683C295.758 67.3261 298.439 67.2796 302.663 65.14C303.339 64.795 303.945 64.4549 304.5 64.1143H305.358Z" fill="#F7F0E7"/>
<path d="M316.57 64.1143C316.565 64.1192 316.565 64.1192 316.565 64.1192C316.453 64.2637 316.341 64.4083 316.234 64.5529C316.187 64.6136 316.145 64.6695 316.099 64.7298C314.5 66.837 312.849 69.0188 308.527 71.2104C304.205 73.4014 301.469 73.4436 298.826 73.4857C296.234 73.5323 293.553 73.5744 289.324 75.714C285.1 77.8585 283.483 79.9937 281.916 82.0593C280.508 83.9147 279.054 85.8309 275.776 87.7563V87.2153C278.811 85.3736 280.2 83.5511 281.543 81.7795C283.142 79.6723 284.793 77.4905 289.115 75.2994C293.436 73.1084 296.173 73.0662 298.816 73.0197C301.408 72.9775 304.089 72.9359 308.318 70.7913C312.541 68.6512 314.164 66.5161 315.73 64.446C315.814 64.3343 315.898 64.227 315.982 64.1148H316.57V64.1143Z" fill="#F7F0E7"/>
<path d="M325.805 65.5254V66.113C323.903 67.5538 322.817 68.9847 321.754 70.3883C320.439 72.1226 319.083 73.9084 316.234 75.703C315.623 76.0901 314.943 76.4768 314.183 76.864C309.861 79.055 307.124 79.1016 304.481 79.1437C301.889 79.1859 299.203 79.2324 294.98 81.372C290.756 83.5165 289.133 85.6517 287.567 87.7174C285.968 89.8246 284.317 92.0064 279.995 94.1979C278.396 95.009 277.016 95.5265 275.776 95.8578V95.3682C276.96 95.0462 278.275 94.5522 279.785 93.7833C284.009 91.6388 285.632 89.5036 287.198 87.438C288.797 85.3258 290.447 83.149 294.769 80.9574C299.091 78.7659 301.828 78.7198 304.471 78.6777C307.063 78.6355 309.744 78.5939 313.968 76.4494C314.826 76.0157 315.572 75.582 316.234 75.1532C318.849 73.4468 320.131 71.7497 321.381 70.104C322.514 68.6069 323.68 67.073 325.805 65.5254Z" fill="#F7F0E7"/>
<path d="M325.805 77.3252V78.0431C324.509 79.5212 322.798 81.0178 319.833 82.5189C318.495 83.1947 317.311 83.6705 316.234 84.0013C313.828 84.7379 311.959 84.7707 310.131 84.7986C307.539 84.8408 304.858 84.8824 300.634 87.0269C296.411 89.167 294.788 91.3067 293.222 93.3723C291.623 95.4795 289.972 97.6613 285.65 99.8479C281.328 102.039 278.592 102.086 275.949 102.128C275.893 102.128 275.832 102.128 275.776 102.133V101.667C275.832 101.662 275.883 101.662 275.939 101.662C278.531 101.62 281.212 101.578 285.441 99.4334C289.664 97.2933 291.282 95.1581 292.849 93.088C294.448 90.9808 296.103 88.8034 300.425 86.6124C304.746 84.4213 307.479 84.3747 310.126 84.3326C311.949 84.3047 313.819 84.2718 316.234 83.5073C317.255 83.1903 318.369 82.7379 319.623 82.1043C322.789 80.5003 324.491 78.8963 325.805 77.3252Z" fill="#F7F0E7"/>
<path d="M325.803 87.4814V88.0083C325.701 88.0641 325.594 88.1156 325.486 88.1715C324.064 88.8943 322.815 89.379 321.687 89.7147C319.57 90.3346 317.868 90.4091 316.232 90.4419C316.083 90.4468 315.934 90.4468 315.785 90.4512C313.193 90.4934 310.512 90.535 306.288 92.6795C302.059 94.8196 300.441 96.9548 298.875 99.0249C298.129 100.004 297.374 101.002 296.339 102.009C295.901 102.438 295.406 102.871 294.847 103.3H294.064C294.978 102.647 295.71 101.995 296.339 101.347C297.193 100.471 297.855 99.6031 298.503 98.7406C300.102 96.6334 301.757 94.4516 306.078 92.2605C310.395 90.0739 313.132 90.0273 315.78 89.9852C315.929 89.9852 316.079 89.9803 316.233 89.9759C317.86 89.943 319.552 89.8641 321.668 89.2251C322.745 88.9036 323.934 88.4371 325.277 87.7564C325.458 87.6633 325.631 87.575 325.803 87.4814Z" fill="#F7F0E7"/>
<path d="M325.803 95.2627V95.743C324.368 96.0272 323.109 96.0693 321.887 96.0929C321.738 96.0978 321.589 96.0978 321.44 96.1022C319.85 96.1301 318.228 96.158 316.233 96.6711C314.978 96.9926 313.575 97.5008 311.944 98.331C308.643 100.005 306.937 101.669 305.603 103.301H305.006C306.405 101.538 308.148 99.7296 311.729 97.9159C313.454 97.0441 314.923 96.5128 316.233 96.1816C318.214 95.692 319.841 95.6641 321.431 95.6361C321.58 95.6312 321.729 95.6312 321.878 95.6268C323.099 95.6033 324.358 95.5562 325.803 95.2627Z" fill="#F7F0E7"/>
<path d="M325.803 64.1182H316.232V103.299H325.803V64.1182Z" fill="#44182C"/>
<path d="M296.339 64.1182H293.308V103.299H296.339V64.1182Z" fill="#F7F0E7"/>
<path d="M325.678 86.8406V84.0771L275.764 84.0771V86.8406L325.678 86.8406Z" fill="#F7F0E7"/>
<path d="M321.917 43.4941H280.494V64.0865H321.917V43.4941Z" fill="#A7CBCC"/>
<path d="M285.292 47.8752H286.086L284.46 44.7363L282.834 47.8752H283.628L282.04 50.8626H283.704V52.2245H284.375H284.687H285.217V50.8626H286.881L285.292 47.8752Z" fill="#FFC97D"/>
<path d="M292.037 54.7785H292.832L291.206 51.6396L289.58 54.7785H290.373L288.785 57.7659H290.449V59.1273H291.12H291.432H291.962V57.7659H293.626L292.037 54.7785Z" fill="#FFC97D"/>
<path d="M306.163 54.7785H306.957L305.331 51.6396L303.705 54.7785H304.499L302.91 57.7659H304.574V59.1273H305.245H305.558H306.087V57.7659H307.751L306.163 54.7785Z" fill="#FFC97D"/>
<path d="M299.1 47.5568H299.894L298.268 44.418L296.642 47.5568H297.436L295.848 50.5447H297.512V51.9061H298.183H298.495H299.025V50.5447H300.688L299.1 47.5568Z" fill="#FFC97D"/>
<path d="M313.622 47.5568H314.416L312.79 44.418L311.164 47.5568H311.958L310.37 50.5447H312.034V51.9061H312.705H313.017H313.547V50.5447H315.21L313.622 47.5568Z" fill="#FFC97D"/>
<path d="M310.85 64.0869L311.959 61.9982H311.162L312.789 58.8604L314.416 61.9982H313.623L314.733 64.0869H310.85Z" fill="#FFC97D"/>
<path d="M299.101 62.8737L299.744 64.0861H296.793L297.437 62.8737H296.644L298.266 59.7314L299.893 62.8737H299.101Z" fill="#FFC97D"/>
<path d="M284.578 62.8737L285.222 64.0861H282.271L282.914 62.8737H282.122L283.744 59.7314L285.371 62.8737H284.578Z" fill="#FFC97D"/>
<path d="M321.916 43.4951H312.75V64.088H321.916V43.4951Z" fill="#44182C"/>
<path d="M322.034 29.3311H278.35V43.4948H322.034V29.3311Z" fill="#FFC97D"/>
<path d="M284.22 29.3311L278.35 37.4293V35.1961L282.602 29.3311H284.22Z" fill="#F7F0E7"/>
<path d="M290.066 29.3311L279.8 43.4943H278.35V43.2709L288.453 29.3311H290.066Z" fill="#F7F0E7"/>
<path d="M295.921 29.3311L285.656 43.4943H284.038L294.304 29.3311H295.921Z" fill="#F7F0E7"/>
<path d="M301.772 29.3311L291.506 43.4943H289.889L300.155 29.3311H301.772Z" fill="#F7F0E7"/>
<path d="M307.619 29.3311L297.357 43.4943H295.74L306.005 29.3311H307.619Z" fill="#F7F0E7"/>
<path d="M313.474 29.3311L311.773 31.6809L303.208 43.4943H301.595L311.773 29.4477L311.856 29.3311H313.474Z" fill="#F7F0E7"/>
<path d="M319.33 29.3311L311.773 39.7557L309.064 43.4943H307.441L311.773 37.5175L317.708 29.3311H319.33Z" fill="#F7F0E7"/>
<path d="M322.034 29.3311H311.772V43.4948H322.034V29.3311Z" fill="#44182C"/>
<path d="M319.176 6.00195H281.087V29.3313H319.176V6.00195Z" fill="#F56A58"/>
<path d="M288.833 9.78425L288.781 9.71417L286.222 6.00293H286.124L288.73 9.78376L288.753 9.81659L288.73 9.84452L284.986 14.7584L281.219 9.81659L283.849 6.00293H283.751L281.13 9.79797C281.121 9.80728 281.121 9.8259 281.135 9.84011L284.939 14.8378L284.948 14.8515C284.958 14.8608 284.972 14.8657 284.986 14.8657C285 14.8657 285.009 14.8608 285.019 14.8515L285.033 14.8329L288.781 9.91411L288.833 9.84403L288.838 9.83962C288.851 9.8259 288.851 9.80679 288.838 9.79748L288.833 9.78425Z" fill="#F7F0E7"/>
<path d="M296.399 9.75485L293.817 6.00195H293.714L296.344 9.81561L292.577 14.7574L288.833 9.84355L288.815 9.81561L288.833 9.78278L291.439 6.00195H291.341L288.782 9.71319L288.73 9.78327L288.721 9.79748C288.717 9.80679 288.717 9.82542 288.726 9.83963L288.73 9.84404L288.782 9.91412L292.53 14.8373L292.544 14.851C292.554 14.8603 292.563 14.8652 292.577 14.8652C292.591 14.8652 292.605 14.8603 292.61 14.851L292.629 14.8324L296.4 9.87638L296.428 9.83914C296.442 9.82542 296.442 9.8063 296.428 9.79699L296.399 9.75485Z" fill="#F7F0E7"/>
<path d="M304.045 9.74553L301.463 6.00195H301.365L303.994 9.81561L300.367 14.5756L300.228 14.7574L299.495 13.7969L296.461 9.81561L299.09 6.00195H298.988L296.4 9.75485L296.377 9.79699C296.363 9.8063 296.363 9.82493 296.377 9.83914L296.4 9.87638L299.496 13.9326L300.181 14.8324L300.195 14.851C300.205 14.8603 300.214 14.8652 300.228 14.8652C300.242 14.8652 300.256 14.8603 300.265 14.851L300.275 14.8373L300.368 14.7162L304.046 9.88618L304.079 9.83963C304.088 9.82591 304.088 9.80679 304.079 9.79748L304.045 9.74553Z" fill="#F7F0E7"/>
<path d="M310.134 11.7783L310.129 11.7827L307.863 14.7569L304.096 9.81512L306.133 6.85956L306.725 6.00195H306.627L306.063 6.82232L304.044 9.74554L304.007 9.79699C304.002 9.8063 304.002 9.82493 304.007 9.83914L304.044 9.88569L307.816 14.8368L307.83 14.8505C307.835 14.8598 307.849 14.8647 307.862 14.8647C307.877 14.8647 307.89 14.8598 307.895 14.8505L307.909 14.8368L310.128 11.9229L310.133 11.918L310.963 10.8271V10.6874L310.134 11.7783ZM310.134 7.4937L310.129 7.48929L309.103 6.00195H309.001L310.129 7.63827L310.134 7.64317L310.963 8.85068V8.70121L310.134 7.4937Z" fill="#F7F0E7"/>
<path d="M288.833 20.0136L288.781 19.9435L287.919 18.6938L287.322 17.822L285.242 14.8057H285.135L287.219 17.822L287.821 18.6938L288.73 20.0131L288.753 20.0459L288.73 20.0738L288.077 20.9314L286.683 22.7589L286.026 23.6263L285.993 23.6684L284.986 24.9877L284.52 24.3771L284.399 24.2188L283.657 23.2445L281.219 20.0464L282.151 18.6943L282.231 18.5777L282.753 17.8225L283.988 16.0323L284.674 15.0394L284.832 14.8062H284.73L284.613 14.9742L283.942 15.9485L282.651 17.8225L282.189 18.4939L282.049 18.6943L281.131 20.0278C281.122 20.0371 281.122 20.0557 281.135 20.0699L283.681 23.4175L284.324 24.2614L284.459 24.4339L284.94 25.068L284.949 25.0823C284.958 25.0916 284.972 25.0965 284.986 25.0965C285 25.0965 285.01 25.0921 285.019 25.0823L285.033 25.0636L286.11 23.6513L286.138 23.614L286.717 22.8539L288.11 21.0216L288.782 20.1454L288.833 20.0753L288.838 20.0704C288.852 20.0567 288.852 20.0376 288.838 20.0283L288.833 20.0136Z" fill="#F7F0E7"/>
<path d="M296.399 19.9871L295.509 18.6958L294.912 17.8239L292.833 14.8076H292.73L294.809 17.8239L295.411 18.6958L296.343 20.0478L293.099 24.3045L292.577 24.9896L292.031 24.2717L288.833 20.0758L288.815 20.0478L288.833 20.015L289.742 18.6958L290.344 17.8239L292.423 14.8076H292.325L290.246 17.8239L289.644 18.6958L288.782 19.9454L288.73 20.0155L288.721 20.0297C288.717 20.039 288.717 20.0576 288.726 20.0719L288.73 20.0768L288.782 20.1468L291.924 24.2727L292.53 25.07L292.544 25.0842C292.554 25.0935 292.563 25.0984 292.577 25.0984C292.591 25.0984 292.605 25.094 292.61 25.0842L292.629 25.0656L293.202 24.3104L296.4 20.1101L296.428 20.0728C296.442 20.0591 296.442 20.04 296.428 20.0307L296.399 19.9871Z" fill="#F7F0E7"/>
<path d="M304.045 19.9778L303.164 18.6958L302.563 17.8239L300.483 14.8076H300.381L302.46 17.8239L303.062 18.6958L303.994 20.0478L300.367 24.8078L300.228 24.9896L299.495 24.0291L296.46 20.0478L297.393 18.6958L297.994 17.8239L299.495 15.6515L300.078 14.8076H299.976L299.495 15.5025L297.891 17.8244L297.29 18.6963L296.4 19.9876L296.376 20.0297C296.362 20.039 296.362 20.0576 296.376 20.0719L296.4 20.1091L299.495 24.1653L300.181 25.0651L300.195 25.0837C300.204 25.093 300.213 25.0979 300.228 25.0979C300.242 25.0979 300.256 25.0935 300.265 25.0837L300.274 25.0695L300.367 24.9485L304.046 20.1184L304.078 20.0719C304.087 20.0581 304.087 20.039 304.078 20.0297L304.045 19.9778Z" fill="#F7F0E7"/>
<path d="M310.134 22.0091L310.129 22.0135L307.863 24.9877L304.096 20.0459L305.028 18.6938L305.63 17.822L307.709 14.8057H307.611L305.532 17.822L304.93 18.6938L304.045 19.9758L304.007 20.0273C304.003 20.0366 304.003 20.0552 304.007 20.0694L304.045 20.116L307.816 25.0671L307.83 25.0813C307.835 25.0906 307.849 25.0955 307.863 25.0955C307.877 25.0955 307.891 25.0911 307.896 25.0813L307.91 25.0671L310.129 22.1532L310.134 22.1487L310.963 21.0579V20.9182L310.134 22.0091ZM310.801 18.6943L310.199 17.8225L310.134 17.7294L310.129 17.725L308.115 14.8066H308.017L310.096 17.823L310.129 17.8695L310.134 17.8739L310.698 18.6943L310.964 19.0815V18.9325L310.801 18.6943Z" fill="#F7F0E7"/>
<path d="M284.73 25.0391L284.031 26.0554L283.597 26.6847L283.401 26.9596L283.396 26.964V26.9684L282.739 27.929L282.031 28.9547L281.774 29.3276H281.877L282.04 29.0899L282.823 27.9525L283.392 27.1272V27.1047L283.396 27.0998L283.625 26.792L284.049 26.1858V26.1814L284.832 25.0391H284.73ZM285.956 26.0741L285.704 25.706L285.242 25.0396H285.135L285.653 25.7903L285.905 26.1589L288.096 29.3291H288.198L285.956 26.0741Z" fill="#F7F0E7"/>
<path d="M292.325 25.0391L289.611 28.9787L289.369 29.3286H289.467L289.56 29.1982L289.564 29.1938V29.1894L292.422 25.04H292.325V25.0391ZM292.833 25.0391H292.73L295.686 29.3281H295.784L292.833 25.0391Z" fill="#F7F0E7"/>
<path d="M299.975 25.0391L299.495 25.7335L298.642 26.9689L297.015 29.3281H297.117L298.703 27.0297L299.495 25.8829L300.078 25.0391H299.975ZM300.483 25.0391H300.381L303.337 29.3281H303.439L300.483 25.0391Z" fill="#F7F0E7"/>
<path d="M307.612 25.0391L304.651 29.3281H304.754L307.709 25.0391H307.612ZM310.134 27.9623L310.129 27.9579L308.115 25.0396H308.017L310.129 28.1024L310.134 28.1069L310.963 29.3144V29.1654L310.134 27.9623Z" fill="#F7F0E7"/>
<path d="M319.178 6H310.132V29.3304H319.178V6Z" fill="#44182C"/>
<path d="M319.097 17.8252H281.087V18.697H319.097V17.8252Z" fill="#F7F0E7"/>
<path d="M300.369 6.00195H299.497V29.3313H300.369V6.00195Z" fill="#F7F0E7"/>
<path d="M181.379 80.4253C177.186 78.6803 172.489 78.1673 168.019 78.9653C167.999 78.9693 167.983 78.9543 167.983 78.9343C168.183 74.3243 165.044 69.7653 160.665 68.3093C160.649 68.3043 160.641 68.2883 160.645 68.2723C161.882 63.3713 162.626 59.5193 160.47 54.8103C160.459 54.7863 160.479 54.7613 160.504 54.7673C164.15 55.6763 167.891 54.8523 171.552 53.9883C171.568 53.9843 171.583 53.9933 171.589 54.0083C173.536 59.4733 177.723 62.3352 182.046 63.8993C182.062 63.9052 182.07 63.9233 182.065 63.9393C179.963 70.2173 179.494 74.0713 181.379 80.4253Z" fill="#A7CBCC"/>
<path d="M189.051 100.132C184.554 100.765 180.25 102.715 176.809 105.678C176.794 105.691 176.772 105.687 176.762 105.669C174.587 101.599 169.564 99.2744 165.054 100.25C165.038 100.253 165.022 100.244 165.018 100.228C163.587 95.3804 162.267 91.6854 158.014 88.7314C157.993 88.7164 157.997 88.6844 158.022 88.6774C161.623 87.6034 164.423 84.9904 167.134 82.3824C167.146 82.3714 167.164 82.3714 167.176 82.3814C171.635 86.0944 176.695 86.4254 181.212 85.5704C181.229 85.5674 181.245 85.5784 181.249 85.5954C182.635 92.0674 184.193 95.6234 189.051 100.132Z" fill="#A7CBCC"/>
<path d="M198.805 114.605C198.646 114.605 198.497 114.507 198.44 114.35C191.388 95.1741 180.445 77.0031 166.792 61.8001C166.648 61.6401 166.662 61.3941 166.821 61.2501C166.982 61.1061 167.227 61.1201 167.371 61.2791C181.089 76.5541 192.085 94.8131 199.17 114.081C199.244 114.283 199.141 114.506 198.939 114.58C198.894 114.597 198.849 114.605 198.805 114.605Z" fill="#44182C"/>
<path d="M195.052 105.617C194.955 105.617 194.859 105.581 194.783 105.51C188.97 99.9751 181.934 95.5381 174.435 92.6811C174.234 92.6041 174.133 92.3801 174.21 92.1791C174.286 91.9771 174.51 91.8761 174.713 91.9541C182.308 94.8481 189.434 99.3411 195.321 104.947C195.477 105.095 195.483 105.342 195.334 105.497C195.257 105.576 195.154 105.617 195.052 105.617Z" fill="#44182C"/>
<path d="M190.769 84.3813C188.963 80.2143 185.94 76.5833 182.169 74.0533C182.152 74.0423 182.151 74.0203 182.165 74.0063C185.51 70.8273 186.417 65.3673 184.277 61.2783C184.269 61.2643 184.274 61.2463 184.288 61.2373C188.582 58.5693 192.825 55.9623 194.543 51.0763C194.552 51.0513 194.761 50.9823 194.775 51.0043C196.768 54.1903 198.821 56.6133 202.056 58.5333C202.07 58.5413 202.075 58.5593 202.068 58.5733C199.674 63.8583 200.7 68.8243 202.724 72.9523C202.732 72.9673 202.725 72.9863 202.71 72.9943C196.839 76.0533 193.825 78.5003 190.769 84.3813Z" fill="#A7CBCC"/>
<path d="M190.225 94.7448H190.221C190.006 94.7428 189.834 94.5668 189.836 94.3518C189.918 85.8568 190.888 77.3408 192.72 69.0408L194.657 57.0928C194.691 56.8818 194.889 56.7398 195.104 56.7708C195.316 56.8048 195.46 57.0048 195.426 57.2178L193.485 69.1878C191.66 77.4568 190.696 85.9178 190.614 94.3598C190.612 94.5728 190.438 94.7448 190.225 94.7448Z" fill="#44182C"/>
<path d="M207.283 85.5662C206.99 89.4412 203.612 92.3452 199.737 92.0522C195.862 91.7592 192.958 88.3812 193.251 84.5062C193.544 80.6312 196.922 77.7282 200.797 78.0202C204.672 78.3132 207.576 81.6922 207.283 85.5662Z" fill="#F56A58"/>
<path d="M204.826 80.9412C204.664 81.3272 203.622 81.2582 202.499 80.7862C201.376 80.3152 200.597 79.6192 200.759 79.2332C200.921 78.8472 201.963 78.9162 203.086 79.3872C204.209 79.8592 204.988 80.5542 204.826 80.9412Z" fill="#44182C"/>
<path d="M192.628 92.7561C196.413 93.6341 198.77 97.4151 197.891 101.2C197.013 104.985 193.232 107.342 189.447 106.464C185.662 105.586 183.305 101.805 184.184 98.0201C185.062 94.2341 188.843 91.8771 192.628 92.7561Z" fill="#F56A58"/>
<path d="M187.683 94.4809C188.04 94.6999 187.813 95.7189 187.177 96.7579C186.54 97.7959 185.735 98.4609 185.378 98.2419C185.021 98.0229 185.248 97.0039 185.884 95.9649C186.52 94.9269 187.326 94.2629 187.683 94.4809Z" fill="#44182C"/>
<path d="M332.251 76.9291C331.785 72.4121 329.996 68.0391 327.162 64.4901C327.15 64.4741 327.155 64.4521 327.172 64.4441C331.319 62.4211 333.829 57.4881 333.02 52.9441C333.017 52.9281 333.027 52.9121 333.043 52.9081C337.941 51.6581 341.682 50.4751 344.792 46.3341C344.808 46.3131 344.839 46.3191 344.846 46.3441C345.786 49.9831 348.294 52.8771 350.8 55.6831C350.811 55.6951 350.81 55.7131 350.8 55.7251C346.925 60.0431 346.407 65.0881 347.093 69.6341C347.096 69.6511 347.084 69.6671 347.067 69.6701C340.548 70.8161 336.938 72.2411 332.251 76.9291Z" fill="#A7CBCC"/>
<path d="M318.589 93.0715C315.888 89.4205 312.122 86.5675 307.876 84.9565C307.858 84.9495 307.851 84.9275 307.862 84.9115C310.402 81.0585 310.05 75.5355 307.041 72.0365C307.03 72.0245 307.031 72.0055 307.043 71.9945C310.622 68.4245 313.239 65.5015 313.808 60.3545C313.811 60.3285 313.841 60.3165 313.859 60.3355C316.52 62.9885 320.153 64.2035 323.738 65.3425C323.753 65.3475 323.762 65.3635 323.759 65.3785C322.622 71.0685 324.745 75.6735 327.65 79.2365C327.661 79.2495 327.659 79.2695 327.645 79.2805C322.617 83.5855 320.235 86.6515 318.589 93.0715Z" fill="#A7CBCC"/>
<path d="M342.403 55.4806C341.014 59.3906 339.463 63.2626 337.751 67.0776C337.732 67.1346 337.703 67.1916 337.675 67.2486C337.504 67.6286 337.333 68.0196 337.161 68.3996C337.151 68.4096 337.151 68.4096 337.151 68.4186C336.285 70.3116 335.382 72.1856 334.44 74.0406C334.183 74.5736 333.907 75.0966 333.631 75.6296C332.746 77.3516 331.824 79.0546 330.872 80.7476C330.682 81.0896 330.482 81.4326 330.292 81.7746C328.589 84.7616 326.791 87.6916 324.898 90.5556C324.641 90.9456 324.384 91.3356 324.127 91.7256C320.407 97.2816 316.355 102.609 312.007 107.623H310.98C312.911 105.416 314.785 103.152 316.593 100.821C316.974 100.336 317.354 99.8406 317.725 99.3456C321.939 93.8086 325.821 87.9776 329.312 81.9176C329.512 81.5756 329.712 81.2236 329.911 80.8716C330.701 79.4826 331.471 78.0746 332.223 76.6666C332.68 75.7916 333.127 74.9166 333.574 74.0406C334.468 72.2706 335.334 70.4826 336.161 68.6846C336.209 68.5896 336.256 68.4946 336.294 68.3996C336.427 68.1146 336.56 67.8286 336.684 67.5436C337.045 66.7446 337.407 65.9456 337.75 65.1366C339.167 61.8736 340.471 58.5626 341.66 55.2236C341.736 55.0236 341.955 54.9196 342.164 54.9856C342.365 55.0616 342.469 55.2806 342.403 55.4806Z" fill="#44182C"/>
<path d="M316.972 101.164C316.938 101.164 316.904 101.16 316.87 101.15C316.663 101.094 316.54 100.88 316.596 100.673C318.689 92.9253 319.233 84.6253 318.168 76.6693C318.14 76.4563 318.289 76.2603 318.503 76.2313C318.716 76.2013 318.912 76.3533 318.941 76.5653C320.019 84.6223 319.469 93.0283 317.349 100.875C317.301 101.05 317.144 101.164 316.972 101.164Z" fill="#44182C"/>
<path d="M333.252 87.0692C336.053 83.4952 337.802 79.1062 338.228 74.5842C338.23 74.5642 338.249 74.5522 338.268 74.5582C342.657 75.9822 347.889 74.1752 350.462 70.3442C350.471 70.3302 350.489 70.3262 350.503 70.3342C354.896 72.8362 359.211 75.3211 364.325 74.5011C364.351 74.4971 364.512 74.6472 364.499 74.6702C362.649 77.9412 361.499 80.9012 361.354 84.6602C361.353 84.6762 361.341 84.6892 361.325 84.6902C355.538 85.1072 351.662 88.3771 348.999 92.1241C348.989 92.1381 348.97 92.1412 348.955 92.1312C343.468 88.4322 339.879 86.9502 333.252 87.0692Z" fill="#A7CBCC"/>
<path d="M324.226 91.7367C324.086 91.7367 323.952 91.6617 323.882 91.5297C323.781 91.3397 323.853 91.1037 324.043 91.0037C331.551 87.0227 339.498 83.8147 347.666 81.4677L359.091 77.4717C359.294 77.3997 359.516 77.5067 359.587 77.7107C359.658 77.9137 359.551 78.1357 359.348 78.2067L347.902 82.2096C339.765 84.5486 331.868 87.7367 324.408 91.6917C324.349 91.7227 324.287 91.7367 324.226 91.7367Z" fill="#44182C"/>
<path d="M54.5938 86.6953H54.1241V101.222H54.5938V86.6953Z" fill="#44182C"/>
<path d="M23.3421 96.6093L26.0662 91.0203L24.5398 91.8939L28.6399 84.3228L28.7527 84.1115L32.0075 78.1044L32.1437 77.8508L35.6803 71.3177L37.6106 67.3491H31.3358L34.2666 61.2856L32.5335 62.3142L36.1781 55.6825L36.2908 55.4759L38.2634 51.8876L38.4043 51.6293L42.8051 43.6215L44.1061 40.9256L44.0873 40.9303L45.2474 38.5725H38.6908L40.5413 35.1675L39.4094 35.7733L46.0928 24.9616L47.1965 22.9279L47.3139 22.7119L53.5605 11.2285L55.7163 15.1502L55.5989 14.906L63.0947 27.0798L62.0568 26.6806L64.2454 30.6634L64.3816 30.9123L68.4489 38.3142L68.5617 38.5209L68.5899 38.5725H62.0333L63.8274 41.7851L63.9401 41.9917L73.8642 59.7545L72.0278 59.252L73.8736 63.0704L73.9863 63.3005L75.2309 65.8696L75.3296 66.081L75.9448 67.3491H70.4685L70.5108 67.4289H70.6705L70.5155 67.4383L70.8489 68.0958L70.957 68.3025L71.7554 69.8759L83.4642 89.832L83.591 90.0481L83.7789 90.3722L83.0885 90.1185C83.0885 90.1185 83.0838 90.1185 83.0791 90.1185L82.6188 89.9448L81.8345 89.6535L82.0223 90.0199L82.1351 90.2406L85.3805 96.6093H23.3421Z" fill="#26575E"/>
<path d="M64.3817 30.9143C57.9566 30.4211 51.7006 27.5374 47.1965 22.9299L47.314 22.7139C51.7476 27.279 57.9096 30.144 64.2455 30.6653L64.3817 30.9143Z" fill="#F7F0E7"/>
<path d="M63.9401 41.9928C56.2799 47.192 47.4454 50.6112 38.2634 51.8887L38.4043 51.6304C47.4971 50.3388 56.2423 46.9384 63.8274 41.7861L63.9401 41.9928Z" fill="#F7F0E7"/>
<path d="M61.3804 62.4333C51.2403 60.8881 43.1151 58.7135 36.1781 55.6842L36.2908 55.4775C43.2043 58.4975 51.3061 60.658 61.418 62.2032C65.5088 62.8278 69.7405 63.3069 73.8736 63.0721L73.9863 63.3022C69.7969 63.5511 65.5135 63.0674 61.3804 62.4333Z" fill="#F7F0E7"/>
<path d="M75.3296 66.0824C74.5499 66.5286 73.7609 66.9466 72.9624 67.3505C72.3002 67.6793 71.6333 67.9987 70.957 68.304C63.8086 71.5588 56.1155 73.3576 48.1311 75.2269C42.9507 76.4386 37.5073 77.5752 32.0074 78.1059L32.1437 77.8523C37.5777 77.3216 42.9554 76.1944 48.0748 74.9967C56.045 73.1321 63.7194 71.338 70.8489 68.0973C71.3844 67.8578 71.9104 67.6089 72.4364 67.3505C73.3804 66.8856 74.3104 66.3971 75.2309 65.8711L75.3296 66.0824Z" fill="#F7F0E7"/>
<path d="M83.591 90.0489C83.422 90.0724 83.2576 90.0959 83.0885 90.1194C83.0885 90.1194 83.0838 90.1194 83.0791 90.1194C82.7644 90.1616 82.4497 90.2039 82.1351 90.2415C77.4149 90.8332 72.6525 91.1244 67.8901 91.1244C54.5421 91.1244 41.1754 88.8278 28.64 84.3237L28.7527 84.1123C45.6936 90.1992 64.1515 92.2329 82.0223 90.0207C82.2196 89.9972 82.4216 89.9691 82.6188 89.9456C82.9006 89.908 83.1824 89.8704 83.4642 89.8328L83.591 90.0489Z" fill="#F7F0E7"/>
<path d="M45.2474 38.5723H62.0333L44.4476 40.0893L45.2474 38.5723Z" fill="#44182C"/>
<path d="M37.6529 67.3525L70.7489 67.3506L36.853 68.8695L37.6529 67.3525Z" fill="#44182C"/>
<path d="M59.6366 20.543C59.6366 22.0662 58.4018 23.3009 56.8787 23.3009C55.3555 23.3009 54.1208 22.0662 54.1208 20.543C54.1208 19.0199 55.3555 17.7852 56.8787 17.7852C58.4018 17.7847 59.6366 19.0199 59.6366 20.543Z" fill="#FFC97D"/>
<path d="M68.99 53.6397C68.99 55.1629 67.7553 56.3976 66.2321 56.3976C64.709 56.3976 63.4742 55.1629 63.4742 53.6397C63.4742 52.1166 64.709 50.8818 66.2321 50.8818C67.7553 50.8818 68.99 52.1166 68.99 53.6397Z" fill="#FFC97D"/>
<path d="M43.2081 80.7413C43.2081 82.2644 41.9733 83.4992 40.4502 83.4992C38.9271 83.4992 37.6923 82.2644 37.6923 80.7413C37.6923 79.2182 38.9271 77.9834 40.4502 77.9834C41.9733 77.9834 43.2081 79.2182 43.2081 80.7413Z" fill="#FFC97D"/>
<path d="M58.5573 41.2882C58.5573 42.8113 57.3225 44.0461 55.7994 44.0461C54.2763 44.0461 53.0415 42.8113 53.0415 41.2882C53.0415 39.765 54.2763 38.5303 55.7994 38.5303C57.3225 38.5303 58.5573 39.765 58.5573 41.2882Z" fill="#F56A58"/>
<path d="M60.5961 72.8263C60.5961 74.3494 59.3613 75.5841 57.8382 75.5841C56.3151 75.5841 55.0803 74.3494 55.0803 72.8263C55.0803 71.3031 56.3151 70.0684 57.8382 70.0684C59.3613 70.0684 60.5961 71.3031 60.5961 72.8263Z" fill="#F56A58"/>
<path d="M49.364 30.5763C49.364 32.0994 48.1293 33.3341 46.6062 33.3341C45.083 33.3341 43.8483 32.0994 43.8483 30.5763C43.8483 29.0531 45.083 27.8184 46.6062 27.8184C48.1293 27.8184 49.364 29.0531 49.364 30.5763Z" fill="#FE99BF"/>
<path d="M44.2075 61.6339C44.2075 63.157 42.9728 64.3918 41.4497 64.3918C39.9265 64.3918 38.6918 63.157 38.6918 61.6339C38.6918 60.1107 39.9265 58.876 41.4497 58.876C42.9728 58.876 44.2075 60.1107 44.2075 61.6339Z" fill="#FE99BF"/>
<path d="M77.6037 90.7139C77.6037 92.2371 76.369 93.4718 74.8458 93.4718C73.3227 93.4718 72.088 92.2371 72.088 90.7139C72.088 89.1908 73.3227 87.9561 74.8458 87.9561C76.369 87.9561 77.6037 89.1908 77.6037 90.7139Z" fill="#FE99BF"/>
<path d="M89.7756 58.1653C89.699 58.1653 89.63 58.1127 89.6121 58.0352C87.6217 49.2304 84.312 40.8083 79.7736 33.0043C79.7271 32.924 79.7543 32.8216 79.8341 32.7751C79.9145 32.7296 80.0168 32.7563 80.0633 32.8357C84.6182 40.6697 87.9411 49.1233 89.939 57.961C89.9592 58.0512 89.9029 58.1414 89.8122 58.1616C89.8005 58.1644 89.7883 58.1653 89.7756 58.1653Z" fill="#44182C"/>
<path d="M76.8462 31.8773C77.1956 32.912 78.3181 33.4671 79.3528 33.1177C80.3875 32.7678 80.9426 31.6457 80.5932 30.6115C80.2437 29.5768 79.1212 29.0217 78.0866 29.3711C77.0519 29.7206 76.4967 30.8426 76.8462 31.8773Z" fill="#F7F0E7"/>
<path d="M80.9914 33.9281C81.3409 34.9627 82.4634 35.5179 83.498 35.1684C84.5327 34.819 85.0879 33.6965 84.7384 32.6623C84.3885 31.6276 83.2665 31.0725 82.2318 31.4219C81.1971 31.7713 80.6415 32.8938 80.9914 33.9281Z" fill="#F7F0E7"/>
<path d="M78.4327 37.5228C78.7826 38.5575 79.9046 39.1126 80.9393 38.7632C81.974 38.4137 82.5291 37.2912 82.1797 36.257C81.8303 35.2223 80.7078 34.6672 79.6736 35.0166C78.6384 35.3661 78.0833 36.4881 78.4327 37.5228Z" fill="#F7F0E7"/>
<path d="M89.8555 40.9287C90.4257 39.7447 90.8972 38.5132 91.2635 37.2512C91.6867 35.7934 91.9713 34.2655 91.7877 32.7588C91.6839 31.9045 91.2969 30.9347 90.4599 30.7355C89.8334 30.5862 89.1745 30.9567 88.7964 31.4781C88.4178 31.9994 88.2624 32.6452 88.1248 33.2741C87.6246 35.5571 87.2474 37.8669 86.9952 40.1904C86.75 42.45 86.386 44.9711 86.6406 47.2326C87.292 46.4215 87.6321 45.1017 88.1346 44.1624C88.7109 43.0859 89.3257 42.0296 89.8555 40.9287Z" fill="#44182C"/>
<path d="M83.4534 44.898C82.624 43.8783 81.71 42.9282 80.7237 42.0598C79.5843 41.0565 78.3223 40.1501 76.8804 39.6748C76.0632 39.4057 75.0206 39.3437 74.4842 40.0162C74.0826 40.5197 74.138 41.2735 74.449 41.8376C74.7599 42.4017 75.2784 42.8169 75.7889 43.2095C77.6422 44.6331 79.573 45.9566 81.5687 47.173C83.5098 48.3561 85.6364 49.7571 87.7917 50.4889C87.3348 49.5542 86.285 48.6853 85.6482 47.831C84.9193 46.8513 84.2246 45.8457 83.4534 44.898Z" fill="#44182C"/>
<path d="M17.3106 69.117C17.2984 69.117 17.2857 69.1156 17.2735 69.1127C17.1833 69.0925 17.1265 69.0028 17.1467 68.9122C19.1447 60.074 22.4676 51.6205 27.0219 43.7869C27.0684 43.7075 27.1718 43.6807 27.2511 43.7263C27.331 43.7732 27.3582 43.8752 27.3117 43.9555C22.7738 51.759 19.4636 60.1811 17.4736 68.9864C17.4562 69.0639 17.3872 69.117 17.3106 69.117Z" fill="#44182C"/>
<path d="M30.2401 42.8284C29.8907 43.8631 28.7681 44.4183 27.7335 44.0688C26.6988 43.7194 26.1436 42.5969 26.4931 41.5627C26.8425 40.528 27.965 39.9729 28.9997 40.3223C30.0344 40.6717 30.59 41.7942 30.2401 42.8284Z" fill="#F7F0E7"/>
<path d="M26.0952 44.8792C25.7453 45.9139 24.6233 46.469 23.5886 46.1196C22.554 45.7702 21.9988 44.6477 22.3482 43.6135C22.6977 42.5788 23.8202 42.0237 24.8549 42.3731C25.8895 42.723 26.4447 43.845 26.0952 44.8792Z" fill="#F7F0E7"/>
<path d="M28.6535 48.4735C28.3041 49.5081 27.1816 50.0633 26.1469 49.7138C25.1122 49.3639 24.5571 48.2419 24.9065 47.2072C25.256 46.1725 26.3785 45.6174 27.4127 45.9668C28.4478 46.3167 29.003 47.4388 28.6535 48.4735Z" fill="#F7F0E7"/>
<path d="M17.2308 51.8799C16.6606 50.6958 16.1891 49.4644 15.8227 48.2024C15.3995 46.7445 15.1149 45.2167 15.2986 43.71C15.4024 42.8557 15.7894 41.8858 16.6263 41.6867C17.2528 41.5373 17.9113 41.9079 18.2899 42.4292C18.6684 42.9506 18.8239 43.5964 18.9615 44.2252C19.4617 46.5083 19.8388 48.8181 20.091 51.1416C20.3362 53.4011 20.7002 55.9223 20.4456 58.1838C19.7942 57.3726 19.4542 56.0529 18.9516 55.1135C18.3754 54.0371 17.761 52.9803 17.2308 51.8799Z" fill="#44182C"/>
<path d="M23.6328 55.8501C24.4622 54.8305 25.3762 53.8803 26.3625 53.0119C27.5019 52.0087 28.7639 51.1022 30.2058 50.6269C31.023 50.3578 32.0657 50.2958 32.602 50.9684C33.0036 51.4719 32.9482 52.2257 32.6373 52.7898C32.3264 53.3538 31.8078 53.769 31.2973 54.1616C29.4435 55.5852 27.5132 56.9087 25.5176 58.1252C23.5765 59.3083 21.4498 60.7093 19.2945 61.4406C19.7515 60.5059 20.8012 59.637 21.4381 58.7827C22.1674 57.8039 22.8621 56.7979 23.6328 55.8501Z" fill="#44182C"/>
<path d="M89.087 75.2807C88.2961 73.2997 86.9265 71.5539 85.1906 70.3145C85.1831 70.3093 85.1827 70.2985 85.1892 70.2924C86.803 68.8458 87.3032 66.295 86.3545 64.3459C86.3512 64.3389 86.3535 64.3309 86.3606 64.3271C88.413 63.1332 89.9507 62.1183 90.8238 59.8484C90.8281 59.8371 90.8431 59.8352 90.8492 59.846C91.7411 61.3692 93.2459 62.3545 94.7385 63.3004C94.7451 63.3047 94.747 63.3127 94.7437 63.3192C93.5474 65.7676 93.9612 68.1131 94.8555 70.0787C94.8587 70.0862 94.8555 70.0947 94.8479 70.0979C92.0501 71.4534 90.6021 72.5614 89.087 75.2807Z" fill="#FFC97D"/>
<path d="M84.9878 84.3271C83.2988 83.0247 81.2309 82.2197 79.1057 82.0366C79.0963 82.0356 79.0906 82.0272 79.0934 82.0182C79.7458 79.9517 78.8779 77.5015 77.0692 76.3071C77.0626 76.3029 77.0607 76.2944 77.0645 76.2878C78.2231 74.2152 79.03 72.5591 78.6257 70.1605C78.6238 70.1483 78.6355 70.1394 78.6463 70.1455C80.1896 71.0022 81.9861 71.0844 83.7525 71.1389C83.7601 71.1389 83.7662 71.145 83.7666 71.1525C83.9836 73.869 85.534 75.6768 87.3042 76.9134C87.3107 76.9181 87.3121 76.927 87.3079 76.9341C85.5894 79.5243 84.907 81.2151 84.9878 84.3271Z" fill="#FFC97D"/>
<path d="M83.4604 92.4086C83.4341 92.4086 83.4073 92.4025 83.382 92.3907C83.2909 92.3471 83.2523 92.2381 83.2955 92.147C87.4206 83.4816 89.9301 73.8403 90.5524 64.2642C90.5594 64.1632 90.6505 64.0947 90.7468 64.0938C90.8473 64.1003 90.9239 64.1872 90.9173 64.2882C90.2917 73.9093 87.7701 83.5972 83.6257 92.3038C83.5943 92.3701 83.529 92.4086 83.4604 92.4086Z" fill="#44182C"/>
<path d="M85.2466 88.1985C85.1465 88.1985 85.0648 88.1182 85.0639 88.0177C85.0145 84.2486 84.194 80.4288 82.6916 76.9716C82.6512 76.8791 82.6935 76.771 82.7864 76.7307C82.879 76.6912 82.9865 76.733 83.0269 76.8255C84.5486 80.3269 85.3795 84.1951 85.4297 88.0125C85.4311 88.1135 85.3504 88.1967 85.2494 88.1981C85.2484 88.1985 85.2475 88.1985 85.2466 88.1985Z" fill="#44182C"/>
<path d="M97 70.0848V79.5392C95.018 79.032 93.4446 79.0038 91.2607 79.6144C91.1245 79.6472 90.9836 79.6895 90.8427 79.7318C90.8943 79.6097 90.9413 79.4876 90.9789 79.3654C91.674 77.4868 91.8524 75.4202 91.4861 73.4523C91.4861 73.4429 91.4908 73.4382 91.5002 73.4382C93.6654 73.5181 95.7976 72.0292 96.4693 69.9674C96.4693 69.958 96.4787 69.958 96.4881 69.958C96.6571 70.0003 96.8309 70.0425 97 70.0848Z" fill="#FFC97D"/>
<path d="M97 75.0918V75.538L96.8356 75.6554C94.9006 76.8624 93.036 78.1822 91.2607 79.6147C90.8427 79.9388 90.4341 80.2769 90.0255 80.6292C89.5041 81.066 88.9875 81.5215 88.4849 81.9818C88.128 82.3012 87.7804 82.63 87.4376 82.9587C87.4047 82.9916 87.3624 83.0057 87.3202 83.0104C87.3155 83.0104 87.3155 83.0104 87.3108 83.0104C87.2638 83.0104 87.2168 82.9916 87.1793 82.954C87.1088 82.8789 87.1135 82.7615 87.184 82.6957C87.292 82.5924 87.4047 82.4844 87.5127 82.3857C88.6258 81.3337 89.7812 80.3239 90.9789 79.3658C92.7824 77.9145 94.6752 76.5759 96.6337 75.3501L97 75.0918Z" fill="#44182C"/>
<path d="M93.2511 86.3524C91.7646 87.411 89.7014 87.0644 88.6423 85.5774C87.5836 84.0909 87.9303 82.0277 89.4172 80.9686C90.9037 79.9099 92.967 80.2566 94.0261 81.7435C95.0847 83.23 94.7376 85.2937 93.2511 86.3524Z" fill="#F56A58"/>
<path d="M94.1825 84.0754C93.9946 84.1327 93.7062 83.7363 93.539 83.1892C93.3718 82.642 93.3882 82.1521 93.5766 82.0944C93.7645 82.0371 94.0528 82.4339 94.22 82.9806C94.3872 83.5278 94.3703 84.0177 94.1825 84.0754Z" fill="#44182C"/>
<path d="M86.2521 83.2202C87.0726 84.8504 86.416 86.8371 84.7858 87.6576C83.1556 88.4781 81.1689 87.8215 80.3484 86.1913C79.5279 84.5611 80.1845 82.5744 81.8147 81.7539C83.4449 80.9334 85.4316 81.59 86.2521 83.2202Z" fill="#F56A58"/>
<path d="M84.1429 81.9543C84.171 82.1488 83.7352 82.3733 83.1688 82.4559C82.6024 82.5381 82.1209 82.447 82.0923 82.2525C82.0641 82.0581 82.5 81.8336 83.0664 81.7509C83.6328 81.6688 84.1147 81.7599 84.1429 81.9543Z" fill="#44182C"/>
<path d="M23.6291 87.9897C24.4195 86.0087 25.7895 84.2629 27.5254 83.0234C27.5329 83.0178 27.5334 83.0075 27.5268 83.0014C25.9131 81.5548 25.4129 79.004 26.3616 77.0549C26.3649 77.0479 26.3625 77.0399 26.3555 77.0361C24.303 75.8422 22.7653 74.8273 21.8922 72.5574C21.888 72.5461 21.873 72.5442 21.8669 72.555C20.975 74.0782 19.4702 75.0635 17.9776 76.0094C17.971 76.0137 17.9691 76.0216 17.9724 76.0282C19.1686 78.4766 18.7549 80.8221 17.8611 82.7877C17.8578 82.7952 17.8611 82.8036 17.8681 82.8074C20.6659 84.1624 22.1139 85.2703 23.6291 87.9897Z" fill="#FFC97D"/>
<path d="M27.7283 97.0371C29.4172 95.7347 31.4852 94.9297 33.6104 94.7465C33.6198 94.7456 33.6254 94.7371 33.6226 94.7282C32.9703 92.6612 33.8382 90.2114 35.6469 89.017C35.6535 89.0128 35.6553 89.0044 35.6516 88.9978C34.4929 86.9252 33.686 85.2691 34.0899 82.8705C34.0918 82.8583 34.0801 82.8494 34.0693 82.8555C32.5264 83.7122 30.7295 83.7943 28.9631 83.8488C28.9555 83.8493 28.9494 83.8549 28.949 83.8625C28.732 86.579 27.1816 88.3868 25.4114 89.6234C25.4049 89.6281 25.4035 89.637 25.4077 89.6441C27.1267 92.2343 27.8091 93.9251 27.7283 97.0371Z" fill="#FFC97D"/>
<path d="M27.8086 101.223H27.4141C27.0008 100.218 26.6109 99.2078 26.2399 98.1839C25.944 97.3667 25.6622 96.5448 25.3945 95.7182C25.3287 95.5068 25.263 95.3002 25.1925 95.0888C25.1221 94.8587 25.0516 94.6239 24.9812 94.3937C24.2626 92.0313 23.6567 89.6313 23.1683 87.2125C22.4779 83.8309 22.0176 80.4117 21.7968 76.9973C21.7921 76.8986 21.8673 76.8094 21.9706 76.8047C22.0692 76.8047 22.1585 76.8751 22.1632 76.9738C22.398 80.6184 22.91 84.2677 23.6802 87.87C24.1076 89.8896 24.6195 91.8951 25.2066 93.8724C25.6716 95.4223 26.1788 96.9534 26.733 98.4657C26.9209 98.973 27.1088 99.4755 27.306 99.9734C27.4141 100.25 27.5221 100.523 27.6348 100.8C27.6912 100.941 27.7475 101.082 27.8086 101.223Z" fill="#44182C"/>
<path d="M27.4695 100.908C27.4695 100.908 27.4681 100.908 27.4672 100.908C27.3662 100.907 27.2854 100.824 27.2868 100.723C27.3366 96.9057 28.167 93.0376 29.6892 89.5362C29.7296 89.4441 29.8371 89.4023 29.9296 89.4413C30.0222 89.4817 30.0649 89.5893 30.0245 89.6823C28.522 93.1395 27.7015 96.9588 27.6522 100.728C27.6513 100.828 27.5696 100.908 27.4695 100.908Z" fill="#44182C"/>
<path d="M21.872 92.4435C21.7311 92.4012 21.5949 92.359 21.4587 92.3261C21.407 92.3073 21.3554 92.2932 21.3037 92.2838C20.6462 92.1053 20.045 91.9832 19.4673 91.9222C19.0164 91.8705 18.5796 91.8564 18.1476 91.8705C16.8982 91.9081 15.6724 92.204 14.1319 92.7112C14.1225 92.7159 14.1131 92.7112 14.1131 92.7065C13.8407 91.9363 13.4791 91.1754 13 90.4756V83.2991C14.0661 83.2004 15.1464 82.9327 16.2313 82.665C16.236 82.665 16.2454 82.6697 16.2454 82.6744C16.917 84.7363 19.0493 86.2251 21.2145 86.1453C21.2239 86.1453 21.2333 86.1547 21.2286 86.1641C20.8951 87.9817 21.0219 89.8791 21.5855 91.6404C21.6278 91.7907 21.6795 91.9363 21.7358 92.0772C21.7781 92.1993 21.8251 92.3214 21.872 92.4435Z" fill="#FFC97D"/>
<path d="M25.5354 95.6617C25.4978 95.6992 25.4509 95.718 25.4039 95.718C25.3992 95.718 25.3992 95.718 25.3945 95.718C25.3523 95.7133 25.31 95.6992 25.2771 95.6664C25.1221 95.5208 24.9671 95.3705 24.8121 95.2343C24.3096 94.7552 23.7977 94.2949 23.281 93.8487C22.6845 93.3227 22.0787 92.8155 21.4587 92.327C21.4305 92.2988 21.4023 92.2754 21.3742 92.2566C21.1205 92.0499 20.8622 91.848 20.6039 91.646C20.4348 91.5192 20.2658 91.3877 20.0967 91.2609C18.7393 90.237 17.3303 89.2695 15.8885 88.3724L13 86.3388V85.8926L16.0904 88.0671C17.7202 89.0816 19.2982 90.1759 20.82 91.3501C21.1299 91.5896 21.4352 91.8292 21.7358 92.0781C22.1773 92.4256 22.6094 92.7873 23.0415 93.1583C23.6614 93.6844 24.272 94.2292 24.8732 94.7881C24.9812 94.882 25.0845 94.9806 25.1926 95.0887C25.3053 95.1873 25.418 95.2953 25.5307 95.4033C25.6012 95.4738 25.6059 95.5865 25.5354 95.6617Z" fill="#44182C"/>
<path d="M29.3298 98.5294C27.6343 99.2043 25.7125 98.3767 25.0376 96.6807C24.3626 94.9852 25.1902 93.0634 26.8862 92.3885C28.5817 91.7135 30.5035 92.5411 31.1785 94.2366C31.8529 95.933 31.0253 97.8549 29.3298 98.5294Z" fill="#F56A58"/>
<path d="M30.7755 96.5403C30.5792 96.5516 30.3937 96.0974 30.3612 95.5263C30.3288 94.9552 30.4618 94.4832 30.6581 94.4719C30.8544 94.4606 31.0399 94.9148 31.0723 95.4859C31.1047 96.057 30.9718 96.529 30.7755 96.5403Z" fill="#44182C"/>
<path d="M23.2754 93.8246C23.6844 95.6033 22.5746 97.3767 20.796 97.7863C19.0174 98.1954 17.2439 97.0855 16.8343 95.3069C16.4253 93.5283 17.5351 91.7548 19.3137 91.3457C21.0924 90.9362 22.8663 92.0465 23.2754 93.8246Z" fill="#F56A58"/>
<path d="M21.5282 92.0942C21.5094 92.2901 21.0327 92.4042 20.463 92.3497C19.8933 92.2948 19.4471 92.0919 19.4659 91.896C19.4847 91.7002 19.9619 91.5861 20.5311 91.6405C21.1003 91.6955 21.547 91.8984 21.5282 92.0942Z" fill="#44182C"/>
<path d="M71.3482 28.0375C75.9178 28.0375 79.6223 24.3331 79.6223 19.7634C79.6223 15.1937 75.9178 11.4893 71.3482 11.4893C66.7785 11.4893 63.074 15.1937 63.074 19.7634C63.074 24.3331 66.7785 28.0375 71.3482 28.0375Z" fill="#BC606D"/>
<path d="M73.7312 10.9928L73.3837 9.0047L68.9002 9C68.7166 9.82286 68.5344 10.6405 68.3249 11.4573C68.2389 11.7922 68.16 12.1322 68.1182 12.4755C68.099 12.6343 68.0304 12.9889 68.1845 13.1091C68.5043 13.3585 69.7156 12.0787 69.7156 12.0787C69.7156 12.0787 69.3229 13.4839 69.8743 13.6445C70.4257 13.8052 71.1034 12.2224 71.1034 12.2224C71.1034 12.2224 70.9419 13.7878 71.76 13.8066C72.5787 13.8254 72.7224 12.2595 72.7224 12.2595C72.7224 12.2595 73.4504 13.8972 73.9665 13.7197C74.4226 13.5633 73.8665 11.4756 73.7312 10.9928Z" fill="#FFC97D"/>
<path d="M68.9003 8.99805C68.9003 8.99805 69.5874 9.71054 71.0467 9.66451C72.5054 9.61848 73.3842 9.00275 73.3842 9.00275L68.9003 8.99805Z" fill="#44182C"/>
<path d="M72.3518 8.00039C72.3424 8.42309 72.1123 8.78943 71.7694 9.00547H71.76C71.5722 9.1135 71.3561 9.18395 71.126 9.18395C70.8911 9.18395 70.6704 9.1135 70.4872 9.00547L70.4825 9.00079C70.1303 8.78004 69.8954 8.39491 69.8954 7.95342C69.8954 7.62466 70.027 7.32407 70.2383 7.10333C70.1444 7.07045 70.0551 7.03288 69.9612 7C69.7452 7.25832 69.6183 7.59178 69.6183 7.95342C69.6183 8.35734 69.7827 8.72838 70.0457 9.00079C70.1209 9.08063 70.2101 9.15107 70.3088 9.21213C70.5389 9.37182 70.8207 9.46105 71.1213 9.46105C71.4266 9.46105 71.7084 9.37182 71.9432 9.21683C72.0371 9.15577 72.1311 9.08062 72.2062 9.00547C72.4363 8.77064 72.5913 8.46536 72.6242 8.1272C72.6242 8.1225 72.6242 8.1225 72.6242 8.1225C72.535 8.08023 72.441 8.03797 72.3518 8.00039Z" fill="#FFC97D"/>
<path d="M36.8479 32.5835C37.574 28.0719 34.5053 23.8258 29.9936 23.0997C25.482 22.3736 21.2359 25.4424 20.5098 29.954C19.7837 34.4656 22.8525 38.7117 27.3641 39.4378C31.8758 40.1639 36.1218 37.0952 36.8479 32.5835Z" fill="#F56A58"/>
<path d="M31.0616 22.5035L30.714 20.5154L26.2306 20.5107C26.0469 21.3336 25.8647 22.1513 25.6552 22.968C25.5693 23.3029 25.4904 23.643 25.4486 23.9868C25.4293 24.1455 25.3607 24.5001 25.5148 24.6203C25.8346 24.8697 27.0459 23.5899 27.0459 23.5899C27.0459 23.5899 26.6533 24.9951 27.2047 25.1557C27.756 25.3164 28.4338 23.7336 28.4338 23.7336C28.4338 23.7336 28.2722 25.299 29.0904 25.3178C29.909 25.3366 30.0527 23.7707 30.0527 23.7707C30.0527 23.7707 30.7807 25.4084 31.2969 25.2309C31.7529 25.074 31.1968 22.9859 31.0616 22.5035Z" fill="#FFC97D"/>
<path d="M26.2305 20.5107C26.2305 20.5107 26.9177 21.2232 28.3769 21.1772C29.8357 21.1312 30.714 20.5154 30.714 20.5154L26.2305 20.5107Z" fill="#44182C"/>
<path d="M28.5742 17.9625C28.5319 17.9578 28.4944 17.9578 28.4568 17.9531H28.4521C28.4098 17.9531 28.3676 17.9578 28.33 17.9578C28.2877 17.9625 28.2407 17.9672 28.1985 17.9766C27.4893 18.1034 26.9492 18.7187 26.9492 19.4655C26.9492 19.8694 27.1135 20.2404 27.3766 20.5128C27.4517 20.5926 27.5409 20.6631 27.6349 20.7242C27.8697 20.8838 28.1515 20.9731 28.4521 20.9731C28.7574 20.9778 29.0392 20.8838 29.274 20.7288C29.3679 20.6678 29.4619 20.5927 29.537 20.5175C29.8 20.2451 29.9691 19.8741 29.9644 19.4655C29.9691 18.6717 29.3492 18.0189 28.5742 17.9625ZM29.1002 20.5175H29.0908C28.903 20.6302 28.6869 20.696 28.4568 20.696C28.222 20.696 28.0012 20.6255 27.818 20.5175L27.8133 20.5128C27.4564 20.2921 27.2263 19.9069 27.2263 19.4655C27.2263 18.7844 27.7805 18.2349 28.4521 18.2349C29.1331 18.2349 29.692 18.7891 29.6873 19.4701C29.6873 19.9116 29.4525 20.2921 29.1002 20.5175Z" fill="#FFC97D"/>
<path d="M28.5742 13.6172V17.9522H28.3394V13.8051C28.4145 13.744 28.4943 13.6782 28.5742 13.6172Z" fill="#FFC97D"/>
<path d="M44.014 18.237C43.9718 18.237 43.929 18.2211 43.8966 18.1882L39.3272 13.6188C39.2624 13.554 39.2624 13.4497 39.3272 13.3849C39.3921 13.3196 39.4968 13.3196 39.5616 13.3849L44.131 17.9538C44.1958 18.0186 44.1958 18.1229 44.131 18.1877C44.0991 18.2211 44.0563 18.237 44.014 18.237Z" fill="#F7F0E7"/>
<path d="M41.7291 19.1829C41.6375 19.1829 41.5633 19.1091 41.5633 19.0171V12.5545C41.5633 12.4629 41.6375 12.3887 41.7291 12.3887C41.8207 12.3887 41.8949 12.4624 41.8949 12.5545V19.0171C41.8949 19.1091 41.8207 19.1829 41.7291 19.1829Z" fill="#F7F0E7"/>
<path d="M39.4447 18.2375C39.4024 18.2375 39.3596 18.2216 39.3272 18.1887C39.2624 18.1239 39.2624 18.0196 39.3272 17.9548L43.8966 13.3859C43.9614 13.3206 44.0662 13.3206 44.131 13.3859C44.1958 13.4507 44.1958 13.555 44.131 13.6198L39.5616 18.1892C39.5292 18.2216 39.4869 18.2375 39.4447 18.2375Z" fill="#F7F0E7"/>
<path d="M44.9604 15.9527H38.4982C38.4067 15.9527 38.3325 15.8789 38.3325 15.7869C38.3325 15.6953 38.4067 15.6211 38.4982 15.6211H44.9604C45.052 15.6211 45.1262 15.6948 45.1262 15.7869C45.1262 15.8785 45.052 15.9527 44.9604 15.9527Z" fill="#F7F0E7"/>
<path d="M79.8285 55.9704C79.7862 55.9704 79.7435 55.9545 79.7116 55.9216L75.1417 51.3522C75.0769 51.2874 75.0769 51.1831 75.1417 51.1183C75.2065 51.053 75.3112 51.053 75.376 51.1183L79.9459 55.6877C80.0107 55.7525 80.0107 55.8568 79.9459 55.9216C79.9135 55.954 79.8712 55.9704 79.8285 55.9704Z" fill="#F7F0E7"/>
<path d="M77.544 56.9163C77.4524 56.9163 77.3782 56.8425 77.3782 56.7505V50.2879C77.3782 50.1963 77.4524 50.1221 77.544 50.1221C77.6356 50.1221 77.7098 50.1958 77.7098 50.2879V56.7505C77.7098 56.8425 77.6356 56.9163 77.544 56.9163Z" fill="#F7F0E7"/>
<path d="M75.2591 55.9704C75.2168 55.9704 75.1741 55.9545 75.1417 55.9216C75.0769 55.8568 75.0769 55.7525 75.1417 55.6877L79.7116 51.1183C79.7764 51.053 79.8811 51.053 79.9459 51.1183C80.0107 51.1831 80.0107 51.2874 79.9459 51.3522L75.376 55.9216C75.3441 55.954 75.3014 55.9704 75.2591 55.9704Z" fill="#F7F0E7"/>
<path d="M80.7753 53.6856H74.3132C74.2216 53.6856 74.1474 53.6119 74.1474 53.5203C74.1474 53.4287 74.2216 53.3545 74.3132 53.3545H80.7753C80.8669 53.3545 80.9411 53.4282 80.9411 53.5203C80.9411 53.6119 80.8665 53.6856 80.7753 53.6856Z" fill="#F7F0E7"/>
<path d="M92.1399 95.6228C92.0976 95.6228 92.0549 95.6068 92.0225 95.5739L87.4531 91.0045C87.3883 90.9397 87.3883 90.8355 87.4531 90.7706C87.5179 90.7054 87.6226 90.7054 87.6875 90.7706L92.2573 95.34C92.3221 95.4049 92.3221 95.5091 92.2573 95.5739C92.2249 95.6068 92.1826 95.6228 92.1399 95.6228Z" fill="#F7F0E7"/>
<path d="M89.8554 96.5682C89.7638 96.5682 89.6896 96.4944 89.6896 96.4024V89.9402C89.6896 89.8486 89.7638 89.7744 89.8554 89.7744C89.947 89.7744 90.0212 89.8482 90.0212 89.9402V96.4024C90.0212 96.4944 89.9465 96.5682 89.8554 96.5682Z" fill="#F7F0E7"/>
<path d="M87.5705 95.6228C87.5282 95.6228 87.4855 95.6068 87.4535 95.5739C87.3887 95.5091 87.3887 95.4049 87.4535 95.34L92.0229 90.7706C92.0877 90.7054 92.1925 90.7054 92.2573 90.7706C92.3221 90.8355 92.3221 90.9397 92.2573 91.0045L87.6874 95.5739C87.6555 95.6068 87.6127 95.6228 87.5705 95.6228Z" fill="#F7F0E7"/>
<path d="M93.0863 93.3375H86.6241C86.5325 93.3375 86.4583 93.2637 86.4583 93.1717C86.4583 93.0801 86.5325 93.0059 86.6241 93.0059H93.0863C93.1778 93.0059 93.252 93.0796 93.252 93.1717C93.252 93.2637 93.1778 93.3375 93.0863 93.3375Z" fill="#F7F0E7"/>
<path d="M28.5051 71.4792C28.4628 71.4792 28.4201 71.4632 28.3881 71.4304L23.8188 66.861C23.7539 66.7962 23.7539 66.6919 23.8188 66.6271C23.8836 66.5618 23.9883 66.5618 24.0531 66.6271L28.6225 71.1965C28.6873 71.2613 28.6873 71.3656 28.6225 71.4304C28.5896 71.4632 28.5474 71.4792 28.5051 71.4792Z" fill="#F7F0E7"/>
<path d="M26.2202 72.4256C26.1286 72.4256 26.0544 72.3518 26.0544 72.2598V65.7976C26.0544 65.706 26.1286 65.6318 26.2202 65.6318C26.3118 65.6318 26.386 65.7056 26.386 65.7976V72.2598C26.386 72.3518 26.3118 72.4256 26.2202 72.4256Z" fill="#F7F0E7"/>
<path d="M23.9357 71.4792C23.8934 71.4792 23.8507 71.4632 23.8183 71.4304C23.7534 71.3656 23.7534 71.2613 23.8183 71.1965L28.3877 66.6271C28.4525 66.5618 28.5572 66.5618 28.622 66.6271C28.6868 66.6919 28.6868 66.7962 28.622 66.861L24.0526 71.4304C24.0202 71.4632 23.978 71.4792 23.9357 71.4792Z" fill="#F7F0E7"/>
<path d="M29.4515 69.1949H22.9889C22.8973 69.1949 22.8231 69.1211 22.8231 69.0291C22.8231 68.9375 22.8973 68.8633 22.9889 68.8633H29.451C29.5426 68.8633 29.6168 68.937 29.6168 69.0291C29.6173 69.1211 29.5431 69.1949 29.4515 69.1949Z" fill="#F7F0E7"/>
</g>
<defs>
<clipPath id="clip0_1256_3186">
<rect width="343" height="101" fill="white"/>
</clipPath>
</defs>
</svg>
