<svg width="343" height="101" viewBox="0 0 343 101" fill="none" xmlns="http://www.w3.org/2000/svg">
<g clip-path="url(#clip0_1256_2602)">
<path d="M29.6399 22.3602H3.79498C4.22583 21.3746 4.68619 20.4066 5.18786 19.4564C6.14988 19.5508 7.0706 19.8578 7.85556 20.4243C8.77628 21.0913 9.63207 22.13 10.7653 22.012C11.261 21.9648 11.6978 21.6874 12.1227 21.4218C15.0619 19.5686 18.2726 17.8688 21.7489 17.7743C24.9891 17.6917 28.4654 19.4033 29.6399 22.3602Z" fill="#FEDEDE"/>
<path d="M79.2391 6.21125H26.0951C25.9452 6.15813 25.9883 6.40189 25.8384 6.34877C27.9891 4.40465 30.1994 2.42157 32.8877 1.33619C35.5761 0.250225 38.8842 0.226617 41.157 2.02614C41.5725 2.35488 41.9603 2.74618 42.4608 2.92029C43.594 3.31573 44.7425 2.48295 45.747 1.82665C47.6008 0.615558 49.8094 -0.136356 52.0185 0.0206372C54.227 0.178221 56.4114 1.32911 57.5375 3.23546C57.6655 3.45265 57.7913 3.68932 58.0114 3.81209C58.3755 4.01511 58.8241 3.82507 59.2042 3.65332C62.8327 2.01197 67.2268 2.17664 70.722 4.08535C73.2811 5.48294 76.4829 5.46937 79.3029 6.21007C79.4699 6.25434 79.3259 6.06193 79.2391 6.21125Z" fill="#FEDEDE"/>
<path d="M347.637 54.2811V100.889H294C294 100.441 294.012 99.7443 294.024 98.853C294.03 98.617 294.035 98.3691 294.035 98.1094C294.059 97.0411 294.083 95.7545 294.118 94.3026C294.13 93.8363 294.148 93.3524 294.159 92.8507C294.171 92.5379 294.183 92.2133 294.189 91.8828C294.195 91.6526 294.207 91.4224 294.212 91.1863C294.23 90.6906 294.248 90.183 294.266 89.6636C294.271 89.5102 294.277 89.3508 294.283 89.1974C294.325 88.0701 294.378 86.8956 294.431 85.6916C294.443 85.4024 294.454 85.1191 294.466 84.8299C294.59 82.3864 294.738 79.8368 294.921 77.3107C294.938 77.051 294.962 76.7854 294.98 76.5199C294.997 76.2543 295.021 75.9946 295.039 75.729C295.169 74.1295 295.31 72.5537 295.47 71.0251C295.487 70.8598 295.505 70.7005 295.523 70.5352C295.8 67.9442 296.125 65.5185 296.514 63.4056C296.615 62.8626 296.715 62.3373 296.827 61.8357C296.862 61.6586 296.904 61.4874 296.939 61.3222C296.939 61.3163 296.945 61.3163 296.945 61.3104C296.951 61.2809 296.957 61.2455 296.963 61.216C297.081 60.7143 297.205 60.2421 297.329 59.7995C297.358 59.6991 297.388 59.5988 297.417 59.4985C297.435 59.4453 297.447 59.3863 297.464 59.3332C297.47 59.3214 297.47 59.3155 297.476 59.3037C297.518 59.168 297.559 59.0381 297.6 58.9142C297.63 58.8256 297.659 58.7312 297.695 58.6427C297.913 58.0171 298.149 57.4741 298.397 57.0432C298.432 56.9842 298.468 56.9193 298.503 56.8662C298.787 56.3999 299.093 56.0753 299.418 55.9041C299.89 55.6563 300.427 55.4084 301.012 55.1546C301.012 55.1546 301.006 55.1546 301.012 55.1487C301.106 55.1074 301.206 55.0661 301.307 55.0247C302.788 54.3991 304.547 53.7499 306.365 53.1243C306.412 53.1066 306.465 53.0889 306.512 53.0712C307.403 52.7643 308.312 52.4633 309.204 52.1682C309.546 52.056 309.888 51.9439 310.225 51.8318C311.741 51.336 313.176 50.8638 314.391 50.4507C314.563 50.3917 314.728 50.3386 314.887 50.2795C315.076 50.2146 315.259 50.1497 315.436 50.0907C315.696 49.9962 315.938 49.9077 316.168 49.8192C316.398 49.7306 316.611 49.648 316.799 49.5713C316.864 49.5418 316.929 49.5182 316.982 49.4946C317.148 49.4237 317.289 49.3588 317.413 49.2939C317.679 49.1641 317.856 49.0519 317.921 48.9575C317.939 48.9339 317.944 48.9162 317.95 48.8985C318.057 48.4853 318.062 46.821 318.039 45.1271C318.033 44.6844 318.027 44.2359 318.015 43.8109C318.015 43.5985 318.009 43.3919 318.003 43.1912C318.003 42.9906 317.998 42.7958 317.992 42.6187C317.968 41.698 317.95 41.0606 317.95 41.0606L329.247 37.1122H329.253L331.903 36.1855C331.903 36.1855 331.891 45.6583 332.416 46.4845C332.717 46.9567 334.033 47.5469 336.028 48.3555C337.02 48.7568 338.177 49.2172 339.463 49.7425C339.652 49.8133 339.847 49.8959 340.042 49.9785C340.112 50.0021 340.177 50.0317 340.248 50.0612C340.437 50.1379 340.626 50.2146 340.815 50.2972C341.074 50.4035 341.34 50.5156 341.611 50.6278C343.595 51.4717 345.702 52.658 347.637 54.2811Z" fill="#FFA3A3"/>
<path d="M318.554 9.68727C315.508 8.8238 312.033 8.54405 309.352 10.2297C308.579 10.7154 307.879 11.3859 307.581 12.2493C307.306 13.0485 307.402 13.9231 307.523 14.7595C307.536 14.8551 307.549 14.9583 307.504 15.0433C307.449 15.1454 307.329 15.1897 307.219 15.2275C305.509 15.8165 303.953 16.9709 303.11 18.571C302.268 20.171 302.227 22.2273 303.213 23.7435C303.367 23.9802 303.552 24.2546 303.459 24.5214C303.397 24.6984 303.228 24.8106 303.079 24.9251C302.034 25.7301 301.627 27.1991 301.907 28.4887C302.187 29.7783 303.068 30.8814 304.147 31.6415C305.226 32.4011 306.492 32.8497 307.769 33.1831C311.556 34.1706 315.81 34.1446 319.129 32.0724C322.222 30.1413 324.11 26.6396 324.698 23.0411C325.107 20.5446 324.946 17.9896 324.484 15.5125C324.31 14.5789 324.17 13.5566 323.874 12.6518C323.617 11.8657 322.911 11.4951 322.216 11.1209C321.06 10.4964 319.817 10.0449 318.554 9.68727Z" fill="#2D1026"/>
<g opacity="0.18">
<path d="M347.637 54.283V100.891H294C294 100.443 294.012 99.7462 294.024 98.855C294.03 98.6189 294.035 98.371 294.035 98.1113C294.059 97.0431 294.083 95.7564 294.118 94.3046C294.13 93.8383 294.148 93.3543 294.159 92.8527C294.171 92.5399 294.183 92.2152 294.189 91.8847C294.195 91.6546 294.207 91.4244 294.212 91.1883C294.23 90.6925 294.248 90.1849 294.266 89.6656C294.271 89.5121 294.277 89.3528 294.283 89.1993C294.325 88.072 294.378 86.8975 294.431 85.6935C294.443 85.4043 294.454 85.121 294.466 84.8318C294.59 82.3884 294.738 79.8387 294.921 77.3127C294.938 77.053 294.962 76.7874 294.98 76.5218C294.997 76.2562 295.021 75.9965 295.039 75.7309C295.169 74.1315 295.31 72.5557 295.47 71.027C295.487 70.8618 295.505 70.7024 295.523 70.5372C295.8 67.9462 296.125 65.5205 296.514 63.4076C296.615 62.8646 296.715 62.3393 296.827 61.8376C296.862 61.6606 296.904 61.4894 296.939 61.3241C296.939 61.3182 296.945 61.3182 296.945 61.3123C296.951 61.2828 296.957 61.2474 296.963 61.2179C297.081 60.7162 297.205 60.2441 297.329 59.8014C297.358 59.7011 297.388 59.6008 297.417 59.5004C297.435 59.4473 297.447 59.3883 297.464 59.3352C297.47 59.3234 297.47 59.3175 297.47 59.3057H297.476C297.518 59.1699 297.559 59.0401 297.6 58.9161C297.63 58.8276 297.659 58.7332 297.695 58.6446C297.913 58.019 298.149 57.476 298.397 57.0452C298.432 56.9862 298.468 56.9212 298.503 56.8681C298.787 56.4019 299.093 56.0773 299.418 55.9061C299.89 55.6582 300.427 55.4103 301.012 55.1565C301.012 55.1565 301.006 55.1565 301.012 55.1506C301.106 55.1093 301.206 55.068 301.307 55.0267C302.788 54.4011 304.547 53.7519 306.365 53.1263C306.412 53.1085 306.465 53.0908 306.512 53.079V53.0731C307.403 52.7662 308.312 52.4652 309.204 52.1701C309.546 52.058 309.888 51.9459 310.225 51.8337C311.741 51.338 313.176 50.8658 314.391 50.4526C314.563 50.3936 314.728 50.3405 314.887 50.2815C315.076 50.2166 315.259 50.1516 315.436 50.0926C315.696 49.9982 315.938 49.9097 316.168 49.8211C316.398 49.7326 316.611 49.65 316.799 49.5732C316.864 49.5437 316.929 49.5201 316.982 49.4965C317.148 49.4257 317.289 49.3608 317.413 49.2959C317.679 49.166 317.856 49.0539 317.921 48.9594C317.939 48.9358 317.944 48.9181 317.95 48.9004C318.057 48.4873 318.062 46.8229 318.039 45.129C318.033 44.6864 318.027 44.2378 318.015 43.8129C318.015 43.6004 318.009 43.3938 318.003 43.1932C318.003 42.9925 317.998 42.7977 317.992 42.6207C317.968 41.7 317.95 41.0626 317.95 41.0626L329.247 37.1141H329.253L331.903 36.1875C331.903 36.1875 331.891 45.6602 332.416 46.4865C332.717 46.9587 334.033 47.5489 336.028 48.3574C337.02 48.7588 338.177 49.2191 339.463 49.7444C339.652 49.8152 339.847 49.8979 340.042 49.9805C340.112 50.0041 340.177 50.0336 340.248 50.0631C340.437 50.1398 340.626 50.2166 340.815 50.2992C341.074 50.4054 341.34 50.5176 341.611 50.6297C343.595 51.4737 345.702 52.66 347.637 54.283Z" fill="#2D1026"/>
</g>
<path d="M347.637 54.2821V100.89H294C294 100.442 294.012 99.7452 294.024 98.854C294.03 98.6179 294.035 98.37 294.035 98.1103C294.059 97.0421 294.083 95.7555 294.118 94.3036C294.13 93.8373 294.148 93.3533 294.159 92.8517C294.171 92.5389 294.183 92.2143 294.189 91.8837C294.195 91.6536 294.207 91.4234 294.212 91.1873C294.23 90.6915 294.248 90.184 294.266 89.6646C294.271 89.5111 294.277 89.3518 294.283 89.1983C294.325 88.071 294.378 86.8965 294.431 85.6925C294.443 85.4033 294.454 85.12 294.466 84.8308C294.59 82.3874 294.738 79.8377 294.921 77.3117C294.938 77.052 294.962 76.7864 294.98 76.5208C294.997 76.2552 295.021 75.9955 295.039 75.7299C295.169 74.1305 295.31 72.5547 295.47 71.026C295.487 70.8608 295.505 70.7014 295.523 70.5362C295.8 67.9452 296.125 65.5195 296.514 63.4066C296.615 62.8636 296.715 62.3383 296.827 61.8366C296.862 61.6596 296.904 61.4884 296.939 61.3232C296.939 61.3173 296.945 61.3172 296.945 61.3113C296.951 61.2818 296.957 61.2464 296.963 61.2169C297.081 60.7152 297.205 60.2431 297.329 59.8004C297.358 59.7001 297.388 59.5998 297.417 59.4994C297.435 59.4463 297.447 59.3873 297.464 59.3342C297.47 59.3224 297.47 59.3165 297.47 59.3047H297.476C297.518 59.1689 297.559 59.0391 297.6 58.9151C297.63 58.8266 297.659 58.7322 297.695 58.6436C297.913 58.018 298.149 57.475 298.397 57.0442C298.432 56.9852 298.468 56.9203 298.503 56.8671C298.787 56.4009 299.093 56.0763 299.418 55.9051C299.89 55.6572 300.427 55.4093 301.012 55.1556C301.012 55.1556 301.006 55.1556 301.012 55.1497C301.106 55.1083 301.206 55.067 301.307 55.0257C302.788 54.4001 304.547 53.7509 306.365 53.1253C306.412 53.1076 306.465 53.0899 306.512 53.0781V53.0721C307.403 52.7652 308.312 52.4642 309.204 52.1691C309.546 52.057 309.888 51.9449 310.225 51.8327C311.741 51.337 313.176 50.8648 314.391 50.4517C316.794 53.7568 321.533 55.0552 325.422 54.4296C329.518 53.7745 333.13 51.3606 336.028 48.3564C337.02 48.7578 338.177 49.2181 339.463 49.7434C339.652 49.8142 339.847 49.8969 340.042 49.9795C340.112 50.0031 340.177 50.0326 340.248 50.0621C340.437 50.1389 340.626 50.2156 340.815 50.2982C341.074 50.4044 341.34 50.5166 341.611 50.6287C343.595 51.4727 345.702 52.659 347.637 54.2821Z" fill="#FFCB7D"/>
<path d="M329.848 37.0479C329.329 39.2375 327.747 41.0612 325.87 42.3006C323.999 43.5401 321.833 44.266 319.679 44.9034C319.16 45.0569 318.593 45.0923 318.038 45.1277C318.015 43.1092 317.95 41.0612 317.95 41.0612L329.246 37.1128C329.447 37.0892 329.648 37.0656 329.848 37.0479Z" fill="#2D1026"/>
<path d="M309.158 31.0341C309.392 33.7714 309.309 38.0427 312.264 40.8839C316.675 45.1239 331.507 40.2996 331.507 40.2996C331.507 40.2996 331.554 37.9377 331.901 36.186C331.889 36.5773 335.11 36.2863 335.42 36.1877C336.399 35.8838 337.288 35.2841 337.93 34.4614C339.235 32.7829 339.208 30.2615 337.664 28.7477C336.945 28.0412 335.885 27.5354 334.876 27.7107C334.52 27.7732 333.661 28.0022 333.296 28.3882C333.198 28.4832 333.137 28.5942 333.124 28.7111C333.376 26.6094 333.504 24.6121 333.368 23.1838C332.904 18.4239 329.097 13.3782 322.89 12.6901C322.018 12.5956 321.173 12.5655 320.349 12.5903C320.101 12.5927 319.861 12.6004 319.617 12.6222C319.502 12.6287 319.387 12.6446 319.272 12.6558C319.224 12.6594 319.176 12.6629 319.133 12.6712C319.094 12.6747 319.056 12.6836 319.017 12.6871C318.883 12.7025 318.749 12.7184 318.614 12.7391C315.272 13.2319 312.408 15.0945 310.708 18.1075C309.63 20.0233 309.147 22.1764 308.983 24.3831C308.817 26.6105 308.971 28.8905 309.158 31.0341Z" fill="#FFA3A3"/>
<g opacity="0.18">
<path d="M309.158 31.0341C309.392 33.7714 309.309 38.0427 312.264 40.8839C316.675 45.1239 331.507 40.2996 331.507 40.2996C331.507 40.2996 331.554 37.9377 331.901 36.186C331.889 36.5773 335.11 36.2863 335.42 36.1877C336.399 35.8838 337.288 35.2841 337.93 34.4614C339.235 32.7829 339.208 30.2615 337.664 28.7477C336.945 28.0412 335.885 27.5354 334.876 27.7107C334.52 27.7732 333.661 28.0022 333.296 28.3882C333.198 28.4832 333.137 28.5942 333.124 28.7111C333.376 26.6094 333.504 24.6121 333.368 23.1838C332.904 18.4239 329.097 13.3782 322.89 12.6901C322.018 12.5956 321.173 12.5655 320.349 12.5903C320.101 12.5927 319.861 12.6004 319.617 12.6222C319.502 12.6287 319.387 12.6446 319.272 12.6558C319.224 12.6594 319.176 12.6629 319.133 12.6712C319.094 12.6747 319.056 12.6836 319.017 12.6871C318.883 12.7025 318.749 12.7184 318.614 12.7391C315.272 13.2319 312.408 15.0945 310.708 18.1075C309.63 20.0233 309.147 22.1764 308.983 24.3831C308.817 26.6105 308.971 28.8905 309.158 31.0341Z" fill="#2D1026"/>
</g>
<path d="M316.118 33.6749C316.091 33.6749 316.063 33.6672 316.038 33.6513C315.857 33.535 315.667 33.4536 315.483 33.3751C315.119 33.2193 314.741 33.0575 314.506 32.6344C314.195 32.0778 314.122 31.3542 314.299 30.5958C314.459 29.9147 314.788 29.2868 315.079 28.7331C315.117 28.6611 315.206 28.6334 315.278 28.6712C315.35 28.709 315.378 28.7981 315.34 28.8701C315.058 29.4083 314.737 30.0186 314.587 30.6631C314.426 31.3495 314.489 31.9987 314.763 32.491C314.95 32.8262 315.251 32.9549 315.6 33.1042C315.795 33.1874 315.997 33.2742 316.198 33.4034C316.266 33.4477 316.287 33.5386 316.242 33.607C316.214 33.6513 316.166 33.6749 316.118 33.6749Z" fill="#2D1026"/>
<path d="M316.519 34.9522C316.122 34.9522 315.741 34.8425 315.44 34.627C315.374 34.5798 315.358 34.4877 315.405 34.421C315.453 34.3538 315.545 34.3396 315.611 34.3868C316.057 34.7055 316.72 34.7457 317.299 34.4913C317.796 34.2729 318.244 33.8604 318.63 33.2648C318.675 33.1964 318.766 33.1787 318.834 33.2212C318.902 33.2654 318.921 33.3569 318.878 33.4254C318.46 34.0693 317.969 34.519 317.417 34.761C317.128 34.8897 316.818 34.9522 316.519 34.9522Z" fill="#2D1026"/>
<path d="M309.66 25.8414C309.525 26.1796 309.569 26.6057 309.837 26.8524C310.101 27.095 310.495 27.1104 310.853 27.108C311.373 27.1045 311.898 27.0921 312.402 26.9658C312.906 26.8395 313.394 26.5892 313.718 26.1832C313.851 26.0167 313.957 25.8196 313.972 25.6065C313.994 25.2855 313.801 24.9756 313.537 24.7909C312.454 24.0313 310.167 24.5678 309.66 25.8414Z" fill="#2D1026"/>
<path d="M323.02 25.3645C323.213 25.6732 323.244 26.1011 323.024 26.3909C322.808 26.676 322.422 26.761 322.069 26.8218C321.556 26.9103 321.038 26.9905 320.519 26.9551C320.001 26.9197 319.477 26.7598 319.085 26.4175C318.925 26.277 318.786 26.1017 318.734 25.8951C318.654 25.5829 318.79 25.2441 319.017 25.0157C319.95 24.0767 322.295 24.2007 323.02 25.3645Z" fill="#2D1026"/>
<path d="M319.765 28.998C319.769 29.6277 320.283 30.1347 320.913 30.1306C321.542 30.1264 322.049 29.6124 322.045 28.9832C322.041 28.3535 321.527 27.8465 320.898 27.8506C320.268 27.8542 319.761 28.3682 319.765 28.998Z" fill="#2D1026"/>
<path d="M310.867 29.1894C310.871 29.8191 311.385 30.3261 312.014 30.322C312.644 30.3178 313.151 29.8038 313.147 29.1746C313.143 28.5449 312.628 28.0379 311.999 28.042C311.37 28.0461 310.863 28.5596 310.867 29.1894Z" fill="#2D1026"/>
<path d="M332.318 34.544C332.377 34.5475 332.431 34.508 332.443 34.449C332.616 33.6451 332.851 32.712 333.281 31.8804C333.597 31.2713 334.163 30.4486 335.068 29.9906C335.885 29.5775 336.827 29.5763 337.529 29.9865C337.586 30.0195 337.661 30.0006 337.694 29.9434C337.728 29.8861 337.708 29.8118 337.651 29.7781C336.879 29.3266 335.848 29.3249 334.959 29.7752C333.996 30.2627 333.398 31.1291 333.066 31.7701C332.622 32.6264 332.383 33.579 332.207 34.3982C332.192 34.4637 332.234 34.5275 332.299 34.5416C332.306 34.5428 332.313 34.5434 332.318 34.544Z" fill="#2D1026"/>
<path d="M316.38 13.1581C316.025 14.3886 316.272 15.7791 317.03 16.812C317.789 17.8449 319.042 18.4964 320.322 18.5248C320.658 20.7539 322.823 22.5535 325.076 22.4762C324.375 24.0526 324.534 25.9808 325.483 27.4214C326.432 28.8621 328.141 29.7693 329.866 29.7486C330.058 29.7462 330.264 29.7374 330.423 29.8442C330.572 29.9446 330.644 30.1246 330.708 30.2934C330.787 30.5052 330.854 30.9148 330.919 31.3557C331.003 31.9217 331.757 32.0663 332.037 31.5682C332.636 30.5052 333.093 29.1431 333.841 28.6378C334.907 27.9196 335.781 27.8547 336.684 28.2536C336.755 26.0351 336.78 23.905 336.395 21.7183C336.01 19.5322 335.131 17.3727 333.549 15.8151C331.534 13.8315 328.624 13.0294 325.961 12.2633C324.694 11.8986 323.395 11.6448 322.078 11.587C319.979 11.4931 317.981 11.8295 316.38 13.1581Z" fill="#2D1026"/>
<path d="M230.587 63.9977H253.302C253.381 63.9977 253.224 63.813 253.299 63.7865C253.786 62.8964 254.29 61.8848 254.006 60.911C253.784 60.1473 253.111 59.5665 252.939 58.7898C252.699 57.7086 253.485 56.7017 253.856 55.6582C254.586 53.6014 253.459 51.0694 251.441 50.2372C250.923 50.0236 250.348 49.9026 249.923 49.5384C249.226 48.9423 249.15 47.89 249.293 46.984C249.516 45.5758 250.129 44.265 250.681 42.95C251.192 41.7324 251.657 40.3437 251.149 39.1243C250.454 37.4552 248.3 36.914 247.255 35.4385C246.044 33.7281 246.661 31.3715 246.254 29.3164C245.848 27.2672 244.37 25.5267 242.546 24.5074C240.722 23.4881 238.586 23.1328 236.498 23.1718C234.194 25.3939 232.664 28.1708 231.804 31.2528C230.172 37.0952 229.644 43.1879 229.41 49.2492C229.216 54.2636 229.594 59.0784 230.587 63.9977Z" fill="#2D1026"/>
<path d="M251.032 94.2276C250.997 97.6389 250.95 100.755 250.914 102.803C250.908 103.075 250.902 103.328 250.897 103.559H206V82.1698C206.614 76.2264 207.428 70.3481 208.467 66.2048C208.538 65.9274 208.609 65.656 208.685 65.3904C208.786 65.0244 208.886 64.6703 208.992 64.3398C209.069 64.1096 209.14 63.8854 209.217 63.6729C209.264 63.5312 209.317 63.3955 209.364 63.2597C209.394 63.183 209.423 63.1063 209.453 63.0355C209.482 62.9646 209.512 62.8938 209.541 62.823C209.801 62.1856 210.078 61.6662 210.362 61.2708C210.533 61.0347 210.704 60.8517 210.881 60.7101C215.054 57.3872 222.402 55.7996 224.544 55.3924C224.928 55.3215 225.146 55.2861 225.146 55.2861L229.508 55.9708L230.493 56.1242L235.758 56.9446L236.059 56.9918C236.059 56.9918 237.948 58.4083 240.155 60.0727C240.373 60.2379 240.598 60.4091 240.828 60.5861C241.058 60.7573 241.288 60.9343 241.512 61.1055C242.103 61.5541 242.693 62.0026 243.259 62.4335C243.389 62.5338 243.513 62.6282 243.631 62.7168C244.239 63.183 244.806 63.6198 245.296 63.9975C245.49 64.1509 245.679 64.2985 245.844 64.4283C246.452 64.9064 247.007 65.473 247.497 66.1222C248.961 67.999 249.982 70.5369 250.531 73.3699C250.678 74.0899 250.79 74.8277 250.867 75.5772C251.144 78.1741 251.115 86.8973 251.032 94.2276Z" fill="#FEDEDE"/>
<path d="M236.968 68.678C237.592 66.0323 235.954 63.3812 233.308 62.7565C230.663 62.1318 228.012 63.7701 227.387 66.4157C226.762 69.0613 228.4 71.7125 231.046 72.3372C233.692 72.9619 236.343 71.3236 236.968 68.678Z" fill="#FFCB7D"/>
<path d="M215.101 88.6371C215.101 89.9356 214.599 91.1101 213.785 91.9954C212.882 92.9574 211.601 93.5594 210.179 93.5594C209.984 93.5594 209.795 93.5476 209.606 93.524C208.083 93.3469 206.779 92.4793 206 91.2399V86.0284C206.873 84.6356 208.414 83.7148 210.179 83.7148C212.899 83.7148 215.101 85.9163 215.101 88.6371Z" fill="#FFCB7D"/>
<path d="M218.218 65.2309C218.218 67.9458 216.01 70.1531 213.295 70.1531C210.911 70.1531 208.922 68.4534 208.468 66.2047C209.034 63.9678 209.666 62.2327 210.362 61.2706C211.183 60.6686 212.198 60.3086 213.295 60.3086C216.01 60.3086 218.218 62.51 218.218 65.2309Z" fill="#FFCB7D"/>
<path d="M247.498 66.1218C246.695 66.7002 245.703 67.0366 244.635 67.0366C241.92 67.0366 239.713 64.8352 239.713 62.1144C239.713 61.3884 239.872 60.6979 240.156 60.0723C242.192 61.6186 244.493 63.3656 245.845 64.4279C246.453 64.906 247.008 65.4726 247.498 66.1218Z" fill="#FFCB7D"/>
<path d="M244.989 84.869C247.707 84.869 249.911 82.6652 249.911 79.9467C249.911 77.2282 247.707 75.0244 244.989 75.0244C242.27 75.0244 240.066 77.2282 240.066 79.9467C240.066 82.6652 242.27 84.869 244.989 84.869Z" fill="#FFCB7D"/>
<path d="M251.033 94.2275C250.997 97.6388 250.95 100.755 250.915 102.803C250.213 103.187 249.41 103.405 248.554 103.405C245.833 103.405 243.632 101.198 243.632 98.4828C243.632 95.762 245.833 93.5605 248.554 93.5605C249.457 93.5605 250.301 93.8025 251.033 94.2275Z" fill="#FFCB7D"/>
<path d="M223.239 84.5174C225.958 84.5174 228.161 82.3136 228.161 79.5951C228.161 76.8766 225.958 74.6729 223.239 74.6729C220.521 74.6729 218.317 76.8766 218.317 79.5951C218.317 82.3136 220.521 84.5174 223.239 84.5174Z" fill="#FFCB7D"/>
<path d="M230.07 97.1766C232.789 97.1766 234.992 94.9728 234.992 92.2543C234.992 89.5358 232.789 87.332 230.07 87.332C227.352 87.332 225.148 89.5358 225.148 92.2543C225.148 94.9728 227.352 97.1766 230.07 97.1766Z" fill="#FFCB7D"/>
<path d="M224.545 45.7773V55.8108C224.545 55.8108 235.168 69.3854 236.939 68.7952C238.71 68.205 235.759 56.9912 235.759 56.9912V49.3186L224.545 45.7773Z" fill="#FFA3A3"/>
<g opacity="0.18">
<path d="M236.939 68.7952C235.168 69.3854 224.545 55.8108 224.545 55.8108V45.7773L227.437 46.6922L235.759 49.3186V56.9912C235.759 56.9912 238.71 68.205 236.939 68.7952Z" fill="#2D1026"/>
</g>
<path d="M235.759 49.3198V55.3457C234.637 55.387 233.516 54.8853 232.56 54.2656C231.114 53.3331 229.874 52.0996 228.918 50.6713C228.245 49.6798 227.047 47.9623 227.437 46.6934L235.759 49.3198Z" fill="#2D1026"/>
<path d="M246.151 40.9183C245.931 43.4886 246.01 47.4996 243.234 50.1679C239.091 54.1494 225.165 49.619 225.165 49.619C225.165 49.619 225.12 47.401 224.795 45.7562C224.806 46.1233 221.781 45.85 221.491 45.7579C220.571 45.4729 219.736 44.9092 219.133 44.1372C217.908 42.5608 217.933 40.1935 219.384 38.7723C220.059 38.1089 221.054 37.6338 222.002 37.7985C222.336 37.8575 223.142 38.0723 223.485 38.4347C223.578 38.5238 223.635 38.6277 223.648 38.7375C223.411 36.7639 223.29 34.8882 223.419 33.5473C223.855 29.0771 227.429 24.3395 233.258 23.6933C234.076 23.6047 234.87 23.5764 235.643 23.5994C235.877 23.6018 236.101 23.6089 236.33 23.6295C236.438 23.6354 236.546 23.6508 236.654 23.6614C236.699 23.6649 236.744 23.6679 236.785 23.6762C236.821 23.6797 236.857 23.688 236.893 23.6915C237.019 23.7063 237.145 23.7204 237.271 23.7399C240.41 24.2026 243.099 25.952 244.695 28.7808C245.708 30.5797 246.161 32.6018 246.315 34.674C246.471 36.7645 246.327 38.9051 246.151 40.9183Z" fill="#FFA3A3"/>
<g opacity="0.18">
<path d="M246.151 40.9183C245.931 43.4886 246.01 47.4996 243.234 50.1679C239.091 54.1494 225.165 49.619 225.165 49.619C225.165 49.619 225.12 47.401 224.795 45.7562C224.806 46.1233 221.781 45.85 221.491 45.7579C220.571 45.4729 219.736 44.9092 219.133 44.1372C217.908 42.5608 217.933 40.1935 219.384 38.7723C220.059 38.1089 221.054 37.6338 222.002 37.7985C222.336 37.8575 223.142 38.0723 223.485 38.4347C223.578 38.5238 223.635 38.6277 223.648 38.7375C223.411 36.7639 223.29 34.8882 223.419 33.5473C223.855 29.0771 227.429 24.3395 233.258 23.6933C234.076 23.6047 234.87 23.5764 235.643 23.5994C235.877 23.6018 236.101 23.6089 236.33 23.6295C236.438 23.6354 236.546 23.6508 236.654 23.6614C236.699 23.6649 236.744 23.6679 236.785 23.6762C236.821 23.6797 236.857 23.688 236.893 23.6915C237.019 23.7063 237.145 23.7204 237.271 23.7399C240.41 24.2026 243.099 25.952 244.695 28.7808C245.708 30.5797 246.161 32.6018 246.315 34.674C246.471 36.7645 246.327 38.9051 246.151 40.9183Z" fill="#2D1026"/>
</g>
<path d="M239.604 43.9566C239.516 43.9566 239.427 43.9513 239.339 43.9407C238.578 43.8474 237.906 43.3251 237.667 42.6404C237.64 42.5637 237.68 42.4793 237.757 42.4528C237.834 42.4256 237.918 42.4663 237.945 42.5431C238.148 43.1238 238.723 43.5676 239.375 43.6479C239.992 43.7235 240.651 43.4874 241.136 43.0152C241.195 42.9586 241.289 42.9597 241.345 43.0182C241.402 43.0766 241.401 43.1699 241.342 43.2271C240.863 43.6939 240.229 43.9566 239.604 43.9566Z" fill="#2D1026"/>
<path d="M239.795 42.3368C239.8 42.3368 239.804 42.3368 239.808 42.3362C240.423 42.2701 240.972 41.8092 241.145 41.2166C241.291 40.7161 241.167 40.2209 241.036 39.8928C240.873 39.482 240.626 39.1226 240.387 38.7749C240.345 38.7159 240.264 38.7012 240.206 38.7413C240.146 38.782 240.131 38.8635 240.172 38.9231C240.403 39.2589 240.641 39.606 240.794 39.9896C240.909 40.2794 241.02 40.7149 240.894 41.144C240.75 41.638 240.292 42.0222 239.781 42.0771C239.709 42.0848 239.657 42.1491 239.664 42.2205C239.672 42.2872 239.729 42.3368 239.795 42.3368Z" fill="#2D1026"/>
<path d="M245.045 34.9674C245.146 35.0406 245.225 35.1232 245.277 35.2153C245.392 35.4219 245.332 35.6709 245.077 35.8244C244.932 35.9117 244.737 35.9631 244.538 35.9908C243.948 36.0723 243.105 36.0144 242.604 35.7961C241.871 35.4762 242.276 34.8435 242.994 34.6635C243.667 34.4947 244.577 34.6298 245.045 34.9674Z" fill="#2D1026"/>
<path d="M233.754 34.9674C233.652 35.0406 233.572 35.1232 233.522 35.2153C233.407 35.4219 233.466 35.6709 233.722 35.8244C233.866 35.9117 234.061 35.9631 234.26 35.9908C234.851 36.0723 235.694 36.0144 236.194 35.7961C236.928 35.4762 236.522 34.8435 235.805 34.6635C235.131 34.4947 234.221 34.6298 233.754 34.9674Z" fill="#2D1026"/>
<path d="M236.049 38.2994C236.045 38.8908 235.563 39.3665 234.971 39.3629C234.38 39.3594 233.904 38.8766 233.908 38.2852C233.912 37.6939 234.394 37.2182 234.985 37.2217C235.577 37.2258 236.053 37.708 236.049 38.2994Z" fill="#2D1026"/>
<path d="M244.405 38.4752C244.401 39.0666 243.919 39.5423 243.327 39.5387C242.736 39.5346 242.26 39.0524 242.264 38.461C242.268 37.8696 242.75 37.3939 243.341 37.3975C243.933 37.4016 244.409 37.8838 244.405 38.4752Z" fill="#2D1026"/>
<path d="M224.403 44.2125C224.348 44.2161 224.297 44.1783 224.285 44.1228C224.123 43.368 223.903 42.4921 223.498 41.7113C223.202 41.1394 222.67 40.3668 221.82 39.9365C221.053 39.5488 220.168 39.547 219.509 39.933C219.455 39.9643 219.386 39.9466 219.354 39.8923C219.322 39.8386 219.34 39.7689 219.395 39.737C220.119 39.3127 221.089 39.3115 221.922 39.7341C222.827 40.1921 223.388 41.0054 223.7 41.6074C224.116 42.4112 224.342 43.306 224.506 44.0756C224.52 44.137 224.481 44.1972 224.42 44.2102C224.414 44.2114 224.408 44.2125 224.403 44.2125Z" fill="#2D1026"/>
<path d="M235.28 26.4428C235.28 26.5195 235.28 26.5962 235.268 26.667C235.209 27.3989 234.737 28.054 234.223 28.597C233.657 29.1872 233.002 29.7243 232.618 30.4502C231.91 31.7605 232.229 33.354 232.506 34.8177C232.789 36.2755 232.966 37.934 232.063 39.1144C231.538 39.8108 230.724 40.2121 230.015 40.7374C229.968 40.7669 229.921 40.8023 229.874 40.8378C229.018 41.4929 228.351 42.3959 227.967 43.3992C227.59 44.3908 227.495 45.5476 227.985 46.4919C228.074 46.6571 228.174 46.8165 228.292 46.964C228.622 47.3949 229.047 47.7608 229.455 48.1385C229.567 48.2448 229.673 48.3451 229.779 48.4513C230.529 49.2009 231.101 50.1511 231.414 51.1663C231.662 51.963 231.75 52.8011 231.638 53.6038C231.567 54.1232 231.414 54.6248 231.166 55.097C230.977 55.4629 230.735 55.7934 230.493 56.124C230.186 56.5312 229.874 56.9266 229.62 57.3575C229.519 57.5168 229.431 57.6821 229.354 57.8532C229.018 58.6146 228.929 59.4881 229.112 60.2967C229.266 60.9636 229.59 61.6069 229.844 62.2561C229.944 62.5276 230.039 62.805 230.098 63.0765C230.175 63.4306 230.198 63.7907 230.127 64.1566L228.593 64.1684L218.123 64.2628L208.992 64.3395L206 64.3631V57.3339C206.224 56.9384 206.395 56.5253 206.454 56.0649C206.567 55.2268 206.271 54.4006 206.171 53.5625C205.906 51.4082 207.009 49.1478 208.868 48.0382C209.529 47.6428 210.303 47.3595 210.751 46.7339C211.601 45.5653 210.899 43.9658 210.674 42.5375C210.303 40.218 211.43 37.7274 213.419 36.4821C214.463 35.8269 215.762 35.4433 216.447 34.4223C217.243 33.2242 216.901 31.6424 217.096 30.22C217.403 27.9006 219.203 25.9942 221.286 24.9318C223.364 23.8636 225.742 23.6511 228.068 23.3501C228.876 23.2439 229.702 23.238 230.517 23.3383C231.213 23.4091 231.898 23.5626 232.565 23.7869C232.659 23.8164 232.76 23.8518 232.854 23.8872C233.562 24.1528 234.288 24.5718 234.76 25.1443C235.067 25.5161 235.268 25.947 235.28 26.4428Z" fill="#2D1026"/>
<path d="M234.047 25.6285C235.046 26.78 236.535 27.4912 238.057 27.5449C239.184 27.585 240.293 27.2834 241.417 27.1896C242.54 27.0957 243.775 27.2527 244.582 28.04C244.194 26.4152 242.592 25.2065 241.07 24.5189C237.216 22.779 232.715 22.5217 228.688 23.8101C230.224 24.6688 232.368 25.1002 234.047 25.6285Z" fill="#2D1026"/>
<path d="M246.972 81.7802C246.972 82.754 246.895 83.6865 246.783 84.5305C246.511 86.5313 246.057 88.0068 245.992 88.2075V103.559H245.697V88.1839C245.697 88.1662 245.697 88.1544 245.703 88.1366C245.709 88.113 246.187 86.673 246.464 84.6427C246.588 83.7751 246.677 82.8012 246.677 81.7802C246.677 80.3519 246.281 77.9321 245.821 75.5949C245.791 75.4237 245.756 75.2526 245.721 75.0814C245.113 72.0419 244.428 69.2856 244.416 69.2325C244.398 69.1558 244.446 69.0732 244.528 69.0555C244.605 69.0319 244.688 69.085 244.705 69.1617C244.717 69.2148 245.42 72.0419 246.033 75.1345C246.051 75.2349 246.075 75.3411 246.092 75.4414C246.565 77.8258 246.972 80.3106 246.972 81.7802Z" fill="#2D1026"/>
<path d="M218.188 74.6974V103.558H217.893V74.6974C217.893 74.6147 217.957 74.5498 218.04 74.5498C218.123 74.5498 218.188 74.6147 218.188 74.6974Z" fill="#2D1026"/>
<path d="M247 103.168C247.277 98.3929 248.051 89.0323 250.057 82.4752C251.025 79.3235 252.276 76.821 253.894 75.7882C254.212 75.5875 254.531 75.3868 254.856 75.2039C254.944 75.1508 255.039 75.0976 255.127 75.0504C255.245 74.9796 255.363 74.9147 255.481 74.8498C255.481 74.8498 255.481 74.8498 255.487 74.8498C256.85 74.1002 258.237 73.4805 259.565 72.9788C261.903 72.0817 264.051 71.5328 265.562 71.2141C266.919 70.919 267.763 70.8187 267.763 70.8187L267.816 69.1543L267.881 66.9411L267.97 63.9665V63.8838L268.135 63.8425L277.283 61.582H277.289L278.056 61.3932L280.028 60.9033V60.9092L280.807 69.3727C280.807 69.3727 281.179 69.473 281.81 69.6619C284.932 70.6062 294.44 73.693 297.368 77.1338C300.13 80.374 301.422 96.3862 301.853 103.168H247Z" fill="#FFA3A3"/>
<g opacity="0.18">
<path d="M247 103.168C247.277 98.3929 248.051 89.0323 250.057 82.4752C251.025 79.3235 252.276 76.821 253.894 75.7882C254.212 75.5875 254.531 75.3868 254.856 75.2039C254.944 75.1508 255.039 75.0976 255.127 75.0504C255.245 74.9796 255.363 74.9147 255.481 74.8498C255.481 74.8498 255.481 74.8498 255.487 74.8498C256.85 74.1002 258.237 73.4805 259.565 72.9788C261.903 72.0817 264.051 71.5328 265.562 71.2141C266.919 70.919 267.763 70.8187 267.763 70.8187L267.816 69.1543L267.881 66.9411L267.97 63.9665V63.8838L268.135 63.8425L277.283 61.582H277.289L278.056 61.3932L280.028 60.9033V60.9092L280.807 69.3727C280.807 69.3727 281.179 69.473 281.81 69.6619C284.932 70.6062 294.44 73.693 297.368 77.1338C300.13 80.374 301.422 96.3862 301.853 103.168H247Z" fill="#2D1026"/>
</g>
<path d="M278.055 61.3945C277.653 62.0331 276.589 63.93 276.401 64.1614C275.653 65.0915 274.777 65.919 273.816 66.6243C272.193 67.8165 269.925 68.9957 267.815 69.1539L267.973 63.9666C268.021 63.9241 268.083 63.8816 268.137 63.845L278.055 61.3945Z" fill="#2D1026"/>
<path d="M278.349 34.0241C279.517 33.8913 280.81 34.3068 281.445 35.2965C281.525 35.4211 281.605 35.5621 281.743 35.6141C281.909 35.676 282.089 35.5863 282.247 35.509C283.752 34.7819 285.652 35.1266 286.951 36.1789C288.25 37.2312 288.969 38.8956 289.077 40.5635C289.185 42.2314 288.726 43.8999 287.992 45.4014C289.434 46.5564 289.418 48.9007 288.373 50.4246C287.328 51.9485 285.547 52.7919 283.781 53.336C282.593 53.7025 281.343 53.9669 280.11 53.8041C278.788 53.6294 277.571 52.9725 276.52 52.1527C274.066 50.2381 272.474 47.329 271.995 44.2694C271.638 41.9847 271.595 38.7734 273.275 36.978C274.555 35.6111 276.442 34.2407 278.349 34.0241Z" fill="#FEDEDE"/>
<path d="M257.935 42.5242C257.14 43.2844 256.614 44.4217 256.875 45.4906C256.958 45.8305 257.118 46.1575 257.124 46.5081C257.134 47.1532 256.634 47.6749 256.194 48.1471C254.803 49.6421 253.649 51.7249 254.302 53.6596C254.64 54.6605 255.418 55.4555 256.276 56.0723C257.765 57.1447 259.59 57.7856 261.424 57.7201C263.258 57.6546 265.084 56.8472 266.252 55.4313C267.464 53.9617 267.891 51.9852 267.926 50.0812C267.982 47.018 267.132 43.0047 264.917 40.7265C264.003 39.7869 263.121 39.892 261.975 40.3423C260.594 40.8841 259.022 41.4849 257.935 42.5242Z" fill="#FEDEDE"/>
<path d="M258.707 56.0863C258.928 58.6519 258.849 62.6558 261.619 65.3188C265.754 69.2932 279.655 64.7711 279.655 64.7711C279.655 64.7711 279.7 62.5573 280.025 60.9153C280.013 61.2818 283.033 61.0092 283.323 60.9171C284.241 60.6326 285.074 60.0701 285.676 59.2988C286.899 57.7253 286.874 55.3621 285.426 53.9433C284.752 53.2811 283.759 52.8066 282.813 52.9712C282.479 53.0302 281.675 53.2445 281.332 53.6063C281.24 53.6954 281.183 53.7993 281.17 53.9085C281.406 51.9384 281.527 50.0662 281.399 48.7277C280.964 44.2658 277.396 39.5365 271.578 38.892C270.76 38.8035 269.968 38.7757 269.197 38.7987C268.964 38.8011 268.739 38.8082 268.51 38.8288C268.402 38.8347 268.294 38.8501 268.187 38.8607C268.142 38.8642 268.097 38.8672 268.057 38.8755C268.021 38.879 267.985 38.8873 267.949 38.8908C267.823 38.9056 267.697 38.9197 267.571 38.9392C264.438 39.4013 261.753 41.1471 260.16 43.9712C259.149 45.7666 258.697 47.7851 258.543 49.8538C258.388 51.9395 258.532 54.0767 258.707 56.0863Z" fill="#FFA3A3"/>
<g opacity="0.18">
<path d="M258.707 56.0863C258.928 58.6519 258.849 62.6558 261.619 65.3188C265.754 69.2932 279.655 64.7711 279.655 64.7711C279.655 64.7711 279.7 62.5573 280.025 60.9153C280.013 61.2818 283.033 61.0092 283.323 60.9171C284.241 60.6326 285.074 60.0701 285.676 59.2988C286.899 57.7253 286.874 55.3621 285.426 53.9433C284.752 53.2811 283.759 52.8066 282.813 52.9712C282.479 53.0302 281.675 53.2445 281.332 53.6063C281.24 53.6954 281.183 53.7993 281.17 53.9085C281.406 51.9384 281.527 50.0662 281.399 48.7277C280.964 44.2658 277.396 39.5365 271.578 38.892C270.76 38.8035 269.968 38.7757 269.197 38.7987C268.964 38.8011 268.739 38.8082 268.51 38.8288C268.402 38.8347 268.294 38.8501 268.187 38.8607C268.142 38.8642 268.097 38.8672 268.057 38.8755C268.021 38.879 267.985 38.8873 267.949 38.8908C267.823 38.9056 267.697 38.9197 267.571 38.9392C264.438 39.4013 261.753 41.1471 260.16 43.9712C259.149 45.7666 258.697 47.7851 258.543 49.8538C258.388 51.9395 258.532 54.0767 258.707 56.0863Z" fill="#2D1026"/>
</g>
<path d="M264.875 57.8858C264.335 57.8858 263.778 57.5057 263.551 56.9415C263.338 56.4139 263.38 55.7552 263.668 55.0859C263.844 54.6793 264.086 54.3069 264.32 53.9462C264.41 53.8075 264.5 53.6683 264.587 53.5278C264.631 53.4558 264.724 53.4334 264.796 53.4782C264.868 53.5219 264.89 53.6157 264.846 53.6871C264.759 53.83 264.666 53.971 264.575 54.1121C264.348 54.4621 264.113 54.8239 263.948 55.2069C263.799 55.551 263.587 56.2185 263.833 56.8282C264.018 57.285 264.544 57.6952 265.073 57.5577C265.154 57.5364 265.237 57.586 265.258 57.6674C265.279 57.7489 265.23 57.8315 265.148 57.8528C265.059 57.8746 264.967 57.8858 264.875 57.8858Z" fill="#2D1026"/>
<path d="M259.526 50.7377C259.417 50.8711 259.331 51.0316 259.368 51.1898C259.412 51.3745 259.619 51.5103 259.839 51.5622C260.059 51.6142 260.294 51.5988 260.522 51.5823C260.664 51.5723 260.805 51.5622 260.948 51.5522C261.414 51.5191 261.924 51.4696 262.245 51.1898C262.578 50.9 262.581 50.4031 262.27 50.0974C261.512 49.3555 260.023 50.1328 259.526 50.7377Z" fill="#FEDEDE"/>
<path d="M271.412 50.568C271.534 50.6908 271.634 50.8425 271.612 51.0036C271.585 51.1919 271.393 51.3459 271.178 51.4185C270.963 51.4911 270.728 51.497 270.499 51.5023C270.357 51.5059 270.216 51.5088 270.073 51.5124C269.606 51.523 269.093 51.5212 268.748 51.2727C268.389 51.0154 268.339 50.5208 268.621 50.1874C269.307 49.3764 270.861 50.0115 271.412 50.568Z" fill="#FEDEDE"/>
<path d="M265.451 59.4876C264.957 59.4876 264.459 59.3353 264.059 59.0526C263.99 59.0042 263.974 58.9092 264.022 58.8408C264.07 58.7717 264.166 58.7564 264.234 58.8042C264.69 59.1252 265.289 59.2533 265.836 59.1471C266.384 59.0408 266.891 58.6967 267.193 58.2275C267.238 58.1573 267.331 58.1372 267.403 58.1821C267.473 58.2275 267.494 58.322 267.448 58.3928C267.102 58.9299 266.521 59.3235 265.894 59.4457C265.748 59.474 265.6 59.4876 265.451 59.4876Z" fill="#2D1026"/>
<path d="M262.408 55.2261C262.393 55.2261 262.378 55.222 262.365 55.2125C262.33 55.1889 262.322 55.1411 262.345 55.1069L262.858 54.3632C262.882 54.3284 262.929 54.3195 262.964 54.3437C262.999 54.3673 263.007 54.4152 262.983 54.4494L262.47 55.193C262.456 55.2149 262.432 55.2261 262.408 55.2261Z" fill="#2D1026"/>
<path d="M268.633 54.9589C268.623 54.9589 268.613 54.9571 268.603 54.9524C268.298 54.819 268.032 54.5906 267.853 54.3096C267.83 54.2742 267.841 54.227 267.876 54.2046C267.911 54.1816 267.958 54.1922 267.981 54.2276C268.144 54.4837 268.387 54.6915 268.664 54.8125C268.702 54.8296 268.72 54.8739 268.703 54.9128C268.69 54.9417 268.663 54.9589 268.633 54.9589Z" fill="#2D1026"/>
<path d="M262.982 60.6514C262.952 60.6514 262.923 60.6331 262.911 60.6036C262.506 59.5778 262.52 58.4057 262.948 57.3893C262.964 57.3504 263.01 57.3327 263.047 57.3486C263.086 57.3645 263.104 57.4094 263.088 57.4478C262.675 58.4281 262.662 59.5577 263.052 60.5469C263.068 60.5859 263.049 60.6301 263.01 60.6455C263.001 60.6502 262.992 60.6514 262.982 60.6514Z" fill="#2D1026"/>
<path d="M268.734 60.4179C268.694 60.4179 268.66 60.3866 268.658 60.3465C268.612 59.6247 268.479 59.028 268.25 58.521C267.976 57.9143 267.548 57.4268 267.044 57.1494C267.007 57.1293 266.994 57.0827 267.014 57.0461C267.034 57.0089 267.08 56.9965 267.117 57.016C267.649 57.3093 268.101 57.8216 268.389 58.4584C268.625 58.9819 268.763 59.5963 268.81 60.3364C268.812 60.3784 268.781 60.4144 268.739 60.4173C268.737 60.4179 268.735 60.4179 268.734 60.4179Z" fill="#2D1026"/>
<path d="M268.791 53.4705C268.796 54.0607 269.277 54.5358 269.867 54.5317C270.458 54.5275 270.933 54.0465 270.929 53.4563C270.925 52.8661 270.443 52.391 269.853 52.3946C269.262 52.3987 268.787 52.8803 268.791 53.4705Z" fill="#2D1026"/>
<path d="M260.45 53.6476C260.454 54.2378 260.936 54.7129 261.525 54.7088C262.116 54.7047 262.591 54.2231 262.587 53.6335C262.583 53.0433 262.101 52.5682 261.511 52.5723C260.922 52.5764 260.447 53.058 260.45 53.6476Z" fill="#2D1026"/>
<path d="M280.416 59.3743C280.471 59.3778 280.522 59.3401 280.533 59.2852C280.696 58.5321 280.915 57.6574 281.319 56.8777C281.615 56.3064 282.146 55.5356 282.994 55.106C283.759 54.7188 284.643 54.717 285.301 55.1024C285.355 55.1337 285.424 55.116 285.456 55.0617C285.487 55.008 285.469 54.9383 285.415 54.9071C284.691 54.4839 283.724 54.4827 282.891 54.9041C281.989 55.3609 281.428 56.173 281.117 56.7739C280.701 57.5765 280.477 58.4695 280.312 59.2374C280.298 59.2987 280.337 59.3589 280.398 59.3719C280.405 59.3731 280.411 59.3737 280.416 59.3743Z" fill="#2D1026"/>
<path d="M281.706 53.8642C280.86 54.7324 279.794 55.4106 278.813 56.1212C278.546 54.72 277.96 53.146 276.606 52.6998C276.015 52.5056 275.372 52.5664 274.765 52.4366C273.783 52.2264 272.932 51.4846 272.589 50.5408C272.059 49.0813 272.668 47.2487 271.698 46.037C271.162 45.3683 270.272 45.0903 269.421 44.9953C268.569 44.9003 267.701 44.9516 266.863 44.7746C264.765 44.3325 263.206 42.5418 262.201 40.6479C263.194 39.8712 264.926 38.9286 266.164 38.6943C268.399 38.2717 270.687 37.9943 272.948 38.2464C275.209 38.4984 277.457 39.3158 279.129 40.8574C280.709 42.3128 281.689 44.3343 282.175 46.426C282.661 48.5182 282.682 50.6907 282.573 52.8355C282.265 53.1749 282.025 53.5361 281.706 53.8642Z" fill="#FEDEDE"/>
<path d="M247 103.169C247.277 98.3941 248.051 89.0335 250.057 82.4763C251.025 79.3247 252.276 76.8222 253.894 75.7894C254.212 75.5887 254.531 75.388 254.856 75.2051C254.944 75.152 255.039 75.0988 255.127 75.0516C255.245 74.9808 255.363 74.9159 255.481 74.851C255.481 74.851 255.481 74.851 255.487 74.851C256.85 74.1014 258.237 73.4817 259.565 72.98C261.903 72.0829 264.051 71.534 265.562 71.2153C265.792 72.7085 266.105 74.1899 266.719 75.571C267.486 77.2826 268.773 78.8348 270.514 79.5371C271.877 80.086 273.347 80.0447 274.734 79.5903C276.416 79.0473 277.968 77.9023 279.036 76.474C280.517 74.4909 281.279 72.1006 281.81 69.6631C284.932 70.6074 294.44 73.6942 297.368 77.135C300.13 80.3752 301.422 96.3874 301.853 103.169H247Z" fill="#925CD5"/>
<path d="M259.554 103.168H259.247L259.223 102.732L259.022 99.1374C258.839 98.9013 257.925 97.7032 257.169 95.7142C256.974 95.2125 256.963 94.3036 257.063 93.2C257.393 89.5112 258.946 83.6269 259.028 83.3082C259.046 83.2256 259.129 83.1725 259.211 83.1961C259.294 83.2197 259.341 83.3023 259.323 83.3849C259.3 83.4616 257.712 89.4876 257.364 93.1763C257.264 94.2564 257.269 95.1358 257.452 95.608C258.261 97.7268 259.282 98.9662 259.288 98.978C259.312 99.0075 259.323 99.037 259.323 99.0666L259.524 102.62L259.554 103.168Z" fill="#2D1026"/>
<path d="M289.79 103.168H289.489L289.04 84.9015C289.04 84.8189 289.105 84.7481 289.188 84.7422C289.288 84.7422 289.341 84.8071 289.341 84.8956L289.79 103.168Z" fill="#2D1026"/>
<path d="M58.6736 28.2594L57.0116 28.9021C56.2945 29.1795 55.7279 29.7461 55.4505 30.4632L54.8078 32.1252L54.165 30.4632C53.8876 29.7461 53.3211 29.1795 52.604 28.9021L50.942 28.2594L52.604 27.6166C53.3211 27.3392 53.8876 26.7727 54.165 26.0556L54.8078 24.3936L55.4505 26.0556C55.7279 26.7727 56.2945 27.3392 57.0116 27.6166L58.6736 28.2594Z" fill="white"/>
<path d="M91.7313 5.69589L90.0693 6.33862C89.3522 6.61601 88.7856 7.18261 88.5082 7.8997L87.8655 9.5617L87.2228 7.8997C86.9454 7.18261 86.3788 6.61601 85.6617 6.33862L83.9997 5.69589L85.6617 5.05316C86.3788 4.77577 86.9454 4.20918 87.2228 3.49208L87.8655 1.83008L88.5082 3.49208C88.7856 4.20918 89.3522 4.77577 90.0693 5.05316L91.7313 5.69589Z" fill="white"/>
<path d="M107.965 86.2574L106.303 86.9001C105.586 87.1775 105.02 87.7441 104.742 88.4612L104.1 90.1232L103.457 88.4612C103.179 87.7441 102.613 87.1775 101.896 86.9001L100.234 86.2574L101.896 85.6147C102.613 85.3373 103.179 84.7707 103.457 84.0536L104.1 82.3916L104.742 84.0536C105.02 84.7707 105.586 85.3373 106.303 85.6147L107.965 86.2574Z" fill="white"/>
<path d="M24.2289 12.0855L22.5669 12.7283C21.8498 13.0057 21.2832 13.5723 21.0058 14.2893L20.3631 15.9514L19.7203 14.2893C19.4429 13.5723 18.8764 13.0057 18.1593 12.7283L16.4973 12.0855L18.1593 11.4428C18.8764 11.1654 19.4429 10.5988 19.7203 9.88173L20.3631 8.21973L21.0058 9.88173C21.2832 10.5988 21.8498 11.1654 22.5669 11.4428L24.2289 12.0855Z" fill="white"/>
<path d="M8.9126 89.8736L7.25059 90.5164C6.5335 90.7938 5.96691 91.3603 5.68951 92.0774L5.04678 93.7394L4.40405 92.0774C4.12666 91.3603 3.56007 90.7938 2.84297 90.5164L1.18097 89.8736L2.84297 89.2309C3.56007 88.9535 4.12666 88.3869 4.40405 87.6698L5.04678 86.0078L5.68951 87.6698C5.96691 88.3869 6.5335 88.9535 7.25059 89.2309L8.9126 89.8736Z" fill="white"/>
<path d="M56.621 55.4961L85.7075 58.9973L84.4952 76.6374L50.1577 72.3282L56.621 55.4961Z" fill="#DFDEFE"/>
<path d="M68.8053 87.7188C68.7889 88.3543 68.7724 88.9898 68.756 89.6143C68.756 89.6745 68.7505 89.7293 68.7505 89.7896V89.7951C68.7505 89.8608 68.7451 89.9266 68.7451 89.9923V90.069C68.7122 90.9674 68.6848 91.8494 68.6519 92.7095C68.6464 92.7643 68.6464 92.8136 68.641 92.8629C68.641 92.9615 68.6355 93.0601 68.63 93.1587C68.4438 97.9139 68.1972 101.908 68.0493 104.05H31.1201C28.4631 100.686 23.4559 93.9421 20.1744 87.1052C18.4761 83.5772 17.2435 80.0327 17.0299 76.9046C16.2245 65.192 31.9801 54.1477 31.9801 54.1477L32.0459 54.1423L44.6843 52.9863C44.6843 52.9863 44.9363 53.0192 45.3801 53.0795H45.3965C45.5116 53.0959 45.6376 53.1178 45.78 53.1342C45.8676 53.1507 45.9663 53.1616 46.0649 53.1781C48.2398 53.5013 52.6498 54.2518 56.9119 55.5283C56.9174 55.5337 56.9174 55.5337 56.9229 55.5337H56.9338C57.8377 55.8022 58.7307 56.098 59.5908 56.4158C59.9195 56.5363 60.2427 56.6623 60.5605 56.7938C60.5605 56.7938 60.5659 56.7992 60.5714 56.7992C61.07 56.991 61.5466 57.2046 62.0122 57.4292C62.0177 57.4238 62.0232 57.4238 62.0287 57.4292C63.6667 58.1962 65.0746 59.0727 66.0497 60.0753C66.7016 60.7436 67.2111 62.0201 67.611 63.7293C67.7535 64.3319 67.8795 64.9893 67.9945 65.696C68.4054 68.1996 68.6464 71.3058 68.7724 74.664C68.7834 74.916 68.7889 75.168 68.7998 75.4255C68.7998 75.4967 68.8053 75.5679 68.8053 75.6391C68.9258 79.5397 68.8984 83.7361 68.8053 87.7188Z" fill="#DFDEFE"/>
<path d="M88.5995 64.0348C93.1717 65.406 97.5725 61.7454 97.5725 61.7454L97.8387 51.124L92.9077 52.3375L85.4813 54.1601L85.6232 58.3614L85.6818 60.035L84.6683 60.0405C84.6683 60.0405 84.0274 62.6635 88.5995 64.0348Z" fill="#FFA3A3"/>
<path d="M118.262 104.05C118.262 104.05 70.8909 104.05 70.8603 104.05C70.2659 103.868 70.3584 94.8083 70.3162 93.9674C70.0544 88.7575 69.9404 83.592 70.0456 78.3707C70.0955 75.9109 70.1114 73.4457 70.2604 70.9892C70.3447 69.5939 70.2204 67.3954 71.0547 66.1738C71.167 66.0094 71.3149 65.8505 71.4881 65.6971C71.7329 65.4725 72.0386 65.2589 72.3903 65.0562C73.6087 64.3385 75.4034 63.703 77.3104 63.1662C81.7106 61.9226 86.7172 61.1995 86.7172 61.1995L87.0947 61.1556L87.8392 61.068L99.0609 59.7696L101.452 59.4902C101.452 59.4902 101.514 59.5231 101.631 59.5779C102.411 59.9833 105.582 61.6103 107.086 62.1746C108.81 62.821 114.831 64.4481 116.962 68.4473C118.752 71.8049 118.415 96.3203 118.262 104.05Z" fill="#6F66FF"/>
<path d="M85.4813 54.1605L85.6232 58.3618C86.5797 58.8686 87.8167 58.9261 88.9134 58.7316C91.7819 58.2194 94.3643 56.3086 95.6917 53.7135L94.5796 53.7891C94.2033 53.1158 93.61 52.6518 92.9077 52.3379L85.4813 54.1605Z" fill="#2D1026"/>
<path d="M77.0792 45.7778C77.2107 48.2124 77.0009 51.9962 79.6321 54.6159C83.5579 58.5253 97.3473 54.7551 97.3473 54.7551C97.3473 54.7551 97.4645 52.6624 97.8371 51.1219C97.8135 51.4681 100.785 51.3202 101.073 51.2435C101.984 51.0079 102.82 50.5061 103.436 49.7989C104.688 48.3553 104.741 46.1196 103.367 44.7249C102.728 44.074 101.769 43.5892 100.835 43.7103C100.506 43.7536 99.7101 43.9278 99.3617 44.2565C99.268 44.3376 99.2088 44.4334 99.1929 44.537C99.4893 42.6826 99.6701 40.9164 99.5879 39.6454C99.3085 35.4096 95.964 30.8067 90.2759 29.9849C89.4772 29.8715 88.7003 29.8162 87.9427 29.8096C87.7137 29.8031 87.4935 29.802 87.2683 29.8129C87.1626 29.8146 87.0558 29.825 86.9495 29.831C86.9051 29.8327 86.8613 29.8337 86.8213 29.8398C86.7862 29.842 86.7501 29.848 86.715 29.8502C86.5906 29.8595 86.4668 29.8688 86.3425 29.882C83.2533 30.2046 80.5612 31.7577 78.9046 34.3709C77.8538 36.0324 77.3433 37.9247 77.1241 39.8755C76.9034 41.8444 76.974 43.8708 77.0792 45.7778Z" fill="#FFA3A3"/>
<path d="M87.1084 44.4815C87.0755 45.0392 87.5006 45.518 88.0577 45.5509C88.6154 45.5843 89.0942 45.1592 89.1271 44.6015C89.16 44.0438 88.7354 43.565 88.1777 43.5321C87.6206 43.4987 87.1418 43.9238 87.1084 44.4815Z" fill="#2D1026"/>
<path d="M78.9227 44.1924C78.8893 44.7501 79.3144 45.2289 79.8721 45.2618C80.4298 45.2947 80.9086 44.8701 80.9414 44.3124C80.9749 43.7547 80.5497 43.2759 79.992 43.2431C79.4349 43.2096 78.9561 43.6348 78.9227 44.1924Z" fill="#2D1026"/>
<path d="M98.4868 49.6952C98.5388 49.7002 98.5881 49.6668 98.6013 49.6147C98.7804 48.908 99.0182 48.0879 99.4263 47.3648C99.726 46.835 100.254 46.1234 101.07 45.7465C101.808 45.4063 102.644 45.4348 103.252 45.8215C103.302 45.8539 103.368 45.8391 103.4 45.7887C103.432 45.7388 103.417 45.6725 103.367 45.6407C102.698 45.2151 101.783 45.1811 100.981 45.552C100.112 45.953 99.554 46.7019 99.2395 47.2596C98.8188 48.0046 98.5755 48.8412 98.3936 49.5616C98.3789 49.6191 98.4139 49.6777 98.4714 49.692C98.4764 49.6936 98.4819 49.6947 98.4868 49.6952Z" fill="#2D1026"/>
<path d="M83.863 48.8407C83.8565 48.8407 83.8504 48.8407 83.8438 48.8396C82.6846 48.6709 81.9577 48.2446 81.6821 47.5708C81.4696 47.052 81.5736 46.4697 81.7177 45.918C81.9779 44.9199 82.328 43.9387 82.758 43.0013C82.7882 42.9356 82.8665 42.9066 82.9328 42.9367C82.9991 42.9674 83.0281 43.0452 82.9975 43.1115C82.574 44.0351 82.2288 45.0015 81.9725 45.9843C81.8492 46.4571 81.7336 47.0005 81.9259 47.4711C82.1636 48.0523 82.8216 48.4249 83.8816 48.5783C83.9534 48.5892 84.0038 48.6561 83.9934 48.7278C83.9841 48.7936 83.9277 48.8407 83.863 48.8407Z" fill="#2D1026"/>
<path d="M83.8329 49.9651C83.5475 49.9651 83.262 49.913 82.9947 49.8045C82.9268 49.7772 82.8945 49.7005 82.9218 49.6325C82.9492 49.5651 83.0265 49.5312 83.0933 49.5602C83.9759 49.9185 85.0797 49.5767 85.6051 48.7807C85.6451 48.7193 85.7273 48.704 85.7875 48.7434C85.8484 48.7834 85.8648 48.8656 85.8248 48.9264C85.3926 49.5827 84.6114 49.9651 83.8329 49.9651Z" fill="#2D1026"/>
<path d="M87.0754 46.0365C87.0579 46.0365 87.0409 46.0294 87.0278 46.0162C86.7555 45.7325 86.5347 45.3884 86.389 45.0219C86.3759 44.9874 86.3917 44.9496 86.4257 44.9365C86.4597 44.9228 86.498 44.9392 86.5112 44.9726C86.6509 45.3243 86.8629 45.653 87.1231 45.9253C87.1483 45.9516 87.1472 45.9932 87.1209 46.0184C87.1083 46.031 87.0919 46.0365 87.0754 46.0365Z" fill="#2D1026"/>
<path d="M80.7387 45.9056C80.7278 45.9056 80.7168 45.9028 80.7064 45.8968C80.6746 45.8793 80.6631 45.8393 80.6812 45.8075L81.0937 45.0723C81.1112 45.0395 81.1507 45.0285 81.1835 45.0471C81.2153 45.0647 81.2268 45.1047 81.2087 45.1364L80.7962 45.8716C80.7842 45.8941 80.7617 45.9056 80.7387 45.9056Z" fill="#2D1026"/>
<path d="M82.8046 51.5913C82.7854 51.5913 82.7668 51.5831 82.7536 51.5678C82.1083 50.7882 81.8338 49.7293 82.0196 48.7338C82.0261 48.6982 82.0601 48.673 82.0962 48.6812C82.1324 48.6878 82.1554 48.7223 82.1488 48.7585C81.9702 49.715 82.2343 50.7334 82.855 51.4834C82.8785 51.5119 82.8742 51.553 82.8462 51.5765C82.8342 51.5864 82.8194 51.5913 82.8046 51.5913Z" fill="#2D1026"/>
<path d="M87.4874 51.956C87.4507 51.956 87.4211 51.9258 87.4217 51.8897C87.4294 50.3947 86.7457 48.9331 85.5925 47.9804C85.5646 47.9574 85.5602 47.9157 85.5837 47.8878C85.6067 47.8593 85.6489 47.8549 85.6763 47.8785C86.8596 48.8558 87.5614 50.3558 87.5532 51.8902C87.5532 51.9264 87.5241 51.956 87.4874 51.956Z" fill="#2D1026"/>
<path d="M77.7487 41.8834C77.9344 42.2434 78.3179 42.4707 78.7145 42.554C79.1112 42.6372 79.5226 42.5951 79.9225 42.5304C80.1487 42.4943 80.3734 42.451 80.5969 42.4011C80.9135 42.3304 81.2362 42.2417 81.4926 42.0428C82.7701 41.0535 81.2839 39.5765 80.1192 39.5305C79.0438 39.4883 77.0716 40.5719 77.7487 41.8834Z" fill="#FEDEDE"/>
<path d="M90.3083 41.6621C90.1352 42.028 89.7599 42.2686 89.3666 42.3655C88.9732 42.4625 88.5602 42.4345 88.1586 42.3841C87.9312 42.3557 87.705 42.32 87.4798 42.2779C87.161 42.2182 86.8356 42.1404 86.5721 41.9514C85.2606 41.0069 86.6948 39.479 87.8573 39.393C88.9305 39.3141 90.9394 40.3281 90.3083 41.6621Z" fill="#FEDEDE"/>
<path d="M101.539 43.7435C100.816 43.7287 100.816 43.829 100.124 44.0218C99.4258 44.2196 98.7668 44.6573 98.4759 45.3169C98.3783 45.5437 98.3219 45.7941 98.1888 45.9979C98.0551 46.2071 97.8081 46.3726 97.5692 46.3057C97.4027 46.2592 97.2893 46.1206 97.1808 45.9825C96.536 45.1537 95.8507 44.2059 95.9526 43.1552C96.0019 42.6616 96.2188 42.1033 95.9301 41.6957C95.6217 41.2712 94.9648 41.3024 94.5726 40.9578C94.0395 40.4889 94.2565 39.6403 94.4279 38.9528C94.7161 37.7859 94.6783 36.4158 93.8396 35.5595C93.2408 34.9443 92.3237 34.7175 91.4653 34.769C90.6068 34.815 89.7823 35.101 88.9683 35.3875C87.6151 35.8597 86.2406 36.3413 84.8053 36.4075C83.3755 36.4738 81.8552 36.0755 80.8795 35.027C80.5163 34.6364 80.2057 34.1488 79.6979 33.9823C79.5215 33.9248 79.3369 33.9193 79.1561 33.9407C79.247 33.9297 79.5626 33.3353 79.6278 33.2465C79.8644 32.9255 80.1181 32.6171 80.3865 32.3218C81.0773 31.5636 81.87 30.8947 82.7493 30.365C86.4006 28.1649 90.9881 28.3577 94.9445 29.5104C96.072 29.8391 97.2 30.257 98.1258 30.9752C99.9265 32.3722 100.724 34.7049 101.065 36.9537C101.412 39.2092 101.554 41.092 101.539 43.7435Z" fill="#FEDEDE"/>
<path d="M85.506 57.4418L89.9094 60.0533L97.6355 53.8623L100.389 59.5718L94.5671 68.2544L90.4704 62.0414L88.6955 68.7288L84.3588 61.1983L85.506 57.4418Z" fill="#FFCB7D"/>
<path d="M106.43 104.052H106.167L105.91 75.2028C105.91 75.1316 105.965 75.0713 106.041 75.0713C106.113 75.0713 106.173 75.1316 106.173 75.2028L106.43 104.052Z" fill="#2D1026"/>
<path d="M31.9117 54.6214L47.1277 66.5389L46.0506 53.0059L31.9117 54.6214Z" fill="#FEDEDE"/>
<path d="M41.6066 57.2456C36.76 58.7275 32.0662 54.8658 32.0662 54.8658L31.7232 43.5898L36.9654 44.8504L44.8607 46.7437L44.7342 51.2058L44.6816 52.9829H45.7575C45.7575 52.9829 46.4538 55.7637 41.6066 57.2456Z" fill="#FFA3A3"/>
<path d="M44.8618 46.7443L44.7353 51.2064C43.7229 51.7498 42.4092 51.8183 41.244 51.6178C38.1958 51.0903 35.4424 49.0759 34.0186 46.328L35.2003 46.4019C35.5958 45.6848 36.2236 45.189 36.967 44.8516L44.8618 46.7443Z" fill="#2D1026"/>
<path d="M53.735 37.8009C53.609 40.3867 53.8534 44.4029 51.0748 47.1995C46.9282 51.3729 32.2661 47.4482 32.2661 47.4482C32.2661 47.4482 32.1297 45.2273 31.7254 43.5937C31.7522 43.9613 28.5956 43.8211 28.2905 43.7411C27.3225 43.4957 26.4317 42.9681 25.7738 42.2208C24.4365 40.6951 24.3669 38.3214 25.8176 36.8329C26.4931 36.1383 27.5087 35.6178 28.5009 35.7411C28.8504 35.7855 29.6968 35.9652 30.0687 36.313C30.1685 36.3985 30.232 36.4999 30.2495 36.6094C29.9241 34.6422 29.7225 32.7675 29.8025 31.4182C30.0753 26.9194 33.6001 22.013 39.635 21.108C40.4825 20.9831 41.3064 20.9196 42.1112 20.9086C42.3538 20.9004 42.5878 20.8976 42.8272 20.9086C42.9395 20.9097 43.0529 20.9201 43.1657 20.9261C43.2128 20.9272 43.2594 20.9289 43.3021 20.9349C43.3399 20.9371 43.3777 20.9436 43.415 20.9453C43.547 20.9546 43.6785 20.9634 43.8105 20.9771C47.0926 21.3025 49.9594 22.9361 51.7333 25.701C52.858 27.459 53.4113 29.4651 53.655 31.5354C53.8999 33.6237 53.8358 35.7756 53.735 37.8009Z" fill="#FFA3A3"/>
<path d="M46.6242 40.3862C46.5541 40.3862 46.4955 40.3315 46.4928 40.2608C46.4895 40.1879 46.5459 40.1266 46.6188 40.1233C46.965 40.1085 47.3238 40.0926 47.6503 39.9825C47.9976 39.8647 48.2611 39.645 48.3729 39.3782C48.489 39.1016 48.4518 38.7756 48.3937 38.465C48.1905 37.3726 47.7577 36.3049 47.1436 35.3774C47.1036 35.3172 47.12 35.235 47.1808 35.195C47.24 35.155 47.3233 35.1703 47.3638 35.2317C47.9976 36.1877 48.4436 37.2894 48.6534 38.4168C48.7186 38.7679 48.7597 39.1399 48.6161 39.4801C48.4748 39.816 48.1538 40.0899 47.7352 40.2312C47.3726 40.3539 46.9951 40.3703 46.6303 40.3857C46.6281 40.3862 46.6259 40.3862 46.6242 40.3862Z" fill="#2D1026"/>
<path d="M47.0082 42.2433C46.92 42.2433 46.8318 42.24 46.7436 42.2329C46.0188 42.1759 45.316 41.8839 44.7648 41.4106C44.7095 41.3629 44.7035 41.2802 44.7506 41.2243C44.7983 41.1696 44.8815 41.163 44.9363 41.2107C45.4453 41.6478 46.0944 41.9174 46.7639 41.9699C47.4328 42.0209 48.1165 41.8571 48.6879 41.5043C48.7498 41.4665 48.8314 41.4851 48.8692 41.5476C48.9075 41.6089 48.8884 41.6905 48.8265 41.7289C48.2836 42.0642 47.6464 42.2433 47.0082 42.2433Z" fill="#2D1026"/>
<path d="M39.3326 33.1604C39.0691 33.4743 38.9321 33.8852 39.1387 34.2232C39.3348 34.5442 39.8026 34.7272 40.2617 34.7551C40.7208 34.7831 41.1749 34.6817 41.6099 34.5656C41.9655 34.4708 42.321 34.364 42.6223 34.1903C42.9236 34.0172 43.169 33.7685 43.2277 33.482C43.3098 33.0815 43.0014 32.6717 42.5538 32.4602C41.491 31.9584 39.9725 32.3983 39.3326 33.1604Z" fill="#2D1026"/>
<path d="M49.1453 32.0305C48.8002 32.2513 48.5465 32.6024 48.6424 32.987C48.7339 33.3524 49.1256 33.6663 49.5551 33.8301C49.9846 33.9939 50.4486 34.0328 50.8984 34.052C51.266 34.0679 51.6374 34.0717 51.9765 33.9961C52.3161 33.9211 52.624 33.7567 52.7659 33.5009C52.9637 33.1437 52.7922 32.6605 52.4279 32.3247C51.5645 31.5281 49.984 31.4936 49.1453 32.0305Z" fill="#2D1026"/>
<path d="M43.0786 36.4798C43.117 37.0715 42.6683 37.5826 42.0766 37.621C41.485 37.6593 40.9739 37.2107 40.9355 36.619C40.8972 36.0274 41.3458 35.5162 41.9375 35.4779C42.5297 35.4395 43.0403 35.8882 43.0786 36.4798Z" fill="#2D1026"/>
<path d="M51.7683 36.1263C51.8067 36.718 51.358 37.2291 50.7663 37.2675C50.1747 37.3058 49.6636 36.8571 49.6252 36.2655C49.5869 35.6738 50.0355 35.1627 50.6272 35.1244C51.2194 35.086 51.73 35.5347 51.7683 36.1263Z" fill="#2D1026"/>
<path d="M31.0269 42.0804C30.9716 42.0858 30.9196 42.0508 30.9053 41.9954C30.7114 41.246 30.4539 40.3766 30.0167 39.6113C29.6957 39.0503 29.1309 38.2981 28.262 37.9021C27.477 37.5449 26.589 37.5799 25.9458 37.9941C25.8932 38.0286 25.8225 38.0133 25.7886 37.9601C25.7546 37.907 25.77 37.8369 25.8225 37.8029C26.5309 37.3471 27.5022 37.306 28.3563 37.695C29.281 38.1157 29.877 38.9079 30.2145 39.4984C30.6654 40.2868 30.9283 41.1743 31.1255 41.9379C31.1414 41.9987 31.1047 42.0612 31.0439 42.0765C31.0384 42.0787 31.0324 42.0798 31.0269 42.0804Z" fill="#2D1026"/>
<path d="M51.2654 25.1368C50.7077 25.7597 49.8482 26.0249 49.0166 26.1098C48.185 26.1952 47.3429 26.1284 46.5119 26.2226C44.8542 26.41 43.2298 27.2312 41.5907 26.9195C41.0555 26.8176 40.5504 26.5979 40.0201 26.4713C39.2767 26.2944 38.4692 26.3108 37.7762 26.6329C37.0832 26.9551 36.526 27.6108 36.4313 28.369C36.2784 29.5879 37.2804 30.7357 37.1128 31.9524C37.0098 32.6985 36.4685 33.3264 35.8265 33.7191C35.1433 34.1366 34.2931 34.3727 33.8548 35.0421C33.3355 35.8354 33.6116 36.8911 33.4281 37.8213C33.3404 38.2667 32.9542 38.774 32.5345 38.6009C32.414 38.551 32.3225 38.4524 32.2349 38.356C31.5846 37.6367 30.931 36.9398 30.1438 36.3739C29.3566 35.808 28.342 35.6234 27.4003 35.8524C26.8618 33.815 26.9932 31.5525 27.2956 29.4663C27.632 27.1457 28.2554 24.726 29.9197 23.0743C31.1721 21.8312 32.883 21.1623 34.5922 20.7235C37.3281 20.0206 40.1932 19.8273 42.9987 20.1549C44.6893 20.3526 46.3777 20.7449 47.8864 21.5337C49.3946 22.3226 50.5461 23.5936 51.2654 25.1368Z" fill="#2D1026"/>
<path d="M59.6735 55.3162L58.6858 68.8717L59.404 84.492L51.1449 91.0451L54.9151 98.9449C54.9151 98.9449 76.281 83.6834 77.2682 76.7714C78.2554 69.8589 69.6375 52.5332 69.6375 52.5332L59.6735 55.3162Z" fill="#FF7373"/>
<path d="M54.2308 74.3482C54.2308 74.3482 48.1039 73.5401 48.0031 74.0786C47.9023 74.6171 48.7438 74.9201 48.7438 74.9201C48.7438 74.9201 47.498 74.8527 47.4646 75.4252C47.4306 75.9977 49.2149 76.2332 49.2149 76.2332C49.2149 76.2332 47.6662 76.4354 47.6328 77.0073C47.5994 77.5798 51.2348 77.8828 51.2348 77.8828C51.2348 77.8828 49.5513 78.0509 49.5513 78.5221C49.5513 78.9932 54.4664 79.3301 55.7116 78.9598C56.9579 78.59 54.2308 74.3482 54.2308 74.3482Z" fill="#FFA3A3"/>
<path d="M64.6106 60.792C64.6106 60.792 60.3014 67.166 58.6858 68.8714C57.0697 70.5768 53.03 73.0908 53.03 73.0908L55.6333 79.8236C55.6333 79.8236 63.2641 79.6439 67.3038 76.861C71.3435 74.078 73.0494 69.0505 73.0494 69.0505L64.6106 60.792Z" fill="#FF7373"/>
<path d="M55.6339 79.9552C55.5796 79.9552 55.5309 79.9217 55.5106 79.8713L52.9073 73.1385C52.8854 73.0815 52.9051 73.0175 52.955 72.9829C53.035 72.9265 60.9906 67.3595 62.5754 65.2465C64.1422 63.1576 64.0316 60.6452 64.0305 60.62C64.0266 60.5472 64.0825 60.4853 64.1548 60.4814C64.2359 60.4836 64.2896 60.534 64.2934 60.6058C64.2989 60.7121 64.4123 63.237 62.7863 65.4048C61.2469 67.457 54.1016 72.5008 53.1905 73.1396L55.7226 79.6878C56.6315 79.6418 63.905 79.1915 68.1973 76.3915C68.2575 76.351 68.3397 76.3691 68.3797 76.4293C68.4197 76.4901 68.4021 76.5723 68.3413 76.6118C63.7187 79.6276 55.7188 79.9524 55.6388 79.9552C55.6371 79.9552 55.6355 79.9552 55.6339 79.9552Z" fill="#2D1026"/>
<path d="M69.3751 53.1963C69.3751 53.1963 64.0074 57.9816 61.7432 57.3834C60.4986 57.0552 59.9962 56.2757 59.7935 55.6396C59.6253 55.1175 59.6637 54.6924 59.6637 54.6924L68.2449 53.3727L69.3751 53.1963Z" fill="#FFA3A3"/>
<path d="M68.2449 53.3711C67.3349 54.6541 65.8032 55.3657 64.295 55.8451C63.2459 56.1771 62.1229 56.4269 61.042 56.2001C60.5972 56.1031 60.1567 55.9119 59.793 55.6386C59.6248 55.1165 59.6631 54.6914 59.6631 54.6914L68.2449 53.3711Z" fill="#2D1026"/>
<path d="M73.4537 50.3057C72.9842 50.87 72.4215 51.1034 71.7252 51.2935C71.5089 51.357 69.7301 51.431 69.7301 51.162C69.6933 51.3203 69.6616 51.4627 69.6353 51.5942C69.6145 51.6945 69.5986 51.7843 69.5827 51.8736C69.5723 51.9262 69.5668 51.9739 69.5564 52.0215C69.4824 52.4012 69.4353 52.6965 69.4085 52.9024C69.3877 53.0925 69.3767 53.1928 69.3767 53.1928C69.3767 53.1928 69.3712 53.1928 69.3608 53.1983C69.2764 53.2246 68.802 53.3774 68.0794 53.5834C68.0794 53.5834 68.0794 53.5834 68.074 53.5834C66.1856 54.1159 62.5836 54.9913 59.6565 54.8598C58.7493 54.8231 57.9106 54.6911 57.2039 54.4221C56.6922 54.2271 56.249 53.9636 55.9066 53.6097C53.8972 51.5477 53.992 48.9526 53.8917 47.0275C53.8178 45.7193 53.7707 44.3377 53.8654 42.9719C53.8758 42.7665 53.8972 42.5605 53.918 42.3551C54.0867 40.8096 54.4719 39.3119 55.2734 37.9932C56.5339 35.9153 58.5855 34.6761 60.9428 34.4066C61.0376 34.3962 61.1329 34.3858 61.2277 34.3803C61.254 34.3803 61.2803 34.3748 61.3066 34.3699C61.3384 34.3644 61.3696 34.3644 61.4069 34.3644C61.4857 34.3589 61.5707 34.3485 61.6496 34.3485C61.8183 34.3381 61.987 34.3381 62.1612 34.343C62.6778 34.343 63.2109 34.3748 63.7543 34.4488C63.8173 34.4542 63.8809 34.4592 63.9439 34.4696C64.3975 34.5331 64.8297 34.6328 65.2411 34.7649C68.7905 35.8463 70.858 39.0686 71.0531 42.0696C71.1111 43.0086 71.0005 44.2845 70.8054 45.6404C70.7896 45.7407 70.7737 45.8409 70.7578 45.9412C70.7682 45.8623 70.8158 45.7828 70.8843 45.7198C70.9161 45.6881 70.9479 45.6618 70.9901 45.6355C70.9901 45.63 70.9955 45.63 71.0005 45.6251C71.3012 45.4246 71.7526 45.3468 71.9712 45.3468C72.8242 45.3468 73.2312 45.5084 73.7215 46.0201C74.7723 47.1163 74.4025 49.1564 73.4537 50.3057Z" fill="#FFA3A3"/>
<path d="M54.6455 45.0223C54.5995 45.0979 54.5639 45.1888 54.6225 45.254C54.697 45.3373 54.8685 45.3269 55.0066 45.3044C55.2635 45.2633 55.5188 45.2129 55.7702 45.1526C55.9225 45.1165 56.0776 45.0749 56.2014 44.9987C56.3257 44.9226 56.4139 44.8031 56.386 44.6914C56.3252 44.4487 55.7533 44.3243 55.4509 44.3873C55.0986 44.4613 54.7858 44.7927 54.6455 45.0223Z" fill="#2D1026"/>
<path d="M63.2049 43.95C63.2717 44.0075 63.333 44.0837 63.2974 44.1642C63.252 44.2661 63.0854 44.3083 62.9468 44.3297C62.6893 44.3691 62.4313 44.3987 62.1733 44.4184C62.0171 44.4305 61.8572 44.4381 61.7153 44.4036C61.574 44.3691 61.4534 44.2825 61.4458 44.1675C61.4293 43.9177 61.9361 43.6246 62.2434 43.5923C62.6022 43.5539 63.0011 43.7747 63.2049 43.95Z" fill="#2D1026"/>
<path d="M59.6056 48.9843C59.1832 48.9843 58.763 48.7372 58.5636 48.3631C58.3615 47.9834 58.3866 47.5462 58.4299 47.131C58.4371 47.0587 58.5072 47.0044 58.5746 47.0137C58.6469 47.0214 58.7 47.0861 58.6918 47.1589C58.6529 47.5336 58.6282 47.9248 58.7959 48.2392C58.9597 48.5471 59.3229 48.7487 59.6631 48.7186C59.7425 48.7219 59.799 48.7679 59.8044 48.8408C59.8094 48.9136 59.7551 48.9766 59.6823 48.9821C59.6571 48.9832 59.6308 48.9843 59.6056 48.9843Z" fill="#2D1026"/>
<path d="M59.8105 50.0859C59.5163 50.0859 59.221 50.0081 58.9685 49.8591C58.906 49.8224 58.8852 49.7413 58.9224 49.6789C58.9597 49.6159 59.0408 49.5967 59.1032 49.6323C59.4292 49.8251 59.8412 49.875 60.2055 49.7643C60.5692 49.6542 60.8837 49.3836 61.0475 49.0412C61.0792 48.9749 61.1576 48.947 61.2233 48.9793C61.2891 49.0105 61.3165 49.0888 61.2852 49.1546C61.0902 49.5627 60.7149 49.8854 60.2816 50.0169C60.1293 50.0629 59.9699 50.0859 59.8105 50.0859Z" fill="#2D1026"/>
<path d="M61.6632 45.9372C61.6495 46.4582 62.0615 46.892 62.5825 46.9052C63.1035 46.9189 63.5374 46.5069 63.5505 45.9859C63.5637 45.4649 63.1522 45.0311 62.6313 45.0179C62.1103 45.0042 61.6769 45.4156 61.6632 45.9372Z" fill="#2D1026"/>
<path d="M55.0942 46.7116C55.0805 47.2331 55.4925 47.6665 56.0135 47.6796C56.5345 47.6933 56.9683 47.2813 56.9815 46.7603C56.9952 46.2388 56.5832 45.8055 56.0622 45.7923C55.5407 45.7786 55.1074 46.1906 55.0942 46.7116Z" fill="#2D1026"/>
<path d="M70.0615 50.0204C70.1026 50.0242 70.1414 49.9974 70.1513 49.9563C70.291 49.3964 70.4767 48.7472 70.7977 48.1737C71.0333 47.7535 71.4491 47.1892 72.0945 46.8884C72.6768 46.6173 73.338 46.6375 73.8212 46.9416C73.8607 46.9662 73.9133 46.9547 73.9379 46.9147C73.9631 46.8753 73.9511 46.8227 73.9116 46.7975C73.3808 46.4628 72.6565 46.4387 72.0227 46.7339C71.3363 47.0539 70.8969 47.6483 70.6493 48.0904C70.3184 48.6809 70.1283 49.3444 69.9864 49.9146C69.9749 49.9601 70.0028 50.0061 70.0483 50.0176C70.0527 50.0193 70.0571 50.0198 70.0615 50.0204Z" fill="#2D1026"/>
<path d="M65.2313 37.0438C64.9568 37.9088 64.4139 38.6632 63.8387 39.3644C63.1742 40.1714 62.399 40.9679 61.397 41.2681C60.3895 41.5634 59.1131 41.1734 58.7493 40.1867C57.4784 41.6423 55.7697 42.9346 53.8654 42.9768C53.8758 42.7714 53.8972 42.5654 53.918 42.3599C54.0867 40.8145 54.4719 39.3168 55.2733 37.9981C56.5339 35.9202 58.5855 34.681 60.9428 34.4115C61.0376 34.4011 61.1329 34.3907 61.2277 34.3852C61.254 34.3852 61.2803 34.3797 61.3066 34.3748C61.3384 34.3693 61.3696 34.3693 61.4069 34.3693C61.4857 34.3638 61.5707 34.3534 61.6495 34.3534C61.8183 34.343 61.987 34.343 62.1612 34.3479C62.6778 34.3479 63.2109 34.3797 63.7543 34.4537C63.8173 34.4591 63.8809 34.4641 63.9439 34.4745C64.3975 34.538 64.8297 34.6377 65.2411 34.7698C65.5583 35.4091 65.3945 36.5272 65.2313 37.0438Z" fill="#2D1026"/>
<path d="M70.9906 45.6421C70.9906 45.6362 70.9965 45.6362 71.0019 45.6309C71.0019 45.6368 70.9959 45.6368 70.9959 45.6421H70.9906Z" fill="#2D1026"/>
<path d="M70.806 45.6457C67.6308 45.6879 64.4873 44.0159 62.7682 41.3475C62.0089 40.1663 61.5131 38.7475 61.7607 37.3653C61.9613 36.2209 62.7419 35.1608 63.7543 34.4541C63.8173 34.4596 63.8809 34.4645 63.9439 34.4749C68.2843 35.0973 70.8372 38.7261 71.0536 42.075C71.1117 43.014 71.001 44.2904 70.806 45.6457Z" fill="#2D1026"/>
<path d="M68.6919 45.2984C68.6919 45.2984 69.5777 47.1632 69.9508 46.8838C70.3239 46.6038 70.8367 45.4386 70.8367 45.4386L70.9298 44.1797L68.785 45.0655" fill="#2D1026"/>
<path d="M62.8153 83.0335C62.8153 83.0335 68.6727 75.6274 69.2118 74.8867C69.7503 74.1461 73.0493 63.6425 73.9248 63.8447C74.8002 64.0468 74.1269 70.9813 74.1269 70.9813L75.6532 66.9416C75.6532 66.9416 77.0896 68.0186 77.2917 69.0962C77.4939 70.1738 76.8206 71.5872 76.8206 71.5872C76.8206 71.5872 77.7634 71.7893 78.0324 72.7316C78.3019 73.6744 77.7629 75.0883 77.7629 75.0883C77.7629 75.0883 78.7731 75.6269 78.7731 76.5697C78.7731 77.5125 68.6064 89.968 68.6064 89.968L62.8153 83.0335Z" fill="#FFA3A3"/>
<path d="M69.7257 91.4938L68.641 92.8633L66.8934 95.0711L59.788 104.05H29.1862C26.1074 98.7032 21.6316 90.7432 20.1744 87.1056C19.9443 86.5414 19.7909 86.0757 19.7252 85.747C19.1116 82.608 32.8512 78.4773 36.8613 77.3433C36.9544 77.3159 37.0421 77.2885 37.1243 77.2666C37.6447 77.1187 37.946 77.042 37.946 77.042L46.1197 92.3922L59.3607 83.5886L61.0042 82.4984L62.9928 81.1726L63.579 82.0711L66.614 86.7276V86.7386L67.8356 88.5957L68.6738 89.8831V89.8886L68.745 89.9927L69.7257 91.4938Z" fill="#DFDEFE"/>
<path d="M69.9229 91.5309L68.63 93.158L66.9043 95.3274L59.9688 104.049H59.6401L66.8879 94.922L68.6519 92.7088L69.6545 91.4433L68.7451 90.0682L68.6464 89.9203L67.7918 88.6384L66.6195 86.8744L63.4968 82.174V82.1685L62.96 81.3577L59.3826 84.0366L46.4648 93.7113C46.4374 93.7332 46.399 93.7387 46.3607 93.7332C46.3223 93.7277 46.2895 93.7003 46.273 93.6675L36.8613 77.3421L35.0973 74.2797C35.059 74.214 35.0809 74.1373 35.1466 74.0989C35.2069 74.0606 35.289 74.0825 35.3274 74.1483L37.1243 77.2654L46.4264 93.41L59.3717 83.7189L61.0042 82.4972L62.9161 81.0619C62.9435 81.04 62.9819 81.0345 63.0202 81.04C63.0531 81.0454 63.086 81.0673 63.1024 81.0947L63.6721 81.9494L66.603 86.3649L66.6085 86.3703L67.989 88.4576L68.756 89.6135L68.8217 89.7066L69.9284 91.3775C69.9612 91.4214 69.9558 91.4871 69.9229 91.5309Z" fill="#2D1026"/>
<path d="M89.3857 28.2906L89.3753 28.3273C89.3753 28.3273 89.2273 28.2851 88.8849 28.2588C89.0531 28.2643 89.2169 28.2752 89.3857 28.2906Z" fill="#FEDEDE"/>
<path d="M217.553 99.0057C217.553 100.275 217.542 101.472 217.525 102.574V102.596C217.492 104.8 217.442 106.623 217.386 107.864H149C149.246 101.332 150.292 78.6209 153.508 69.1528C157.288 58.0292 171.476 55.3895 173.971 53.969C174.955 53.4041 176.202 52.6324 177.354 51.9054C179.127 50.7812 180.671 49.7578 180.671 49.7578C180.671 49.7578 194.132 50.2835 196.212 52.2465C196.307 52.3416 196.38 52.4366 196.425 52.5373C196.464 52.6156 196.509 52.6939 196.565 52.7778C196.744 53.0406 197.04 53.3426 197.426 53.6782C197.482 53.7229 197.543 53.7733 197.605 53.8236C198.231 54.3437 199.064 54.9365 200.032 55.5796C201.329 56.4577 202.873 57.4252 204.472 58.4486C204.472 58.4542 204.472 58.4542 204.472 58.4542C205.384 59.0358 206.324 59.6398 207.241 60.255C209.181 61.5413 211.06 62.8667 212.57 64.153C212.654 64.2201 212.733 64.2928 212.811 64.3599C213.119 64.6284 213.409 64.8968 213.683 65.1597C213.706 65.182 213.723 65.1988 213.739 65.2212C214.187 65.6798 214.578 66.418 214.925 67.3799C215.501 68.9626 215.954 71.1605 216.312 73.733C216.647 76.1322 216.899 78.8502 217.089 81.6968C217.47 87.5075 217.576 93.8382 217.553 99.0057Z" fill="#FEDEDE"/>
<path d="M177.902 68.8823C177.522 81.8794 177.097 94.8652 176.666 107.862H149C149.246 101.33 150.292 78.6189 153.508 69.1507C157.288 58.0272 171.476 55.3875 173.971 53.967C174.955 53.4021 176.202 52.6304 177.354 51.9033C177.975 53.4469 178.003 55.449 178.048 57.7699C178.115 61.4722 178.014 65.18 177.902 68.8823Z" fill="#DFDEFE"/>
<path d="M165.912 75.7851L165.017 107.864H164.732L165.627 75.7795C165.632 75.7012 165.705 75.6396 165.778 75.6396C165.856 75.6396 165.917 75.7068 165.912 75.7851Z" fill="#2D1026"/>
<path d="M217.553 99.0034C217.553 100.273 217.542 101.47 217.525 102.571V102.594C217.492 104.797 217.442 106.62 217.386 107.862H197.745C197.65 102.504 197.582 97.1523 197.532 91.8002V91.5038C197.526 91.1962 197.521 90.8887 197.521 90.5811C197.487 86.3979 197.471 82.2202 197.465 78.0426C197.459 76.0405 197.459 74.0439 197.465 72.0418C197.465 71.2253 197.471 70.4144 197.471 69.5979C197.471 69.2623 197.471 68.9212 197.476 68.5856V68.3116C197.476 67.702 197.482 67.098 197.482 66.4884C197.493 63.9662 197.51 61.4495 197.532 58.9273V58.7315C197.538 57.1265 197.465 55.4487 197.605 53.8213C198.231 54.3414 199.064 54.9342 200.032 55.5773C201.329 56.4554 202.873 57.4229 204.472 58.4463C204.472 58.4519 204.472 58.4519 204.472 58.4519C205.384 59.0335 206.324 59.6375 207.241 60.2527C209.181 61.539 211.06 62.8644 212.57 64.1507C212.654 64.2178 212.733 64.2905 212.811 64.3576C213.118 64.6261 213.409 64.8945 213.683 65.1574C213.706 65.1797 213.722 65.1965 213.739 65.2189C214.187 65.6775 214.578 66.4157 214.925 67.3776C215.501 68.9603 215.954 71.1582 216.312 73.7307C216.647 76.1299 216.899 78.8479 217.089 81.6945C217.469 87.5052 217.576 93.8359 217.553 99.0034Z" fill="#DFDEFE"/>
<path d="M196.853 16.0501C197.646 15.9847 198.456 15.9511 199.224 16.1586C199.991 16.3666 200.72 16.8515 201.043 17.578C201.223 17.9806 201.293 18.4689 201.643 18.7373C201.894 18.9303 202.231 18.9588 202.547 18.9879C204.091 19.131 205.683 19.5052 206.867 20.5068C208.051 21.5084 208.696 23.2723 208.026 24.671C207.801 25.143 207.44 25.5574 207.318 26.0663C207.155 26.7458 207.447 27.4527 207.41 28.1512C207.33 29.6428 205.829 30.6304 204.418 31.1214C201.625 32.094 198.505 32.0985 195.708 31.1343C192.912 30.1696 190.459 28.2424 188.859 25.7548C187.971 24.3746 187.354 22.8495 186.708 21.3479C186.195 20.155 184.98 18.7306 186.669 18.13C189.859 16.9964 193.489 16.3286 196.853 16.0501Z" fill="#2D1026"/>
<path d="M196.214 44.9808V52.325C196.214 52.325 194.718 54.9607 189.228 55.5306C183.738 56.1061 180.672 49.7557 180.672 49.7557C180.672 49.7557 180.817 48.4767 181.029 47.4773C181.242 46.478 181.275 41.0996 181.275 41.0996L183.949 41.792L196.214 44.9808Z" fill="#FFA3A3"/>
<g opacity="0.46">
<path d="M196.214 44.9808V52.325C196.214 52.325 194.718 54.9607 189.228 55.5306C183.738 56.1061 180.672 49.7557 180.672 49.7557C180.672 49.7557 180.817 48.4767 181.029 47.4773C181.242 46.478 181.275 41.0996 181.275 41.0996L183.949 41.792L196.214 44.9808Z" fill="#2D1026"/>
</g>
<g opacity="0.59">
<path d="M196.214 44.9795V50.0223C195.21 50.3908 194.12 50.525 193.042 50.5306C191.456 50.5362 189.854 50.2571 188.418 49.5866C186.977 48.9166 185.704 47.844 184.922 46.4704C184.307 45.3983 184.118 44.2754 183.905 43.0802C183.833 42.6781 183.66 42.3487 183.849 41.9578C183.877 41.9019 183.911 41.8404 183.95 41.79L196.214 44.9795Z" fill="#2D1026"/>
</g>
<path d="M203.983 31.1044C204.011 33.2547 203.732 35.4325 203.424 37.4821C203.324 38.1577 203.24 38.9395 203.117 39.7661C202.76 42.1228 202.096 44.8704 199.867 46.7641C196.818 49.3612 189.379 47.641 184.933 46.2781C182.844 45.6416 181.415 45.0774 181.415 45.0774C181.415 45.0774 181.504 42.8046 181.275 41.1011C181.264 41.4808 178.187 41.0116 177.896 40.8997C176.975 40.548 176.154 39.9221 175.584 39.0956C174.428 37.4033 174.602 34.9851 176.176 33.6166C176.908 32.9857 177.958 32.5612 178.913 32.7844C179.253 32.8683 180.063 33.1362 180.393 33.5271C180.482 33.6277 180.532 33.7334 180.538 33.8509C180.421 31.818 180.415 29.8914 180.628 28.5229C181.353 23.9767 185.302 19.3528 191.306 19.0564C192.149 19.0172 192.965 19.0396 193.752 19.1067C193.992 19.1235 194.221 19.1459 194.456 19.185C194.568 19.1962 194.673 19.2186 194.785 19.2353C194.83 19.2409 194.88 19.2465 194.919 19.2577C194.953 19.2633 194.992 19.2745 195.031 19.2801C195.154 19.3024 195.282 19.3248 195.411 19.3528C198.594 20.0228 201.236 21.9779 202.693 24.971C203.62 26.8764 203.955 28.9764 203.983 31.1044Z" fill="#FFA3A3"/>
<g opacity="0.46">
<path d="M203.983 31.1044C204.011 33.2547 203.732 35.4325 203.424 37.4821C203.324 38.1577 203.24 38.9395 203.117 39.7661C202.76 42.1228 202.096 44.8704 199.867 46.7641C196.818 49.3612 189.379 47.641 184.933 46.2781C182.844 45.6416 181.415 45.0774 181.415 45.0774C181.415 45.0774 181.504 42.8046 181.275 41.1011C181.264 41.4808 178.187 41.0116 177.896 40.8997C176.975 40.548 176.154 39.9221 175.584 39.0956C174.428 37.4033 174.602 34.9851 176.176 33.6166C176.908 32.9857 177.958 32.5612 178.913 32.7844C179.253 32.8683 180.063 33.1362 180.393 33.5271C180.482 33.6277 180.532 33.7334 180.538 33.8509C180.421 31.818 180.415 29.8914 180.628 28.5229C181.353 23.9767 185.302 19.3528 191.306 19.0564C192.149 19.0172 192.965 19.0396 193.752 19.1067C193.992 19.1235 194.221 19.1459 194.456 19.185C194.568 19.1962 194.673 19.2186 194.785 19.2353C194.83 19.2409 194.88 19.2465 194.919 19.2577C194.953 19.2633 194.992 19.2745 195.031 19.2801C195.154 19.3024 195.282 19.3248 195.411 19.3528C198.594 20.0228 201.236 21.9779 202.693 24.971C203.62 26.8764 203.955 28.9764 203.983 31.1044Z" fill="#2D1026"/>
</g>
<path d="M203.117 39.7647C202.76 42.1214 202.096 44.869 199.867 46.7626C196.818 49.3598 189.379 47.6396 184.933 46.2766C184.252 45.5619 183.8 44.6235 183.437 43.6962C182.37 40.9766 181.823 38.0612 181.839 35.1402C182.337 35.1178 182.761 34.9003 183.258 34.8779C184.788 36.9052 187.033 38.6143 189.568 38.659C191.272 38.687 192.886 37.9723 194.556 37.6597C197.538 37.1066 200.738 37.894 203.117 39.7647Z" fill="#2D1026"/>
<path d="M191.64 35.4377C192.246 35.4377 192.737 34.9464 192.737 34.3404C192.737 33.7344 192.246 33.2432 191.64 33.2432C191.034 33.2432 190.543 33.7344 190.543 34.3404C190.543 34.9464 191.034 35.4377 191.64 35.4377Z" fill="#2D1026"/>
<path d="M200.454 35.4377C201.06 35.4377 201.551 34.9464 201.551 34.3404C201.551 33.7344 201.06 33.2432 200.454 33.2432C199.848 33.2432 199.356 33.7344 199.356 34.3404C199.356 34.9464 199.848 35.4377 200.454 35.4377Z" fill="#2D1026"/>
<path d="M180.971 39.5005C180.915 39.5005 180.865 39.4591 180.856 39.4015C180.737 38.6191 180.566 37.7086 180.201 36.8854C179.934 36.2814 179.437 35.4582 178.595 34.9649C177.835 34.5203 176.928 34.4633 176.231 34.8167C176.174 34.8463 176.104 34.8234 176.074 34.7658C176.045 34.7082 176.068 34.6383 176.125 34.6092C176.892 34.2194 177.884 34.2787 178.712 34.7636C179.608 35.2876 180.132 36.155 180.413 36.7903C180.79 37.6387 180.964 38.5682 181.086 39.3657C181.096 39.4289 181.051 39.4887 180.988 39.4982C180.983 39.4999 180.977 39.5005 180.971 39.5005Z" fill="#2D1026"/>
<path d="M193.149 39.4129C192.462 39.9481 191.874 40.7439 191.952 41.6113C192.014 42.2886 192.481 42.8781 193.057 43.241C193.632 43.6034 194.307 43.7712 194.975 43.9004C195.917 44.0832 196.883 44.2013 197.837 44.0888C199.385 43.906 201.407 42.9038 200.963 41.0353C200.812 40.4017 200.411 39.848 199.922 39.4168C197.988 37.7072 195.15 37.8537 193.149 39.4129Z" fill="#FFA3A3"/>
<g opacity="0.46">
<path d="M193.149 39.4129C192.462 39.9481 191.874 40.7439 191.952 41.6113C192.014 42.2886 192.481 42.8781 193.057 43.241C193.632 43.6034 194.307 43.7712 194.975 43.9004C195.917 44.0832 196.883 44.2013 197.837 44.0888C199.385 43.906 201.407 42.9038 200.963 41.0353C200.812 40.4017 200.411 39.848 199.922 39.4168C197.988 37.7072 195.15 37.8537 193.149 39.4129Z" fill="#2D1026"/>
</g>
<path d="M183.25 35.8768C183.653 36.0457 184.131 35.8992 184.47 35.6235C184.807 35.3478 185.033 34.9619 185.253 34.5844C185.717 33.7824 186.188 32.967 186.412 32.0683C186.671 31.0337 186.647 29.8156 187.438 29.1004C187.91 28.6731 188.567 28.5372 189.162 28.3124C190.686 27.7358 191.928 26.4562 192.459 24.9149C192.806 23.9066 192.923 22.7042 193.776 22.0638C194.245 21.712 194.848 21.6086 195.397 21.4033C196.002 21.1768 196.566 20.8077 196.949 20.2871C197.332 19.7664 197.518 19.0858 197.373 18.4561C192.431 17.6021 187.345 17.5825 182.397 18.399C181.137 18.6071 179.804 18.9119 178.917 19.8313C178.167 20.6092 177.86 21.7053 177.656 22.7668C177.021 26.0832 177.144 29.4985 177.473 32.8591C177.798 32.7366 178.319 32.7931 178.656 32.8753C179.882 33.1751 180.964 33.9949 181.623 35.0715C181.811 35.3791 181.977 35.7175 182.271 35.9266C182.563 36.1358 183.059 36.1822 183.25 35.8768Z" fill="#2D1026"/>
<path d="M188.82 31.0673C188.669 31.5802 188.909 32.1981 189.434 32.4213C189.833 32.5907 190.296 32.5169 190.734 32.4733C191.455 32.4017 192.254 32.3978 192.793 31.9521C193.722 31.1837 193.102 29.6625 191.865 29.6054C190.773 29.5557 189.139 29.9824 188.82 31.0673Z" fill="#2D1026"/>
<path d="M203.236 31.1865C203.387 31.6993 203.148 32.3173 202.622 32.5404C202.224 32.7099 201.76 32.636 201.323 32.5924C200.602 32.5208 199.802 32.5169 199.264 32.0712C198.335 31.3028 198.954 29.7816 200.192 29.7246C201.284 29.6748 202.918 30.1021 203.236 31.1865Z" fill="#2D1026"/>
<path d="M196.749 37.8526C196.689 37.8526 196.635 37.8145 196.616 37.7553C196.593 37.6814 196.634 37.6031 196.707 37.5802C197.209 37.4219 197.632 36.9673 197.812 36.3929C197.967 35.8974 197.955 35.3046 197.779 34.6777C197.617 34.1045 197.342 33.5581 197.076 33.0301C197.04 32.9613 197.068 32.8774 197.137 32.8428C197.206 32.8087 197.29 32.8361 197.325 32.9049C197.596 33.4445 197.878 34.0032 198.047 34.6022C198.238 35.2817 198.248 35.9299 198.078 36.4768C197.872 37.1367 197.379 37.6624 196.791 37.8475C196.777 37.8509 196.763 37.8526 196.749 37.8526Z" fill="#2D1026"/>
<path d="M196.767 40.0721C196.705 40.0721 196.644 40.0699 196.582 40.0649C195.928 40.0145 195.31 39.6985 194.886 39.1969C194.836 39.1382 194.844 39.0498 194.902 39C194.961 38.9497 195.05 38.9575 195.099 39.0168C195.47 39.4553 196.032 39.7427 196.604 39.7863C197.174 39.8322 197.775 39.6314 198.207 39.255C198.264 39.2042 198.353 39.2103 198.404 39.2685C198.455 39.3266 198.449 39.415 198.391 39.4653C197.943 39.8557 197.359 40.0721 196.767 40.0721Z" fill="#2D1026"/>
<path d="M118.126 107.402H164.138C163.952 106.186 163.839 104.716 163.927 103.063C164.221 97.6073 166.197 90.4892 166.256 89.5578C166.374 87.8126 168.354 77.8022 165.324 71.9783C162.3 66.1594 151.353 62.6641 151.353 62.6641L137.847 66.0417C137.847 66.0417 137.656 66.1152 137.313 66.2525C137.141 66.326 136.931 66.4094 136.686 66.5123C136.333 66.6643 135.911 66.8408 135.44 67.0516H135.435C133.98 67.6987 132.053 68.6105 130.185 69.6694C129.053 70.3116 127.945 71.0028 126.979 71.7283C126.366 72.1793 125.812 72.645 125.347 73.1156C124.798 73.6647 124.371 74.2235 124.111 74.7726C123.94 75.1354 123.753 75.6991 123.548 76.4345C123.195 77.7139 122.798 79.4984 122.376 81.5965C122.371 81.6259 122.366 81.6553 122.361 81.6848C122.356 81.7044 122.351 81.7191 122.347 81.7387V81.7436C122.111 82.9544 121.861 84.2682 121.611 85.6409C121.263 87.5724 120.91 89.6264 120.567 91.7C120.278 93.4501 119.993 95.215 119.719 96.9258C119.719 96.9356 119.719 96.9454 119.714 96.9552C119.704 97.0239 119.694 97.0925 119.685 97.1611C119.052 101.137 118.503 104.823 118.126 107.402Z" fill="#FEDEDE"/>
<path d="M134.18 58.3564L137.153 65.8073C137.153 65.8073 137.185 65.9078 137.248 66.0852C137.654 67.1843 139.405 71.1787 143.322 71.2792C147.859 71.3978 151.353 62.6654 151.353 62.6654L145.356 52.4648L141.713 54.3846L134.18 58.3564Z" fill="#FFA3A3"/>
<path d="M134.18 58.3546L137.153 65.8055C137.153 65.8055 137.185 65.906 137.248 66.0835C137.613 66.0379 137.973 65.9511 138.316 65.8281C140.03 65.2173 141.376 63.8128 142.21 62.1985C142.839 60.9763 143.172 59.6537 143.428 58.3134C143.578 57.5291 143.765 56.7084 143.368 55.9653C143.008 55.2858 142.415 54.7569 141.713 54.3828L134.18 58.3546Z" fill="#2D1026"/>
<path d="M122.925 37.3037C121.133 38.2199 119.516 39.4779 118.186 40.9892C117.463 41.8113 116.789 42.8883 117.105 43.9369C117.314 44.6316 117.937 45.1929 117.959 45.9179C117.975 46.4273 117.687 46.8891 117.529 47.3734C117.108 48.6573 117.712 50.1976 118.893 50.854C119.078 50.9565 119.278 51.0427 119.422 51.1972C119.789 51.5913 119.648 52.2487 119.92 52.7134C120.19 53.1752 120.782 53.3218 121.313 53.3875C123.35 53.6395 125.454 53.3311 127.334 52.5056C127.861 52.2742 128.392 51.984 128.711 51.505C129.053 50.9913 129.1 50.3388 129.086 49.7221C129.045 48.0426 128.63 46.392 128.089 44.8012C127.61 43.3913 127.021 42.0005 126.137 40.8024C125.253 39.6038 124.048 38.6023 122.623 38.168C122.492 38.1278 122.273 38.1822 122.331 38.3072L122.925 37.3037Z" fill="#FF7373"/>
<path d="M123.983 54.9942C125.033 57.3031 126.277 61.0445 129.724 62.6049C134.87 64.933 146.859 56.9762 146.859 56.9762C146.859 56.9762 145.597 54.0912 145.358 52.4607C145.468 52.8048 148.18 51.5577 148.419 51.3768C149.178 50.8106 149.766 50.0145 150.071 49.1007C150.688 47.2379 149.887 45.0529 148.076 44.2127C147.233 43.82 146.154 43.7068 145.331 44.1705C145.041 44.3348 144.365 44.799 144.165 45.2471C144.109 45.3598 144.09 45.475 144.115 45.5809C143.686 43.6749 143.182 41.8974 142.622 40.6973C140.751 36.6995 135.883 33.4841 130.271 34.8004C129.483 34.9872 128.739 35.222 128.03 35.497C127.815 35.5759 127.609 35.6563 127.403 35.7509C127.305 35.7921 127.21 35.8416 127.113 35.8867C127.072 35.9044 127.032 35.9225 126.997 35.9431C126.964 35.9583 126.934 35.9774 126.902 35.9926C126.789 36.0475 126.678 36.1024 126.567 36.1617C123.811 37.6216 121.894 40.1252 121.345 43.2705C120.998 45.2691 121.242 47.2913 121.78 49.262C122.323 51.2508 123.16 53.1867 123.983 54.9942Z" fill="#FFA3A3"/>
<path d="M134.916 47.0835C135.036 47.1212 135.167 47.1751 135.219 47.2903C135.271 47.4041 135.224 47.5428 135.137 47.6325C135.051 47.7222 134.933 47.7732 134.817 47.8183C134.049 48.1159 133.232 48.2605 132.422 48.4031C132.252 48.433 132.066 48.461 131.915 48.3777C131.692 48.2556 131.648 47.933 131.759 47.7041C132.253 46.6854 134.048 46.8128 134.916 47.0835Z" fill="#FF7373"/>
<path d="M123.912 50.5313C123.849 50.622 123.788 50.7299 123.814 50.8377C123.839 50.9436 123.947 51.0142 124.054 51.0299C124.162 51.0456 124.272 51.0167 124.376 50.9853C125.066 50.7769 125.708 50.4362 126.344 50.098C126.478 50.0269 126.62 49.946 126.68 49.8068C126.768 49.6019 126.625 49.3558 126.425 49.2577C125.535 48.8219 124.365 49.8774 123.912 50.5313Z" fill="#FF7373"/>
<path d="M145.215 50.9039C145.267 50.8887 145.301 50.8378 145.294 50.7824C145.196 50.0299 145.113 49.146 145.231 48.2896C145.317 47.6621 145.557 46.7718 146.202 46.0939C146.786 45.4826 147.605 45.1904 148.342 45.3311C148.402 45.3423 148.461 45.3031 148.473 45.2423C148.484 45.182 148.445 45.1237 148.384 45.1119C147.573 44.957 146.675 45.2742 146.041 45.9394C145.353 46.6606 145.1 47.5984 145.01 48.2587C144.888 49.1406 144.973 50.0436 145.073 50.8103C145.081 50.8716 145.137 50.9147 145.198 50.9064C145.204 50.9064 145.21 50.9054 145.215 50.9039Z" fill="#2D1026"/>
<path d="M131.614 56.0994C131.683 56.0798 131.751 56.0567 131.818 56.0303C132.397 55.8028 132.872 55.341 133.122 54.7631C133.149 54.7013 133.12 54.6287 133.058 54.6023C132.996 54.5748 132.924 54.6032 132.897 54.666C132.673 55.1842 132.247 55.5984 131.728 55.8023C131.211 56.0028 130.618 55.9916 130.104 55.7626C130.042 55.7357 129.97 55.7636 129.943 55.8249C129.915 55.8867 129.943 55.9592 130.005 55.9871C130.512 56.2126 131.087 56.2509 131.614 56.0994Z" fill="#2D1026"/>
<path d="M133.062 50.005C133.228 50.5619 133.814 50.8786 134.371 50.7124C134.928 50.5462 135.245 49.9599 135.079 49.403C134.912 48.8461 134.326 48.5294 133.769 48.6956C133.212 48.8618 132.896 49.4481 133.062 50.005Z" fill="#2D1026"/>
<path d="M125.334 52.3165C125.501 52.8734 126.087 53.1901 126.644 53.0239C127.201 52.8577 127.517 52.2714 127.351 51.7145C127.185 51.1576 126.599 50.8409 126.042 51.0071C125.485 51.1733 125.168 51.7596 125.334 52.3165Z" fill="#2D1026"/>
<path d="M130.078 54.2804C130.395 54.1858 130.699 54.0544 130.983 53.8897C131.059 53.8451 131.086 53.7549 131.041 53.6887C130.997 53.6225 130.899 53.6068 130.823 53.6485C130.564 53.799 130.286 53.9191 129.996 54.0059C129.917 54.0279 129.837 54.0495 129.79 54.0314C129.721 54.0049 129.695 53.8863 129.68 53.7863C129.527 52.7298 129.438 51.6494 129.415 50.5743C129.413 50.4944 129.34 50.4351 129.252 50.4419C129.161 50.4488 129.093 50.5189 129.095 50.5983C129.119 51.6837 129.209 52.7749 129.363 53.8421C129.38 53.9524 129.418 54.2108 129.65 54.2995C129.814 54.3623 129.984 54.3083 130.078 54.2804Z" fill="#2D1026"/>
<path d="M121.491 38.1562C121.594 39.5278 122.411 40.3416 123.28 41.4083C123.779 42.0221 124.32 42.6648 125.071 42.9143C126.445 43.3712 128.017 42.3554 129.36 42.8976C130.522 43.3672 130.963 44.7649 131.852 45.6483C132.578 46.3694 133.669 46.7356 134.666 46.5061C135.653 46.2787 136.584 45.5076 137.562 45.7713C138.125 45.9233 138.538 46.388 138.969 46.7817C139.771 47.515 140.745 48.0611 141.789 48.3636C141.968 48.4151 142.166 48.4582 142.332 48.3768C142.468 48.3107 142.554 48.1749 142.632 48.0459C143.171 47.1635 143.709 46.2811 144.248 45.3987C144.659 44.7261 145.437 44.1555 146.214 44.0222C145.577 41.425 144.588 38.8008 143.078 36.5938C141.758 34.6643 140.004 32.8657 137.739 32.2867C135.005 31.5876 132.183 32.7916 129.617 33.9677C127.018 35.1599 123.995 36.4678 121.491 38.1562Z" fill="#FF7373"/>
<path d="M137.553 27.1158C139.078 26.1212 141.165 25.4961 142.659 26.5369C143.131 26.8658 143.551 27.359 144.126 27.3894C144.432 27.4056 144.725 27.282 145.017 27.1889C146.437 26.7364 148.03 26.9957 149.327 27.7276C150.625 28.4595 151.639 29.6307 152.347 30.942C152.91 31.9852 153.294 33.1495 153.272 34.3344C153.25 35.5193 152.785 36.7252 151.88 37.49C151.654 37.6802 151.389 37.864 151.311 38.1488C151.265 38.3165 151.294 38.4944 151.31 38.6675C151.424 39.8715 150.93 41.0848 150.129 41.9917C149.329 42.8986 148.247 43.5212 147.11 43.9349C144.854 44.7556 142.32 44.7855 140.046 44.0178C137.772 43.2506 135.774 41.6907 134.477 39.6715C133.147 37.5993 132.626 34.8702 133.654 32.5652C134.577 30.4984 135.604 28.388 137.553 27.1158Z" fill="#FF7373"/>
<path d="M144.718 52.8068C144.718 53.7068 145.448 54.4367 146.348 54.4367C147.248 54.4367 147.978 53.7068 147.978 52.8068C147.978 51.9067 147.248 51.1768 146.348 51.1768C145.448 51.1768 144.718 51.9067 144.718 52.8068Z" fill="#FFCB7D"/>
<path d="M125.438 63.6345C123.183 64.2669 120.882 64.9586 119.016 66.3739C117.151 67.7897 115.786 70.0977 116.133 72.413C116.382 74.0773 117.47 75.7396 116.89 77.3196C116.551 78.2442 115.714 78.8741 115.036 79.5879C113.269 81.4464 112.47 84.1779 112.957 86.6952C113.144 87.6658 113.521 88.6169 114.161 89.3703C115.398 90.8258 117.405 91.3435 119.3 91.5842C121.737 91.893 124.465 91.7847 126.289 90.14C127.62 88.9399 128.218 87.1398 128.648 85.4C129.535 81.8111 129.936 78.1182 130.135 74.4268C130.274 71.8365 130.31 69.2123 129.84 66.6509C129.683 65.7925 129.52 64.0341 128.853 63.3997C128.115 62.6977 126.259 63.4041 125.438 63.6345Z" fill="#FF7373"/>
<path d="M133.944 63.1597C134.685 63.2724 135.443 63.4455 136.048 63.8882C136.652 64.3308 137.069 65.1044 136.892 65.8329C136.792 66.2432 136.523 66.6913 136.748 67.0482C136.833 67.1815 136.972 67.2678 137.104 67.356C139.16 68.7409 139.858 71.7989 138.608 73.9392C138.344 74.3902 137.995 74.8481 138.037 75.3687C138.072 75.8114 138.394 76.1874 138.773 76.4188C139.152 76.6507 139.588 76.7664 140.008 76.9095C141.511 77.4203 142.904 78.3326 143.834 79.62C144.765 80.9068 145.197 82.5829 144.839 84.13C144.43 85.8948 143.048 87.3214 141.434 88.145C139.821 88.9685 137.99 89.2602 136.183 89.3975C134.882 89.496 133.575 89.5205 132.271 89.47C131.722 89.449 131.149 89.4078 130.674 89.1298C130.165 88.8318 129.839 88.3023 129.582 87.7709C128.976 86.5169 128.646 85.1497 128.363 83.7859C127.599 80.1112 127.145 76.3717 127.005 72.6215C126.934 70.7464 126.942 68.8679 127.028 66.9932C127.076 65.9554 126.791 63.9259 127.931 63.3666C129.542 62.5763 132.241 62.8999 133.944 63.1597Z" fill="#FF7373"/>
<path d="M108.556 107.399H147.799C147.789 107.326 147.779 107.252 147.77 107.179C147.76 107.096 147.745 107.017 147.735 106.934C146.975 101.35 145.451 91.1093 144.328 89.5945C144.191 89.4131 143.995 89.222 143.745 89.0259C143.73 89.0112 143.71 88.9965 143.691 88.9817C143.652 88.9523 143.608 88.9229 143.563 88.8886C143.117 88.5651 142.539 88.2268 141.882 87.8935C138.999 86.4228 134.641 84.9766 133.411 84.5746C133.269 84.5305 133.166 84.5011 133.117 84.4815C133.092 84.4766 133.078 84.4717 133.078 84.4717L133.009 84.4766L128.788 84.8344L128.597 84.8491L126.592 85.0207L122.984 85.3247C122.984 85.3247 122.959 85.3296 122.905 85.3394C122.851 85.3492 122.768 85.3688 122.655 85.3933C122.415 85.4423 122.057 85.5257 121.611 85.6384C119.709 86.1188 116.243 87.1826 113.851 88.9572C112.939 89.6337 112.189 90.4083 111.733 91.3005C111.414 91.9231 111.003 93.6193 110.566 95.7615C109.963 98.7421 109.321 102.585 108.841 105.605C108.738 106.247 108.645 106.85 108.556 107.399Z" fill="#FFCB7D"/>
<path d="M126.305 94.0263C126.905 94.0263 127.514 93.8626 128.03 93.5391C128.953 92.9591 129.558 91.9311 129.666 90.8345C130.03 91.8449 130.728 93.2488 131.908 93.7646C132.444 93.9989 133.044 94.0009 133.515 93.7695C134.153 93.4562 134.485 92.7782 134.652 92.265C135.619 89.2795 133.885 85.5067 133.331 84.4219C133.302 84.365 133.231 84.3434 133.178 84.3719C133.122 84.4008 133.099 84.4689 133.128 84.5253C133.672 85.5911 135.375 89.2932 134.434 92.1949C134.282 92.6665 133.98 93.2871 133.414 93.565C133.003 93.767 132.474 93.7641 131.998 93.5562C130.577 92.9351 129.885 90.8928 129.654 90.0438C129.638 89.9864 129.584 89.9496 129.521 89.9619C129.463 89.9737 129.423 90.0286 129.431 90.0879C129.585 91.3679 128.973 92.6772 127.908 93.3459C127.017 93.9067 125.827 93.9518 124.944 93.4596C122.46 92.0708 122.3 87.6196 122.974 85.0479C122.99 84.9871 122.954 84.9248 122.893 84.9092C122.832 84.891 122.77 84.9297 122.754 84.9905C122.061 87.6309 122.243 92.2115 124.833 93.6592C125.274 93.9043 125.786 94.0263 126.305 94.0263Z" fill="#FEDEDE"/>
<path d="M132.605 82.0536L133.086 84.9562L133.144 85.294C133.144 85.294 133.74 88.478 130.322 89.3653C126.898 90.2482 122.985 85.3278 122.985 85.3278L122.323 81.5918L125.135 81.7183L132.605 82.0536Z" fill="#FFA3A3"/>
<path d="M132.605 82.0536L133.086 84.9562C133.042 85.0033 132.991 85.0415 132.94 85.0802C132.528 85.3891 132.001 85.4969 131.492 85.5719C130.227 85.7489 128.928 85.7386 127.694 85.4062C126.68 85.1302 125.209 84.5125 124.66 83.5394C124.289 82.8723 124.614 82.2217 125.135 81.7178L132.605 82.0536Z" fill="#2D1026"/>
<path d="M137.564 74.1629C137.853 76.14 138.624 79.1495 137.005 81.6536C134.588 85.39 123.286 84.4444 123.286 84.4444C123.286 84.4444 122.858 82.7801 122.322 81.5982C122.396 81.8732 120.066 82.2036 119.832 82.1854C119.087 82.1335 118.359 81.857 117.767 81.3815C116.564 80.4103 116.163 78.621 117.004 77.2925C117.395 76.6729 118.061 76.138 118.805 76.0939C119.067 76.0792 119.713 76.0983 120.036 76.3101C120.122 76.3611 120.183 76.4292 120.212 76.5096C119.123 73.4683 118.697 70.5147 120.673 67.689C123.255 63.9952 128.532 63.178 132.523 64.8202C134.695 65.7144 135.884 67.2101 136.581 69.4259C137.068 70.9745 137.339 72.6138 137.564 74.1629Z" fill="#FFA3A3"/>
<path d="M134.978 70.7295C135.251 70.7511 135.522 70.8143 135.775 70.9212C135.943 70.9928 136.377 71.1722 136.323 71.4143C136.309 71.4795 136.256 71.5296 136.199 71.5658C136.003 71.6923 135.744 71.7119 135.516 71.733C135.258 71.7565 134.993 71.7526 134.738 71.7006C134.626 71.6776 134.513 71.6413 134.427 71.5668C134.248 71.4114 134.217 71.0923 134.367 70.907C134.512 70.7266 134.773 70.7378 134.983 70.7315L134.978 70.7295Z" fill="#FF7373"/>
<path d="M128.233 71.5991C127.973 71.6849 127.724 71.8113 127.505 71.9751C127.359 72.0844 126.98 72.3624 127.09 72.5844C127.12 72.6447 127.184 72.6805 127.247 72.7021C127.468 72.7781 127.724 72.7354 127.95 72.7016C128.207 72.6629 128.463 72.5962 128.698 72.4844C128.801 72.4354 128.902 72.3731 128.967 72.28C129.105 72.0864 129.058 71.7692 128.869 71.6251C128.685 71.4844 128.434 71.5579 128.229 71.6015L128.233 71.5991Z" fill="#FF7373"/>
<path d="M133.397 76.0194C133.544 76.0194 133.694 75.9572 133.811 75.8444C133.955 75.7067 134.024 75.5184 133.997 75.341C133.975 75.1978 133.904 75.0763 133.841 74.9689L133.294 74.0365C133.262 73.9831 133.191 73.9639 133.138 73.9963C133.084 74.0277 133.066 74.0978 133.098 74.1522L133.645 75.0846C133.7 75.1782 133.756 75.2758 133.772 75.3753C133.788 75.4797 133.743 75.5935 133.654 75.6802C133.564 75.767 133.446 75.8072 133.344 75.7866C133.282 75.7758 133.223 75.8155 133.211 75.8773C133.199 75.9395 133.24 75.9989 133.302 76.0106C133.333 76.0165 133.365 76.0194 133.397 76.0194Z" fill="#2D1026"/>
<path d="M129.71 74.1757C129.83 74.7022 129.501 75.2268 128.974 75.3469C128.448 75.467 127.923 75.1375 127.803 74.611C127.683 74.0845 128.013 73.56 128.539 73.4399C129.066 73.3193 129.59 73.6492 129.71 74.1757Z" fill="#2D1026"/>
<path d="M136.38 73.3593C136.5 73.8858 136.171 74.4104 135.644 74.5305C135.118 74.6506 134.593 74.3212 134.473 73.7947C134.353 73.2682 134.682 72.7436 135.209 72.6235C135.735 72.5029 136.26 72.8324 136.38 73.3593Z" fill="#2D1026"/>
<path d="M121.753 80.5035C121.712 80.5158 121.667 80.4966 121.648 80.4569C121.392 79.9167 121.071 79.2951 120.628 78.7784C120.303 78.3999 119.765 77.9117 119.048 77.7381C118.401 77.5818 117.733 77.7377 117.305 78.145C117.269 78.1784 117.214 78.1769 117.18 78.1421C117.147 78.1068 117.149 78.0514 117.183 78.0181C117.655 77.57 118.385 77.3969 119.089 77.5675C119.852 77.7524 120.419 78.2661 120.761 78.6647C121.218 79.197 121.546 79.8314 121.807 80.3824C121.828 80.426 121.81 80.4785 121.766 80.4996C121.761 80.5006 121.757 80.5025 121.753 80.5035Z" fill="#2D1026"/>
<path d="M133.199 77.7261C133.531 77.6751 133.853 77.5447 134.121 77.3472C134.185 77.3006 134.199 77.2114 134.152 77.1477C134.105 77.0844 134.016 77.0717 133.953 77.1168C133.611 77.3673 133.174 77.4923 132.753 77.4599C132.33 77.4276 131.917 77.2379 131.618 76.9388C131.563 76.8834 131.472 76.8839 131.417 76.9388C131.361 76.9942 131.361 77.0844 131.417 77.1403C131.763 77.4864 132.242 77.707 132.731 77.7443C132.886 77.7565 133.044 77.7501 133.199 77.7261Z" fill="#2D1026"/>
<path d="M119.732 76.0707C120.517 76.5844 121.223 77.2154 121.823 77.9355C122.061 77.8629 122.052 77.5315 122.144 77.3002C122.296 76.9134 122.766 76.7903 123.15 76.6325C124.32 76.153 125.08 74.9432 125.286 73.6955C125.493 72.4474 125.219 71.1665 124.803 69.9723C124.774 69.8889 124.745 69.7933 124.787 69.7159C124.827 69.6419 124.916 69.6125 124.998 69.5909C125.52 69.4551 126.064 69.3968 126.569 69.2046C127.551 68.8301 128.29 67.9761 128.748 67.0295C129.207 66.0833 129.419 65.0396 129.627 64.0092C128.281 63.4847 126.664 63.4077 125.255 63.7263C123.995 64.0112 122.718 64.3372 121.624 65.024C120.481 65.7416 119.597 66.8236 118.961 68.0138C118.279 69.2889 117.86 70.7307 117.94 72.1739C118.02 73.6181 118.523 75.2785 119.732 76.0707Z" fill="#FF7373"/>
<path d="M115.146 97.7477L110.489 95.7295C110.489 95.7295 108.083 98.912 108.005 101.706C107.928 104.5 108.781 105.587 108.781 105.587L114.37 107.217L115.146 97.7477Z" fill="#FFA3A3"/>
<path d="M147.508 107.389C147.719 107.247 147.695 107.211 147.915 107.045C150.136 105.403 152.476 102.921 154.809 100.529C154.858 100.48 154.902 100.431 154.951 100.382C156.245 99.0482 157.481 97.7148 158.574 96.504C158.608 96.4648 158.643 96.4304 158.677 96.3912C159.858 95.0774 160.868 93.9107 161.599 93.0528H161.604C162.408 92.1116 162.878 91.538 162.878 91.538L152.284 76.2871C152.284 76.2871 151.392 77.7725 149.995 79.9344C148.372 82.4541 146.064 85.8955 143.691 88.9839C142.205 90.9154 140.696 92.7047 139.313 94.0479C137.906 95.4059 136.632 96.3079 135.636 96.4255C135.215 96.4746 134.715 96.5236 134.151 96.5628C134.151 96.5628 134.146 96.5628 134.141 96.5628C131.023 96.7932 126.008 96.8962 121.94 96.9354C121.891 96.9403 121.846 96.9403 121.797 96.9354C121.067 96.9452 120.366 96.9501 119.714 96.955C117.121 96.9746 115.302 96.9697 115.302 96.9697L115.292 97.0824L114.836 101.529L114.258 107.181L114.233 107.402L147.508 107.389Z" fill="#FEDEDE"/>
<path d="M147.485 107.402H147.858C151.186 104.848 155.785 99.9159 158.751 96.602C158.849 96.4941 158.947 96.3863 159.04 96.2784L159.045 96.2735C160.53 94.6018 161.55 93.4057 161.687 93.2439C161.726 93.1949 161.721 93.1214 161.672 93.0821C161.653 93.0625 161.628 93.0527 161.604 93.0527H161.599C161.564 93.0527 161.535 93.0674 161.511 93.0919C161.452 93.1606 158.461 96.6853 154.951 100.382C154.902 100.431 154.858 100.48 154.809 100.529C153.951 101.431 153.064 102.338 152.186 103.205C152.137 103.249 152.093 103.294 152.054 103.338C150.78 104.588 149.52 105.754 148.387 106.681C148.368 106.701 148.353 106.715 148.333 106.725C148.142 106.887 147.951 107.039 147.77 107.181C147.75 107.196 147.73 107.215 147.711 107.225C147.696 107.24 147.681 107.25 147.671 107.259C147.618 107.299 147.564 107.343 147.51 107.387H147.505C147.5 107.392 147.49 107.397 147.485 107.402Z" fill="#2D1026"/>
<path d="M122.949 97.1733C128.467 97.1733 135.158 97.0179 136.468 96.2948C141.514 93.5103 150.007 80.2454 150.093 80.1115C150.126 80.0586 150.111 79.988 150.058 79.9542C150.005 79.9208 149.935 79.936 149.901 79.989C149.816 80.1218 141.354 93.3387 136.359 96.0948C134.16 97.3076 115.492 96.861 115.304 96.8571C115.303 96.8571 115.302 96.8571 115.301 96.8571C115.24 96.8571 115.189 96.9066 115.188 96.9684C115.186 97.0316 115.236 97.0836 115.299 97.0851C115.621 97.0934 118.982 97.1733 122.949 97.1733Z" fill="#2D1026"/>
<path d="M158.689 96.6192C158.701 96.6192 158.712 96.6178 158.723 96.6138L161.44 95.7599C161.5 95.7412 161.534 95.677 161.514 95.6172C161.495 95.5569 161.428 95.5231 161.372 95.5427L158.655 96.3967C158.595 96.4153 158.561 96.4795 158.58 96.5393C158.596 96.5879 158.641 96.6192 158.689 96.6192Z" fill="#2D1026"/>
</g>
<defs>
<clipPath id="clip0_1256_2602">
<rect width="343" height="101" fill="white"/>
</clipPath>
</defs>
</svg>
