<svg width="74" height="89" viewBox="0 0 74 89" fill="none" xmlns="http://www.w3.org/2000/svg">
<path d="M65.9698 81.6465H7.75464C3.48963 81.6465 0 78.1569 0 73.8919V35.268C0 15.8707 15.8705 0 35.268 0C56.419 0 73.7245 17.3054 73.7245 38.4565V73.8919C73.7245 78.1569 70.2348 81.6465 65.9698 81.6465Z" fill="#EED282"/>
<g clip-path="url(#clip0_770_2347)">
<path d="M66.4083 38.4066C66.4022 38.4184 66.3961 38.4301 66.39 38.4418C66.1592 38.8884 65.9802 39.2709 65.8537 39.5934C65.7308 39.9065 65.6458 40.1912 65.6225 40.4372C65.6005 40.6279 65.5874 40.8037 65.5903 40.9603C65.5931 41.1147 65.6117 41.2826 65.6745 41.439C65.743 41.6097 65.8621 41.7602 66.0412 41.8569C66.206 41.9459 66.3801 41.9666 66.525 41.9666C66.8256 41.9666 67.0825 41.8339 67.2641 41.5952C67.4218 41.3879 67.5097 41.1188 67.5681 40.8395M66.4083 38.4066L67.569 40.8351C67.5687 40.8366 67.5684 40.838 67.5681 40.8395M66.4083 38.4066C65.4464 39.7304 64.2967 41.3232 63.1451 42.9185C62.8352 43.3478 62.5252 43.7773 62.2187 44.2018C57.4161 50.9478 56.1348 52.5577 54.4244 53.9071C53.8695 54.3474 52.6969 55.2758 51.8016 55.9843C51.3425 56.3476 50.8789 56.677 50.4992 56.9123C50.3108 57.0291 50.1326 57.1292 49.9802 57.1985C49.9048 57.2329 49.8233 57.2655 49.7424 57.2874C49.6808 57.304 49.5425 57.3374 49.3895 57.2999C49.0326 57.2135 48.843 56.9252 48.7491 56.6775C48.6534 56.4251 48.6154 56.1179 48.611 55.7945C48.6022 55.1404 48.7303 54.28 48.9817 53.3155L48.9816 53.3155L48.9844 53.3054C49.1096 52.8629 49.2192 52.4204 49.297 52.0664C49.336 51.8892 49.3664 51.7372 49.3867 51.6203C49.4081 51.4973 49.4128 51.4436 49.4133 51.4381C49.4133 51.4377 49.4133 51.4376 49.4133 51.4376C49.4133 51.2924 49.4529 51.1249 49.4938 50.9803C49.5387 50.8213 49.6019 50.6344 49.6776 50.4297C49.8296 50.0194 50.041 49.5141 50.2837 48.9749C50.7685 47.8975 51.3899 46.6583 51.9349 45.7338L51.9357 45.7324C53.2911 43.4511 58.2936 34.0593 60.9814 28.8034C61.4955 27.7548 62.6281 26.1103 63.5022 25.1082C65.3822 22.9046 67.0568 21.8172 68.9221 21.9296L68.9277 21.93C69.4756 21.9693 69.5895 21.9497 69.6751 21.9034C69.7195 21.8794 69.784 21.8307 69.893 21.7068C70.0039 21.5806 70.1353 21.4071 70.3249 21.1525L70.3249 21.1525L70.3285 21.1478C70.5647 20.8384 70.8293 20.5349 71.069 20.2929C71.1888 20.172 71.3069 20.0617 71.4159 19.9721C71.5121 19.8931 71.6331 19.8029 71.7588 19.7482C72.088 19.5952 72.4382 19.4505 72.8188 19.5167C73.1903 19.5814 73.4915 19.8309 73.7896 20.1018C74.038 20.3227 74.2445 20.5731 74.3702 20.8738C74.4988 21.1813 74.5282 21.5062 74.4745 21.8492C74.3729 22.4992 73.9649 23.2473 73.3371 24.1743C73.0919 24.5409 72.9899 24.7333 72.9471 24.8823C72.9126 25.0023 72.9084 25.1227 72.9607 25.3662C73.0272 25.6199 73.0703 26.0463 73.0988 26.4936C73.1288 26.9665 73.1451 27.5148 73.1451 28.0252L73.1451 28.0299C73.134 29.2065 73.0433 30.0422 72.5603 31.2504C72.0915 32.4229 71.2507 33.9524 69.7738 36.5338M66.4083 38.4066L69.7738 36.5338M67.5681 40.8395C67.5687 40.837 67.5718 40.825 67.58 40.8008C67.5888 40.7744 67.6014 40.7401 67.6182 40.6973C67.652 40.6115 67.6991 40.5013 67.7593 40.3681C67.8795 40.1021 68.046 39.7578 68.248 39.3583C68.6517 38.56 69.1914 37.5533 69.7738 36.5338M67.5681 40.8395L69.7738 36.5338M50.8851 54.1463C50.8848 54.1478 50.8844 54.1493 50.8841 54.1508C51.0967 53.9861 51.3132 53.8063 51.4952 53.6409C51.6924 53.4617 51.8197 53.3257 51.8703 53.2532L51.8703 53.2531L51.8734 53.2488C51.8828 53.2356 51.8897 53.225 51.8948 53.2167C51.8915 53.2099 51.8871 53.2016 51.8814 53.1915C51.8567 53.1479 51.8144 53.0866 51.744 53.0006L51.744 53.0006L51.7383 52.9935C51.5618 52.7695 51.4054 52.6078 51.2809 52.5005C51.1281 53.0658 50.9875 53.6594 50.8851 54.1463ZM51.0521 52.3457C51.0522 52.3458 51.0539 52.3464 51.0572 52.3472C51.0537 52.346 51.0521 52.3456 51.0521 52.3457ZM53.5308 52.2224L53.9794 51.7874L53.9793 51.7873L53.9855 51.7816C55.1125 50.7248 56.616 48.7701 60.1665 43.7206L60.167 43.72C61.5707 41.7305 62.3104 40.6666 62.6877 40.0106C62.8751 39.6848 62.9521 39.4944 62.9831 39.3652C63.0097 39.2546 63.0075 39.171 62.9836 39.0382L62.9835 39.0382L62.9823 39.0306C62.7885 37.8537 62.1591 36.9384 61.3548 36.5376C60.8972 36.3096 60.191 36.056 59.8063 35.9673C59.5272 35.9078 59.4963 35.9066 59.4729 35.9122L59.4719 35.9125C59.4716 35.9126 59.4709 35.9129 59.4696 35.9135C59.469 35.9138 59.4683 35.9142 59.4674 35.9146C59.4624 35.9172 59.4509 35.924 59.4323 35.9394C59.3926 35.9722 59.3318 36.0352 59.2445 36.1552C59.067 36.3989 58.8334 36.8022 58.4826 37.4683C58.1544 38.0914 57.7355 38.921 57.1773 40.0266L57.0768 40.2256L57.0764 40.2264C56.1565 42.0408 54.7466 44.6848 53.9781 46.1037L53.9782 46.1037L53.9741 46.1109C53.22 47.4499 52.6395 48.5512 52.249 49.3682C52.0534 49.7774 51.9087 50.1085 51.8141 50.3589C51.788 50.4279 51.7664 50.4888 51.749 50.542C51.7616 50.5466 51.7729 50.5511 51.783 50.5553C51.8473 50.5817 51.9084 50.6152 51.9629 50.6486C52.0723 50.7157 52.1898 50.8042 52.3063 50.9023C52.5403 51.0992 52.8055 51.364 53.0466 51.6532L53.5308 52.2224ZM61.279 34.513C62.83 34.9895 64.1837 36.1156 64.5617 37.4091C64.611 37.3498 64.6637 37.2858 64.7194 37.2175C65.0941 36.758 65.5899 36.1216 66.1214 35.4212C67.1849 34.0195 68.3747 32.3827 69.005 31.4199C69.5657 30.539 70.1131 29.4995 70.5191 28.5807C70.7223 28.121 70.8871 27.6982 71.0001 27.3457C71.1176 26.9791 71.1642 26.7331 71.1642 26.6078C71.1642 26.2719 71.047 25.8588 70.8324 25.4616C70.6184 25.0653 70.3312 24.729 70.0374 24.527L70.0361 24.5261C69.2247 23.9643 68.109 23.9767 66.9295 24.7516C66.3978 25.1063 65.6488 25.8185 64.9147 26.6538C64.1844 27.4848 63.5058 28.3954 63.103 29.1223C62.3791 30.4399 61.6448 31.7998 61.0918 32.8419C60.8151 33.3634 60.5846 33.8037 60.4237 34.1187C60.4088 34.148 60.3945 34.1761 60.3809 34.2029C60.6168 34.2936 60.9319 34.4025 61.279 34.513ZM71.6777 23.0645L71.6847 23.0701L71.6916 23.076C71.7337 23.1123 71.7704 23.1436 71.8032 23.1712C71.8307 23.1341 71.8614 23.0918 71.8969 23.0426C72.2043 22.6078 72.4088 22.2477 72.5215 21.9634C72.6358 21.6751 72.6296 21.5311 72.6164 21.481C72.6119 21.4685 72.6078 21.4593 72.6045 21.4529C72.5939 21.4533 72.5776 21.4551 72.5545 21.4607C72.4004 21.4979 72.1256 21.6617 71.8196 22.033C71.6364 22.2672 71.5142 22.4358 71.437 22.5674C71.3709 22.6798 71.357 22.7338 71.3541 22.7504C71.357 22.7561 71.3631 22.7666 71.3748 22.7824C71.4195 22.8423 71.5071 22.9282 71.6777 23.0645ZM72.5956 21.4392C72.5956 21.4393 72.5962 21.4401 72.5975 21.4413C72.5962 21.4397 72.5956 21.439 72.5956 21.4392ZM72.6189 21.4534C72.62 21.4537 72.6205 21.4538 72.6205 21.4537L72.6189 21.4534Z" fill="#8A6D18" stroke="#8A6D18"/>
<path d="M71.0829 26.8251C71.0829 26.8249 71.0812 26.8235 71.078 26.8212C71.0813 26.8241 71.0829 26.8252 71.0829 26.8251ZM71.307 27.5571C71.2361 27.6457 71.1352 27.7168 71.0107 27.7481C70.8887 27.7789 70.7816 27.7621 70.7097 27.741C70.5776 27.7024 70.4784 27.6246 70.4242 27.5779C70.303 27.4734 70.188 27.3287 70.0949 27.1926C69.9979 27.0511 69.9043 26.889 69.8328 26.7312C69.7693 26.5913 69.6929 26.3902 69.6929 26.1923C69.6929 26.1356 69.6992 26.0066 69.783 25.8784C69.8916 25.712 70.0695 25.6363 70.2353 25.6393C70.3648 25.6415 70.4626 25.6898 70.5068 25.7141C70.5596 25.7432 70.604 25.7767 70.6375 25.8044C70.763 25.9086 70.8987 26.0709 71.0216 26.2374C71.1579 26.422 71.2706 26.6159 71.3423 26.7886C71.3772 26.8726 71.4108 26.9714 71.4258 27.073C71.4334 27.1238 71.439 27.193 71.4287 27.2704C71.4192 27.3424 71.3914 27.4534 71.307 27.5571Z" fill="#8A6D18" stroke="#8A6D18"/>
<path d="M68.5828 27.2449L68.5827 27.2448L68.5877 27.2362C68.6901 27.0603 68.8627 26.9521 69.0555 26.9298C69.2221 26.9105 69.3667 26.9586 69.4646 27.0046C69.6567 27.0949 69.8311 27.2539 69.9727 27.4274C70.1291 27.5951 70.2543 27.7834 70.3312 27.9597C70.3697 28.048 70.4069 28.1578 70.4175 28.2751C70.4255 28.3629 70.4297 28.5916 70.2489 28.7691C70.1066 28.9164 69.9231 28.9639 69.7673 28.9571C69.622 28.9507 69.4984 28.8991 69.4136 28.8544C69.2403 28.7631 69.0791 28.62 68.953 28.4827C68.8241 28.3425 68.6992 28.1729 68.6148 28.0008C68.5728 27.9155 68.5316 27.8108 68.5126 27.6965C68.4945 27.587 68.4883 27.415 68.5828 27.2449ZM69.8857 27.9726C69.8857 27.9725 69.8846 27.972 69.8825 27.9711C69.8847 27.9722 69.8857 27.9726 69.8857 27.9726Z" fill="#8A6D18" stroke="#8A6D18"/>
<path d="M67.4705 29.035L67.4705 29.035L67.475 29.0269C67.5216 28.9439 67.5887 28.8274 67.6792 28.7329C67.7897 28.6174 67.9503 28.5182 68.1633 28.5121C68.3376 28.5071 68.4895 28.5685 68.5909 28.616C68.7004 28.6672 68.8242 28.739 68.956 28.8176L68.956 28.8175L68.9637 28.8223C69.1297 28.9253 69.274 29.0472 69.3834 29.185C69.4888 29.318 69.5848 29.4961 69.5964 29.705C69.6094 29.9381 69.512 30.1636 69.3135 30.3114C69.1367 30.4431 68.9255 30.4803 68.7427 30.4803C68.356 30.4803 67.9871 30.346 67.7291 30.1242C67.4841 29.9137 67.2251 29.492 67.4705 29.035Z" fill="#8A6D18" stroke="#8A6D18"/>
<path d="M62.9128 20.1832L62.9128 20.1832L62.9166 20.1811C63.1301 20.0648 63.3098 19.9698 63.4595 19.8997C63.6029 19.8326 63.754 19.7712 63.9026 19.7456C64.0696 19.7169 64.2638 19.7288 64.4456 19.8456C64.6005 19.9452 64.6898 20.0881 64.7394 20.1733L64.7539 20.1983L64.7655 20.2248C64.9056 20.5461 64.7504 20.8363 64.6548 20.9721C64.5423 21.132 64.3841 21.2701 64.2226 21.378L64.2012 21.3923L64.1785 21.4044C64.0913 21.4504 63.9394 21.5606 63.7535 21.7204C63.575 21.8738 63.3909 22.0506 63.2437 22.2081C63.0638 22.4005 62.8659 22.5722 62.6836 22.6869C62.5965 22.7418 62.484 22.8021 62.3608 22.8329C62.2643 22.8569 61.9705 22.9062 61.7554 22.6597C61.5359 22.4082 61.5458 22.0935 61.5852 21.8897C61.6278 21.6695 61.7272 21.4469 61.8468 21.2467C62.0847 20.8485 62.4688 20.4299 62.9128 20.1832Z" fill="#8A6D18" stroke="#8A6D18"/>
<path d="M64.2433 21.2051L64.2433 21.2051L64.2494 21.2019C64.5717 21.0363 64.8536 20.9119 65.0819 20.8303C65.1956 20.7896 65.3036 20.7569 65.4014 20.7357C65.486 20.7174 65.6121 20.6962 65.7401 20.7153C65.8046 20.7248 65.9232 20.752 66.0326 20.8458C66.1636 20.958 66.2246 21.1168 66.22 21.2708C66.2162 21.3993 66.1685 21.4976 66.1383 21.5502C66.1049 21.6085 66.0656 21.6574 66.0313 21.6956C65.9033 21.838 65.6925 21.9962 65.4311 22.1647L65.4312 22.1647L65.4253 22.1684C65.2371 22.286 65.0077 22.4815 64.793 22.7049C64.5785 22.9282 64.4071 23.1497 64.3175 23.3075C64.1955 23.5299 64.0794 23.7199 63.9709 23.8694C63.8739 24.0032 63.743 24.1623 63.5802 24.2556C63.4934 24.3053 63.3394 24.3696 63.1512 24.3329C62.9469 24.2931 62.8204 24.1588 62.7543 24.0466C62.646 23.8629 62.6344 23.6355 62.6344 23.4796C62.6344 22.4954 63.2737 21.7201 64.2433 21.2051ZM63.6423 23.5997C63.6423 23.5997 63.6421 23.5986 63.6416 23.5966C63.642 23.5987 63.6423 23.5997 63.6423 23.5997Z" fill="#8A6D18" stroke="#8A6D18"/>
<mask id="path-8-outside-1_770_2347" maskUnits="userSpaceOnUse" x="4" y="37" width="56" height="53" fill="black">
<rect fill="white" x="4" y="37" width="56" height="53"/>
<path d="M19.0996 38.7538C17.6495 39.1693 16.37 40.3424 16.0075 41.5887C15.7303 42.5174 15.2612 42.6885 12.9368 42.6885C11.5721 42.6885 11.3162 42.7618 10.3566 43.495C9.75948 43.9349 8.65062 44.7169 7.88294 45.2301L6.49685 46.1588L6.13434 48.1383C5.32401 52.6595 4.74825 65.2455 5.11077 70.4265C5.40931 74.41 6.5395 81.204 7.47777 84.5277L8.11751 86.8494L9.82346 87.7536L11.5294 88.6579L13.342 88.3402C15.0479 88.0713 15.1759 88.0713 15.4531 88.5357C15.7303 88.9511 16.0289 89 18.6091 89C21.3599 89 32.9391 88.389 40.0828 87.8758C42.002 87.7536 45.03 87.4115 46.7999 87.1427C48.5699 86.8494 51.7898 86.5806 53.9649 86.5072C56.3746 86.4339 57.9739 86.2629 58.0592 86.1162C58.2085 85.823 57.2489 83.5257 56.1827 81.6684C54.0076 77.9292 52.4722 69.0335 52.4722 60.1622C52.4722 58.2071 52.3869 56.6186 52.2803 56.6186C51.6406 56.6186 51.5553 57.4006 51.6832 62.8016C51.8751 72.0395 53.112 78.2469 55.6709 82.9147C56.268 83.9656 56.7371 84.8943 56.7371 84.992C56.7371 85.0654 55.415 85.212 53.8157 85.2853C52.195 85.3831 49.7214 85.6274 48.314 85.823C43.452 86.5072 38.9099 86.8983 31.2545 87.2893C27.0322 87.5092 22.2769 87.7781 20.6989 87.9003C19.1209 88.0224 17.5002 88.0469 17.0951 87.9491C16.3914 87.7781 16.3274 87.6559 15.5597 85.3342C14.3229 81.5462 13.278 77.3671 12.8089 74.3856C12.0838 69.62 11.4868 62.7772 11.3801 57.5717L11.2522 52.5373L16.2421 52.3907C18.9929 52.2929 27.3095 52.1463 34.7303 52.0485C42.1299 51.9752 48.2073 51.8042 48.2073 51.7064C48.2073 51.6086 48.2713 51.3398 48.3566 51.0954C48.4846 50.7044 47.8235 50.68 35.498 50.8266C28.3543 50.9244 20.0805 51.1199 17.1164 51.2665C14.1523 51.4131 11.6787 51.4865 11.5934 51.4131C11.5294 51.3398 11.6147 49.5802 11.764 47.5274L12.0625 43.7882L17.4789 43.6172C20.4643 43.5194 22.9593 43.4705 23.0019 43.5438C23.0446 43.5927 23.0232 44.0815 22.938 44.5947C22.8527 45.2301 22.6607 45.6211 22.4262 45.6945C21.957 45.8167 21.6585 47.2585 21.9997 47.7229C22.1276 47.9184 22.5541 48.065 22.938 48.065H23.6417L23.6203 46.281C23.6203 45.3279 23.6843 44.2526 23.7696 43.9349C23.9402 43.3728 24.0042 43.3728 25.4756 43.5194C26.3072 43.5927 30.039 43.7394 33.7707 43.8371C37.5025 43.9104 40.5732 44.0571 40.6159 44.1304C40.8718 44.5947 40.4239 45.5478 39.8269 45.8655C38.9526 46.3299 38.8246 47.1608 39.5496 47.6984C39.9548 48.0161 40.1681 48.0406 40.5092 47.8451C40.9571 47.5518 41.0424 47.3074 41.2769 45.7433C41.5541 43.8127 41.3196 43.9104 46.1389 43.9104C49.3375 43.9104 50.5957 44.0082 51.0008 44.2526C51.4913 44.5458 51.5766 44.5214 51.8325 44.0815C52.3656 43.0551 51.7472 42.9329 46.4801 42.9329H41.6608L41.5115 42.0042C41.3622 40.88 40.7438 39.9025 39.8908 39.3893C39.1232 38.9249 37.5452 38.9249 36.6282 39.3648C35.7539 39.7803 34.5811 41.2955 34.4105 42.2242L34.2825 42.9573L32.7685 42.7862C31.9368 42.7129 29.5912 42.5663 27.544 42.4685L23.8123 42.3219L23.6203 41.4665C23.1085 39.2182 21.3386 38.1429 19.0996 38.7538ZM21.9357 40.1469C22.4048 40.5134 23.0446 41.6865 23.0446 42.1997C23.0446 42.3463 21.9784 42.4441 19.9525 42.4441C18.2466 42.4441 16.8605 42.3952 16.8605 42.3219C16.8605 41.7354 17.6495 40.7089 18.3959 40.269C19.5047 39.6581 21.232 39.5848 21.9357 40.1469ZM39.6563 40.6356C40.0614 40.9778 40.7438 42.3219 40.7438 42.8107C40.7438 42.884 39.5496 42.9329 38.0783 42.9329C35.2208 42.9329 35.0715 42.8596 35.7539 41.7354C36.6069 40.3668 38.6114 39.8047 39.6563 40.6356ZM10.8257 46.892C10.7617 48.1383 10.5911 50.4356 10.4419 51.9752C10.1646 55.2256 10.2926 59.3069 10.8897 65.9542C11.6787 74.8011 12.5103 79.2734 14.4295 85.0409C14.7494 85.9696 14.92 86.8005 14.8134 86.9227C14.7067 87.0205 14.131 87.1915 13.5339 87.2893L12.4464 87.4359L11.9985 85.1631C9.97273 75.1188 9.1624 65.1233 9.58889 55.3967C9.71683 52.3662 9.93008 48.9693 10.0367 47.8451C10.1433 46.6964 10.2073 45.7189 10.1433 45.67C9.88743 45.3768 9.56756 47.2585 9.37564 50.0201C8.79989 58.867 8.92783 69.2779 9.73816 76.2918C10.0793 79.3956 10.058 79.2245 9.93008 79.0534C9.56756 78.638 8.92783 72.4305 8.75724 67.6161C8.62929 64.5856 8.4587 60.1867 8.33075 57.8405C8.2028 55.1278 8.2028 52.4884 8.33075 50.6311C8.52267 47.9917 8.79989 45.9388 9.01313 45.7678C9.56756 45.3279 10.6125 44.6436 10.7617 44.6436C10.8684 44.6436 10.8897 45.6211 10.8257 46.892ZM8.35207 47.4785C7.90426 50.2645 7.64837 55.1523 7.77632 58.3293C8.24545 68.8869 8.75724 75.632 9.39697 79.2734C10.6978 86.5072 10.7831 89.8309 9.52492 84.4788C8.3734 79.5177 7.71234 73.8235 7.66969 68.5936C7.66969 67.1762 7.56307 65.8076 7.45645 65.5388C7.11526 64.6834 7.39248 75.5342 7.77632 78.2469C8.07486 80.3242 8.82121 84.1367 9.31167 86.1162C9.37564 86.4339 9.35432 86.6783 9.2477 86.6783C8.71459 86.6783 6.90202 78.2469 6.30493 73.1637C5.6652 67.4694 6.09169 50.851 6.96599 47.5274C7.05129 47.1608 8.35207 46.0366 8.48002 46.2077C8.52267 46.2321 8.4587 46.8186 8.35207 47.4785ZM11.4015 87.0449C11.5081 87.5826 11.4868 87.6803 11.3162 87.4115C11.2095 87.216 11.1029 86.8249 11.1029 86.5806C11.1029 85.9452 11.2309 86.1407 11.4015 87.0449Z"/>
</mask>
<path d="M19.0996 38.7538C17.6495 39.1693 16.37 40.3424 16.0075 41.5887C15.7303 42.5174 15.2612 42.6885 12.9368 42.6885C11.5721 42.6885 11.3162 42.7618 10.3566 43.495C9.75948 43.9349 8.65062 44.7169 7.88294 45.2301L6.49685 46.1588L6.13434 48.1383C5.32401 52.6595 4.74825 65.2455 5.11077 70.4265C5.40931 74.41 6.5395 81.204 7.47777 84.5277L8.11751 86.8494L9.82346 87.7536L11.5294 88.6579L13.342 88.3402C15.0479 88.0713 15.1759 88.0713 15.4531 88.5357C15.7303 88.9511 16.0289 89 18.6091 89C21.3599 89 32.9391 88.389 40.0828 87.8758C42.002 87.7536 45.03 87.4115 46.7999 87.1427C48.5699 86.8494 51.7898 86.5806 53.9649 86.5072C56.3746 86.4339 57.9739 86.2629 58.0592 86.1162C58.2085 85.823 57.2489 83.5257 56.1827 81.6684C54.0076 77.9292 52.4722 69.0335 52.4722 60.1622C52.4722 58.2071 52.3869 56.6186 52.2803 56.6186C51.6406 56.6186 51.5553 57.4006 51.6832 62.8016C51.8751 72.0395 53.112 78.2469 55.6709 82.9147C56.268 83.9656 56.7371 84.8943 56.7371 84.992C56.7371 85.0654 55.415 85.212 53.8157 85.2853C52.195 85.3831 49.7214 85.6274 48.314 85.823C43.452 86.5072 38.9099 86.8983 31.2545 87.2893C27.0322 87.5092 22.2769 87.7781 20.6989 87.9003C19.1209 88.0224 17.5002 88.0469 17.0951 87.9491C16.3914 87.7781 16.3274 87.6559 15.5597 85.3342C14.3229 81.5462 13.278 77.3671 12.8089 74.3856C12.0838 69.62 11.4868 62.7772 11.3801 57.5717L11.2522 52.5373L16.2421 52.3907C18.9929 52.2929 27.3095 52.1463 34.7303 52.0485C42.1299 51.9752 48.2073 51.8042 48.2073 51.7064C48.2073 51.6086 48.2713 51.3398 48.3566 51.0954C48.4846 50.7044 47.8235 50.68 35.498 50.8266C28.3543 50.9244 20.0805 51.1199 17.1164 51.2665C14.1523 51.4131 11.6787 51.4865 11.5934 51.4131C11.5294 51.3398 11.6147 49.5802 11.764 47.5274L12.0625 43.7882L17.4789 43.6172C20.4643 43.5194 22.9593 43.4705 23.0019 43.5438C23.0446 43.5927 23.0232 44.0815 22.938 44.5947C22.8527 45.2301 22.6607 45.6211 22.4262 45.6945C21.957 45.8167 21.6585 47.2585 21.9997 47.7229C22.1276 47.9184 22.5541 48.065 22.938 48.065H23.6417L23.6203 46.281C23.6203 45.3279 23.6843 44.2526 23.7696 43.9349C23.9402 43.3728 24.0042 43.3728 25.4756 43.5194C26.3072 43.5927 30.039 43.7394 33.7707 43.8371C37.5025 43.9104 40.5732 44.0571 40.6159 44.1304C40.8718 44.5947 40.4239 45.5478 39.8269 45.8655C38.9526 46.3299 38.8246 47.1608 39.5496 47.6984C39.9548 48.0161 40.1681 48.0406 40.5092 47.8451C40.9571 47.5518 41.0424 47.3074 41.2769 45.7433C41.5541 43.8127 41.3196 43.9104 46.1389 43.9104C49.3375 43.9104 50.5957 44.0082 51.0008 44.2526C51.4913 44.5458 51.5766 44.5214 51.8325 44.0815C52.3656 43.0551 51.7472 42.9329 46.4801 42.9329H41.6608L41.5115 42.0042C41.3622 40.88 40.7438 39.9025 39.8908 39.3893C39.1232 38.9249 37.5452 38.9249 36.6282 39.3648C35.7539 39.7803 34.5811 41.2955 34.4105 42.2242L34.2825 42.9573L32.7685 42.7862C31.9368 42.7129 29.5912 42.5663 27.544 42.4685L23.8123 42.3219L23.6203 41.4665C23.1085 39.2182 21.3386 38.1429 19.0996 38.7538ZM21.9357 40.1469C22.4048 40.5134 23.0446 41.6865 23.0446 42.1997C23.0446 42.3463 21.9784 42.4441 19.9525 42.4441C18.2466 42.4441 16.8605 42.3952 16.8605 42.3219C16.8605 41.7354 17.6495 40.7089 18.3959 40.269C19.5047 39.6581 21.232 39.5848 21.9357 40.1469ZM39.6563 40.6356C40.0614 40.9778 40.7438 42.3219 40.7438 42.8107C40.7438 42.884 39.5496 42.9329 38.0783 42.9329C35.2208 42.9329 35.0715 42.8596 35.7539 41.7354C36.6069 40.3668 38.6114 39.8047 39.6563 40.6356ZM10.8257 46.892C10.7617 48.1383 10.5911 50.4356 10.4419 51.9752C10.1646 55.2256 10.2926 59.3069 10.8897 65.9542C11.6787 74.8011 12.5103 79.2734 14.4295 85.0409C14.7494 85.9696 14.92 86.8005 14.8134 86.9227C14.7067 87.0205 14.131 87.1915 13.5339 87.2893L12.4464 87.4359L11.9985 85.1631C9.97273 75.1188 9.1624 65.1233 9.58889 55.3967C9.71683 52.3662 9.93008 48.9693 10.0367 47.8451C10.1433 46.6964 10.2073 45.7189 10.1433 45.67C9.88743 45.3768 9.56756 47.2585 9.37564 50.0201C8.79989 58.867 8.92783 69.2779 9.73816 76.2918C10.0793 79.3956 10.058 79.2245 9.93008 79.0534C9.56756 78.638 8.92783 72.4305 8.75724 67.6161C8.62929 64.5856 8.4587 60.1867 8.33075 57.8405C8.2028 55.1278 8.2028 52.4884 8.33075 50.6311C8.52267 47.9917 8.79989 45.9388 9.01313 45.7678C9.56756 45.3279 10.6125 44.6436 10.7617 44.6436C10.8684 44.6436 10.8897 45.6211 10.8257 46.892ZM8.35207 47.4785C7.90426 50.2645 7.64837 55.1523 7.77632 58.3293C8.24545 68.8869 8.75724 75.632 9.39697 79.2734C10.6978 86.5072 10.7831 89.8309 9.52492 84.4788C8.3734 79.5177 7.71234 73.8235 7.66969 68.5936C7.66969 67.1762 7.56307 65.8076 7.45645 65.5388C7.11526 64.6834 7.39248 75.5342 7.77632 78.2469C8.07486 80.3242 8.82121 84.1367 9.31167 86.1162C9.37564 86.4339 9.35432 86.6783 9.2477 86.6783C8.71459 86.6783 6.90202 78.2469 6.30493 73.1637C5.6652 67.4694 6.09169 50.851 6.96599 47.5274C7.05129 47.1608 8.35207 46.0366 8.48002 46.2077C8.52267 46.2321 8.4587 46.8186 8.35207 47.4785ZM11.4015 87.0449C11.5081 87.5826 11.4868 87.6803 11.3162 87.4115C11.2095 87.216 11.1029 86.8249 11.1029 86.5806C11.1029 85.9452 11.2309 86.1407 11.4015 87.0449Z" fill="#8A6D18"/>
<path d="M19.0996 38.7538C17.6495 39.1693 16.37 40.3424 16.0075 41.5887C15.7303 42.5174 15.2612 42.6885 12.9368 42.6885C11.5721 42.6885 11.3162 42.7618 10.3566 43.495C9.75948 43.9349 8.65062 44.7169 7.88294 45.2301L6.49685 46.1588L6.13434 48.1383C5.32401 52.6595 4.74825 65.2455 5.11077 70.4265C5.40931 74.41 6.5395 81.204 7.47777 84.5277L8.11751 86.8494L9.82346 87.7536L11.5294 88.6579L13.342 88.3402C15.0479 88.0713 15.1759 88.0713 15.4531 88.5357C15.7303 88.9511 16.0289 89 18.6091 89C21.3599 89 32.9391 88.389 40.0828 87.8758C42.002 87.7536 45.03 87.4115 46.7999 87.1427C48.5699 86.8494 51.7898 86.5806 53.9649 86.5072C56.3746 86.4339 57.9739 86.2629 58.0592 86.1162C58.2085 85.823 57.2489 83.5257 56.1827 81.6684C54.0076 77.9292 52.4722 69.0335 52.4722 60.1622C52.4722 58.2071 52.3869 56.6186 52.2803 56.6186C51.6406 56.6186 51.5553 57.4006 51.6832 62.8016C51.8751 72.0395 53.112 78.2469 55.6709 82.9147C56.268 83.9656 56.7371 84.8943 56.7371 84.992C56.7371 85.0654 55.415 85.212 53.8157 85.2853C52.195 85.3831 49.7214 85.6274 48.314 85.823C43.452 86.5072 38.9099 86.8983 31.2545 87.2893C27.0322 87.5092 22.2769 87.7781 20.6989 87.9003C19.1209 88.0224 17.5002 88.0469 17.0951 87.9491C16.3914 87.7781 16.3274 87.6559 15.5597 85.3342C14.3229 81.5462 13.278 77.3671 12.8089 74.3856C12.0838 69.62 11.4868 62.7772 11.3801 57.5717L11.2522 52.5373L16.2421 52.3907C18.9929 52.2929 27.3095 52.1463 34.7303 52.0485C42.1299 51.9752 48.2073 51.8042 48.2073 51.7064C48.2073 51.6086 48.2713 51.3398 48.3566 51.0954C48.4846 50.7044 47.8235 50.68 35.498 50.8266C28.3543 50.9244 20.0805 51.1199 17.1164 51.2665C14.1523 51.4131 11.6787 51.4865 11.5934 51.4131C11.5294 51.3398 11.6147 49.5802 11.764 47.5274L12.0625 43.7882L17.4789 43.6172C20.4643 43.5194 22.9593 43.4705 23.0019 43.5438C23.0446 43.5927 23.0232 44.0815 22.938 44.5947C22.8527 45.2301 22.6607 45.6211 22.4262 45.6945C21.957 45.8167 21.6585 47.2585 21.9997 47.7229C22.1276 47.9184 22.5541 48.065 22.938 48.065H23.6417L23.6203 46.281C23.6203 45.3279 23.6843 44.2526 23.7696 43.9349C23.9402 43.3728 24.0042 43.3728 25.4756 43.5194C26.3072 43.5927 30.039 43.7394 33.7707 43.8371C37.5025 43.9104 40.5732 44.0571 40.6159 44.1304C40.8718 44.5947 40.4239 45.5478 39.8269 45.8655C38.9526 46.3299 38.8246 47.1608 39.5496 47.6984C39.9548 48.0161 40.1681 48.0406 40.5092 47.8451C40.9571 47.5518 41.0424 47.3074 41.2769 45.7433C41.5541 43.8127 41.3196 43.9104 46.1389 43.9104C49.3375 43.9104 50.5957 44.0082 51.0008 44.2526C51.4913 44.5458 51.5766 44.5214 51.8325 44.0815C52.3656 43.0551 51.7472 42.9329 46.4801 42.9329H41.6608L41.5115 42.0042C41.3622 40.88 40.7438 39.9025 39.8908 39.3893C39.1232 38.9249 37.5452 38.9249 36.6282 39.3648C35.7539 39.7803 34.5811 41.2955 34.4105 42.2242L34.2825 42.9573L32.7685 42.7862C31.9368 42.7129 29.5912 42.5663 27.544 42.4685L23.8123 42.3219L23.6203 41.4665C23.1085 39.2182 21.3386 38.1429 19.0996 38.7538ZM21.9357 40.1469C22.4048 40.5134 23.0446 41.6865 23.0446 42.1997C23.0446 42.3463 21.9784 42.4441 19.9525 42.4441C18.2466 42.4441 16.8605 42.3952 16.8605 42.3219C16.8605 41.7354 17.6495 40.7089 18.3959 40.269C19.5047 39.6581 21.232 39.5848 21.9357 40.1469ZM39.6563 40.6356C40.0614 40.9778 40.7438 42.3219 40.7438 42.8107C40.7438 42.884 39.5496 42.9329 38.0783 42.9329C35.2208 42.9329 35.0715 42.8596 35.7539 41.7354C36.6069 40.3668 38.6114 39.8047 39.6563 40.6356ZM10.8257 46.892C10.7617 48.1383 10.5911 50.4356 10.4419 51.9752C10.1646 55.2256 10.2926 59.3069 10.8897 65.9542C11.6787 74.8011 12.5103 79.2734 14.4295 85.0409C14.7494 85.9696 14.92 86.8005 14.8134 86.9227C14.7067 87.0205 14.131 87.1915 13.5339 87.2893L12.4464 87.4359L11.9985 85.1631C9.97273 75.1188 9.1624 65.1233 9.58889 55.3967C9.71683 52.3662 9.93008 48.9693 10.0367 47.8451C10.1433 46.6964 10.2073 45.7189 10.1433 45.67C9.88743 45.3768 9.56756 47.2585 9.37564 50.0201C8.79989 58.867 8.92783 69.2779 9.73816 76.2918C10.0793 79.3956 10.058 79.2245 9.93008 79.0534C9.56756 78.638 8.92783 72.4305 8.75724 67.6161C8.62929 64.5856 8.4587 60.1867 8.33075 57.8405C8.2028 55.1278 8.2028 52.4884 8.33075 50.6311C8.52267 47.9917 8.79989 45.9388 9.01313 45.7678C9.56756 45.3279 10.6125 44.6436 10.7617 44.6436C10.8684 44.6436 10.8897 45.6211 10.8257 46.892ZM8.35207 47.4785C7.90426 50.2645 7.64837 55.1523 7.77632 58.3293C8.24545 68.8869 8.75724 75.632 9.39697 79.2734C10.6978 86.5072 10.7831 89.8309 9.52492 84.4788C8.3734 79.5177 7.71234 73.8235 7.66969 68.5936C7.66969 67.1762 7.56307 65.8076 7.45645 65.5388C7.11526 64.6834 7.39248 75.5342 7.77632 78.2469C8.07486 80.3242 8.82121 84.1367 9.31167 86.1162C9.37564 86.4339 9.35432 86.6783 9.2477 86.6783C8.71459 86.6783 6.90202 78.2469 6.30493 73.1637C5.6652 67.4694 6.09169 50.851 6.96599 47.5274C7.05129 47.1608 8.35207 46.0366 8.48002 46.2077C8.52267 46.2321 8.4587 46.8186 8.35207 47.4785ZM11.4015 87.0449C11.5081 87.5826 11.4868 87.6803 11.3162 87.4115C11.2095 87.216 11.1029 86.8249 11.1029 86.5806C11.1029 85.9452 11.2309 86.1407 11.4015 87.0449Z" stroke="#8A6D18" stroke-width="2" mask="url(#path-8-outside-1_770_2347)"/>
<path d="M43.4733 66.8941H41.9189L41.985 67.3485L41.9863 67.3574L41.9872 67.3663C42.0498 67.9398 42.2185 69.077 42.3469 69.9105L42.3469 69.9105L42.348 69.918L42.5015 71.0262H43.1748C43.7402 71.0262 44.5557 70.9563 44.9796 70.8882C45.1694 70.8469 45.2715 70.8235 45.3391 70.8001C45.3428 70.7781 45.3472 70.7454 45.3508 70.6987C45.3613 70.5616 45.3617 70.3736 45.3617 70.0843C45.3617 69.4959 45.2994 68.4174 45.2364 67.7165L45.1397 66.8941H43.4733ZM49.1205 59.8371C49.1126 62.0012 48.1127 64.128 46.0821 65.2223C46.1436 65.2933 46.1951 65.3735 46.2388 65.4603C46.3368 65.6547 46.4103 65.91 46.4839 66.2174C46.559 66.5314 46.6443 66.9455 46.7546 67.4811L46.7558 67.4871C46.7559 67.4877 46.7561 67.4883 46.7562 67.489C47.0145 68.6984 47.2146 70.2036 47.2146 70.8419V71.9417V72.4071L46.7504 72.4404L44.362 72.6115L44.362 72.6115L44.3599 72.6116C43.4559 72.6726 42.8148 72.6994 42.368 72.6762C42.1442 72.6647 41.9435 72.6396 41.7714 72.589C41.5963 72.5376 41.42 72.4507 41.284 72.2949L41.2784 72.2884L41.2731 72.2819C41.176 72.1627 41.1139 72.0063 41.0724 71.8867C41.0251 71.7502 40.9803 71.5868 40.9382 71.4078C40.8536 71.0486 40.7725 70.5945 40.702 70.1C40.561 69.1119 40.4571 67.9266 40.4571 66.9562C40.4571 66.6603 40.4582 66.415 40.4704 66.2202C40.482 66.034 40.5058 65.836 40.5814 65.6626C40.6277 65.5565 40.6897 65.4671 40.7652 65.3938C39.4293 64.7059 38.5098 63.6958 38.0483 62.3634C37.5914 61.0442 37.5998 59.4573 38.0172 57.6318C38.3012 56.3803 38.6633 55.4295 39.244 54.6881C39.8314 53.9382 40.606 53.4483 41.6266 53.0497C42.8689 52.5563 44.1648 52.8222 45.6169 53.6415L45.6169 53.6414L45.6234 53.6452C47.9691 55.0157 49.1291 57.4824 49.1205 59.8371ZM40.7957 63.256L40.7962 63.2565C41.2299 63.6366 41.9418 63.8894 42.77 63.9431C43.5906 63.9963 44.4613 63.8489 45.1726 63.5012C46.7067 62.7457 47.4516 61.2175 47.3984 59.6136C47.3452 58.0074 46.4883 56.3646 44.8497 55.4419C43.3012 54.5781 42.0142 54.5493 41.2204 55.099L41.2179 55.1007C40.1996 55.7968 39.7056 56.8638 39.58 59.306C39.5268 60.5378 39.5651 61.2709 39.7386 61.8201C39.9027 62.3399 40.2023 62.7374 40.7957 63.256Z" fill="#8A6D18" stroke="#8A6D18"/>
<path d="M40.4043 56.2967L40.4042 56.2966L40.4124 56.2953C40.7666 56.2412 41.8821 56.1676 42.8854 56.1431L42.8854 56.1431L42.891 56.143L44.7462 56.1186L45.16 56.1131L45.2427 56.5186L45.6266 58.4004L45.6267 58.4009C45.8437 59.4706 46.0199 60.9685 46.0205 61.7466L46.0418 63.0869L46.0493 63.5591L45.5782 63.5935L43.2325 63.7646L43.2325 63.7646L43.2302 63.7647C42.3371 63.8257 41.7061 63.8525 41.2666 63.8293C40.8652 63.8082 40.454 63.7431 40.1965 63.448C40.0957 63.3325 40.0298 63.1844 39.9848 63.0661C39.9348 62.9348 39.889 62.7801 39.8468 62.6122C39.7621 62.2753 39.6839 61.8514 39.6171 61.3846C39.4836 60.4505 39.3909 59.3086 39.3909 58.2804C39.3909 57.9537 39.3921 57.6869 39.404 57.4761C39.4155 57.2736 39.4387 57.0696 39.5085 56.8929C39.5914 56.6834 39.7326 56.5282 39.9292 56.4305C40.088 56.3515 40.2691 56.3196 40.4043 56.2967ZM44.0707 58.0961H42.4285C41.6482 58.0961 41.1523 58.115 40.8573 58.1556C40.8511 58.1564 40.845 58.1573 40.8391 58.1581C40.8485 58.2503 40.8609 58.3642 40.8766 58.4985C40.9148 58.8257 40.9677 59.2405 41.0262 59.6774C41.143 60.5506 41.2804 61.5013 41.3645 62.0074L41.4112 62.2666L42.7679 62.1569C43.2672 62.1082 43.7275 62.0601 44.0667 62.0156C44.1417 62.0058 44.2089 61.9963 44.268 61.9874C44.2693 61.8857 44.2688 61.7622 44.2662 61.6191C44.2584 61.1833 44.2322 60.5928 44.1899 59.9506L44.1899 59.9499L44.0707 58.0961Z" fill="#8A6D18" stroke="#8A6D18"/>
<path d="M38.3147 63.7053C38.2517 63.7478 38.1905 63.7693 38.1657 63.7778C38.1313 63.7896 38.0968 63.7988 38.0666 63.8061C38.0057 63.8208 37.934 63.8343 37.8579 63.8468C37.7041 63.8721 37.5019 63.8984 37.2679 63.9248C36.7984 63.9777 36.1785 64.0332 35.5136 64.0823L35.5136 64.0824L35.5103 64.0826C34.4472 64.1542 33.796 64.1964 33.395 64.1578C33.185 64.1376 32.9731 64.0907 32.7898 63.9637C32.5992 63.8315 32.5035 63.6565 32.4425 63.5246L32.4424 63.5246L32.4382 63.5148C32.3816 63.3852 32.3379 63.1964 32.3017 63.0138C32.2624 62.8153 32.2223 62.5707 32.183 62.2989C32.1043 61.7546 32.0261 61.0836 31.9616 60.4183C31.8972 59.7532 31.8457 59.0874 31.8212 58.5539C31.809 58.2879 31.8032 58.0486 31.8064 57.8562C31.8081 57.7603 31.812 57.6699 31.8196 57.5905C31.8261 57.5222 31.838 57.4276 31.8681 57.339C31.9591 57.0661 32.1972 56.8837 32.3691 56.7815C32.5671 56.6638 32.8121 56.5726 33.0642 56.5386L33.0642 56.5386L33.0679 56.5381C33.4855 56.4849 34.5774 56.4363 35.5294 56.4609M38.3147 63.7053C38.3161 63.7044 38.3175 63.7034 38.3189 63.7024L38.0356 63.2904L38.3135 63.7061C38.3139 63.7058 38.3143 63.7056 38.3147 63.7053ZM38.3147 63.7053C38.4762 63.5968 38.5502 63.4386 38.5862 63.3364C38.6254 63.225 38.6458 63.1037 38.6569 62.9874C38.6795 62.7531 38.6721 62.4553 38.6432 62.1093C38.5848 61.4121 38.4313 60.4374 38.1847 59.2085L38.1845 59.2079L37.7154 56.8862L37.6355 56.4911L37.2325 56.4853L35.5294 56.4609M35.5294 56.4609C35.5304 56.4609 35.5314 56.4609 35.5324 56.461L35.5193 56.9608L35.5265 56.4608L35.5294 56.4609ZM37.0547 57.8406L37.1363 59.069L36.9891 58.3406M37.0547 57.8406V58.3406H36.9891M37.0547 57.8406L36.8902 57.8515M37.0547 57.8406H36.888L36.8902 57.8515M36.9891 58.3406H36.5868L36.5558 57.8737L36.8902 57.8515M36.9891 58.3406L36.8902 57.8515M32.4512 57.3406C32.3994 57.3904 32.3621 57.4421 32.3441 57.4923L32.34 57.3406H32.4512ZM37.2971 57.3406H37.5226L37.5536 57.8075L37.633 59.0027L37.3936 57.8181L37.2971 57.3406ZM36.705 60.1205C36.7049 60.12 36.7049 60.1195 36.7049 60.119L37.204 60.089L36.7051 60.1221L36.705 60.1205ZM35.1568 62.3505V62.8505L35.1441 62.3507C35.1462 62.3507 35.1483 62.3506 35.1504 62.3505H35.1568ZM36.7042 62.2511C36.7061 62.2388 36.7081 62.2258 36.7099 62.2121C36.7303 62.2075 36.7491 62.203 36.7662 62.1985C36.8054 62.1882 36.8262 62.1806 36.8336 62.1776C36.8205 62.1843 36.7821 62.2069 36.7419 62.253C36.7075 62.2925 36.691 62.3272 36.6856 62.3406C36.689 62.3298 36.6961 62.302 36.7042 62.2511ZM33.4082 62.3505H33.8337L33.9018 62.7706L33.4082 62.8505V62.3505ZM33.6266 61.0733L33.131 61.1398L33.6246 61.0598L33.6257 61.0666C33.626 61.0688 33.6263 61.0711 33.6266 61.0733ZM33.354 57.8406L33.3676 58.3406H32.8674L32.8538 57.8406H33.354Z" fill="#8A6D18" stroke="#8A6D18"/>
<path d="M26.8126 56.7792L26.8126 56.7792L26.8171 56.7789C27.0459 56.7683 27.2591 56.7575 27.4572 56.7475C27.9294 56.7236 28.3159 56.7041 28.6237 56.7013C29.0446 56.6975 29.4316 56.7196 29.7402 56.874C30.1016 57.0548 30.2666 57.3637 30.369 57.682C30.437 57.8935 30.4943 58.1684 30.5588 58.4782C30.5826 58.5924 30.6074 58.7114 30.6341 58.8337L30.6341 58.8337L30.6352 58.8391C30.8294 59.7788 31.0668 61.2117 31.1542 61.988L31.1543 61.988L31.1552 61.9974C31.1869 62.3367 31.211 62.6108 31.219 62.8284C31.2267 63.0395 31.2219 63.2449 31.1715 63.4287C31.1133 63.6409 31.0005 63.8047 30.8374 63.9309C30.7036 64.0344 30.5412 64.106 30.4143 64.162L30.4112 64.1633L30.3997 64.1684L30.388 64.1729C30.2579 64.2226 30.0823 64.2595 29.906 64.2888C29.7195 64.3198 29.4965 64.3478 29.253 64.3715C28.7657 64.4188 28.1791 64.4502 27.608 64.4502C27.1406 64.4502 26.7698 64.4487 26.4777 64.4376C26.191 64.4267 25.9475 64.4057 25.7471 64.3561C25.5337 64.3032 25.3385 64.2105 25.1826 64.0377C25.0421 63.8821 24.9703 63.6987 24.9204 63.5593C24.8722 63.4289 24.832 63.2463 24.797 63.057C24.7597 62.8555 24.7222 62.6115 24.6858 62.3424C24.6129 61.8038 24.5422 61.15 24.4844 60.5063C24.4266 59.8628 24.3813 59.2236 24.3599 58.7146C24.3492 58.4608 24.3442 58.2336 24.3471 58.0521C24.3486 57.9616 24.3521 57.8766 24.3588 57.8023C24.3645 57.7386 24.3754 57.6449 24.405 57.5576L24.4049 57.5576L24.4064 57.5535C24.4825 57.3354 24.646 57.2009 24.7924 57.1196C24.9371 57.0393 25.1085 56.986 25.2866 56.9462C25.6443 56.8663 26.1488 56.816 26.8126 56.7792ZM29.2627 60.4628L29.1433 58.5849H27.5013C27.37 58.5849 27.2483 58.5845 27.1352 58.5842C26.7103 58.5828 26.4074 58.5819 26.1761 58.6027C25.9954 58.619 25.9223 58.645 25.8983 58.6562C25.8898 58.6835 25.8658 58.7872 25.8887 59.0765C25.9105 59.3531 25.9642 59.7098 26.0372 60.1954C26.0562 60.3214 26.0765 60.4562 26.0978 60.6004C26.1384 60.8621 26.1729 61.0937 26.2036 61.3C26.2595 61.6757 26.3029 61.9676 26.3484 62.2044C26.4214 62.5846 26.4796 62.6874 26.5014 62.7129C26.5033 62.7136 26.5062 62.7148 26.5106 62.7161C26.5367 62.7242 26.5924 62.7346 26.706 62.7358C26.8595 62.7373 27.0384 62.7239 27.2823 62.7057C27.4316 62.6945 27.6053 62.6816 27.8124 62.6691L27.8124 62.669L27.8182 62.6687C28.3076 62.6449 28.7561 62.6033 29.0873 62.5569C29.1781 62.5442 29.2573 62.5315 29.3244 62.5193C29.3278 62.4108 29.3293 62.2755 29.3284 62.1172C29.3258 61.6796 29.3049 61.0912 29.2628 60.4645L29.2627 60.4628ZM25.8883 58.6617C25.8884 58.6617 25.8888 58.6614 25.8894 58.6609L25.8883 58.6617ZM29.5377 62.4699C29.5489 62.4657 29.5457 62.4657 29.5335 62.4714C29.5354 62.4708 29.5368 62.4703 29.5377 62.4699Z" fill="#8A6D18" stroke="#8A6D18"/>
<path d="M19.3303 57.0235L19.3303 57.0233L19.3436 57.023C20.3649 56.9986 21.3418 56.9257 21.481 56.9057L21.481 56.9057L21.4888 56.9047C21.684 56.8798 21.9187 56.8823 22.149 57.0005C22.3788 57.1184 22.5315 57.3139 22.6426 57.5262C22.8502 57.9227 23.0055 58.5674 23.1936 59.5015L23.194 59.5036C23.4416 60.762 23.5806 61.8068 23.6031 62.5856C23.6142 62.9732 23.5974 63.3162 23.5416 63.5953C23.4911 63.848 23.3874 64.1633 23.1274 64.3532C22.9683 64.4706 22.7517 64.5255 22.5943 64.558C22.4089 64.5964 22.1868 64.6252 21.9483 64.6465C21.4695 64.6893 20.8852 64.7055 20.3136 64.6977C19.7426 64.6899 19.1698 64.6579 18.715 64.6011C18.4894 64.5728 18.2784 64.5368 18.1062 64.4898C18.0207 64.4664 17.9307 64.4367 17.8481 64.3971C17.7772 64.3631 17.6527 64.2947 17.5615 64.1661L17.5615 64.1661L17.5594 64.1631C17.4959 64.0721 17.4604 63.9661 17.4415 63.9061C17.4177 63.8304 17.3954 63.7424 17.3745 63.6489C17.3324 63.4608 17.2893 63.2212 17.2469 62.9519C17.1619 62.4117 17.0756 61.7262 17.0031 61.0396C16.9305 60.3529 16.871 59.6583 16.8404 59.0998C16.8252 58.8212 16.8168 58.5706 16.8181 58.3692C16.8188 58.2689 16.8219 58.1748 16.8288 58.0925C16.8348 58.02 16.8462 57.9208 16.8766 57.8295L16.8764 57.8294L16.8811 57.8164C17.0257 57.4188 17.3909 57.2647 17.7378 57.1852C18.0932 57.1037 18.61 57.0599 19.3303 57.0235ZM18.4268 58.866V59.0136C18.4268 59.342 18.5288 60.4607 18.6775 61.4833L18.6776 61.4833L18.6789 61.4942L18.8595 62.9615H19.9313C20.5764 62.9615 21.0234 62.9609 21.3479 62.9298C21.6861 62.8973 21.7729 62.8391 21.792 62.8214C21.7921 62.8214 21.7921 62.8214 21.7921 62.8214C21.7949 62.8191 21.8446 62.7782 21.8579 62.5183C21.8715 62.2527 21.8436 61.8837 21.7998 61.3255L21.7997 61.3255L21.7993 61.3175C21.736 60.3029 21.6317 59.2799 21.5922 59.0248C21.5901 59.0139 21.5882 59.0044 21.5864 58.9963C21.5807 58.9946 21.5743 58.9929 21.5671 58.9911C21.3513 58.9361 20.9132 58.9152 19.9461 58.9026L19.9461 58.9027L19.9405 58.9025L18.4268 58.866Z" fill="#8A6D18" stroke="#8A6D18"/>
<path d="M35.2396 65.3326L35.2409 65.3325C35.4758 65.3219 35.6945 65.3111 35.8978 65.3011C36.3833 65.2772 36.7802 65.2577 37.0967 65.2549C37.53 65.2511 37.9221 65.2736 38.2346 65.4246C38.6007 65.6016 38.7737 65.9063 38.8827 66.2284C38.9555 66.4434 39.0168 66.7228 39.0859 67.0372C39.1103 67.1483 39.1356 67.2637 39.1627 67.3822C39.3822 68.3379 39.5792 69.812 39.6016 70.6319C39.6123 70.9729 39.6181 71.2489 39.612 71.4695C39.606 71.6846 39.5883 71.8858 39.5345 72.0611C39.4741 72.2576 39.3683 72.4219 39.2023 72.5473C39.0603 72.6545 38.8964 72.714 38.7761 72.756L38.7761 72.756L38.767 72.759C38.6427 72.7997 38.474 72.8271 38.3084 72.8482C38.1315 72.8707 37.9187 72.8906 37.6859 72.9077C37.2196 72.9421 36.6564 72.9669 36.1063 72.9792L36.1063 72.9793L36.1004 72.9793C36.0352 72.98 35.9712 72.9808 35.9083 72.9816C35.4318 72.9873 35.0202 72.9923 34.6947 72.9514C34.3039 72.9023 33.9323 72.7762 33.663 72.4276C33.4227 72.1167 33.3197 71.6934 33.2494 71.2152C33.1841 70.7707 33.1374 70.1915 33.0786 69.461C33.0722 69.3826 33.0658 69.3024 33.0591 69.2205L33.5575 69.1801L33.0592 69.2211C33.0496 69.1048 33.0403 68.9922 33.0312 68.8832C32.9754 68.2114 32.931 67.6765 32.9194 67.2619C32.9065 66.8005 32.9268 66.3781 33.0933 66.0512C33.293 65.6587 33.6411 65.5022 33.9971 65.4317C34.2771 65.3762 34.6381 65.3599 35.0426 65.3416C35.1072 65.3387 35.1729 65.3358 35.2396 65.3326ZM37.6731 67.1385H36.0311C35.8497 67.1385 35.6869 67.1375 35.54 67.1366C35.1792 67.1344 34.9147 67.1328 34.706 67.1479C34.5554 67.1587 34.4809 67.1768 34.4484 67.1873C34.4413 67.225 34.4289 67.3254 34.4456 67.5498C34.4628 67.7803 34.5016 68.0664 34.5527 68.4445C34.5759 68.6154 34.6016 68.8051 34.629 69.0169C34.6631 69.27 34.6924 69.4967 34.7188 69.7007C34.7725 70.1154 34.814 70.4363 34.8588 70.6947C34.9292 71.1008 34.9903 71.2185 35.0188 71.2522C35.019 71.2524 35.0191 71.2527 35.0192 71.2529C35.0199 71.2541 35.0208 71.2557 35.0338 71.2601C35.0595 71.269 35.115 71.2809 35.2283 71.2838C35.3918 71.2879 35.5877 71.274 35.8612 71.2547C35.9997 71.2449 36.1582 71.2336 36.3425 71.2226L36.3425 71.2226L36.348 71.2223C36.8374 71.1985 37.2859 71.1569 37.6171 71.1105C37.7079 71.0978 37.7871 71.0851 37.8542 71.0729C37.8576 70.9644 37.8591 70.8291 37.8582 70.6708C37.8556 70.2332 37.8347 69.6448 37.7926 69.0181L37.7925 69.0164L37.6731 67.1385ZM38.0675 71.0235C38.0787 71.0193 38.0755 71.0193 38.0633 71.025C38.0652 71.0244 38.0666 71.0239 38.0675 71.0235Z" fill="#8A6D18" stroke="#8A6D18"/>
<path d="M27.9462 65.577L27.9462 65.577L27.9485 65.5769C29.0604 65.5279 30.1563 65.5031 30.4015 65.5031H30.4184L30.4352 65.5042C30.6134 65.5163 30.8022 65.5737 30.9713 65.7229C31.1228 65.8567 31.2233 66.034 31.3011 66.2159C31.4536 66.5726 31.596 67.1408 31.7853 67.9965C32.0426 69.1516 32.2655 70.6333 32.2663 71.3269C32.2713 71.6621 32.2742 72.0013 32.2031 72.28C32.1644 72.4319 32.0996 72.5863 31.988 72.7253C31.8751 72.8661 31.7335 72.9672 31.5751 73.0388C31.2812 73.1718 30.9033 73.2127 30.471 73.2258C30.0247 73.2394 29.443 73.2234 28.7005 73.1991L28.6997 73.199L26.5673 73.1257L26.1843 73.1126L26.0975 72.7393L25.9269 72.0062L25.9267 72.0062L25.9241 71.9934C25.8308 71.5388 25.6801 70.0636 25.595 68.698L25.5949 68.698L25.5947 68.6926L25.4667 66.1998L25.441 65.6992L25.9417 65.6748L27.9462 65.577ZM30.2207 67.4754L28.5619 67.4562L28.5595 67.4562C27.8148 67.444 27.3157 67.457 27.0101 67.4926C27.0004 67.4937 26.9909 67.4949 26.9819 67.496C26.9911 67.5834 27.0025 67.6848 27.0157 67.7979C27.054 68.1229 27.1069 68.5362 27.1653 68.9698C27.2825 69.8401 27.4199 70.7777 27.5031 71.2427L27.5032 71.2427L27.5046 71.251C27.5238 71.3702 27.5375 71.4363 27.5479 71.4745C27.5863 71.4832 27.6562 71.4943 27.7772 71.5019C27.9581 71.5133 28.2015 71.5151 28.5463 71.5151C29.0847 71.5151 29.4835 71.5072 29.7842 71.4807C30.093 71.4535 30.2449 71.4101 30.3201 71.3715C30.3634 71.3493 30.3745 71.3362 30.3902 71.2892C30.4177 71.2072 30.4346 71.0659 30.4346 70.7931C30.4346 70.3265 30.3723 69.2703 30.3085 68.4644L30.2207 67.4754ZM26.764 67.5402C26.7641 67.5402 26.7652 67.5397 26.7672 67.5387C26.765 67.5397 26.7639 67.5402 26.764 67.5402Z" fill="#8A6D18" stroke="#8A6D18"/>
<path d="M22.8654 69.5765L22.7463 67.7441L21.1012 67.725H19.5107L19.514 67.8186L19.5143 67.8273V67.836C19.5143 68.1377 19.6358 69.2199 19.7658 70.2381L19.9637 71.6556L21.2492 71.7108C21.7015 71.7225 22.1412 71.7105 22.4814 71.6845C22.6471 71.6718 22.7824 71.6564 22.8808 71.6402C22.8921 71.5835 22.9032 71.4999 22.9108 71.3791C22.9326 71.0284 22.9188 70.4701 22.8654 69.5778C22.8654 69.5774 22.8654 69.577 22.8654 69.5765ZM23.0028 71.6141C23.0027 71.614 23.001 71.6146 22.998 71.6157C23.0014 71.6147 23.0029 71.6141 23.0028 71.6141ZM17.9854 66.6763L17.9852 66.6762L17.99 66.6632C18.1367 66.2595 18.5094 66.1083 18.8699 66.0354C19.2379 65.961 19.7767 65.9308 20.5399 65.9186C21.0655 65.9066 21.5504 65.8825 21.908 65.853C22.0883 65.8382 22.2283 65.8226 22.3222 65.8078C22.3274 65.807 22.3323 65.8062 22.3369 65.8054C22.4587 65.7063 22.6198 65.6283 22.8186 65.6315C23.0769 65.6355 23.2691 65.7755 23.3901 65.8987C23.6236 66.1366 23.8047 66.5275 23.954 66.9569C24.2648 67.8505 24.5419 69.2302 24.7355 70.9068L24.7357 70.9086C24.7881 71.377 24.8262 71.7936 24.7934 72.1333C24.7586 72.4944 24.6364 72.8434 24.309 73.0916C24.0165 73.3134 23.6286 73.398 23.2138 73.441C22.7865 73.4854 22.2359 73.4926 21.5519 73.4926C20.758 73.4926 20.1407 73.4683 19.6979 73.4123C19.4782 73.3845 19.2797 73.3463 19.1163 73.2901C18.9815 73.2438 18.7685 73.1523 18.6392 72.95C18.5803 72.863 18.5466 72.7677 18.5281 72.712C18.5025 72.6347 18.4791 72.5457 18.4575 72.4521C18.4141 72.2637 18.3707 72.0247 18.3288 71.7572C18.2446 71.2205 18.1615 70.5402 18.093 69.8595C18.0244 69.1786 17.9697 68.4899 17.9428 67.9358C17.9294 67.6595 17.9227 67.4108 17.9252 67.2109C17.9265 67.1112 17.9301 67.0178 17.9374 66.9361C17.9437 66.8639 17.9555 66.7662 17.9854 66.6763Z" fill="#8A6D18" stroke="#8A6D18"/>
<path d="M45.4003 82.6074L45.3992 82.6075C44.5251 82.6564 43.9036 82.6707 43.4673 82.6374C43.0646 82.6066 42.6652 82.5291 42.4143 82.2415C42.3449 82.162 42.3022 82.072 42.2776 82.015C42.249 81.9489 42.2235 81.8754 42.2005 81.8007C42.1544 81.6508 42.109 81.465 42.065 81.2584C41.9768 80.8436 41.8876 80.3118 41.8081 79.7463C41.6497 78.6203 41.5233 77.3164 41.5233 76.4874C41.5233 76.1817 41.5441 75.8613 41.6875 75.6031C41.8626 75.2878 42.1521 75.1676 42.42 75.1164C42.5859 75.0847 42.9676 75.0529 43.4111 75.026C43.8705 74.9981 44.4366 74.9734 44.9977 74.9611L44.9977 74.961L45.0028 74.961L47.0499 74.9365L47.4769 74.9314L47.5487 75.3524L47.9323 77.5994C48.1158 78.6385 48.246 79.6565 48.3061 80.4451C48.336 80.838 48.3494 81.1847 48.3413 81.4528C48.3373 81.5855 48.3277 81.7132 48.308 81.8235C48.2982 81.8786 48.2839 81.9412 48.2611 82.0034C48.241 82.0582 48.2006 82.1519 48.1185 82.2365C48.0548 82.3021 47.9896 82.3338 47.9705 82.3431C47.9384 82.3586 47.9102 82.3684 47.8928 82.374C47.8574 82.3854 47.8229 82.3932 47.7975 82.3985C47.7442 82.4095 47.6798 82.4194 47.6121 82.4285C47.474 82.4471 47.2866 82.467 47.0667 82.4871C46.6253 82.5274 46.0332 82.5706 45.4003 82.6074ZM44.4726 76.8404L43.082 76.9105L43.3292 78.7422L43.3292 78.7422L43.3304 78.7518C43.4044 79.3945 43.4836 79.9875 43.5493 80.424C43.5722 80.5762 43.5932 80.7076 43.6115 80.8146C43.6725 80.8182 43.7422 80.8213 43.8199 80.8238C44.1469 80.8345 44.5801 80.8339 45.0207 80.8233C45.4614 80.8128 45.9011 80.7925 46.2414 80.7649C46.3691 80.7545 46.4784 80.7435 46.5662 80.7322C46.5815 80.5742 46.586 80.3396 46.5748 80.0209C46.5516 79.3562 46.4632 78.3902 46.3041 77.1379C46.2852 76.9939 46.2606 76.8627 46.2352 76.7545C46.1377 76.7623 46.0247 76.7705 45.8993 76.7786C45.5161 76.8033 45.0107 76.828 44.4726 76.8404ZM46.7539 80.6991C46.7537 80.6991 46.7504 80.6999 46.7448 80.702C46.7513 80.7002 46.7541 80.6992 46.7539 80.6991ZM46.542 80.8851C46.5377 80.8953 46.5381 80.8975 46.5413 80.8874C46.5415 80.8867 46.5418 80.886 46.542 80.8851ZM46.6818 76.6992C46.664 76.7043 46.6453 76.7085 46.6271 76.7121C46.6478 76.7085 46.6692 76.7034 46.6911 76.6965L46.6818 76.6992Z" fill="#8A6D18" stroke="#8A6D18"/>
<path d="M35.0701 75.3595L35.0701 75.3593L35.0814 75.3576C35.4357 75.3035 36.5513 75.2299 37.5759 75.2054L37.5759 75.2054L37.5802 75.2053C38.3605 75.1934 38.885 75.1961 39.2258 75.2637C39.4067 75.2995 39.5949 75.3636 39.7516 75.5001C39.9156 75.643 39.989 75.8162 40.0298 75.9566L40.0329 75.9672L40.0355 75.9778C40.2429 76.8287 40.443 77.9268 40.5831 78.9094C40.72 79.8684 40.8099 80.7832 40.7734 81.2408L40.7097 82.1906L40.6809 82.6193L40.2527 82.6553L37.9283 82.8508L37.9272 82.8509C37.0334 82.9241 36.4015 82.9576 35.9631 82.9376C35.7439 82.9276 35.5454 82.9034 35.3749 82.8516C35.2033 82.7994 35.029 82.7095 34.8985 82.5479C34.7935 82.4218 34.7315 82.2522 34.6933 82.1366C34.6457 81.9927 34.6003 81.8177 34.5575 81.6253C34.4716 81.2388 34.3881 80.7469 34.3151 80.2185C34.1694 79.1639 34.0598 77.9235 34.0598 77.0249C34.0598 76.7821 34.0622 76.5727 34.077 76.4004C34.0912 76.2334 34.1203 76.0496 34.2038 75.8837C34.4088 75.4766 34.8161 75.4043 35.0701 75.3595ZM38.7174 77.0515L37.0723 77.1092L35.5364 77.1631L35.6095 77.6894L35.6107 77.6977L35.6115 77.706C35.6736 78.299 35.8417 79.3842 35.9892 80.1571L35.9893 80.1571L35.9909 80.1664C36.0503 80.5132 36.0931 80.7565 36.1352 80.9371C36.1728 81.0978 36.2016 81.1686 36.2171 81.1979C36.2628 81.2124 36.3433 81.2254 36.5293 81.2442L36.5293 81.2441L36.5389 81.2452C36.8873 81.2873 37.6924 81.2669 38.2775 81.1744L38.2775 81.1743L38.29 81.1726L38.9582 81.0843L38.9431 80.0135L38.9431 80.0135V80.0065C38.9431 79.203 38.8603 78.1061 38.7983 77.5809L38.7174 77.0515Z" fill="#8A6D18" stroke="#8A6D18"/>
<path d="M27.7244 75.6021L27.7244 75.602L27.7331 75.6008C28.1239 75.5481 29.2521 75.4745 30.2238 75.4741L31.9655 75.4254L32.3726 75.4141L32.4661 75.8105L32.6794 76.7147L32.6796 76.7159C33.1724 78.8275 33.3538 79.9723 33.3538 81.204V82.4504V82.9156L32.8898 82.9491L30.5228 83.1202L30.5228 83.1202L30.5185 83.1205C29.7452 83.1697 29.1079 83.1892 28.6358 83.1731C28.4012 83.1651 28.1924 83.1479 28.022 83.1168C27.9367 83.1012 27.849 83.0801 27.7668 83.0493C27.692 83.0213 27.5849 82.9719 27.4922 82.8804C27.4048 82.7949 27.3571 82.6932 27.3353 82.6443C27.3064 82.5793 27.2812 82.5074 27.2592 82.4359C27.2148 82.2918 27.171 82.1108 27.1286 81.9089C27.0434 81.5027 26.9563 80.9748 26.8781 80.4078C26.7223 79.2782 26.5962 77.9507 26.5962 77.0739C26.5962 76.8727 26.5997 76.6873 26.6204 76.5295C26.6412 76.3718 26.685 76.1879 26.8044 76.0244C26.9315 75.8504 27.1 75.7586 27.2565 75.7044C27.4008 75.6544 27.5666 75.6262 27.7244 75.6021ZM31.3772 77.8729L31.3107 77.4028H29.6338C29.1082 77.4028 28.7236 77.4028 28.4379 77.411C28.2987 77.415 28.1935 77.4208 28.1141 77.4276C28.1726 77.7604 28.2731 78.5069 28.3797 79.3C28.4082 79.512 28.4372 79.7274 28.4659 79.939C28.4659 79.9391 28.4659 79.9392 28.4659 79.9393L28.683 81.5272L29.6214 81.5106C29.9956 81.4987 30.3939 81.4748 30.7324 81.4425C31.0893 81.4084 31.328 81.3692 31.4175 81.3402C31.4783 81.3199 31.5183 81.3054 31.5482 81.2927C31.5491 81.2923 31.55 81.2919 31.5509 81.2915C31.5596 81.246 31.5683 81.1609 31.5691 81.0049C31.57 80.818 31.5601 80.5699 31.544 80.2254L31.5439 80.2254L31.5436 80.2152C31.5228 79.4261 31.439 78.3706 31.3772 77.8729ZM27.9198 77.4573C27.9198 77.4574 27.9204 77.4572 27.9213 77.4568L27.9198 77.4573Z" fill="#8A6D18" stroke="#8A6D18"/>
<path d="M21.4409 75.8414L21.4409 75.8412L21.4549 75.8409C22.4895 75.8167 23.5436 75.744 23.7861 75.7208C23.9879 75.7015 24.1958 75.7294 24.3749 75.7944C24.5239 75.8486 24.7546 75.9667 24.874 76.2065C24.9391 76.3232 24.9938 76.4731 25.0398 76.6165C25.0926 76.7809 25.1468 76.9785 25.2008 77.1959C25.309 77.6315 25.421 78.1667 25.5221 78.7154C25.7217 79.7978 25.8903 80.9939 25.8903 81.5951C25.8903 81.8653 25.8892 82.0947 25.8752 82.2789C25.8616 82.4571 25.8327 82.6549 25.74 82.832C25.6329 83.0365 25.4712 83.1597 25.2972 83.2373C25.1481 83.3039 24.9722 83.3439 24.8162 83.3785L24.809 83.3801L24.8017 83.3815C24.3583 83.4662 23.1386 83.5124 22.0851 83.4632L20.168 83.39L19.7866 83.3754L19.7001 83.0037L19.5295 82.2705L19.5294 82.2705L19.5268 82.2577C19.4334 81.8031 19.2827 80.3279 19.1976 78.9624L19.1976 78.9624L19.1973 78.9569L19.0694 76.4641L19.0438 75.9649L19.543 75.9392L21.4409 75.8414ZM23.9113 78.6821L23.8077 77.6472H22.1703C22.0147 77.6472 21.8725 77.6467 21.7422 77.6461C21.3599 77.6446 21.0795 77.6435 20.861 77.6583C20.7075 77.6687 20.6273 77.6859 20.5894 77.6966C20.585 77.7331 20.5809 77.8053 20.5907 77.9341C20.6066 78.1427 20.648 78.4083 20.7052 78.7749C20.724 78.8955 20.7445 79.027 20.7663 79.1711C20.8579 79.731 20.9608 80.4186 21.0351 80.9142C21.0648 81.1127 21.0899 81.2804 21.1078 81.3968L21.1079 81.3968L21.1093 81.4074L21.1585 81.7794H22.149C22.6874 81.7794 23.0862 81.7715 23.3869 81.745C23.6957 81.7178 23.8475 81.6744 23.9228 81.6358C23.966 81.6137 23.9771 81.6005 23.9929 81.5535C24.0203 81.4716 24.0373 81.3302 24.0373 81.0574C24.0373 80.591 23.9751 79.5124 23.9113 78.6821Z" fill="#8A6D18" stroke="#8A6D18"/>
</g>
<defs>
<clipPath id="clip0_770_2347">
<rect width="69" height="69" fill="white" transform="translate(5 20)"/>
</clipPath>
</defs>
</svg>
