<svg width="74" height="93" viewBox="0 0 74 93" fill="none" xmlns="http://www.w3.org/2000/svg">
<path d="M65.9698 81.6465H7.75464C3.48963 81.6465 0 78.1569 0 73.8919V35.268C0 15.8707 15.8705 0 35.268 0C56.419 0 73.7245 17.3054 73.7245 38.4565V73.8919C73.7245 78.1569 70.2348 81.6465 65.9698 81.6465Z" fill="#EED282"/>
<path d="M26.2588 33.6319L26.2627 33.6317C27.4959 33.5657 29.8648 33.5 31.5557 33.5C32.2215 33.5 32.7129 33.5014 33.0112 33.5059C33.1546 33.508 33.2705 33.5111 33.3385 33.5166C33.3538 33.5179 33.3854 33.5206 33.4193 33.5272C33.429 33.5291 33.4797 33.5383 33.5374 33.5646C33.5597 33.5747 33.6432 33.6129 33.7163 33.7008C33.7578 33.7506 33.8064 33.8291 33.8249 33.9355C33.8443 34.0467 33.824 34.1504 33.7852 34.2334C33.7193 34.3745 33.6095 34.4391 33.5846 34.4537C33.5444 34.4773 33.5096 34.4902 33.4933 34.4958C33.4589 34.5078 33.4298 34.5138 33.4181 34.5161C33.3906 34.5215 33.3641 34.5248 33.3467 34.5268C33.1063 34.5542 32.027 34.5985 30.0463 34.6742C28.7919 34.7287 27.5711 34.7886 26.6183 34.843C25.6436 34.8986 24.9952 34.9464 24.8466 34.9726L24.8459 34.9728C24.467 35.039 24.2807 35.158 24.2009 35.2517C24.1409 35.3222 24.0961 35.4294 24.1513 35.6431L24.1531 35.6501L24.1547 35.6572C24.1657 35.7055 24.1752 35.7381 24.1833 35.7607C24.1865 35.7696 24.1892 35.7762 24.1913 35.7808C24.2194 35.7942 24.2844 35.8163 24.4265 35.8394C24.5644 35.8619 24.7451 35.8809 24.9917 35.9024C25.1879 35.913 25.3444 35.9247 25.4411 35.9388C25.4658 35.9424 25.5012 35.9482 25.5379 35.9578C25.5551 35.9624 25.5882 35.9717 25.6262 35.9887C25.6267 35.9889 25.6273 35.9891 25.628 35.9894C25.648 35.9982 25.7663 36.0499 25.8494 36.1798C25.9048 36.2664 25.9468 36.393 25.9208 36.5388C25.8968 36.6732 25.8258 36.762 25.7796 36.8079C25.7003 36.8865 25.6145 36.9181 25.5951 36.9252L25.5938 36.9257C25.5382 36.9462 25.4862 36.9546 25.4665 36.9577C25.3026 36.9838 24.8711 36.9996 24.2241 37.0102C23.3744 37.0323 22.9376 37.0601 22.5943 37.1435C22.2717 37.2219 22.0113 37.3546 21.5295 37.654C19.1636 39.1583 17.1577 40.9326 15.8683 42.6008L15.8672 42.6022C15.1005 43.587 14.1358 44.7916 13.7166 45.2986L13.7166 45.2987L13.7095 45.3069C13.3351 45.7399 12.8423 46.5801 12.6432 47.1149C12.577 47.302 12.5198 47.4554 12.4719 47.5723C12.4336 47.6658 12.3776 47.7983 12.3084 47.889C12.2925 47.9099 12.2374 47.9818 12.1419 48.0356C12.0888 48.0655 11.9955 48.1055 11.8739 48.1013C11.7405 48.0968 11.6269 48.0411 11.546 47.966C11.4202 47.8491 11.3941 47.7065 11.3888 47.6777C11.3887 47.677 11.3886 47.6764 11.3885 47.6759C11.3792 47.6257 11.3781 47.5817 11.3781 47.5554C11.3781 47.4579 11.3969 47.3309 11.4183 47.208L11.4183 47.208L11.4187 47.2058C11.4242 47.1751 11.429 47.1468 11.4334 47.1207C11.4287 47.1219 11.4239 47.1232 11.4189 47.1245C11.3278 47.1485 11.2143 47.1851 11.0855 47.2331C10.8287 47.3286 10.5338 47.4606 10.2709 47.6019L9.45524 48.0526L9.12572 49.9115C8.92957 51.0657 8.73826 52.5423 8.71762 53.1606L8.71731 53.1701L8.71663 53.1796C8.70029 53.4081 8.68598 53.5846 8.67297 53.6977C8.66783 53.7424 8.65904 53.8156 8.6418 53.8772C8.63738 53.893 8.62538 53.9346 8.60096 53.9819C8.58901 54.005 8.56326 54.0511 8.51803 54.0988C8.47489 54.1444 8.37643 54.2307 8.21962 54.2516C8.04624 54.2748 7.91016 54.205 7.83199 54.14C7.76277 54.0824 7.72604 54.0203 7.71067 53.992C7.67893 53.9336 7.66578 53.8814 7.66184 53.8656C7.64517 53.799 7.63966 53.7207 7.63671 53.678C7.63266 53.6191 7.62918 53.5446 7.62603 53.4565C7.61971 53.2797 7.61419 53.0329 7.60872 52.716L7.60864 52.716V52.7074C7.60864 51.7799 7.76463 50.217 7.99179 49.2165L7.99422 49.205C8.08441 48.781 8.15649 48.4422 8.22949 48.1738C8.30357 47.9015 8.38799 47.6642 8.51809 47.4566C8.77253 47.0507 9.15823 46.8433 9.63144 46.5887C9.65548 46.5758 9.67975 46.5627 9.70424 46.5495C10.0183 46.3754 10.3663 46.2131 10.6805 46.0928C10.9719 45.9813 11.3063 45.877 11.5612 45.877C11.678 45.877 11.8954 45.7866 12.1362 45.4553C12.725 44.6014 13.6436 43.3931 14.5056 42.3132C15.3606 41.2422 16.1919 40.2572 16.5943 39.8788L16.595 39.8781C17.1421 39.3657 18.1289 38.5873 19.0885 37.8835C20.0348 37.1894 21.0063 36.5295 21.5329 36.2643C21.76 36.1393 22.0117 36.0358 22.2439 35.9625C22.4446 35.8992 22.6626 35.8483 22.8534 35.8377C22.8584 35.7776 22.8612 35.6983 22.8612 35.5935C22.8612 35.2978 22.8888 34.9938 23.013 34.7197C23.1469 34.4242 23.37 34.2116 23.6677 34.0629C23.9481 33.9229 24.2974 33.8377 24.7064 33.7761C25.1204 33.7136 25.6329 33.6703 26.2588 33.6319Z" fill="#8A6D18" stroke="#8A6D18"/>
<mask id="path-3-outside-1_765_2282" maskUnits="userSpaceOnUse" x="9.72534" y="32.6776" width="44" height="30" fill="black">
<rect fill="white" x="9.72534" y="32.6776" width="44" height="30"/>
<path d="M35.0957 34.3711C35.7294 34.633 35.9261 35.8554 35.9261 39.7192C35.9261 42.5787 35.8824 42.8407 35.358 43.8666C35.052 44.456 34.4839 45.1764 34.0906 45.4383C32.2113 46.7044 27.4257 46.6607 25.8743 45.3292C24.6287 44.2814 24.3009 43.1026 25.2406 43.1026C26.3987 43.1026 27.1635 42.2077 26.202 41.9457C25.9617 41.8802 25.765 41.9239 25.765 42.033C25.765 42.1422 25.918 42.2295 26.1146 42.2295C26.3987 42.2295 26.4206 42.295 26.2239 42.5351C26.0709 42.7315 25.3498 42.9062 24.4976 42.9935C22.3998 43.19 21.3509 43.6265 19.5372 45.1109C18.6413 45.8094 17.3957 46.5734 16.762 46.8136C16.1283 47.0318 15.7787 47.2283 15.9972 47.2283C16.1939 47.2501 16.3687 47.272 16.3687 47.2938C16.3687 47.3374 16.2157 47.8395 16.0409 48.4289C15.8443 49.0401 15.6913 50.4808 15.6913 51.7687C15.6694 52.9911 15.582 54.0171 15.4946 54.0171C15.2761 54.0171 13.812 52.882 12.4354 51.6596L11.2554 50.59L11.5176 49.433C11.6706 48.8 11.7361 48.2324 11.6924 48.1669C11.6269 48.1233 11.5176 48.4289 11.452 48.8655C11.3646 49.302 11.1898 49.6513 11.0806 49.6513C10.9494 49.6513 10.9057 49.4985 10.9931 49.3239C11.0587 49.1492 11.015 48.9964 10.9057 48.9964C10.3157 48.9964 11.2991 51.2448 12.042 51.6377C12.3043 51.7687 13.0909 52.4018 13.7683 53.013C15.4072 54.541 17.4394 55.1085 18.4665 54.3664C18.838 54.0826 18.7724 54.0826 17.9857 54.279C17.505 54.41 16.8494 54.4537 16.5217 54.3664L15.9317 54.2354L15.9535 51.8779C15.9754 50.59 16.0409 49.302 16.1283 49.0183C16.2594 48.538 16.3469 48.6035 17.5269 50.0442C18.2261 50.9174 18.9691 51.7032 19.2094 51.8342C19.8213 52.1616 20.5424 53.6897 20.5643 54.6501C20.5861 55.938 19.7994 57.2041 18.5976 57.8153C18.0294 58.1209 17.658 58.361 17.7454 58.3829C17.8546 58.3829 18.1169 58.2737 18.3354 58.1646C18.9035 57.859 18.9909 58.1209 18.7943 59.5398C18.7069 60.2165 18.7069 60.7186 18.7724 60.6749C18.8598 60.6312 18.9909 59.9764 19.0565 59.2342C19.1657 58.2519 19.3624 57.728 19.7776 57.2259C20.1054 56.833 20.4987 56.2218 20.6517 55.8289C21.198 54.5628 20.4769 52.62 19.0346 51.3758C18.5539 50.961 17.7454 50.0661 17.2428 49.3675C16.4124 48.2543 16.325 48.036 16.5435 47.5776C16.6746 47.2938 17.1117 46.9009 17.505 46.7481C17.8983 46.5734 18.7724 45.9841 19.428 45.3947C20.8702 44.1504 22.5309 43.3209 23.5798 43.3209C24.2572 43.3428 24.3883 43.4301 24.7817 44.2596C25.0876 44.8926 25.5465 45.3728 26.2894 45.8313C27.3383 46.4643 27.4694 46.4861 29.895 46.4861C32.7794 46.4643 33.8283 46.1369 35.1613 44.8053C35.5765 44.3687 36.2102 43.8448 36.5598 43.6265L37.1935 43.2118L37.0624 43.9758C36.975 44.456 36.9968 44.6088 37.1061 44.4124C37.2154 44.2377 37.3683 43.5392 37.4557 42.8843C37.7398 40.4832 37.9365 40.1339 39.3787 38.9333C40.1217 38.3003 40.8646 37.6236 41.0176 37.3835C41.4983 36.7068 41.0831 36.9469 40.3839 37.7546C39.9468 38.2348 39.5098 38.5186 39.1602 38.5186C38.8761 38.5186 38.6794 38.6059 38.7668 38.715C38.8324 38.8242 38.6357 39.1734 38.308 39.5009C37.7835 40.0248 37.718 40.0466 37.4557 39.6755C37.3028 39.479 37.2372 39.1516 37.3028 38.9551C37.6524 38.0602 38.2861 37.2307 38.8324 37.0124C40.0561 36.5103 41.6294 36.1174 42.4161 36.1174C43.1154 36.1174 43.312 36.2702 44.1424 37.2525C44.9509 38.2348 47.7261 41.4436 48.338 42.1203C48.4472 42.2295 48.4254 42.1203 48.2943 41.8584C48.1631 41.5964 47.9446 41.3127 47.8354 41.2472C47.3109 40.9197 47.6606 40.6578 48.4254 40.8106C49.9331 41.0944 50.3483 41.4436 51.1131 43.2118C51.5065 44.1068 51.878 44.8271 51.9217 44.7616C51.9872 44.718 51.6813 43.9321 51.2443 43.0153C50.5668 41.531 50.3702 41.2908 49.5398 40.9197C49.0154 40.6796 48.2506 40.4832 47.8354 40.4832C47.158 40.4613 46.9176 40.2649 45.5409 38.6059C44.7106 37.5799 43.8365 36.554 43.618 36.3138C43.0935 35.7463 42.0009 35.7681 39.925 36.423L38.2424 36.9469L37.1498 36.1829C36.5161 35.7463 35.9698 35.1569 35.8387 34.7858C35.6857 34.3274 35.4891 34.1528 35.1176 34.1746H34.615L35.0957 34.3711ZM37.6524 37.3616C36.7783 37.9947 36.0354 37.5363 36.0354 36.3793V35.659L37.0406 36.3793C37.9365 37.0124 38.002 37.0997 37.6524 37.3616ZM37.3028 38.3439C36.6035 39.2389 36.2539 39.3481 36.2539 38.6714C36.2539 38.2566 36.4287 38.0602 36.8657 37.9074C37.8054 37.5581 37.8709 37.6018 37.3028 38.3439ZM37.565 40.7015C37.565 41.1162 37.3683 41.4873 36.975 41.7929L36.3631 42.2731L36.2976 41.0289C36.2102 39.479 36.5817 38.8678 37.1717 39.61C37.3902 39.872 37.565 40.374 37.565 40.7015ZM37.3465 42.2731C37.3465 42.6879 37.1061 42.9498 36.3194 43.5174C35.5109 44.0631 35.4672 44.0195 35.9261 43.1026C36.385 42.2295 37.3465 41.6619 37.3465 42.2731Z"/>
</mask>
<path d="M35.0957 34.3711C35.7294 34.633 35.9261 35.8554 35.9261 39.7192C35.9261 42.5787 35.8824 42.8407 35.358 43.8666C35.052 44.456 34.4839 45.1764 34.0906 45.4383C32.2113 46.7044 27.4257 46.6607 25.8743 45.3292C24.6287 44.2814 24.3009 43.1026 25.2406 43.1026C26.3987 43.1026 27.1635 42.2077 26.202 41.9457C25.9617 41.8802 25.765 41.9239 25.765 42.033C25.765 42.1422 25.918 42.2295 26.1146 42.2295C26.3987 42.2295 26.4206 42.295 26.2239 42.5351C26.0709 42.7315 25.3498 42.9062 24.4976 42.9935C22.3998 43.19 21.3509 43.6265 19.5372 45.1109C18.6413 45.8094 17.3957 46.5734 16.762 46.8136C16.1283 47.0318 15.7787 47.2283 15.9972 47.2283C16.1939 47.2501 16.3687 47.272 16.3687 47.2938C16.3687 47.3374 16.2157 47.8395 16.0409 48.4289C15.8443 49.0401 15.6913 50.4808 15.6913 51.7687C15.6694 52.9911 15.582 54.0171 15.4946 54.0171C15.2761 54.0171 13.812 52.882 12.4354 51.6596L11.2554 50.59L11.5176 49.433C11.6706 48.8 11.7361 48.2324 11.6924 48.1669C11.6269 48.1233 11.5176 48.4289 11.452 48.8655C11.3646 49.302 11.1898 49.6513 11.0806 49.6513C10.9494 49.6513 10.9057 49.4985 10.9931 49.3239C11.0587 49.1492 11.015 48.9964 10.9057 48.9964C10.3157 48.9964 11.2991 51.2448 12.042 51.6377C12.3043 51.7687 13.0909 52.4018 13.7683 53.013C15.4072 54.541 17.4394 55.1085 18.4665 54.3664C18.838 54.0826 18.7724 54.0826 17.9857 54.279C17.505 54.41 16.8494 54.4537 16.5217 54.3664L15.9317 54.2354L15.9535 51.8779C15.9754 50.59 16.0409 49.302 16.1283 49.0183C16.2594 48.538 16.3469 48.6035 17.5269 50.0442C18.2261 50.9174 18.9691 51.7032 19.2094 51.8342C19.8213 52.1616 20.5424 53.6897 20.5643 54.6501C20.5861 55.938 19.7994 57.2041 18.5976 57.8153C18.0294 58.1209 17.658 58.361 17.7454 58.3829C17.8546 58.3829 18.1169 58.2737 18.3354 58.1646C18.9035 57.859 18.9909 58.1209 18.7943 59.5398C18.7069 60.2165 18.7069 60.7186 18.7724 60.6749C18.8598 60.6312 18.9909 59.9764 19.0565 59.2342C19.1657 58.2519 19.3624 57.728 19.7776 57.2259C20.1054 56.833 20.4987 56.2218 20.6517 55.8289C21.198 54.5628 20.4769 52.62 19.0346 51.3758C18.5539 50.961 17.7454 50.0661 17.2428 49.3675C16.4124 48.2543 16.325 48.036 16.5435 47.5776C16.6746 47.2938 17.1117 46.9009 17.505 46.7481C17.8983 46.5734 18.7724 45.9841 19.428 45.3947C20.8702 44.1504 22.5309 43.3209 23.5798 43.3209C24.2572 43.3428 24.3883 43.4301 24.7817 44.2596C25.0876 44.8926 25.5465 45.3728 26.2894 45.8313C27.3383 46.4643 27.4694 46.4861 29.895 46.4861C32.7794 46.4643 33.8283 46.1369 35.1613 44.8053C35.5765 44.3687 36.2102 43.8448 36.5598 43.6265L37.1935 43.2118L37.0624 43.9758C36.975 44.456 36.9968 44.6088 37.1061 44.4124C37.2154 44.2377 37.3683 43.5392 37.4557 42.8843C37.7398 40.4832 37.9365 40.1339 39.3787 38.9333C40.1217 38.3003 40.8646 37.6236 41.0176 37.3835C41.4983 36.7068 41.0831 36.9469 40.3839 37.7546C39.9468 38.2348 39.5098 38.5186 39.1602 38.5186C38.8761 38.5186 38.6794 38.6059 38.7668 38.715C38.8324 38.8242 38.6357 39.1734 38.308 39.5009C37.7835 40.0248 37.718 40.0466 37.4557 39.6755C37.3028 39.479 37.2372 39.1516 37.3028 38.9551C37.6524 38.0602 38.2861 37.2307 38.8324 37.0124C40.0561 36.5103 41.6294 36.1174 42.4161 36.1174C43.1154 36.1174 43.312 36.2702 44.1424 37.2525C44.9509 38.2348 47.7261 41.4436 48.338 42.1203C48.4472 42.2295 48.4254 42.1203 48.2943 41.8584C48.1631 41.5964 47.9446 41.3127 47.8354 41.2472C47.3109 40.9197 47.6606 40.6578 48.4254 40.8106C49.9331 41.0944 50.3483 41.4436 51.1131 43.2118C51.5065 44.1068 51.878 44.8271 51.9217 44.7616C51.9872 44.718 51.6813 43.9321 51.2443 43.0153C50.5668 41.531 50.3702 41.2908 49.5398 40.9197C49.0154 40.6796 48.2506 40.4832 47.8354 40.4832C47.158 40.4613 46.9176 40.2649 45.5409 38.6059C44.7106 37.5799 43.8365 36.554 43.618 36.3138C43.0935 35.7463 42.0009 35.7681 39.925 36.423L38.2424 36.9469L37.1498 36.1829C36.5161 35.7463 35.9698 35.1569 35.8387 34.7858C35.6857 34.3274 35.4891 34.1528 35.1176 34.1746H34.615L35.0957 34.3711ZM37.6524 37.3616C36.7783 37.9947 36.0354 37.5363 36.0354 36.3793V35.659L37.0406 36.3793C37.9365 37.0124 38.002 37.0997 37.6524 37.3616ZM37.3028 38.3439C36.6035 39.2389 36.2539 39.3481 36.2539 38.6714C36.2539 38.2566 36.4287 38.0602 36.8657 37.9074C37.8054 37.5581 37.8709 37.6018 37.3028 38.3439ZM37.565 40.7015C37.565 41.1162 37.3683 41.4873 36.975 41.7929L36.3631 42.2731L36.2976 41.0289C36.2102 39.479 36.5817 38.8678 37.1717 39.61C37.3902 39.872 37.565 40.374 37.565 40.7015ZM37.3465 42.2731C37.3465 42.6879 37.1061 42.9498 36.3194 43.5174C35.5109 44.0631 35.4672 44.0195 35.9261 43.1026C36.385 42.2295 37.3465 41.6619 37.3465 42.2731Z" fill="#8A6D18"/>
<path d="M35.0957 34.3711C35.7294 34.633 35.9261 35.8554 35.9261 39.7192C35.9261 42.5787 35.8824 42.8407 35.358 43.8666C35.052 44.456 34.4839 45.1764 34.0906 45.4383C32.2113 46.7044 27.4257 46.6607 25.8743 45.3292C24.6287 44.2814 24.3009 43.1026 25.2406 43.1026C26.3987 43.1026 27.1635 42.2077 26.202 41.9457C25.9617 41.8802 25.765 41.9239 25.765 42.033C25.765 42.1422 25.918 42.2295 26.1146 42.2295C26.3987 42.2295 26.4206 42.295 26.2239 42.5351C26.0709 42.7315 25.3498 42.9062 24.4976 42.9935C22.3998 43.19 21.3509 43.6265 19.5372 45.1109C18.6413 45.8094 17.3957 46.5734 16.762 46.8136C16.1283 47.0318 15.7787 47.2283 15.9972 47.2283C16.1939 47.2501 16.3687 47.272 16.3687 47.2938C16.3687 47.3374 16.2157 47.8395 16.0409 48.4289C15.8443 49.0401 15.6913 50.4808 15.6913 51.7687C15.6694 52.9911 15.582 54.0171 15.4946 54.0171C15.2761 54.0171 13.812 52.882 12.4354 51.6596L11.2554 50.59L11.5176 49.433C11.6706 48.8 11.7361 48.2324 11.6924 48.1669C11.6269 48.1233 11.5176 48.4289 11.452 48.8655C11.3646 49.302 11.1898 49.6513 11.0806 49.6513C10.9494 49.6513 10.9057 49.4985 10.9931 49.3239C11.0587 49.1492 11.015 48.9964 10.9057 48.9964C10.3157 48.9964 11.2991 51.2448 12.042 51.6377C12.3043 51.7687 13.0909 52.4018 13.7683 53.013C15.4072 54.541 17.4394 55.1085 18.4665 54.3664C18.838 54.0826 18.7724 54.0826 17.9857 54.279C17.505 54.41 16.8494 54.4537 16.5217 54.3664L15.9317 54.2354L15.9535 51.8779C15.9754 50.59 16.0409 49.302 16.1283 49.0183C16.2594 48.538 16.3469 48.6035 17.5269 50.0442C18.2261 50.9174 18.9691 51.7032 19.2094 51.8342C19.8213 52.1616 20.5424 53.6897 20.5643 54.6501C20.5861 55.938 19.7994 57.2041 18.5976 57.8153C18.0294 58.1209 17.658 58.361 17.7454 58.3829C17.8546 58.3829 18.1169 58.2737 18.3354 58.1646C18.9035 57.859 18.9909 58.1209 18.7943 59.5398C18.7069 60.2165 18.7069 60.7186 18.7724 60.6749C18.8598 60.6312 18.9909 59.9764 19.0565 59.2342C19.1657 58.2519 19.3624 57.728 19.7776 57.2259C20.1054 56.833 20.4987 56.2218 20.6517 55.8289C21.198 54.5628 20.4769 52.62 19.0346 51.3758C18.5539 50.961 17.7454 50.0661 17.2428 49.3675C16.4124 48.2543 16.325 48.036 16.5435 47.5776C16.6746 47.2938 17.1117 46.9009 17.505 46.7481C17.8983 46.5734 18.7724 45.9841 19.428 45.3947C20.8702 44.1504 22.5309 43.3209 23.5798 43.3209C24.2572 43.3428 24.3883 43.4301 24.7817 44.2596C25.0876 44.8926 25.5465 45.3728 26.2894 45.8313C27.3383 46.4643 27.4694 46.4861 29.895 46.4861C32.7794 46.4643 33.8283 46.1369 35.1613 44.8053C35.5765 44.3687 36.2102 43.8448 36.5598 43.6265L37.1935 43.2118L37.0624 43.9758C36.975 44.456 36.9968 44.6088 37.1061 44.4124C37.2154 44.2377 37.3683 43.5392 37.4557 42.8843C37.7398 40.4832 37.9365 40.1339 39.3787 38.9333C40.1217 38.3003 40.8646 37.6236 41.0176 37.3835C41.4983 36.7068 41.0831 36.9469 40.3839 37.7546C39.9468 38.2348 39.5098 38.5186 39.1602 38.5186C38.8761 38.5186 38.6794 38.6059 38.7668 38.715C38.8324 38.8242 38.6357 39.1734 38.308 39.5009C37.7835 40.0248 37.718 40.0466 37.4557 39.6755C37.3028 39.479 37.2372 39.1516 37.3028 38.9551C37.6524 38.0602 38.2861 37.2307 38.8324 37.0124C40.0561 36.5103 41.6294 36.1174 42.4161 36.1174C43.1154 36.1174 43.312 36.2702 44.1424 37.2525C44.9509 38.2348 47.7261 41.4436 48.338 42.1203C48.4472 42.2295 48.4254 42.1203 48.2943 41.8584C48.1631 41.5964 47.9446 41.3127 47.8354 41.2472C47.3109 40.9197 47.6606 40.6578 48.4254 40.8106C49.9331 41.0944 50.3483 41.4436 51.1131 43.2118C51.5065 44.1068 51.878 44.8271 51.9217 44.7616C51.9872 44.718 51.6813 43.9321 51.2443 43.0153C50.5668 41.531 50.3702 41.2908 49.5398 40.9197C49.0154 40.6796 48.2506 40.4832 47.8354 40.4832C47.158 40.4613 46.9176 40.2649 45.5409 38.6059C44.7106 37.5799 43.8365 36.554 43.618 36.3138C43.0935 35.7463 42.0009 35.7681 39.925 36.423L38.2424 36.9469L37.1498 36.1829C36.5161 35.7463 35.9698 35.1569 35.8387 34.7858C35.6857 34.3274 35.4891 34.1528 35.1176 34.1746H34.615L35.0957 34.3711ZM37.6524 37.3616C36.7783 37.9947 36.0354 37.5363 36.0354 36.3793V35.659L37.0406 36.3793C37.9365 37.0124 38.002 37.0997 37.6524 37.3616ZM37.3028 38.3439C36.6035 39.2389 36.2539 39.3481 36.2539 38.6714C36.2539 38.2566 36.4287 38.0602 36.8657 37.9074C37.8054 37.5581 37.8709 37.6018 37.3028 38.3439ZM37.565 40.7015C37.565 41.1162 37.3683 41.4873 36.975 41.7929L36.3631 42.2731L36.2976 41.0289C36.2102 39.479 36.5817 38.8678 37.1717 39.61C37.3902 39.872 37.565 40.374 37.565 40.7015ZM37.3465 42.2731C37.3465 42.6879 37.1061 42.9498 36.3194 43.5174C35.5109 44.0631 35.4672 44.0195 35.9261 43.1026C36.385 42.2295 37.3465 41.6619 37.3465 42.2731Z" stroke="#8A6D18" stroke-width="2" mask="url(#path-3-outside-1_765_2282)"/>
<path d="M31.4258 34.3081L31.4258 34.3081L31.4278 34.308C32.2992 34.2754 33.116 34.2373 33.728 34.2047C34.0341 34.1884 34.2879 34.1735 34.4711 34.1614C34.5629 34.1553 34.6354 34.1501 34.6871 34.1458C34.731 34.1422 34.7472 34.1402 34.7473 34.1404C34.7473 34.1404 34.7467 34.1406 34.7457 34.1408L34.7514 34.1398C34.7872 34.1338 34.839 34.1275 34.8982 34.1304C34.9455 34.1327 35.067 34.1433 35.1868 34.2287C35.3456 34.3421 35.4153 34.5235 35.4008 34.6927C35.3898 34.8217 35.3336 34.9126 35.3095 34.9488C35.2559 35.0291 35.1879 35.0877 35.1479 35.12C35.0995 35.1592 35.045 35.1968 34.989 35.2318C34.8819 35.2987 34.7555 35.3253 34.6988 35.337C34.6174 35.3539 34.5212 35.3681 34.4172 35.3805C34.2077 35.4055 33.9355 35.4267 33.6227 35.4434C32.9957 35.4768 32.1815 35.4933 31.3307 35.4822L31.3301 35.4822L28.2708 35.4386L28.2573 34.4391L31.4258 34.3081ZM34.5246 34.3378C34.5245 34.3378 34.5231 34.3389 34.5207 34.3411C34.5235 34.3389 34.5246 34.3378 34.5246 34.3378ZM34.5308 34.3494C34.5307 34.3494 34.5291 34.3498 34.5262 34.3508C34.5294 34.3499 34.5309 34.3494 34.5308 34.3494Z" fill="#8A6D18" stroke="#8A6D18"/>
<path d="M25.9457 35.7224L25.9457 35.7224H25.9398C25.4606 35.7224 25.0189 35.7058 24.6912 35.6768C24.5302 35.6626 24.3815 35.6441 24.2653 35.6193C24.2113 35.6078 24.1372 35.5895 24.0664 35.5579C24.0327 35.5429 23.9702 35.5122 23.9087 35.4565C23.8484 35.4019 23.7354 35.2723 23.7354 35.0696C23.7354 34.7952 23.9292 34.6515 23.9954 34.6095C24.0759 34.5585 24.1588 34.5322 24.2123 34.5177C24.3268 34.4867 24.4637 34.4696 24.5986 34.4592C24.8766 34.4378 25.2445 34.4387 25.6405 34.4613L25.6405 34.4613L25.6435 34.4615C26.1651 34.4944 26.5694 34.5263 26.853 34.5564C26.9937 34.5713 27.1125 34.5866 27.2041 34.6027C27.249 34.6105 27.2971 34.6203 27.3421 34.6328C27.3644 34.6391 27.3941 34.6483 27.4262 34.6615C27.4511 34.6719 27.5124 34.6985 27.5745 34.7512C27.6289 34.7974 27.7892 34.9581 27.7496 35.2165C27.7151 35.4426 27.5509 35.5495 27.5141 35.5726C27.4238 35.6293 27.3291 35.6484 27.3023 35.6538C27.3014 35.654 27.3005 35.6542 27.2998 35.6544C27.2173 35.6712 27.1106 35.6816 26.9991 35.6895C26.7655 35.7059 26.4122 35.7169 25.9457 35.7224ZM27.0996 34.6746C27.1085 34.6728 27.106 34.6726 27.0957 34.6753C27.0972 34.6751 27.0986 34.6748 27.0996 34.6746ZM24.4692 35.4843C24.4692 35.4844 24.4705 35.484 24.4727 35.4832C24.4702 35.4839 24.4691 35.4843 24.4692 35.4843Z" fill="#8A6D18" stroke="#8A6D18"/>
<path d="M24.7842 37.0803C25.8507 37.0393 26.6241 36.9602 27.1342 36.849C27.0932 36.8248 27.0333 36.7818 26.9823 36.7141C26.9314 36.6467 26.8692 36.5269 26.8819 36.3694C26.8945 36.2141 26.9731 36.1083 27.0286 36.0529C27.117 35.9645 27.2166 35.9325 27.2361 35.9262C27.2368 35.926 27.2374 35.9258 27.2379 35.9256C27.2728 35.9142 27.304 35.9076 27.3231 35.904C27.3628 35.8964 27.4059 35.8911 27.4433 35.887C27.5149 35.8792 27.6134 35.8711 27.7293 35.8614L27.7557 35.8592L27.7686 35.8581L27.7815 35.8577C28.2246 35.8439 28.7614 36.0165 28.8788 36.5637C28.9269 36.7881 28.8833 37.0011 28.7873 37.192C28.9797 37.2204 29.1603 37.2595 29.2881 37.302L29.3002 37.306L29.3121 37.3107C29.7887 37.497 30.0061 37.9412 29.9697 38.3625C29.934 38.7748 29.6592 39.1677 29.2007 39.3204L29.1875 39.3248L29.1741 39.3284C29.158 39.3328 29.14 39.3402 29.1221 39.3505C29.1142 39.355 29.1071 39.3596 29.1009 39.3642C29.0533 39.8757 28.6557 40.2252 28.2244 40.4493C27.7491 40.6963 27.0858 40.8759 26.2774 40.9993L26.2774 40.9993L26.2743 40.9997C25.831 41.0645 25.3985 41.1347 25.0587 41.194C24.9156 41.219 24.79 41.2418 24.6875 41.2613C24.701 41.2837 24.7158 41.3039 24.7308 41.3206C24.746 41.3374 24.7566 41.3456 24.7616 41.3491C24.7839 41.3541 24.8158 41.3625 24.8516 41.3769C24.8837 41.3897 24.9516 41.4199 25.0181 41.4828C25.0927 41.5533 25.1824 41.6841 25.1774 41.866C25.1728 42.0304 25.0923 42.1408 25.0496 42.1893C24.974 42.2751 24.8855 42.3161 24.8633 42.3264L24.8617 42.3272C24.8247 42.3444 24.7884 42.3573 24.7598 42.3667C24.6505 42.4024 24.4898 42.438 24.3098 42.4723C23.9369 42.5434 23.3839 42.6269 22.7437 42.7041L22.7427 42.7042C22.0922 42.7813 21.4675 42.8421 20.9838 42.8782C20.7425 42.8962 20.532 42.9084 20.3691 42.9131C20.2881 42.9155 20.2135 42.9161 20.1502 42.9142C20.1048 42.9129 20.011 42.9096 19.9244 42.8849L19.905 42.8794L19.8862 42.8723C19.819 42.8472 19.7174 42.7948 19.6369 42.6868C19.5488 42.5684 19.5228 42.433 19.5343 42.316C19.5526 42.1294 19.6626 42.004 19.6957 41.9667C19.7891 41.8611 19.925 41.762 20.0505 41.6789C20.3195 41.5007 20.7179 41.2827 21.1733 41.0607C22.4451 40.4257 23.3532 40.1461 24.7465 39.9864L24.7465 39.9864L24.7505 39.986C25.7178 39.883 26.4316 39.7791 26.9453 39.6684C26.6083 39.6497 26.2266 39.636 25.8227 39.6297L25.822 39.6297L23.2435 39.586L23.2323 38.5865L26.0042 38.4775C26.5056 38.4511 26.964 38.4188 27.3623 38.3826C26.9115 38.3695 26.3556 38.3637 25.6775 38.3637H22.4701L20.7592 39.1874L20.7592 39.1874L20.7579 39.188C20.252 39.4297 19.7809 39.6457 19.428 39.7968C19.253 39.8717 19.0995 39.9339 18.9828 39.9754C18.9266 39.9954 18.8651 40.0155 18.8084 40.0288C18.7824 40.0349 18.7365 40.0447 18.6833 40.0473C18.657 40.0486 18.6097 40.0493 18.5531 40.0384C18.503 40.0287 18.3893 39.9996 18.2879 39.8983C18.162 39.7725 18.1261 39.6088 18.1439 39.4738C18.1584 39.3641 18.205 39.2875 18.2258 39.2561C18.2695 39.19 18.3204 39.1459 18.3389 39.1302C18.3868 39.0893 18.4434 39.0514 18.4909 39.0213C18.5929 38.9566 18.7356 38.876 18.9032 38.7867C19.2414 38.6066 19.7142 38.3733 20.2446 38.1304C21.1443 37.7081 21.709 37.4558 22.3441 37.3084C22.9747 37.1621 23.6568 37.1236 24.7842 37.0803ZM27.5584 35.9496C27.5583 35.9496 27.5595 35.9499 27.5621 35.9507C27.5598 35.9499 27.5585 35.9496 27.5584 35.9496ZM23.5548 41.2569C23.5548 41.2569 23.5541 41.2574 23.5528 41.2583C23.5542 41.2574 23.5549 41.2569 23.5548 41.2569Z" fill="#8A6D18" stroke="#8A6D18"/>
<path d="M41.56 38.7223C41.5922 38.6936 41.6134 38.673 41.6259 38.66L41.6287 38.6558C41.7163 38.5246 41.8548 38.3908 42.0444 38.331C42.2522 38.2654 42.5257 38.2994 42.7091 38.5212C42.8677 38.7024 42.8557 38.9177 42.8286 39.0322C42.8002 39.1523 42.741 39.25 42.6925 39.3168C42.5922 39.4552 42.4471 39.5854 42.284 39.6948C41.1639 40.4847 40.5683 40.9462 40.1848 41.3947C39.9638 41.6533 39.8073 41.9148 39.6661 42.2592C40.1365 41.7383 40.6492 41.3661 41.3704 40.9816C41.741 40.7798 42.1066 40.5999 42.3965 40.4693C42.5411 40.4042 42.6716 40.3492 42.777 40.3094C42.8291 40.2897 42.881 40.2715 42.9284 40.2575L42.9296 40.2572C42.9549 40.2498 43.0171 40.2314 43.0902 40.2253C43.1082 40.2234 43.1296 40.2221 43.1534 40.2224C43.189 40.2228 43.2706 40.2268 43.3625 40.2689C43.4715 40.3189 43.5947 40.4251 43.6406 40.5991C43.6796 40.7468 43.6411 40.8664 43.6208 40.9173C43.5827 41.0126 43.5235 41.075 43.5088 41.0906L43.5077 41.0916C43.4833 41.1175 43.4589 41.139 43.4405 41.1544C43.371 41.2127 43.2702 41.2813 43.1623 41.3499C42.9374 41.4929 42.6031 41.685 42.2121 41.886C42.072 41.9617 41.9288 42.0458 41.7863 42.1349C42.0632 42.0522 42.3171 41.9813 42.5279 41.9277C42.6882 41.887 42.8318 41.8541 42.9447 41.8343C42.9995 41.8246 43.0597 41.8157 43.1164 41.8123C43.1439 41.8106 43.1843 41.8093 43.2294 41.8136L43.2303 41.8137C43.2583 41.8163 43.369 41.8268 43.4799 41.9006L43.5631 41.9561L43.6186 42.0392C43.6978 42.1579 43.7257 42.301 43.6989 42.4389C43.6753 42.5601 43.6159 42.6458 43.5756 42.694C43.498 42.7867 43.4021 42.8451 43.3419 42.8781C43.2076 42.9517 43.0335 43.0132 42.8507 43.0619L42.8388 43.0651L42.8267 43.0677C42.8083 43.0716 42.7912 43.0759 42.7755 43.0804C42.744 43.1979 42.6796 43.2829 42.6257 43.3367C42.5158 43.4464 42.3806 43.4971 42.3021 43.522C42.1246 43.5782 41.9014 43.6022 41.6791 43.6026C41.2695 43.6126 40.7426 43.7601 40.2666 43.9916C39.7787 44.2289 39.4518 44.5017 39.3377 44.6944C39.232 44.9004 39.0705 45.1093 38.9056 45.2831C38.7383 45.4595 38.5326 45.6367 38.3263 45.7477L38.3263 45.7477L38.3212 45.7504C38.1023 45.865 37.8286 45.9971 37.5313 45.9655C37.2113 45.9315 36.9914 45.7249 36.8401 45.5738C36.7709 45.5046 36.7064 45.4341 36.6531 45.3643C36.6054 45.3019 36.5404 45.2067 36.5049 45.0902C36.4675 44.9675 36.4387 44.7125 36.6478 44.5121C36.8102 44.3565 37.0099 44.349 37.0842 44.349C37.2526 44.349 37.4375 44.3971 37.5904 44.5229C37.5972 44.5285 37.6039 44.5342 37.6104 44.54C37.6109 44.5389 37.6114 44.5378 37.6119 44.5367C37.7632 44.2018 37.9526 43.6792 38.1803 42.9537C38.1803 42.9534 38.1804 42.9532 38.1805 42.953L38.8574 40.7716L38.9094 40.6041L39.0546 40.5058L40.3425 39.6335C40.6858 39.3977 41.0156 39.1584 41.265 38.9644C41.3905 38.8667 41.4905 38.7845 41.56 38.7223ZM43.219 41.2146C43.2179 41.2149 43.2164 41.2152 43.2147 41.2157C43.2164 41.2154 43.2179 41.215 43.219 41.2148C43.2212 41.2142 43.2223 41.2139 43.2224 41.2138C43.2225 41.2137 43.2214 41.2139 43.219 41.2146ZM42.8696 41.9962C42.8695 41.9962 42.8679 41.9971 42.865 41.9991C42.8683 41.9972 42.8697 41.9962 42.8696 41.9962ZM37.4376 44.7429C37.4375 44.7428 37.4381 44.7438 37.4395 44.7458C37.4383 44.7439 37.4377 44.7429 37.4376 44.7429ZM41.8849 38.7269C41.8849 38.7269 41.8842 38.7278 41.883 38.7297C41.8844 38.7278 41.885 38.7269 41.8849 38.7269ZM41.6331 38.6523C41.6359 38.6492 41.6371 38.6477 41.6369 38.6478C41.6368 38.6478 41.6354 38.6494 41.6331 38.6523Z" fill="#8A6D18" stroke="#8A6D18"/>
<path d="M20.6545 39.3674L20.6544 39.3674L20.6587 39.3657C21.0926 39.1878 21.5227 39.0259 21.8696 38.9076C22.0426 38.8486 22.1995 38.7988 22.3281 38.7632C22.4328 38.7342 22.5828 38.6953 22.7057 38.6953C22.7327 38.6953 22.8246 38.6954 22.9261 38.7388C22.9823 38.7628 23.0744 38.8141 23.1464 38.9183C23.2261 39.0337 23.247 39.164 23.2317 39.2758C23.2085 39.4459 23.1066 39.5501 23.0866 39.5705C23.0861 39.5711 23.0856 39.5716 23.0852 39.572C23.0497 39.6085 23.0143 39.6354 22.9919 39.6514C22.908 39.7116 22.7868 39.7743 22.6689 39.8312C22.4155 39.9534 22.0324 40.1162 21.5811 40.2923C21.1272 40.4802 20.6873 40.6471 20.3405 40.7654C20.1673 40.8245 20.0112 40.8735 19.8853 40.907C19.8229 40.9236 19.7604 40.9384 19.7031 40.9483L19.7027 40.9484C19.67 40.954 19.5889 40.9681 19.4974 40.9599C19.4714 40.958 19.4379 40.9537 19.4007 40.9438C19.3492 40.9301 19.211 40.8852 19.1119 40.7401C18.9953 40.5694 19.0173 40.3906 19.0522 40.29C19.0828 40.2019 19.1304 40.144 19.1499 40.1215C19.2135 40.0478 19.2949 39.999 19.3171 39.9857C19.3183 39.985 19.3193 39.9844 19.3201 39.9839C19.395 39.9386 19.5029 39.8835 19.6232 39.8254C19.8715 39.7057 20.2352 39.5438 20.6545 39.3674ZM19.8262 40.847C19.8265 40.847 19.8299 40.8449 19.8356 40.8408C19.8287 40.845 19.8259 40.8471 19.8262 40.847ZM19.5202 39.9647C19.52 39.9648 19.5228 39.9646 19.529 39.9636C19.5234 39.964 19.5203 39.9645 19.5202 39.9647Z" fill="#8A6D18" stroke="#8A6D18"/>
<path d="M48.6896 44.1004C48.5851 43.8112 48.4022 43.3642 48.2758 43.0691C48.2191 42.9505 48.1724 42.853 48.1412 42.7837C48.1258 42.7496 48.1087 42.7102 48.0955 42.6736C48.0895 42.6571 48.0781 42.6245 48.0699 42.5851C48.0659 42.566 48.059 42.5287 48.0585 42.4818C48.0581 42.4476 48.0588 42.3344 48.1306 42.2149C48.2292 42.0508 48.4026 41.9683 48.5701 41.9712C48.6227 41.9721 48.6689 41.9811 48.7066 41.9924C48.7184 41.9472 48.7339 41.8991 48.7548 41.8525C48.7732 41.8116 48.8083 41.7429 48.871 41.6773C48.9362 41.6093 49.066 41.5112 49.2557 41.5112C49.4555 41.5112 49.5837 41.6217 49.6383 41.682C49.6934 41.7428 49.7229 41.8039 49.7367 41.8352C49.7659 41.9013 49.7813 41.9675 49.7901 42.0108C49.8094 42.1056 49.8222 42.2225 49.8309 42.3435C49.8488 42.5906 49.8542 42.9187 49.843 43.2692C49.8375 43.5104 49.8305 43.7081 49.821 43.8618C49.8124 44.003 49.7999 44.1448 49.7736 44.25C49.7663 44.2791 49.7539 44.3225 49.7324 44.3695C49.7166 44.404 49.6668 44.5077 49.5527 44.5876C49.4874 44.6334 49.3983 44.6728 49.2902 44.6795C49.1828 44.6861 49.0911 44.6581 49.0232 44.623C48.9043 44.5615 48.8418 44.4704 48.8213 44.4394C48.7729 44.3661 48.7455 44.2874 48.7319 44.2466C48.717 44.2017 48.7029 44.152 48.6896 44.1004ZM49.6851 43.9429C49.6851 43.9428 49.6846 43.9413 49.6834 43.9385C49.6845 43.9416 49.6851 43.943 49.6851 43.9429Z" fill="#8A6D18" stroke="#8A6D18"/>
<path d="M43.0619 43.8225L43.0609 43.8222C42.9142 43.7788 42.7889 43.7394 42.7039 43.7061C42.7029 43.7058 42.7017 43.7053 42.7004 43.7048C42.6745 43.6948 42.5849 43.6602 42.5092 43.5986C42.4858 43.5795 42.4298 43.5314 42.3847 43.4515C42.3336 43.3611 42.2806 43.1945 42.358 43.0088C42.4252 42.8478 42.5501 42.7754 42.6003 42.7504C42.6579 42.7217 42.7085 42.7101 42.7334 42.7051C42.8161 42.6886 42.9 42.6932 42.9331 42.6951L42.9349 42.6952C42.9855 42.6979 43.0451 42.7035 43.1105 42.7108C43.2421 42.7254 43.4208 42.7495 43.6458 42.7824C44.2255 42.8651 45.1782 42.9076 45.741 42.8868L45.741 42.8867L45.7491 42.8865L45.7562 42.8864C46.0124 42.8811 46.2131 42.8769 46.3546 42.8769C46.4252 42.8769 46.4907 42.8779 46.5452 42.8813C46.572 42.8829 46.6052 42.8857 46.6395 42.8911L46.6408 42.8913C46.6623 42.8947 46.7403 42.907 46.8222 42.9506C46.8633 42.9725 46.9654 43.0332 47.0336 43.1614C47.1186 43.3212 47.103 43.4908 47.0443 43.615C46.9971 43.7149 46.9295 43.7733 46.9017 43.7958C46.8678 43.8233 46.8366 43.8416 46.8176 43.852C46.7534 43.8873 46.6802 43.9112 46.6406 43.9239C46.5448 43.9546 46.4011 43.9938 46.2328 44.0396L46.2187 44.0435L46.2187 44.0435L46.2144 44.0446C45.7377 44.1699 45.1004 44.1974 44.7439 44.1426L44.7211 44.1391L44.6987 44.1335C44.6978 44.1333 44.6969 44.133 44.696 44.1328C44.6842 44.1455 44.6686 44.1637 44.6491 44.1892C44.4846 44.4046 44.2524 44.8509 43.8051 45.7669L43.8051 45.7669L43.8029 45.7713C43.5281 46.3203 43.2783 46.7975 43.0953 47.1237C43.0057 47.2835 42.9248 47.4202 42.8618 47.5122L42.8613 47.5129C42.8394 47.5449 42.7865 47.6222 42.7165 47.6818C42.6959 47.6993 42.652 47.7345 42.5888 47.763C42.5315 47.7887 42.3863 47.8409 42.2116 47.7795C42.0202 47.7122 41.9352 47.5607 41.9038 47.4742C41.8744 47.3933 41.8724 47.3239 41.8724 47.2938C41.8724 47.2036 41.894 47.1194 41.9056 47.0765C41.9207 47.0208 41.9406 46.9601 41.9626 46.8985C42.0068 46.7744 42.068 46.6226 42.1397 46.4555C42.2836 46.1199 42.4791 45.7016 42.6901 45.28C42.895 44.8708 43.0828 44.474 43.2184 44.1686C43.2595 44.0758 43.2952 43.9932 43.3246 43.9222C43.2503 43.8867 43.16 43.8513 43.0619 43.8225ZM42.8672 47.3529C42.8673 47.3528 42.8676 47.3513 42.8682 47.3484C42.8674 47.3515 42.8672 47.3529 42.8672 47.3529ZM42.8611 43.6931C42.8612 43.6931 42.8633 43.6932 42.867 43.6931C42.8628 43.693 42.8609 43.693 42.8611 43.6931ZM42.0225 46.9668C42.0225 46.9669 42.0235 46.9658 42.0254 46.9631C42.0235 46.9654 42.0225 46.9667 42.0225 46.9668Z" fill="#8A6D18" stroke="#8A6D18"/>
<path d="M46.2105 44.4809C46.3255 44.8871 46.4641 45.4412 46.5967 46.0477C46.7379 46.6443 46.8721 47.18 46.9808 47.5642C46.9829 47.5717 46.985 47.5791 46.9871 47.5864C46.9873 47.5862 46.9875 47.586 46.9877 47.5858C47.1924 47.3721 47.4251 47.0681 47.6471 46.7231C47.8683 46.3794 48.0697 46.0093 48.2167 45.6691C48.3661 45.3232 48.4408 45.0503 48.4499 44.8802C48.4502 44.8137 48.4534 44.7405 48.4647 44.6717C48.4706 44.6359 48.4818 44.5815 48.5061 44.5228C48.5261 44.4741 48.5825 44.3538 48.7178 44.2693C48.8892 44.1623 49.0746 44.1785 49.2037 44.2358C49.3077 44.2819 49.3724 44.3508 49.4002 44.3825C49.4601 44.4512 49.5022 44.5298 49.5281 44.5815L49.5381 44.6015L49.5463 44.6223C49.6669 44.9291 49.617 45.2932 49.5438 45.5857C49.464 45.9045 49.3252 46.2556 49.1546 46.5993C48.8174 47.2787 48.3165 48.0079 47.7891 48.4594L47.7892 48.4596L47.7797 48.4673C46.9772 49.1209 45.9124 49.461 45.0398 49.4827C44.6066 49.4934 44.1659 49.4271 43.8183 49.2296C43.4456 49.0178 43.1827 48.6488 43.2054 48.1537C43.2057 48.0755 43.2086 47.9952 43.2185 47.9248C43.2232 47.8909 43.2333 47.8302 43.2592 47.7652C43.2593 47.7648 43.2595 47.7644 43.2597 47.7639C43.2728 47.7308 43.3594 47.5115 43.617 47.4472C43.9087 47.3743 44.095 47.5707 44.1245 47.6028C44.1774 47.6602 44.2093 47.7196 44.2244 47.7491C44.2563 47.8116 44.2835 47.8842 44.3062 47.9514C44.3693 48.1084 44.4238 48.1517 44.4948 48.1841C44.6109 48.2371 44.8281 48.2782 45.2787 48.2782C45.4965 48.2782 45.6476 48.2564 45.7391 48.2294C45.7379 48.1731 45.7335 48.0995 45.725 48.0079C45.7038 47.78 45.6604 47.4738 45.5974 47.1122C45.4724 46.3946 45.2749 45.4868 45.0396 44.5984C44.9876 44.4383 44.9555 44.2755 44.9511 44.1333C44.949 44.0661 44.9514 43.9651 44.9845 43.8617C45.0065 43.7927 45.131 43.4758 45.4973 43.4758C45.6546 43.4758 45.763 43.5471 45.8086 43.5821C45.8588 43.6207 45.8918 43.6607 45.9087 43.6827C45.9433 43.7278 45.9666 43.7722 45.9791 43.7973C46.0068 43.8528 46.032 43.9174 46.054 43.9785C46.0998 44.1055 46.1533 44.2787 46.2105 44.4809ZM45.8082 48.2022C45.8081 48.2022 45.8063 48.2031 45.8033 48.2053C45.8069 48.2034 45.8084 48.2023 45.8082 48.2022ZM45.9506 44.0958C45.9506 44.0958 45.9505 44.0971 45.9505 44.1001C45.9507 44.0973 45.9507 44.0959 45.9506 44.0958Z" fill="#8A6D18" stroke="#8A6D18"/>
<path d="M51.6269 45.8143L51.6255 45.8073L51.6244 45.8002C51.6154 45.743 51.6057 45.6698 51.6068 45.6C51.6072 45.5745 51.6086 45.4915 51.6444 45.3995C51.6632 45.3512 51.7078 45.2574 51.8078 45.1798C51.9251 45.0887 52.0689 45.0584 52.2005 45.0799C52.3119 45.0981 52.3889 45.1485 52.4253 45.1755C52.4655 45.2054 52.4941 45.2356 52.5111 45.2549C52.5448 45.2933 52.5692 45.3312 52.5836 45.355C52.6143 45.4056 52.643 45.4639 52.6683 45.519C52.77 45.7407 52.9191 46.1385 53.0941 46.6523C53.4439 47.6787 53.8755 48.8626 54.0637 49.3014L54.0638 49.3013L54.0669 49.309C54.1656 49.5499 54.2505 49.7787 54.2904 49.9493C54.3009 49.9942 54.311 50.0459 54.3161 50.0995C54.3203 50.145 54.3254 50.2323 54.2994 50.33C54.2716 50.4346 54.181 50.6307 53.9442 50.704C53.7479 50.7648 53.5877 50.6931 53.5338 50.6662L53.5107 50.6546L53.4889 50.6408C53.3784 50.5706 53.3103 50.4692 53.2871 50.4348L53.2864 50.4337C53.2503 50.38 53.2156 50.3188 53.1834 50.2577C53.1184 50.1343 53.0451 49.9754 52.9682 49.7971C52.8135 49.4383 52.631 48.9695 52.4516 48.4773C52.0974 47.5058 51.7338 46.3839 51.6269 45.8143ZM54.1229 49.8847C54.1229 49.8845 54.1207 49.8812 54.1163 49.8758C54.1207 49.8823 54.1229 49.885 54.1229 49.8847Z" fill="#8A6D18" stroke="#8A6D18"/>
<path d="M41.6758 48.6166L41.6756 48.6166L41.6761 48.6045L41.7198 47.5567L42.7154 47.5144L42.868 48.712C42.868 48.7125 42.8681 48.713 42.8682 48.7134C42.9522 49.3415 43.1592 50.1243 43.3196 50.4484C43.4814 50.7515 43.775 51.1016 44.0878 51.3772C44.2431 51.514 44.3907 51.6213 44.5141 51.6915C44.6174 51.7502 44.6734 51.7654 44.6879 51.7694C44.6928 51.7707 44.693 51.7708 44.6887 51.7708C44.9125 51.7708 45.144 51.8721 45.2806 52.0882C45.3909 52.2625 45.4066 52.4592 45.3627 52.6339C45.3648 52.6469 45.3677 52.6633 45.3717 52.6833C45.3893 52.7707 45.4216 52.8942 45.4693 53.0472C45.5638 53.351 45.7092 53.7408 45.8869 54.1379C46.0766 54.5503 46.2396 54.9431 46.351 55.2426C46.4062 55.3912 46.4519 55.5251 46.4815 55.6306C46.4957 55.681 46.5105 55.74 46.5188 55.7971C46.5227 55.8238 46.5284 55.8705 46.5257 55.9249C46.5243 55.9525 46.5202 55.9972 46.505 56.0495C46.4908 56.0987 46.4571 56.1879 46.375 56.2699C46.2544 56.3905 46.0962 56.4303 45.9597 56.4147C45.8481 56.4019 45.7698 56.3556 45.7368 56.3341C45.6684 56.2897 45.6234 56.2374 45.6076 56.2188C45.5666 56.1706 45.5293 56.114 45.5004 56.0677C45.4378 55.9676 45.3604 55.828 45.2752 55.6646C45.1028 55.3343 44.8799 54.8719 44.6474 54.3522L44.6474 54.3521C44.3789 53.7514 44.1449 53.3024 43.9432 52.9888C43.7345 52.6646 43.6006 52.5506 43.5513 52.5237C43.2581 52.3862 43.0055 52.1348 42.8 51.8685C42.5851 51.5899 42.3892 51.2523 42.2243 50.8949C41.8986 50.1891 41.6631 49.3378 41.6758 48.6166ZM45.3584 52.6003C45.3584 52.5958 45.3582 52.5934 45.3581 52.5933C45.358 52.5932 45.358 52.5954 45.3584 52.6003Z" fill="#8A6D18" stroke="#8A6D18"/>
<path d="M7.87091 55.5015H7.87078L7.87103 55.4903C7.87645 55.2466 7.88208 55.0493 7.89226 54.9033C7.89732 54.8306 7.90426 54.7585 7.91541 54.6937C7.92352 54.6466 7.94388 54.534 8.00986 54.4286C8.04663 54.3698 8.12362 54.2711 8.26184 54.2148C8.41419 54.1527 8.55952 54.1744 8.66125 54.2164C8.81174 54.2785 8.89864 54.3968 8.92193 54.4285L8.92379 54.431C8.99086 54.5219 9.06008 54.6532 9.12002 54.7679L9.12009 54.7679L9.12395 54.7756C9.18298 54.8935 9.25201 54.9925 9.30712 55.0545C9.30906 55.0567 9.31093 55.0587 9.31274 55.0607C9.68033 55.1374 9.87609 55.4825 9.87609 55.7852C9.87609 55.8547 9.87007 55.9825 9.8051 56.1103C9.71974 56.2783 9.55143 56.4055 9.33713 56.4181C9.27895 56.4215 9.22501 56.4158 9.17696 56.4056C9.08668 56.7069 8.97429 57.2083 8.81769 57.9997L8.81771 57.9997L8.81686 58.0038C8.53737 59.3568 8.23893 61.4512 8.02385 63.3957C7.80681 65.358 7.6827 67.0995 7.73322 67.7757L7.73324 67.7757L7.7335 67.7797C7.75532 68.1067 7.76041 68.4007 7.72454 68.6078C7.71491 68.6633 7.69962 68.7298 7.67266 68.7968C7.64799 68.8582 7.59728 68.9614 7.49351 69.0466C7.36989 69.1481 7.20729 69.1932 7.04341 69.163C6.90571 69.1377 6.80876 69.0671 6.75645 69.0223L6.73482 69.0037L6.71543 68.9829C6.63734 68.8989 6.60145 68.8075 6.58568 68.7627C6.5667 68.7088 6.55441 68.655 6.54584 68.6089C6.52861 68.5161 6.51819 68.4084 6.51151 68.2962C6.498 68.0692 6.49699 67.7715 6.50531 67.4274C6.52202 66.7363 6.57746 65.8191 6.65983 64.8222C6.82428 62.8316 7.09916 60.4865 7.39918 58.9432C7.66175 57.566 7.87091 56.0159 7.87091 55.5015ZM8.90303 54.8534C8.90295 54.8532 8.90224 54.8559 8.90116 54.862C8.90257 54.8566 8.90311 54.8536 8.90303 54.8534ZM9.27826 56.1338C9.27944 56.1321 9.28001 56.1312 9.28 56.1311C9.27999 56.1311 9.2794 56.1319 9.27826 56.1338Z" fill="#8A6D18" stroke="#8A6D18"/>
<g clip-path="url(#clip0_765_2282)">
<mask id="path-15-outside-2_765_2282" maskUnits="userSpaceOnUse" x="15" y="53.5711" width="60" height="36" fill="black">
<rect fill="white" x="15" y="53.5711" width="60" height="36"/>
<path d="M26.1266 55.464C26.1636 55.725 26.2746 56.218 26.3856 56.566C26.5459 57.0735 26.5583 57.3635 26.4719 58.0595C26.3363 59.0455 26.0649 59.6255 25.4113 60.365C24.5849 61.293 24.3999 62.076 24.6219 63.874C24.7083 64.7005 24.7206 65.1935 24.6343 65.4545C24.5109 65.8025 24.4369 65.8315 23.4749 65.9185C22.2416 66.02 20.6629 66.484 20.0833 66.9045C19.4049 67.3975 19.2939 67.876 19.5159 69.355C19.6146 70.0365 19.7749 71.0225 19.8736 71.5445C20.0956 72.7625 20.0956 72.69 19.7749 72.69C19.4049 72.69 17.2836 74.2125 16.6423 74.9375C15.9886 75.6625 15.8529 76.3295 16.1489 77.2575C16.5066 78.345 17.4069 79.041 20.1079 80.3025C20.9343 80.694 21.0576 80.7085 23.2529 80.723C25.2139 80.723 26.0156 80.665 28.1123 80.3025C28.7783 80.1865 29.9376 79.8965 30.8133 79.621C31.4916 79.418 31.8246 79.3745 31.9109 79.476C32.0959 79.6935 31.4669 80.027 30.6283 80.143C30.2336 80.201 29.9129 80.317 29.9129 80.404C29.9129 80.4765 30.3199 81.042 30.8133 81.6365C31.7999 82.8545 33.5389 84.1595 35.0189 84.812C36.0919 85.2905 37.4116 86.059 38.2626 86.697C38.6203 86.9725 39.2369 87.3785 39.6193 87.625C40.0139 87.8715 40.5073 88.205 40.7169 88.3645C41.0993 88.64 41.1116 88.64 41.6666 88.3645C41.9873 88.205 44.0716 87.6395 46.3286 87.1175C50.7069 86.1025 50.9906 86.0155 53.3463 85.2905C54.8139 84.8265 54.9989 84.812 57.1696 84.783C58.9579 84.783 59.9446 84.6815 61.7329 84.377C64.9273 83.826 67.7516 83.275 68.2943 83.1155C68.5533 83.043 69.8483 82.782 71.1803 82.5645C72.5123 82.3325 73.6593 82.0715 73.7456 81.97C73.8443 81.854 73.8196 81.7525 73.6469 81.593C73.5113 81.477 73.3139 81.39 73.2029 81.39C73.0919 81.39 72.8206 81.2015 72.5863 80.955C72.3519 80.723 72.0313 80.5345 71.8956 80.52C71.7476 80.52 71.5626 80.433 71.4886 80.317C71.4023 80.201 70.9336 79.969 70.4526 79.795C69.2563 79.3745 68.7876 79.186 66.4196 78.0985C65.2973 77.5765 63.8913 76.9675 63.2746 76.721C62.6703 76.489 61.6343 76.0395 60.9929 75.735C59.1676 74.865 58.4646 74.7635 54.0123 74.6475C49.7573 74.5315 49.1036 74.604 48.0429 75.2275C47.7346 75.416 47.3893 75.6915 47.2536 75.8655C47.0316 76.141 47.0069 76.1555 46.5753 75.9235C44.8239 75.0245 41.5679 75.155 38.6819 76.257C37.9666 76.5325 36.7333 76.8805 35.9563 77.04C35.1793 77.185 34.3899 77.3445 34.1926 77.4025C33.8719 77.504 33.8596 77.4895 33.9829 77.1125C34.1556 76.576 34.1309 75.6625 33.9336 75.1115C33.7239 74.517 33.1073 73.8935 32.3549 73.5165C31.7629 73.2265 31.6519 73.0815 31.8986 72.893C32.1946 72.69 33.1196 71.037 33.2429 70.5005C33.3909 69.848 33.1689 69.036 32.7743 68.7895C32.3919 68.5575 31.7629 68.601 31.1956 68.9055C30.6529 69.1955 30.6283 69.152 30.8749 68.4415C31.2203 67.47 30.7763 66.948 29.0989 66.31C28.1123 65.933 27.7423 65.875 26.6076 65.875C24.8563 65.875 24.7453 65.8315 24.8439 65.2515C24.8933 64.9905 24.8933 64.4975 24.8439 64.135C24.5849 62.3515 24.8193 61.293 25.6579 60.365C26.6569 59.263 26.9776 57.5085 26.4473 56.102C26.3116 55.725 26.2253 55.319 26.2623 55.203C26.2993 55.087 26.2746 55 26.2006 55C26.1143 55 26.0896 55.1885 26.1266 55.464ZM24.1163 66.1505C24.0176 66.223 23.4873 66.31 22.9446 66.3535C21.8593 66.455 21.8346 66.3825 22.8829 66.1795C23.8079 66.0055 24.3506 65.991 24.1163 66.1505ZM29.1976 66.5855C30.4309 67.064 30.7763 67.3685 30.7763 67.992C30.7763 68.485 30.3693 68.949 29.5183 69.471C27.8286 70.486 25.6703 70.486 21.1439 69.4855C20.7616 69.3985 20.3793 69.268 20.2806 69.1955C19.9229 68.9345 20.2929 68.949 21.4029 69.21C22.0319 69.3695 23.4256 69.616 24.4863 69.7465C26.2746 69.964 26.4966 69.964 27.6189 69.732C29.7773 69.3115 30.8873 68.543 30.5543 67.702C30.4803 67.499 30.2459 67.238 30.0486 67.1075C29.3949 66.716 27.6189 66.2955 25.9909 66.165L24.4246 66.0345L26.2129 66.0925C27.8163 66.136 28.1246 66.1795 29.1976 66.5855ZM21.8593 66.542C21.8223 66.5855 21.7113 66.6 21.6249 66.5565C21.5263 66.513 21.5633 66.4695 21.6989 66.4695C21.8346 66.455 21.9086 66.4985 21.8593 66.542ZM24.0423 66.6435C24.0053 66.7595 23.5859 66.919 23.0063 67.0205C21.6003 67.267 20.6506 67.586 20.2683 67.9195C19.9846 68.1515 19.9229 68.166 19.9229 67.9775C19.9229 67.383 20.6013 67.035 22.3896 66.6725C23.6723 66.4115 24.1286 66.4115 24.0423 66.6435ZM29.0249 66.9335C30.1843 67.3395 30.4063 67.5135 30.4063 67.992C30.4063 68.7315 28.7166 69.4565 26.6446 69.6015C25.3373 69.6885 22.7843 69.384 21.5263 68.9925C21.1563 68.8765 20.6629 68.775 20.4409 68.775C19.9106 68.775 19.9353 68.398 20.4903 68.021C20.9466 67.7165 23.0309 67.151 23.4873 67.209L23.8079 67.2525L23.5489 67.557C23.3763 67.76 23.0433 67.905 22.5993 67.963C21.7853 68.0935 21.3783 68.369 21.6249 68.659C21.8593 68.9345 26.1389 68.92 27.0763 68.6445C28.0876 68.3545 28.4329 68.108 28.4329 67.6875C28.4329 67.0205 28.0629 66.89 26.0649 66.89C25.0536 66.89 24.2396 66.832 24.2396 66.774C24.2396 66.4695 24.5356 66.426 26.2129 66.4985C27.6313 66.5565 28.2109 66.6435 29.0249 66.9335ZM27.8779 67.238C28.1123 67.354 28.3096 67.528 28.3096 67.6005C28.3096 67.8035 27.8163 68.1805 27.3106 68.3545C26.5459 68.6155 24.4493 68.775 23.1049 68.688C21.7606 68.5865 21.4029 68.427 22.2046 68.2675C22.4389 68.224 22.8336 68.166 23.0679 68.1225C23.4009 68.05 23.4996 68.0935 23.4996 68.2675C23.4996 68.514 23.6229 68.543 24.7329 68.485C25.6333 68.456 26.0773 68.166 25.8183 67.789C25.6949 67.615 25.4606 67.6005 24.6959 67.6585C23.7093 67.76 23.6846 67.731 24.0299 67.209C24.2026 66.948 27.3229 66.9625 27.8779 67.238ZM19.8119 67.8035C19.7503 67.992 19.7256 68.3255 19.7626 68.572C19.7996 68.891 19.7873 68.949 19.6886 68.775C19.5159 68.485 19.5159 67.8615 19.7009 67.644C19.9106 67.3975 19.9353 67.4265 19.8119 67.8035ZM25.6209 68.079C25.4483 68.282 24.1039 68.427 23.7833 68.282C23.3639 68.0935 23.8943 67.905 24.8563 67.905C25.5593 67.905 25.7319 67.9485 25.6209 68.079ZM32.7003 69.036C32.8976 69.1955 33.1196 69.732 33.1196 70.08C33.1196 70.631 32.5399 71.733 31.7999 72.5595C31.1093 73.357 29.9623 74.256 29.8389 74.0965C29.8019 74.0675 30.0239 73.8645 30.3323 73.647C31.6026 72.777 32.8729 70.9935 32.8729 70.08C32.8729 68.9345 31.7629 68.9055 30.8873 70.0365C30.4803 70.544 30.2459 71.095 30.0363 72.0375C29.7896 73.125 29.4566 73.821 28.7289 74.8215C27.8533 75.9815 27.1256 76.5325 26.0896 76.808C24.9056 77.127 24.0299 77.1125 23.4996 76.75C23.2653 76.5905 22.8336 76.3295 22.5623 76.17C22.2786 76.0105 21.9579 75.706 21.8346 75.503C21.7236 75.3 21.4276 74.8795 21.1933 74.5605C20.9466 74.2415 20.7739 73.9515 20.8109 73.9225C20.8479 73.879 21.0823 73.9515 21.3289 74.0675C22.0073 74.401 23.0679 74.4735 25.4729 74.314C27.1379 74.2125 27.8039 74.111 28.3713 73.8645C29.4319 73.4295 29.6293 73.125 29.9869 71.443C30.3199 69.935 30.5666 69.4565 31.2079 69.123C31.6149 68.92 32.4783 68.862 32.7003 69.036ZM22.3156 69.9495C24.1286 70.2975 24.3753 70.399 23.0926 70.2975C21.9579 70.196 20.3053 69.732 20.0463 69.413C19.8859 69.2245 19.9229 69.2245 20.3423 69.4275C20.6013 69.558 21.4893 69.79 22.3156 69.9495ZM30.2953 69.4855C30.2213 69.6305 30.0363 70.37 29.8636 71.124C29.4813 72.922 29.3949 73.096 28.6426 73.4875C27.7176 73.9805 26.6816 74.14 24.2396 74.14C22.3156 74.14 21.9949 74.111 21.3166 73.821C20.6876 73.5455 20.5149 73.415 20.4039 73.0525C20.1573 72.255 19.9229 71.095 19.8489 70.2975L19.7626 69.5145L20.2436 69.79C21.2179 70.3555 22.4389 70.5585 24.9179 70.573C27.6189 70.573 28.4083 70.428 29.5429 69.732C29.9869 69.4565 30.3569 69.239 30.3816 69.2245C30.3939 69.21 30.3569 69.3405 30.2953 69.4855ZM32.4289 69.442C32.6879 69.558 32.6879 70.3845 32.4289 70.9645C32.3303 71.211 32.0466 71.6605 31.7999 71.9795C31.4053 72.487 31.3066 72.545 30.7516 72.545H30.1349L30.2213 72.0665C30.4433 70.8775 30.9243 70.0655 31.7013 69.587C32.1206 69.326 32.1576 69.326 32.4289 69.442ZM19.9106 73.038C19.8859 73.067 19.6886 73.1395 19.4913 73.183L19.1213 73.27L19.4913 73.067C19.8119 72.893 20.0586 72.864 19.9106 73.038ZM30.8996 72.893C30.8996 73.009 30.0239 73.589 29.9623 73.5165C29.7896 73.3135 30.1966 72.835 30.5296 72.835C30.7393 72.835 30.8996 72.864 30.8996 72.893ZM20.5273 73.9515C20.6753 74.4155 20.9096 74.9375 21.0453 75.097L21.2919 75.416L20.7616 75.503C20.0586 75.6335 19.4543 76.0685 19.3556 76.5325C19.2323 77.1415 19.3803 78.055 19.6763 78.4175C20.0463 78.8815 20.9589 79.3165 21.9086 79.476C22.3403 79.5485 23.8326 79.6065 25.2263 79.592C28.0136 79.563 28.5193 79.447 29.8636 78.577C30.8256 77.9535 31.1339 77.33 30.9119 76.4745C30.8009 75.996 30.6283 75.764 30.0979 75.3435C29.3949 74.807 29.2593 74.575 29.6416 74.575C29.7649 74.575 30.1349 74.372 30.4679 74.1255C30.9119 73.792 31.1216 73.705 31.2696 73.8065C31.3683 73.8935 31.7753 74.0675 32.1576 74.198C33.0579 74.5025 33.8596 75.3435 33.8596 75.967C33.8596 76.605 33.2429 77.6345 32.5523 78.171C31.9356 78.664 30.2706 79.3165 28.6796 79.7225C27.3106 80.056 23.0679 80.288 21.7976 80.085C20.6383 79.911 18.8993 79.3455 18.1963 78.925C17.6043 78.5625 16.8766 77.5765 16.6916 76.866C16.3462 75.5175 17.2219 74.2995 19.0473 73.5745C19.6269 73.3425 20.1449 73.154 20.1819 73.1395C20.2189 73.1395 20.3793 73.502 20.5273 73.9515ZM32.1206 73.647C32.4536 73.763 32.9099 74.053 33.1319 74.285L33.5513 74.7055L32.8236 74.2705C32.4289 74.0385 32.0096 73.85 31.8986 73.85C31.6396 73.85 31.1339 73.4295 31.3683 73.415C31.4546 73.415 31.7999 73.5165 32.1206 73.647ZM59.2786 75.271C59.7966 75.445 60.4873 75.7205 60.8203 75.8945C61.1533 76.0685 62.2633 76.547 63.2746 76.9675C64.9766 77.678 69.1083 79.505 69.6879 79.8095C69.8483 79.8965 69.5769 79.9255 68.8863 79.882C67.5789 79.824 63.8049 80.1575 62.5223 80.4475C60.9436 80.7955 59.0443 82.028 58.5386 82.9995C58.3043 83.4345 58.3043 83.449 58.1686 83.1445C57.8233 82.405 54.1233 79.998 51.0769 78.5335C49.4119 77.736 47.6483 76.7065 47.4509 76.4165C47.3276 76.2425 47.3399 76.1555 47.5003 75.9525C48.3636 74.9375 48.7953 74.865 53.9013 74.923C58.0083 74.952 58.4153 74.981 59.2786 75.271ZM29.8883 75.474C30.6406 76.083 30.7639 76.286 30.7763 76.9095C30.7763 77.5475 30.4063 77.997 29.3579 78.606C28.1493 79.302 27.5696 79.389 24.3629 79.331C21.7236 79.2875 21.4029 79.244 20.7739 78.954C19.9599 78.577 19.6886 78.2725 19.5529 77.5475C19.3433 76.431 19.9229 75.735 21.0823 75.735C21.6249 75.735 21.6743 75.764 22.2169 76.605C23.0433 77.852 23.5859 78.1275 25.1646 78.1275C26.6693 78.1275 27.3846 77.794 27.9396 76.837C28.7659 75.445 29.0619 75.01 29.1853 75.01C29.2593 75.01 29.5676 75.213 29.8883 75.474ZM16.4819 75.8365C16.3586 76.344 16.4819 77.1995 16.7286 77.591C16.8149 77.7215 17.0246 78.026 17.1973 78.258C17.4933 78.6495 17.4933 78.664 17.2466 78.5045C16.4943 78.055 16.0379 76.6195 16.3462 75.735C16.5436 75.1695 16.6299 75.242 16.4819 75.8365ZM44.8116 75.677C44.8609 75.7785 45.0953 75.8945 45.3296 75.9525C45.5639 76.0105 45.9956 76.2135 46.2793 76.4165C46.6246 76.6485 46.8959 76.7355 47.0563 76.6775C47.2166 76.6195 47.4016 76.663 47.5249 76.7935C47.8209 77.098 49.0913 77.823 50.6083 78.5625C52.6063 79.5195 55.6403 81.2595 56.6146 81.999C57.0956 82.3615 57.6753 82.927 57.9219 83.246C58.3659 83.826 58.3659 83.855 58.1439 84.087C58.0083 84.2175 57.9096 84.2755 57.9096 84.1885C57.9096 83.913 57.0093 82.8255 56.5283 82.5355C56.1459 82.3035 55.8006 82.2455 54.8509 82.2455C54.1973 82.2455 53.5189 82.2745 53.3463 82.318C51.0646 82.898 47.9319 83.8115 47.2783 84.087C46.8219 84.29 46.0573 84.7105 45.6009 85.015C44.0716 86.059 43.7139 85.885 39.2246 82.0425C37.5596 80.6215 36.4373 79.795 34.7229 78.7655C33.3663 77.939 33.5759 77.6635 35.9193 77.2575C36.6716 77.1415 37.8803 76.808 38.5956 76.5325C39.7426 76.083 41.1363 75.735 42.4929 75.532C43.2699 75.4305 44.7253 75.5175 44.8116 75.677ZM28.0506 76.2425C27.9149 76.518 27.6066 76.9385 27.3723 77.1705C26.1389 78.4465 23.4133 78.2 22.5376 76.7355C22.2539 76.257 22.4636 76.2425 23.0063 76.6775C23.6353 77.185 24.1656 77.2865 25.3989 77.156C26.3979 77.04 27.3599 76.6195 27.9396 76.054C28.1123 75.88 28.2603 75.7495 28.2726 75.735C28.2849 75.735 28.1863 75.967 28.0506 76.2425ZM33.7363 77.301C33.7363 77.504 33.0456 78.258 32.6139 78.5335C32.2316 78.7655 32.2193 78.7655 32.5029 78.5335C32.6756 78.403 33.0086 78.0405 33.2429 77.7505C33.7239 77.156 33.7363 77.127 33.7363 77.301ZM35.2533 79.331C36.3756 80.0125 38.4353 81.564 39.1629 82.2745C39.3849 82.492 39.3233 82.4775 38.9163 82.1875C38.6079 81.9845 37.3746 81.158 36.1659 80.346C34.6983 79.36 33.8719 78.722 33.6993 78.432L33.4403 77.9825L33.7486 78.287C33.9089 78.461 34.5873 78.9395 35.2533 79.331ZM35.6233 80.3895C35.8823 80.549 37.2019 81.651 38.5463 82.84C42.1353 86.001 42.6286 86.291 43.8496 86.03C44.2566 85.943 45.3173 85.6095 46.2176 85.2905C48.7336 84.406 50.5466 84.0145 53.0626 83.826C54.7276 83.71 55.5046 83.71 56.1336 83.826C56.5899 83.913 56.9969 83.9565 57.0339 83.9275C57.1203 83.8115 56.5283 83.13 56.1583 82.898C55.7266 82.637 54.4933 82.637 52.8653 82.9125C51.4839 83.1445 51.0646 83.1155 52.1376 82.8545C54.0863 82.376 55.2703 82.289 56.1089 82.5645C56.5529 82.7095 57.6629 83.826 57.6629 84.1305C57.6629 84.3625 56.9106 84.377 56.1213 84.174C54.2713 83.681 48.5979 84.6815 44.2319 86.2765C43.4426 86.5665 42.5916 86.8275 42.3449 86.871C41.8393 86.929 41.4446 86.7115 39.8413 85.45C39.3726 85.073 38.6943 84.5945 38.3489 84.3915C37.4363 83.855 35.3519 82.1875 33.8843 80.839C33.1936 80.201 32.5523 79.65 32.4783 79.6065C32.3673 79.563 32.4536 79.3745 32.7249 79.041L33.1319 78.5335L34.1433 79.3165C34.6983 79.7515 35.3643 80.23 35.6233 80.3895ZM33.6869 80.955C34.9203 82.1005 37.2266 83.942 38.4229 84.7395C38.8669 85.0295 39.8043 85.6965 40.5196 86.2185C41.2473 86.7695 41.9503 87.19 42.1353 87.19C42.3079 87.19 42.8506 87.0305 43.3439 86.8275C46.5999 85.5225 52.0883 84.29 54.6043 84.29C55.3443 84.29 55.9609 84.348 55.9979 84.435C56.0473 84.522 55.8623 84.58 55.5293 84.58C55.2333 84.58 54.0123 84.87 52.8036 85.2325C50.0286 86.059 43.3563 87.625 42.5916 87.625C42.2093 87.625 41.5556 87.422 40.7416 87.0595C38.5463 86.1025 37.7076 85.5225 35.9563 83.7825C35.3766 83.2025 34.4886 82.4195 33.9829 82.028C33.4773 81.6365 32.8113 81.1 32.5153 80.839C32.2193 80.578 31.8986 80.375 31.7999 80.375C31.5656 80.375 31.6026 80.2445 31.9109 79.94C32.2563 79.621 32.2686 79.621 33.6869 80.955ZM21.2796 80.2445C22.3156 80.5055 22.3156 80.52 21.5879 80.4475C21.1809 80.4185 20.6259 80.288 20.3546 80.172C19.6763 79.882 20.0216 79.911 21.2796 80.2445ZM24.9549 80.4765C24.6959 80.5055 24.2766 80.5055 24.0299 80.4765C23.7709 80.4475 23.9806 80.4185 24.4863 80.4185C24.9919 80.4185 25.2016 80.4475 24.9549 80.4765ZM31.6766 80.5925C32.3796 80.926 34.6736 82.811 35.9686 84.087C36.6223 84.7395 37.5349 85.537 38.0036 85.856C38.8793 86.465 41.5556 87.77 41.9626 87.77C42.2093 87.7845 41.4323 88.3355 41.1609 88.35C41.0746 88.35 40.7169 88.118 40.3593 87.8425C40.0139 87.567 39.6686 87.335 39.6193 87.335C39.5576 87.335 38.9779 86.9435 38.3243 86.465C37.6583 86.001 36.8813 85.479 36.5729 85.334C36.2646 85.1745 35.5246 84.7975 34.9079 84.493C33.3293 83.7245 31.9603 82.666 30.9983 81.506C30.5296 80.9695 30.1596 80.4765 30.1596 80.4475C30.1596 80.288 31.2696 80.3895 31.6766 80.5925ZM71.0693 80.462C71.0323 80.5055 69.8113 80.5635 68.3683 80.5925C65.3959 80.6505 64.6929 80.781 62.7196 81.651C62.0043 81.97 60.9929 82.4195 60.4626 82.637C59.9323 82.869 59.3649 83.2025 59.1799 83.3765C59.0073 83.565 58.8099 83.71 58.7483 83.71C58.2919 83.71 60.3886 81.564 61.3013 81.1C62.0166 80.7375 62.4976 80.636 63.8296 80.52C65.3219 80.3895 71.1679 80.346 71.0693 80.462ZM71.5873 80.9985C71.6983 81.1725 71.4763 81.216 70.3293 81.2885C67.8626 81.448 63.2499 82.318 60.4996 83.13C59.4636 83.449 59.2416 83.42 60.0309 83.072C60.3269 82.956 61.3629 82.492 62.3496 82.057C63.9283 81.3755 64.6929 81.129 65.9263 80.897C66.0989 80.868 67.4063 80.839 68.8369 80.8245C70.8966 80.81 71.4763 80.8535 71.5873 80.9985ZM72.7096 81.593C72.7096 81.7235 72.4876 81.8105 72.1299 81.8685C62.3496 83.1735 62.3619 83.1735 59.3649 84.232C59.2046 84.29 59.1429 84.232 59.1429 84.029C59.1429 83.797 59.3649 83.6955 60.4996 83.3765C63.8543 82.4195 68.0229 81.651 71.2296 81.4045C72.6233 81.303 72.7096 81.303 72.7096 81.593ZM39.8043 83.1155C40.5319 83.652 41.4076 84.261 41.7653 84.5075C42.1229 84.7395 42.7273 85.16 43.0973 85.4065L43.7879 85.885H43.3069C42.6286 85.885 41.5063 85.1455 39.3726 83.275C38.3736 82.405 37.5596 81.651 37.5596 81.593C37.5596 81.506 37.6336 81.5495 39.8043 83.1155ZM73.5606 81.767C73.6469 81.854 73.5359 81.9265 73.1166 82.0135C72.7343 82.1005 72.7219 82.086 72.8576 81.825C72.9933 81.564 73.3509 81.5495 73.5606 81.767ZM71.8833 82.2165C71.7969 82.2455 71.6489 82.2455 71.5749 82.2165C71.4886 82.173 71.5503 82.144 71.7229 82.144C71.8956 82.144 71.9573 82.173 71.8833 82.2165ZM69.9346 82.55C69.1946 82.695 68.1586 82.898 67.6529 83.0285C67.1473 83.1445 65.9756 83.3765 65.0629 83.5505C64.1503 83.71 62.6086 83.9855 61.6343 84.1595C60.6599 84.3335 59.8459 84.435 59.8089 84.406C59.7103 84.2755 61.5479 83.6955 62.9046 83.42C63.6569 83.275 64.9026 83.072 65.6796 82.9705C66.4566 82.8835 67.8503 82.6805 68.7629 82.55C70.9336 82.2165 71.6736 82.2165 69.9346 82.55ZM59.2663 82.4485C59.2663 82.4775 59.1183 82.6515 58.9333 82.8545L58.5879 83.2025L58.8839 82.7965C59.1676 82.434 59.2663 82.3325 59.2663 82.4485ZM56.2693 83.2315C56.4296 83.362 56.5529 83.4925 56.5529 83.5505C56.5529 83.594 55.7389 83.623 54.7399 83.594C52.5076 83.536 50.2013 83.8405 48.2403 84.435C47.4386 84.6815 46.7603 84.8555 46.7356 84.8265C46.7109 84.7975 47.3646 84.5365 48.2033 84.2465C49.8436 83.6665 51.1016 83.391 53.0996 83.13C53.8149 83.0285 54.4809 82.9415 54.5796 82.9125C54.9373 82.8255 55.9979 83.0285 56.2693 83.2315ZM58.9949 84.1015C58.9456 84.4205 58.5263 84.5365 58.5263 84.2465C58.5263 84.0435 58.6866 83.8985 58.9333 83.8695C58.9949 83.855 59.0196 83.971 58.9949 84.1015Z"/>
</mask>
<path d="M26.1266 55.464C26.1636 55.725 26.2746 56.218 26.3856 56.566C26.5459 57.0735 26.5583 57.3635 26.4719 58.0595C26.3363 59.0455 26.0649 59.6255 25.4113 60.365C24.5849 61.293 24.3999 62.076 24.6219 63.874C24.7083 64.7005 24.7206 65.1935 24.6343 65.4545C24.5109 65.8025 24.4369 65.8315 23.4749 65.9185C22.2416 66.02 20.6629 66.484 20.0833 66.9045C19.4049 67.3975 19.2939 67.876 19.5159 69.355C19.6146 70.0365 19.7749 71.0225 19.8736 71.5445C20.0956 72.7625 20.0956 72.69 19.7749 72.69C19.4049 72.69 17.2836 74.2125 16.6423 74.9375C15.9886 75.6625 15.8529 76.3295 16.1489 77.2575C16.5066 78.345 17.4069 79.041 20.1079 80.3025C20.9343 80.694 21.0576 80.7085 23.2529 80.723C25.2139 80.723 26.0156 80.665 28.1123 80.3025C28.7783 80.1865 29.9376 79.8965 30.8133 79.621C31.4916 79.418 31.8246 79.3745 31.9109 79.476C32.0959 79.6935 31.4669 80.027 30.6283 80.143C30.2336 80.201 29.9129 80.317 29.9129 80.404C29.9129 80.4765 30.3199 81.042 30.8133 81.6365C31.7999 82.8545 33.5389 84.1595 35.0189 84.812C36.0919 85.2905 37.4116 86.059 38.2626 86.697C38.6203 86.9725 39.2369 87.3785 39.6193 87.625C40.0139 87.8715 40.5073 88.205 40.7169 88.3645C41.0993 88.64 41.1116 88.64 41.6666 88.3645C41.9873 88.205 44.0716 87.6395 46.3286 87.1175C50.7069 86.1025 50.9906 86.0155 53.3463 85.2905C54.8139 84.8265 54.9989 84.812 57.1696 84.783C58.9579 84.783 59.9446 84.6815 61.7329 84.377C64.9273 83.826 67.7516 83.275 68.2943 83.1155C68.5533 83.043 69.8483 82.782 71.1803 82.5645C72.5123 82.3325 73.6593 82.0715 73.7456 81.97C73.8443 81.854 73.8196 81.7525 73.6469 81.593C73.5113 81.477 73.3139 81.39 73.2029 81.39C73.0919 81.39 72.8206 81.2015 72.5863 80.955C72.3519 80.723 72.0313 80.5345 71.8956 80.52C71.7476 80.52 71.5626 80.433 71.4886 80.317C71.4023 80.201 70.9336 79.969 70.4526 79.795C69.2563 79.3745 68.7876 79.186 66.4196 78.0985C65.2973 77.5765 63.8913 76.9675 63.2746 76.721C62.6703 76.489 61.6343 76.0395 60.9929 75.735C59.1676 74.865 58.4646 74.7635 54.0123 74.6475C49.7573 74.5315 49.1036 74.604 48.0429 75.2275C47.7346 75.416 47.3893 75.6915 47.2536 75.8655C47.0316 76.141 47.0069 76.1555 46.5753 75.9235C44.8239 75.0245 41.5679 75.155 38.6819 76.257C37.9666 76.5325 36.7333 76.8805 35.9563 77.04C35.1793 77.185 34.3899 77.3445 34.1926 77.4025C33.8719 77.504 33.8596 77.4895 33.9829 77.1125C34.1556 76.576 34.1309 75.6625 33.9336 75.1115C33.7239 74.517 33.1073 73.8935 32.3549 73.5165C31.7629 73.2265 31.6519 73.0815 31.8986 72.893C32.1946 72.69 33.1196 71.037 33.2429 70.5005C33.3909 69.848 33.1689 69.036 32.7743 68.7895C32.3919 68.5575 31.7629 68.601 31.1956 68.9055C30.6529 69.1955 30.6283 69.152 30.8749 68.4415C31.2203 67.47 30.7763 66.948 29.0989 66.31C28.1123 65.933 27.7423 65.875 26.6076 65.875C24.8563 65.875 24.7453 65.8315 24.8439 65.2515C24.8933 64.9905 24.8933 64.4975 24.8439 64.135C24.5849 62.3515 24.8193 61.293 25.6579 60.365C26.6569 59.263 26.9776 57.5085 26.4473 56.102C26.3116 55.725 26.2253 55.319 26.2623 55.203C26.2993 55.087 26.2746 55 26.2006 55C26.1143 55 26.0896 55.1885 26.1266 55.464ZM24.1163 66.1505C24.0176 66.223 23.4873 66.31 22.9446 66.3535C21.8593 66.455 21.8346 66.3825 22.8829 66.1795C23.8079 66.0055 24.3506 65.991 24.1163 66.1505ZM29.1976 66.5855C30.4309 67.064 30.7763 67.3685 30.7763 67.992C30.7763 68.485 30.3693 68.949 29.5183 69.471C27.8286 70.486 25.6703 70.486 21.1439 69.4855C20.7616 69.3985 20.3793 69.268 20.2806 69.1955C19.9229 68.9345 20.2929 68.949 21.4029 69.21C22.0319 69.3695 23.4256 69.616 24.4863 69.7465C26.2746 69.964 26.4966 69.964 27.6189 69.732C29.7773 69.3115 30.8873 68.543 30.5543 67.702C30.4803 67.499 30.2459 67.238 30.0486 67.1075C29.3949 66.716 27.6189 66.2955 25.9909 66.165L24.4246 66.0345L26.2129 66.0925C27.8163 66.136 28.1246 66.1795 29.1976 66.5855ZM21.8593 66.542C21.8223 66.5855 21.7113 66.6 21.6249 66.5565C21.5263 66.513 21.5633 66.4695 21.6989 66.4695C21.8346 66.455 21.9086 66.4985 21.8593 66.542ZM24.0423 66.6435C24.0053 66.7595 23.5859 66.919 23.0063 67.0205C21.6003 67.267 20.6506 67.586 20.2683 67.9195C19.9846 68.1515 19.9229 68.166 19.9229 67.9775C19.9229 67.383 20.6013 67.035 22.3896 66.6725C23.6723 66.4115 24.1286 66.4115 24.0423 66.6435ZM29.0249 66.9335C30.1843 67.3395 30.4063 67.5135 30.4063 67.992C30.4063 68.7315 28.7166 69.4565 26.6446 69.6015C25.3373 69.6885 22.7843 69.384 21.5263 68.9925C21.1563 68.8765 20.6629 68.775 20.4409 68.775C19.9106 68.775 19.9353 68.398 20.4903 68.021C20.9466 67.7165 23.0309 67.151 23.4873 67.209L23.8079 67.2525L23.5489 67.557C23.3763 67.76 23.0433 67.905 22.5993 67.963C21.7853 68.0935 21.3783 68.369 21.6249 68.659C21.8593 68.9345 26.1389 68.92 27.0763 68.6445C28.0876 68.3545 28.4329 68.108 28.4329 67.6875C28.4329 67.0205 28.0629 66.89 26.0649 66.89C25.0536 66.89 24.2396 66.832 24.2396 66.774C24.2396 66.4695 24.5356 66.426 26.2129 66.4985C27.6313 66.5565 28.2109 66.6435 29.0249 66.9335ZM27.8779 67.238C28.1123 67.354 28.3096 67.528 28.3096 67.6005C28.3096 67.8035 27.8163 68.1805 27.3106 68.3545C26.5459 68.6155 24.4493 68.775 23.1049 68.688C21.7606 68.5865 21.4029 68.427 22.2046 68.2675C22.4389 68.224 22.8336 68.166 23.0679 68.1225C23.4009 68.05 23.4996 68.0935 23.4996 68.2675C23.4996 68.514 23.6229 68.543 24.7329 68.485C25.6333 68.456 26.0773 68.166 25.8183 67.789C25.6949 67.615 25.4606 67.6005 24.6959 67.6585C23.7093 67.76 23.6846 67.731 24.0299 67.209C24.2026 66.948 27.3229 66.9625 27.8779 67.238ZM19.8119 67.8035C19.7503 67.992 19.7256 68.3255 19.7626 68.572C19.7996 68.891 19.7873 68.949 19.6886 68.775C19.5159 68.485 19.5159 67.8615 19.7009 67.644C19.9106 67.3975 19.9353 67.4265 19.8119 67.8035ZM25.6209 68.079C25.4483 68.282 24.1039 68.427 23.7833 68.282C23.3639 68.0935 23.8943 67.905 24.8563 67.905C25.5593 67.905 25.7319 67.9485 25.6209 68.079ZM32.7003 69.036C32.8976 69.1955 33.1196 69.732 33.1196 70.08C33.1196 70.631 32.5399 71.733 31.7999 72.5595C31.1093 73.357 29.9623 74.256 29.8389 74.0965C29.8019 74.0675 30.0239 73.8645 30.3323 73.647C31.6026 72.777 32.8729 70.9935 32.8729 70.08C32.8729 68.9345 31.7629 68.9055 30.8873 70.0365C30.4803 70.544 30.2459 71.095 30.0363 72.0375C29.7896 73.125 29.4566 73.821 28.7289 74.8215C27.8533 75.9815 27.1256 76.5325 26.0896 76.808C24.9056 77.127 24.0299 77.1125 23.4996 76.75C23.2653 76.5905 22.8336 76.3295 22.5623 76.17C22.2786 76.0105 21.9579 75.706 21.8346 75.503C21.7236 75.3 21.4276 74.8795 21.1933 74.5605C20.9466 74.2415 20.7739 73.9515 20.8109 73.9225C20.8479 73.879 21.0823 73.9515 21.3289 74.0675C22.0073 74.401 23.0679 74.4735 25.4729 74.314C27.1379 74.2125 27.8039 74.111 28.3713 73.8645C29.4319 73.4295 29.6293 73.125 29.9869 71.443C30.3199 69.935 30.5666 69.4565 31.2079 69.123C31.6149 68.92 32.4783 68.862 32.7003 69.036ZM22.3156 69.9495C24.1286 70.2975 24.3753 70.399 23.0926 70.2975C21.9579 70.196 20.3053 69.732 20.0463 69.413C19.8859 69.2245 19.9229 69.2245 20.3423 69.4275C20.6013 69.558 21.4893 69.79 22.3156 69.9495ZM30.2953 69.4855C30.2213 69.6305 30.0363 70.37 29.8636 71.124C29.4813 72.922 29.3949 73.096 28.6426 73.4875C27.7176 73.9805 26.6816 74.14 24.2396 74.14C22.3156 74.14 21.9949 74.111 21.3166 73.821C20.6876 73.5455 20.5149 73.415 20.4039 73.0525C20.1573 72.255 19.9229 71.095 19.8489 70.2975L19.7626 69.5145L20.2436 69.79C21.2179 70.3555 22.4389 70.5585 24.9179 70.573C27.6189 70.573 28.4083 70.428 29.5429 69.732C29.9869 69.4565 30.3569 69.239 30.3816 69.2245C30.3939 69.21 30.3569 69.3405 30.2953 69.4855ZM32.4289 69.442C32.6879 69.558 32.6879 70.3845 32.4289 70.9645C32.3303 71.211 32.0466 71.6605 31.7999 71.9795C31.4053 72.487 31.3066 72.545 30.7516 72.545H30.1349L30.2213 72.0665C30.4433 70.8775 30.9243 70.0655 31.7013 69.587C32.1206 69.326 32.1576 69.326 32.4289 69.442ZM19.9106 73.038C19.8859 73.067 19.6886 73.1395 19.4913 73.183L19.1213 73.27L19.4913 73.067C19.8119 72.893 20.0586 72.864 19.9106 73.038ZM30.8996 72.893C30.8996 73.009 30.0239 73.589 29.9623 73.5165C29.7896 73.3135 30.1966 72.835 30.5296 72.835C30.7393 72.835 30.8996 72.864 30.8996 72.893ZM20.5273 73.9515C20.6753 74.4155 20.9096 74.9375 21.0453 75.097L21.2919 75.416L20.7616 75.503C20.0586 75.6335 19.4543 76.0685 19.3556 76.5325C19.2323 77.1415 19.3803 78.055 19.6763 78.4175C20.0463 78.8815 20.9589 79.3165 21.9086 79.476C22.3403 79.5485 23.8326 79.6065 25.2263 79.592C28.0136 79.563 28.5193 79.447 29.8636 78.577C30.8256 77.9535 31.1339 77.33 30.9119 76.4745C30.8009 75.996 30.6283 75.764 30.0979 75.3435C29.3949 74.807 29.2593 74.575 29.6416 74.575C29.7649 74.575 30.1349 74.372 30.4679 74.1255C30.9119 73.792 31.1216 73.705 31.2696 73.8065C31.3683 73.8935 31.7753 74.0675 32.1576 74.198C33.0579 74.5025 33.8596 75.3435 33.8596 75.967C33.8596 76.605 33.2429 77.6345 32.5523 78.171C31.9356 78.664 30.2706 79.3165 28.6796 79.7225C27.3106 80.056 23.0679 80.288 21.7976 80.085C20.6383 79.911 18.8993 79.3455 18.1963 78.925C17.6043 78.5625 16.8766 77.5765 16.6916 76.866C16.3462 75.5175 17.2219 74.2995 19.0473 73.5745C19.6269 73.3425 20.1449 73.154 20.1819 73.1395C20.2189 73.1395 20.3793 73.502 20.5273 73.9515ZM32.1206 73.647C32.4536 73.763 32.9099 74.053 33.1319 74.285L33.5513 74.7055L32.8236 74.2705C32.4289 74.0385 32.0096 73.85 31.8986 73.85C31.6396 73.85 31.1339 73.4295 31.3683 73.415C31.4546 73.415 31.7999 73.5165 32.1206 73.647ZM59.2786 75.271C59.7966 75.445 60.4873 75.7205 60.8203 75.8945C61.1533 76.0685 62.2633 76.547 63.2746 76.9675C64.9766 77.678 69.1083 79.505 69.6879 79.8095C69.8483 79.8965 69.5769 79.9255 68.8863 79.882C67.5789 79.824 63.8049 80.1575 62.5223 80.4475C60.9436 80.7955 59.0443 82.028 58.5386 82.9995C58.3043 83.4345 58.3043 83.449 58.1686 83.1445C57.8233 82.405 54.1233 79.998 51.0769 78.5335C49.4119 77.736 47.6483 76.7065 47.4509 76.4165C47.3276 76.2425 47.3399 76.1555 47.5003 75.9525C48.3636 74.9375 48.7953 74.865 53.9013 74.923C58.0083 74.952 58.4153 74.981 59.2786 75.271ZM29.8883 75.474C30.6406 76.083 30.7639 76.286 30.7763 76.9095C30.7763 77.5475 30.4063 77.997 29.3579 78.606C28.1493 79.302 27.5696 79.389 24.3629 79.331C21.7236 79.2875 21.4029 79.244 20.7739 78.954C19.9599 78.577 19.6886 78.2725 19.5529 77.5475C19.3433 76.431 19.9229 75.735 21.0823 75.735C21.6249 75.735 21.6743 75.764 22.2169 76.605C23.0433 77.852 23.5859 78.1275 25.1646 78.1275C26.6693 78.1275 27.3846 77.794 27.9396 76.837C28.7659 75.445 29.0619 75.01 29.1853 75.01C29.2593 75.01 29.5676 75.213 29.8883 75.474ZM16.4819 75.8365C16.3586 76.344 16.4819 77.1995 16.7286 77.591C16.8149 77.7215 17.0246 78.026 17.1973 78.258C17.4933 78.6495 17.4933 78.664 17.2466 78.5045C16.4943 78.055 16.0379 76.6195 16.3462 75.735C16.5436 75.1695 16.6299 75.242 16.4819 75.8365ZM44.8116 75.677C44.8609 75.7785 45.0953 75.8945 45.3296 75.9525C45.5639 76.0105 45.9956 76.2135 46.2793 76.4165C46.6246 76.6485 46.8959 76.7355 47.0563 76.6775C47.2166 76.6195 47.4016 76.663 47.5249 76.7935C47.8209 77.098 49.0913 77.823 50.6083 78.5625C52.6063 79.5195 55.6403 81.2595 56.6146 81.999C57.0956 82.3615 57.6753 82.927 57.9219 83.246C58.3659 83.826 58.3659 83.855 58.1439 84.087C58.0083 84.2175 57.9096 84.2755 57.9096 84.1885C57.9096 83.913 57.0093 82.8255 56.5283 82.5355C56.1459 82.3035 55.8006 82.2455 54.8509 82.2455C54.1973 82.2455 53.5189 82.2745 53.3463 82.318C51.0646 82.898 47.9319 83.8115 47.2783 84.087C46.8219 84.29 46.0573 84.7105 45.6009 85.015C44.0716 86.059 43.7139 85.885 39.2246 82.0425C37.5596 80.6215 36.4373 79.795 34.7229 78.7655C33.3663 77.939 33.5759 77.6635 35.9193 77.2575C36.6716 77.1415 37.8803 76.808 38.5956 76.5325C39.7426 76.083 41.1363 75.735 42.4929 75.532C43.2699 75.4305 44.7253 75.5175 44.8116 75.677ZM28.0506 76.2425C27.9149 76.518 27.6066 76.9385 27.3723 77.1705C26.1389 78.4465 23.4133 78.2 22.5376 76.7355C22.2539 76.257 22.4636 76.2425 23.0063 76.6775C23.6353 77.185 24.1656 77.2865 25.3989 77.156C26.3979 77.04 27.3599 76.6195 27.9396 76.054C28.1123 75.88 28.2603 75.7495 28.2726 75.735C28.2849 75.735 28.1863 75.967 28.0506 76.2425ZM33.7363 77.301C33.7363 77.504 33.0456 78.258 32.6139 78.5335C32.2316 78.7655 32.2193 78.7655 32.5029 78.5335C32.6756 78.403 33.0086 78.0405 33.2429 77.7505C33.7239 77.156 33.7363 77.127 33.7363 77.301ZM35.2533 79.331C36.3756 80.0125 38.4353 81.564 39.1629 82.2745C39.3849 82.492 39.3233 82.4775 38.9163 82.1875C38.6079 81.9845 37.3746 81.158 36.1659 80.346C34.6983 79.36 33.8719 78.722 33.6993 78.432L33.4403 77.9825L33.7486 78.287C33.9089 78.461 34.5873 78.9395 35.2533 79.331ZM35.6233 80.3895C35.8823 80.549 37.2019 81.651 38.5463 82.84C42.1353 86.001 42.6286 86.291 43.8496 86.03C44.2566 85.943 45.3173 85.6095 46.2176 85.2905C48.7336 84.406 50.5466 84.0145 53.0626 83.826C54.7276 83.71 55.5046 83.71 56.1336 83.826C56.5899 83.913 56.9969 83.9565 57.0339 83.9275C57.1203 83.8115 56.5283 83.13 56.1583 82.898C55.7266 82.637 54.4933 82.637 52.8653 82.9125C51.4839 83.1445 51.0646 83.1155 52.1376 82.8545C54.0863 82.376 55.2703 82.289 56.1089 82.5645C56.5529 82.7095 57.6629 83.826 57.6629 84.1305C57.6629 84.3625 56.9106 84.377 56.1213 84.174C54.2713 83.681 48.5979 84.6815 44.2319 86.2765C43.4426 86.5665 42.5916 86.8275 42.3449 86.871C41.8393 86.929 41.4446 86.7115 39.8413 85.45C39.3726 85.073 38.6943 84.5945 38.3489 84.3915C37.4363 83.855 35.3519 82.1875 33.8843 80.839C33.1936 80.201 32.5523 79.65 32.4783 79.6065C32.3673 79.563 32.4536 79.3745 32.7249 79.041L33.1319 78.5335L34.1433 79.3165C34.6983 79.7515 35.3643 80.23 35.6233 80.3895ZM33.6869 80.955C34.9203 82.1005 37.2266 83.942 38.4229 84.7395C38.8669 85.0295 39.8043 85.6965 40.5196 86.2185C41.2473 86.7695 41.9503 87.19 42.1353 87.19C42.3079 87.19 42.8506 87.0305 43.3439 86.8275C46.5999 85.5225 52.0883 84.29 54.6043 84.29C55.3443 84.29 55.9609 84.348 55.9979 84.435C56.0473 84.522 55.8623 84.58 55.5293 84.58C55.2333 84.58 54.0123 84.87 52.8036 85.2325C50.0286 86.059 43.3563 87.625 42.5916 87.625C42.2093 87.625 41.5556 87.422 40.7416 87.0595C38.5463 86.1025 37.7076 85.5225 35.9563 83.7825C35.3766 83.2025 34.4886 82.4195 33.9829 82.028C33.4773 81.6365 32.8113 81.1 32.5153 80.839C32.2193 80.578 31.8986 80.375 31.7999 80.375C31.5656 80.375 31.6026 80.2445 31.9109 79.94C32.2563 79.621 32.2686 79.621 33.6869 80.955ZM21.2796 80.2445C22.3156 80.5055 22.3156 80.52 21.5879 80.4475C21.1809 80.4185 20.6259 80.288 20.3546 80.172C19.6763 79.882 20.0216 79.911 21.2796 80.2445ZM24.9549 80.4765C24.6959 80.5055 24.2766 80.5055 24.0299 80.4765C23.7709 80.4475 23.9806 80.4185 24.4863 80.4185C24.9919 80.4185 25.2016 80.4475 24.9549 80.4765ZM31.6766 80.5925C32.3796 80.926 34.6736 82.811 35.9686 84.087C36.6223 84.7395 37.5349 85.537 38.0036 85.856C38.8793 86.465 41.5556 87.77 41.9626 87.77C42.2093 87.7845 41.4323 88.3355 41.1609 88.35C41.0746 88.35 40.7169 88.118 40.3593 87.8425C40.0139 87.567 39.6686 87.335 39.6193 87.335C39.5576 87.335 38.9779 86.9435 38.3243 86.465C37.6583 86.001 36.8813 85.479 36.5729 85.334C36.2646 85.1745 35.5246 84.7975 34.9079 84.493C33.3293 83.7245 31.9603 82.666 30.9983 81.506C30.5296 80.9695 30.1596 80.4765 30.1596 80.4475C30.1596 80.288 31.2696 80.3895 31.6766 80.5925ZM71.0693 80.462C71.0323 80.5055 69.8113 80.5635 68.3683 80.5925C65.3959 80.6505 64.6929 80.781 62.7196 81.651C62.0043 81.97 60.9929 82.4195 60.4626 82.637C59.9323 82.869 59.3649 83.2025 59.1799 83.3765C59.0073 83.565 58.8099 83.71 58.7483 83.71C58.2919 83.71 60.3886 81.564 61.3013 81.1C62.0166 80.7375 62.4976 80.636 63.8296 80.52C65.3219 80.3895 71.1679 80.346 71.0693 80.462ZM71.5873 80.9985C71.6983 81.1725 71.4763 81.216 70.3293 81.2885C67.8626 81.448 63.2499 82.318 60.4996 83.13C59.4636 83.449 59.2416 83.42 60.0309 83.072C60.3269 82.956 61.3629 82.492 62.3496 82.057C63.9283 81.3755 64.6929 81.129 65.9263 80.897C66.0989 80.868 67.4063 80.839 68.8369 80.8245C70.8966 80.81 71.4763 80.8535 71.5873 80.9985ZM72.7096 81.593C72.7096 81.7235 72.4876 81.8105 72.1299 81.8685C62.3496 83.1735 62.3619 83.1735 59.3649 84.232C59.2046 84.29 59.1429 84.232 59.1429 84.029C59.1429 83.797 59.3649 83.6955 60.4996 83.3765C63.8543 82.4195 68.0229 81.651 71.2296 81.4045C72.6233 81.303 72.7096 81.303 72.7096 81.593ZM39.8043 83.1155C40.5319 83.652 41.4076 84.261 41.7653 84.5075C42.1229 84.7395 42.7273 85.16 43.0973 85.4065L43.7879 85.885H43.3069C42.6286 85.885 41.5063 85.1455 39.3726 83.275C38.3736 82.405 37.5596 81.651 37.5596 81.593C37.5596 81.506 37.6336 81.5495 39.8043 83.1155ZM73.5606 81.767C73.6469 81.854 73.5359 81.9265 73.1166 82.0135C72.7343 82.1005 72.7219 82.086 72.8576 81.825C72.9933 81.564 73.3509 81.5495 73.5606 81.767ZM71.8833 82.2165C71.7969 82.2455 71.6489 82.2455 71.5749 82.2165C71.4886 82.173 71.5503 82.144 71.7229 82.144C71.8956 82.144 71.9573 82.173 71.8833 82.2165ZM69.9346 82.55C69.1946 82.695 68.1586 82.898 67.6529 83.0285C67.1473 83.1445 65.9756 83.3765 65.0629 83.5505C64.1503 83.71 62.6086 83.9855 61.6343 84.1595C60.6599 84.3335 59.8459 84.435 59.8089 84.406C59.7103 84.2755 61.5479 83.6955 62.9046 83.42C63.6569 83.275 64.9026 83.072 65.6796 82.9705C66.4566 82.8835 67.8503 82.6805 68.7629 82.55C70.9336 82.2165 71.6736 82.2165 69.9346 82.55ZM59.2663 82.4485C59.2663 82.4775 59.1183 82.6515 58.9333 82.8545L58.5879 83.2025L58.8839 82.7965C59.1676 82.434 59.2663 82.3325 59.2663 82.4485ZM56.2693 83.2315C56.4296 83.362 56.5529 83.4925 56.5529 83.5505C56.5529 83.594 55.7389 83.623 54.7399 83.594C52.5076 83.536 50.2013 83.8405 48.2403 84.435C47.4386 84.6815 46.7603 84.8555 46.7356 84.8265C46.7109 84.7975 47.3646 84.5365 48.2033 84.2465C49.8436 83.6665 51.1016 83.391 53.0996 83.13C53.8149 83.0285 54.4809 82.9415 54.5796 82.9125C54.9373 82.8255 55.9979 83.0285 56.2693 83.2315ZM58.9949 84.1015C58.9456 84.4205 58.5263 84.5365 58.5263 84.2465C58.5263 84.0435 58.6866 83.8985 58.9333 83.8695C58.9949 83.855 59.0196 83.971 58.9949 84.1015Z" fill="#8A6D18"/>
<path d="M26.1266 55.464C26.1636 55.725 26.2746 56.218 26.3856 56.566C26.5459 57.0735 26.5583 57.3635 26.4719 58.0595C26.3363 59.0455 26.0649 59.6255 25.4113 60.365C24.5849 61.293 24.3999 62.076 24.6219 63.874C24.7083 64.7005 24.7206 65.1935 24.6343 65.4545C24.5109 65.8025 24.4369 65.8315 23.4749 65.9185C22.2416 66.02 20.6629 66.484 20.0833 66.9045C19.4049 67.3975 19.2939 67.876 19.5159 69.355C19.6146 70.0365 19.7749 71.0225 19.8736 71.5445C20.0956 72.7625 20.0956 72.69 19.7749 72.69C19.4049 72.69 17.2836 74.2125 16.6423 74.9375C15.9886 75.6625 15.8529 76.3295 16.1489 77.2575C16.5066 78.345 17.4069 79.041 20.1079 80.3025C20.9343 80.694 21.0576 80.7085 23.2529 80.723C25.2139 80.723 26.0156 80.665 28.1123 80.3025C28.7783 80.1865 29.9376 79.8965 30.8133 79.621C31.4916 79.418 31.8246 79.3745 31.9109 79.476C32.0959 79.6935 31.4669 80.027 30.6283 80.143C30.2336 80.201 29.9129 80.317 29.9129 80.404C29.9129 80.4765 30.3199 81.042 30.8133 81.6365C31.7999 82.8545 33.5389 84.1595 35.0189 84.812C36.0919 85.2905 37.4116 86.059 38.2626 86.697C38.6203 86.9725 39.2369 87.3785 39.6193 87.625C40.0139 87.8715 40.5073 88.205 40.7169 88.3645C41.0993 88.64 41.1116 88.64 41.6666 88.3645C41.9873 88.205 44.0716 87.6395 46.3286 87.1175C50.7069 86.1025 50.9906 86.0155 53.3463 85.2905C54.8139 84.8265 54.9989 84.812 57.1696 84.783C58.9579 84.783 59.9446 84.6815 61.7329 84.377C64.9273 83.826 67.7516 83.275 68.2943 83.1155C68.5533 83.043 69.8483 82.782 71.1803 82.5645C72.5123 82.3325 73.6593 82.0715 73.7456 81.97C73.8443 81.854 73.8196 81.7525 73.6469 81.593C73.5113 81.477 73.3139 81.39 73.2029 81.39C73.0919 81.39 72.8206 81.2015 72.5863 80.955C72.3519 80.723 72.0313 80.5345 71.8956 80.52C71.7476 80.52 71.5626 80.433 71.4886 80.317C71.4023 80.201 70.9336 79.969 70.4526 79.795C69.2563 79.3745 68.7876 79.186 66.4196 78.0985C65.2973 77.5765 63.8913 76.9675 63.2746 76.721C62.6703 76.489 61.6343 76.0395 60.9929 75.735C59.1676 74.865 58.4646 74.7635 54.0123 74.6475C49.7573 74.5315 49.1036 74.604 48.0429 75.2275C47.7346 75.416 47.3893 75.6915 47.2536 75.8655C47.0316 76.141 47.0069 76.1555 46.5753 75.9235C44.8239 75.0245 41.5679 75.155 38.6819 76.257C37.9666 76.5325 36.7333 76.8805 35.9563 77.04C35.1793 77.185 34.3899 77.3445 34.1926 77.4025C33.8719 77.504 33.8596 77.4895 33.9829 77.1125C34.1556 76.576 34.1309 75.6625 33.9336 75.1115C33.7239 74.517 33.1073 73.8935 32.3549 73.5165C31.7629 73.2265 31.6519 73.0815 31.8986 72.893C32.1946 72.69 33.1196 71.037 33.2429 70.5005C33.3909 69.848 33.1689 69.036 32.7743 68.7895C32.3919 68.5575 31.7629 68.601 31.1956 68.9055C30.6529 69.1955 30.6283 69.152 30.8749 68.4415C31.2203 67.47 30.7763 66.948 29.0989 66.31C28.1123 65.933 27.7423 65.875 26.6076 65.875C24.8563 65.875 24.7453 65.8315 24.8439 65.2515C24.8933 64.9905 24.8933 64.4975 24.8439 64.135C24.5849 62.3515 24.8193 61.293 25.6579 60.365C26.6569 59.263 26.9776 57.5085 26.4473 56.102C26.3116 55.725 26.2253 55.319 26.2623 55.203C26.2993 55.087 26.2746 55 26.2006 55C26.1143 55 26.0896 55.1885 26.1266 55.464ZM24.1163 66.1505C24.0176 66.223 23.4873 66.31 22.9446 66.3535C21.8593 66.455 21.8346 66.3825 22.8829 66.1795C23.8079 66.0055 24.3506 65.991 24.1163 66.1505ZM29.1976 66.5855C30.4309 67.064 30.7763 67.3685 30.7763 67.992C30.7763 68.485 30.3693 68.949 29.5183 69.471C27.8286 70.486 25.6703 70.486 21.1439 69.4855C20.7616 69.3985 20.3793 69.268 20.2806 69.1955C19.9229 68.9345 20.2929 68.949 21.4029 69.21C22.0319 69.3695 23.4256 69.616 24.4863 69.7465C26.2746 69.964 26.4966 69.964 27.6189 69.732C29.7773 69.3115 30.8873 68.543 30.5543 67.702C30.4803 67.499 30.2459 67.238 30.0486 67.1075C29.3949 66.716 27.6189 66.2955 25.9909 66.165L24.4246 66.0345L26.2129 66.0925C27.8163 66.136 28.1246 66.1795 29.1976 66.5855ZM21.8593 66.542C21.8223 66.5855 21.7113 66.6 21.6249 66.5565C21.5263 66.513 21.5633 66.4695 21.6989 66.4695C21.8346 66.455 21.9086 66.4985 21.8593 66.542ZM24.0423 66.6435C24.0053 66.7595 23.5859 66.919 23.0063 67.0205C21.6003 67.267 20.6506 67.586 20.2683 67.9195C19.9846 68.1515 19.9229 68.166 19.9229 67.9775C19.9229 67.383 20.6013 67.035 22.3896 66.6725C23.6723 66.4115 24.1286 66.4115 24.0423 66.6435ZM29.0249 66.9335C30.1843 67.3395 30.4063 67.5135 30.4063 67.992C30.4063 68.7315 28.7166 69.4565 26.6446 69.6015C25.3373 69.6885 22.7843 69.384 21.5263 68.9925C21.1563 68.8765 20.6629 68.775 20.4409 68.775C19.9106 68.775 19.9353 68.398 20.4903 68.021C20.9466 67.7165 23.0309 67.151 23.4873 67.209L23.8079 67.2525L23.5489 67.557C23.3763 67.76 23.0433 67.905 22.5993 67.963C21.7853 68.0935 21.3783 68.369 21.6249 68.659C21.8593 68.9345 26.1389 68.92 27.0763 68.6445C28.0876 68.3545 28.4329 68.108 28.4329 67.6875C28.4329 67.0205 28.0629 66.89 26.0649 66.89C25.0536 66.89 24.2396 66.832 24.2396 66.774C24.2396 66.4695 24.5356 66.426 26.2129 66.4985C27.6313 66.5565 28.2109 66.6435 29.0249 66.9335ZM27.8779 67.238C28.1123 67.354 28.3096 67.528 28.3096 67.6005C28.3096 67.8035 27.8163 68.1805 27.3106 68.3545C26.5459 68.6155 24.4493 68.775 23.1049 68.688C21.7606 68.5865 21.4029 68.427 22.2046 68.2675C22.4389 68.224 22.8336 68.166 23.0679 68.1225C23.4009 68.05 23.4996 68.0935 23.4996 68.2675C23.4996 68.514 23.6229 68.543 24.7329 68.485C25.6333 68.456 26.0773 68.166 25.8183 67.789C25.6949 67.615 25.4606 67.6005 24.6959 67.6585C23.7093 67.76 23.6846 67.731 24.0299 67.209C24.2026 66.948 27.3229 66.9625 27.8779 67.238ZM19.8119 67.8035C19.7503 67.992 19.7256 68.3255 19.7626 68.572C19.7996 68.891 19.7873 68.949 19.6886 68.775C19.5159 68.485 19.5159 67.8615 19.7009 67.644C19.9106 67.3975 19.9353 67.4265 19.8119 67.8035ZM25.6209 68.079C25.4483 68.282 24.1039 68.427 23.7833 68.282C23.3639 68.0935 23.8943 67.905 24.8563 67.905C25.5593 67.905 25.7319 67.9485 25.6209 68.079ZM32.7003 69.036C32.8976 69.1955 33.1196 69.732 33.1196 70.08C33.1196 70.631 32.5399 71.733 31.7999 72.5595C31.1093 73.357 29.9623 74.256 29.8389 74.0965C29.8019 74.0675 30.0239 73.8645 30.3323 73.647C31.6026 72.777 32.8729 70.9935 32.8729 70.08C32.8729 68.9345 31.7629 68.9055 30.8873 70.0365C30.4803 70.544 30.2459 71.095 30.0363 72.0375C29.7896 73.125 29.4566 73.821 28.7289 74.8215C27.8533 75.9815 27.1256 76.5325 26.0896 76.808C24.9056 77.127 24.0299 77.1125 23.4996 76.75C23.2653 76.5905 22.8336 76.3295 22.5623 76.17C22.2786 76.0105 21.9579 75.706 21.8346 75.503C21.7236 75.3 21.4276 74.8795 21.1933 74.5605C20.9466 74.2415 20.7739 73.9515 20.8109 73.9225C20.8479 73.879 21.0823 73.9515 21.3289 74.0675C22.0073 74.401 23.0679 74.4735 25.4729 74.314C27.1379 74.2125 27.8039 74.111 28.3713 73.8645C29.4319 73.4295 29.6293 73.125 29.9869 71.443C30.3199 69.935 30.5666 69.4565 31.2079 69.123C31.6149 68.92 32.4783 68.862 32.7003 69.036ZM22.3156 69.9495C24.1286 70.2975 24.3753 70.399 23.0926 70.2975C21.9579 70.196 20.3053 69.732 20.0463 69.413C19.8859 69.2245 19.9229 69.2245 20.3423 69.4275C20.6013 69.558 21.4893 69.79 22.3156 69.9495ZM30.2953 69.4855C30.2213 69.6305 30.0363 70.37 29.8636 71.124C29.4813 72.922 29.3949 73.096 28.6426 73.4875C27.7176 73.9805 26.6816 74.14 24.2396 74.14C22.3156 74.14 21.9949 74.111 21.3166 73.821C20.6876 73.5455 20.5149 73.415 20.4039 73.0525C20.1573 72.255 19.9229 71.095 19.8489 70.2975L19.7626 69.5145L20.2436 69.79C21.2179 70.3555 22.4389 70.5585 24.9179 70.573C27.6189 70.573 28.4083 70.428 29.5429 69.732C29.9869 69.4565 30.3569 69.239 30.3816 69.2245C30.3939 69.21 30.3569 69.3405 30.2953 69.4855ZM32.4289 69.442C32.6879 69.558 32.6879 70.3845 32.4289 70.9645C32.3303 71.211 32.0466 71.6605 31.7999 71.9795C31.4053 72.487 31.3066 72.545 30.7516 72.545H30.1349L30.2213 72.0665C30.4433 70.8775 30.9243 70.0655 31.7013 69.587C32.1206 69.326 32.1576 69.326 32.4289 69.442ZM19.9106 73.038C19.8859 73.067 19.6886 73.1395 19.4913 73.183L19.1213 73.27L19.4913 73.067C19.8119 72.893 20.0586 72.864 19.9106 73.038ZM30.8996 72.893C30.8996 73.009 30.0239 73.589 29.9623 73.5165C29.7896 73.3135 30.1966 72.835 30.5296 72.835C30.7393 72.835 30.8996 72.864 30.8996 72.893ZM20.5273 73.9515C20.6753 74.4155 20.9096 74.9375 21.0453 75.097L21.2919 75.416L20.7616 75.503C20.0586 75.6335 19.4543 76.0685 19.3556 76.5325C19.2323 77.1415 19.3803 78.055 19.6763 78.4175C20.0463 78.8815 20.9589 79.3165 21.9086 79.476C22.3403 79.5485 23.8326 79.6065 25.2263 79.592C28.0136 79.563 28.5193 79.447 29.8636 78.577C30.8256 77.9535 31.1339 77.33 30.9119 76.4745C30.8009 75.996 30.6283 75.764 30.0979 75.3435C29.3949 74.807 29.2593 74.575 29.6416 74.575C29.7649 74.575 30.1349 74.372 30.4679 74.1255C30.9119 73.792 31.1216 73.705 31.2696 73.8065C31.3683 73.8935 31.7753 74.0675 32.1576 74.198C33.0579 74.5025 33.8596 75.3435 33.8596 75.967C33.8596 76.605 33.2429 77.6345 32.5523 78.171C31.9356 78.664 30.2706 79.3165 28.6796 79.7225C27.3106 80.056 23.0679 80.288 21.7976 80.085C20.6383 79.911 18.8993 79.3455 18.1963 78.925C17.6043 78.5625 16.8766 77.5765 16.6916 76.866C16.3462 75.5175 17.2219 74.2995 19.0473 73.5745C19.6269 73.3425 20.1449 73.154 20.1819 73.1395C20.2189 73.1395 20.3793 73.502 20.5273 73.9515ZM32.1206 73.647C32.4536 73.763 32.9099 74.053 33.1319 74.285L33.5513 74.7055L32.8236 74.2705C32.4289 74.0385 32.0096 73.85 31.8986 73.85C31.6396 73.85 31.1339 73.4295 31.3683 73.415C31.4546 73.415 31.7999 73.5165 32.1206 73.647ZM59.2786 75.271C59.7966 75.445 60.4873 75.7205 60.8203 75.8945C61.1533 76.0685 62.2633 76.547 63.2746 76.9675C64.9766 77.678 69.1083 79.505 69.6879 79.8095C69.8483 79.8965 69.5769 79.9255 68.8863 79.882C67.5789 79.824 63.8049 80.1575 62.5223 80.4475C60.9436 80.7955 59.0443 82.028 58.5386 82.9995C58.3043 83.4345 58.3043 83.449 58.1686 83.1445C57.8233 82.405 54.1233 79.998 51.0769 78.5335C49.4119 77.736 47.6483 76.7065 47.4509 76.4165C47.3276 76.2425 47.3399 76.1555 47.5003 75.9525C48.3636 74.9375 48.7953 74.865 53.9013 74.923C58.0083 74.952 58.4153 74.981 59.2786 75.271ZM29.8883 75.474C30.6406 76.083 30.7639 76.286 30.7763 76.9095C30.7763 77.5475 30.4063 77.997 29.3579 78.606C28.1493 79.302 27.5696 79.389 24.3629 79.331C21.7236 79.2875 21.4029 79.244 20.7739 78.954C19.9599 78.577 19.6886 78.2725 19.5529 77.5475C19.3433 76.431 19.9229 75.735 21.0823 75.735C21.6249 75.735 21.6743 75.764 22.2169 76.605C23.0433 77.852 23.5859 78.1275 25.1646 78.1275C26.6693 78.1275 27.3846 77.794 27.9396 76.837C28.7659 75.445 29.0619 75.01 29.1853 75.01C29.2593 75.01 29.5676 75.213 29.8883 75.474ZM16.4819 75.8365C16.3586 76.344 16.4819 77.1995 16.7286 77.591C16.8149 77.7215 17.0246 78.026 17.1973 78.258C17.4933 78.6495 17.4933 78.664 17.2466 78.5045C16.4943 78.055 16.0379 76.6195 16.3462 75.735C16.5436 75.1695 16.6299 75.242 16.4819 75.8365ZM44.8116 75.677C44.8609 75.7785 45.0953 75.8945 45.3296 75.9525C45.5639 76.0105 45.9956 76.2135 46.2793 76.4165C46.6246 76.6485 46.8959 76.7355 47.0563 76.6775C47.2166 76.6195 47.4016 76.663 47.5249 76.7935C47.8209 77.098 49.0913 77.823 50.6083 78.5625C52.6063 79.5195 55.6403 81.2595 56.6146 81.999C57.0956 82.3615 57.6753 82.927 57.9219 83.246C58.3659 83.826 58.3659 83.855 58.1439 84.087C58.0083 84.2175 57.9096 84.2755 57.9096 84.1885C57.9096 83.913 57.0093 82.8255 56.5283 82.5355C56.1459 82.3035 55.8006 82.2455 54.8509 82.2455C54.1973 82.2455 53.5189 82.2745 53.3463 82.318C51.0646 82.898 47.9319 83.8115 47.2783 84.087C46.8219 84.29 46.0573 84.7105 45.6009 85.015C44.0716 86.059 43.7139 85.885 39.2246 82.0425C37.5596 80.6215 36.4373 79.795 34.7229 78.7655C33.3663 77.939 33.5759 77.6635 35.9193 77.2575C36.6716 77.1415 37.8803 76.808 38.5956 76.5325C39.7426 76.083 41.1363 75.735 42.4929 75.532C43.2699 75.4305 44.7253 75.5175 44.8116 75.677ZM28.0506 76.2425C27.9149 76.518 27.6066 76.9385 27.3723 77.1705C26.1389 78.4465 23.4133 78.2 22.5376 76.7355C22.2539 76.257 22.4636 76.2425 23.0063 76.6775C23.6353 77.185 24.1656 77.2865 25.3989 77.156C26.3979 77.04 27.3599 76.6195 27.9396 76.054C28.1123 75.88 28.2603 75.7495 28.2726 75.735C28.2849 75.735 28.1863 75.967 28.0506 76.2425ZM33.7363 77.301C33.7363 77.504 33.0456 78.258 32.6139 78.5335C32.2316 78.7655 32.2193 78.7655 32.5029 78.5335C32.6756 78.403 33.0086 78.0405 33.2429 77.7505C33.7239 77.156 33.7363 77.127 33.7363 77.301ZM35.2533 79.331C36.3756 80.0125 38.4353 81.564 39.1629 82.2745C39.3849 82.492 39.3233 82.4775 38.9163 82.1875C38.6079 81.9845 37.3746 81.158 36.1659 80.346C34.6983 79.36 33.8719 78.722 33.6993 78.432L33.4403 77.9825L33.7486 78.287C33.9089 78.461 34.5873 78.9395 35.2533 79.331ZM35.6233 80.3895C35.8823 80.549 37.2019 81.651 38.5463 82.84C42.1353 86.001 42.6286 86.291 43.8496 86.03C44.2566 85.943 45.3173 85.6095 46.2176 85.2905C48.7336 84.406 50.5466 84.0145 53.0626 83.826C54.7276 83.71 55.5046 83.71 56.1336 83.826C56.5899 83.913 56.9969 83.9565 57.0339 83.9275C57.1203 83.8115 56.5283 83.13 56.1583 82.898C55.7266 82.637 54.4933 82.637 52.8653 82.9125C51.4839 83.1445 51.0646 83.1155 52.1376 82.8545C54.0863 82.376 55.2703 82.289 56.1089 82.5645C56.5529 82.7095 57.6629 83.826 57.6629 84.1305C57.6629 84.3625 56.9106 84.377 56.1213 84.174C54.2713 83.681 48.5979 84.6815 44.2319 86.2765C43.4426 86.5665 42.5916 86.8275 42.3449 86.871C41.8393 86.929 41.4446 86.7115 39.8413 85.45C39.3726 85.073 38.6943 84.5945 38.3489 84.3915C37.4363 83.855 35.3519 82.1875 33.8843 80.839C33.1936 80.201 32.5523 79.65 32.4783 79.6065C32.3673 79.563 32.4536 79.3745 32.7249 79.041L33.1319 78.5335L34.1433 79.3165C34.6983 79.7515 35.3643 80.23 35.6233 80.3895ZM33.6869 80.955C34.9203 82.1005 37.2266 83.942 38.4229 84.7395C38.8669 85.0295 39.8043 85.6965 40.5196 86.2185C41.2473 86.7695 41.9503 87.19 42.1353 87.19C42.3079 87.19 42.8506 87.0305 43.3439 86.8275C46.5999 85.5225 52.0883 84.29 54.6043 84.29C55.3443 84.29 55.9609 84.348 55.9979 84.435C56.0473 84.522 55.8623 84.58 55.5293 84.58C55.2333 84.58 54.0123 84.87 52.8036 85.2325C50.0286 86.059 43.3563 87.625 42.5916 87.625C42.2093 87.625 41.5556 87.422 40.7416 87.0595C38.5463 86.1025 37.7076 85.5225 35.9563 83.7825C35.3766 83.2025 34.4886 82.4195 33.9829 82.028C33.4773 81.6365 32.8113 81.1 32.5153 80.839C32.2193 80.578 31.8986 80.375 31.7999 80.375C31.5656 80.375 31.6026 80.2445 31.9109 79.94C32.2563 79.621 32.2686 79.621 33.6869 80.955ZM21.2796 80.2445C22.3156 80.5055 22.3156 80.52 21.5879 80.4475C21.1809 80.4185 20.6259 80.288 20.3546 80.172C19.6763 79.882 20.0216 79.911 21.2796 80.2445ZM24.9549 80.4765C24.6959 80.5055 24.2766 80.5055 24.0299 80.4765C23.7709 80.4475 23.9806 80.4185 24.4863 80.4185C24.9919 80.4185 25.2016 80.4475 24.9549 80.4765ZM31.6766 80.5925C32.3796 80.926 34.6736 82.811 35.9686 84.087C36.6223 84.7395 37.5349 85.537 38.0036 85.856C38.8793 86.465 41.5556 87.77 41.9626 87.77C42.2093 87.7845 41.4323 88.3355 41.1609 88.35C41.0746 88.35 40.7169 88.118 40.3593 87.8425C40.0139 87.567 39.6686 87.335 39.6193 87.335C39.5576 87.335 38.9779 86.9435 38.3243 86.465C37.6583 86.001 36.8813 85.479 36.5729 85.334C36.2646 85.1745 35.5246 84.7975 34.9079 84.493C33.3293 83.7245 31.9603 82.666 30.9983 81.506C30.5296 80.9695 30.1596 80.4765 30.1596 80.4475C30.1596 80.288 31.2696 80.3895 31.6766 80.5925ZM71.0693 80.462C71.0323 80.5055 69.8113 80.5635 68.3683 80.5925C65.3959 80.6505 64.6929 80.781 62.7196 81.651C62.0043 81.97 60.9929 82.4195 60.4626 82.637C59.9323 82.869 59.3649 83.2025 59.1799 83.3765C59.0073 83.565 58.8099 83.71 58.7483 83.71C58.2919 83.71 60.3886 81.564 61.3013 81.1C62.0166 80.7375 62.4976 80.636 63.8296 80.52C65.3219 80.3895 71.1679 80.346 71.0693 80.462ZM71.5873 80.9985C71.6983 81.1725 71.4763 81.216 70.3293 81.2885C67.8626 81.448 63.2499 82.318 60.4996 83.13C59.4636 83.449 59.2416 83.42 60.0309 83.072C60.3269 82.956 61.3629 82.492 62.3496 82.057C63.9283 81.3755 64.6929 81.129 65.9263 80.897C66.0989 80.868 67.4063 80.839 68.8369 80.8245C70.8966 80.81 71.4763 80.8535 71.5873 80.9985ZM72.7096 81.593C72.7096 81.7235 72.4876 81.8105 72.1299 81.8685C62.3496 83.1735 62.3619 83.1735 59.3649 84.232C59.2046 84.29 59.1429 84.232 59.1429 84.029C59.1429 83.797 59.3649 83.6955 60.4996 83.3765C63.8543 82.4195 68.0229 81.651 71.2296 81.4045C72.6233 81.303 72.7096 81.303 72.7096 81.593ZM39.8043 83.1155C40.5319 83.652 41.4076 84.261 41.7653 84.5075C42.1229 84.7395 42.7273 85.16 43.0973 85.4065L43.7879 85.885H43.3069C42.6286 85.885 41.5063 85.1455 39.3726 83.275C38.3736 82.405 37.5596 81.651 37.5596 81.593C37.5596 81.506 37.6336 81.5495 39.8043 83.1155ZM73.5606 81.767C73.6469 81.854 73.5359 81.9265 73.1166 82.0135C72.7343 82.1005 72.7219 82.086 72.8576 81.825C72.9933 81.564 73.3509 81.5495 73.5606 81.767ZM71.8833 82.2165C71.7969 82.2455 71.6489 82.2455 71.5749 82.2165C71.4886 82.173 71.5503 82.144 71.7229 82.144C71.8956 82.144 71.9573 82.173 71.8833 82.2165ZM69.9346 82.55C69.1946 82.695 68.1586 82.898 67.6529 83.0285C67.1473 83.1445 65.9756 83.3765 65.0629 83.5505C64.1503 83.71 62.6086 83.9855 61.6343 84.1595C60.6599 84.3335 59.8459 84.435 59.8089 84.406C59.7103 84.2755 61.5479 83.6955 62.9046 83.42C63.6569 83.275 64.9026 83.072 65.6796 82.9705C66.4566 82.8835 67.8503 82.6805 68.7629 82.55C70.9336 82.2165 71.6736 82.2165 69.9346 82.55ZM59.2663 82.4485C59.2663 82.4775 59.1183 82.6515 58.9333 82.8545L58.5879 83.2025L58.8839 82.7965C59.1676 82.434 59.2663 82.3325 59.2663 82.4485ZM56.2693 83.2315C56.4296 83.362 56.5529 83.4925 56.5529 83.5505C56.5529 83.594 55.7389 83.623 54.7399 83.594C52.5076 83.536 50.2013 83.8405 48.2403 84.435C47.4386 84.6815 46.7603 84.8555 46.7356 84.8265C46.7109 84.7975 47.3646 84.5365 48.2033 84.2465C49.8436 83.6665 51.1016 83.391 53.0996 83.13C53.8149 83.0285 54.4809 82.9415 54.5796 82.9125C54.9373 82.8255 55.9979 83.0285 56.2693 83.2315ZM58.9949 84.1015C58.9456 84.4205 58.5263 84.5365 58.5263 84.2465C58.5263 84.0435 58.6866 83.8985 58.9333 83.8695C58.9949 83.855 59.0196 83.971 58.9949 84.1015Z" stroke="#8A6D18" stroke-width="2" mask="url(#path-15-outside-2_765_2282)"/>
</g>
<defs>
<clipPath id="clip0_765_2282">
<rect width="74" height="58" fill="white" transform="translate(0 35)"/>
</clipPath>
</defs>
</svg>
