<svg width="375" height="576" viewBox="0 0 375 576" fill="none" xmlns="http://www.w3.org/2000/svg">
<path d="M310.786 463.588L310.273 473.59L310.089 477.327L309.649 485.644L307.963 517.962C293.308 528.918 277.623 538.516 261.062 546.58C259.376 547.424 257.654 548.23 255.968 548.999C244.024 554.532 231.602 559.294 218.849 563.214C218.481 563.322 218.153 563.434 217.788 563.543C190.967 571.639 162.494 576 133.074 576C100.023 576 68.181 570.502 38.5377 560.355H38.5016C36.9998 559.842 35.4587 559.294 33.957 558.742C31.5746 557.897 29.2316 557.02 26.8854 556.103C23.2576 554.71 19.666 553.208 16.1499 551.67C15.2692 551.302 14.3919 550.901 13.5474 550.533C-16.9372 536.866 -44.678 518.143 -68.5675 495.351C-64.3154 488.68 -60.6514 481.28 -57.6841 473.071C-54.3849 463.91 -51.5294 455.593 -48.9269 448.045C-48.6344 447.164 -48.3419 446.287 -48.0462 445.442C-37.567 414.846 -31.6686 396.378 -21.0777 379.048C-20.565 378.203 -20.0524 377.362 -19.5036 376.521C-10.8548 362.999 0.942101 349.845 20.3265 331.781C47.111 306.791 10.8363 214.71 31.5384 206.136C47.5151 199.505 59.2397 196.682 62.9037 195.914C62.9398 195.877 62.9398 195.877 62.976 195.877C63.7449 195.693 64.1491 195.657 64.1491 195.657L65.5424 195.805L84.8906 197.747L94.6731 198.7L98.705 199.14L138.719 203.133L155.757 204.855H155.793L167.005 205.952L176.387 206.905L176.423 206.942C176.495 206.978 176.68 207.053 176.9 207.198C177.084 207.31 177.34 207.454 177.632 207.602C179.062 208.407 181.701 209.948 185.18 212.035C192.656 216.468 204.052 223.539 216.181 231.968C216.802 232.408 217.463 232.849 218.087 233.325C221.274 235.56 224.534 237.906 227.761 240.324C228.822 241.129 229.887 241.938 230.948 242.743C231.793 243.403 232.67 244.061 233.515 244.721C233.807 244.941 234.064 245.161 234.356 245.382C234.685 245.602 234.98 245.858 235.309 246.15C238.497 248.641 241.612 251.208 244.579 253.81C245.46 254.615 246.337 255.384 247.218 256.157C247.254 256.193 247.254 256.193 247.29 256.229C248.171 256.998 249.012 257.767 249.817 258.536C250.918 259.597 252.015 260.625 253.077 261.687C253.625 262.2 254.138 262.712 254.651 263.261C258.903 267.549 262.639 271.87 265.57 276.086C266.231 277.003 266.852 277.956 267.44 278.87C278.652 296.825 286.933 318.552 293.127 340.683C307.71 392.971 310.277 447.568 310.714 460.65C310.75 461.235 310.75 461.711 310.75 462.152C310.786 463.075 310.786 463.588 310.786 463.588Z" fill="#ADB8CC"/>
<path d="M136.524 300.969C136.422 300.969 136.32 300.959 136.215 300.929C135.535 300.762 135.118 300.075 135.285 299.392L152.626 229.162C152.793 228.479 153.477 228.042 154.167 228.232C154.85 228.4 155.264 229.087 155.097 229.77L137.756 299.999C137.615 300.578 137.096 300.969 136.524 300.969Z" fill="#341A12"/>
<path d="M293.114 340.681C269.99 370.225 239.699 395.081 239.699 395.081L240.241 391.312L176.4 206.922C176.4 206.922 247.066 246.21 267.44 278.877C278.649 296.842 286.933 318.575 293.114 340.681Z" fill="#FFC063"/>
<path d="M143.396 212.084C140.918 218.807 138.47 225.564 136.163 232.356C133.889 238.944 131.75 245.566 129.745 252.187C126.758 262.341 124.11 272.561 122.003 282.987C99.4546 256.705 79.8633 226.517 64.1396 195.648C66.5845 185.868 68.0105 175.816 68.4509 165.731C73.1368 161.216 79.8272 158.091 86.2448 159.008C92.6953 159.892 98.6398 162.915 104.141 166.376C121.665 177.413 134.566 193.406 143.396 212.084Z" fill="#B95731"/>
<path d="M136.163 232.356C133.889 238.945 131.75 245.566 129.745 252.187C128.319 250.998 126.962 249.742 125.569 248.418C108.997 232.593 97.046 209.196 90.9307 187.091C101.459 205.972 117.35 221.795 136.163 232.356Z" fill="#341A12"/>
<path d="M227.268 91.181C227.268 40.8257 186.446 0 136.09 0C85.7352 0 44.9127 40.8224 44.9127 91.181C44.9127 120.525 58.7897 146.613 80.3231 163.293C80.5137 169.126 80.747 175.077 81.0362 181.064C83.3463 228.925 149.816 237.272 149.816 237.272C149.816 237.272 181.605 221.811 198.946 195.654C216.286 169.497 226.69 102.593 226.69 102.593L226.535 102.577C226.999 98.8441 227.268 95.0454 227.268 91.181Z" fill="#B95731"/>
<path d="M50.5878 122.366C45.6357 122.005 40.6936 124.252 37.2268 127.808C33.76 131.363 31.6865 136.108 30.7533 140.985C28.9328 150.521 31.4237 160.727 37.1414 168.574C42.8591 176.421 51.6624 181.873 61.1623 183.868C65.7759 184.837 70.6458 185.011 75.1476 183.621C79.6528 182.231 83.7506 179.142 85.6959 174.847C90.1288 165.055 82.8403 152.466 76.9748 144.665C70.6787 136.289 62.0462 123.207 50.5878 122.366Z" fill="#B95731"/>
<path d="M71.9735 150.573C71.5891 150.573 71.2407 150.314 71.1487 149.923C69.5484 143.278 67.0904 137.63 63.8339 133.148C60.0386 127.913 54.9616 124.088 49.5396 122.369C49.0927 122.231 48.8463 121.752 48.9876 121.305C49.1322 120.861 49.612 120.605 50.0523 120.753C55.816 122.576 61.2018 126.625 65.2075 132.152C68.5921 136.815 71.1454 142.661 72.7982 149.529C72.91 149.982 72.6274 150.442 72.1707 150.55C72.105 150.567 72.036 150.573 71.9735 150.573Z" fill="#341A12"/>
<path d="M67.629 163.708C66.9981 163.708 66.4493 163.235 66.3671 162.591C65.6442 156.837 62.7624 151.31 58.461 147.419C54.1596 143.532 48.3663 141.225 42.5664 141.087C41.8632 141.067 41.3078 140.486 41.3242 139.779C41.3439 139.089 41.9091 138.537 42.5992 138.537C42.6091 138.537 42.6189 138.537 42.6288 138.537C49.03 138.692 55.4213 141.238 60.1664 145.53C64.9147 149.821 68.0956 155.924 68.8908 162.275C68.9795 162.972 68.4834 163.61 67.7867 163.695C67.7374 163.705 67.6815 163.708 67.629 163.708Z" fill="#341A12"/>
<path d="M116.45 153.574C121.668 155.874 126.492 158.125 130.997 157.317C135.571 156.6 139.837 153.281 143.402 149.177L143.428 149.147C143.895 148.609 144.71 148.553 145.249 149.019C145.666 149.381 145.791 149.953 145.613 150.442C144.565 153.288 142.853 155.953 140.536 158.125C138.239 160.3 135.243 161.979 131.884 162.577C128.5 163.228 125.016 162.472 122.184 161.118C119.315 159.758 116.985 157.793 114.971 155.651C114.478 155.128 114.504 154.306 115.027 153.814C115.418 153.442 115.99 153.37 116.45 153.574Z" fill="#341A12"/>
<path d="M186.656 143.034C189.206 143.008 191.493 143.55 193.399 143.54C195.285 143.593 196.738 143.208 198.417 142.354C200.037 141.464 201.545 140.215 202.981 138.631C204.43 137.067 205.833 135.24 207.42 133.432C207.897 132.89 208.722 132.834 209.264 133.311C209.652 133.653 209.79 134.172 209.665 134.638C209.034 136.955 208.206 139.272 206.878 141.493C205.561 143.692 203.684 145.841 201.21 147.27C198.841 148.782 195.459 149.439 192.692 148.759C189.935 148.105 187.836 146.863 185.91 145.469L185.887 145.453C185.289 145.019 185.154 144.184 185.588 143.586C185.844 143.231 186.252 143.041 186.656 143.034Z" fill="#341A12"/>
<path d="M176.604 134.616C176.568 133.92 175.871 133.298 175.247 133.407C174.55 133.443 174.002 134.031 174.038 134.764L176.824 185.146L167.663 185.586C166.966 185.622 166.417 186.21 166.453 186.904C166.49 187.6 167.075 188.113 167.735 188.113C167.771 188.113 167.771 188.113 167.807 188.113L176.969 187.673C177.373 187.673 178.362 187.636 178.983 186.792C179.424 186.168 179.387 185.474 179.387 185.106L176.604 134.616Z" fill="#341A12"/>
<path d="M162.323 206.956C161.406 206.956 160.493 206.844 159.602 206.624C156.158 205.76 153.168 203.193 151.791 199.917C151.518 199.27 151.824 198.52 152.471 198.248C153.119 197.972 153.868 198.281 154.138 198.928C155.209 201.478 157.542 203.479 160.22 204.153C162.905 204.813 165.901 204.159 168.051 202.421C168.596 201.977 169.398 202.056 169.841 202.608C170.282 203.157 170.2 203.956 169.654 204.396C167.607 206.059 164.958 206.956 162.323 206.956Z" fill="#341A12"/>
<path d="M104.791 121.521C104.64 121.521 104.489 121.495 104.341 121.439C103.684 121.193 103.349 120.457 103.598 119.796C105.235 115.459 108.501 111.68 112.556 109.429C116.611 107.175 121.543 106.406 126.098 107.309C126.788 107.444 127.235 108.118 127.097 108.805C126.962 109.498 126.292 109.955 125.598 109.807C121.632 109.018 117.327 109.688 113.788 111.654C110.253 113.619 107.407 116.915 105.977 120.697C105.79 121.206 105.307 121.521 104.791 121.521Z" fill="#341A12"/>
<path d="M207.703 102.304C207.447 102.304 207.187 102.225 206.961 102.064C201.433 98.0849 193.698 97.5953 187.714 100.842C187.09 101.174 186.324 100.941 185.989 100.329C185.654 99.7115 185.884 98.936 186.502 98.6009C193.333 94.8975 202.15 95.4594 208.452 99.9974C209.024 100.408 209.152 101.203 208.742 101.775C208.489 102.12 208.098 102.304 207.703 102.304Z" fill="#341A12"/>
<path d="M310.786 463.588L310.274 473.59L310.09 477.327L309.649 485.644L307.963 517.962C293.308 528.917 277.624 538.516 261.062 546.58C259.376 547.424 257.654 548.23 255.968 548.998C244.024 554.532 231.603 559.294 218.849 563.214C218.481 563.322 218.153 563.434 217.788 563.542C190.967 571.639 162.494 576 133.074 576C100.023 576 68.1812 570.502 38.5378 560.355H38.5017C37 559.842 35.4589 559.294 33.9571 558.742C31.5748 557.897 29.2318 557.02 26.8856 556.103C23.2578 554.71 19.6661 553.208 16.1501 551.67C15.2694 551.302 14.3921 550.901 13.5475 550.533C-16.937 536.866 -44.6778 518.142 -68.5673 495.351C-79.2305 485.236 -89.1248 474.317 -98.1384 462.664C-101.142 458.78 -104.073 454.824 -106.896 450.792C-116.422 437.161 -124.814 422.726 -131.922 407.518V407.482C-132.655 405.98 -133.315 404.515 -133.973 403.013V402.977C-134.485 401.84 -134.998 400.706 -135.474 399.533C-111.657 337.755 -88.6845 296.496 -43.7972 254.579C-17.0127 229.589 10.8365 214.713 31.5385 206.14C44.6926 250.695 72.2099 290.561 107.239 321.233C140.182 350.071 179.424 371.03 220.903 385.209C223.982 386.271 227.022 387.299 230.101 388.249C231.53 388.725 232.96 389.166 234.389 389.57C236.331 390.194 238.309 390.779 240.251 391.328C240.656 392.097 241.056 392.829 241.533 393.562C243.915 397.887 246.518 402.099 249.337 406.204C250.51 407.925 251.72 409.647 253.001 411.333C255.492 414.777 258.131 418.112 260.953 421.372C264.581 425.66 268.465 429.801 272.57 433.649C282.171 442.882 292.759 450.907 304.263 457.282H304.3C306.389 458.455 308.548 459.589 310.711 460.653C310.747 461.238 310.747 461.715 310.747 462.155C310.786 463.075 310.786 463.588 310.786 463.588Z" fill="#FFC063"/>
<path d="M197.789 376.11C197.411 376.11 197.037 375.942 196.784 375.62C196.511 375.265 168.79 339.73 121.034 283.815C73.0839 227.67 63.3145 197.29 62.9235 196.025C62.7164 195.355 63.091 194.645 63.7613 194.431C64.4349 194.228 65.1481 194.599 65.3551 195.269C65.4504 195.578 75.4301 226.496 122.969 282.162C170.768 338.123 198.519 373.701 198.795 374.053C199.225 374.608 199.127 375.41 198.571 375.84C198.338 376.021 198.065 376.11 197.789 376.11Z" fill="#341A12"/>
<path d="M48.9543 444.049C48.9543 444.049 149.093 446.218 149.527 451.419C149.96 456.621 105.31 472.66 105.31 472.66C105.31 472.66 169.466 469.194 166.867 476.561C164.265 483.932 107.912 499.103 107.912 499.103C107.912 499.103 109.647 509.507 105.31 512.977C100.976 516.444 91.8699 519.48 91.8699 519.48C91.8699 519.48 93.4604 525.694 82.4784 530.606C70.9773 535.752 16.4421 525.115 16.4421 525.115C16.4421 525.115 21.4994 467.603 48.9543 444.049Z" fill="#B95731"/>
<path d="M97.7847 500.576C89.9541 500.576 82.7775 500.096 82.6822 500.09C81.979 500.044 81.4499 499.436 81.4992 498.733C81.5452 498.026 82.1859 497.474 82.8563 497.546C82.9811 497.556 95.6062 498.401 105.527 497.832C116.302 497.218 164.261 481.09 165.605 476.545C163.916 473.995 138.946 473.795 125.532 473.686C117.393 473.621 110.364 473.565 106.355 473.207C93.2894 472.043 83.5299 467.791 83.1224 467.614C82.4784 467.328 82.1859 466.575 82.4718 465.935C82.7544 465.287 83.5037 465.001 84.151 465.281C84.2463 465.323 93.9565 469.546 106.581 470.673C110.489 471.021 117.471 471.074 125.552 471.136C156.786 471.386 167.915 472.234 168.142 476.493C168.536 484.037 113.485 499.929 105.671 500.369C103.131 500.52 100.42 500.576 97.7847 500.576Z" fill="#341A12"/>
<path d="M83.5232 519.27C81.223 519.27 79.5208 519.191 78.9457 519.158C78.2425 519.122 77.7036 518.524 77.7398 517.821C77.7792 517.118 78.4299 516.529 79.0772 516.618C84.9954 516.937 101.054 516.743 104.275 512.234C108.234 506.691 106.683 499.448 106.67 499.379C106.519 498.693 106.949 498.012 107.636 497.861C108.333 497.707 109.003 498.141 109.154 498.827C109.23 499.166 110.958 507.259 106.345 513.716C102.885 518.563 90.4699 519.27 83.5232 519.27Z" fill="#341A12"/>
<path d="M13.8397 443.155C13.7313 443.155 13.6228 443.142 13.5144 443.112C12.8342 442.935 12.43 442.235 12.6074 441.555L33.8484 360.925C34.0258 360.248 34.7258 359.841 35.4027 360.021C36.0829 360.202 36.4904 360.899 36.3097 361.579L15.0687 442.208C14.9208 442.777 14.4082 443.155 13.8397 443.155Z" fill="#341A12"/>
<path d="M53.2689 441.97C53.2328 442.006 52.4244 442.739 51.1428 444.096C45.573 449.922 30.4046 467.585 22.0482 494.734C22.0121 494.806 21.9759 494.918 21.9759 495.026C19.5213 502.978 17.6877 511.736 16.8826 521.262C16.8465 521.298 16.8465 521.334 16.8465 521.37C16.7381 522.616 16.6263 523.861 16.5902 525.146C16.4817 526.283 16.4456 527.453 16.4062 528.626C16.1499 537.055 16.0776 544.711 16.1498 551.674C15.2692 551.306 14.3918 550.905 13.5473 550.537C13.5473 543.87 13.6195 536.578 13.8759 528.554C15.3414 481.652 41.0646 450.983 49.1614 442.482L-48.9301 448.052L-100.12 450.947C-100.744 451.02 -101.402 450.471 -101.438 449.774C-101.474 449.041 -100.961 448.456 -100.229 448.42L-48.0496 445.453L11.017 442.082L12.591 442.009L13.728 441.937L15.1936 441.865L52.3488 439.739C52.8615 439.666 53.3741 440.031 53.5942 440.544C53.8177 441.017 53.6698 441.602 53.2689 441.97Z" fill="#341A12"/>
<path d="M12.5417 443.588C12.0751 443.588 11.6282 443.335 11.4047 442.892L-25.8754 369.629C-26.1941 369.005 -25.9444 368.236 -25.32 367.917C-24.6858 367.599 -23.9235 367.845 -23.608 368.476L13.6721 441.738C13.9908 442.366 13.7411 443.132 13.1167 443.45C12.9327 443.542 12.7356 443.588 12.5417 443.588Z" fill="#341A12"/>
<path d="M438.191 478.753C480.466 445.106 471.349 363.316 417.828 296.068C364.307 228.821 286.648 201.582 244.373 235.228C202.098 268.874 211.214 350.665 264.735 417.912C318.257 485.16 395.915 512.399 438.191 478.753Z" fill="#341A12"/>
<path d="M423.807 493.385C466.083 459.739 456.966 377.948 403.445 310.701C349.923 243.453 272.265 216.214 229.989 249.86C187.714 283.507 196.831 365.297 250.352 432.545C303.873 499.792 381.532 527.031 423.807 493.385Z" fill="#F7EDE5"/>
<path d="M440.94 410.86C439.145 394.883 434.489 378.397 427.273 362.128C424.818 356.558 422.032 351.024 418.956 345.53C413.13 335.014 406.206 324.716 398.362 314.825C374.473 284.817 344.646 262.429 314.342 251.802C287.521 242.384 263.116 243.193 244.576 253.816C242.013 255.318 239.555 256.968 237.212 258.837C229.151 265.249 223.105 273.529 219 283.203L218.964 283.24C215.337 291.704 213.211 301.195 212.589 311.454C211.052 334.683 217.022 361.615 230.104 388.255C234.392 397.084 239.486 405.845 245.312 414.454C247.619 417.862 250.077 421.27 252.604 424.605C253.593 425.887 254.582 427.168 255.607 428.453C271.656 448.606 290.344 465.352 310.093 477.333C319.511 483.123 329.221 487.812 338.967 491.256C339.187 491.364 339.408 491.44 339.628 491.512C352.121 495.873 364.03 498.035 375.133 498.035C385.136 498.035 394.406 496.277 402.762 492.757C407.82 490.631 412.473 487.848 416.761 484.441C435.955 469.193 444.531 443.03 440.94 410.86ZM414.704 481.871C407.741 487.405 399.644 491.177 390.63 493.119H390.519C376.083 496.306 359.482 494.841 341.527 488.65C341.271 488.578 340.978 488.502 340.722 488.394C330.427 484.802 320.24 479.82 310.274 473.59C292.427 462.487 275.465 447.463 260.661 429.472C259.816 428.482 258.975 427.457 258.17 426.429C257.365 425.403 256.557 424.414 255.752 423.386C254.03 421.079 252.308 418.769 250.658 416.423L250.622 416.387C249.853 415.325 249.12 414.261 248.424 413.199C243.074 405.431 238.421 397.515 234.389 389.566C222.188 365.637 215.774 341.419 215.517 319.948V319.912C215.445 311.739 216.214 304.007 217.9 296.791C217.9 296.755 217.9 296.755 217.9 296.719C217.9 296.683 217.9 296.683 217.9 296.647C217.9 296.61 217.9 296.61 217.936 296.574C221.452 282.175 228.527 270.046 239.262 261.397C241.753 259.419 244.428 257.661 247.214 256.156C256.412 251.063 267.111 248.536 278.872 248.536C289.571 248.536 301.151 250.626 313.244 254.874C328.12 260.112 342.888 268.212 356.883 278.728C370.842 289.207 384.035 302.105 395.796 316.872C404.333 327.608 411.737 338.856 417.891 350.327C428.627 370.481 435.478 391.294 437.677 411.228C441.16 442.261 432.987 467.324 414.704 481.871Z" fill="#341A12"/>
<path d="M278.681 414.536L254.674 423.806L127.842 472.909C127.231 472.706 126.518 472.637 125.67 472.673C120.508 472.877 112.631 471.789 106.043 470.668L249.682 412.703L270.193 404.418L278.681 414.536Z" fill="#341A12"/>
<path d="M294.735 424.466C303.774 413.509 302.218 397.299 291.261 388.26C280.303 379.222 264.093 380.777 255.055 391.735C246.016 402.692 247.572 418.902 258.529 427.941C269.487 436.979 285.697 435.424 294.735 424.466Z" fill="#341A12"/>
<path d="M393.371 123.937C389.415 157.468 357.478 181.272 322.008 177.085C321.039 176.97 320.073 176.832 319.106 176.675C318.098 176.51 317.092 176.323 316.087 176.113C283.772 169.419 261.266 140.423 264.999 108.788C268.945 75.3462 300.692 51.5882 336.003 55.5741L336.342 55.6136C337.042 55.6958 337.715 55.7747 338.409 55.9258C362.499 59.478 381.738 75.2805 389.7 95.746C389.934 96.298 390.141 96.8501 390.328 97.3988C393.305 105.686 394.462 114.693 393.371 123.937Z" fill="#DB6758"/>
<path d="M310.05 92.5913C305.686 103.807 303.547 116.129 303.728 128.928C303.708 129.474 303.711 130.046 303.757 130.624C303.915 136.654 304.585 142.792 305.755 148.967C308.17 161.621 312.653 170.927 319.106 176.674C318.098 176.51 317.092 176.323 316.087 176.113C310.352 170.063 306.314 161.082 304.069 149.292C300.212 129.083 301.73 109.258 308.456 91.9669C310.234 87.3533 312.465 82.996 314.989 78.8359C315.028 78.7045 315.084 78.5961 315.163 78.5139C320.713 69.451 327.814 61.5777 336 55.5708L336.338 55.6102C337.038 55.6924 337.712 55.7712 338.405 55.9224C330.062 61.7288 322.764 69.5101 317.105 78.5369C316.793 79.0495 316.484 79.5391 316.195 80.0517C313.806 84.0278 311.756 88.2209 310.05 92.5913Z" fill="#341A12"/>
<path d="M390.328 97.3989C365.177 116.014 334.899 127.69 303.757 130.624C303.731 130.644 303.711 130.641 303.688 130.637C303.642 130.654 303.573 130.647 303.504 130.637C303.12 130.591 302.791 130.279 302.772 129.865C302.712 129.402 303.057 128.984 303.521 128.948C303.59 128.935 303.659 128.942 303.728 128.928C322.688 127.118 341.327 122.048 358.657 114.102C359.186 113.869 359.696 113.629 360.205 113.392C370.589 108.512 380.5 102.594 389.7 95.7461C389.93 96.3014 390.141 96.8535 390.328 97.3989Z" fill="#341A12"/>
<path d="M359.715 115.298C359.446 115.265 359.196 115.107 359.062 114.851C350.163 98.0429 333.91 84.9678 315.584 79.8777C315.13 79.7528 314.864 79.2829 314.992 78.8295C315.117 78.376 315.597 78.1197 316.041 78.2347C334.811 83.4463 351.454 96.837 360.57 114.053C360.79 114.467 360.632 114.982 360.215 115.203C360.054 115.288 359.88 115.318 359.715 115.298Z" fill="#341A12"/>
<path d="M282.513 181.078C280.735 176.33 275.951 173.546 271.689 170.799C263.47 165.505 255.926 158.881 250.836 150.537C245.746 142.191 243.288 131.984 245.43 122.445C258.538 126.418 273.115 130.555 280.117 142.329C286.69 153.383 285.099 168.483 282.513 181.078Z" fill="#D5CFA3"/>
<path opacity="0.48" d="M282.513 181.078C280.735 176.33 275.951 173.546 271.689 170.799C263.47 165.505 255.926 158.881 250.836 150.537C245.746 142.191 243.288 131.984 245.43 122.445C258.538 126.418 273.115 130.555 280.117 142.329C286.69 153.383 285.099 168.483 282.513 181.078Z" fill="#341A12"/>
<path d="M294.468 188.315C298.966 185.972 304.385 187.102 309.389 187.914C319.041 189.475 329.079 189.596 338.445 186.797C347.81 183.997 356.465 178.052 361.25 169.528C348.845 163.715 335.244 157.045 322.162 161.113C309.889 164.931 300.967 177.221 294.468 188.315Z" fill="#D5CFA3"/>
<path opacity="0.48" d="M294.468 188.315C298.966 185.972 304.385 187.102 309.389 187.914C319.041 189.475 329.079 189.596 338.445 186.797C347.81 183.997 356.465 178.052 361.25 169.528C348.845 163.715 335.244 157.045 322.162 161.113C309.889 164.931 300.967 177.221 294.468 188.315Z" fill="#341A12"/>
<path d="M-67.9231 113.335C-60.0695 103.651 -51.9957 93.9014 -41.7367 86.8102C-31.4809 79.7222 -18.5997 75.5095 -6.41835 78.1712C0.337746 79.6466 6.46623 83.1101 12.4797 86.5276C4.05099 96.9082 -4.56828 107.578 -17.3345 111.544C-21.9317 112.97 -26.7721 113.411 -31.5763 113.69C-41.9438 114.291 -57.5754 114.15 -67.9231 113.335Z" fill="#341A12"/>
<path opacity="0.35" d="M-67.9231 113.335C-60.0695 103.651 -51.9957 93.9014 -41.7367 86.8102C-31.4809 79.7222 -18.5997 75.5095 -6.41835 78.1712C0.337746 79.6466 6.46623 83.1101 12.4797 86.5276C4.05099 96.9082 -4.56828 107.578 -17.3345 111.544C-21.9317 112.97 -26.7721 113.411 -31.5763 113.69C-41.9438 114.291 -57.5754 114.15 -67.9231 113.335Z" fill="#D5CFA3"/>
<path d="M33.9112 338.475C43.789 346.082 53.7359 353.913 61.0802 363.991C68.4212 374.07 72.9526 386.839 70.5965 399.083C69.2887 405.875 65.9796 412.089 62.7133 418.185C52.1257 410.019 41.2457 401.666 36.9607 389.001C35.4195 384.444 34.8608 379.613 34.4599 374.819C33.6023 364.471 33.3559 348.843 33.9112 338.475Z" fill="#341A12"/>
<path opacity="0.35" d="M33.9112 338.475C43.789 346.082 53.7359 353.913 61.0802 363.991C68.4212 374.07 72.9526 386.839 70.5965 399.083C69.2887 405.875 65.9796 412.089 62.7133 418.185C52.1257 410.019 41.2457 401.666 36.9607 389.001C35.4195 384.444 34.8608 379.613 34.4599 374.819C33.6023 364.471 33.3559 348.843 33.9112 338.475Z" fill="#D5CFA3"/>
<path d="M390.972 230.127C389.487 242.506 387.844 255.059 382.941 266.524C378.038 277.985 369.38 288.412 357.655 292.648C351.152 294.997 344.12 295.332 337.209 295.641C338.813 282.366 340.423 268.745 349.115 258.588C352.243 254.93 356.107 251.98 360.024 249.183C368.473 243.157 381.778 234.951 390.972 230.127Z" fill="#341A12"/>
<path opacity="0.35" d="M390.972 230.127C389.487 242.506 387.844 255.059 382.941 266.524C378.038 277.985 369.38 288.412 357.655 292.648C351.152 294.997 344.12 295.332 337.209 295.641C338.813 282.366 340.423 268.745 349.115 258.588C352.243 254.93 356.107 251.98 360.024 249.183C368.473 243.157 381.778 234.951 390.972 230.127Z" fill="#D5CFA3"/>
</svg>
