<svg width="375" height="576" viewBox="0 0 375 576" fill="none" xmlns="http://www.w3.org/2000/svg">
<g filter="url(#filter0_d_1389_3030)">
<path d="M168.425 312.446C254.611 312.446 324.478 242.579 324.478 156.394C324.478 70.208 254.611 0.34082 168.425 0.34082C82.2397 0.34082 12.3726 70.208 12.3726 156.394C12.3726 242.579 82.2397 312.446 168.425 312.446Z" fill="#FED285"/>
<path d="M132.951 132.166H-56.1008C-54.6925 129.435 -53.2268 126.734 -51.7323 124.032C-48.4559 125.584 -45.3807 127.51 -42.5929 129.809C-21.8426 98.511 16.784 80.0311 54.1748 83.5374C86.0475 86.4689 115.822 105.294 132.951 132.166Z" fill="#FEE9D0"/>
<path d="M306.989 255.088C306.989 255.088 340.253 240.902 344.9 235.519C349.548 230.139 373.52 200.298 377.676 201.275C381.834 202.252 369.603 225.244 369.603 225.244C369.603 225.244 407.269 196.136 410.939 197.849C414.609 199.562 384.769 227.934 384.769 227.934C384.769 227.934 414.121 203.229 417.544 205.919C420.967 208.609 392.839 234.291 392.839 234.291C392.839 234.291 419.99 214.722 423.168 217.171C426.347 219.617 396.506 246.032 396.506 246.032C396.506 246.032 410.448 238.206 412.405 240.896C414.362 243.586 302.336 310.361 302.336 310.361C302.336 310.361 306.251 292.749 306.984 281.497C307.722 270.254 306.989 255.088 306.989 255.088Z" fill="#FEA485"/>
<path opacity="0.22" d="M306.989 255.088C306.989 255.088 340.253 240.902 344.9 235.519C349.548 230.139 373.52 200.298 377.676 201.275C381.834 202.252 369.603 225.244 369.603 225.244C369.603 225.244 407.269 196.136 410.939 197.849C414.609 199.562 384.769 227.934 384.769 227.934C384.769 227.934 414.121 203.229 417.544 205.919C420.967 208.609 392.839 234.291 392.839 234.291C392.839 234.291 419.99 214.722 423.168 217.171C426.347 219.617 396.506 246.032 396.506 246.032C396.506 246.032 410.448 238.206 412.405 240.896C414.362 243.586 302.336 310.361 302.336 310.361C302.336 310.361 306.251 292.749 306.984 281.497C307.722 270.254 306.989 255.088 306.989 255.088Z" fill="#3A1B1A"/>
<path d="M203.646 169.6C203.646 169.6 228.107 191.615 252.076 217.541C276.045 243.468 284.362 253.254 284.362 253.254L326.924 242.982L285.831 355.496L159.619 347.671L185.057 202.381L203.646 169.6Z" fill="#FEE9D0"/>
<path d="M308.09 260.959C308.09 260.959 341.357 246.773 346.001 241.39C350.649 236.01 374.621 206.169 378.776 207.146C382.935 208.123 370.703 231.115 370.703 231.115C370.703 231.115 408.37 202.007 412.04 203.72C415.71 205.433 385.869 233.805 385.869 233.805C385.869 233.805 415.222 209.1 418.645 211.79C422.068 214.48 393.94 240.163 393.94 240.163C393.94 240.163 421.09 220.593 424.269 223.039C427.448 225.485 397.607 251.903 397.607 251.903C397.607 251.903 411.549 244.077 413.506 246.767C415.463 249.457 303.437 316.232 303.437 316.232C303.437 316.232 307.352 298.62 308.085 287.368C308.823 276.122 308.09 260.959 308.09 260.959Z" fill="#FEA485"/>
<path d="M307.461 296.243C307.03 300.037 306.455 304.089 305.679 308.371C305.593 308.918 305.507 309.464 305.392 310.01C305.162 311.245 304.932 312.51 304.673 313.717C304.529 314.407 304.386 315.097 304.242 315.758C303.868 317.453 303.495 319.12 303.064 320.758C303.006 321.046 302.949 321.333 302.891 321.621C302.431 323.431 301.943 325.213 301.454 326.966C295.448 348.636 287.4 364.213 286.423 366.053C286.337 366.196 286.308 366.254 286.308 366.254C286.308 366.254 271.823 366.081 254.263 365.823C253.774 365.794 253.286 365.794 252.797 365.794H252.165C240.698 365.593 228.138 365.363 217.591 365.104C206.411 364.874 197.444 364.587 194.34 364.3C186.322 363.581 178.849 358.494 175.573 355.936C175.285 355.735 174.969 355.476 174.682 355.218C174.136 354.787 173.82 354.528 173.82 354.528L166.462 367.231L178.361 408.933L193.133 460.579L193.535 461.987L226.126 575.999H-28.108C-37.0461 558.582 -53.313 521.651 -53.6579 482.68C-54.1464 428.878 38.3103 310.987 38.3103 310.987C38.3103 310.987 42.4776 285.092 48.3406 256.036C53.9449 228.043 61.1012 197.119 67.5677 183.553C79.1786 159.153 121.541 149.813 131.227 147.944C132.491 147.715 133.21 147.6 133.21 147.6L149.85 149.525L179.913 152.974L186.839 157.831L203.652 169.614C203.652 169.614 209.515 275.752 213.912 276.729C216.757 277.361 254.895 269.486 281.652 263.796C291.97 261.611 300.563 259.743 304.817 258.824C304.874 258.824 304.96 258.795 305.047 258.795C305.995 258.594 306.685 258.421 307.116 258.335C307.461 258.249 307.662 258.22 307.662 258.22C307.662 258.22 307.806 258.996 307.978 260.462C308.036 260.922 308.093 261.468 308.151 262.071C308.151 262.1 308.151 262.1 308.151 262.129C308.754 267.905 309.415 279.833 307.461 296.243Z" fill="#FEE9D0"/>
<path d="M195.148 20.2408C197.723 21.8273 199.585 24.9139 198.895 27.8569C198.545 29.3543 197.591 30.935 198.286 32.3059C198.565 32.8548 199.071 33.2486 199.545 33.6394C206.463 39.3357 210.162 48.705 208.995 57.5914C208.411 62.0375 206.707 66.2795 204.5 70.1824C200.583 77.1059 194.806 83.2534 187.402 86.1619C176.355 90.5074 162.901 86.5642 155.104 77.6146C147.307 68.6649 145.117 55.5049 148.52 44.1353C150.957 35.9904 156.061 28.8054 162.534 23.3534C168.302 18.4934 172.555 18.1112 179.775 18.1457C184.807 18.1715 190.65 17.4674 195.148 20.2408Z" fill="#3A1B1A"/>
<path d="M186.77 157.496C186.77 157.496 190.69 191.113 177.47 194.303C164.278 197.493 130.997 149.296 130.997 149.296L139.82 98.7998L156.432 104.375L189.713 115.555L184.022 145.33L182.367 154.009L186.77 157.496Z" fill="#FEA485"/>
<path opacity="0.22" d="M189.713 115.555L184.022 145.33C181.091 145.042 178.246 144.18 175.63 142.858C168.761 139.352 163.674 132.885 160.685 125.787C158.587 120.815 156.852 108.87 158.518 102.95L189.713 115.555Z" fill="#3A1B1A"/>
<path d="M160.818 105.689C156.119 110.069 149.189 111.354 142.812 110.592C138.179 110.037 133.572 108.454 130.005 105.442C126.439 102.433 124.027 97.8831 124.223 93.2186C124.493 86.7808 129.916 81.1708 136.233 79.9005C142.55 78.6302 149.301 81.3145 153.693 86.0278C158.697 91.3965 158.355 98.7798 160.818 105.689Z" fill="#FEA485"/>
<path d="M174.528 100.974C195.344 95.2788 207.603 73.7869 201.908 52.9703C196.213 32.1537 174.721 19.8954 153.904 25.5905C133.088 31.2856 120.829 52.7775 126.524 73.5941C132.219 94.4106 153.711 106.669 174.528 100.974Z" fill="#FEA485"/>
<path d="M213.07 78.6981C213.07 78.6981 222.936 109.283 215.608 114.867C208.279 120.452 185.324 123.665 185.324 123.665C185.324 123.665 185.089 123.702 184.652 123.748C183.695 123.803 181.809 123.889 179.381 123.636L179.237 123.622C172.466 122.88 161.757 119.463 156.731 106.093C154.69 100.707 152.785 95.1058 151.052 89.8348C146.212 75.0998 142.895 62.6123 142.895 62.6123L196.3 41.0371L206.586 61.1551C206.586 61.1551 223.25 58.2553 225.247 60.6608C227.038 62.8192 215.68 75.7637 213.455 78.2727C213.199 78.5371 213.07 78.6981 213.07 78.6981Z" fill="#FEA485"/>
<path d="M198.51 66.1835C199.591 68.5316 199.01 71.1038 197.214 71.9286C195.421 72.7535 193.09 71.5205 192.009 69.1753C190.928 66.8273 191.509 64.255 193.302 63.4302C195.099 62.6025 197.43 63.8354 198.51 66.1835Z" fill="#3A1B1A"/>
<path d="M179.872 59.6501C180.818 60.7882 182.634 60.4404 183.996 59.8628C186.402 58.8425 196.257 53.4825 189.75 51.5281C187.79 50.939 185.321 51.1804 183.539 52.1806C181.597 53.2698 177.892 57.2647 179.872 59.6501Z" fill="#3A1B1A"/>
<path d="M215.605 114.869C208.276 120.453 185.321 123.666 185.321 123.666C185.321 123.666 185.086 123.703 184.649 123.749C182.893 123.703 181.137 123.654 179.378 123.637L179.234 123.623C172.463 122.881 161.754 119.464 156.728 106.094C154.687 100.708 152.782 95.107 151.049 89.8361C151.049 88.9135 151.27 88.0657 151.805 87.5972C153.311 86.2924 155.794 88.7756 157.288 89.4624C161.8 91.5547 166.977 92.0634 171.923 91.9456C181.441 91.7013 190.874 89.2584 199.191 84.8611C203.833 82.4326 208.273 79.3546 213.455 78.2739C213.199 78.5383 213.07 78.6993 213.07 78.6993C213.07 78.6993 213.159 78.9953 213.366 79.5644C214.406 82.9787 218.148 95.8542 218.315 105.278C218.398 109.644 217.686 113.271 215.605 114.869Z" fill="#3A1B1A"/>
<path d="M218.312 105.275C217.528 105.954 216.668 106.508 215.76 106.971C213.765 107.942 211.587 108.402 209.38 108.546C206.534 108.715 203.597 108.356 201.163 106.89C196.849 104.238 195.234 98.2885 196.947 93.5119C197.536 91.8335 198.484 90.3074 199.539 88.902C201.35 86.5022 203.566 84.3985 206.031 82.6913C208.494 81.0158 210.935 79.6248 213.363 79.5615C213.823 81.1336 214.881 84.6657 215.872 88.9164C215.976 89.359 216.076 89.8303 216.18 90.2729C217.266 95.0783 218.226 100.593 218.312 105.275Z" fill="#FEA485"/>
<path d="M216.182 90.2731C215.513 90.3277 214.82 90.319 214.105 90.2529C209.526 89.8276 204.686 87.5629 204.382 87.4192C204.023 87.241 203.887 86.8242 204.037 86.4621C204.215 86.1029 204.664 85.9419 205.02 86.1201C205.074 86.1546 211.242 89.0631 215.872 88.9165C215.978 89.3591 216.079 89.8305 216.182 90.2731Z" fill="#3A1B1A"/>
<path d="M67.5762 183.557C72.6948 175.401 80.5524 169 89.5767 165.638C104.536 160.065 121.613 162.864 136.581 157.312C140.846 155.731 144.864 153.486 148.448 150.687C151.808 148.06 154.845 144.862 156.544 140.95C158.242 137.039 158.455 132.331 156.392 128.598C153.627 123.6 147.459 121.188 144.795 116.139C141.717 110.307 144.579 102.709 149.715 98.5757C153.998 95.1298 159.564 93.5089 163.674 89.8589C170.923 83.4211 171.446 70.8445 164.761 63.8262C162.266 61.2079 158.691 58.6529 159.067 55.0576C159.559 50.3758 161.944 46.8235 165.287 43.5098C168.629 40.1932 172.469 37.1784 174.573 32.968C176.817 28.4759 176.722 22.8917 174.328 18.4801C159.789 18.0605 144.717 20.2131 132.238 27.6884C119.76 35.1637 110.27 48.6428 110.353 63.1881C110.387 69.0683 111.787 75.5377 108.491 80.4092C105.513 84.8093 99.8111 86.1917 94.9712 88.3845C85.3979 92.7185 77.8192 101.875 76.6552 112.319C75.9798 118.366 77.3938 124.471 79.4258 130.204C80.9001 134.36 82.6906 139.039 80.7076 142.976C78.5262 147.304 73.0167 148.414 68.7402 150.69C62.6933 153.906 58.5145 160.384 58.0748 167.221C57.6351 174.05 61.992 179.591 67.5762 183.557Z" fill="#3A1B1A"/>
<path d="M38.3017 310.978C38.3017 310.978 83.0614 358.675 166.471 367.233" stroke="#D2695F" stroke-miterlimit="10" stroke-linecap="round" stroke-linejoin="round"/>
<path d="M95.4139 255.088C95.4139 255.088 161.456 355.983 187.871 363.323C214.286 370.66 286.32 366.257 286.32 366.257C286.32 366.257 297.031 349.396 303.075 320.762C310.048 287.742 307.846 258.022 307.846 258.022C307.846 258.022 228.963 280.037 213.921 276.735C198.878 273.433 142.01 191.983 142.01 191.983" stroke="#3A1B1A" stroke-width="0.5" stroke-miterlimit="10" stroke-linecap="round" stroke-linejoin="round"/>
<path d="M200.712 191.616L209.518 273.801" stroke="#3A1B1A" stroke-width="0.5" stroke-miterlimit="10" stroke-linecap="round" stroke-linejoin="round"/>
<path d="M464.87 439.139V575.999H5.51801C8.21957 563.957 11.8121 552.088 18.0199 541.368C23.9979 531.05 32.6486 522.026 43.5986 517.312C51.5308 513.921 60.2391 512.915 68.4587 510.3C87.4846 504.235 93.4051 486.934 96.8539 468.885C98.0897 462.534 99.4405 456.613 101.136 451.124C107.43 430.977 118.495 417.009 144.103 412.928C149.879 412.009 155.771 411.721 161.605 411.319C162.094 411.29 162.582 411.233 163.071 411.204C168.302 410.802 173.446 410.227 178.361 408.934C181.407 408.1 184.367 407.008 187.184 405.513C189.77 404.134 192.3 402.352 194.628 400.11C204.255 390.885 208.94 377.952 216.298 366.973C216.729 366.341 217.16 365.737 217.591 365.105C218.338 364.128 219.057 363.151 219.833 362.202C220.781 361.053 221.758 359.932 222.735 358.84C223.741 357.719 224.747 356.627 225.81 355.563C226.701 354.615 227.65 353.666 228.598 352.747C228.857 352.488 229.144 352.229 229.403 351.999C229.834 351.597 230.265 351.195 230.696 350.85C236.358 345.648 242.681 340.848 249.291 336.595C250.211 335.962 251.13 335.388 252.079 334.784C253.056 334.209 254.033 333.606 255.01 333.002C256.878 331.939 258.804 330.847 260.701 329.812C261.247 329.496 261.85 329.151 262.425 328.864C265.414 327.283 268.461 325.789 271.45 324.409C274.122 323.202 276.795 322.052 279.411 321.018C286.452 318.201 293.579 316.103 300.793 314.522C301.857 314.264 302.891 314.063 303.955 313.833C304.098 313.804 304.271 313.775 304.415 313.746C304.501 313.746 304.587 313.718 304.673 313.718C306.11 313.43 307.576 313.143 309.013 312.913C320.394 311.016 331.919 310.326 343.53 310.183H346.26C346.806 310.183 347.266 310.154 347.783 310.183H347.812C354.365 310.154 360.946 310.326 367.528 310.528C371.896 310.643 376.236 311.074 380.489 311.878C381.179 311.965 381.84 312.108 382.53 312.252C383.018 312.338 383.478 312.453 383.967 312.597H383.996C388.105 313.488 392.072 314.81 395.865 316.505C396.354 316.707 396.871 316.937 397.331 317.195C398.021 317.54 398.711 317.885 399.4 318.259C407.103 322.397 413.684 328.404 418.311 336.767C419.777 339.411 420.927 342.228 421.818 345.131C423.427 350.304 424.26 355.764 424.778 361.196C425.18 365.565 425.381 369.933 425.583 374.158C426.186 388.528 426.1 405.916 436.877 416.837C438.602 418.619 440.499 420.228 442.453 421.752C442.941 422.125 443.43 422.499 443.947 422.872C447.396 425.43 450.989 427.787 454.495 430.259C458.375 433.046 461.824 436.007 464.87 439.139Z" fill="#647298"/>
<path opacity="0.21" d="M97.2849 492.452C96.94 500.125 96.825 507.885 95.8766 515.501C95.7904 516.191 95.7042 516.881 95.5892 517.571C95.3018 519.784 94.8994 521.996 94.4109 524.181C92.0829 534.556 87.2833 544.759 79.0349 551.484C65.5846 562.434 46.7024 561.801 29.6308 565.825C29.1135 565.94 28.5674 566.084 28.0501 566.227C23.9115 567.262 19.8879 568.642 16.0942 570.538C13.019 572.062 10.2025 573.901 7.5297 575.999H5.51788C8.21945 563.957 11.8119 552.087 18.0198 541.367C23.9977 531.05 32.6485 522.025 43.5984 517.312C51.5307 513.921 60.2389 512.915 68.4586 510.299C87.4845 504.235 93.4049 486.934 96.8538 468.885C98.0896 462.533 99.4404 456.613 101.136 451.124C102.056 464.516 97.716 480.898 97.2849 492.452Z" fill="#3A1B1A"/>
<path opacity="0.21" d="M343.541 310.194C325.064 328.435 290.792 322.885 270.513 340.106C264.029 345.61 259.637 352.858 255.355 360.259C254.614 361.552 253.875 362.82 253.136 364.113C251.165 367.516 249.136 370.89 246.885 374.054C233.38 393.092 210.406 404.918 187.169 405.516C189.782 404.122 192.297 402.349 194.627 400.11C205.707 389.493 210.245 373.994 219.847 362.199C220.784 361.055 221.746 359.943 222.738 358.831C223.73 357.718 224.75 356.635 225.799 355.554C226.698 354.612 227.655 353.669 228.61 352.758C229.296 352.094 229.983 351.43 230.696 350.852C236.361 345.636 242.672 340.845 249.279 336.583C250.225 335.959 251.136 335.39 252.082 334.792C253.053 334.198 254.027 333.603 254.999 333.008C256.881 331.901 258.792 330.823 260.704 329.806C261.261 329.481 261.85 329.159 262.437 328.866C265.431 327.286 268.452 325.791 271.467 324.412C274.131 323.19 276.792 322.058 279.422 321.009C300.244 312.723 321.759 310.447 343.541 310.194Z" fill="#3A1B1A"/>
<path d="M347.783 310.183C341.345 333.318 334.534 356.971 325.854 379.619C320.854 392.753 315.939 403.3 308.208 412.009C300.707 420.458 290.964 426.551 281.537 432.385C275.157 436.38 268.604 440.461 262.77 445.261C259.81 447.704 256.073 451.066 253.774 455.406C251.13 460.378 250.469 466.327 250.038 471.989C248.687 489.636 248.745 507.598 248.802 525.015L248.946 575.999H247.509L247.365 525.015C247.308 507.569 247.25 489.578 248.601 471.874C249.032 466.069 249.693 459.947 252.51 454.716C254.924 450.147 258.775 446.669 261.879 444.14C267.742 439.283 274.381 435.173 280.761 431.178C290.13 425.373 299.787 419.366 307.116 411.06C314.703 402.496 319.56 392.092 324.504 379.13C333.126 356.627 339.88 333.175 346.26 310.183C346.806 310.183 347.266 310.154 347.783 310.183Z" fill="#3A1B1A"/>
<path d="M382.874 392.638C382.328 400.341 381.552 407.784 378.19 414.251C374.023 422.183 366.521 427.471 359.279 432.587C352.697 437.214 345.944 441.985 341.719 448.681C334.534 460.005 335.798 474.892 336.948 488.027C339.477 517.169 340.454 546.685 340.857 576H339.42C339.046 546.714 338.04 517.255 335.54 488.142C334.361 474.777 333.068 459.66 340.512 447.906C344.88 440.979 351.778 436.122 358.417 431.38C365.544 426.408 372.902 421.206 376.925 413.561C380.144 407.353 380.863 400.369 381.437 392.523C383.306 365.91 383.65 338.981 382.53 312.252C383.018 312.339 383.478 312.454 383.967 312.597H383.995C385.116 339.239 384.714 366.083 382.874 392.638Z" fill="#3A1B1A"/>
<path d="M262.425 328.864C260.184 337.084 258.344 345.419 256.677 353.696C256.217 355.88 255.786 358.064 255.355 360.248C254.982 362.116 254.579 363.956 254.263 365.824C254.206 366.054 254.148 366.313 254.119 366.542C254.062 366.859 254.004 367.146 253.947 367.462C250.958 382.723 247.825 398.501 242.997 413.59C235.381 437.588 223.885 452.475 208.911 457.907C203.911 459.689 198.68 460.896 193.535 461.988C192.731 462.161 191.926 462.304 191.121 462.477C186.781 463.396 182.327 464.316 178.016 465.581C169.48 468.052 158.3 472.938 153.328 482.164C149.649 489.033 149.649 497.396 149.707 505.529C149.736 509.323 149.764 513.203 149.362 516.795C148.758 522.831 147.839 529.786 144.936 535.965C142.694 540.765 139.332 544.961 136.113 548.955C134.676 550.737 133.21 552.606 131.831 554.474C127.031 561.084 123.438 568.384 120.737 576H119.214C122.001 568.068 125.709 560.48 130.681 553.611C132.06 551.743 133.526 549.875 134.992 548.093C138.153 544.098 141.458 539.989 143.643 535.361C146.43 529.384 147.321 522.572 147.954 516.623C148.327 513.117 148.299 509.438 148.27 505.558C148.212 497.223 148.184 488.659 152.063 481.474C157.294 471.817 168.848 466.759 177.613 464.201C181.953 462.937 186.465 461.988 190.834 461.068C191.61 460.896 192.386 460.752 193.133 460.58C198.249 459.488 203.479 458.309 208.423 456.528C222.965 451.268 234.145 436.697 241.646 413.159C246.388 398.271 249.492 382.637 252.481 367.491C252.539 367.088 252.625 366.657 252.711 366.255C252.74 366.111 252.769 365.939 252.797 365.795C252.912 365.22 253.027 364.674 253.142 364.128C253.832 360.622 254.522 357.116 255.24 353.609C256.85 345.677 258.603 337.687 260.701 329.813C261.247 329.497 261.851 329.152 262.425 328.864Z" fill="#3A1B1A"/>
<path d="M163.071 411.204C161.26 421.292 157.38 431.178 148.701 436.725C144.591 439.369 139.791 440.663 135.193 441.956C131.055 443.106 126.743 444.284 123.036 446.439C115.046 451.038 109.183 460.378 106.539 472.823C105.39 478.226 104.815 483.83 104.269 489.262C103.751 494.493 103.205 499.896 102.142 505.184C101.309 509.179 100.015 513.662 96.7102 516.709C96.3653 517.025 95.9916 517.312 95.618 517.571H95.5893C92.5141 519.87 88.5767 520.704 85.0992 521.422C70.0394 524.612 54.4335 528.607 43.6848 539.27C37.3332 545.621 32.6773 554.358 29.6309 565.826C28.7687 568.987 28.0502 572.378 27.4466 576H25.9809C26.527 572.551 27.2455 569.303 28.0502 566.228V566.199C31.1541 554.1 36.0112 544.903 42.7076 538.264C53.715 527.314 69.5508 523.233 84.8118 520.014C88.548 519.238 92.8302 518.318 95.733 515.645C95.7905 515.588 95.8479 515.559 95.8767 515.502C98.7794 512.714 99.9578 508.604 100.705 504.868C101.768 499.695 102.314 494.32 102.832 489.118C103.407 483.658 103.981 477.996 105.131 472.535C107.89 459.689 113.954 449.974 122.318 445.175C126.197 442.933 130.566 441.755 134.791 440.576C139.332 439.341 143.988 438.047 147.925 435.518C156.058 430.288 159.795 420.947 161.605 411.319C162.094 411.29 162.582 411.233 163.071 411.204Z" fill="#3A1B1A"/>
<path d="M455.99 198.699H262.224C268.001 193.152 275.186 189.128 282.974 187.203C296.856 183.783 312.261 187.289 323.325 196.342C344.076 165.044 382.702 146.564 420.093 150.071C427.364 150.732 434.521 152.226 441.447 154.468C441.792 155.273 442.137 156.106 442.482 156.94C443.832 160.216 445.097 163.521 446.333 166.884C447.368 169.7 448.345 172.574 449.293 175.448C449.667 176.511 450.012 177.575 450.328 178.667V178.696C452.454 185.277 454.351 191.916 455.99 198.699Z" fill="#FEE9D0"/>
<path d="M20.4341 313.17H-89.8702V271.526C-70.0109 279.343 -52.422 292.995 -40.6385 310.814C-29.6023 301.76 -14.1977 298.254 -0.316238 301.674C7.47231 303.6 14.6861 307.623 20.4341 313.17Z" fill="#FEE9D0"/>
<path d="M67.3253 40.5534L59.4117 28.918L47.907 36.7427L55.8206 48.3781L67.3253 40.5534Z" fill="#FEE9D0"/>
<path d="M95.9384 21.09L88.0248 9.45459L76.5201 17.2793L84.4337 28.9147L95.9384 21.09Z" fill="#FEE9D0"/>
<path d="M95.5457 70.6315L88.5275 60.314L78.3264 67.2529L85.3445 77.5705L95.5457 70.6315Z" fill="#FEE9D0"/>
</g>
<defs>
<filter id="filter0_d_1389_3030" x="-93.8702" y="0.34082" width="562.74" height="583.659" filterUnits="userSpaceOnUse" color-interpolation-filters="sRGB">
<feFlood flood-opacity="0" result="BackgroundImageFix"/>
<feColorMatrix in="SourceAlpha" type="matrix" values="0 0 0 0 0 0 0 0 0 0 0 0 0 0 0 0 0 0 127 0" result="hardAlpha"/>
<feOffset dy="4"/>
<feGaussianBlur stdDeviation="2"/>
<feComposite in2="hardAlpha" operator="out"/>
<feColorMatrix type="matrix" values="0 0 0 0 0 0 0 0 0 0 0 0 0 0 0 0 0 0 0.25 0"/>
<feBlend mode="normal" in2="BackgroundImageFix" result="effect1_dropShadow_1389_3030"/>
<feBlend mode="normal" in="SourceGraphic" in2="effect1_dropShadow_1389_3030" result="shape"/>
</filter>
</defs>
</svg>
